<?xml version="1.0" encoding="utf-8"?>
<!-- Generator: Adobe Illustrator 27.2.0, SVG Export Plug-In . SVG Version: 6.00 Build 0)  -->
<svg version="1.1" id="Layer_1" xmlns="http://www.w3.org/2000/svg" xmlns:xlink="http://www.w3.org/1999/xlink" x="0px" y="0px"
	 viewBox="0 0 512 512" style="enable-background:new 0 0 512 512;" xml:space="preserve">
<style type="text/css">
	.st0{fill:#FFFFFF;}
	.st1{fill:#0028F0;}
</style>
<g id="AL_HILAL">
	<path class="st0" d="M255.9,512l-4.6-2C132.7,458.1,56.1,340.4,56.1,210.1v-170l7-3C120.2,12.8,186.8,0,256,0
		s135.8,12.8,192.8,37.1l7,3v170c0,130.3-76.7,247.9-195.3,299.8L255.9,512z"/>
	<path class="st1" d="M255.9,499.4c-3.5-1.7-7.1-3.3-10.5-5.1c-8.6-4.5-17.2-9.1-25.8-13.7c-0.6-0.3-0.9-1.2-1.1-1.9
		c-0.2-0.5,0-1.2,0-1.8c0-61.9,0-123.9,0-185.8c0-0.9,0-1.8,0-2.9c-0.7,0.2-1.2,0.3-1.7,0.5c-31.7,14.4-54.4,37.5-66.3,70.5
		c-5.7,15.7-7.5,32-6.2,48.7c0.1,1.5,0.2,3,0.5,4.4c0.3,1.5-0.1,2.4-1.8,2.9c-2.1-2.6-4.3-5.2-6.5-7.9
		c-28.4-35.7-48.3-75.6-59.4-119.8c-3.4-13.5-5.8-27.2-7.4-41.1c-1.5-13.3-2-26.6-2-40c0-52.5,0-105.1-0.1-157.6
		c0-1.7,0.5-2.3,2-2.9c23.2-8.8,46.9-16.1,71.1-21.5c0.6-0.1,1.1-0.2,2-0.4c0,80.4,0,160.7,0,241.4c1.1-0.6,1.8-0.9,2.4-1.4
		c15.1-9.6,31.2-16.8,48.7-20.7c14.6-3.3,29.4-4.3,44.4-3.1c22.4,1.8,43.4,8.1,62.6,20.1c10.5,6.6,19.7,14.6,27.6,24.2
		c0.3,0.4,0.6,0.7,0.8,1.1c-0.4,1.7-1.4,1.8-2.8,1.2c-10.2-3.6-20.6-6.4-31.3-8.1c-0.4-0.1-0.8-0.1-1.6-0.1c0,0.9,0,1.7,0,2.5
		c0,65.3,0,130.7,0.1,196c0,2-0.7,3-2.3,4c-10.8,6.4-21.9,12.2-33.3,17.3c-0.6,0.3-1.2,0.7-1.8,1.1
		C256.2,499.4,256.1,499.4,255.9,499.4z"/>
	<path class="st1" d="M179.4,189.7c4.3-5,8.6-10.5,13.3-15.6c7.3-7.8,15.6-14.5,24.6-20.2c1.3-0.8,1.3-1.8,1.3-3
		c0-44.9,0-89.8,0-134.6c0-0.4,0-0.8,0-1.2c0-2.4,0-2.4,2.5-2.4c13.7-0.4,27.3-1,41-1c10.1,0,20.2,0.7,30.3,1.1c1,0,1.6,0.4,1.4,1.5
		c0,0.5,0,1,0,1.4c0,37.2,0,74.3,0,111.5c0,0.8,0,1.5,0,2.5c26-1.5,51.1,2.1,75.4,11.6c0-39.2,0-78.1,0-117.3
		c2.7,0.6,5.3,1.1,7.8,1.7c22.3,5.3,44.1,12.1,65.5,20.3c1.4,0.6,1.9,1.2,1.9,2.8c0,55.9,0.2,111.8-0.1,167.6
		c-0.2,41.8-9.2,81.9-25.9,120.3c-11.7,26.9-27,51.7-45.6,74.3c-0.7,0.9-1.4,2.2-2.8,1c-0.4-0.3-0.7-0.9-0.8-1.4
		c-0.1-0.5,0-1.1,0-1.6c0-60.3,0-120.7,0-181c0-1.7-0.5-2.9-1.6-4.1c-20.5-22.9-46-37.3-75.8-44.3c-14.6-3.4-29.4-4.6-44.4-3.8
		c-22.6,1.1-44.2,6.5-64.8,15.8C181,192.1,180.1,192.1,179.4,189.7z"/>
</g>
</svg>
