<?xml version="1.0" encoding="utf-8"?>
<!-- Generator: Adobe Illustrator 21.1.0, SVG Export Plug-In . SVG Version: 6.00 Build 0)  -->
<svg version="1.1" id="Layer_1" xmlns="http://www.w3.org/2000/svg" xmlns:xlink="http://www.w3.org/1999/xlink" x="0px" y="0px"
	 viewBox="0 0 992.1 992.1" style="enable-background:new 0 0 992.1 992.1;" xml:space="preserve">
<style type="text/css">
	.st0{fill-rule:evenodd;clip-rule:evenodd;fill:#FCAF1B;}
	.st1{fill-rule:evenodd;clip-rule:evenodd;fill:#154A8C;}
</style>
<path class="st0" d="M498.3,989.1C219.9,807.9,73.9,529,94.4,172.7L311.1,9.1c52.5,51.1,118.6,76.1,187.2,76.6
	C566.9,85.2,633,60.2,685.5,9.1l216.7,163.6C922.6,529.1,776.6,808,498.3,989.1L498.3,989.1z"/>
<path class="st1" d="M498.3,125.8c-65-0.1-129.8-23.6-189.2-67.4L130.9,193.2c-17.2,282.6,97.9,572,367.4,749.3
	c269.5-177.4,384.5-466.8,367.4-749.4L687.5,58.3C628.1,102.1,563.3,125.6,498.3,125.8L498.3,125.8z"/>
<path class="st0" d="M331.6,448.5h-54.2v-24.2h-29.5v89.1h29.5l-0.1-23.8l54.3,0l0,34.7l-29.6,29.9h-78.7l-29.6-29.9V413.2
	l29.6-29.8H302l29.6,29.9L331.6,448.5L331.6,448.5z M452.3,506.2l3.1,7.3h-8.4l0.1,40.7h68.1v-40.7h-7.4l-39.7-89.1h9l0-41h-98.2
	l-0.1,41h9l-39.7,89.1h-7.4v40.7h68.3l-0.1-40.7h-8.4l3.1-7.3H452.3L452.3,506.2z M417,473.4l10.9-20.2l10.5,20.2L417,473.4
	L417,473.4z M803.6,383.4l0.1,41H795l0.1,104.8l-22,25.1H704l-27.4-25.3l0.1-44.4l48.6,0l0.1,29l19.8-0.1l0.1-89h-8.7v-41H803.6
	L803.6,383.4z M526.4,383.4h108.2l29.7,29.4v42.6l-11.8,8.6l11.8,8.4v51.7l-29.8,30.1H526.4v-40.7h13.8l0.1-89.2l-13.9,0V383.4
	L526.4,383.4z M610.2,447.8l-21.5,0v-23.5h21.5V448V447.8L610.2,447.8z M610.2,489.6v23.9h-21.5v-23.9L610.2,489.6L610.2,489.6z"/>
<polygon class="st0" points="306.7,90.8 313,110.4 333.8,110.4 316.8,122.6 323.4,142.2 306.5,130.3 290,142.2 296.3,122.8 
	279.4,110.4 300.3,110.4 306.7,90.8 "/>
<polygon class="st0" points="306.7,156.3 313,176 333.8,176 316.8,188.2 323.4,207.8 306.5,195.9 290,207.8 296.3,188.3 279.4,176 
	300.3,176 306.7,156.3 "/>
<polygon class="st0" points="396.3,156.3 402.6,176 423.3,176 406.4,188.2 413,207.8 396.1,195.9 379.5,207.8 385.9,188.3 
	368.9,176 389.9,176 396.3,156.3 "/>
<polygon class="st0" points="485.8,156.3 492.1,176 512.9,176 496,188.2 502.6,207.8 485.6,195.9 469.1,207.8 475.5,188.3 
	458.5,176 479.5,176 485.8,156.3 "/>
<polygon class="st0" points="575.4,156.3 581.7,176 602.4,176 585.5,188.2 592.1,207.8 575.2,195.9 558.7,207.8 565,188.3 548,176 
	569,176 575.4,156.3 "/>
<polygon class="st0" points="658.8,156.3 665.1,176 685.8,176 668.9,188.2 675.5,207.8 658.6,195.9 642.1,207.8 648.4,188.3 
	631.4,176 652.4,176 658.8,156.3 "/>
<polygon class="st0" points="748.3,156.3 754.7,176 775.4,176 758.5,188.2 765.1,207.8 748.2,195.9 731.6,207.8 738,188.3 721,176 
	742,176 748.3,156.3 "/>
<polygon class="st0" points="217.1,156.3 223.4,176 244.2,176 227.3,188.2 233.9,207.8 216.9,195.9 200.4,207.8 206.8,188.3 
	189.8,176 210.8,176 217.1,156.3 "/>
<polygon class="st0" points="186.5,227.7 192.8,247.4 213.6,247.4 196.7,259.6 203.3,279.2 186.4,267.3 169.8,279.2 176.2,259.7 
	159.2,247.4 180.2,247.4 186.5,227.7 "/>
<polygon class="st0" points="269.6,227.7 275.9,247.4 296.6,247.4 279.7,259.6 286.3,279.2 269.4,267.3 252.9,279.2 259.2,259.7 
	242.3,247.4 263.2,247.4 269.6,227.7 "/>
<polygon class="st0" points="358.8,227.7 365.1,247.4 385.9,247.4 369,259.6 375.5,279.2 358.6,267.3 342.1,279.2 348.5,259.7 
	331.5,247.4 352.5,247.4 358.8,227.7 "/>
<polygon class="st0" points="448,227.7 454.4,247.4 475.1,247.4 458.2,259.6 464.8,279.2 447.9,267.3 431.3,279.2 437.7,259.7 
	420.7,247.4 441.7,247.4 448,227.7 "/>
<polygon class="st0" points="537.3,227.7 543.6,247.4 564.3,247.4 547.4,259.6 554,279.2 537.1,267.3 520.6,279.2 526.9,259.7 
	509.9,247.4 530.9,247.4 537.3,227.7 "/>
<polygon class="st0" points="626.5,227.7 632.8,247.4 653.6,247.4 636.7,259.6 643.2,279.2 626.3,267.3 609.8,279.2 616.2,259.7 
	599.2,247.4 620.1,247.4 626.5,227.7 "/>
<polygon class="st0" points="715.7,227.7 722,247.4 742.8,247.4 725.9,259.6 732.5,279.2 715.6,267.3 699,279.2 705.4,259.7 
	688.4,247.4 709.4,247.4 715.7,227.7 "/>
<polygon class="st0" points="811.1,227.7 817.4,247.4 838.2,247.4 821.3,259.6 827.9,279.2 811,267.3 794.4,279.2 800.8,259.7 
	783.8,247.4 804.8,247.4 811.1,227.7 "/>
<polygon class="st0" points="186.5,300.6 192.8,320.3 213.6,320.3 196.7,332.5 203.3,352.1 186.4,340.2 169.8,352.1 176.2,332.6 
	159.2,320.3 180.2,320.2 186.5,300.6 "/>
<polygon class="st0" points="263.8,574.6 270.1,594.2 290.8,594.2 273.9,606.4 280.5,626 263.6,614.1 247,626 253.4,606.6 
	236.4,594.2 257.4,594.2 263.8,574.6 "/>
<polygon class="st0" points="362.8,574.6 369.2,594.2 389.9,594.2 373,606.4 379.6,626 362.7,614.1 346.1,626 352.5,606.6 
	335.5,594.2 356.5,594.2 362.8,574.6 "/>
<polygon class="st0" points="461.9,574.6 468.3,594.2 489,594.2 472.1,606.4 478.7,626 461.8,614.1 445.2,626 451.6,606.6 
	434.6,594.2 455.6,594.2 461.9,574.6 "/>
<polygon class="st0" points="561,574.6 567.3,594.2 588.1,594.2 571.2,606.4 577.8,626 560.9,614.1 544.3,626 550.7,606.6 
	533.7,594.2 554.7,594.2 561,574.6 "/>
<polygon class="st0" points="660.1,574.6 666.4,594.2 687.2,594.2 670.3,606.4 676.9,626 659.9,614.1 643.4,626 649.8,606.6 
	632.8,594.2 653.8,594.2 660.1,574.6 "/>
<polygon class="st0" points="313.3,629.9 319.6,649.6 340.4,649.6 323.5,661.8 330,681.4 313.1,669.5 296.6,681.4 303,661.9 
	286,649.6 306.9,649.5 313.3,629.9 "/>
<polygon class="st0" points="412.4,629.9 418.7,649.6 439.5,649.6 422.5,661.8 429.1,681.4 412.2,669.5 395.7,681.4 402.1,661.9 
	385.1,649.6 406,649.5 412.4,629.9 "/>
<polygon class="st0" points="511.5,629.9 517.8,649.6 538.5,649.6 521.6,661.8 528.2,681.4 511.3,669.5 494.8,681.4 501.1,661.9 
	484.1,649.6 505.1,649.5 511.5,629.9 "/>
<polygon class="st0" points="610.6,629.9 616.9,649.6 637.6,649.6 620.7,661.8 627.3,681.4 610.4,669.5 593.8,681.4 600.2,661.9 
	583.2,649.6 604.2,649.5 610.6,629.9 "/>
<polygon class="st0" points="357,696.9 363.3,716.6 384.1,716.6 367.2,728.8 373.8,748.4 356.8,736.5 340.3,748.4 346.7,729 
	329.7,716.6 350.7,716.6 357,696.9 "/>
<polygon class="st0" points="456.1,696.9 462.4,716.6 483.2,716.6 466.3,728.8 472.8,748.4 455.9,736.5 439.4,748.4 445.8,729 
	428.8,716.6 449.7,716.6 456.1,696.9 "/>
<polygon class="st0" points="555.2,696.9 561.5,716.6 582.3,716.6 565.4,728.8 571.9,748.4 555,736.5 538.5,748.4 544.9,729 
	527.9,716.6 548.8,716.6 555.2,696.9 "/>
<polygon class="st0" points="408,758.2 414.3,777.8 435.1,777.8 418.2,790 424.8,809.6 407.8,797.7 391.3,809.6 397.7,790.2 
	380.7,777.8 401.7,777.8 408,758.2 "/>
<polygon class="st0" points="507.1,758.2 513.4,777.8 534.2,777.8 517.3,790 523.8,809.6 506.9,797.7 490.4,809.6 496.8,790.2 
	479.8,777.8 500.7,777.8 507.1,758.2 "/>
<polygon class="st0" points="453.2,809.2 459.5,828.8 480.3,828.8 463.4,841 469.9,860.6 453,848.7 436.5,860.6 442.9,841.2 
	425.9,828.8 446.8,828.8 453.2,809.2 "/>
<polygon class="st0" points="501.3,854.3 507.6,874 528.3,874 511.4,886.2 518,905.8 501.1,893.9 484.6,905.8 490.9,886.3 
	473.9,874 494.9,874 501.3,854.3 "/>
<polygon class="st0" points="552.3,809.2 558.6,828.8 579.3,828.8 562.4,841 569,860.6 552.1,848.7 535.6,860.6 541.9,841.2 
	525,828.8 545.9,828.8 552.3,809.2 "/>
<polygon class="st0" points="606.2,758.2 612.5,777.8 633.3,777.8 616.4,790 622.9,809.6 606,797.7 589.5,809.6 595.9,790.2 
	578.9,777.8 599.8,777.8 606.2,758.2 "/>
<polygon class="st0" points="654.3,696.9 660.6,716.6 681.4,716.6 664.4,728.8 671,748.4 654.1,736.5 637.6,748.4 643.9,729 
	627,716.6 647.9,716.6 654.3,696.9 "/>
<polygon class="st0" points="709.7,629.9 716,649.6 736.7,649.6 719.8,661.8 726.4,681.4 709.5,669.5 692.9,681.4 699.3,661.9 
	682.3,649.6 703.3,649.5 709.7,629.9 "/>
<polygon class="st0" points="753,574.6 759.4,594.2 780.1,594.2 763.2,606.4 769.8,626 752.9,614.1 736.3,626 742.7,606.6 
	725.7,594.2 746.7,594.2 753,574.6 "/>
<polygon class="st0" points="269.6,300.6 275.9,320.3 296.6,320.3 279.7,332.5 286.3,352.1 269.4,340.2 252.9,352.1 259.2,332.6 
	242.3,320.3 263.2,320.2 269.6,300.6 "/>
<polygon class="st0" points="358.8,300.6 365.1,320.3 385.9,320.3 369,332.5 375.5,352.1 358.6,340.2 342.1,352.1 348.5,332.6 
	331.5,320.3 352.5,320.2 358.8,300.6 "/>
<polygon class="st0" points="448,300.6 454.4,320.3 475.1,320.3 458.2,332.5 464.8,352.1 447.9,340.2 431.3,352.1 437.7,332.6 
	420.7,320.3 441.7,320.2 448,300.6 "/>
<polygon class="st0" points="537.3,300.6 543.6,320.3 564.3,320.3 547.4,332.5 554,352.1 537.1,340.2 520.6,352.1 526.9,332.6 
	509.9,320.3 530.9,320.2 537.3,300.6 "/>
<polygon class="st0" points="626.5,300.6 632.8,320.3 653.6,320.3 636.7,332.5 643.2,352.1 626.3,340.2 609.8,352.1 616.2,332.6 
	599.2,320.3 620.1,320.2 626.5,300.6 "/>
<polygon class="st0" points="715.7,300.6 722,320.3 742.8,320.3 725.9,332.5 732.5,352.1 715.6,340.2 699,352.1 705.4,332.6 
	688.4,320.3 709.4,320.2 715.7,300.6 "/>
<polygon class="st0" points="811.1,300.6 817.4,320.3 838.2,320.3 821.3,332.5 827.9,352.1 811,340.2 794.4,352.1 800.8,332.6 
	783.8,320.3 804.8,320.2 811.1,300.6 "/>
<polygon class="st0" points="685.6,90.8 691.9,110.4 712.6,110.4 695.7,122.6 702.3,142.2 685.4,130.3 668.8,142.2 675.2,122.8 
	658.2,110.4 679.2,110.4 685.6,90.8 "/>
</svg>
