<?xml version="1.0" encoding="utf-8"?>
<!-- Generator: Adobe Illustrator 23.0.1, SVG Export Plug-In . SVG Version: 6.00 Build 0)  -->
<svg version="1.1" id="Layer_1" xmlns="http://www.w3.org/2000/svg" xmlns:xlink="http://www.w3.org/1999/xlink" x="0px" y="0px"
	 viewBox="0 0 595.28 595.28" style="enable-background:new 0 0 595.28 595.28;" xml:space="preserve">
<style type="text/css">
	.st0{fill:#FFFFFF;}
	.st1{fill:#EE3124;}
</style>
<path d="M502.22,12.72c-74.16,38.46-142.17,38.53-202.15,0.2l-2.43-1.55l-2.43,1.55c-59.98,38.32-127.99,38.25-202.15-0.2l-6.6-3.42
	v338.31c0,50.5,22.71,105.46,62.31,150.78c40.59,46.46,93.18,77.51,148.07,87.44l0.8,0.15l0.8-0.15
	c54.89-9.93,107.47-40.98,148.06-87.44c39.6-45.32,62.31-100.28,62.31-150.78V9.3L502.22,12.72z"/>
<path class="st0" d="M499.78,203.63c0-82.99,0-172.38,0-179.67c-73.69,36.19-141.65,35.56-202.14-1.98
	c-60.49,37.54-128.45,38.17-202.14,1.98c0,7.29,0,96.68,0,179.67H499.78z"/>
<path class="st0" d="M434.57,212.67h-66.51v337.56c24.25-13.75,47.5-31.59,66.51-52.11V212.67z"/>
<path class="st0" d="M226.77,212.67h-67.5v286.06c19.03,20.41,43.27,38.15,67.5,51.8V212.67z"/>
<path d="M295.37,35.03c-58.8,38.61-132.93,25.73-184.76,8.13l-5.8-1.94v151.98h384.53V41.55l-6.26,1.56c0,0-14.76,5.11-14.79,5.13
	c-26.76,9.11-57.75,13.19-87.26,11.48c-32.24-1.86-60.69-10.4-82.25-24.69l-1.71-1.13L295.37,35.03z M297.1,41.27
	c22.26,14.23,51.07,22.78,83.58,24.65c30.29,1.75,62.12-2.44,89.62-11.8c0,0,10-3.47,12.83-4.45c0,7.65,0,131.53,0,137.31
	c-6.06,0-366.05,0-372.11,0c0-5.77,0-129.27,0-137.16C163.54,67.28,237.38,79.36,297.1,41.27z"/>
<path d="M151.95,88.45h33.32l0,0c18.07,0,27.67,5.64,27.67,18.07c0,2.83-1.13,6.78-2.83,9.6c-1.69,2.26-3.39,5.09-6.77,6.78
	c3.95,0.57,6.77,3.39,9.03,6.78c1.69,2.26,2.83,6.77,2.83,10.73c0,5.08-1.69,9.6-3.39,12.98c-2.83,2.26-6.78,5.65-10.73,6.78
	c-3.95,0.57-9.6,2.26-15.25,2.26l0,0h-33.88V88.45L151.95,88.45z M174.54,105.95v11.86h9.04l0,0c2.26,0,5.09-0.56,5.64-1.69
	c1.13-1.13,1.7-2.82,1.7-4.52c0-2.25,0-3.95-1.13-4.51c-1.13-0.57-3.95-1.13-6.21-1.13l0,0H174.54L174.54,105.95z M174.54,130.79
	v14.11h10.17l0,0c6.21,0,9.6-1.69,9.6-6.21c0-2.26-0.57-3.95-1.13-4.51c-0.56-1.7-2.25-2.26-3.95-2.83c-2.25,0-4.51-0.57-7.9-0.57
	l0,0H174.54L174.54,130.79z M223.1,140.95h19.77v21.46H223.1V140.95L223.1,140.95z M268.84,88.45h53.07v17.5h-29.92v12.42h23.71
	v17.51h-23.71v26.54h-23.15V88.45L268.84,88.45z M316.84,140.95h19.77v21.46h-19.77V140.95L316.84,140.95z M405.49,116.67
	c-0.57-3.39-1.68-5.64-2.82-7.9c-1.7-1.69-2.83-2.83-5.09-3.39c-1.7-1.13-3.39-1.13-4.52-1.13c-4.52,0-8.47,2.26-9.6,6.21
	c-1.68,4.52-3.39,9.6-3.39,15.81c0,13.56,4.52,19.77,12.99,19.77c7.34,0,10.74-3.95,12.42-11.86l0,0h21.46l0,0
	c-0.57,5.64-2.27,11.29-5.09,15.24c-2.25,4.52-6.2,8.47-10.72,10.73c-4.52,2.83-10.17,3.95-16.94,3.95
	c-5.65,0-10.74-0.57-15.24-2.26c-4.52-1.69-8.47-4.52-11.3-7.9c-3.39-2.83-6.2-7.34-7.34-11.86c-1.7-5.09-2.82-10.73-2.82-15.82
	c0-6.77,1.12-12.98,2.82-18.07c2.25-5.09,5.09-9.6,7.9-11.86c3.95-3.39,7.34-6.21,11.29-7.34c3.95-1.69,8.47-2.26,12.42-2.26
	c11.87,0,20.89,3.39,25.41,8.47c5.09,6.21,7.9,12.99,9.04,21.46l0,0H405.49L405.49,116.67z M433.72,140.95h19.77v21.46h-19.77
	V140.95L433.72,140.95z"/>
<path class="st1" d="M95.49,348.8c0,52.16,25.48,107.5,63.78,150.09c0-37.22,0-257.29,0-286.22H95.49
	C95.49,284.34,95.49,348.8,95.49,348.8z"/>
<path class="st1" d="M368.06,550.42c0-28.66,0-305.07,0-337.76h-67.88c0,33.85,0,329.83,0,361.6
	C323.01,569.81,347.24,561.59,368.06,550.42z"/>
</svg>
