<?xml version="1.0" encoding="utf-8"?>
<!-- Generator: Adobe Illustrator 23.0.3, SVG Export Plug-In . SVG Version: 6.00 Build 0)  -->
<svg version="1.1" id="Layer_1" xmlns="http://www.w3.org/2000/svg" xmlns:xlink="http://www.w3.org/1999/xlink" x="0px" y="0px"
	 viewBox="0 0 892 600" style="enable-background:new 0 0 892 600;" xml:space="preserve">
<style type="text/css">
	.st0{clip-path:url(#SVGID_2_);}
	.st1{fill:#009B3A;}
	.st2{fill:#FEDF00;}
	.st3{fill:#002776;}
	.st4{clip-path:url(#SVGID_4_);}
	.st5{fill:#FFFFFF;}
	.st6{fill:#939598;}
</style>
<title>Brasil</title>
<g>
	<g id="Layer_3">
		<g>
			<defs>
				<path id="SVGID_1_" d="M30.9,0h830.1C878.2,0,892,13.8,892,30.9v538.1c0,17.1-13.8,30.9-30.9,30.9H30.9
					C13.8,600,0,586.2,0,569.1V30.9C0,13.8,13.8,0,30.9,0z"/>
			</defs>
			<clipPath id="SVGID_2_">
				<use xlink:href="#SVGID_1_"  style="overflow:visible;"/>
			</clipPath>
			<g class="st0">
				<rect x="-2" class="st1" width="897.1" height="600"/>
				<path class="st2" d="M74.3,305l372.3,230.9L818.9,305L446.6,74.1L74.3,305z"/>
				<ellipse class="st3" cx="446.6" cy="305" rx="157" ry="152.5"/>
				<g>
					<defs>
						<ellipse id="SVGID_3_" cx="446.6" cy="305" rx="157" ry="152.5"/>
					</defs>
					<clipPath id="SVGID_4_">
						<use xlink:href="#SVGID_3_"  style="overflow:visible;"/>
					</clipPath>
					<g class="st4">
						<path class="st5" d="M-24.4,610c0-204.5,170.7-370.4,381.3-370.4S738.1,405.5,738.1,610h-22.4
							c0-192.5-160.7-348.6-358.9-348.6S-2,417.5-2,610H-24.4z"/>
					</g>
				</g>
				<path class="st1" d="M318.4,252.4c-0.5-4-3.9-6.9-7.6-6.4c-3.7,0.4-6.3,4-5.8,8c0.5,4,3.9,6.8,7.6,6.4
					C316.4,260,318.9,256.4,318.4,252.4z M311.8,248.8c5.1,0,5.1,8.8,0,8.8S306.7,248.8,311.8,248.8z"/>
				<path id="E" class="st1" d="M362.8,257.8l13.5,0.5l0.1-2.7l-10.9-0.4l0.1-3.7l8.5,0.3l0.1-2.5l-8.5-0.3l0.1-2.9l10.3,0.3
					l0.1-2.7l-12.8-0.4L362.8,257.8z"/>
				<path id="M" class="st1" d="M381.8,258.6l2.5,0.2l0.9-9.9l2.1,10.2l2.3,0.2l3.9-9.7l-0.9,9.9l2.5,0.2l1.3-14.5l-3.7-0.3
					l-3.9,9.7l-2.1-10.2l-3.7-0.3L381.8,258.6z"/>
				<path id="e-2" class="st1" d="M412.7,262l11,1.8l0.4-2.5l-8.5-1.4l0.6-3.3l6.9,1.2l0.4-2.5l-7-1.2l0.4-2.3l8.3,1.4l0.4-2.5
					l-10.8-1.8L412.7,262z"/>
				<g id="G">
					<polygon class="st1" points="504.5,282.6 505.4,280.7 510.6,282.9 509.7,284.8 					"/>
					<polygon class="st1" points="505.7,288.8 508.6,282.1 510.6,283 507.6,289.6 					"/>
				</g>
				<path id="E-3" class="st1" d="M529.5,300.2l11.7,6.4l1.4-2.4l-9.5-5.2l1.8-3.3l7.4,4.1l1.3-2.2l-7.4-4.1l1.5-2.5l8.9,4.9
					l1.3-2.3l-11.2-6.1L529.5,300.2z"/>
				<path id="S" class="st1" d="M551.4,307.4c-0.8,1.2,0,2.6,1.8,3.7c1.8,1.1,3,1.1,3.5,0.3c1.6-2.5-7.8-6.1-4.9-10.5
					c2.5-3.7,6.8-0.8,8.4,0.2s4.2,3.6,2.2,6.6l-2.7-1.7c0.9-1.3-0.1-2.6-1.5-3.5s-2.5-1.3-3.4,0c-1.4,2,7.9,5.8,5,10.2
					c-2.1,3.2-5.7,1.8-8.2,0.3c-2.1-1.3-5.2-4.3-3.2-7.4L551.4,307.4z"/>
				<path id="S-2" class="st1" d="M567.4,317.6c-0.9,1.2-0.1,2.6,1.6,3.8c1.7,1.2,3,1.2,3.5,0.5c1.8-2.4-7.5-6.5-4.3-10.7
					c2.7-3.6,6.8-0.5,8.4,0.6c1.6,1.1,4,3.8,1.8,6.7l-2.6-1.8c0.9-1.3,0.1-2.6-1.3-3.5s-2.5-1.4-3.4-0.2c-1.5,1.9,7.5,6.3,4.5,10.4
					c-2.3,3.1-5.8,1.5-8.2-0.1c-2-1.4-4.9-4.6-2.8-7.5L567.4,317.6z"/>
				<g id="c">
					<path id="t" class="st5" d="M318.4,271.1l-2.1,6.2l3.2,1"/>
					<path id="t-2" class="st5" d="M318.4,271.1l2.1,6.2l-3.2,1"/>
				</g>
				<g id="c-2">
					<path id="t-3" class="st5" d="M324.8,275.6h-6.7v3.3"/>
					<path id="t-4" class="st5" d="M324.8,275.6l-5.5,3.9l-2-2.6"/>
				</g>
				<g id="c-3">
					<path id="t-5" class="st5" d="M312,275.6l5.4,3.9l2-2.6"/>
					<path id="t-6" class="st5" d="M312,275.6h6.7v3.3"/>
				</g>
				<g id="c-4">
					<path id="t-7" class="st5" d="M322.4,282.9l-2.1-6.2l-3.2,1"/>
					<path id="t-8" class="st5" d="M322.4,282.9l-5.4-3.9l2-2.6"/>
				</g>
				<g id="star">
					<g id="c-5">
						<path id="t-9" class="st5" d="M314.5,282.9l5.5-3.9l-2-2.6"/>
						<g id="αCMi">
							<path id="t-10" class="st5" d="M314.5,282.9l2.1-6.2l3.2,1"/>
						</g>
					</g>
				</g>
				<g id="c-6">
					<path id="t-11" class="st5" d="M332.3,335.2l-2.1,6.2l3.2,1"/>
					<path id="t-12" class="st5" d="M332.3,335.2l2.1,6.2l-3.2,1"/>
				</g>
				<g id="c-7">
					<path id="t-13" class="st5" d="M338.7,339.7H332v3.3"/>
					<path id="t-14" class="st5" d="M338.7,339.7l-5.4,3.8l-2-2.6"/>
				</g>
				<g id="c-8">
					<path id="t-15" class="st5" d="M325.9,339.7l5.5,3.8l2-2.6"/>
					<path id="t-16" class="st5" d="M325.9,339.7h6.7v3.3"/>
				</g>
				<g id="c-9">
					<path id="t-17" class="st5" d="M336.3,347l-2.1-6.2l-3.2,1"/>
					<path id="t-18" class="st5" d="M336.3,347l-5.5-3.8l2-2.6"/>
				</g>
				<g id="star-2">
					<g id="c-10">
						<path id="t-19" class="st5" d="M328.3,347l5.4-3.8l-2-2.6"/>
						<g id="αCMa">
							<path id="t-20" class="st5" d="M328.3,347l2.1-6.2l3.2,1"/>
						</g>
					</g>
				</g>
				<g id="c-11">
					<path id="t-21" class="st5" d="M313.1,350l-1.7,5.2l2.7,0.8"/>
					<path id="t-22" class="st5" d="M313.1,350l1.7,5.2l-2.7,0.8"/>
				</g>
				<g id="c-12">
					<path id="t-23" class="st5" d="M318.4,353.7h-5.6v2.7"/>
					<path id="t-24" class="st5" d="M318.4,353.7l-4.5,3.2l-1.6-2.2"/>
				</g>
				<g id="c-13">
					<path id="t-25" class="st5" d="M307.7,353.7l4.5,3.2l1.6-2.2"/>
					<path id="t-26" class="st5" d="M307.7,353.7h5.6v2.7"/>
				</g>
				<g id="c-14">
					<path id="t-27" class="st5" d="M316.4,359.8l-1.7-5.2l-2.6,0.9"/>
					<path id="t-28" class="st5" d="M316.4,359.8l-4.5-3.2l1.6-2.2"/>
				</g>
				<g id="star-3">
					<g id="c-15">
						<path id="t-29" class="st5" d="M309.8,359.8l4.5-3.2l-1.6-2.2"/>
						<g id="βCMa">
							<path id="t-30" class="st5" d="M309.8,359.8l1.7-5.2l2.7,0.8"/>
						</g>
					</g>
				</g>
				<g id="c-16">
					<path id="t-31" class="st5" d="M446.6,367.6l-2.1,6.2l3.2,1"/>
					<path id="t-32" class="st5" d="M446.6,367.6l2.1,6.2l-3.2,1"/>
				</g>
				<g id="c-17">
					<path id="t-33" class="st5" d="M440.2,372.1l5.5,3.9l2-2.6"/>
					<path id="t-34" class="st5" d="M440.2,372.1h6.7v3.3"/>
					<path id="t-35" class="st5" d="M453,372.1h-6.7v3.3"/>
					<path id="t-36" class="st5" d="M453,372.1l-5.4,3.9l-2-2.6"/>
				</g>
				<g id="c-18">
					<path id="t-37" class="st5" d="M450.5,379.4l-2.1-6.2l-3.2,1"/>
					<path id="t-38" class="st5" d="M450.5,379.4l-5.5-3.9l2-2.6"/>
				</g>
				<g id="star-4">
					<g id="c-19">
						<path id="t-39" class="st5" d="M442.6,379.4l5.4-3.9l-2-2.6"/>
						<g id="αCMa-2">
							<path id="t-40" class="st5" d="M442.6,379.4l2.1-6.2l3.2,1"/>
						</g>
					</g>
				</g>
				<g id="c-20">
					<path id="t-41" class="st5" d="M383.7,378.6l-2.1,6.2l3.2,1"/>
					<path id="t-42" class="st5" d="M383.7,378.6l2.1,6.2l-3.2,1"/>
				</g>
				<g id="c-21">
					<path id="t-43" class="st5" d="M377.3,383.1l5.5,3.9l2-2.6"/>
					<path id="t-44" class="st5" d="M377.3,383.1h6.7v3.3"/>
					<path id="t-45" class="st5" d="M390.1,383.1h-6.7v3.3"/>
					<path id="t-46" class="st5" d="M390.1,383.1l-5.4,3.9l-2-2.6"/>
				</g>
				<g id="c-22">
					<path id="t-47" class="st5" d="M387.6,390.4l-2.1-6.2l-3.2,1"/>
					<path id="t-48" class="st5" d="M387.6,390.4l-5.5-3.9l2-2.6"/>
				</g>
				<g id="star-5">
					<g id="c-23">
						<path id="t-49" class="st5" d="M379.7,390.4l5.4-3.9l-2-2.6"/>
						<g id="αCMa-3">
							<path id="t-50" class="st5" d="M379.7,390.4l2.1-6.2l3.2,1"/>
						</g>
					</g>
				</g>
				<g id="c-24">
					<path id="t-51" class="st5" d="M556.5,351.9l-2.1,6.2l3.2,1"/>
					<path id="t-52" class="st5" d="M556.5,351.9l2.1,6.2l-3.2,1"/>
				</g>
				<g id="c-25">
					<path id="t-53" class="st5" d="M550.2,356.4l5.5,3.9l2-2.6"/>
					<path id="t-54" class="st5" d="M550.2,356.4h6.7v3.3"/>
					<path id="t-55" class="st5" d="M563,356.4h-6.7v3.3"/>
					<path id="t-56" class="st5" d="M563,356.4l-5.4,3.9l-2-2.6"/>
				</g>
				<g id="c-26">
					<path id="t-57" class="st5" d="M560.5,363.7l-2.1-6.2l-3.2,1"/>
					<path id="t-58" class="st5" d="M560.5,363.7l-5.5-3.9l2-2.6"/>
				</g>
				<g id="star-6">
					<g id="c-27">
						<path id="t-59" class="st5" d="M552.6,363.7l5.4-3.9l-2-2.6"/>
						<g id="αCMa-4">
							<path id="t-60" class="st5" d="M552.6,363.7l2.1-6.2l3.2,1"/>
						</g>
					</g>
				</g>
				<g id="c-28">
					<path id="t-61" class="st5" d="M493.5,402.1l-1.8,5.2l2.7,0.9"/>
					<path id="t-62" class="st5" d="M493.5,402.1l1.8,5.2l-2.7,0.9"/>
				</g>
				<g id="c-29">
					<path id="t-63" class="st5" d="M488.1,405.9l4.6,3.2l1.7-2.2"/>
					<path id="t-64" class="st5" d="M488.1,405.9h5.7v2.7"/>
					<path id="t-65" class="st5" d="M498.9,405.9h-5.7v2.7"/>
					<path id="t-66" class="st5" d="M498.9,405.9l-4.6,3.2l-1.7-2.2"/>
				</g>
				<g id="c-30">
					<path id="t-67" class="st5" d="M496.8,412.1l-1.7-5.2l-2.7,0.8"/>
					<path id="t-68" class="st5" d="M496.8,412.1l-4.6-3.2l1.7-2.2"/>
				</g>
				<g id="star-7">
					<g id="c-31">
						<path id="t-69" class="st5" d="M490.2,412.1l4.6-3.2l-1.7-2.2"/>
						<g id="αCMa-5">
							<path id="t-70" class="st5" d="M490.2,412.1l1.7-5.2l2.7,0.8"/>
						</g>
					</g>
				</g>
				<g id="c-32">
					<path id="t-71" class="st5" d="M525,398.2l-1.8,5.2l2.7,0.8"/>
					<path id="t-72" class="st5" d="M525,398.2l1.8,5.2l-2.7,0.8"/>
				</g>
				<g id="c-33">
					<path id="t-73" class="st5" d="M519.6,402l4.6,3.2l1.7-2.2"/>
					<path id="t-74" class="st5" d="M519.6,402h5.7v2.7"/>
					<path id="t-75" class="st5" d="M530.3,402h-5.7v2.7"/>
					<path id="t-76" class="st5" d="M530.3,402l-4.6,3.2l-1.7-2.2"/>
				</g>
				<g id="c-34">
					<path id="t-77" class="st5" d="M528.3,408.2l-1.7-5.2l-2.7,0.9"/>
					<path id="t-78" class="st5" d="M528.3,408.2l-4.6-3.2l1.7-2.2"/>
				</g>
				<g id="star-8">
					<g id="c-35">
						<path id="t-79" class="st5" d="M521.6,408.2l4.6-3.2l-1.7-2.2"/>
						<g id="αCMa-6">
							<path id="t-80" class="st5" d="M521.6,408.2l1.7-5.2l2.7,0.9"/>
						</g>
					</g>
				</g>
				<g id="c-36">
					<path id="t-81" class="st5" d="M553.5,378.6l-1.8,5.2l2.7,0.8"/>
					<path id="t-82" class="st5" d="M553.5,378.6l1.7,5.2l-2.7,0.8"/>
				</g>
				<g id="c-37">
					<path id="t-83" class="st5" d="M548.1,382.4l4.6,3.2l1.7-2.2"/>
					<path id="t-84" class="st5" d="M548.1,382.4h5.7v2.7"/>
					<path id="t-85" class="st5" d="M558.9,382.4h-5.7v2.7"/>
					<path id="t-86" class="st5" d="M558.9,382.4l-4.6,3.2l-1.7-2.2"/>
				</g>
				<g id="c-38">
					<path id="t-87" class="st5" d="M556.8,388.5l-1.8-5.2l-2.7,0.9"/>
					<path id="t-88" class="st5" d="M556.8,388.5l-4.6-3.2l1.7-2.2"/>
				</g>
				<g id="star-9">
					<g id="c-39">
						<path id="t-89" class="st5" d="M550.2,388.5l4.6-3.2l-1.7-2.2"/>
						<g id="αCMa-7">
							<path id="t-90" class="st5" d="M550.2,388.5l1.8-5.2l2.7,0.9"/>
						</g>
					</g>
				</g>
				<g id="c-40">
					<path id="t-91" class="st5" d="M563,366.7l-1.7,5.2l2.7,0.8"/>
					<path id="t-92" class="st5" d="M563,366.7l1.8,5.2l-2.7,0.8"/>
				</g>
				<g id="c-41">
					<path id="t-93" class="st5" d="M557.6,370.5l4.6,3.2l1.7-2.2"/>
					<path id="t-94" class="st5" d="M557.6,370.5h5.7v2.7"/>
					<path id="t-95" class="st5" d="M568.3,370.5h-5.7v2.7"/>
					<path id="t-96" class="st5" d="M568.3,370.5l-4.6,3.2l-1.7-2.2"/>
				</g>
				<g id="c-42">
					<path id="t-97" class="st5" d="M566.3,376.7l-1.7-5.2l-2.7,0.9"/>
					<path id="t-98" class="st5" d="M566.3,376.7l-4.6-3.2l1.7-2.2"/>
				</g>
				<g id="star-10">
					<g id="c-43">
						<path id="t-99" class="st5" d="M559.6,376.7l4.6-3.2l-1.7-2.2"/>
						<g id="αCMa-8">
							<path id="t-100" class="st5" d="M559.6,376.7l1.8-5.2l2.7,0.9"/>
						</g>
					</g>
				</g>
				<g id="c-44">
					<path id="t-101" class="st5" d="M464.7,337.9l-1.7,5.2l2.7,0.9"/>
					<path id="t-102" class="st5" d="M464.7,337.9l1.7,5.2l-2.7,0.9"/>
				</g>
				<g id="c-45">
					<path id="t-103" class="st5" d="M459.3,341.7l4.6,3.2l1.7-2.2"/>
					<path id="t-104" class="st5" d="M459.3,341.7h5.7v2.7"/>
					<path id="t-105" class="st5" d="M470.1,341.7h-5.6v2.7"/>
					<path id="t-106" class="st5" d="M470.1,341.7l-4.6,3.2l-1.7-2.2"/>
				</g>
				<g id="c-46">
					<path id="t-107" class="st5" d="M468,347.8l-1.8-5.2l-2.7,0.8"/>
					<path id="t-108" class="st5" d="M468,347.8l-4.6-3.2l1.7-2.2"/>
				</g>
				<g id="star-11">
					<g id="c-47">
						<path id="t-109" class="st5" d="M461.4,347.8l4.6-3.2l-1.7-2.2"/>
						<g id="αCMa-9">
							<path id="t-110" class="st5" d="M461.4,347.8l1.8-5.2l2.7,0.8"/>
						</g>
					</g>
				</g>
				<g id="c-48">
					<path id="t-111" class="st5" d="M446.6,324.6l-1.7,5.2l2.7,0.9"/>
					<path id="t-112" class="st5" d="M446.6,324.6l1.8,5.2l-2.7,0.9"/>
				</g>
				<g id="c-49">
					<path id="t-113" class="st5" d="M441.2,328.3l4.6,3.2l1.7-2.2"/>
					<path id="t-114" class="st5" d="M441.2,328.3h5.6v2.7"/>
					<path id="t-115" class="st5" d="M452,328.3h-5.7v2.7"/>
					<path id="t-116" class="st5" d="M452,328.3l-4.6,3.2l-1.7-2.3"/>
				</g>
				<g id="c-50">
					<path id="t-117" class="st5" d="M449.9,334.5l-1.8-5.2l-2.7,0.8"/>
					<path id="t-118" class="st5" d="M449.9,334.5l-4.6-3.3l1.7-2.2"/>
				</g>
				<g id="star-12">
					<g id="c-51">
						<path id="t-119" class="st5" d="M443.3,334.5l4.6-3.2l-1.7-2.2"/>
						<g id="αCMa-10">
							<path id="t-120" class="st5" d="M443.3,334.5l1.8-5.2l2.7,0.8"/>
						</g>
					</g>
				</g>
				<g id="c-52">
					<path id="t-121" class="st5" d="M495.8,251.9l-1.8,5.2l2.7,0.8"/>
					<path id="t-122" class="st5" d="M495.8,251.9l1.8,5.2l-2.7,0.8"/>
				</g>
				<g id="c-53">
					<path id="t-123" class="st5" d="M490.4,255.7l4.6,3.2l1.7-2.2"/>
					<path id="t-124" class="st5" d="M490.4,255.7h5.6v2.7"/>
					<path id="t-125" class="st5" d="M501.2,255.7h-5.6v2.7"/>
					<path id="t-126" class="st5" d="M501.2,255.7l-4.6,3.2l-1.7-2.2"/>
				</g>
				<g id="c-54">
					<path id="t-127" class="st5" d="M499.1,261.9l-1.8-5.2l-2.7,0.8"/>
					<path id="t-128" class="st5" d="M499.1,261.9l-4.6-3.2l1.7-2.2"/>
				</g>
				<g id="star-13">
					<g id="c-55">
						<path id="t-129" class="st5" d="M492.5,261.9l4.6-3.2l-1.7-2.2"/>
						<g id="αCMa-11">
							<path id="t-130" class="st5" d="M492.5,261.9l1.8-5.2l2.7,0.8"/>
						</g>
					</g>
				</g>
				<g id="c-56">
					<path id="t-131" class="st5" d="M386.9,305.8l-1.7,5.1l2.6,0.8"/>
					<path id="t-132" class="st5" d="M386.9,305.8l1.7,5.1l-2.6,0.8"/>
				</g>
				<g id="c-57">
					<path id="t-133" class="st5" d="M381.6,309.4l4.5,3.1l1.6-2.2"/>
					<path id="t-134" class="st5" d="M381.6,309.4h5.5v2.7"/>
					<path id="t-135" class="st5" d="M392.1,309.4h-5.5v2.7"/>
					<path id="t-136" class="st5" d="M392.1,309.4l-4.4,3.1l-1.6-2.2"/>
				</g>
				<g id="c-58">
					<path id="t-137" class="st5" d="M390.1,315.4l-1.7-5.1l-2.6,0.8"/>
					<path id="t-138" class="st5" d="M390.1,315.4l-4.5-3.1l1.6-2.2"/>
				</g>
				<g id="star-14">
					<g id="c-59">
						<path id="t-139" class="st5" d="M383.6,315.4l4.4-3.1l-1.6-2.2"/>
						<g id="αCMa-12">
							<path id="t-140" class="st5" d="M383.6,315.4l1.7-5.1l2.6,0.8"/>
						</g>
					</g>
				</g>
				<g id="c-60">
					<path id="t-141" class="st5" d="M578.5,355.6l-1.4,4.3l2.2,0.7"/>
					<path id="t-142" class="st5" d="M578.5,355.6l1.5,4.3l-2.2,0.7"/>
				</g>
				<g id="c-61">
					<path id="t-143" class="st5" d="M574.1,358.7l3.8,2.7l1.4-1.8"/>
					<path id="t-144" class="st5" d="M574.1,358.7h4.7v2.3"/>
					<path id="t-145" class="st5" d="M583,358.7h-4.7v2.3"/>
					<path id="t-146" class="st5" d="M583,358.7l-3.8,2.6l-1.4-1.8"/>
				</g>
				<g id="c-62">
					<path id="t-147" class="st5" d="M581.3,363.8l-1.4-4.3l-2.2,0.7"/>
					<path id="t-148" class="st5" d="M581.3,363.8l-3.8-2.7l1.4-1.8"/>
				</g>
				<g id="star-15">
					<g id="c-63">
						<path id="t-149" class="st5" d="M575.8,363.8l3.8-2.7l-1.4-1.8"/>
						<g id="αCMa-13">
							<path id="t-150" class="st5" d="M575.8,363.8l1.4-4.3l2.2,0.7"/>
						</g>
					</g>
				</g>
				<g id="c-64">
					<path id="t-151" class="st5" d="M489.6,292.8l-1.4,4.3l2.2,0.7"/>
					<path id="t-152" class="st5" d="M489.6,292.8l1.4,4.3l-2.2,0.7"/>
				</g>
				<g id="c-65">
					<path id="t-153" class="st5" d="M485.1,296l3.8,2.7l1.4-1.8"/>
					<path id="t-154" class="st5" d="M485.1,296h4.7v2.2"/>
					<path id="t-155" class="st5" d="M494,296h-4.7v2.2"/>
					<path id="t-156" class="st5" d="M494,296l-3.8,2.7l-1.4-1.8"/>
				</g>
				<g id="c-66">
					<path id="t-157" class="st5" d="M492.3,301l-1.4-4.3l-2.2,0.7"/>
					<path id="t-158" class="st5" d="M492.3,301l-3.8-2.7l1.4-1.8"/>
				</g>
				<g id="star-16">
					<g id="c-67">
						<path id="t-159" class="st5" d="M486.8,301l3.8-2.7l-1.4-1.8"/>
						<g id="αCMa-14">
							<path id="t-160" class="st5" d="M486.8,301l1.4-4.3l2.2,0.7"/>
						</g>
					</g>
				</g>
				<g id="c-68">
					<path id="t-161" class="st5" d="M524.5,384.5l-1.4,4.3l2.2,0.7"/>
					<path id="t-162" class="st5" d="M524.5,384.5l1.4,4.3l-2.2,0.7"/>
				</g>
				<g id="c-69">
					<path id="t-163" class="st5" d="M520.1,387.6l3.8,2.7l1.4-1.8"/>
					<path id="t-164" class="st5" d="M520.1,387.6h4.7v2.3"/>
					<path id="t-165" class="st5" d="M529,387.6h-4.7v2.3"/>
					<path id="t-166" class="st5" d="M529,387.6l-3.8,2.7l-1.4-1.8"/>
				</g>
				<g id="c-70">
					<path id="t-167" class="st5" d="M527.3,392.7l-1.4-4.3l-2.2,0.7"/>
					<path id="t-168" class="st5" d="M527.3,392.7l-3.8-2.7l1.4-1.8"/>
				</g>
				<g id="star-17">
					<g id="c-71">
						<path id="t-169" class="st5" d="M521.8,392.7l3.8-2.7l-1.4-1.8"/>
						<g id="αCMa-15">
							<path id="t-170" class="st5" d="M521.8,392.7l1.4-4.3l2.2,0.7"/>
						</g>
					</g>
				</g>
				<g id="c-72">
					<path id="t-171" class="st5" d="M541,387.2l-1.4,4.3l2.2,0.7"/>
					<path id="t-172" class="st5" d="M541,387.2l1.4,4.3l-2.2,0.7"/>
				</g>
				<g id="c-73">
					<path id="t-173" class="st5" d="M536.5,390.3l3.8,2.7l1.4-1.8"/>
					<path id="t-174" class="st5" d="M536.5,390.3h4.7v2.3"/>
					<path id="t-175" class="st5" d="M545.4,390.3h-4.7v2.3"/>
					<path id="t-176" class="st5" d="M545.4,390.3l-3.8,2.7l-1.4-1.8"/>
				</g>
				<g id="c-74">
					<path id="t-177" class="st5" d="M543.7,395.4l-1.4-4.3l-2.2,0.7"/>
					<path id="t-178" class="st5" d="M543.7,395.4l-3.8-2.7l1.4-1.8"/>
				</g>
				<g id="star-18">
					<g id="c-75">
						<path id="t-179" class="st5" d="M538.2,395.4l3.8-2.7l-1.4-1.8"/>
						<g id="αCMa-16">
							<path id="t-180" class="st5" d="M538.2,395.4l1.4-4.3l2.2,0.7"/>
						</g>
					</g>
				</g>
				<g id="c-76">
					<path id="t-181" class="st5" d="M525.3,414.8l-1.4,4.3l2.2,0.7"/>
					<path id="t-182" class="st5" d="M525.3,414.8l1.4,4.3l-2.2,0.7"/>
				</g>
				<g id="c-77">
					<path id="t-183" class="st5" d="M520.9,418l3.8,2.7l1.4-1.8"/>
					<path id="t-184" class="st5" d="M520.9,418h4.7v2.3"/>
					<path id="t-185" class="st5" d="M529.8,418h-4.7v2.3"/>
					<path id="t-186" class="st5" d="M529.8,418l-3.8,2.6l-1.4-1.8"/>
				</g>
				<g id="c-78">
					<path id="t-187" class="st5" d="M528.1,423l-1.4-4.3l-2.2,0.7"/>
					<path id="t-188" class="st5" d="M528.1,423l-3.8-2.7l1.4-1.8"/>
				</g>
				<g id="star-19">
					<g id="c-79">
						<path id="t-189" class="st5" d="M522.6,423l3.8-2.7l-1.4-1.8"/>
						<g id="αCMa-17">
							<path id="t-190" class="st5" d="M522.6,423l1.4-4.3l2.2,0.7"/>
						</g>
					</g>
				</g>
				<g id="c-80">
					<path id="t-191" class="st5" d="M507.1,389.5l-1.4,4.3l2.2,0.7"/>
					<path id="t-192" class="st5" d="M507.1,389.5l1.4,4.3l-2.2,0.7"/>
				</g>
				<g id="c-81">
					<path id="t-193" class="st5" d="M502.7,392.7l3.8,2.7l1.4-1.8"/>
					<path id="t-194" class="st5" d="M502.7,392.7h4.7v2.3"/>
					<path id="t-195" class="st5" d="M511.5,392.7h-4.7v2.3"/>
					<path id="t-196" class="st5" d="M511.5,392.7l-3.8,2.7l-1.4-1.8"/>
				</g>
				<g id="c-82">
					<path id="t-197" class="st5" d="M509.8,397.7l-1.4-4.3l-2.2,0.7"/>
					<path id="t-198" class="st5" d="M509.8,397.7l-3.8-2.7l1.4-1.8"/>
				</g>
				<g id="star-20">
					<g id="c-83">
						<path id="t-199" class="st5" d="M504.4,397.7l3.8-2.7l-1.4-1.8"/>
						<g id="αCMa-18">
							<path id="t-200" class="st5" d="M504.4,397.7l1.4-4.3l2.2,0.7"/>
						</g>
					</g>
				</g>
				<g id="c-84">
					<path id="t-201" class="st5" d="M481.1,386.1l-1.4,4.3l2.2,0.7"/>
					<path id="t-202" class="st5" d="M481.1,386.1l1.4,4.3l-2.2,0.7"/>
				</g>
				<g id="c-85">
					<path id="t-203" class="st5" d="M476.7,389.2l3.8,2.7l1.4-1.8"/>
					<path id="t-204" class="st5" d="M476.7,389.2h4.7v2.2"/>
					<path id="t-205" class="st5" d="M485.6,389.2h-4.7v2.2"/>
					<path id="t-206" class="st5" d="M485.6,389.2l-3.8,2.7l-1.4-1.8"/>
				</g>
				<g id="c-86">
					<path id="t-207" class="st5" d="M483.9,394.3l-1.4-4.3l-2.2,0.7"/>
					<path id="t-208" class="st5" d="M483.9,394.3l-3.8-2.7l1.4-1.8"/>
				</g>
				<g id="star-21">
					<g id="c-87">
						<path id="t-209" class="st5" d="M478.4,394.3l3.8-2.7l-1.4-1.8"/>
						<g id="αCMa-19">
							<path id="t-210" class="st5" d="M478.4,394.3l1.4-4.3l2.2,0.7"/>
						</g>
					</g>
				</g>
				<g id="c-88">
					<path id="t-211" class="st5" d="M365.3,351.6l-1.6,4.7l2.4,0.8"/>
					<path id="t-212" class="st5" d="M365.3,351.6l1.6,4.7l-2.4,0.8"/>
				</g>
				<g id="c-89">
					<path id="t-213" class="st5" d="M360.5,355l4.1,2.9l1.5-1.9"/>
					<path id="t-214" class="st5" d="M360.5,355h5.1v2.5"/>
					<path id="t-215" class="st5" d="M370.2,355h-5.1v2.5"/>
					<path id="t-216" class="st5" d="M370.2,355l-4.1,2.9l-1.5-1.9"/>
				</g>
				<g id="c-90">
					<path id="t-217" class="st5" d="M368.3,360.5l-1.6-4.7l-2.4,0.8"/>
					<path id="t-218" class="st5" d="M368.3,360.5l-4.1-2.9l1.5-1.9"/>
				</g>
				<g id="star-22">
					<g id="c-91">
						<path id="t-219" class="st5" d="M362.4,360.5l4.1-2.9l-1.5-1.9"/>
						<g id="αCMa-20">
							<path id="t-220" class="st5" d="M362.4,360.5l1.6-4.7l2.4,0.8"/>
						</g>
					</g>
				</g>
				<g id="c-92">
					<path id="t-221" class="st5" d="M360.5,367.8l-1.4,4.3l2.2,0.7"/>
					<path id="t-222" class="st5" d="M360.5,367.8l1.5,4.3l-2.2,0.7"/>
				</g>
				<g id="c-93">
					<path id="t-223" class="st5" d="M356.1,370.9l3.8,2.7l1.4-1.8"/>
					<path id="t-224" class="st5" d="M356.1,370.9h4.7v2.3"/>
					<path id="t-225" class="st5" d="M365,370.9h-4.7v2.3"/>
					<path id="t-226" class="st5" d="M365,370.9l-3.8,2.7l-1.4-1.8"/>
				</g>
				<g id="c-94">
					<path id="t-227" class="st5" d="M363.3,376l-1.4-4.3l-2.2,0.7"/>
					<path id="t-228" class="st5" d="M363.3,376l-3.8-2.7l1.4-1.8"/>
				</g>
				<g id="star-23">
					<g id="c-95">
						<path id="t-229" class="st5" d="M357.8,376l3.8-2.7l-1.4-1.8"/>
						<g id="αCMa-21">
							<path id="t-230" class="st5" d="M357.8,376l1.4-4.3l2.2,0.7"/>
						</g>
					</g>
				</g>
				<g id="c-96">
					<path id="t-231" class="st5" d="M430.7,339l-1.4,4.3l2.2,0.7"/>
					<path id="t-232" class="st5" d="M430.7,339l1.4,4.3l-2.2,0.7"/>
				</g>
				<g id="c-97">
					<path id="t-233" class="st5" d="M426.3,342.1l3.8,2.7l1.4-1.8"/>
					<path id="t-234" class="st5" d="M426.3,342.1h4.7v2.3"/>
					<path id="t-235" class="st5" d="M435.1,342.1h-4.6v2.3"/>
					<path id="t-236" class="st5" d="M435.1,342.1l-3.8,2.7l-1.4-1.9"/>
				</g>
				<g id="c-98">
					<path id="t-237" class="st5" d="M433.4,347.1l-1.4-4.3l-2.2,0.7"/>
					<path id="t-238" class="st5" d="M433.4,347.1l-3.8-2.7l1.4-1.8"/>
				</g>
				<g id="star-24">
					<g id="c-99">
						<path id="t-239" class="st5" d="M428,347.1l3.8-2.7l-1.4-1.8"/>
						<g id="αCMa-22">
							<path id="t-240" class="st5" d="M428,347.1l1.4-4.3l2.2,0.7"/>
						</g>
					</g>
				</g>
				<g id="c-100">
					<path id="t-241" class="st5" d="M347.5,329.9l-0.9,2.6l1.4,0.4"/>
					<path id="t-242" class="st5" d="M347.5,329.9l0.9,2.6l-1.4,0.4"/>
				</g>
				<g id="c-101">
					<path id="t-243" class="st5" d="M344.9,331.8l2.3,1.6l0.8-1.1"/>
					<path id="t-244" class="st5" d="M344.9,331.8h2.8v1.4"/>
					<path id="t-245" class="st5" d="M350.2,331.8h-2.8v1.4"/>
					<path id="t-246" class="st5" d="M350.2,331.8l-2.2,1.6l-0.8-1.1"/>
				</g>
				<g id="c-102">
					<path id="t-247" class="st5" d="M349.2,334.8l-0.9-2.6l-1.3,0.4"/>
					<path id="t-248" class="st5" d="M349.2,334.8l-2.3-1.7l0.8-1.1"/>
				</g>
				<g id="star-25">
					<g id="c-103">
						<path id="t-249" class="st5" d="M345.9,334.8l2.3-1.6l-0.8-1.1"/>
						<g id="αCMa-23">
							<path id="t-250" class="st5" d="M345.9,334.8l0.9-2.6l1.4,0.4"/>
						</g>
					</g>
				</g>
				<g id="c-104">
					<path id="t-251" class="st5" d="M438.6,350.7l-0.9,2.6l1.3,0.4"/>
					<path id="t-252" class="st5" d="M438.6,350.7l0.9,2.6l-1.4,0.4"/>
				</g>
				<g id="c-105">
					<path id="t-253" class="st5" d="M435.9,352.6l2.3,1.6l0.8-1.1"/>
					<path id="t-254" class="st5" d="M435.9,352.6h2.8v1.4"/>
					<path id="t-255" class="st5" d="M441.3,352.6h-2.8v1.4"/>
					<path id="t-256" class="st5" d="M441.3,352.6l-2.3,1.6l-0.8-1.1"/>
				</g>
				<g id="c-106">
					<path id="t-257" class="st5" d="M440.2,355.7l-0.9-2.6l-1.4,0.4"/>
					<path id="t-258" class="st5" d="M440.2,355.7l-2.3-1.6l0.8-1.1"/>
				</g>
				<g id="star-26">
					<g id="c-107">
						<path id="t-259" class="st5" d="M436.9,355.7l2.3-1.6l-0.8-1.1"/>
						<g id="αCMa-24">
							<path id="t-260" class="st5" d="M436.9,355.7l0.9-2.6l1.4,0.4"/>
						</g>
					</g>
				</g>
				<g id="c-108">
					<path id="t-261" class="st5" d="M446.5,422.2l-0.7,1.9l1,0.3"/>
					<path id="t-262" class="st5" d="M446.5,422.2l0.7,1.9l-1,0.3"/>
				</g>
				<g id="c-109">
					<path id="t-263" class="st5" d="M444.4,423.6l1.8,1.2l0.6-0.8"/>
					<path id="t-264" class="st5" d="M444.4,423.6h2.2v1"/>
					<path id="t-265" class="st5" d="M448.5,423.6h-2.1v1"/>
					<path id="t-266" class="st5" d="M448.5,423.6l-1.7,1.2l-0.6-0.8"/>
				</g>
				<g id="c-110">
					<path id="t-267" class="st5" d="M447.7,426l-0.7-2l-1,0.3"/>
					<path id="t-268" class="st5" d="M447.7,426l-1.7-1.2l0.6-0.8"/>
				</g>
				<g id="star-27">
					<g id="c-111">
						<path id="t-269" class="st5" d="M445.2,426l1.8-1.2l-0.6-0.8"/>
						<g id="αCMa-25">
							<path id="t-270" class="st5" d="M445.2,426l0.7-2l1,0.3"/>
						</g>
					</g>
				</g>
				<path class="st1" d="M593.9,332c1.9-3.6,0.8-7.8-2.5-9.5s-7.5-0.1-9.4,3.4s-0.8,7.8,2.5,9.5C587.8,337.2,592,335.6,593.9,332z
					 M590.5,325.4c4.2,2.8-1,10.1-5.2,7.3C581.2,329.9,586.3,322.6,590.5,325.4z"/>
				<path class="st1" d="M356,246c-1.2-1.6-3-2.6-5-2.7l-7.5,0.1l0.3,14.5c0,0,5.9,0,7.5-0.1c1.8-0.2,3.5-1.1,4.6-2.6
					c0.9-1.3,1.3-2.9,1.2-4.5C357.3,249.1,356.9,247.4,356,246z M349.9,255.2h-3.4c0,0-0.1-7.3-0.2-9.1c3.1,0,3.2,0,4.4,0
					c1.7,0.1,3.1,1.1,3.6,2.7c0.1,0.9,0.2,1.8,0.2,2.6c-0.1,1.1-0.6,2.1-1.4,2.8C352.3,255,351.1,255.3,349.9,255.2L349.9,255.2z"/>
				<path class="st1" d="M335.6,252.3c1-0.8,1.7-1.9,2-3.1c0.3-2.5-1.5-4.8-4-5.1c0,0,0,0,0,0h-0.3c-1.5,0.1-9.2,0.6-9.2,0.6
					l0.8,14.5l2.8-0.2l-0.4-5.4l4.8-0.3l1.2-0.1c1.2,1.6,1.8,3.5,1.7,5.4h2.7c0-1.4-0.2-2.8-0.7-4.1
					C336.6,253.7,336.1,253,335.6,252.3z M333.9,250.1c-0.7,0.3-1.4,0.5-2.2,0.5l-4.6,0.3c0,0-0.2-2.5-0.3-3.7
					c0.7,0,4.4-0.3,4.5-0.3c0.7,0,1.6-0.1,1.6-0.1c0.5,0,0.9,0.2,1.2,0.5c0.4,0.3,0.6,0.8,0.6,1.3
					C334.6,249.1,334.3,249.7,333.9,250.1z"/>
				<path class="st1" d="M493.5,274.4c0.6-4-2-7.6-5.6-8.1c-3.6-0.5-7.1,2.3-7.7,6.3c-0.6,4,2,7.6,5.6,8.1S492.9,278.4,493.5,274.4z
					 M488,269.2c4.9,1.3,2.6,9.8-2.3,8.6C480.8,276.5,483.1,268,488,269.2L488,269.2z"/>
				<path class="st1" d="M472,268.8c1.2-0.5,2.2-1.3,2.9-2.3c1.2-2.2,0.2-5-2.1-6.1c0,0,0,0,0,0l-0.3-0.1c-1.5-0.4-8.8-2.4-8.8-2.4
					l-4.1,14l2.7,0.7l1.4-5.2l4.7,1.2l1.1,0.3c0.3,1.4,0.4,2.8,0.3,4.1c-0.1,0.5-0.3,1-0.5,1.5l2.5,0.9c0.5-1.3,0.8-2.7,0.7-4.1
					C472.5,270.4,472.3,269.5,472,268.8z M471.2,266.1c-0.8,0.1-1.5,0-2.3-0.2l-4.5-1.2l1-3.6c0.7,0.2,4.2,1.1,4.3,1.1
					c0.7,0.2,1.5,0.4,1.5,0.4c0.4,0.2,0.8,0.5,1,0.9c0.3,0.4,0.3,0.9,0.1,1.4C472.2,265.5,471.8,265.9,471.2,266.1L471.2,266.1z"/>
				<path class="st1" d="M526.3,290.1c1.2-0.4,2.3-1.1,3.1-2.1c1.4-2.1,0.7-5-1.5-6.3c0,0,0,0,0,0l-0.3-0.2
					c-1.4-0.6-8.6-3.1-8.6-3.1l-5.3,13.6l2.6,1l1.9-5.1l4.5,1.6l1.1,0.4c0.2,1.4,0.2,2.8-0.1,4.1c-0.2,0.5-0.4,1-0.6,1.5l2.5,1.1
					c0.6-1.3,1-2.6,1.1-4.1C526.7,291.8,526.6,291,526.3,290.1z M525.7,287.4c-0.8,0-1.5-0.1-2.2-0.4l-4.3-1.5l1.3-3.5
					c0.6,0.3,4.1,1.5,4.2,1.5c0.7,0.3,1.5,0.5,1.5,0.5c0.4,0.2,0.7,0.6,0.9,1c0.2,0.4,0.2,0.9,0,1.4
					C526.8,286.8,526.3,287.2,525.7,287.4z"/>
				<path class="st1" d="M453.6,263.9c1.2-0.5,2.2-1.3,2.9-2.4c1.1-2.3,0.1-5-2.2-6.1c0,0,0,0,0,0l-0.3-0.1
					c-1.5-0.4-8.9-2.2-8.9-2.2l-3.8,14.1l2.7,0.6l1.3-5.2l4.7,1.1l1.1,0.3 M452.7,261.3c-0.8,0.1-1.5,0-2.3-0.2L446,260l0.9-3.6
					c0.7,0.2,4.3,1,4.3,1c0.7,0.2,1.5,0.4,1.5,0.4c0.4,0.2,0.8,0.5,1,0.9c0.3,0.4,0.4,0.9,0.2,1.4
					C453.7,260.6,453.3,261,452.7,261.3L452.7,261.3z"/>
				<path class="st1" d="M509.2,282.3c-0.4-0.2-0.8-0.3-1.2-0.4c-1.2,2.1-3.8,3.7-6.1,2.1c-4.2-2.8,1-10.1,5.1-7.3
					c0.9,0.6,1.5,1.5,1.5,2.6c0.6,0.3,1.3,0.4,2,0.7l0.8,0.4c0.3-2.6-1-5.1-3.4-6.4c-3.3-1.7-7.5-0.1-9.4,3.4
					c-1.9,3.6-0.8,7.8,2.5,9.5s7.5,0.1,9.4-3.4c0.1-0.1,0.1-0.3,0.2-0.4L509.2,282.3z"/>
			</g>
		</g>
	</g>
</g>
<g>
	<g id="Layer_1-2">
		<path class="st6" d="M861.1,6c13.7,0.1,24.8,11.2,24.9,24.9V569c0,13.8-11.1,24.9-24.9,24.9h0H30.9c-13.7,0-24.9-11-24.9-24.7
			c0,0,0,0,0-0.1V30.9C6.1,17.2,17.2,6.1,30.9,6H861.1 M861.1,0H30.9C13.9,0,0,13.8,0,30.8c0,0,0,0.1,0,0.1l0,0V569
			c-0.1,17.1,13.7,30.9,30.8,31c0,0,0.1,0,0.1,0H861c17,0,30.9-13.8,30.9-30.8c0,0,0-0.1,0-0.1V30.9c0.1-17-13.6-30.8-30.5-30.9
			C861.3,0,861.2,0,861.1,0z"/>
	</g>
</g>
</svg>
