<svg id="Layer_2" data-name="Layer 2" xmlns="http://www.w3.org/2000/svg" xmlns:xlink="http://www.w3.org/1999/xlink" viewBox="0 0 892 600"><defs><style>.cls-1{fill:none;}.cls-2{clip-path:url(#clip-path);}.cls-3{fill:#8d1b3d;}.cls-4{fill:#fff;}.cls-5{fill:#939598;}</style><clipPath id="clip-path"><rect class="cls-1" width="892" height="600" rx="30.93"/></clipPath></defs><title>Catar</title><g class="cls-2"><rect class="cls-3" width="896" height="600"/><path class="cls-4" d="M262.9,600H0V0H262.9L385.08,33.33,262.9,66.67,385.08,100,262.9,133.33l122.18,33.34L262.9,200l122.18,33.33L262.9,266.67,385.08,300,262.9,333.33l122.18,33.34L262.9,400l122.18,33.33L262.9,466.67,385.08,500,262.9,533.33l122.18,33.34Z"/></g><g id="Layer_1" data-name="Layer 1"><path class="cls-5" d="M861.1,6A25,25,0,0,1,886,30.9V569a24.9,24.9,0,0,1-24.9,24.9H30.9A24.82,24.82,0,0,1,6,569.1V30.9A25,25,0,0,1,30.9,6H861.1m0-6H30.9A30.86,30.86,0,0,0,0,30.9H0V569a30.88,30.88,0,0,0,30.9,31H861a30.86,30.86,0,0,0,30.9-30.9V30.9A30.71,30.71,0,0,0,861.1,0Z"/></g></svg>