<svg xmlns="http://www.w3.org/2000/svg" xmlns:xlink="http://www.w3.org/1999/xlink" viewBox="0 0 892 600"><defs><style>.cls-1,.cls-16,.cls-9{fill:none;}.cls-2{clip-path:url(#clip-path);}.cls-10,.cls-11,.cls-12,.cls-13,.cls-14,.cls-15,.cls-3,.cls-5,.cls-8{fill:#fff;}.cls-4{fill:#ce1126;}.cls-10,.cls-11,.cls-12,.cls-13,.cls-14,.cls-15,.cls-16,.cls-17,.cls-5,.cls-7,.cls-8,.cls-9{stroke:#c09300;}.cls-10,.cls-11,.cls-12,.cls-5,.cls-8,.cls-9{stroke-linejoin:round;}.cls-5{stroke-width:1.27px;}.cls-17,.cls-6,.cls-7{fill:#c09300;}.cls-7{stroke-width:1.07px;}.cls-8{stroke-width:1.19px;}.cls-11,.cls-9{stroke-width:1.27px;}.cls-10,.cls-11,.cls-12{stroke-linecap:round;}.cls-10{stroke-width:2.38px;}.cls-12{stroke-width:0.89px;}.cls-13{stroke-width:1.15px;}.cls-14{stroke-width:0.92px;}.cls-15{stroke-width:1.22px;}.cls-16{stroke-width:1.27px;}.cls-17{stroke-width:0.35px;}.cls-18{fill:#939598;}</style><clipPath id="clip-path"><rect class="cls-1" width="892" height="600" rx="30.93" ry="30.93"/></clipPath></defs><title>Egito</title><g id="Layer_2" data-name="Layer 2"><g class="cls-2"><rect x="-4" width="900" height="600"/><rect class="cls-3" x="-4" width="900" height="400"/><rect class="cls-4" x="-4" width="900" height="200"/><path class="cls-5" d="M446.81,302.4,515.3,366l-4.88-115.47c-.71-17.5-15.92-13.49-27-7.17-11.19,7.17-24,7.17-37.44,2.43-13.49,4.74-26.26,4.74-37.45-2.43-11-6.32-26.25-10.33-27,7.17L376.71,366l70.1-63.58Z"/><g id="w"><path class="cls-6" d="M389.47,246.49l-4.73,112.32-8,7.17,4.88-115.47c2.29-1.58,6.31-4,7.89-4Z"/><path class="cls-6" d="M399.09,254.53l-4,94-8,8.23,4.88-108.49c1.58,1.57,6.31,5.45,7.17,6.31Z"/><path class="cls-6" d="M407.84,261.7l-3.15,78.36-6.46,6.31,4-89.4c1.57,1.57,4.73,3.87,5.59,4.73Z"/><path class="cls-6" d="M417.31,265.72l-3.16,66.79-6.31,5.12L411,263.28c1.58.72,4.73,2.44,6.31,2.44Z"/><path class="cls-6" d="M426.06,265.72l-2.3,55.66-6.45,6.31,2.44-61.25c1.57,0,5.59,0,6.31-.72Z"/></g><g id="w-2" data-name="w"><path class="cls-6" d="M502.53,246.49l4.73,112.32,8,7.17-4.88-115.47c-2.29-1.58-6.31-4-7.89-4Z"/><path class="cls-6" d="M492.91,254.53l4,94,8,8.23-4.88-108.49c-1.58,1.57-6.31,5.45-7.17,6.31Z"/><path class="cls-6" d="M484.16,261.7l3.15,78.36,6.46,6.31-4-89.4c-1.57,1.57-4.73,3.87-5.59,4.73Z"/><path class="cls-6" d="M474.69,265.72l3.16,66.79,6.31,5.12L481,263.28c-1.58.72-4.73,2.44-6.31,2.44Z"/><path class="cls-6" d="M465.94,265.72l2.3,55.66,6.45,6.31-2.44-61.25c-1.57,0-5.59,0-6.31-.72Z"/></g><path class="cls-7" d="M449.16,315.5l9.61,43.76-3.15,3.15-3.3-2.44-5.46-39,2.3,39L446,364l-3.15-4,2.29-39-5.45,39-3.3,2.44-3.15-3.15,9.61-43.76Z"/><g id="b"><path class="cls-8" d="M424.48,295.84l-19.08,67.7,26.26,4,11.18-50.92-18.36-20.8Z"/><path class="cls-9" d="M418.17,318.94l2.3,5.59,12.4-11.85"/><path class="cls-9" d="M426.76,304.92l2.6,24.35,7.89-10.33"/><path class="cls-9" d="M434.09,323l4.31,14.88"/><path class="cls-9" d="M440.09,332.36l-8.72,13.24m2.72,13.22-2.79-13.2-2.43-13.42L423,340.11,420.46,331l-8.17,8.38,4.16,15.25,5.73-9.43,3.16,9.61,5.89-9.16"/><path class="cls-9" d="M411,362l5.3-7.44L419.74,366l4.74-8,3.15,9.61"/></g><g id="b-2" data-name="b"><path class="cls-8" d="M467.52,295.84l19.08,67.7-26.26,4-11.18-50.92,18.36-20.8Z"/><path class="cls-9" d="M473.83,318.94l-2.3,5.59-12.4-11.85"/><path class="cls-9" d="M465.24,304.92l-2.6,24.35-7.89-10.33"/><path class="cls-9" d="M457.91,323l-4.31,14.88"/><path class="cls-9" d="M451.91,332.36l8.72,13.24m-2.72,13.22,2.79-13.2,2.43-13.42,5.85,7.91,2.56-9.12,8.17,8.38-4.16,15.25-5.73-9.43-3.16,9.61-5.89-9.16"/><path class="cls-9" d="M481,362l-5.3-7.44L472.26,366l-4.74-8-3.15,9.61"/></g><path class="cls-10" d="M446,393.81c19.94,0,39-1.58,50.21-4.73,4.74-.86,4.74-3.3,4.74-6.46,4.73-1.58,2.29-7.17,5.59-7.17-3.3.86-4-5.59-8-4.73,0-5.6-5.6-6.31-10.33-4.74-9.47,3.16-26.26,3.88-42.18,3.88-15.92-.72-32.57-.72-42.18-3.88-4.73-1.57-10.33-.86-10.33,4.74-4-.86-4.73,5.59-8,4.73,3.3,0,.86,5.59,5.59,7.17,0,3.16,0,5.6,4.88,6.46,11.05,3.15,30.13,4.73,50.07,4.73Z"/><path class="cls-11" d="M418.89,363.54c6.45.86,13.63,1.58,19.23.86,3.15,0,5.44,5.45-.87,6.31-5.59.72-14.34,0-19.08-.86-4-.72-12.77-2.29-18.36-3.87-5.6-2.44-1.58-7.17,1.58-6.46a104.85,104.85,0,0,0,17.5,4Z"/><path class="cls-11" d="M473.12,363.54c-6.46.86-13.63,1.58-19.08.86-3.3,0-5.6,5.45.72,6.31,5.59.72,14.34,0,19.07-.86,4-.72,12.77-2.29,18.37-3.87,5.59-2.44,1.58-7.17-1.58-6.46a105.08,105.08,0,0,1-17.5,4Z"/><path class="cls-11" d="M399.09,360.39c-4.88-.86-7.17,4.73-5.59,7.89.71-1.58,4-1.58,4.73-3.16.86-2.44-.72-2.44.86-4.73Z"/><path class="cls-11" d="M418.17,375.06c0-3.15,3.15-2.77,3.15-5.92,0-1.58-.85-4-2.43-4a3.4,3.4,0,0,0-3.16,3.16C415,371.43,418.17,371.91,418.17,375.06Z"/><path class="cls-11" d="M440.88,366c4.73,0,4.26,6.31,2,9.47,0-2.3-4-3.16-4-4.73,0-2.44,3.63-2.44,2.05-4.74Z"/><path class="cls-11" d="M492.91,360.39c4.88-.86,7.17,4.73,5.6,7.89-.72-1.58-4-1.58-4.74-3.16-.86-2.44.72-2.44-.86-4.73Z"/><path class="cls-11" d="M473.83,375.06c0-3.15-3.15-2.77-3.15-5.92,0-1.58.86-4,2.43-4a3.4,3.4,0,0,1,3.16,3.16c.72,3.15-2.44,3.63-2.44,6.78Z"/><path class="cls-11" d="M451.12,366c-4.73,0-4.26,6.31-2,9.47,0-2.3,4-3.16,4-4.73C453.17,368.28,449.54,368.28,451.12,366Z"/><path class="cls-12" d="M400.67,362c1.58,0,4,.72,4.74,1.58L400.67,362Z"/><path class="cls-12" d="M408.55,364.41a17.72,17.72,0,0,1,5.6,1.58l-5.6-1.58Z"/><path class="cls-12" d="M437.25,367.56c-1.58,0-4.73,0-5.59.72l5.59-.72Z"/><path class="cls-12" d="M428.5,367.5c-.86-.86-4-.86-5.59,0Z"/><path class="cls-12" d="M491.34,362a8.17,8.17,0,0,0-4.74,1.58Z"/><path class="cls-12" d="M483.45,364.41a17.72,17.72,0,0,0-5.6,1.58l5.6-1.58Z"/><path class="cls-12" d="M454.75,367.56c1.58,0,4.74,0,5.6.72l-5.6-.72Z"/><path class="cls-12" d="M463.5,367.5c.86-.86,4-.86,5.6,0Z"/><path class="cls-6" d="M399.34,374.58a.79.79,0,0,1-.68-1c.16-.61.65-1,1.11-.8.3.1.83.65.83.84s-.28.75-.4.75a.3.3,0,0,0-.18.11.87.87,0,0,1-.68.12Z"/><path class="cls-6" d="M454.27,378.5a1.1,1.1,0,0,1-.51-.72,1.33,1.33,0,0,1,.92-1,1.8,1.8,0,0,1,.84.44.82.82,0,0,1-.16,1.21,1.54,1.54,0,0,1-1.09.1Z"/><path class="cls-6" d="M454.63,381a.78.78,0,0,1-.61-.81c0-.49,0-.56.53-.84l.36-.2.35.15c.48.21.69.45.71.77a1,1,0,0,1-.64.88.66.66,0,0,1-.7.05Z"/><path class="cls-6" d="M403.75,370.09a2.54,2.54,0,0,0-1.09.47c-.65.15-1.41.55-2,.12-.62-.19-1.44,0-1.54.72a1.09,1.09,0,0,0,1.63.6c.41-.54,1.53-.86,1.66.06-.46.69-.41,1.61-.79,2.34a3.15,3.15,0,0,1-.5,1.28,2.65,2.65,0,0,0-1.34.28,2.17,2.17,0,0,0-1.63.88,4.77,4.77,0,0,0-.9,1.87c.11.73.94.94,1.56,1,.67.19,1.34.43,2,.63,1.09.24,2.1.63,3.19.87,1.58.48,3.25.7,4.84,1.13a3,3,0,0,0,.5.12c.66.14,1-.58,1.07-1.12.32-1.16.57-2.34.9-3.5.23-.47.5-1.52-.4-1.28a3.69,3.69,0,0,1-1.6.81c-.87.05-.37,1,0,1.31a2.36,2.36,0,0,1-.5,1.75c-.52.33-1.17,0-1.72-.18s-1.72-.29-1.19-1.07c.19-.57.21-1.21.44-1.78a8,8,0,0,0,.47-1.94c-.36-.77-1,.26-1.47.35-.34.23-1.6.33-.94.94.58.43.14,1.19,0,1.75,0,.77-.83.95-1.46.78s-1.51-.5-1-1.19c.12-.58.32-1.14.43-1.72s.44-1.36.69-2.06a5.64,5.64,0,0,1,.63-1.75c0-.69.48-1.28.47-2-.05-.34-.2-.46-.41-.47Zm-3.59,7.25a.37.37,0,0,1,.21,0c.25.11.26.31,0,.53a.83.83,0,0,1-.28.19c-.46,0-.6-.11-.62-.28s0-.2.34-.35a1.31,1.31,0,0,1,.35-.12Z"/><path class="cls-6" d="M399.12,382.36c-.5-.47-.42-.81.32-1.35.31-.24.5-.21.86.12.55.5.57.82.09,1.25a.78.78,0,0,1-.63.26.72.72,0,0,1-.64-.28Z"/><path class="cls-6" d="M402.17,383.28a.87.87,0,0,1-.62-1.09c.13-.43.2-.47.84-.48s.85.11.86.74c0,.35,0,.44-.2.6a1.08,1.08,0,0,1-.88.23Z"/><path class="cls-6" d="M491.28,383.36a.56.56,0,0,1-.28-.51c0-.42.24-.72.75-1,.68-.31,1-.26,1.22.19.34.6.32.84-.09,1.25-.22.22-.26.24-.78.24s-.57,0-.82-.22Z"/><path class="cls-6" d="M406.22,384.51a.76.76,0,0,1-.56-.81c0-.33,0-.38.26-.57a1.37,1.37,0,0,1,.57-.24.61.61,0,0,1,.58.14c.55.38.67.77.35,1.14a1,1,0,0,1-1.2.34Z"/><path class="cls-6" d="M428.14,385.49c-.08-.1-.26-.16-.28-.29a6.21,6.21,0,0,1,.24-1.65,9.22,9.22,0,0,1,.19-1.57c.19-.93.19-1.89.4-2.81a5.09,5.09,0,0,1,.2-1.4c.15-.72,0-1.48.22-2.19,0-.27.29-1,.56-.56a9.21,9.21,0,0,0,1.42,1.51c.44.26,0,.63-.27.75a1,1,0,0,0-.48,1,9.9,9.9,0,0,0-.24,1.23c-.09.62-.08,1.25-.16,1.87a9.92,9.92,0,0,0-.17,1.89c0,.4-.18.76-.15,1.16a1.68,1.68,0,0,1-.41,1.17.94.94,0,0,1-1.07-.14Z"/><path class="cls-6" d="M457.84,375.69a14,14,0,0,0-1.34,1.22c-.6.45.48.71.62,1.09a9.21,9.21,0,0,1,.19,1.82,4.5,4.5,0,0,1,.22,1.71c0,.63-.87.5-1.22.85-.49.2-.69.69-1.06,1a4.06,4.06,0,0,0-.35,1.62c0,.45-.3,1,0,1.35l.13.19c.1.14.34,0,.5.06a4.44,4.44,0,0,0,1.5-.16,29.74,29.74,0,0,1,3.65-.28c.75,0,1.47-.24,2.22-.22.59.13.85-.5.85-1-.34-.65-.05-1.43-.32-2.09a12.52,12.52,0,0,1-.25-2.13.6.6,0,0,0-1.06-.34c-.34.35-.89.41-1.16.84-.29.61.63.61.79,1.07a5.52,5.52,0,0,1,.15,1.47c.12.59-.53.62-.94.68s-1.29.34-1.59-.31a5.79,5.79,0,0,1-.22-1.5c0-.89-.23-1.77-.28-2.66-.05-1.09-.24-2.18-.31-3.28,0-.45-.07-1.2-.72-1.06Zm-.63,8.25.32,0,0,.38,0,.37-.41.13a3.79,3.79,0,0,1-.4.09,1,1,0,0,1-.19-.13c-.22-.15-.16-.38.12-.68a.49.49,0,0,1,.5-.19Z"/><path class="cls-6" d="M427.25,374.66c-.38.14-.86.69-1.25.69-.88.06-.76.92-.12,1.22a5,5,0,0,1,0,.87c.12.79-.38,1.43-.29,2.22s-.3,1.72-.34,2.59c-.25.91-.25,1.84-.41,2.75s-.69.54-1.21.32c0-.36,0-.71,0-1.07.22-.81-.44-1.05-1.09-1.15a.84.84,0,0,1-.87-1.13c.29-.35,1-.25,1.5-.31,1,.2.94-1.11.43-1.56-.34-.64-1.19-.91-1.43-1.56a2.38,2.38,0,0,0-1.19-2.16,2.56,2.56,0,0,0-2.31,1.78c-.46.13-.91.27-1.35.44-.71.18-1.72,1.4-.75,1.87.55.15,2.2.53,1.47,1.28a1.58,1.58,0,0,1-1.91.54c-.72,0-1.52-.36-1.5-1.19a8.49,8.49,0,0,0-.46-2.25c-.15-.84-1.1-.65-1.16.12a1.33,1.33,0,0,0-.12,2,2.84,2.84,0,0,1-.32,2.25c-.19.88-1.15.91-1.84,1.19-.34.13-1.63-.08-1.16.66a4.56,4.56,0,0,0,2.44.31,2.68,2.68,0,0,0,1.94-1.37c.55-.56,1.5-.27,2.22-.29s1.56.55,2.31.19c.22-.56,1.22-1.49,1.53-.53a1.21,1.21,0,0,0,1.5,1.22c.86-.05.54.61.53,1.12a2.15,2.15,0,0,0,1.44,1.82,2,2,0,0,0,.81,0c.75-.24,1.55-.57,1.78-1.41a17.46,17.46,0,0,0,.53-2.16,26.14,26.14,0,0,0,.44-3.4c.28-1,.2-2.14.41-3.19.13-.78.23-1.56.31-2.34-.09-.42-.27-.49-.5-.41Zm-6.78,4.16c.15,0,.23.2.25.53a.75.75,0,0,0,.44.72c.18,0,.16.24,0,.37a1.29,1.29,0,0,1-.69.13,1.64,1.64,0,0,1-1.25-.47l-.19-.19.28-.19a6,6,0,0,0,.56-.5c.29-.29.48-.42.63-.4Z"/><path class="cls-6" d="M486.5,370.94a8.85,8.85,0,0,0-1.66.25c-1-.06-1.56,1-.56,1.56.6,1.54,1.54-.31,2.5-.18,1.44.27,1.56,1.83,1.78,3a15.5,15.5,0,0,0,.75,3.37c1,1.07-.72,1.74-1.43.91-.62-.67-1.93-1.48-2.66-.57-.9.39-.94,1.59-1.69,1.94-1.21.37-1.36-1.12-2-1.75-.59-.82-1.71-.9-2.62-1.19-.43-.86-.21-2.34-1.1-2.93-.74.3-2.11,1.7-1,2.34,1.12,1-.48,1.4-1,2.06a5.16,5.16,0,0,0-1,3c-1.26.7-1.51-.79-1.66-1.72-.1-1.11-1-.78-1.69-.37-.95.38-1.43,1.29-2.09,2a17.28,17.28,0,0,0,0,2c.22.81,1.2.43,1.81.37,1-.41,1.38.63.59,1.22-.53.68-2.21.33-2.06,1.41a9.2,9.2,0,0,0,1.66,0,3,3,0,0,0,2.37-2.28c.15-1.06,1.67-.87,2.5-1.1,1-.3,2.3-.37,2.53.94.71.75,2.25,1.59,3,.56a2.4,2.4,0,0,0,1.12-2.25c-.16-.78,1.27-.81,1.63-.37.52.86,2.15.6,2.93.12s1-1.7,2.22-1.72c1.78-.53,3.64-.84,5.38-1.5,1.41-.3-.21-1.19-.57-1.71-1.07-.53-2,1.64-3.21.56-.94-.72-.88-2.08-1.22-3.13-.24-1.35-.18-2.92-1.16-4a3.11,3.11,0,0,0-2.53-.84Zm-6.81,9.47a1.12,1.12,0,0,1,.5.19,1.3,1.3,0,0,1,.75,1c0,.21-.06.22-.38.37a2.05,2.05,0,0,1-.5.19c-.18,0-.62-.36-.62-.5a2.15,2.15,0,0,0-.13-.47c-.12-.32-.1-.32.07-.53S479.56,380.41,479.69,380.41Zm6.53.34a.7.7,0,0,1,.75.38c.18.33.06.58-.41.78a2.24,2.24,0,0,1-.44.16l-.37-.22c-.27-.18-.31-.27-.31-.47S485.79,380.78,486.22,380.75Zm-8.94.1c.11,0,.21,0,.34.15a.82.82,0,0,1,.29.6,2.53,2.53,0,0,1,0,.62c-.05.23-.06.22-.57.22s-.7-.06-.68-.66c0-.37,0-.47.21-.68A.72.72,0,0,1,477.28,380.85Zm-5.5,1.43a.58.58,0,0,1,.44.44c.06.32,0,.46-.25.6a1.36,1.36,0,0,1-.88.06.66.66,0,0,1-.18-.19c-.07-.12-.06-.18,0-.25s.12-.12.12-.16a1,1,0,0,1,.16-.28.55.55,0,0,1,.56-.22Zm9.25,1.19a.64.64,0,0,1,.44.16.34.34,0,0,1,0,.56,2.26,2.26,0,0,1-1.13,0,.2.2,0,0,1-.15-.22c0-.14,0-.23.28-.34a1.38,1.38,0,0,1,.59-.16Z"/><path class="cls-6" d="M463.86,388.29c-.1-.06-.24-.12-.09-.22a1.38,1.38,0,0,1,.82-.52,3.4,3.4,0,0,0,1.37-1.12c.05-.33.43-.51.43-.86a5.71,5.71,0,0,0-.09-1.43,1.76,1.76,0,0,0-.83-1c-.25-.2-.67-.26-.76-.62s.25-.6.36-.9.41-.87.65-1.28.66,0,.79.26a3.16,3.16,0,0,1,.45.9,2.79,2.79,0,0,1,.68,1.16,2.13,2.13,0,0,1,.37,1c0,.41.23.79.22,1.2a4.53,4.53,0,0,1-.19,1.68,5.25,5.25,0,0,1-.61.73,3.47,3.47,0,0,1-1.08.74c-.29.09-.46.42-.82.34a8.91,8.91,0,0,1-1.55,0s-.15-.09-.12-.06Z"/><path class="cls-6" d="M457,388.74c-.24-.25-.3-.36-.3-.6a.7.7,0,0,1,.28-.59c.44-.44.66-.45,1.41-.07s1,.4,1,.14.47-.48.87-.48a.81.81,0,0,1,.59.21c.25.19.27.22.27.68s0,.48-.29.73a.63.63,0,0,1-.66.23.77.77,0,0,1-.77-.59c-.06-.25-.14-.31-.21-.14a.41.41,0,0,1-.24.15,2.23,2.23,0,0,0-.79.5.76.76,0,0,1-.52.13.68.68,0,0,1-.68-.3Z"/><path class="cls-6" d="M437.19,379.84a1.58,1.58,0,0,0-1.47,1.22c.15.75.78,1.49.38,2.28.27,1-.77,1.4-1.47.81a15,15,0,0,0-1.28-2.9c-.81-.23-1.16,1.05-1.72,1.5.28.75,1.09,1.43,1.18,2.37a2.4,2.4,0,0,1-1.15,2.41c-.69.65-1.63.42-2.47.56-1,.6.75.82,1.22.84a3.42,3.42,0,0,0,2.9-.81c.77-.37.71-1.7,1.63-1.84,1.59-.07,3.16.24,4.75.28.85.2,2.16-.1,2.75.53a2.67,2.67,0,0,0,1.84,2.22c.5.14,1-.48,1.53-.6,1-.3.68-1.5,1.25-2,1.66-.09,3.32-.07,5-.1.32,0,.41-.44.63-.62,0-.64-.06-1.28-.16-1.91-.32-.81.05-1.84-.53-2.53-.83-.23-1.54.53-2.37.59a2.79,2.79,0,0,0-1.75,2.32c-.55.89-1.43-.16-1.13-.91a4.72,4.72,0,0,0,0-1c-.51-.61-1.39-.41-2.09-.5-1,0-2-.18-3-.16a14.1,14.1,0,0,1-2.69-.15c-1,0-.89-1-1.06-1.75a1,1,0,0,0-.63-.19Zm2,3.69a8.26,8.26,0,0,1,1,.09c.43.07.89-.15,1.31,0,1,.17,2,.13,2.94.22a1,1,0,0,1,.63.34v2.07c0,.25.07.59-.16.78a.82.82,0,0,1-.25.12,1.1,1.1,0,0,1-.69-.5,7.55,7.55,0,0,1,0-1.06c0-.09,0-.24,0-.31a1.23,1.23,0,0,0-.72-.25c-.85,0-1.68-.09-2.53-.13a10.74,10.74,0,0,1-2.12-.12c-.27-.1-.62-.07-.78-.35s.1-.59.34-.72a2.3,2.3,0,0,1,1-.18Zm11.28.25c.16,0,.21.05.28.34s.1.42.13.5,0,.16-.19.22c-.49.19-1,.17-1.16-.06a.63.63,0,0,1,.16-.57,1.62,1.62,0,0,1,.78-.43Z"/><path class="cls-13" d="M446,327.23c32.64-25.11,29.84-61.88,29.84-61.88a12.88,12.88,0,0,1-2.54.26c-6.84,0-23.18-3.92-27-8.9-4.08,4.51-20.77,8.9-27.57,8.9a12.58,12.58,0,0,1-2.54-.26s-2.84,36.77,29.8,61.88Z"/><path class="cls-14" d="M473.22,268c-.28,0-.56,0-.85,0-6.2,0-20.62-3.19-26.17-8-5.82,4.41-20.47,8-26.58,8a4.81,4.81,0,0,1-.85-.09c0,1.39.06,2.83.15,4.14a73.42,73.42,0,0,0,2.48,14.56A71.06,71.06,0,0,0,446,323.83a71.21,71.21,0,0,0,24.6-37.19,73.21,73.21,0,0,0,2.49-14.55c.09-1.28.16-2.69.15-4Z"/><path class="cls-6" d="M435,265c-5.87,1.84-12.23,3-15.75,3a4.69,4.69,0,0,1-.84-.09c0,1.39.07,2.84.15,4.15A73.71,73.71,0,0,0,421,286.65a71.15,71.15,0,0,0,14,26.79V265Z"/><path class="cls-6" d="M456,264.94v49.25a71.17,71.17,0,0,0,14.59-27.56,72.27,72.27,0,0,0,2.47-14.53c.09-1.29.17-2.7.16-4.07-.28,0-.56,0-.84,0A61,61,0,0,1,456,264.94Z"/><path class="cls-15" d="M458.31,253.09c.67,0-.9-3.57-.9-3.57,1.76,1.81,8.43,2.24,8.43,2.24-4-1.77-8-15.1-7.53-25.72s-1.53-14.86-3.1-16.43c-2-2-8.43-3.77-12.66-4-2.39-.12-2,1.8-2,1.8-4.43-1.13-8.86-1.57-10.86-.23s-2.28,7.52-.9,6.43c3.33-2.67,6.23-.24,8.23,2.66,1.76,2.55,1.65,9.77-.9,18.2-2.67,8.86-10,17.72-10,17.72,4,0,9.53-3.53,9.53-3.53l-1.34,5.53a33.93,33.93,0,0,0,7.53-5.1l4,4.2a40.07,40.07,0,0,1,4-4.2,14.46,14.46,0,0,0,8.43,4Z"/><path class="cls-16" d="M442.12,227.57s-2.23,16.43-6.43,21.09"/><path class="cls-16" d="M445.65,227.14s-.86,16.62-3.76,22"/><path class="cls-16" d="M448.78,227.81s0,18.19,1.1,21.29"/><path class="cls-16" d="M452.74,228.71s.9,15.29,4.67,20.82"/><path class="cls-17" d="M438.08,219.61a7.94,7.94,0,0,0-1.06-3.33c-2-2.9-4.9-5.33-8.23-2.67,0,0,1.13-3.53,3.57-3.65,1.88-.11,6.15,1.42,9.92,7.85,0,0-2.79-.63-3.45,0-1.26,1.09-.75,1.84-.75,1.84Z"/><path class="cls-17" d="M428.44,209.26a3.83,3.83,0,0,1,1.25-2.08c2-1.34,6.43-.9,10.86.23,0,0-.39-1.92,2-1.8,4.24.23,10.67,2,12.67,4a7.84,7.84,0,0,1,1.49,2.39h-.08c-1-1.37-3.76-1.29-4.43-1.22a17.61,17.61,0,0,0-3.14.44,6.25,6.25,0,0,0-2.23.78c-.43.35-.79,1.65-1.45,1.65-1.06,0-1-.28-1.26-.59s-.55-1.06-.9-1c-1.1.2-2.86-.67-5.1-2.43s-3.09-2.2-6-2-3.77,1.84-3.77,1.84l.08-.19Z"/><circle class="cls-3" cx="444.82" cy="210.67" r="1.18"/></g></g><g id="Layer_1" data-name="Layer 1"><path class="cls-18" d="M861.07,6A25,25,0,0,1,886,30.93V569.07A25,25,0,0,1,861.07,594H30.93A25,25,0,0,1,6,569.07V30.93A25,25,0,0,1,30.93,6H861.07m0-6H30.93A30.93,30.93,0,0,0,0,30.93V569.07A30.93,30.93,0,0,0,30.93,600H861.07A30.93,30.93,0,0,0,892,569.07V30.93A30.93,30.93,0,0,0,861.07,0Z"/></g></svg>