<?xml version="1.0" encoding="UTF-8"?>
<svg id="Layer_1" xmlns="http://www.w3.org/2000/svg" version="1.1" viewBox="0 0 400 400">
  <!-- Generator: Adobe Illustrator 29.5.1, SVG Export Plug-In . SVG Version: 2.1.0 Build 141)  -->
  <defs>
    <style>
      .st0 {
        fill: #fffbb4;
      }

      .st1 {
        fill: #791a18;
      }

      .st2 {
        fill: #ae9d52;
      }

      .st3 {
        fill: #e74337;
      }

      .st4 {
        fill: #d0bd17;
      }

      .st5 {
        fill: #bda41f;
      }

      .st6 {
        fill: #979090;
      }

      .st7 {
        fill: #d5c1ba;
      }

      .st8 {
        fill: #fbd9cc;
      }

      .st9 {
        fill: #842628;
      }

      .st10 {
        fill: #555252;
      }

      .st11 {
        fill: #ed1d24;
      }

      .st12 {
        fill: #968f8b;
      }

      .st13 {
        fill: #97332c;
      }

      .st14 {
        fill: #b09b95;
      }

      .st15 {
        fill: #9c9d9f;
      }

      .st16 {
        fill: #b91d21;
      }

      .st17 {
        fill: #897d7a;
      }

      .st18 {
        fill: #af9d5e;
      }

      .st19 {
        fill: #363333;
      }

      .st20 {
        fill: #958d8b;
      }

      .st21 {
        fill: #ece22b;
      }

      .st22 {
        fill: #221e20;
      }

      .st23 {
        fill: #736e6b;
      }

      .st24 {
        fill: #fcfcfc;
      }

      .st25 {
        fill: #bfab1d;
      }

      .st26 {
        fill: #eb1c24;
      }

      .st27 {
        fill: #faef01;
      }

      .st28 {
        fill: #a7a7a7;
      }

      .st29 {
        fill: #3b3621;
      }

      .st30 {
        fill: #613c31;
      }

      .st31 {
        fill: #e58c1f;
      }

      .st32 {
        fill: #3e3720;
      }

      .st33 {
        fill: #c9b91a;
      }

      .st34 {
        fill: #8d8585;
      }

      .st35 {
        fill: #f8ec02;
      }

      .st36 {
        fill: #291f20;
      }

      .st37 {
        fill: #fff200;
      }

      .st38 {
        fill: #ded23b;
      }

      .st39 {
        fill: #ea322b;
      }

      .st40 {
        fill: #fffddc;
      }

      .st41 {
        fill: #f6ea03;
      }

      .st42 {
        fill: #252120;
      }

      .st43 {
        fill: #b6a35f;
      }

      .st44 {
        fill: #fff;
      }

      .st45 {
        fill: #a82426;
      }

      .st46 {
        fill: #fbef01;
      }

      .st47 {
        fill: #eb1f24;
      }

      .st48 {
        fill: #cbb61b;
      }

      .st49 {
        fill: #c0ac54;
      }

      .st50 {
        fill: #d8bf99;
      }

      .st51 {
        fill: #504820;
      }

      .st52 {
        fill: #fffcbc;
      }

      .st53 {
        fill: #f0f0ef;
      }

      .st54 {
        fill: #ab9b4c;
      }

      .st55 {
        fill: #89664b;
      }

      .st56 {
        fill: #ad9e9a;
      }

      .st57 {
        fill: #7e7b7b;
      }

      .st58 {
        fill: #b7a523;
      }

      .st59 {
        fill: #beac1c;
      }

      .st60 {
        fill: #faee01;
      }

      .st61 {
        fill: #f8ed02;
      }

      .st62 {
        fill: #8d664e;
      }

      .st63 {
        fill: #b42120;
      }

      .st64 {
        fill: #991b1b;
      }

      .st65 {
        fill: #6b6361;
      }

      .st66 {
        fill: #cbc9c9;
      }

      .st67 {
        fill: #ae9967;
      }

      .st68 {
        fill: #c0bebc;
      }

      .st69 {
        fill: #e0d9d8;
      }

      .st70 {
        fill: #f4c6ae;
      }

      .st71 {
        fill: #dad3d1;
      }

      .st72 {
        fill: #bd9952;
      }

      .st73 {
        fill: #968f8e;
      }

      .st74 {
        fill: #baaca9;
      }

      .st75 {
        fill: #fdeb02;
      }

      .st76 {
        fill: #a89122;
      }

      .st77 {
        fill: #efe404;
      }

      .st78 {
        fill: #988584;
      }

      .st79 {
        fill: #6d6620;
      }

      .st80 {
        fill: #826c3c;
      }

      .st81 {
        fill: #837774;
      }

      .st82 {
        fill: #fbfbfb;
      }

      .st83 {
        fill: #867b77;
      }

      .st84 {
        fill: #7b7272;
      }

      .st85 {
        fill: #fcdbcc;
      }

      .st86 {
        fill: #bbb01b;
      }

      .st87 {
        fill: #fbee01;
      }

      .st88 {
        fill: #383623;
      }

      .st89 {
        fill: #866f6b;
      }

      .st90 {
        fill: #fff980;
      }

      .st91 {
        fill: #70633d;
      }

      .st92 {
        fill: #262220;
      }

      .st93 {
        fill: #94812e;
      }

      .st94 {
        fill: #f2ded4;
      }

      .st95 {
        fill: #f4e603;
      }

      .st96 {
        fill: #847976;
      }

      .st97 {
        fill: #c3b1ac;
      }

      .st98 {
        fill: #231f20;
      }

      .st99 {
        fill: #f5ea03;
      }

      .st100 {
        fill: #2c2820;
      }

      .st101 {
        fill: #6d6e6c;
      }

      .st102 {
        fill: #a3938c;
      }

      .st103 {
        fill: #a78884;
      }

      .st104 {
        fill: #f0e404;
      }

      .st105 {
        fill: #b1a8a4;
      }

      .st106 {
        fill: #f1e504;
      }

      .st107 {
        fill: #756a41;
      }

      .st108 {
        fill: #792827;
      }

      .st109 {
        fill: #9b9d9e;
      }

      .st110 {
        fill: #c0aaa1;
      }

      .st111 {
        fill: #c62223;
      }

      .st112 {
        fill: #fff300;
      }

      .st113 {
        fill: #242020;
      }

      .st114 {
        fill: #645f60;
      }

      .st115 {
        fill: #6a623b;
      }

      .st116 {
        fill: #b7a99e;
      }

      .st117 {
        fill: #d0ba38;
      }

      .st118 {
        fill: #b9a664;
      }

      .st119 {
        fill: #d1c414;
      }

      .st120 {
        fill: #b4a323;
      }

      .st121 {
        fill: #f4e803;
      }

      .st122 {
        fill: #5d5959;
      }

      .st123 {
        fill: #b9ab20;
      }

      .st124 {
        fill: #edbd0e;
      }

      .st125 {
        fill: #d6d4d3;
      }

      .st126 {
        fill: #d6c81f;
      }

      .st127 {
        fill: #fef200;
      }

      .st128 {
        fill: #b8a192;
      }

      .st129 {
        fill: #f3f3f2;
      }

      .st130 {
        fill: #806e6b;
      }

      .st131 {
        fill: #9e901f;
      }

      .st132 {
        fill: #fff757;
      }

      .st133 {
        fill: #918815;
      }

      .st134 {
        fill: #f4e903;
      }

      .st135 {
        fill: #c4aba0;
      }

      .st136 {
        fill: #655c5b;
      }

      .st137 {
        fill: #2a2620;
      }

      .st138 {
        fill: #433f20;
      }

      .st139 {
        fill: #261f20;
      }

      .st140 {
        fill: #f6cda8;
      }

      .st141 {
        fill: #7d7c7d;
      }

      .st142 {
        fill: #f1e604;
      }

      .st143 {
        fill: #c68a75;
      }

      .st144 {
        fill: #d6b9af;
      }

      .st145 {
        fill: #c2816e;
      }

      .st146 {
        fill: #fdfdfc;
      }

      .st147 {
        fill: #b43f3d;
      }

      .st148 {
        fill: #aa2326;
      }

      .st149 {
        fill: #91211b;
      }

      .st150 {
        fill: #a71b1f;
      }

      .st151 {
        fill: #8c817d;
      }

      .st152 {
        fill: #e41e26;
      }

      .st153 {
        fill: #99847f;
      }

      .st154 {
        fill: #fbed01;
      }

      .st155 {
        fill: #e3d60e;
      }

      .st156 {
        fill: #fddbcd;
      }

      .st157 {
        fill: #b4994a;
      }

      .st158 {
        fill: #eaeae8;
      }

      .st159 {
        fill: #f6ea02;
      }

      .st160 {
        fill: #90493d;
      }

      .st161 {
        fill: #c7b3ac;
      }

      .st162 {
        fill: #b7a41c;
      }

      .st163 {
        fill: #423f28;
      }

      .st164 {
        fill: #655639;
      }

      .st165 {
        fill: #f8ec01;
      }

      .st166 {
        fill: #292520;
      }

      .st167 {
        fill: #595251;
      }

      .st168 {
        fill: #f9ef01;
      }

      .st169 {
        fill: #f7eb02;
      }

      .st170 {
        fill: #262120;
      }

      .st171 {
        fill: #251f21;
      }

      .st172 {
        fill: #6d6e6d;
      }

      .st173 {
        fill: #49431f;
      }

      .st174 {
        fill: #ed1c24;
      }

      .st175 {
        fill: #fff100;
      }

      .st176 {
        fill: #c83f37;
      }

      .st177 {
        fill: #beac58;
      }

      .st178 {
        fill: #d0ad1c;
      }

      .st179 {
        fill: #b8a9a3;
      }

      .st180 {
        fill: #685f5d;
      }

      .st181 {
        fill: #fefefe;
      }

      .st182 {
        fill: #bea981;
      }

      .st183 {
        fill: #c2aa9f;
      }

      .st184 {
        fill: #ae9f4f;
      }

      .st185 {
        fill: #a99325;
      }

      .st186 {
        fill: #f3e704;
      }

      .st187 {
        fill: #dd413e;
      }

      .st188 {
        fill: #fee7dd;
      }

      .st189 {
        fill: #d9cc1e;
      }

      .st190 {
        fill: #938887;
      }

      .st191 {
        fill: #fffeea;
      }

      .st192 {
        fill: #fff981;
      }

      .st193 {
        fill: #3d2e2e;
      }

      .st194 {
        fill: #242022;
      }

      .st195 {
        fill: #c2b872;
      }

      .st196 {
        fill: #bdb1ae;
      }

      .st197 {
        fill: #ec1e24;
      }

      .st198 {
        fill: #beaea8;
      }

      .st199 {
        fill: #e02b30;
      }

      .st200 {
        fill: #231f21;
      }

      .st201 {
        fill: #e03921;
      }

      .st202 {
        fill: #c1ae61;
      }

      .st203 {
        fill: #857e7b;
      }

      .st204 {
        fill: #c2bebd;
      }

      .st205 {
        fill: #fff201;
      }

      .st206 {
        fill: #f4cdbc;
      }

      .st207 {
        fill: #f2e604;
      }

      .st208 {
        fill: #a8a8a9;
      }

      .st209 {
        fill: #353233;
      }

      .st210 {
        fill: #6b6865;
      }
    </style>
  </defs>
  <path class="st191" d="M3.7,208.3c0,0-.3-.4-.4-.9-.1-1.5.4-3.4-.4-4.6,0-2.1,0-4.2,0-6.3s.4-.4.4-.9c0-1.5-.4-3.4.4-4.6.3.7.6,1.4.7,2.2.2,3,.6,11.9-.2,14.1s-.3.7-.5,1.1Z"/>
  <path class="st132" d="M397,202.4c-.1.3-.2.3-.4,0-.9-1.6-.9-3.2,0-4.8.1-.3.2-.3.4,0v4.8Z"/>
  <path class="st52" d="M397,195.4c-.1.3-.2.3-.4,0-1.1-1-1.1-2.7,0-3.7h.4v3.7Z"/>
  <path class="st0" d="M397,207.6c-.1.3-.2.3-.4,0-1-.8-1-1.8,0-2.6.1-.3.2-.3.4,0v2.6Z"/>
  <path class="st192" d="M397,205h-.4c-.9-.9-.9-1.7,0-2.6h.4v2.6Z"/>
  <path class="st90" d="M397,197.6h-.4c-.9-.8-.9-1.4,0-2.2h.4v2.2Z"/>
  <path class="st40" d="M397,209.4h-.4c-1-.6-1-1.3,0-1.8h.4v1.8Z"/>
  <path class="st112" d="M396.7,191.7c0,1.2,0,2.5,0,3.7s0,1.5,0,2.2c0,1.6,0,3.2,0,4.8s0,1.7,0,2.6,0,1.7,0,2.6,0,1.2,0,1.8c-2.2,71.1-49.5,135.3-113.4,164-93,41.7-203.5,7.9-254.7-80.1-16.2-27.7-22-53.2-24.8-85,.2-5.8-.2-11.6,0-17.4C8,76.5,116.1-3.9,227.1,10.5c90.9,11.8,167,87.9,169.6,181.2Z"/>
  <path class="st22" d="M190.3,14.6c108.8-4.9,203.8,79.1,200.8,190.2-3.2,114.3-107.8,194.9-219.3,178.8C70.3,369-3.7,276.8,11.2,173.5,24,84.9,101.7,18.6,190.3,14.6Z"/>
  <path class="st112" d="M193.3,109.1c76.9-4.2,140.6,62,123.9,139.4-18.7,86.4-127.3,119.7-193.9,62.9-80.9-68.9-33.9-196.7,70-202.4Z"/>
  <path class="st174" d="M282.3,323.1c43.1-29.9,66.1-78,59-130.8-.6-4.7-2-9.2-2.5-13.9l21.4-4.1c.8.7,1.2,19.8,1.1,22.4-1.6,55.4-30.4,100.9-78.6,127.2-1,.4-1.1,0-.4-.7Z"/>
  <path class="st174" d="M125.1,325.7c.4.5.2.6-.7.4-30.2-14.7-56.9-42.3-70.2-73.2-10.1-23.5-13.2-49-11.4-74.5l21.7,6.5c-.5,4.3-1.6,8.6-2.1,12.9-6.2,51.5,19.5,100.6,62.7,127.9Z"/>
  <path class="st112" d="M55,154.1c1.4-.4,2.2-1.7,3.9-1.8,6.8-.2,10.1,9.4,8.5,15.1-2.8,9.7-14.6,8-21.3,3.6s-4.2-2.8-2.7-5.6,2.5.7,3.6,1.4c4.4,2.7,10.3,4.5,12.4-1.9s-.6-12.1-3.6-4.2c-1.2-.7-8.2-1.7-8.5-2.4-.5-1.5,5.3-14.2,6.3-16.6l-5.6-2.6c.3-.6,1.1-2.9,1.7-3.1.9-.2,4.1,2,5.2,2.1s.6-.2.8-.5c2-3-5.4-2.4-4.1-5.6,1.9-4.6,5.3,1,6.9.6s.9-1.6,1.3-2l-7-3.9c-.3-.4,1.3-3.1,2.1-3.2s5.8,2.9,6.9,3.6l7.5-9.4-6.6-4.6c-.3-.4,1.9-3.4,2.7-3.3l15.7,11.2c-5.9,6.9-11.1,14.1-15.5,22.1s-3.3,7.4-4.2,7.5-1.4-.3-2.2-.3c-2.7,0-4.1.9-4.2,3.7Z"/>
  <path class="st37" d="M200.4,74.3c-11.2,0-22.4.2-33.4,2.1-.8-.2-.6-4.4-4.8-4.4s-1.9.3-2,.4c-.6.7.2.6.5.7,1.3.5,2.5.4,3.2,1.9,2.6,5.1-3,11.5-7.5,13.3-11,4.3-17.5-4.8-16.5-15s1.2-4.8,5.1-4.7c-2.2,7.7.5,16,10,12s4.2-2.4,4-3.6c-.3-1.8-3.6-.6-4.2-.7s-2.3-6.7-2.4-7.8c.2-.7,6.8-2.1,8-2.3,3.2-.6,6.5-1.1,9.7-1.2.5-1.4-.9-4.9-.2-5.9s3.3-.5,3.5-.3c.4.4.6,5.3.8,5.5s2.3,0,2.7,0c1.2-.3,2.8-6.9,6.5-8.2s12.7-.9,15.3-.6.8,0,1.1.4l.5,18.5Z"/>
  <path class="st112" d="M119.6,92c-8,3.6-15.1,8.7-22.3,13.7.5,3,1.8,5,.8,8.1s-4.4,6.1-6.3,6.6.3-2.5.4-2.9c.5-2.2,1-4.6-.4-6.6-1.5.8-5.5,5.9-6.9,5.5-4.6-4.6-13.3-9.2-8.7-17.1s6.8-3.8,10.2-2.5,2.4,1.4,2.5,1.4c.5,0,8.6-5.7,8.9-6.2s.2-.7,0-1.1c-.4-1-4.2-4.7-4.2-5.4.3-.6,3.1-2.7,3.6-2.4l4.3,5.9,7.4-4.1-10.5-16.9c-.3-1.1,3.8-3.8,5.1-2.5s3,4.4,3.8,5.8c4.2,6.3,7.8,13,12.1,19.3l.3,1.3Z"/>
  <path class="st37" d="M294,103.2c-.3-.3-1.8-1.2-2.1-.9,1.1,2.7,1.2,4.1-1.1,6.1-5.3,4.5-15.7,2.3-19.5-3.4-4.1-6.2,2.5-14.2,7.8-17.2s4-1.9,6.9.6c-5.1,2.5-13.1,8-6.2,13.6s12.1,4,5.5-1.8c1.2-.7,4.7-6.6,5.6-6.4s4.4,2.8,5.2,3.3c6.4,4.6,11.4,10.8,17,16.2,4.2-3.6-4.6-9.6-4.6-10.9s2.2-1.9,2.8-2.8c3.1,3.1,9.1,8.4,7.8,13.3-.8,3-9.1,8.1-11.4,10.7-4.9-4.8-9.7-9.8-14.2-14.9,1.3-1.6,2.2-4,.6-5.7Z"/>
  <path class="st37" d="M303.3,129c2.3,1.1,4.7,2.4,7.4,1.7,2.8-.7,17.4-10,18.9-9.8s2.5,3.6,2.8,4.5c-.3,1.1-6.3,3.1-6.8,3.9s4.7,7.8,5.4,9.1c.8.4,5.9-3.5,6.8-3.4s2,2.4,2,3.1-1.2,1.1-1.6,1.3c-1.5.9-3.4,1.9-5,2.6l2.6,8.1,19.8-6.2c1.5-.2,3.2,4.4,2.1,5.1l-31,10c-1.7-5.3-3.8-10.5-6.4-15.4s-3.9-7.2-4.7-7.9-3.3.4-4.7.3c-3.9-.2-6.6-3.8-8-7,.1-.2.2-.2.4,0Z"/>
  <path class="st37" d="M262.7,55.5l-11.8,29.2-11.6-3.7c-1.8,4.4-5.2,5.2-9.6,4.8s-4.5-.8-2.7-1.6c2.8-1.3,4.6-1,6.2-4.5l5.5-18.3,5.5,1.1c.5,1.4-2.1,7-1.7,7.7l6.7,2.5,7.9-18.8c2-.1,3.7,1.1,5.5,1.5Z"/>
  <path class="st37" d="M214,44.5l-1.5,20.1,11.2,1.7c1-.2,1.2-6.5,1.8-7.3s3.4.3,4.4.3l-3.9,18.4-20.4-3.1,2.9-30.8,5.5.8Z"/>
  <path class="st127" d="M275.6,61l-13.8,27.7c-.7.7-5.1-1.4-5.3-2.1-.4-1.5,12.2-24,13.4-27.4.7-.8,4.4,2,5.7,1.9Z"/>
  <path class="st127" d="M124.4,89.1l-14-27.5,5.3-2.8,14.2,27.6c0,1.1-4.5,2.4-5.5,2.7Z"/>
  <polygon class="st127" points="360.9 157 362 162.2 329.9 169.2 328.4 164 360.9 157"/>
  <path class="st46" d="M285.6,340.1c-.9-1.1-1.1-.9-.4.4.5.8,3.3,5.8,3.2,6.1,0,.6-1.5,1.2-2.1.9l-6-11.1c-1.1-1.3,1.5-2.7,2.3-2.3s3.9,3.7,4.4,4.3c.7,0,1.4.8,1.1,1.5.6,0,.9,0,.7-.4-.8,0-1.6-1.1-1.5-1.8-.4-.6-2.6-4.7-2.6-5s1.2-.9,1.3-.9c1,0,6.1,9.5,7.3,10.7.9,1.3-.3,2.4-1.5,2.7s-5.4-4.1-6.3-5Z"/>
  <path class="st87" d="M158.7,357.5c1.7-1.2,1.4-6.1,2.4-7.4s1.8-.5,2,.2c.4,1.4-3.2,11.2-3.3,13.4-.8,0-2.6-.2-2.9-1-.5-1.5.1-6-.4-7.9l-2.4,7c-.3.7-2,.2-2.1-.2l3.7-13.4c.6-.3,2.9.4,2.9.9v8.3Z"/>
  <path class="st46" d="M225.8,356c.5,2,1,7.3,1.7,8.5s1.7.8.8,2.2-3.6.7-4,.2c-.7-.9.3-1.4.4-2.2s-.7-9.4-1.3-9.4l-2.8,1,1.2,11c-1,.9-2.3.8-2.6-.7-.5-2.9-.4-6.6-.8-9.5-.4-1.2-3.8.3-2.9-3,.2-.8,5-.6,5.9-.6l3.5-.5c2-.6,2.3.4,1,3.1Z"/>
  <path class="st46" d="M141.4,350.8c-.1.1.7,2.4.7,3.1s-.5,4.6-.9,4.6-1.3-.6-1.5-.7c-1.3-1.1,1.1-5.5-1.1-7-.7,0-2,5.2-2.4,5.5s-1.7-.1-2-.7c-.4-.9,4.7-11.1,5-12.9,3.8,0,7.6,2.5,4.9,6.6-.9,1.4-2.6,1.3-2.8,1.5Z"/>
  <path class="st46" d="M246.5,348.3c1.4-.3,3.2-1.3,4.6-1.1,2.5.2,5.1,5.7,5.3,8,.7,5.3-.5,5.7-5.2,6.9-.4,0-.4.4-.8-.1l-3.9-13.6Z"/>
  <path class="st46" d="M210.3,368c-.2.6-2,.8-2.2.5-.6-.6-.3-8.3-.4-9.8s-1.5-4.3.9-4.6c3.4-.4,6.1.2,5.8,4.3s-1.2,2-1.1,2.9,3.3,6,3,6.5-2.1.6-2.5.3c-.8-.5-1.2-5.7-3.4-5.8-.3,1.5.4,4.5,0,5.7Z"/>
  <path class="st46" d="M148.7,357.5c0-.1-2.5-.8-2.7-.7-.9.2-1.8,4.7-3.9,1.3l6.8-11.3c.6-1.2,3.2-.2,3.4.6l-1.1,13.2c0,1.3-2,.8-2.4.2s.1-2.8-.2-3.3Z"/>
  <path class="st60" d="M273.1,342c-.7-1-.9-1.9-.7-3,.6-.6,1-.6,1.7,0,1.3,1.2,3.3,8.2,4.8,9.3s2.7.3,2.6-.9c0-2.3-4.3-7.5-4.6-9.7s.6-1.8,1.4-1.4,5.3,9,5.4,10.1c.5,3.2-2.3,5.8-5.3,4.6s-4.5-6.6-5.3-8.9Z"/>
  <path class="st60" d="M201.4,354.2c5.5-1.2,5.5,7.8,4.6,11.3s-2.8,4.2-5.4,2.9c-3.6-1.8-3.2-13.4.7-14.2Z"/>
  <path class="st159" d="M221.4,353.4c1-.5,7.2-1.5,7.7-1.1.9,2.6,1.7,5.3,2.7,7.8s.5,1.7,1,1.8v-10.3c0-.1,2.2-.7,2.2.2v13.3c0,.8-2.6,1.3-3.3.9s-4-10.2-4.5-11.8l-1.5,1.8c0-.1-.5-.3-.4-.9s1.5-1.7.2-2-3.3.3-4.2.3Z"/>
  <path class="st46" d="M107.1,339.7c0,.1,2.7,1.4,2.9,1.6.5.9-.4,2.3-1.5,2.1s-4.7-2.5-4.7-3.1c0-1.6,6.4-9.5,7.4-11.5,1.6-1,7.9,3.9,3.9,4.3-1.8.2-3-3.5-4.5.9.8,1.3,3.3,1.1,2.3,3.1s-2.7-.9-3.6-.7-2.4,2.8-2.1,3.2Z"/>
  <path class="st60" d="M260.5,344.2c.3.2.5,1.4.3,1.8-.5,1-2.7.7-2.8,2s.3,1.6.8,1.9c1.5.9,3.2-1.9,3.8.6s-2.3,1.3-2.7,2.4.6,2.9.7,3.1c.8.7,4.7-2.6,4.8,1.3,0,.3-4.9,2.1-5.4,2.1s-.7-.2-.8-.6l-4.2-12.8c1-.5,4.6-2.2,5.5-1.7Z"/>
  <path class="st46" d="M137.6,341.6c.3.4-.2,1.6-.4,2.1-1.4.4-3.4-1.7-4.3,0-1.9,3.2,3.8,2,1.8,4.8s-3.4-2.8-4.6,1.3,2.3,1.8,2.9,3.2-.5,1.8-.6,1.8c-.8.5-4.8-1.6-5.7-2.2-.5-.8,4.9-11.3,5.8-12.9.4-.2,4.9,1.6,5.1,1.8Z"/>
  <path class="st60" d="M242.8,357.4c-.8.9-3.9-.8-2.7,3.3s2.4.3,4.2.4c.1.6.7,2.2.4,2.5s-5,1.1-5.8,1.1l-3-14c1.6,0,5.9-2.5,5.9.2,0,2.1-3.3.9-3.3,2.5.1,3.8,3,1.2,4,1.9s.5,1.8.3,2Z"/>
  <path class="st60" d="M177.8,352.7c.2.4.1,1.7-.3,2-1,.7-3-.7-3.5.1s-.5,2-.4,2.2c.6,1.4,4,0,3.1,2.7s-3-.2-3.6.3-1.1,3.2,0,3.8c1.9.9,3.4-.4,2.9,2.9l-6.3-.8,2.2-14c.3-.3,5.6.4,5.9.8Z"/>
  <path class="st27" d="M120.6,349.3c-.7.4-2.2-.3-2.1-1.2l6-11.3c1.1-1,4.6.7,5.1,1.9s.3,3.7-.7,5.1c-2.1,2.9-5.1.7-6.1,1.3s-1.8,3.9-2.3,4.2Z"/>
  <path class="st154" d="M122.1,336.3c-1.3,1.3-2.5-1.5-3.9-.6s.7,3.7.9,4.7c.4,2.2-.5,4.5-2.4,5.7-3.6,2.3-7.9-3.1-4.9-3.8s1.8,2.2,3.5,1.8c2.6-.7-.5-4.8-.5-6.4s1-3.1,1.8-3.7c3.2-2.6,6.8.9,5.4,2.3Z"/>
  <path class="st60" d="M192.7,362.7c-1.1.7.9,7.6-2.6,5.2l.8-13.8c4.4-.5,7.5.5,6.5,5.6s-3.3,2.2-4.6,3Z"/>
  <path class="st168" d="M293,326.8c.8-.5,2.5-1.9,3.3-1.3s.8,1.4.8,1.8-3.6.6-1.9,2.7,5.3-.5,7.7,3.3,1,1.8.7,3.2-1.5,1.9-2.5,2.9c-2.9,2.6-5.8-2.4-1.3-3.1,2.4-1.4-2.7-2.5-3.9-2.1-3.5-.4-5.1-5-3-7.3Z"/>
  <path class="st60" d="M185.3,356.1c-1.9,1.2,2.2,3.8,2.7,4.8,1.2,2.1.8,5.8-1.5,6.9s-4.9.4-4.9-1.6c0-3,5.3,1.4,4.6-2.5s-4.5-2.4-3.4-7.4,5.5-3.7,5.8-1.6-2.2.7-3.3,1.3Z"/>
  <path class="st165" d="M170.4,351.3c.5.5,0,2.3-.3,2.5s-1.8-.8-3.1,0-2.6,6.5-1.8,8.1,3.8.5,3.4,2.3-2.7,1.1-3.7.9c-4.6-1.1-2.6-14.4,3.6-14.3s1.5.1,1.9.5Z"/>
  <path class="st169" d="M273.1,342c-.6-.5-.5-1-1.1-1.5,0,.5.1,1-.2,1.5s-1.7.6-1.7.9c0,1.7,5.1,9.9,4.4,10.9s-1.8.5-2.2.3c-.5-.3-3.8-10.1-4.6-10.2-1.3-.2-2.4,1.8-3.2-1.8,2.4-.5,5.2-3.5,7.4-1.7,0-.6-.2-.9.4-1.5.2,1,.4,2,.7,3Z"/>
  <path class="st35" d="M290.8,329c1-.5,1.6.4,1.7,2.6,1.6,3.1,3.6,5.8,6.1,8,1.1.4.8,1.1-.8,2.3-4.8,2.2-2.5.4-3.7-2.4s-3.9-6.1-4.3-6.4c-.7-.7-1.7-.6-1.9-.8-1.6-1.7,2-2.8,2.9-3.2Z"/>
  <path class="st137" d="M293,326.8c-.9,2.6-.2,6,2.9,6.6,1.6.3,5.2-.4,5.3,2.1s-3,1.3-3,2.5c0,2,1.6,1.7,3,1.3-1.4,1.3-1.7,1.8-3.3,2.6,1.8-2.6.4-1.9-.8-2.7s-4.8-6.5-5.2-7.4.4-2.2-1-2.8c2.1-1.2.8-1.2,1.3-1.9s.8-.3.9-.4Z"/>
  <path class="st61" d="M217.3,79.5c.2.2,0,3.7-.4,4-.8.5-3.7-.3-4.7-.3l.7-4.4c.7.3,4.2.6,4.4.8Z"/>
  <path class="st95" d="M161.6,91.4c.6,0,1.3-.3,1.8.3s.9,2.9.9,3.1c-.2,1-3.3,1.2-4.2,1.6-1.5-2.7-2.2-4.6,1.6-5Z"/>
  <path class="st104" d="M223.6,80.6c-.3,2.6.3,4.3-2.7,4s-2.5-1.8-1.7-4.6l4.4.6Z"/>
  <path class="st121" d="M346.8,130.7c-.2.3-3.1,1.7-3.6,1.4s-2-3.1-1.9-3.7,2.8-1.8,3.5-1.7,2.4,3.4,2.1,4Z"/>
  <path class="st41" d="M77.9,162.6c.3.3-.5,3.5-1.1,3.9s-3.8-.3-4-.6.5-3.8.7-4c.9-.6,3.3.7,4.4.7Z"/>
  <path class="st134" d="M343.9,133.8c1.8-.5,3.3-2.6,4.7-.5s1.7,2.4.1,3.4c-3.5,2.1-3.5-.2-4.9-2.9Z"/>
  <path class="st121" d="M270.9,116.4c-.4-.7,1.8-3.5,2.4-3.6s3.3,1.8,3.4,2.3c-.4.6-1.8,3-2.4,3.1s-3.3-1.7-3.4-1.8Z"/>
  <path class="st106" d="M71.3,171c-.4-.7.6-3.1.7-4,.2-.1,4.1.8,4.3,1.1.4.5-.4,3.2-.9,3.5s-3.8-.2-4-.6Z"/>
  <path class="st41" d="M158.3,96.8c-1.1,0-3.1,1.3-4.1.6s-1.1-3.2-.9-3.5c.4-.7,3.1-1.4,3.9-.9s1.4,3.6,1.1,3.9Z"/>
  <path class="st121" d="M91.5,74.7c1.3-.3,2.4,2.2,3,3.1-.5.4-3.3,2.4-3.5,2.4s-2.4-3.2-2.4-3.5,2.6-1.9,2.8-2Z"/>
  <path class="st121" d="M268.9,109.8c.7-.2,3,1.2,3.1,2s-1.8,3.1-2.4,3.2-3-1.7-3.1-2.1,2-2.9,2.5-3Z"/>
  <path class="st99" d="M85.7,83.5l-2.2-3.1c2.6-2.9,4.1-3,5.8.7l-3.7,2.4Z"/>
  <path class="st186" d="M296.9,118.3c.4,0,2.2,2.3,2.8,2.7-2.5,2.7-3.7,3.9-5.9,0,.5-.6,2.4-2.8,3.1-2.7Z"/>
  <path class="st121" d="M54.8,106.9c.6,0,3,1.7,3.1,2.3s-2,3-2.3,3-2.8-1.9-3.1-2.4c0-.5,1.9-2.9,2.4-3Z"/>
  <path class="st77" d="M189.6,50.3c-.3.4-3.1.6-3.7.3s-.7-3.6,0-4.1,3.2-.3,3.5.2.3,3.4.1,3.7Z"/>
  <path class="st148" d="M282.7,323.9c-.8.5-1.5.9-2.6,1.5-.7.3-.9.4-.7-.4,1-.6,2-1.2,3-1.8l.4.7Z"/>
  <path class="st45" d="M128.1,327.6c0,.2-.3.2-.7,0-1.4-.4-1.9-1-3-1.5l.7-.4c.4.2,1.3.4,2,.8s.7.8,1,1Z"/>
  <path class="st108" d="M280.1,325.4c-.5.3-1.2,1.6-2.6,1.1.3-.9,1.2-1.1,1.8-1.5l.7.4Z"/>
  <path class="st79" d="M288.9,339.4c.4,1,0,1.1-.7.4-.4-.4-.7-1.1-1.1-1.5l.4-.7c.2.4,1,1.1,1.5,1.8Z"/>
  <path class="st131" d="M285.6,340.1l-.4.4c-.2-.3-1.6-1.3-1.1-1.8s1.4,1.4,1.5,1.5Z"/>
  <path class="st9" d="M128.1,327.6c0,0,.5,0,.7,0v.4c-.7.3-1.1-.3-1.5-.4h.7Z"/>
  <path class="st133" d="M303.3,129h-.4s-.2,0-.4-.2l.2-.2c.4-.2.4.3.5.4Z"/>
  <path class="st174" d="M250.6,129.3c7.8,3.5,15.4,8.5,21.9,14s11.2,10.3,15.3,16.1c-1.3,7.7-3.4,15.2-4.6,22.9-5.7,34.9-3.6,70.7,5.8,104.7,0,1.3-3.6,5.3-4.6,6.5-7,8.2-18.8,18-28.4,22.9-1,.5-4.1,2.6-4.6,1.2-.5-4.2-1.3-8.4-1.9-12.5-8.2-58.1-7.5-117.9,1.1-175.9Z"/>
  <path class="st174" d="M146.1,316.1c-11.8-6-23.1-15.6-31.3-26-1.5-1.9-5.2-6.2-5.2-8.5,8.5-33.4,9.3-67.9,3.2-101.8s-3.1-12.1-2.8-14.4,3.8-5.9,5.1-7.5c8.2-10.1,18.9-19.3,30.4-25.3.6.1,1.5,5.8,1.6,6.9,1.2,7.4,1.9,15,2.6,22.5,5.1,51.3,3.8,103.2-3.7,154.1Z"/>
  <path class="st174" d="M217,180.6c-3.9-.7-7.7-2-11.7-2.5-8.7-1.1-17.4,0-25.6,2.9l-2.6-60.7c13.7-2.9,28.1-3.7,41.9-.9l-2.1,61.3Z"/>
  <path class="st22" d="M208.5,186.5c.3.4.8.8,1,1.5,3.4-.6,5.9-1.2,9.1.4s2.6,6.4,4.2,7.4,3.9-1.1,4.2-.8c.7,5-2.6,8.4-7.4,8.9l-.8-.2-1.6-4.3c-1.1-.4-1.9-.9-2.4-1.5-1.9-.6-4.1-.9-5.6,0l-2.9-.8c-2.4,3-6.2,5.2-9.8,6.6-4.2-2.1-9.5,2.5-9.7,6.8.3,1.8-.2,10.3-2.3,10.5s-.5,0-.7-.5c-.8,0-1.4-.8-1.9-2-1.2-.7-1.8-1.5-1.8-2.4-.7.7-2.2,0-1.8-1.1-.4.1-1,0-1.4-.2-2.1-2.3-4.1-2.1-5.1.9l-.9.4c.1,2.8.6,5.9,3,7.9v.6c.4.7-.2.7-.8.4-3-1.2-3.7-2.2-4.3-5.4s0-2.6-.2-3-4.5-1.5-5-4,3.7-6.4,6.2-7.7,4.6-1.5,4.8-1.7c1.1-1.4-2.9-2.4-2-4.4s3-3.1,3.5-3.5c1.2-.9,3.4-1.6,4-2.1.9,0,1.7.7,2.2,2.3.6,1,1.6,1.2,2.6,1.4,6,1.2,24-.3,22.9-9.6l.7-.8Z"/>
  <path class="st188" d="M214.8,198c1,.2,2.2.1,3,1s1.7,4.1,1.8,4.9c1.7,12.6-7.7,22.9-19.9,24,0,.3-.1.6-.3.8-.3.3-8,.1-9.3,0l-.3-.8c-3.6-.5-7.5-1.8-11.4-2.2v-.9c1.8-.9,1-4.7.7-6.4,0-.9,0-2.6,1.2-2.3,2.2,1.7,2.5,1.6,3.7,4.4.8,1.5,2.1-1.1,2.5-2.9.5-3.6,2.2-11.4,6.6-12.1s2.1,0,1.6,1.3c.3,0,.3.2,0,.4v.4l-.4,1.1c.5,1.3.8,3.5.7,5.2,1.1,1.6,2.6,2.6,4.4,3v-.5c1.3-.5,2.1-1.6,2.6-3.2,0-1.5,0-2.9,0-4.4-.7-.3-.8-1.5-.7-2.2-.6.2-.9-.4-.4-.7l-.4-.4c-.7-.5-1-.7-.3-1.4,2.5-1.1,4.7-2.7,6.9-4.3,1.1-.7,2.2-.7,3.3,0,.4-.2.3-.5-.4-1.1-.8.7-1.3-.6-.9-1s4.7-.1,5.6.3Z"/>
  <path class="st174" d="M208.5,186.5c.8,9-8.4,10.5-15.3,11.1s-7.6.5-9.4-.2c-2.6-.9-2.1-2.4-3.7-4.2.4-.3,1.4-4.1,2-5.2,3.2-6,14.8-10,21-7.7s3.7,3.5,5.4,6.2Z"/>
  <path class="st11" d="M180.1,239c.3-.1.6,0,.9.2.9,12.9.9,26.8-1.6,39.6l-.7.4c-.1.3-.2.3-.4,0-.8.6-3.4-4.3-3.4-4.8s.2-.6.5-.8c-.7-3.3,0-6.6,1.9-9.9-.5-4,.1-7.6,1.8-10.7-.3-.1-.3-.2,0-.4l-.4-.4c-.3.6-1.2,1.8-1.8,1.5-1,.7-1.6-.9-1.8-1.8-.3-.1-.3-.2,0-.4-1.2-1.4-1.1-4.4,0-5.9l-.2-.8c-.9-.2-.7-1.1-.2-1.8,1.4-1.4,2.9-3,4.4-4.4.9-.6,1.3-.5,1.1.4Z"/>
  <path class="st139" d="M191.9,236.8l1,.5c.1.6,3.1,8.6,3.2,8.2.4-5,1.5-9.7,3.2-14.2,0-1,.2-1.4.7-1.1,1,0,2.2.9,3,1.1.1.3.2.6.3.9.2,1-3.6,13.6-4.4,15.6s-.6.9-1,1.3c-.4,4-.4,8.1,0,12-.6,1.8-.5,4,.2,5.9l.6,12.2-.7.9c.9,1.3.9,4.2.7,5.8l-.7.5-1.5.4c-.7,0-.9-.7-.4-2.2-.4-.7-.6-1.5-.7-2.3l.2-18.9c.2-8-.2-15.6-4.7-22.3l-.7-2.2c-.2,0-.3-.2-.4-.7-.6,0-3-4.4-3-4.6-.2-.3.1-.6.4-.9-.5.2-.5,0,0-.7.4-.3,1.6-1.2,1.8-1.5,1.7,1.3,2.8,4.4,3,6.6Z"/>
  <path class="st98" d="M202.6,292.9c0-.2.2-.3.4-.4.2-.1,3.3,2.4,3.3,3,1.2.5,1.4,1,.7,1.5.4.9,1.5,1.3,3.2,1.3l1.7,1.3c1.5-.5,2.9-.3,4.4.4.9-.5,1.6-.7,2.1-.4l.8-.5c0-1.2.5-1.5,1.4-.9.7.3.8.4,1.5.7,1.3.6.6,2.3,0,3.2-1.5,2.2-4.5,3-7,2.3.5.9.2,1-1.1.4-.4-.2-4.6-1.1-5-1.1-.9,0-1.9.9-2.5.7s-.9-2.2-1.5-2.2-.9,1.6-2,.9-.8-1.9-1.3-2.1-1.3,1.7-2.4.9c-.9-2.4-3.2-4-.9-6.5s3.3-2.5,3.5-2.6c0-1,.5-1,.7,0Z"/>
  <path class="st98" d="M217.8,332.7c-.7-.4-.8-2.6.7-3.1,2.5-.9,4.3-.7,4.8-4.2-4.3,2.1-7.6-.5-7.6-5,0-5.5,7-8.4,10.1-3.6s1.8,12-2.2,14.7-4.8,1.9-5.8,1.3Z"/>
  <path class="st98" d="M191.2,332.7c.1-.6-.2-2.6,0-2.9s6.2-.8,5.5-4.1c-8.3,3.5-9.8-10.3-2.8-11.1,3.5-.4,5.3.7,6.3,4.1,1.9,6.7-.8,15.2-9,14Z"/>
  <path class="st98" d="M193.4,294c2.4,0,2,5.4.7,6.1s-1.4.1-1.4.2c-.2.2.2,1.3-.2,1.9s-1.3.2-1.7.5-.2,1.5-.7,1.9-1-.1-1.5,0-2,1.5-2.6,2c-.9.5-1.4.5-1.5,0-2,1.5-6.5,1.6-8.5.2s-2.5-2.2-1.5-3.2c2-1.7,3.9-3.6,6.3-4.8.7.6.7,1.6-.1,3,2.3,0,4.1,0,5-2.4,1.4-.5,2.4-1.4,3-2.5h1c0-.9.4-.8.7,0,.3,0,.4-.3.4-.7-.7-.2-.7-.5,0-.7.3-.5.9-1.2,1.5-1.1,0-1,.5-1.3,1.1-.4Z"/>
  <path class="st26" d="M205.5,231.6c1.4.4,1.6.8.7,1.1l.7.5c-.8,4.3-1.4,8.6-1.9,12.9l-.7.9v.6c-2.6,2.3-5.4,5.9-5.3,9.6l-.6.6c-.3,1-.6,1.7-1.1.5l.4-9.4c1.2-5.8,3.7-11.9,5.2-17.7.6.2,1.7.2,2.6.4Z"/>
  <path class="st42" d="M180.8,320.4c-.4-1.3-2.8.7-3.6.1s-.9-2-.6-2.5c.4-.8,6.7-3.8,7.5-3.3s.4.8.4.9v14.2c0,.2,3.3-.8,3.3,1.6s-.3,1.2-.4,1.3c-.4.3-8.5.2-9.4,0s-1.3-1.9-.9-2.5,3.6-.1,3.6-1c-.4-2.3.6-6.8,0-8.9Z"/>
  <path class="st113" d="M207,319.8c-1-.2-2.3.9-3.1.7s-1.5-2.7-1.3-2.9,5.7-2.8,6.2-2.9c.8-.2,1.9-.2,1.9.8v14.2c0,.2,2.6-.3,3,.2.6.8.4,2.3-.7,2.7s-8.6.2-9,0c-.5-.4-.5-2.2,0-2.6s3,0,3-.2v-10Z"/>
  <path class="st197" d="M213.3,233.4c2,.7,3.9,1.5,5.9,2.2.6.4.7.6,0,.7l.5.8c-.7,1.8-1.1,3.7-1.3,5.6l-.7.6c-1.6.3-3.2.6-4.8.7-1.1.4-2,.4-2.6,0l-.5-1c.4-2.6.6-5.2.8-7.8l.8-.8c-.5-1.3,0-1.7,1.8-1.1Z"/>
  <path class="st135" d="M199.6,227.9c-.3.7.4,1.9.4,2.2s-.7.8-.7,1.1c-.5.2-.8,0-1-.6-1,2-2.7,3.3-5.1,4-.3,1.1-.7,1.8-1.3,2.1-.9-2.2-2.4-4.3-3-6.6.3-.4.5-1.7.7-2.2,2.2.3,7.7.2,10,0Z"/>
  <path class="st172" d="M184.5,306.5c-.4,2.6-3.7,3.6-6.1,4.1-1.3-.2-2.3.1-3.5.7-4.1-.3-4.7-3.3-2.4-6.3s1.4-1,2-1.5c1.7,4.6,6.3,3.3,10,3Z"/>
  <path class="st109" d="M211.8,294.7c.2,0,.8.2,1.1.4l.4.5c1.4.2,2.4.7,2.9,1.4,2,0,5,1.2,2.2,2.6-.7.4-.9,1.1-2,1.1s-1.5-.7-2.2-.8-1.7.5-2.5.3-1-1-1.7-1.3-3.6-.4-3.7-.5l.7-1.5c.1-.9,1.4-.9,1.5,0,.8-.4.8-1.1,0-1.5-.2,1.4-1.5,1-2.2,0-1.5-.8,1.8-1.8,2.6-1.1-.2-.8.2-1.5,1.1-1.5.9-.2,1.5.4,1.8,1.8Z"/>
  <path class="st150" d="M203,275.9c-.4,3.7-1.1,7.3-1.9,10.9l-.6.6c-.1.3-.2.3-.4,0-.5.3-1.1,0-1.8-.7,0-.1-.4-.3-.4-.4-.3-1.6,0-4.4,0-6.3l.8-.4,1.7-8c.4-.8.8-1.2,1.5-.5.7-.3,1,.3,1.2.9s.7,3.6,0,3.9Z"/>
  <path class="st101" d="M224.7,305.4c-2.1,1.1-4,1.3-5.8.5-1.3.8-3.5-.2-3.8-1.6,1.2-.4,2-.3,3.3-.6,2.3-.6,4.1-2.5,3.8-4.9.5.3,1.2.3,2.2,1,2.5,1.8,3.4,4,.4,5.7Z"/>
  <path class="st63" d="M175.3,273.7c.5,1.4,2.9,5.2,3,5.5.8,1.4,1.3,4.8-.4,5.5,1,.7.2,1.5-.7.7-.7-.6-3.4-3.4-3.7-4.1-.4-.3-.9-.8-.4-1.1-.6-2.4,0-6.2,1.5-8.1.4.2.6.7.7,1.5Z"/>
  <path class="st15" d="M185.6,295.1c.7,0,.7.5,0,.7,1.1.1,1.3.8.4,1.5q-.7.9,0,0c0-1,1.1-.8,1.8-.7.4-.8,2.1-.8,1.8.4-.9.2-.8,1.3-1.2,1.8s-1.6.5-2.3,1.2-.7,1.6-1.2,1.8c-.7.4-5,1.5-5.3.1.8-.8.8-2.5,1.1-3.1s.6-.5.7-.7c1.3-.6,2.3-1.6,3-3-.3-.1-.3-.2,0-.4.2-.7,1.2-.3,1.1.4Z"/>
  <path class="st161" d="M180.1,216.1c-1.1,2.2.3,6.7-.4,8.6s-1,.6-1.4,1c-.7,0-1.5,0-2.2,0-.7-.3-1.4-.5-2.1-.6v-.5c-3-1.7-3.7-5.5-3-8.5h.6c.5-.9,1.3-1.2,2-.4l.2.8c-2.8,2.6.9,8.6,4.2,7.3l-.2-.8c1.6-2.1-.3-4.7-1.7-6.3v-1c.7-.1,1.5-.3,2.3-.4-.3-.1-.3-.2,0-.4.6.4,1,.4,1.8,1.1Z"/>
  <path class="st70" d="M200.4,287.3c.9-.8,1.7-.4,1.8.7.9-.8,1.8,0,1.8,1.1.7-.8.8-.5,1.1.4.2-.9,2.4-1.6,3-.7.1-.2.2-.2.4,0,0,.5,0,1,0,1.5-.9,1.9-4,1.6-5.9,1.1-.1.2-.2.3-.4.3s-2.3-2.7-2.6-3.3c-.6-1-.9-1.5.4-1.1.1,0,.3,0,.4,0Z"/>
  <path class="st88" d="M186,306.5c-.6.5-1.4,1-1.8,1.7s-1.1,2.4-1.5,2.6-1.2-.3-1.6-.2-.2,1.1-1.2,1.2-2-.8-3.5-.8l-.4.4c-.4,0-.7,0-1.1,0,.2-.7.9-.8,1.5-.9,2.8-.8,6.3-1.2,8.1-3.9.5,0,1,0,1.5,0Z"/>
  <path class="st107" d="M232.5,265.9c-2.7,2.9-3.9,6.2-8.1,8.5,0,.8-.3.6-.7,0-.1.3-.2.3-.4,0l-.7.4c-.2,1.2-2.1,1.4-2.6.4-.3-.1-.3-.2,0-.4.2-1,2.3-1.4,3.3-1.5,2.5-1.4,4.6-3.3,6.5-5.6h.5c-.6-.7-.5-1,.4-1.1-.4-.9.7-1.9,1.5-1.1.5-.5.7-.3.4.4Z"/>
  <path class="st163" d="M224.7,305.4c-1,.6-2.5,1.6-3.3,2-1.8.9-1.5-1-2.4-1.3s-.5,1.6-2.2,1.1-1.6-2.1-2.8-2.5c.5.2.9-.3,1.1-.4,3,2,6.2,1.3,9.6,1.1Z"/>
  <path class="st76" d="M224.4,274.4c.4,1,1.7,2.7.9,3.7s-5.4,1.6-6.6,2.2-4.1,2.6-5.4,3.6h-.4l-.2-.8c.6-.9,4-3.7,5-3.2,0-.6,0-.9.3-.9l5.7-1.8c-.5-1.2-.5-2.1,0-2.8.2,0,.6,0,.7,0Z"/>
  <path class="st123" d="M173.1,266.7c1,1.4,0,4.6-.5,6.3-.5,2.3-1.3,3.3-2.5,3,.6,1.5,1.5,2.8,2.6,4.1.3,0,.4,0,.4.4.3.3.2.8.4,1.1-1.1-.2-4.2-3.9-4.3-4.6-.1-1.1,3.3-4.6,2.8-7s-.7-.2-.8-.2c-.3,0-.3-.2,0-.4,0-.6.1-1,.4-1.1-.6-.7,0-1.2.7-1.5,0-.5.4-.4.7,0Z"/>
  <path class="st93" d="M181.9,284.4c.9-.5,2.2.5,2.2,1.5.9.4.9.7,0,1.1.7.9.6,2.7-.4,3.3-.8-.4-.9-.7-1.5-1.1.1-.7-.5-1.5-2-2.5l.2-.5c-1.6-1.3.3-3.5,1.5-1.8Z"/>
  <path class="st2" d="M227.7,241.2c2.7,2.2,5.5,8.9,6.6,12.2v.4l-1.2-.5c-1.6-3.4-3.4-6.6-5.4-9.7v-1.2c-1.1,0-1.5-.5-1.2-1.1-.5-.6-.3-.7.4-.4.5-.6.6-.3.7.4Z"/>
  <path class="st1" d="M184.2,287c1.8-.8,6.2,4.5,2.2,4.4,0,.3-.2.3-.4,0-1.1-.3-1.3-.6-2.2-1.1-.3-1.2.3-2.4.4-3.3Z"/>
  <path class="st39" d="M208.5,290.3c0,.4.4.6.4,1.5.9.4.5,1.5-.4,1.8-.7,1-5-.6-5.2-1.8-.6.8-1,.6-.7-.4,2,.1,4-.6,5.9-1.1Z"/>
  <path class="st117" d="M174.9,251.5c0,.1,0,.2,0,.4.6.9.6,1.3,0,1.5-1,.3-2.1-.2-3.3-1.3-1.1-1-1.9-.2-2.5,2.3h-.9c-.1.3-.2.3-.4.1.5-1.2,1-2.8,1.5-4.1.2-.7.6-1,1.1-1.1,1-.9,4.1.9,4.4,2.2Z"/>
  <path class="st182" d="M163.1,264.1l.6.6c-.4,1-.1,1.6.8,2,0,2.1.7,3.7,1.9,4.9.4.4-.2.6-.7.4-4.6-.8-4.1-4.1-3-7.8.1-.3.2-.3.4,0Z"/>
  <path class="st3" d="M188.6,291.4c.7.1.6.4,0,.7.4.2.7.5.7.7,1.4-.2,1.1.9,0,.7,0,.7,0,1.1-.4,1.1-.6,1.5-3.1.7-3-1.1,0-.8.5-1.5,0-2.2.1,0,.2,0,.4,0,1-.6,1.8-.6,2.2,0Z"/>
  <path class="st59" d="M174.9,245.6c-1.7.2-2.9,1.4-3.6,3.6h-.9c-.3.7-.3,1.3-1.1,1.2.1-.4,0-1.2.2-1.9.6-1.9,3.6-4.1,5-5.5.5.8.4,1.7.4,2.6Z"/>
  <path class="st14" d="M193.7,292.9c0,.4-.2.8-.4,1.1,0,0-1,.3-1.1.4-.7.5-.9.3-.4-.4-.7-.6,0-.4,0-.3-1,.7-3.4,2.1-2.6,0,0,0,.7-.2,0-.7.7-.8,3.5-3.2,4.4-1.8.3.4.3,1.1,0,1.8Z"/>
  <path class="st33" d="M227.7,241.2c-.2-.2-.5-.2-.7-.4-.4-.6-.9-1.1-1.5-1.4l-6-2.2-.2-.8c0-.2,0-.5,0-.7,1.5.6,7.8,2.2,8.3,3.3s.2,1.5.2,2.2Z"/>
  <path class="st145" d="M186,293.6c1.1.7,1.6,2.1,3,1.1.8-.3,1-.1.7.7.2,1.1-1.7.8-2.2.4-.6.7-1.3.7-1.8,0,0-.2,0-.5,0-.7-.2-.7-.5-.8-1.1-.4,0,.1,0,.3,0,.4-.1.3-.2.3-.4,0-1.7-2.1-.2-2.7,1.8-1.5Z"/>
  <path class="st184" d="M234,264.8c-.5-.5-.3-.6.4-.7l-.4-.9c.9-2.8.8-5.7-.2-8.8l.7-.7v-.4c1,3.1,2.9,7,1.1,10.1s-1,.9-1.4,1.3Z"/>
  <path class="st25" d="M187.1,232.3c-.4.9-1.5,3.1-2.6,2.6-.2,1.1-1.1,2.1-2.7,2.9-.5.8-1.1,1.2-1.8,1.2-.1-.2-.8-.3-1.1-.4,2.7-2.5,5.4-4.6,8.1-7,0,.2,0,.5,0,.7Z"/>
  <path class="st195" d="M211.8,294.7c-.2,0-.5,0-.7-.2s-1.1-1.6-1.1-1.7c-.9,0-.9-.5,0-.7.2-.7,1.7-2.1,2.4-1.1s-.6,2.5-.6,3.7Z"/>
  <path class="st119" d="M180.5,286.2c.7.6,3.8,3.3,1.8,3-.1-.1-.5-.2-.7-.4,0-.4-.4-.8-1.1-1.1-.5-.6-1-.8-1.5-.7-.4-.3-1.4-1.1-1.8-1.5.3-.1.7-.4.7-.7,1.1-.9,2.4.2,2.6,1.5Z"/>
  <path class="st5" d="M213.3,233.4c-1-.2-1.7,0-1.8,1.1-1.3-.9-2.9-1.5-4.4-1.3l-.7-.5c0-.7-.1-.8-.7-1.1,3.1.6,4.6.8,7.7,1.8Z"/>
  <path class="st49" d="M196.3,286.6c0,.2-1.1,1.6-1.3,2.2-.5,1.4-.6,2.8-1.3,4.1,0-.6,0-1.3,0-1.8-.8-.9-.4-2.2,1.1-3.7-1-.7-.1-3.2,1.1-3,0,.9.4,2,.4,2.2Z"/>
  <path class="st162" d="M212.9,284h.4c-1.4,1.2-3.2,3.9-4.8,4.8s-.3,0-.4,0c-.7-1.4,2.2-4.9,3.7-4.4,0-1.1.5-1.3,1.1-.4Z"/>
  <path class="st164" d="M217.4,296.6c1.4.5,2,.9,3.3,1.5-1.1-.3-.6.9-1.1,1.3s-1,0-1.1.2l.7-1.3c-.3-.5-2.2-1-2.9-1.3-.2-.4.1-.6,1.1-.4Z"/>
  <path class="st157" d="M202.6,291.4c.2.1.4.4.7.4,1,.5.2,1.5-.7,1.1,0,0-.7,0-.7,0,0-1.7-1.9-2.8-2.2-4.4.6.7,2.3,2.6,3,3Z"/>
  <path class="st202" d="M165,260c.9-1.9,2.1-3.7,3-5.5h.4l.4.8c-.3,1.1-2.5,5-3.7,4.7Z"/>
  <path class="st91" d="M181.6,298c.8-1.1,1.8-1.8,2.6-3h.4c-.4,1.8-.7,2.9-3,3Z"/>
  <path class="st30" d="M210,292.1c0,.1,0,.7,0,.7-.2.7-.5,1.1-1.1,1.5-1,.3-1.1,0-.4-.7,0-1,.4-1.7.4-1.8l1.1.4Z"/>
  <path class="st177" d="M163.1,264.1h-.4c.7-2.4.9-2.2,2.2-4.1.7,1.1-.7,3.8-1.8,4.1Z"/>
  <path class="st80" d="M217.4,296.6l-1.1.4c-.3-.1-.6-.5-1-.6-.9-.4-2.6-.1-2.3-1.2,1.5.5,3,.9,4.4,1.5Z"/>
  <path class="st67" d="M234.3,264.1c-.1.2-.2.5-.4.7-.6.6-1.4,1-1.5,1.1l-.4-.4c-1.2-1.1,1.5-3.3,2.2-1.5Z"/>
  <path class="st115" d="M176,225.7c-.6,0-1.3,0-2,0s-.8-.6-1-.7l.7-.4c.4.2,1.9,0,2.2,1.1Z"/>
  <path class="st118" d="M171.2,269.2c0,.1,0,.3,0,.4-.9.4-1.7,1-2.6,1.5-1-.3-.7-1.3.4-1.1-.6-.5-.3-.8.4-.4,0-1,1.1-1.2,1.8-.7v.4Z"/>
  <path class="st72" d="M200,287.3c-.4.1-.4.8-.4,1.1-.6-.7-1-.7-1.5-1.8.9-.3,1.4.5,1.8.7Z"/>
  <path class="st43" d="M168.7,271.1c-.6.3-1.5,1-2.1,1.1s-.7-.3-.8-.3c.4,0,.5-.2.7-.4-.5-.5-.3-.7.4-.4-.2-1,0-1.1.7-.4.4-.8,1-.3,1.1.4Z"/>
  <path class="st58" d="M180.5,287.7c-.6-.3-.8-.3-1.5-.7.5-1,1.1.4,1.5.7Z"/>
  <path class="st120" d="M181.6,288.8c-.5-.4-.7-.7-1.1-1.1.5.2,1.1.2,1.5.9l-.4.2Z"/>
  <path class="st172" d="M176,311.3l.4-.4s-.1.4-.4.4Z"/>
  <path class="st92" d="M196,59.5v4.1s-13.3.4-13.3.4c1-5.8,9-4,13.3-4.4Z"/>
  <path class="st166" d="M81.9,100.2c.9-.1,4,.5,3.8,1.6s-4.3,3.6-5,4.6c-2.5-1.8-1.9-5.8,1.2-6.2Z"/>
  <path class="st86" d="M288.9,339.4c.4.6,1.4,1,1.1,2.2-.8-.3-1.3-1.2-1.8-1.8l.7-.4Z"/>
  <path class="st173" d="M139.1,349c-.1-.1,1-3.2,1.1-3.3.9-.6,3.5,1.2,1.4,3.1s-2.3.4-2.6.2Z"/>
  <path class="st100" d="M251.7,358.9c-.2-2.4-2.4-6.2-2.5-8.5s1.2-.9,1.8-.7c1.9.6,5.7,10.2.6,9.1Z"/>
  <path class="st138" d="M210,360c-.3-.2-.6-3.1-.4-3.3,4.7-1,2.1,4.5.4,3.3Z"/>
  <path class="st51" d="M149.5,354.9l-2.2-.6c-.1-.9,1.7-4,2.6-4.6l-.4,5.2Z"/>
  <path class="st170" d="M201.7,356.4c2.9-1,2.6,6.6,2.3,8.3-.4,2.4-2.9,2.2-3.3.4s-.5-8.2,1-8.6Z"/>
  <path class="st32" d="M125.5,339.4c2.1-1.3,3.3,3.4.5,3.7-2.6.2-1-3.4-.5-3.7Z"/>
  <path class="st29" d="M194.8,360c-.4.4-1.8.4-2.1,0s-.1-3,0-3.2c.9-1.5,4,1.2,2.1,3.2Z"/>
  <path class="st97" d="M214.8,198c-.7-.1-3.7-.5-4.2-.4-1.5.2-.6,1-.6,1.1.7.8-.6.6-.5.5.1-.3,1.4-.1.9.6-2.7-.4-4.2,1.6-6.2,2.9s-3.6,1.8-3.8,2,0,.5,0,.7c-.4.7-1.2.3-1.5-.4-.1.3-.2.3-.4,0-1.5-.7-2.9.6-3.6,1.9h-.4c-1.1-1.9-4.1,1-4.8,2-1.9,2.6-2.8,11.4-5,12.3s-.7-.3-.9-.7c.7.6.8.1,1.2-.5,2-3.3.4-7.6,1.3-11.3s5.1-6.7,8.4-6.4,1.3.7,1.7.6c1.4-.2,6.6-3.5,7.9-4.6s1.7-2.1,1.8-2.2,1.9.8,2.7,1c2,.3,4.2-.3,6,.8Z"/>
  <path class="st94" d="M178.2,215v.4c-1.6,0-3,.3-4.4.8l-.4-.4c-1.7.5-1.7.8-2.2,2.6l-.4-2.2c.4-1.5,1.3-3.6,3.2-3.7s3.1,1.9,4.2,2.6Z"/>
  <path class="st193" d="M207.8,221.2c-1.4,1.9-1.4,2-3.3,3.3-1,.2-4.1.3-4.9-.1s-1-.8-.7-1.3c1-.2,2.1-.3,3.3-.4.4-.8,1.2-1.3,2.6-1.5,1-.7,1.8-.9,2.6-.7.7-.4.6,0,.4.7Z"/>
  <path class="st199" d="M204.4,224.6c-.3.2-.4.6-1.1.9-2.7,1.2-3.9.4-5.2-2-.3-1,0-1.1.7-.4,1.7,1.8,3.6,0,5.5,1.5Z"/>
  <path class="st81" d="M203,220.1c.9-.2,1.1-.1.7.4l-.6.9c-4.8.4-5.3.6-1.4.6l.5.7c-1.4.3-2.1.2-3.3.4s-.5.3-.7.4c-.5-1-.9-1.7-1.1-3-.5-.7-.3-.9.4-.4.8.3,4.2,0,5.5,0Z"/>
  <path class="st71" d="M211.8,212.8c.1-.3.2-.3.4,0-1.1,1.1-2.6,1.8-4.1.7-.2-.3-.2-.5,0-.8-.9-.9-2.5-3.4-1.1-4,.9.1,1.8.8,2.6,2,1.1.6,1.9,1.2,2.2,2Z"/>
  <path class="st65" d="M206.7,208c.7-.2.8.1.4.7-.3,2.1,1.1,3.2,2.4,4.4l-1.3.4c-2.2-1.6-2.5-5.6-2.2-8.1h.5c0,0,.3,2.6.3,2.6Z"/>
  <path class="st7" d="M207.4,215c.9,1-2.5,3.2-3.7,2.2-.7-.7,3.2-2.7,3.7-2.2Z"/>
  <path class="st96" d="M211.5,215.7c-1.1,1-2.6,4-3.7,5.5l-.4-.7c-.6-.7,0-1.2.7-1.1l.4-.4c-.3-.1-.3-.2,0-.4-.2-.3,0-.5.4-.7.6-1.1,1.1-1.8,2.2-2.6.5-.4.7-.2.4.4Z"/>
  <path class="st74" d="M211.1,202c0,.3-.2.3-.4,0-.1.9-.4,1.2-1.1.4-2,.8-2.3,2.8-2.3,4.8l-.7.7c-.4-1.1-.2-1.8-.7-2.6.3-2.9,2.3-4.7,5.2-3.3Z"/>
  <path class="st23" d="M194.9,208c1.1.3.9.6,0,1.1-.2.1-.2.3,0,.4,1.1,0,1.3,1.3.4,1.8.6,1,.6,1.6,0,1.8.3,1,.2,1.2-.4.7-.8-1.9-.9-3.1-.7-5.2l.4-1.1c0-.1,0-.3,0-.4.7-.7.6,0,.4.7Z"/>
  <path class="st136" d="M201.9,208.7c.1.6.3,1.6-.4,1.5-.2,1.1-.4,1.3-1.1.4-.7-.4-.9-.9-.7-1.5.5-.6.7-1.1.4-1.7l.7-.5c-.5-.6-.3-.8.4-.4.5.9.5,1.2.7,2.2Z"/>
  <path class="st17" d="M194.5,206.8c.4-.7,1.8-2.1,2.6-2.4s1.7-.6,1.5.6c.4.5.2.7-.4.4-1.1.6-1.9,1.3-2.4,2.3l-1,.3c0-.3,0-.6-.4-.7,0-.1,0-.3,0-.4Z"/>
  <path class="st203" d="M198.2,216.1c1,0,1.4.3,1.1.7-2.3.7-3.6-1-4.4-3,.4,0,.3-.4.4-.7,1,.2,2.4,2,3,3Z"/>
  <path class="st196" d="M201.9,213.1c-.4,1.8-.5,3.1-2.6,3.7-.3-.3-.7-.6-1.1-.7.1-.6.6-.7,1.5-.4.1-.3.2-.3.4,0l.4-.4c-.8-.7,0-2.7,1.1-2.6.2-.3.4-.2.4.4Z"/>
  <path class="st151" d="M213.7,205.7c-.1.3-.2.3-.4,0-.2.4-.5.4-.7,0l-.7-.4c0-.9-.5-1.6-1.1-2.2-.7-.3-.7-.8,0-1.1.1,0,.3,0,.4,0,1.5.2,2.3,2.4,2.6,3.7Z"/>
  <path class="st56" d="M208.5,218.7c-1.1,1.1-3.4,3.1-4.8,1.8,0-.4-.4-.4-.7-.4l5.9-2.2c-.1.2-.2.5-.4.7Z"/>
  <path class="st130" d="M210,198.7c1.5-.2,2.4.6,3.3,1.7-.7.2-2.2-.3-2.9-.6s-.6-.5-1.1-.4v-.4c.3,0,.7-.1.7-.4Z"/>
  <path class="st12" d="M201.9,213.1l-.4-.4c-1-.3-1.1-2.1,0-2.6,0-.2.7-.9.4-1.5.4,2.1.4,2.3,0,4.4Z"/>
  <path class="st105" d="M213.7,209.8c-.3,1.5-.3,1.9-1.5,3h-.4c-1-.6.3-3.8,1.5-3.7.2,0,.3.2.4.7Z"/>
  <path class="st180" d="M200.4,205.4l.4.4c.1.1.3.5.4.7-.2,0-.4.2-.4.4-.3.4-1,.6-1.8.4-1.1-.1-.5-1.6,0-2.2.5,0,1,0,1.5.4Z"/>
  <path class="st83" d="M213.7,209.8c-.4,0-.3-.4-.4-.7-.7-.2-1-.8-.7-1.8-.5-.9-.2-1.3.7-1.5h.4c.2,1.2.2,2.8,0,4.1Z"/>
  <path class="st153" d="M197.4,220.1c-.2,0-.4.2-.4.4l-1.5-.4c.8-1.8,1.6,0,1.8,0Z"/>
  <path class="st89" d="M211.1,215.3c.2-.1.6-.8,1.1-.4.9.7-.7.7-.7.7l-.4-.4Z"/>
  <path class="st17" d="M194.1,208.7c0-.8.3-.9.4-1.1l-.4,1.1Z"/>
  <path class="st66" d="M200.8,205.7c-.2,0-.3-.2-.4-.4.2,0,.3.2.4.4Z"/>
  <path class="st36" d="M184.1,192.4c-.3.2-1.5.4-1.4-.5s1-1.9,1.3-2.8,0-1.6.2-2.3c.6-2,8.6-5.8,10.3-4.9s0,.6-.2.9c-2.2,2.7-6,3.8-8.3,6.5s-1.7,3-1.9,3.1Z"/>
  <path class="st112" d="M184.2,285.9c-.7-.1-1.8-1-2.2-1.5-.7,0-2.6-2-3-2.7s-.5-1.8-.3-2.4c-.2-2.2,1.2-6.9,1.5-9.4.7-7.1.7-14.3.8-21.4-1-2.3.3-7.7-.8-9.4.6-1.8,3.2-2.9,4.4-4.1.2.2.5.4.6.6,1.2,1.5,1.8,12.6,1.9,15.3.4,11.1,0,22.1-1.8,33.1,0,.3-.2.7-.4,1s-.4.7-.6,1Z"/>
  <path class="st111" d="M175.3,273.7c-.2-.5-.4-1-.7-1.5-1.1-1.5-1.1-4.9,0-6.3-.9-.5-1-1.1,0-1.5-.8-2.2-.7-4.5.4-7,.3-1.6,2.6-4.6,4.1-4.4,0,1.6-1,3.6-1.1,5.4s.3,3.5.1,4.9c-.4,3-3.8,6.6-2.7,10.4Z"/>
  <path class="st75" d="M174.9,245.6c0,2,0,4,0,5.9l-4.4-2.2c.8-1.8,1.6-3.7,3.7-4.6s.2.7.7.9Z"/>
  <path class="st185" d="M181.9,284.4c-1.4-.2-1.6.6-1.5,1.8-.6-.5-1.8-1.2-2.6-1.5.2-1.1.6-4.6.4-5.5h.4c.2,1.7,2,3.1,3,4.2s.3.8.4.9Z"/>
  <path class="st13" d="M178.6,252.3l.4.4c0,0,0,.2,0,.4-1.7,1.1-2.7,2.9-4.1,4.4-.5-.1-.6-.7-.4-1.1-.8-.8,0-1.8,1.1-1.5-.3-1.1,0-1.5,1.1-1.1.5-.5.8-1.6,1.8-1.5Z"/>
  <path class="st176" d="M176.8,253.7c-.4.4-.8.7-1.1,1.1-.9,0-1.5-.7-.7-1.5,0-.4,0-1,0-1.5l1.8,1.8Z"/>
  <path class="st111" d="M179,252.6l-.4-.4c.4,0,.3.1.4.4Z"/>
  <path class="st174" d="M189.7,237.9l.4,2.2.8,1.1c1.2,14.9,1.5,31.7-1,46.7-.2,1.2-.7,2.3-1.2,3.4-.6.5-1.5.1-2.2,0,2.9-.8-1.3-3.5-2.2-4.4,0-.4,0-.8,0-1.1,2-13.9,3-25.1,1.8-39.3-.3-3.9-.6-7.9-1.5-11.6.6-.6,1.1-2.3,2.6-2.6.6,1.8,2.2,3.1,2.6,5.5Z"/>
  <path class="st127" d="M196,284.4c-.5.9-.8,2-1.1,3-1.2,2.2-3.7,5.3-6.3,4.8,0-.2,0-.5,0-.7,1.9-13.6,2.7-27.1,2.2-40.8-.1-3.4-.8-7.1-.8-10.5-.2-.5-.3-1,0-1.5,3.2,4,5.6,10.1,5.9,15.3.5,9.7.1,20.7,0,30.5Z"/>
  <path class="st8" d="M199.3,231.2c-1,5.1-1.8,10.3-2.6,15.5-.8.1-1-.5-1.3-1.1-1.5-2.7-2.3-6.1-3.5-8.9,0-3.9,2.3-3,4.1-4.3s1.6-2.7,2.8-3.5l.6,2.2Z"/>
  <path class="st16" d="M197.8,248.9v9.4s.7-.6.7-.6c.3,0,.3.2,0,.4.8.6,1,3.2,0,3.7-.7-.5-.4,4.9.7,3.3,1-.2,2.1,1.3,1.5,2.2.8.4,2,2.4,2.2,3.3-.1.9-.4.9-1.1.4-.5.3-.7.5-.9,1.1-.4,1.2-1.6,8.5-2,8.9l-1.1-1.1c-.4-8.1-1.5-23.5,0-31Z"/>
  <path class="st31" d="M190.1,238.6c0,.5,0,1,0,1.5-.7-.4-.3-1.5-.4-2.2.3.2.3.6.4.7Z"/>
  <path class="st78" d="M208.5,293.6c0,.2.3.5.4.7-.8.6-1.4.8-2.4.7-.2,0-.2.2-.2.4-2.8-.6-2.8-2.2-3.7-2.6l.7-1.1,5.2,1.8Z"/>
  <path class="st34" d="M208.5,295.5c.9,0,1.1,1.3,0,1.5-.7-.2-1.4,0-1.5,0s-.7-1.4-.7-1.5c.4,0,.9.3,1.3.3s.6-.2.9-.3Z"/>
  <path class="st207" d="M222.8,318.1c1.1,1.1.7,5.6-1.8,4.9s-.8-7.5,1.8-4.9Z"/>
  <path class="st142" d="M193.8,318.1c2.4-2.5,4.8,4,1.8,4.9s-3.1-3.6-1.8-4.9Z"/>
  <path class="st84" d="M190.8,295.5c0,.2,0,.5,0,.7.5.6.5.8-.4.7-.2,0-.5,0-.7,0-.5-.1-1-.7-1.8-.4-.9.4-1.1,0-.4-.7,1.1,0,1.4-.2,2.2-.4,0-.3.2-.3.4,0,.3-.2.6-.2.7,0Z"/>
  <path class="st114" d="M190.8,296.2l1.8,1.8c-.9.1-1.5-.8-2.2-1.1,0-.2.3-.5.4-.7Z"/>
  <path class="st103" d="M192.3,294.3c-.3.2-.6.8-1.5,1.1s-.5,0-.7,0c-.4-.7,1.1-2.1,1.8-1.5,0,.2.1.4.4.4Z"/>
  <path class="st175" d="M206.3,232.7c1.2-.7,3.3,0,4.4.6s.8.3.7,1.3c-.5,3-.3,6.6-1.1,9.6,0,.2,0,.4,0,.4-.9.5-4.6,2.4-5.5,2.8s-.3-.1-.5-.3c0-.9,0-1.8,0-2.8.3-3.3,2-8.7,1.8-11.6Z"/>
  <path class="st62" d="M212.9,244.1c.6-.2,1.4-.4,1.8,0l-.7.8c-6.4.7-13.4,5.9-14.1,12.1.3,1.1-.5,1.8-1.5,1.1,0-.1,0-.2,0-.4.5-3.8,2.8-8.4,5.9-10.7s5.5-2.9,5.9-3c.6-.1,1.8,0,2.6,0Z"/>
  <path class="st205" d="M226.9,240.8c0,.1-.3.2-.4.4.2.2.3.4.2.6-.4.8-2.5,4-3.2,4.9s-.5.3-.8.4c.2.9-.8.6-1.5.4-1.3.5-3.3-1.8-3.3-3-.7-.4-1.1-.6-.4-1.1-.2-2.4.9-4.8,1.5-7,1.4.5,7.4,2.3,7.9,3.3,0,.3,0,.8-.2,1.1Z"/>
  <path class="st160" d="M217.7,243.4c0,.4.2.8.4,1.1-.4.9-2.9.6-3.3-.4h-1.8c.6-.6,1.7-.3,2.5-.6s-.1-1.5,2.3-.1Z"/>
  <path class="st122" d="M208.5,295.5c.2,0,.5-.6,1.1-.4-.6,2.2,3.4.2,2.4,2.6-1.2-.1-2.3-.5-3.5-.7v-1.5Z"/>
  <path class="st141" d="M214.4,297.7s.5,1,.4,1.1c-.3.2-2.1-.6-1.5-1.1s.9,0,1.1,0Z"/>
  <path class="st64" d="M204.1,283.3c-.8,1.2-1.2,2.6-1.1,4.2l-.7.6c-.6-.3-1.2-.5-1.8-.7-.6-2.1.8-4.5,1.3-6.6s.2-3.6,1.3-4.8c1.2,1.8,1.3,5.1,1.1,7.4Z"/>
  <path class="st201" d="M203,270.7c.6-.2,1.5.7.7,1.1l.8,1.1c.4,5.4.9,10.8,1.3,16.2l-.7.5c-.4,0-.7-.2-1.1-.4-.5-.5-.7-1.3-.4-2.3-.4-1.6-.3-2.8.4-3.6-.2-2.6-.7-4.9-1.1-7.4s0-3.5-1.1-4.8c.4-.3.5-.5,1.1-.4Z"/>
  <path class="st48" d="M174.6,272.2c-.2,2.6-1,5.6-1.5,8.1-.1-.1-.2-.3-.4-.4-1.1-1.2-2-2.6-2.6-4.1,0-.1.7-.5.8-.8,1.4-2.9,1.6-5.2,2.1-8.4l1.1-.4c-.5-.5-.3-.7.4-.4,0,2,.2,4.2,0,6.3Z"/>
  <path class="st167" d="M187.5,295.8l.4.7s-.2.5-.6.7-1,0-1.2,0c0-.7-.3-1.1-.4-1.5.6,0,1.2,0,1.8,0Z"/>
  <path class="st38" d="M185.6,295.1l-1.1-.4c0-.6,0-1.1.9-.7s.2,1,.2,1.1Z"/>
  <path class="st10" d="M186,297.3c0,1.4,0,1.1-1.5,1.1.2-.8.8-.9,1.5-1.1Z"/>
  <path class="st57" d="M184.5,299.9c-.1.1-1.4.2-1.1-.5.4-1.1,1.5.2,1.1.5Z"/>
  <path class="st143" d="M176,215.7c1.9,1.9,4.5,5.9,1.8,8.1-4.5,2-6.9-8.9-1.8-8.1Z"/>
  <path class="st206" d="M178.2,215.3c-.4.7-1.5.3-2.2.4s-1.5,0-1.8,1c-.8,2.5.1,7.4,3.6,7.1-.2.2-.1.6-.9.7-2,.3-4.7-2.8-5-4.6s.2-2.9,1.5-4.2c1.7-.5,3-.4,4.8-.4Z"/>
  <path class="st37" d="M210.3,275.1l.8.5c.4,2.7.9,5.4,1.3,8.1l-.6.6c-1.1.8-3.1,3.2-3.7,4.4-.9.4-2,.8-3,.7l-1.5-17.7c.2-.2.4-.3.5-.3,1.6.7,4.3,2.2,6,3.2s.2.2.2.5Z"/>
  <path class="st149" d="M204.1,283.3c.2,2.1.7,3.8,0,5.9-.8-.3-1.3-.9-1.8-1.1,0-1.5.2-3.3.7-4.7s.5-.5,1.1-.1Z"/>
  <path class="st156" d="M227.7,242.3c3,3.6,4.2,7.5,6.6,11.4.5,4.3,2.1,6.2,0,10.3-1.8-.3-1.7.9-2.2,1.5s-1.2.8-1.5,1.1c-1.9.9-1.9-1.3,0-1.8,0-.3,0-.4-.4-.4-1.8,4.1-4.7-.7-.4-2.2.1-.4,0-.5-.4-.4-.3,1-2,2.9-2.6,1.5l-.3-.5c1.9-3.5,1.5-4.5-1.1-2.9-1.3,1.3-2.5-1.2-1.3-2.4l2.4-4.9c-.4-2-1.2-3.6-3.2-4.9l.6-.7c-.6-.9,2.4-5.3,3-5.4l.6.6Z"/>
  <path class="st146" d="M212.2,266.3c2.4-.7,2.9,2.2,3.1,4.1h4.8c.5,0,.6.5.6,1,.7.2.9.5.5,1.1.6-.2,1-.2,1.4.4.7-.2.9,0,.7.4-1,.4-2.1,1.2-3.3,1.5-4.7,1.8-12.2,0-16-3.4s-3.2-3.6-2.5-4.7c0-.8.6-.9,1.9-.6.6-1.3,1.3-1.8,2.2-1.6.7-.4,1.7-.2,3.1.5,1.4.3,2.6.7,3.5,1.3Z"/>
  <path class="st4" d="M223.6,274.4c.3.6,1.1,2.8.7,3.3s-5.6,1.7-6.6,2.2c-1-.2-1.3-1.7-.4-2.2.6-.9,1.3-1.7,2.2-2.2-.4-.4-.2-.6.4-.4.6-.2,1.8-.2,2.6-.4l.7-.4c.1,0,.3,0,.4,0Z"/>
  <path class="st55" d="M219.9,274.8v.4c-.2,0-.3.2-.4.4-.1.2-.2.2-.4,0l-1.5.4c0,.3-.2.3-.4,0l-.6.7c-1.5.2-5.9,0-6.4-1.4-2.3-.6-4.5-2.4-6.6-3.3,0-.5-.5-.8-.7-1.1-.8-1.3-1.4-2-2.2-3.3-.5-1-.3-1.4.7-.7.1,2.9,4.6,6,7.1,7.1,3.2,1.3,8,1.8,11.3,1Z"/>
  <path class="st158" d="M230.3,267.4v.4c-2.7,3.5-3,3.8-7,5.5l-.7-.4.4-1c2.3-1.2,4.2-2.9,5.8-4.9l1.6.3Z"/>
  <path class="st102" d="M229.9,262.2c-.5.8-2.1,1.9-1.8,2.8.6,1.1,1.7,0,2.2-.5.5-.5.7-.3.4.4-.6.8-1.4,2,0,1.8,0,0,0,.6-.4,1.1v-.4c-2.4.4-3.5-.4-3.3-3-.3,0-.3-.2,0-.4-.3-.3-.3-.6,0-.7,1.2.1,1.8-.7,2.6-1.5.5-.5.7-.3.4.4Z"/>
  <path class="st76" d="M223.3,274.4c-.2,0-.4.3-.7.4l.7-.4Z"/>
  <path class="st47" d="M217.4,275.9c1.1.1,1,1.6,0,1.8,0,.7.5,1.4.4,2.2l-4.8,4.1c-.4,0-.8.1-1.1.4l-1.5-9.2c1.9.5,5,.6,7,.7Z"/>
  <path class="st18" d="M174.2,266.3c-.5.3-.4.4-1.1.4s-.6,0-.7,0c-.4.4-.7.9-.7,1.5-.1.2.1.9-.4,1.1,0-.1,0-.3,0-.4-1.6.1-2-4.4-.9-4.9s3.3,1.8,3.9,2.3Z"/>
  <path class="st155" d="M172.7,279.9c-1.1-.8-3-2.5-2.6-4.1,1.1,1,2,2.7,2.6,4.1Z"/>
  <path class="st189" d="M172.3,266.7c.3.9-.6,1.2-.7,1.5-.6-.6-.9-1.3-.7-2.2.7-.2,1,.6,1.5.7Z"/>
  <path class="st50" d="M227.7,242.3c-.6-.5-.9-.1-1.3.4-.9,1.2-1.6,3.1-2.4,4.4-.2.9-.8.8-1.1,0,.8-2.2,2.5-4,3.7-5.9.6.2.8.7,1.1,1.1Z"/>
  <path class="st85" d="M174.9,253.4c0,.3.8.9.7,1.5-.6.6-.7,1.1-1.1,1.5.1.5,0,.6-.4.4-.2,1.1-.6,1.9-1.5,2.2-.2,1.1-.1,2.3.4,3.3.7.2,1.2.9,1.5,2.2,0,.4,0,.9,0,1.5-.1,0-.2.3-.4.4-1.7.3-2.5-1-3.7-1.8-.2,1.6.1,3,.7,4.4-.4.7-1.5.6-1.8.7-.3,0-.4.1-.4.4-.2.3-.3,1.1-.4,1.1-.4.3-1-.4-1.1-.4-.4-.1-.6,0-.7.4-.1,0-.2.3-.4.4-2.4.6-2.2-3.3-2.6-4.8-.6,0-.4,1.6-.4,2.1s.7,2.5-.3,1.6-.3-5.1,0-6.3,1.3-3,1.8-4.1c1.6-2.3,2.1-3,3.3-5.5s1.4-3.7,1.7-3.7c1.4-.3,3.6,2,4.9,2.6Z"/>
  <path class="st140" d="M193.7,291c-1.7.3-2.9,1.6-4.4,1.8-.1-.1-.7,0-1-.4s.2-.3.2-.4c2.6-.7,4.2-3.3,6.3-4.8-.4,1.2-.9,2.5-1.1,3.7Z"/>
  <path class="st187" d="M189.3,293.6c.2,1.9.9,0,1.2-.1.6-.2,1.2-.3,1.8-.2.2,0-.3.6-.4.7l-1.8,1.5c-.1,0-.2,0-.4,0-.3-.1-.7-.4-.7-.7-.1-.7.3-.8.4-1.1Z"/>
  <path class="st21" d="M211.4,293.2c-.1.3-.6-.2-.4-.7s.6.2.4.7Z"/>
  <path class="st128" d="M169.4,269.6c-.2.1-.3.2-.4.4-2.2-.7-2-2.1-1.8-4.1l.9,2.6,1.3,1.1Z"/>
  <path class="st183" d="M167.5,270.7c-.1,0-.5.3-.7.4-.8-1.7-1.4-2.8-1.1-4.8l1.8,4.4Z"/>
  <path class="st209" d="M198.9,207.2c.9,0,1.3,1.2.7,1.8.4.6,1.5.6.7,1.5.7,1.5-1.5,1.8-2.6,1.1-1.8-1.1-1.9-5.7.4-6.3,0,0,.3-.4.4-.4,0,0,.2,0,.4,0,.4.7,0,1.5,0,2.2Z"/>
  <path class="st53" d="M208.5,218.7c0,0,0,.3,0,.4l-.4.4c-.2.3-.5.9-.7,1.1-1.4,1.2-3.4,1.8-5.2,2.2-1.7,0-4.2.6-4.1-1.8,2,0,3.6,0,5.5-.4s3.1-1.3,4.8-1.8Z"/>
  <path class="st24" d="M209.6,202.4c.2.2.4.5.4.7-.4,1.7-.9,5.2,1.8,3.7l.7.3c1,.3.7,1.1.7,1.8l-1.5,3.7c-2-.4-3.8-2.4-4.8-4.1s-.3-.5-.4-.7c-.2-1.9,0-4.8,1.9-5.7s1,.2,1.1.2Z"/>
  <path class="st56" d="M208.1,219.4l.4-.4c-.1.2-.3.3-.4.4Z"/>
  <path class="st19" d="M210.7,202c0,.4,0,.7,0,1.1l.7.7c-.1.8.2,1.4,1.1,1.9.2,0,.5-.5.7,0,0,.5-.4,1.1-.7,1.5-3,2.9-4.8-2.4-3-4.8.3,0,.7-.4,1.1-.4Z"/>
  <path class="st82" d="M198.2,205.4c-1.3,1.6-1.6,6,.9,5.9s.9-.5,1.3-.7.8-.1,1.1-.4c0,.8.2,1.9,0,2.6s-.8,2.2-1.1,2.6l-.4.4c0,0-.3,0-.4,0-2.4.2-3.9-2.3-4.4-4.4,0-.3-.3-1.1-.4-1.8-.2-.1-.2-.2,0-.4,0-.4,0-.7,0-1.1.8-1.6,1.2-2.8,3.3-2.6Z"/>
  <path class="st69" d="M199.6,215.7c-.5.2-.8.6-1.5.4-1.8-.9-2-1-3-3,0-.6,0-1.3,0-1.8,1.4,1.7,2.3,3.4,4.4,4.4Z"/>
  <path class="st17" d="M194.9,209.4l-.4-.2.4-.2c0,.1,0,.2,0,.4Z"/>
  <path class="st66" d="M200.8,206.8c0,1.3,1,2.3-1.1,2.2-.5-.7-.7-.9-.7-1.8l.4-1.1,1.5.7Z"/>
  <path class="st69" d="M200,215.7c0,0,.3-.3.4-.4l-.4.4Z"/>
  <path class="st125" d="M212.6,205.7c-2,0-1.8-.4-1.8-2.6,1.2-.8,2,1.5,1.8,2.6Z"/>
  <path class="st178" d="M174.9,257.4c.2,2.5-.3,4.7-.4,7-1.3-.5-1.1-1.4-1.5-2.2-.4-.5-.6-1.2,0-1.5,0-1.4.5-2.8,1.1-4.1.1-.1.3-.2.4-.4.2.3.3.7.4,1.1Z"/>
  <path class="st171" d="M204.1,258.2c.5-.2,1.1-.3,1.1.4.6.3.8,1.1.8,2.2.5,1,.6,1.8.3,2.6.5.9.3,1.2-.7,1.1-.4.5-1.7,2.3-1.8,2.4-.3.2-1.5-.3-2.2-.2s-.6.4-.7.7c-.4-.6-1.1-1.3-1.5-2.2-1.2.3-1.3-2.6-.7-3.3-.3-1.7-.1-2.2,0-3.7.6-.2,1-.8,1.5-1.1-.9-2.8,4.1-1,4.1,1.1Z"/>
  <path class="st152" d="M198.5,261.9c.1.8.5,2.6.7,3.3.4,1.5-1.1,1.5-1.4.5s0-2.4,0-3.3-.3-1.2.7-.5Z"/>
  <path class="st147" d="M207.4,294c-.5,1.4-3,.6-2.9-.7l2.9.7Z"/>
  <path class="st181" d="M218.1,244.5c.9.4,2.2,2.2,3.3,3,1.8-.6,5,2.4,4.9,4s-.1.6-.8.5c-.1.3-.2.3-.4,0-1.4.2-3.3-.3-4.4-1.1-.5.2-1.3.1-1.5-.4-1.2.3-1.7-1.7-1.9-2.8-.1-.2-4.7-.9-4.9-.9-.5.1-3.2,2.2-3.3,2.6.6,1.7.5,2.9-.2,3.7-.3,2-2.9,4.9-4.8,5.2-1.3-.6-2.3-2.1-3.5-1.8s-.5.6-.6.7c-1.7.3,0-3.1.3-3.6,2.5-5.2,8.7-9,14.5-9.3.8,0,2.6,0,3.3.4Z"/>
  <path class="st116" d="M224,247.1s0,.6.4.9c1,1.1,2.4,2.1,2.5,3.8s-.3.7-.3.8c-.6.2-1.2,0-1.1-.7.9-1-1.2-3.2-1.9-3.5s-1-.1-2.2-.9c.5.1,1.1-.3,1.5-.4s1.1,0,1.1,0Z"/>
  <path class="st179" d="M225.5,260c.4.5-.1,1.5-.7,1.5-1.2-.1-2.2-1.5-2.1-2.7s2.1-5.6,3.3-5.4c-.6-.9,0-1.3.7-.7-.3,2.3-2.6,5.5-2.6,6.5s.9.8,1.5.9Z"/>
  <path class="st198" d="M226.9,263.3c0,.2,0,.5,0,.7-2.3.5-1.3-2.2-.4-3.5l-.4-.2c-.5.5-.7.4-.7-.4.5-.6,2.5-2.4,2.9-.9s-1.2,2.6-1.4,4.2Z"/>
  <path class="st144" d="M230.6,264.8l-.4-.4c.5-.6.8-1.9,1.8-2.2.3,1.4-1,1.9-1.5,2.6Z"/>
  <path class="st110" d="M229.9,262.2l-.4-.4c.3-.3.5-1,1.1-1.1.2.7-.4,1-.7,1.5Z"/>
  <path class="st200" d="M218.1,261.5c.9-.1,2.4,0,2.6,1.1,1.3.3,2.5.3,3.7,0v1.1c.8.4,1.4,2.5.7,3.3,1.2,0,1.3.6.7,1.7s-4.5,3.7-5.2,2.8c-1.2-.8-5.2,0-5.9-.4s.3-3.7-2.6-4.8c-.1-.4.4-.6,1.5-.7,0-.9,2-3.2,3-3,.4-1.8.9-2.1,1.5-1.1Z"/>
  <path class="st208" d="M230.3,267.4c-1.1-.3-.9.3-1.3.7-1.9,1.9-3.8,3.8-6.4,4.9s-3.2.8-3.3.7c-.7-.6,1.9-1.3,1.5-2.2l4.8-3.4c.1-.2-.3-.8-.4-1.1.7-.6,1-1.3,1.1-2.2l.8-.4c.6,2.2,1.4,2.2,3.3,3Z"/>
  <path class="st73" d="M213.7,265.5c-.5.3-1,.4-1.5.7l-6.6-1.8c.3-.3.5-.8.7-1.1,1.1-.1,2.3.2,3.7,1,1.5.1,2.7.6,3.7,1.2Z"/>
  <path class="st124" d="M217.4,277.7c0-.6,0-1.2,0-1.8.1,0,.2,0,.4,0l1.5-.4h.4c-.6.8-.6,2.5-2.2,2.2Z"/>
  <path class="st4" d="M219.2,275.5c-.4.5-.9.4-1.5.4l1.5-.4Z"/>
  <path class="st129" d="M226.9,264.1c0,.1,0,.2,0,.4-.2,1.3,0,2.7-1.8,2.6-.3-1.1-1-2-.7-3.3-.6-.5-.4-1.1.5-1.8.4-1,.9-1.6,1.4-1.6.1-.1,1.1-.8,1.1-.7,0,1.7-2.2,2.9-.4,4.4Z"/>
  <path class="st126" d="M173.1,260.7c-.6-.1-.7-.8-.4-1.8.5-1.9.7-1.2,1.5-2.2.2,1.6-.1,2.9-1.1,4.1Z"/>
  <path class="st54" d="M173.1,260.7c0,.5,0,1,0,1.5,0,0-.6-.2-.7-.9-.2-1.2.1-1.5.4-2.4-.2.7.3,1.3.4,1.8Z"/>
  <path class="st44" d="M215.1,255.9c.5.2,1,1.1.4,1.5,1.2,1.4,2.4,3.6,1.1,5.2-1.1,1.4-1.2,2-3,3-1.9.3-6-.9-7.4-2.2s-1.5-3.8-1.1-4.8c-.2-.2-.3-.3-.3-.4.5-.7,3.1-3.5,3.8-4.1s.3,0,.5,0c.7-1.7,6.8-.4,5.9,1.8Z"/>
  <path class="st6" d="M209.2,254.1c-.3.9-4,4.1-4.1,4.4-.5.1-.8-.2-1.1-.4,1.9-1.1,3.6-3.4,4.8-5.2.9.3.8.4.4,1.1Z"/>
  <path class="st194" d="M208.9,253c0-.9-.7-3.9-.6-4.1s3.4-2.8,3.8-2.9c1.4-.2,4.2,1.2,6,.7-.4,1.6.7,2.5,1.1,3.7.9.2.9.5,0,.7.1.2,0,.3-.4.4,0,1.1-1.8,2.9-3,3,0,.8-.3,1.3-.7,1.5-1.1-1.9-3.9-1.9-5.9-1.8-.5-.2-.4-.7-.4-1.1Z"/>
  <path class="st204" d="M225.1,251.9c.8.1.8.5,0,.7-.9.6-2.1.5-3.8-.2-1.2,0-2-.3-2.5-.9.1,0,.2-.3.4-.4,0-.3.6-.5,1.5-.4,1.5.4,3,.7,4.4,1.1Z"/>
  <path class="st210" d="M226.6,252.6c0,0-.6.5-.7.7-.9.6-1.2.2-.7-.7,0-.1,0-.5,0-.7.1,0,.3,0,.4,0,.4,0,1.2.2,1.1.7Z"/>
  <path class="st190" d="M220.7,250.8c-.2.6-1.2.2-1.5.4,0-.2,0-.6,0-.7.6-.1,1,.2,1.5.4Z"/>
  <path class="st181" d="M225.1,252.6c.1.3.5.5.7.7-.4.9-2.5,4.9-2.5,5.4-.1,1.3,1.3,1.4,1.4,2.7,0,1.2-1,1.7-3.1,1.3l-1-.2c-1.2-.2-1.8,0-2.6-1.1-.2,0-.4,0-.6,0s-1.2-3.1-1.2-3.6c-.5-.4-.7-.9,0-1.1l-.4-.4c-.5-.2-.5-.8,0-1.8.7-1.2,1.7-2.2,3-3,2.2-.3,4.1.7,6.3,1.1Z"/>
  <path class="st20" d="M226.2,260.4c-.4.4-1.8,2.9-1.8,3.3-.5-1.2-2-.5-3.1-.8s-.5-.3-.6-.3c1.9,0,2.8.6,4.1-1.1s.5-1.2.7-1.5c.3,0,.6,0,.7.4Z"/>
  <path class="st68" d="M216.2,257.8c1,.9,1.1,2.7,1.8,3.7-.6-.2-1.1.6-1.5,1.1.5-2.1-.6-3.4-1.1-5.2.4-.6.6-.3.7.4Z"/>
  <path class="st28" d="M215.9,256.3l.4.4c0,.3,0,.8,0,1.1-.2-.2-.5-.2-.7-.4-.1-.4-.4-1.2-.4-1.5s.6-1.2.7-1.5c0,.6,0,1.3,0,1.8Z"/>
  <path class="st68" d="M216.2,256.7c-.2,0-.3-.2-.4-.4.2,0,.3.2.4.4Z"/>
</svg>