<?xml version="1.0" encoding="utf-8"?>
<!-- Generator: Adobe Illustrator 23.0.1, SVG Export Plug-In . SVG Version: 6.00 Build 0)  -->
<svg version="1.1" id="Layer_1" xmlns="http://www.w3.org/2000/svg" xmlns:xlink="http://www.w3.org/1999/xlink" x="0px" y="0px"
	 viewBox="0 0 217 217" style="enable-background:new 0 0 217 217;" xml:space="preserve">
<style type="text/css">
	.st0{fill:#FFFFFF;}
	.st1{fill-rule:evenodd;clip-rule:evenodd;fill:#571D1F;}
</style>
<path class="st0" d="M108.5,179C52.1,179,6.3,147.5,6.3,108.5c0-39,45.8-70.5,102.2-70.5c56.4,0,102.2,31.6,102.2,70.5
	C210.7,147.5,164.9,179,108.5,179z"/>
<g>
	<g>
		<g>
			<path class="st1" d="M108.5,33C49.3,33,1.4,66.8,1.4,108.5c0,41.7,48,75.5,107.2,75.5c59.2,0,107.1-33.8,107.1-75.5
				C215.6,66.8,167.7,33,108.5,33z M108.5,179.1c-56.4,0-102.2-31.6-102.2-70.5c0-39,45.8-70.5,102.2-70.5
				c56.4,0,102.2,31.6,102.2,70.5C210.7,147.5,164.9,179.1,108.5,179.1z"/>
			<g>
				<path class="st1" d="M108.5,43c-53.7,0-97.2,29.3-97.2,65.6c0,36.2,43.5,65.6,97.2,65.6c53.7,0,97.2-29.4,97.2-65.6
					C205.7,72.3,162.2,43,108.5,43z M72.1,159c-4.3-1.3-8.5-2.8-12.4-4.4v-39.9H34.4c1.7,7,6.3,13.4,13.1,18.9l-8.6,8.6
					c-11.1-9.3-17.7-21-17.7-33.6c0-19.2,15.3-36.1,38.5-46.1v0c3.9-1.7,8.1-3.2,12.4-4.4C72.1,57.9,72.1,159,72.1,159z M132.8,67.6
					c-7.6-1.5-15.8-2.3-24.3-2.3c-4,0-7.9,0.2-11.6,0.5v36.4h27v12.4h-27v48.9c-4.2-0.4-8.4-0.9-12.4-1.6V67.6V55
					c7.6-1.4,15.7-2.1,24.1-2.1c8.4,0,16.6,0.8,24.3,2.2V67.6z M186.4,133.6c-1.2,1.5-2.6,3-4,4.5c0,0,0,0-0.1,0.1
					c-6.4,6.5-14.8,12-24.7,16.3v0c-3.9,1.7-8.1,3.2-12.4,4.5v0v-12.8V70.8V58v0c4.3,1.3,8.5,2.8,12.4,4.5v0
					c7.6,3.3,14.3,7.3,19.9,11.9c0,0,0,0,0,0c1.1,0.9,2.2,1.8,3.2,2.8c0,0,0.1,0,0.1,0.1c0.5,0.4,0.9,0.9,1.4,1.4
					c0,0,0.1,0.1,0.1,0.1c0.9,0.9,1.8,1.9,2.7,2.9c0.1,0.1,0.1,0.1,0.2,0.2c0.4,0.5,0.8,0.9,1.1,1.4c0,0,0,0,0.1,0.1l-8.7,8.7
					c-4.5-6.2-11.4-11.7-20.1-16.1v26.4h14v12.4h-14v26.4c8.8-4.4,15.7-9.9,20.2-16.2L186.4,133.6
					C186.4,133.6,186.4,133.6,186.4,133.6z"/>
				<path class="st1" d="M34.4,102.3h25.3V75.8C46.3,82.4,37.1,91.7,34.4,102.3z"/>
			</g>
		</g>
	</g>
</g>
</svg>
