<svg id="Layer_2" data-name="Layer 2" xmlns="http://www.w3.org/2000/svg" xmlns:xlink="http://www.w3.org/1999/xlink" viewBox="0 0 892 600"><defs><style>.cls-1{fill:none;}.cls-2{clip-path:url(#clip-path);}.cls-3{fill:#0038a8;}.cls-4{fill:#ce1126;}.cls-5{fill:#fff;}.cls-6{fill:#fcd116;}.cls-7{fill:#939598;}</style><clipPath id="clip-path"><rect class="cls-1" width="892" height="600" rx="30.93"/></clipPath></defs><title>Filipinas</title><g class="cls-2"><rect id="rect17269" class="cls-3" width="892" height="599.33"/><rect id="rect17271" class="cls-4" y="299.67" width="892" height="299.67"/><path id="path17273" class="cls-5" d="M519,299.67,0,599.33V0"/><path id="path17275" class="cls-6" d="M30,51.9,48,67.49,68.89,56,59.64,78,77,94.28l-23.76-2L43.13,113.85,37.7,90.64l-23.65-3,20.4-12.34Z"/><path id="path17277" class="cls-6" d="M436.1,268l.48,23.84,22.52,7.83-22.52,7.83-.48,23.83-14.41-19-22.82,6.91,13.62-19.57L398.87,280.1l22.82,6.9Z"/><path id="path17279" class="cls-6" d="M43.13,485.48l10.14,21.58,23.76-2L59.64,521.36l9.25,22L48,531.84,30,547.43,34.45,524l-20.4-12.34,23.65-3Z"/><path id="path17281" class="cls-6" d="M186.46,173.14l-7.78,7.78,3.86,58.94c-1.32.08-2.61.21-3.9.38l-7.09-53.78-6.35,6.35,9.56,48.07a59.59,59.59,0,0,0-21.6,9l-27.23-40.75h-9l33,43c-1,.8-2,1.63-3,2.5L108,210.2H97v11l44.42,39c-.86,1-1.7,2-2.49,3l-43-33v9l40.76,27.23a59.78,59.78,0,0,0-9,21.6L79.6,278.41l-6.35,6.35L127,291.85c-.17,1.28-.29,2.58-.38,3.89l-58.94-3.85-7.78,7.78,7.78,7.78,58.94-3.86c.09,1.31.21,2.62.38,3.91l-53.78,7.07,6.35,6.35,48.07-9.56a59.81,59.81,0,0,0,9,21.61L95.87,360.19v9l43-33c.79,1,1.63,2,2.49,3L97,378.13v11h11L147,344.72q1.47,1.29,3,2.49l-33,43h9l27.24-40.76a59.4,59.4,0,0,0,21.59,9l-9.56,48.07,6.35,6.35,7.09-53.79c1.29.17,2.58.3,3.9.38l-3.86,58.94,7.78,7.78,7.78-7.78-3.86-58.94c1.31-.08,2.61-.21,3.9-.38l7.09,53.79,6.35-6.35-9.56-48.08a59.41,59.41,0,0,0,21.6-8.95L247,390.25h9l-33-43c1-.8,2-1.63,3-2.49l39,44.42h11v-11l-44.42-39c.86-1,1.69-2,2.49-3l43,33v-9L236.29,333a59.78,59.78,0,0,0,9-21.6l48.07,9.56,6.35-6.35-53.78-7.08c.16-1.29.29-2.59.38-3.9l58.93,3.86,7.79-7.78-7.79-7.78-58.93,3.85c-.09-1.31-.22-2.61-.38-3.89l53.78-7.09-6.35-6.35L245.25,288a59.6,59.6,0,0,0-9-21.6L277,239.14v-9l-43,33c-.8-1-1.63-2-2.49-3l44.42-39v-11h-11l-39,44.42c-1-.87-2-1.7-3-2.5l33-43h-9l-27.24,40.76a59.56,59.56,0,0,0-21.59-9l9.56-48.07-6.35-6.35-7.09,53.78c-1.29-.17-2.59-.3-3.9-.38l3.86-58.94Z"/></g><g id="Layer_1" data-name="Layer 1"><path class="cls-7" d="M861.1,6A25,25,0,0,1,886,30.9V569a24.9,24.9,0,0,1-24.9,24.9H30.9A24.82,24.82,0,0,1,6,569.1V30.9A25,25,0,0,1,30.9,6H861.1m0-6H30.9A30.86,30.86,0,0,0,0,30.9H0V569a30.88,30.88,0,0,0,30.9,31H861a30.86,30.86,0,0,0,30.9-30.9V30.9A30.71,30.71,0,0,0,861.1,0Z"/></g></svg>