<?xml version="1.0" encoding="utf-8"?>
<!-- Generator: Adobe Illustrator 25.2.1, SVG Export Plug-In . SVG Version: 6.00 Build 0)  -->
<svg version="1.1" id="Calque_1" xmlns="http://www.w3.org/2000/svg" xmlns:xlink="http://www.w3.org/1999/xlink" x="0px" y="0px"
	 viewBox="0 0 840 840" style="enable-background:new 0 0 840 840;" xml:space="preserve">
<style type="text/css">
	.st0{fill:#011EA0;}
	.st1{fill:#FFFFFF;}
</style>
<g id="Livello_1">
	<g>
		<path class="st0" d="M751.7,560.1c-18.1,42.9-44.1,81.4-77.1,114.4s-71.5,59-114.4,77.1C515.7,770.5,468.6,780,420,780
			s-95.7-9.5-140.1-28.3c-42.9-18.1-81.4-44.1-114.4-77.1s-59-71.5-77.1-114.4C69.5,515.7,60,468.6,60,420s9.5-95.7,28.3-140.1
			c18.1-42.9,44.1-81.4,77.1-114.4s71.5-59,114.4-77.1C324.3,69.5,371.4,60,420,60s95.7,9.5,140.1,28.3
			c42.9,18.1,81.4,44.1,114.4,77.1s59,71.5,77.1,114.4C770.5,324.3,780,371.4,780,420S770.5,515.7,751.7,560.1z"/>
	</g>
	<g>
		<g>
			<path d="M806.9,256.5c-21.2-50-51.4-94.9-90-133.5c-38.5-38.5-83.4-68.8-133.5-90C531.7,11.1,476.6,0,420,0
				S308.3,11.1,256.5,33.1c-50,21.2-94.9,51.4-133.5,90s-68.8,83.4-90,133.5C11.1,308.3,0,363.4,0,420s11.1,111.7,33.1,163.5
				c21.2,50,51.4,94.9,90,133.5c38.5,38.5,83.4,68.8,133.5,90c51.7,21.9,106.8,33,163.4,33s111.7-11.1,163.5-33.1
				c50-21.2,94.9-51.4,133.5-90s68.8-83.4,90-133.5c21.9-51.7,33-106.8,33-163.4S828.9,308.3,806.9,256.5z M751.7,560.1
				c-18.1,42.9-44.1,81.4-77.1,114.4s-71.5,59-114.4,77.1C515.7,770.5,468.6,780,420,780s-95.7-9.5-140.1-28.3
				c-42.9-18.1-81.4-44.1-114.4-77.1s-59-71.5-77.1-114.4C69.5,515.7,60,468.6,60,420s9.5-95.7,28.3-140.1
				c18.1-42.9,44.1-81.4,77.1-114.4s71.5-59,114.4-77.1C324.3,69.5,371.4,60,420,60s95.7,9.5,140.1,28.3
				c42.9,18.1,81.4,44.1,114.4,77.1s59,71.5,77.1,114.4C770.5,324.3,780,371.4,780,420S770.5,515.7,751.7,560.1z"/>
		</g>
	</g>
	<g>
		<path class="st1" d="M645.2,221.8l-28.4,60.8C644,321.6,660,368.9,660,420c0,42.8-11.2,82.9-30.8,117.7l7.8,89.5
			c51.4-53.8,83-126.8,83-207.1C720,344,691.8,274.7,645.2,221.8z"/>
		<path class="st1" d="M450.4,658.1v-21v-37.2v-32.3v-10.7V425.6V293.4V181.9c25.2,3.2,49.2,10.3,71.3,20.7l25.4-54.4
			C508.5,130.1,465.4,120,420,120s-88.5,10.1-127.1,28.2l25.4,54.4c22.4-10.5,46.7-17.6,72.2-20.8v111.6v134.7v126.1v15.9v30.3v36.7
			v21.1c-23.8-2.9-46.6-9.4-67.7-18.7l-5.5,62.5c32,11.6,66.6,18,102.7,18c36.2,0,71-6.4,103.1-18.2l-5.5-62.5
			C496.7,648.7,474.1,655.1,450.4,658.1z"/>
		<path class="st1" d="M194.8,221.8C148.2,274.7,120,344,120,420c0,80.5,31.7,153.6,83.3,207.4l7.8-89.3
			C191.3,503.3,180,463,180,420c0-51.1,16-98.4,43.2-137.3L194.8,221.8z"/>
		<path class="st1" d="M595.2,494.8l-16.7-191.3l-0.8-9l17.8-38.2l26.9-57.7c-15.1-13.8-31.5-26-49.2-36.5l-25.5,54.7L520,276.3
			l-39.4,84.6v142l46.4-99.5l8.5,96.7l10.8,124.1l5.7,65.3c20.4-10,39.5-22.3,57-36.5l-6.7-76.9L595.2,494.8z"/>
		<path class="st1" d="M360.6,364.2l-43.4-93.1L292,217l-25.5-54.7c-17.6,10.5-34.1,22.8-49.1,36.6l26.9,57.8l18,38.5l-0.1,1.7
			l-16.6,189.6l-7.8,89.6l-6.7,76.9c17.5,14.2,36.6,26.5,57,36.5l5.7-65.4l11.6-132.5l7.7-87.7l47.7,102.3v-142H360.6z"/>
	</g>
</g>
</svg>
