<?xml version="1.0" encoding="utf-8"?>
<!-- Generator: Adobe Illustrator 23.0.3, SVG Export Plug-In . SVG Version: 6.00 Build 0)  -->
<svg version="1.1" id="Layer_1" xmlns="http://www.w3.org/2000/svg" xmlns:xlink="http://www.w3.org/1999/xlink" x="0px" y="0px"
	 viewBox="0 0 892 600" style="enable-background:new 0 0 892 600;" xml:space="preserve">
<style type="text/css">
	.st0{clip-path:url(#SVGID_2_);}
	.st1{fill:#DA0000;}
	.st2{fill:#239F40;}
	.st3{fill:none;stroke:#FFFFFF;stroke-width:3.33;}
	.st4{fill:#FFFFFF;}
	.st5{fill:#939598;}
</style>
<title>Irã</title>
<g id="Layer_2_1_">
	<g>
		<g>
			<g>
				<g>
					<defs>
						<path id="SVGID_1_" d="M30.9,0H861c17.2,0,31,13.8,31,30.9V569c0,17.1-13.8,30.9-30.9,30.9H30.9C13.8,600,0,586.2,0,569.1
							V30.9C0,13.8,13.8,0,30.9,0z"/>
					</defs>
					<clipPath id="SVGID_2_">
						<use xlink:href="#SVGID_1_"  style="overflow:visible;"/>
					</clipPath>
					<g class="st0">
						<rect x="0.1" class="st1" width="891.8" height="600"/>
						<rect class="st2" width="892" height="200"/>
						<g id="tb1">
							<path id="tbp1" class="st3" d="M2.7,166.7v21.7H21v-21.7 M12.7,166.7v21.7"/>
							<path id="tbp1-2" class="st3" d="M2.7,408.3V430H21v-21.7 M12.7,410v20"/>
						</g>
						<g id="tb1-2">
							<path id="tbp1-3" class="st3" d="M27.7,170h61.7 M31,190v-11.7h18.3v10h18.3v-10H56 M37.7,188.3h5 M91,188.3H77.7v-10h20
								 M96,166.7v21.7h18.3v-21.7 M106,166.7v21.7"/>
							<path id="tbp2-3" class="st3" d="M27.7,200H71 M0,200h24.5 M74.3,200h43.3"/>
							<path id="tbp2-4" class="st3" d="M27.7,400H71 M0,400h25 M74.3,400h43.3"/>
							<path id="tbp1-4" class="st3" d="M27.7,411.7h61.7 M31,433.3V420h18.3v10h18.3v-10H56 M37.7,430h5 M91,430H77.7v-10h20
								 M96,408.3V430h18.3v-21.7 M106,410v20"/>
						</g>
						<g id="tb4">
							<g id="tb1-3">
								<path id="tbp1-5" class="st3" d="M121,170h61.7 M124.3,190v-11.7h18.3v10H161v-10h-11.7 M131,188.3h5 M184.3,188.3H171v-10
									h20 M189.3,166.7v21.7h18.3v-21.7 M199.3,166.7v21.7"/>
								<path id="tbp2-5" class="st3" d="M121,200h43.3 M167.7,200H211"/>
								<path id="tbp2-6" class="st3" d="M121,400h43.3 M167.7,400H211"/>
								<path id="tbp1-6" class="st3" d="M121,411.7h61.7 M124.3,433.3V420h18.3v10H161v-10h-11.7 M131,430h5 M184.3,430H171v-10h20
									 M189.3,408.3V430h18.3v-21.7 M199.3,410v20"/>
							</g>
							<g id="tb3">
								<g id="tb1-4">
									<path id="tbp1-7" class="st3" d="M214.3,170H276 M217.7,190v-11.7H236v10h18.3v-10h-11.7 M224.3,188.3h5 M277.7,188.3
										h-13.3v-10h20 M282.7,166.7v21.7H301v-21.7 M292.7,166.7v21.7"/>
									<path id="tbp2-7" class="st3" d="M214.3,200h43.3 M261,200h43.3"/>
									<path id="tbp2-8" class="st3" d="M214.3,400h43.3 M261,400h43.3"/>
									<path id="tbp1-8" class="st3" d="M214.3,411.7H276 M217.7,433.3V420H236v10h18.3v-10h-11.7 M224.3,430h5 M277.7,430h-13.3
										v-10h20 M282.7,408.3V430H301v-21.7 M292.7,410v20"/>
								</g>
							</g>
						</g>
						<rect y="200" class="st4" width="892" height="199.3"/>
						<g id="tb1-5">
							<path id="tbp1-9" class="st3" d="M307.7,170h61.7 M311,190v-11.7h18.3v10h18.3v-10H336 M317.7,188.3h5 M371,188.3h-13.3v-10
								h20 M376,166.7v21.7h18.3v-21.7 M386,166.7v21.7"/>
							<path id="tbp2-9" class="st3" d="M307.7,200H351 M354.3,200h43.3"/>
							<path id="tbp2-10" class="st3" d="M307.7,400H351 M354.3,400h43.3"/>
							<path id="tbp1-10" class="st3" d="M307.7,411.7h61.7 M311,433.3V420h18.3v10h18.3v-10H336 M317.7,430h5 M371,430h-13.3v-10
								h20 M376,408.3V430h18.3v-21.7 M386,410v20"/>
						</g>
						<g id="tb1-6">
							<path id="tbp1-11" class="st3" d="M401,170h61.7 M404.3,190v-11.7h18.3v10H441v-10h-11.7 M411,188.3h5 M464.3,188.3H451v-10
								h20 M469.3,166.7v21.7h18.3v-21.7 M479.3,166.7v21.7"/>
							<path id="tbp2-11" class="st3" d="M401,200h43.3 M447.7,200H491"/>
							<path id="tbp2-12" class="st3" d="M401,400h43.3 M447.7,400H491"/>
							<path id="tbp1-12" class="st3" d="M401,411.7h61.7 M404.3,433.3V420h18.3v10H441v-10h-11.7 M411,430h5 M464.3,430H451v-10h20
								 M469.3,408.3V430h18.3v-21.7 M479.3,410v20"/>
						</g>
						<g id="tb3-2">
							<g id="tb1-7">
								<path id="tbp1-13" class="st3" d="M494.3,170H556 M497.7,190v-11.7H516v10h18.3v-10h-11.7 M504.3,188.3h5 M557.7,188.3
									h-13.3v-10h20 M562.7,166.7v21.7H581v-21.7 M572.7,166.7v21.7"/>
								<path id="tbp2-13" class="st3" d="M494.3,200h43.3 M541,200h43.3"/>
								<path id="tbp2-14" class="st3" d="M494.3,400h43.3 M541,400h43.3"/>
								<path id="tbp1-14" class="st3" d="M494.3,411.7H556 M497.7,433.3V420H516v10h18.3v-10h-11.7 M504.3,430h5 M557.7,430h-13.3
									v-10h20 M562.7,408.3V430H581v-21.7 M572.7,410v20"/>
							</g>
						</g>
						<g id="tb1-8">
							<path id="tbp1-15" class="st3" d="M587.7,170h61.7 M591,190v-11.7h18.3v10h18.3v-10H616 M597.7,188.3h5 M651,188.3h-13.3v-10
								h20 M656,166.7v21.7h18.3v-21.7 M666,166.7v21.7"/>
							<path id="tbp2-15" class="st3" d="M587.7,200H631 M634.3,200h43.3"/>
							<path id="tbp2-16" class="st3" d="M587.7,400H631 M634.3,400h43.3"/>
							<path id="tbp1-16" class="st3" d="M587.7,411.7h61.7 M591,433.3V420h18.3v10h18.3v-10H616 M597.7,430h5 M651,430h-13.3v-10
								h20 M656,408.3V430h18.3v-21.7 M666,410v20"/>
						</g>
						<g id="tb1-9">
							<path id="tbp1-17" class="st3" d="M681,170h61.7 M684.3,190v-11.7h18.3v10H721v-10h-11.7 M691,188.3h5 M744.3,188.3H731v-10
								h20 M749.3,166.7v21.7h18.3v-21.7 M759.3,166.7v21.7"/>
							<path id="tbp2-17" class="st3" d="M681,200h43.3 M727.7,200H771"/>
							<path id="tbp2-18" class="st3" d="M681,400h43.3 M727.7,400H771"/>
							<path id="tbp1-18" class="st3" d="M681,411.7h61.7 M684.3,433.3V420h18.3v10H721v-10h-11.7 M691,430h5 M744.3,430H731v-10h20
								 M749.3,408.3V430h18.3v-21.7 M759.3,410v20"/>
						</g>
						<g id="tb4-2">
							<g id="tb1-10">
								<path id="tbp1-19" class="st3" d="M774.3,170H836 M777.7,190v-11.7H796v10h18.3v-10h-11.7 M784.3,188.3h5 M837.7,188.3
									h-13.3v-10h20 M842.7,166.7v21.7H861v-21.7 M852.7,166.7v21.7"/>
								<path id="tbp2-19" class="st3" d="M774.3,200h43.3 M821,200h43.3"/>
								<path id="tbp2-20" class="st3" d="M774.3,400h43.3 M821,400h43.3"/>
								<path id="tbp1-20" class="st3" d="M774.3,411.7H836 M777.7,433.3V420H796v10h18.3v-10h-11.7 M784.3,430h5 M837.7,430h-13.3
									v-10h20 M842.7,408.3V430H861v-21.7 M852.7,410v20"/>
							</g>
							<g id="tb3-3">
								<g id="tb1-11">
									<path id="tbp1-21" class="st3" d="M867.7,170H892 M871,190v-11.7h18.3v10h2.7 M877.7,188.3h5"/>
									<path id="tbp2-21" class="st3" d="M867.7,200H892"/>
									<path id="tbp2-22" class="st3" d="M867.7,400"/>
									<path id="tbp1-22" class="st3" d="M867.7,411.7h24.2 M871,433.3V420h18.3v10h2.7 M877.7,430h5"/>
								</g>
							</g>
						</g>
						<g id="emblem_half">
							<path class="st1" d="M404.9,362.7c35.9,11.7,74.5-8,86.2-43.9c8.5-26.2,0.5-55-20.5-73c23.2,34.3,14.2,80.9-20.1,104.1
								C437.1,359,421.1,363.5,404.9,362.7"/>
							<path class="st1" d="M492.4,349.6c27.4-15.8,36.8-50.9,20.9-78.3c-7.8-13.4-20.6-23.1-35.7-26.9
								c33.1,24.9,39.8,71.9,14.9,105L492.4,349.6"/>
							<path class="st1" d="M445.5,375l-3.8-75l3.8-59c2.3,3.2,5.3,5.7,8.9,7.4v44.1l-3,74.5L445.5,375z"/>
							<path class="st1" d="M444.5,236.3l1.5,1.4c3.5,4.9,10.2,6,15.1,2.6c4.1-2.9,5.6-8.2,3.8-12.8c-1,5.6-6.4,9.2-11.9,8.2
								c-2.9-0.6-5.5-2.4-7-4.9"/>
						</g>
						<g id="emblem_half-2">
							<path class="st1" d="M487.1,362.7c-35.9,11.7-74.5-8-86.2-43.9c-8.5-26.2-0.5-55,20.5-73c-23.2,34.3-14.2,80.9,20.1,104.1
								C454.9,359,470.9,363.5,487.1,362.7"/>
							<path class="st1" d="M399.6,349.6c-27.4-15.8-36.8-50.9-20.9-78.3c7.8-13.4,20.6-23.1,35.7-26.9
								c-33.1,24.9-39.8,71.9-14.9,105L399.6,349.6"/>
							<path class="st1" d="M446.5,375l3.8-75l-3.8-59c-2.3,3.2-5.3,5.7-8.9,7.4v44.1l3,74.5L446.5,375z"/>
							<path class="st1" d="M447.5,236.3l-1.5,1.4c-3.5,4.9-10.2,6-15.1,2.6c-4.1-2.9-5.6-8.2-3.8-12.8c1,5.6,6.4,9.2,11.9,8.2
								c2.9-0.6,5.5-2.4,7-4.9"/>
						</g>
					</g>
				</g>
			</g>
		</g>
	</g>
</g>
<g id="Layer_1_1_">
	<path class="st5" d="M861.1,6C874.8,6,886,17.2,886,30.9V569c0,13.8-11.2,24.9-24.9,24.9H30.9C17.2,594,6,582.8,6,569.1V30.9
		C6,17.2,17.2,6,30.9,6H861.1 M861.1,0H30.9C13.8,0,0,13.8,0,30.9l0,0V569c0,17.2,13.8,31,30.9,31H861c17.1,0,30.9-13.8,30.9-30.9
		V30.9C892,13.8,878.2,0,861.1,0z"/>
</g>
</svg>
