<svg xmlns="http://www.w3.org/2000/svg" viewBox="0 0 892 600"><defs><style>.cls-1{fill:#fff;}.cls-2{fill:#d00;}.cls-3{fill:#939598;}</style></defs><title>Japão</title><g id="Layer_2" data-name="Layer 2"><path class="cls-1" d="M39.9,0H852.1a39.76,39.76,0,0,1,39.57,40V560a39.76,39.76,0,0,1-39.57,40H39.9A39.76,39.76,0,0,1,.33,560V40A39.76,39.76,0,0,1,39.9,0Z"/><circle class="cls-2" cx="450" cy="300" r="155.8"/></g><g id="Layer_1" data-name="Layer 1"><g id="Layer_1-2" data-name="Layer 1"><path class="cls-3" d="M861.1,6A25,25,0,0,1,886,30.9V569a24.9,24.9,0,0,1-24.9,24.9H30.9A24.82,24.82,0,0,1,6,569.1V30.9A25,25,0,0,1,30.9,6H861.1m0-6H30.9A30.86,30.86,0,0,0,0,30.9H0V569a30.88,30.88,0,0,0,30.9,31H861a30.86,30.86,0,0,0,30.9-30.9V30.9A30.71,30.71,0,0,0,861.1,0Z"/></g></g></svg>