<svg id="_62f9c19d-a481-4708-982f-605d68a77b71" data-name="62f9c19d-a481-4708-982f-605d68a77b71" xmlns="http://www.w3.org/2000/svg" viewBox="0 0 450 498"><defs><style>.cls-1{fill:#fff;}</style></defs><g id="_70c10dac-6562-4224-8b4b-8e0a41040207" data-name="70c10dac-6562-4224-8b4b-8e0a41040207"><g id="fe8041e2-0491-410a-b684-15b15cc10382"><path id="_027cc6d0-1216-4938-bbac-4c6f1d9351d4" data-name="027cc6d0-1216-4938-bbac-4c6f1d9351d4" class="cls-1" d="M277.06,24.36l1.46,7.94h-8.16V75h-8.45V32.31h-8.16l1.46-7.94h21.85Z"/><path id="_027cc6d0-1216-4938-bbac-4c6f1d9351d4-2" data-name="027cc6d0-1216-4938-bbac-4c6f1d9351d4" class="cls-1" d="M277.06,24.36h0m0,0,1.46,7.93h-8.16V75h-8.45V32.31h-8.16l1.46-7.94h21.85m0-7H255.21a7,7,0,0,0-6.88,5.73L246.87,31a7,7,0,0,0,6.88,8.27h1.16V75a7,7,0,0,0,7,7h8.45a7,7,0,0,0,7-7V39.3h1.16A7,7,0,0,0,285.4,31L284,23.38a7,7,0,0,0-6.94-6Z"/><path id="_5a0c95a7-821f-467d-9c89-569eeb345aac" data-name="5a0c95a7-821f-467d-9c89-569eeb345aac" class="cls-1" d="M129.45,24.36v35.7q0,7-4.15,11T113,75h-1.53V67.2h1.46q4,0,6-1.75t2-5.61v-28h-7.87V24.36h16.39Z"/><path id="_5a0c95a7-821f-467d-9c89-569eeb345aac-2" data-name="5a0c95a7-821f-467d-9c89-569eeb345aac" class="cls-1" d="M129.45,24.36v35.7q0,7-4.15,11T113.24,75h-1.77V67.2h1.46q4,0,6-1.75t2-5.61v-28h-7.87V24.36h16.39m0-7H113.06a7,7,0,0,0-7,7v7.48a7,7,0,0,0,7,7h.87v21c0,.11,0,.21,0,.31a8.24,8.24,0,0,1-1,.05h-1.46a7,7,0,0,0-7,7V75a7,7,0,0,0,7,7h1.77c7.16,0,12.86-2,16.92-5.9s6.29-9.42,6.29-16V24.36a7,7,0,0,0-7-7Z"/><path id="f13b8123-3918-49b9-a229-9039e01e740c" class="cls-1" d="M144.86,68h7.79V24.36h8.45V67.27q0,8.08-8.45,8.09h-7.79q-8.45,0-8.45-8.09V24.36h8.45Z"/><path id="f13b8123-3918-49b9-a229-9039e01e740c-2" data-name="f13b8123-3918-49b9-a229-9039e01e740c" class="cls-1" d="M161.1,24.36V67.27q0,8.08-8.45,8.09h-7.79q-8.45,0-8.45-8.09V24.36h8.45V68h7.79V24.36h8.45m0-7h-8.45a7,7,0,0,0-3.89,1.18,7.06,7.06,0,0,0-3.9-1.18h-8.45a7,7,0,0,0-7,7V67.27c0,9.31,5.92,15.09,15.45,15.09h7.79c9.53,0,15.45-5.78,15.45-15.09V24.36a7,7,0,0,0-7-7Z"/><path id="_8936b862-88a0-470d-b405-e543c1a75e58" data-name="8936b862-88a0-470d-b405-e543c1a75e58" class="cls-1" d="M176.61,66.76A6.14,6.14,0,0,0,182,63.45a15,15,0,0,0,2-8.12v-31h8.45V55.62q0,9.32-5.35,14.35t-15.26,5h-4.15V24.36h8.45v42.4h.47Z"/><path id="_8936b862-88a0-470d-b405-e543c1a75e58-2" data-name="8936b862-88a0-470d-b405-e543c1a75e58" class="cls-1" d="M192.45,24.33V55.62q0,9.32-5.35,14.35T172,75h-4.27V24.36h8.45v42.4h.47A6.14,6.14,0,0,0,182,63.45a15,15,0,0,0,2-8.12v-31h8.45m0-7H184a7,7,0,0,0-3.95,1.22,7,7,0,0,0-3.91-1.19h-8.45a7,7,0,0,0-7,7V75a7,7,0,0,0,7,7H172c8.36,0,15.06-2.32,19.93-6.9,5-4.71,7.56-11.26,7.56-19.45V24.33a7,7,0,0,0-7-7Z"/><path id="_4ff7b24b-1d0e-4831-9486-3d387c14eb1b" data-name="4ff7b24b-1d0e-4831-9486-3d387c14eb1b" class="cls-1" d="M219.55,32.09h-11.8v13.4h9.76l-1.46,7.43h-8.31V67.27h12.39L218.67,75H199.29V24.36h18.8Z"/><path id="_4ff7b24b-1d0e-4831-9486-3d387c14eb1b-2" data-name="4ff7b24b-1d0e-4831-9486-3d387c14eb1b" class="cls-1" d="M218.09,24.36l1.46,7.73h-11.8v13.4h9.76l-1.46,7.43h-8.31V67.27h12.39L218.67,75H199.29V24.36h18.8m0-7h-18.8a7,7,0,0,0-7,7V75a7,7,0,0,0,7,7h19.38a7,7,0,0,0,6.88-5.7L227,68.57a7,7,0,0,0-6.88-8.3h-5.39v-.35h1.31a7,7,0,0,0,6.87-5.65l1.46-7.43a7,7,0,0,0-1.46-5.8,7.2,7.2,0,0,0-2.66-2,7,7,0,0,0,6.17-8.26L225,23.06a7,7,0,0,0-6.88-5.7Z"/><path id="_4fbf7c0a-e916-43f1-a729-ac541f5d21a1" data-name="4fbf7c0a-e916-43f1-a729-ac541f5d21a1" class="cls-1" d="M241.49,43V24.36h8.09V75h-8.09V57.73l-7.94-17.27h-.44V75H225V24.36h8L241,43h.49Z"/><path id="_4fbf7c0a-e916-43f1-a729-ac541f5d21a1-2" data-name="4fbf7c0a-e916-43f1-a729-ac541f5d21a1" class="cls-1" d="M249.58,24.36V75h-8.09V57.73l-7.94-17.27h-.44V75H225V24.36h8L241,43h.49V24.36h8.09m0-7h-8.09a7,7,0,0,0-4.25,1.43A7,7,0,0,0,233,17.36h-8a7,7,0,0,0-7,7V75a7,7,0,0,0,7,7h8.11a7,7,0,0,0,4.19-1.39A7,7,0,0,0,241.49,82h8.09a7,7,0,0,0,7-7V24.36a7,7,0,0,0-7-7Z"/><path id="a10e412f-2064-41b0-bb08-db5cc90a7f45" class="cls-1" d="M291.25,68H299V24.36h8.45V67.27q0,8.08-8.45,8.09h-7.79q-8.44,0-8.45-8.09V24.36h8.45V68Z"/><path id="a10e412f-2064-41b0-bb08-db5cc90a7f45-2" data-name="a10e412f-2064-41b0-bb08-db5cc90a7f45" class="cls-1" d="M307.45,24.36V67.27q0,8.08-8.45,8.09h-7.79q-8.44,0-8.45-8.09V24.36h8.45V68H299V24.36h8.45m0-7H299a7.06,7.06,0,0,0-3.9,1.18,7,7,0,0,0-3.89-1.18h-8.45a7,7,0,0,0-7,7V67.27c0,9.31,5.92,15.09,15.45,15.09H299c9.53,0,15.45-5.78,15.45-15.09V24.36a7,7,0,0,0-7-7Z"/><path id="_0c0c93bb-a016-4008-8862-ad2f3264e1ce" data-name="0c0c93bb-a016-4008-8862-ad2f3264e1ce" class="cls-1" d="M322.11,58.24V68.29h7.21v-7a8.55,8.55,0,0,0-.73-3.93,7.76,7.76,0,0,0-2.7-2.7l-7.58-5a9,9,0,0,1-3.2-3.57A9.78,9.78,0,0,1,314,41.63V32.16a8,8,0,0,1,2.22-6A7.65,7.65,0,0,1,321.81,24h7.79q4.15,0,6,2t1.82,6.08v6.63l-8.23,2.19v-10H322V38.5a6.5,6.5,0,0,0,.73,3.24,7.44,7.44,0,0,0,2.55,2.44l7.21,4.74a10.28,10.28,0,0,1,5,9v9.91c0,2.57-.73,4.47-2.19,5.68a8.71,8.71,0,0,1-5.75,1.82h-7.29q-4.31,0-6.37-1.79t-2.08-5.79V58.24Z"/><path id="_0c0c93bb-a016-4008-8862-ad2f3264e1ce-2" data-name="0c0c93bb-a016-4008-8862-ad2f3264e1ce" class="cls-1" d="M321.57,24h8q4.15,0,6,2t1.82,6.08v6.63l-8.23,2.19v-10H322V38.5a6.5,6.5,0,0,0,.73,3.24,7.44,7.44,0,0,0,2.55,2.44l7.21,4.74a10.28,10.28,0,0,1,5,9v9.91c0,2.57-.73,4.47-2.19,5.68A8.69,8.69,0,0,1,330,75.34h-7.71q-4.31,0-6.37-1.79t-2.08-5.79V58.24h8.3V68.29h7.21v-7a8.55,8.55,0,0,0-.73-3.93,7.76,7.76,0,0,0-2.7-2.7l-7.58-5a9,9,0,0,1-3.2-3.57A9.78,9.78,0,0,1,314,41.63V32.16a8,8,0,0,1,2.22-6A7.7,7.7,0,0,1,321.57,24m0-7a14.6,14.6,0,0,0-10.22,4.13l-.18.18a15.08,15.08,0,0,0-4.17,11v9.36a17,17,0,0,0,1.87,7.58A16.33,16.33,0,0,0,310.62,52a7,7,0,0,0-3.81,6.23v9.51c0,6,2.46,9.32,4.5,11.08,2.68,2.32,6.37,3.5,10.95,3.5H330A15.76,15.76,0,0,0,339.6,79l.17-.15c2.16-1.78,4.72-5.16,4.72-11.06V58a17.33,17.33,0,0,0-5.15-12.53,7,7,0,0,0,5.08-6.73V32.1c0-4.53-1.21-8.18-3.68-10.85S334.38,17,329.6,17h-8Z"/><path id="ebf5326a-eccd-47bc-b83d-ac7864707e2c" d="M111.6,154.58V114.67H247.87V299.12c0,60.2-17.25,82.45-102.41,119.85-11.18-13.79-17.67-25.07-23-38.4,34.82-15.71,45.61-22.26,45.61-22.26,26.81-16.2,33.84-26.12,33.84-67.25V154.58Z"/><path id="ebf5326a-eccd-47bc-b83d-ac7864707e2c-2" data-name="ebf5326a-eccd-47bc-b83d-ac7864707e2c" class="cls-1" d="M247.87,114.67V299.12c0,60.2-17.25,82.45-102.41,119.85-11.18-13.79-17.67-25.07-23-38.4,34.82-15.71,45.61-22.26,45.61-22.26,26.81-16.2,33.84-26.12,33.84-67.25V154.58H111.6V114.67H247.87m0-7H111.6a7,7,0,0,0-7,7v39.91a7,7,0,0,0,7,7h83.31V291.06c0,38.9-5.77,46.34-30.46,61.26-.11.07-11.11,6.64-44.87,21.87a7,7,0,0,0-3.62,9c5.9,14.76,12.87,26.41,24.06,40.21a7,7,0,0,0,5.44,2.59,6.92,6.92,0,0,0,2.81-.59C194.89,404.91,218.91,390,234,372.1c17.36-20.61,20.92-44.08,20.92-73V114.67a7,7,0,0,0-7-7Z"/><g id="_027cc6d0-1216-4938-bbac-4c6f1d9351d4-3" data-name="027cc6d0-1216-4938-bbac-4c6f1d9351d4"><polygon points="277.06 24.36 278.52 32.3 270.36 32.3 270.36 75 261.91 75 261.91 32.31 253.75 32.31 255.21 24.37 277.07 24.37 277.06 24.36"/></g><g id="_5a0c95a7-821f-467d-9c89-569eeb345aac-3" data-name="5a0c95a7-821f-467d-9c89-569eeb345aac"><path d="M129.45,24.36v35.7q0,7-4.15,11T113,75h-1.53V67.2h1.46q4,0,6-1.75t2-5.61v-28h-7.87V24.36h16.39Z"/></g><g id="f13b8123-3918-49b9-a229-9039e01e740c-3" data-name="f13b8123-3918-49b9-a229-9039e01e740c"><path d="M144.86,68h7.79V24.36h8.45V67.27q0,8.08-8.45,8.09h-7.79q-8.45,0-8.45-8.09V24.36h8.45Z"/></g><g id="_8936b862-88a0-470d-b405-e543c1a75e58-3" data-name="8936b862-88a0-470d-b405-e543c1a75e58"><path d="M176.61,66.76A6.14,6.14,0,0,0,182,63.45a15,15,0,0,0,2-8.12v-31h8.45V55.62q0,9.32-5.35,14.35t-15.26,5h-4.15V24.36h8.45v42.4h.47Z"/></g><g id="_4ff7b24b-1d0e-4831-9486-3d387c14eb1b-3" data-name="4ff7b24b-1d0e-4831-9486-3d387c14eb1b"><polygon points="219.55 32.09 207.75 32.09 207.75 45.49 217.51 45.49 216.05 52.92 207.74 52.92 207.74 67.27 220.13 67.27 218.67 75 199.29 75 199.29 24.36 218.09 24.36 219.55 32.09"/></g><g id="_4fbf7c0a-e916-43f1-a729-ac541f5d21a1-3" data-name="4fbf7c0a-e916-43f1-a729-ac541f5d21a1"><polygon points="241.49 43 241.49 24.36 249.58 24.36 249.58 75 241.49 75 241.49 57.73 233.55 40.46 233.11 40.46 233.11 75 225 75 225 24.36 233 24.36 241 43 241.51 43 241.49 43"/></g><g id="a10e412f-2064-41b0-bb08-db5cc90a7f45-3" data-name="a10e412f-2064-41b0-bb08-db5cc90a7f45"><path d="M291.25,68H299V24.36h8.45V67.27q0,8.08-8.45,8.09h-7.79q-8.44,0-8.45-8.09V24.36h8.45V68Z"/></g><g id="_0c0c93bb-a016-4008-8862-ad2f3264e1ce-3" data-name="0c0c93bb-a016-4008-8862-ad2f3264e1ce"><path d="M322.11,58.24V68.29h7.21v-7a8.55,8.55,0,0,0-.73-3.93,7.76,7.76,0,0,0-2.7-2.7l-7.58-5a9,9,0,0,1-3.2-3.57A9.78,9.78,0,0,1,314,41.63V32.16a8,8,0,0,1,2.22-6A7.65,7.65,0,0,1,321.81,24h7.79q4.15,0,6,2t1.82,6.08v6.63l-8.23,2.19v-10H322V38.5a6.5,6.5,0,0,0,.73,3.24,7.44,7.44,0,0,0,2.55,2.44l7.21,4.74a10.28,10.28,0,0,1,5,9v9.91c0,2.57-.73,4.47-2.19,5.68a8.71,8.71,0,0,1-5.75,1.82h-7.29q-4.31,0-6.37-1.79t-2.08-5.79V58.24Z"/></g></g><path id="_5ad661c9-9e4c-4bdf-b47a-097200670bc0" data-name="5ad661c9-9e4c-4bdf-b47a-097200670bc0" d="M291.54,114.67h46.3V316.82c0,44.95-13.83,84.16-43.62,112.55-15.34,15.14-41.79,32.17-69.52,44.64-20-9.63-29.37-14.8-44.67-24.59,75.56-36.75,111.52-60.29,111.52-144.64V114.67Z"/><path id="_5ad661c9-9e4c-4bdf-b47a-097200670bc0-2" data-name="5ad661c9-9e4c-4bdf-b47a-097200670bc0" class="cls-1" d="M337.84,114.67V316.82c0,44.95-13.83,84.16-43.62,112.55-15.34,15.14-41.79,32.17-69.52,44.64-20-9.63-29.37-14.8-44.67-24.59,75.56-36.75,111.52-60.29,111.52-144.64V114.67h46.29m-46.29,0h0m46.29-7h-46.3a7,7,0,0,0-7,7c0,.13,0,.25,0,.38V304.78c0,78.61-29.5,100.37-107.58,138.35a7,7,0,0,0-.71,12.19c15.55,9.95,25.31,15.32,45.4,25a7,7,0,0,0,3,.69,6.84,6.84,0,0,0,2.87-.62c28.21-12.68,55.61-30.3,71.52-46a140.9,140.9,0,0,0,34.66-52.61c7.36-19.44,11.09-41.3,11.09-65V114.67a7,7,0,0,0-7-7Z"/></g></svg>