<?xml version="1.0" encoding="UTF-8"?>
<svg id="Layer_1" xmlns="http://www.w3.org/2000/svg" version="1.1" viewBox="0 0 400 400">
  <!-- Generator: Adobe Illustrator 29.5.1, SVG Export Plug-In . SVG Version: 2.1.0 Build 141)  -->
  <defs>
    <style>
      .st0 {
        fill: #00a04a;
      }

      .st1 {
        fill: #000f07;
      }

      .st2 {
        fill: #070b02;
      }

      .st3 {
        fill: #ebe203;
      }

      .st4 {
        fill: #00833c;
      }

      .st5 {
        fill: #005e2b;
      }

      .st6 {
        fill: #03a049;
      }

      .st7 {
        fill: #ede302;
      }

      .st8 {
        fill: #000d06;
      }

      .st9 {
        fill: #f1e401;
      }

      .st10 {
        fill: #006f33;
      }

      .st11 {
        fill: #00632e;
      }

      .st12 {
        fill: #010602;
      }

      .st13 {
        fill: #00813c;
      }

      .st14 {
        fill: #0d1102;
      }

      .st15 {
        fill: #3ab038;
      }

      .st16 {
        fill: #007b39;
      }

      .st17 {
        fill: #009f4a;
      }

      .st18 {
        fill: #0ba346;
      }

      .st19 {
        fill: #11a445;
      }

      .st20 {
        fill: #040702;
      }

      .st21 {
        fill: #07a148;
      }

      .st22 {
        fill: #009b48;
      }

      .st23 {
        fill: #eee302;
      }

      .st24 {
        fill: #009a47;
      }

      .st25 {
        fill: #01a04a;
      }

      .st26 {
        fill: #001007;
      }

      .st27 {
        fill: #02a049;
      }

      .st28 {
        fill: #009f49;
      }

      .st29 {
        fill: #005c2b;
      }

      .st30 {
        fill: #00823c;
      }

      .st31 {
        fill: #009e49;
      }

      .st32 {
        fill: #030903;
      }

      .st33 {
        fill: #04a148;
      }

      .st34 {
        fill: #f4e500;
      }

      .st35 {
        fill: #f3e401;
      }

      .st36 {
        fill: #007a39;
      }

      .st37 {
        fill: #f5e500;
      }

      .st38 {
        fill: #0e1202;
      }

      .st39 {
        fill: #00160a;
      }

      .st40 {
        fill: #d1db0b;
      }

      .st41 {
        fill: #01a049;
      }

      .st42 {
        fill: #000b05;
      }
    </style>
  </defs>
  <path class="st17" d="M0,336.3l61.7-38-47.9-31.8,71-.3c-4.3-6.4,4.4-9.8,9.3-11.2,11.1-3.1,26.8-3.7,38.4-4.2s5.8.1,8.6,0c.1-.6-.2-.6-.5-.9-4.5-3.9-9.7-6.9-14.2-11.2-66.5-62.5-28.9-175.4,61.5-185.4,104.1-11.5,161.8,117.1,84,187.3-3.9,3.6-8.4,6.5-12.5,9.9,12.2.2,24.9.6,37,2.6s17.9,3.1,19.7,7.8,0,3.5-.7,5.2l71.4.3-48.5,31.4,61.7,38.3c-38.7,1.7-77.5,4.2-116.3,2.5-10-.4-32.1-.4-39-8.3s.3-12.7,6.6-16.6c4.5-2.7,9.2-4.5,14.1-6.4,0-.2,0-.4-.3-.6-43.2-1.7-86.8-2.8-130-.2l-.5.6c5.5,2.2,11.2,4.8,16.1,8.1s7.8,5.5,7.6,9.2c-.4,12.8-26.6,13.3-35.5,13.7-40.9,1.8-82,1.2-122.9-1.9Z"/>
  <path class="st37" d="M220,256.8c-.1.2-.3.3-.6.4-1.7.4-2-.2-.1,0s.3.1.4.2c22,.6,44.9,1.2,66.8,3.4s9.7,1,13.9,2c8,2,7.8,4.6,4.4,11.4-5.5,11.2-11.7,22.2-18.2,32.9-1,1.8-.5.9-1.4,0-4-4-19.5-4.9-25.4-5.3-38.1-2.8-79.6-2.8-117.7,0-4.8.4-23.9,1.8-26.7,4.9s-.6,1.6-.7,1.7c-.2.2-.5-.3-.6-.3-6.1-10.1-11.9-20.4-17.2-31-2.9-5.5-7.1-12,1.8-14.3,10.5-2.8,27.5-3.4,38.7-4.2s28.6-1.5,43-1.6l-8.7-2.4c-64.7-19.7-91.5-97.6-51-152.6,38.6-52.5,117.2-53.8,157.2-2.1,44.8,58,13,141.8-58,156.8Z"/>
  <path class="st37" d="M96.7,277.4c6,10.2,11.7,20.5,17.2,31,.6.9.8,1.8,1.7,2.8,3.2,3.4,15.8,6.5,20.8,8.6s15.9,6.3,4.9,9.3-18.9,2.1-27.6,2.5c-25.8,1.1-51.8,1.5-77.6.3-4.1-.2-8.3,0-12.4-.9l57.3-32.7-45.1-24.2,58.1.3c1.3,0,2,2.1,2.6,3.1Z"/>
  <path class="st37" d="M305.2,274.6l59.5-.6-45.4,24.1,57.3,32.7c-.3.4-.6.4-1.1.5-4,.4-9,.1-13.2.3-24.8.9-49.4,1.2-74.2,0-8.9-.4-20.3-.5-28.8-2.8-4.5-1.3-7-2.8-1.8-5.8,7.4-4.2,17.5-6.1,25-10.3,3.2-1.8,2.7-2.3,4.4-5.2,5.9-11,12-22,18.2-32.9Z"/>
  <path class="st19" d="M305.2,274.6c-6,11-11.9,22-18.2,32.9l-.3-.3c6-10.6,12.7-22,18.2-32.9l.3.3Z"/>
  <path class="st19" d="M114.2,308.1c-.2,0-.4.1-.3.3-6.2-10-11.3-20.8-17.2-31l.3-.3,17.2,31Z"/>
  <path class="st15" d="M220,256.8l-.3.6c-.6,0-1.3,0-1.9,0v-.3c.7,0,1.5-.2,2.2-.3Z"/>
  <path class="st17" d="M193,71.2c76.8-5,125.1,81.1,78.4,142.9-41.4,54.9-127.3,43.9-153.6-19.4-23.1-55.4,15-119.6,75.2-123.5Z"/>
  <path class="st25" d="M263.2,279.3c-.6,0-2-.2-2.4.3s-.4,5.2-.4,6.3h-2.8c0-1.4,1.2-7.1-.8-7.2s-1.1,5.5-1.9,6.6-2.6.2-2.7-.2c.6-1.1.3-7.9.6-8.3s3.3-.4,2.5.9c1.4-.9,3.1-1.5,4.6-.3s.4,1,.6,1c.6,0,1.3-1,1.9-1.2,1.3-.3,3,0,3.4,1.5s0,7.3-.2,7.5-2,0-2.5,0v-6.9Z"/>
  <path class="st41" d="M161.5,275.5c-1.2-1.1-6.2-2-5.7.7s6.5.4,6.5,4.4-4.2,4.2-6.9,3.9-2.5-.8-2.4-3.4c.7,1.1,6,2.1,6.3.7.7-2.9-4.4-1.7-5.8-3.6-2.4-3.1,1-5.7,4.1-5.9s4.5,0,3.9,3.1Z"/>
  <path class="st41" d="M215.6,271.5v4.4c1.4-.6,2.1-1.3,3.8-.9s1.8,1.2,1.8,2v6.6c0,.5-2.3.8-2.7.2-.8-1.1,1.8-7.7-2.1-6.5s-.8.6-.8.7v5.8h-2.8c-.2-4.1.5-8.1.3-12.2h2.5Z"/>
  <path class="st41" d="M134.3,280.7c-.2-1.2-.5-1.8-1.7-1.7-2.7.1-.8,5.1-1.1,6.9h-2.8c.1-4.1,0-8.2-.3-12.2.5,0,2.3-.1,2.5,0,.3.3.4,3.7.3,4.4,6.6-4.4,5.5,3.3,5.9,7.5l-2.8.3c-.2-1.6.2-3.6,0-5.2Z"/>
  <path class="st25" d="M166.5,271.8v6.6c2-1.8,2-3.9,5.3-3.1.4.4-2.4,3.3-2.4,3.6,0,.6,2.9,3.9,3.1,5,0,.3-2.4.3-2.8,0-1.4-.8-3.3-7.7-3.1.2h-2.5s-.3-12.2-.3-12.2h2.8Z"/>
  <path class="st41" d="M231.6,280.2h-5.9c-.2,2.1,1.8,2.4,3.5,2.1s2.3-1.4,2.4-.2-.9,1.9-2.3,2.1c-2.2.3-5.3-.2-6.1-2.6-2.5-7.8,9.3-9.6,8.5-1.4Z"/>
  <path class="st41" d="M147.1,280.9c-1.3.5-5.1,0-6,.5s.7,1.9,1.4,2c1.5.3,3-.1,4.2-.9.3,2.4-.1,2.6-2.3,2.8s-5.6-.3-6.1-3.3c-1.1-7.2,8.8-8.3,8.7-1.1Z"/>
  <path class="st41" d="M177.2,280.2c1-.4,1.5-5,1.9-5.3s2.3,0,2.8.1l-4.2,11.7c-.5.6-1.9.2-2.7.3-.2-1.3,1-2.7.9-3.8s-3.5-8-3.1-8.4c.6,0,1.4-.1,2,0,1.1.2,1.7,4.2,2.3,5.3Z"/>
  <path class="st41" d="M127.1,274.9c0,.4.1,1.7,0,1.9s-2.9.4-3.4.3l.3,9.7h-2.8s-.3-9.4-.3-9.4h-3.8s0-2.2,0-2.2l10-.3Z"/>
  <path class="st41" d="M199.4,277.1c-.7-.4-4.2-1.2-4.4-.2-.4,1.8,5.6.4,4.6,4.6s-8.3,3.6-7.4-.4c.2-.2,4.4,1.9,4.7.4s0-1,0-1c-.5-.5-5.7-.2-4.5-3.8s8-3.6,7.1.3Z"/>
  <path class="st41" d="M241.3,273l-.3,9.4,4.7.3v2.2c-2.5-.4-5-.4-7.5-.3l.3-11.6h2.8Z"/>
  <path class="st41" d="M208.8,272.4c0,.5-.1,2.4,0,2.5s2.3,0,2.8,0v1.9c-.5,0-2.7-.1-2.8,0-.3.3-.5,7.5,2.8,5,.2,1.8.1,2.1-1.7,2.2-5.5.3-2.8-4.3-3.6-7s-1.2,0-1.3-1,1.2-.9,1.3-1.3c.6-1.9-1.4-2.6,2.5-2.3Z"/>
  <path class="st41" d="M276.3,275.9c.2.3-.1,2.3,0,2.5s2,0,2.5,0v1.9c-.8.3-2.5-.8-2.8.2-.5,1.7-.4,6.4,2.5,4.8.8,2.7-2.2,2.5-4,1.6s-.6-4.8-1-6.8-.9,0-1-.3c-.4-2.3.7-1.5.9-1.7s0-2,.4-2.4c.3-.2,2.3.2,2.4.3Z"/>
  <path class="st33" d="M187.8,283.7v-8.8c0-.1,2.8-.6,2.8.2v8.1c0,.7-2.3.5-2.8.5Z"/>
  <path class="st27" d="M270.4,286.8c-.5-.5-2.4-.2-2.5-.3-.4-.4.5-7.6.3-8.8.7,0,2.6-.3,2.8.5l-.6,8.6Z"/>
  <path class="st27" d="M250.4,276.2l-.3,9.1c-.5-.5-2.4-.2-2.5-.3-.4-.4.6-7.6.3-8.8h2.5Z"/>
  <path class="st18" d="M250.4,272.7v2.2c-.4,0-2.7-.2-2.8-.3s0-1.5.3-1.7c.5-.4,1.9,0,2.5-.1Z"/>
  <rect class="st17" x="187.8" y="271.5" width="2.8" height="1.9"/>
  <rect class="st21" x="268.5" y="274.3" width="2.8" height="1.9"/>
  <path class="st37" d="M194.6,73.4c69-4.1,115.7,69.9,81.1,130.2-32.9,57.3-115.1,58.3-149.7,2.1-34.2-55.6,3.8-128.4,68.6-132.3Z"/>
  <path class="st7" d="M227.1,276.5c.9,0,2.4,1.6,1.7,2s-3.4.3-3.4-.3,1.2-1.6,1.8-1.7Z"/>
  <path class="st23" d="M144.3,279.6c-.1.1-2.6,0-3,0-1.1-.2,0-1.5.5-1.7,1.6-.7,3.2,1,2.5,1.7Z"/>
  <path class="st17" d="M234.4,219.5l.9,15.6c-.8,0-3.5,1.5-4,1.2-1.2-.8-3.8-6.8-5.3-8l.6,9.5c-.2.5-3.5,1.6-4,1.3l-8.1-13.3,3.7-.9,5,8.7c0-2.6-.2-5.1-.3-7.7s-.7-1.9-.2-2.7,3.1-1.2,3.3-1.1c1.1.5,4.2,7.5,5.6,8.6l-1-10.1c0-.3,3.5-1.4,3.8-1.1Z"/>
  <path class="st17" d="M174.3,230.5c1.7-2.2,2.3-5.3,3.4-7.8.6.4,3,.9,3.1,1.4s-5.1,12.5-5.8,14.2c-.8-.4-2.9-.9-3.2-1.8l-1.3-11.4c-2,2.6-2.8,6.3-4.1,9.4l-3.1-.9,5.8-14.4c.4-.1,3.8,1.4,4,1.8l1.1,9.4Z"/>
  <path class="st17" d="M240.4,219.5c-.3.4,5.2,7.3,5.5,8.2s-2,2.5-2.7,2l-8.4-12.2c.8-.5,3-2.7,3.9-2.6,1.2.1,8,4.5,8.7,4-.8-2-4.1-5-4.7-6.8s2.2-1.6,2.6-1.9l8.9,12.3-3.2,2-10.5-4.9Z"/>
  <path class="st17" d="M152.7,100.9c.5,1.2,2.2,4.9,1.7,5.9-1.3,2.8-5-.9-7-.9l5.9,6.7c-.7.5-1.7,2.2-2.6,2.1l-9.5-10.5c.4-.4,2.7-2.6,2.9-2.6,1-.1,6,2.7,7.4,3,.3-.4-2.6-6.8-2.4-7.6s2.5-2.7,2.9-2.6c.7,0,8.4,9.4,9.8,10.4,0,.2-2.1,1.9-2.4,2-.6,0-4.7-4.6-5.6-5.3s-.5-.8-1.1-.6Z"/>
  <path class="st17" d="M178.4,88.1c.5,2.6,1.3,5.2,1.6,7.8-.6-.2-2.6.7-2.8.5-.7-.5-3-12.2-3.7-14,.9.1,3.5-1.1,4.1-.8,1.1.5,3.4,5.1,5,5.8.5-1.4.7-6.6,1.4-7.5s3.7-1.1,3.9-.9c0,2.2,3.8,12.3,3.4,13.6s-2.7,1-3.1.8-2-7.1-2.2-8.1c-.8,0-.5,0-.6.5-.7,2.5.3,6-3.4,5.8-.9-1.4-2.1-2.8-3.2-4-.3-.1-.4,0-.3.6Z"/>
  <path class="st17" d="M183.1,225.1c6.5-.1,13.7.9,12.8,9.2s-8.5,6.9-14.3,5.8l1.4-15Z"/>
  <path class="st17" d="M201.1,228.1c3.5-3.4,10.2-2.3,12,2.3,2.8,7.1-2.2,14.5-9.8,11.4-4.7-1.9-5.7-10.3-2.2-13.7Z"/>
  <path class="st17" d="M160.1,226.9c-4.1,4.1-11.5-.5-10.8-5.7s5.5-8.1,7-10.8c.5.6,2.7,1.7,2.6,2.3-1.4,2.8-4.8,6.1-5.8,8.9-1,2.7,2,4.9,4.3,2.8s5.5-8.5,6.1-8.6c.5.2,2.9,1.8,2.9,2,0,.6-5.7,8.5-6.4,9.1Z"/>
  <path class="st17" d="M241.5,89.3c4.7,3.2,11.1,7.2,6.3,13.5s-10,1.9-14.5-1.7l8.2-11.7Z"/>
  <path class="st17" d="M225.6,82.8c6.9-1.4,10.8,5.9,7.1,11.8-5.3,8.5-17.5-.1-11.2-8.7.8-1.1,2.8-2.8,4.1-3.1Z"/>
  <path class="st17" d="M147,216.3c-3.6,3.6-8.3-.6-10.2-3.9-1.6-2.9-1-2.5,1.3-4.5.3,0,1,3.1,1.3,3.7.7,1.4,3.5,4.4,4.6,2s-5.2-6.5-1.3-10.3,6.7-.4,8.7,2.2,2.5,3.4-.3,5.6c-.5,0-1.3-5.2-4.1-5.6-4.2-.6,1,5.8,1.1,7.7s-.7,2.5-1.3,3.1Z"/>
  <path class="st17" d="M258.2,202.9c-1.8,0-5.4,1.6-5.6,3.6-.6,4.2,4.5,0,6-.5,2.5-1,5.1,0,5.9,2.6s-1.4,5.8-3.5,7.6-2.9,2-3.3,2-2.3-2.2-2.7-2.7c2.1.4,8.3-3.4,6.2-5.6s-4.5,1.7-6,2.1c-2.2.6-3.8.5-5.2-1.4-2.7-3.6,1.2-8,4.5-9.6s2.2.5,3.7,1.9Z"/>
  <path class="st17" d="M175.3,97.4c-.1.1-2.8,1.3-3,1.3-1.2,0-1.9-1.8-2.5-1.8s-3.7,1.9-3.8,2.1c-.6.9.7,2.2-.1,3.3s-2.4,1.5-2.5,1.4c-.2-1.9-3.2-14.3-2.8-15s3.2-1.9,3.4-1.8c.7,1,11.8,9.9,11.3,10.5Z"/>
  <path class="st12" d="M206.6,135.9c.2.2.3.5.4.7.5,1.1,0,7.4-.2,8.9s-.9.9-1.5.8c-1.3-.2-1.6-3.1-1.6-4.2-.2-.2-.3,0-.3.6.7,1.3,1.3,3.4.3,4.7,0,.4.1,1.2-.3,1.3l-.7-.3-.9-7c-.7-5.9-9.4-6.5-9.4,0l3.5,16.7v2.4c.4.4.3,1.3.2,1.9.5.8,1.1,1.6,1.9,2.2.6-.6.7-.5.6.3l1.9.3c.3-.3.8-.6,1.3-.6.2-.3.7-.6.9-.3.4-.4.6-.2.3.3-.5,2.6-5,2.1-6.6.5-2.1,4-7.4,3.1-9.3-.6-6.2,5.4-11.1-4.9-13.1-9.6,0,.8-.2,1.3-.7,1.6-.3-.3-.5-.9-.3-1.9,0-4.7,1.5-10.7,7.5-8.1-.5-4.5,3-8.2,7.6-7.4s2,1.3,3.4,1.8c0-7.1,9.4-6.3,11.7-.9l2.3,5.3c.1-3.9.4-7.7.6-11.6.1,0,.2-.2.3-.1.2,0,0,2,0,2.3Z"/>
  <path class="st25" d="M204.4,78c0,.5.1,2.4,0,2.5-.2.2-5.5.2-6.3.3v2.5h5.9c0,.5.1,2.4,0,2.5-.2.2-5.2.4-5.9.3l.3,3.8h5.8c.6,0,.5,2,.5,2.5l-9.5.3c-.1,0-.5-1-.5-1.1v-13.6h9.7Z"/>
  <path class="st32" d="M216.9,126.6l.3,3.1c0,1.8,0,3.6,0,5.3.3,1.6.3,3.1,0,4.7,0,1,0,2.1,0,3.1-.3,2.7-.3,5.5,0,8.1,0,.8.6,9.9,1.1,9.7,5.2-2.1,6.2-7.3,9.1-11.5s4.5-5.9,7.2-6.3,9.3.3,7,4.8c-3.1,5.9-5.6,8.4-7.4,15.5-.8,3.2-1,7.9-2.2,10.7s-6.7,10.5-8.6,13-6.8,8.5-8.3,9.5-4.2,1.6-4.2,3v7l-23.5-.3c4.5,0,8.9,0,13.1-.3,3.2-.9,6.5-.9,9.7,0-.2,0-.6,0-.6-.3,0-.5,0-5,0-5.4l.6-.4c-1.1-.7.7-2.7,1.7-3.2,1.9-.7,3.1-1.3,4.5-2.9s3.4-4.1,4.9-6.4c3.5-4.8,7.4-10.2,10-15.4,1.5-8.4,3.6-16.5,6.3-24.4.7-1.1,1.8-1.9,3.1-2-6.2-4.1-10.3,1-13.4,6-.5,2.3-7.7,12.9-10.3,10.6s-1.3-14.3-1.2-17,.1-.8.2-1.2.3-.8.4-1.2l.3-2.2c-.8-2.1-.8-4.2,0-6.3l-.3-3.8c-.8-1.5-.8-2.9,0-4.4-.2-.6-.3-1.3,0-1.9-.2,0-.2-.2,0-.3,0-.3.2-.3.3,0,0,.9,0,1.9,0,2.8Z"/>
  <path class="st0" d="M255,100.3c.4,0,5.5,5,5.4,5.4s-1.2,1.4-1.4,1.4c-.6.1-1.1-1.3-1.8-1.2-.8,1.2-6.6,5.7-6.7,6.4s1.3,1.1,1.2,1.8-1.3,1.5-1.7,1.4-5.2-5.1-5.2-5.5,1.6-1.7,1.7-1.7,1.2,1.3,1.6,1.6c.6-1.2,7-6.2,7-6.7s-2.5-1.4-.1-3Z"/>
  <path class="st25" d="M213.1,79l-1.9,11.9c.2.2,4.9.6,5.6,1.1s-.1,1.9,0,2.7l-9.4-2.1,2.2-14.2,3.4.6Z"/>
  <path class="st27" d="M125.8,162.9c1.8-.5,1.7.4,2.2.8,1.1.7,2.7-.5,2.5-1.7-5.4,1.9-5.3-6-.5-6s3.6,8.7-.7,9.3-3.5-.4-3.5-2.4Z"/>
  <path class="st20" d="M173.4,156.6c.3.4.5.8.6,1.3-.5,9.7-.7,18.6,1.7,28.1l5.4,12.9-.5.6c.2,0,.6.1.6.3,0,.7.1,5.3-.2,5.6s-.3.2-.4.2l1.1-.3c6,0,11.9,0,17.9.2l1.1.4c-.3.5-1.2.3-1.7.3-3.8,0-7.6,0-11.4,0s-5,0-7.5,0v-6.7c0-.5-3.2-7.2-3.7-8.5-3.9-10.4-4.2-19.6-3.8-30.6l.6-5.5c0,.7.3,1.7.3,1.9Z"/>
  <path class="st27" d="M274.4,156c5.2-.6,3.5,9.6-1.3,9.3s-2.8-8.9,1.3-9.3Z"/>
  <path class="st27" d="M271,156.3c-.5,2.1-2.3,3.3-3.4,5.2s-1.2,3.4-1.3,3.5c-.2.2-1.4,0-1.8,0,.3-2.8,2.4-5.1,4.1-7.2h-4.1s0-1.6,0-1.6h6.6Z"/>
  <path class="st2" d="M216.6,122.2c.2.5.3,1.1,0,1.6,0,.1,0,.2,0,.3,0,.3-.2.3-.3,0l-.6-.4-.6-6.5c.3-5.8-6.6-6.4-6.8-.6,0,6.4-.4,12.8-1.1,19.1l-.7.4c0-.7.2-1.8-.3-2.2.4-6.3.7-12.6,1-18.9.9-3.6,5.5-5,7.8-1.9s1.5,6.6,1.6,9.2Z"/>
  <path class="st6" d="M124.9,156.3c-.5,1.1-1.5,8.4-1.9,8.7s-1.4,0-1.8,0l1.3-5.6h-2.2c-.4-1.9,1.3-1.4,2.6-2.2s.6-1.4,2.1-.9Z"/>
  <path class="st14" d="M217.2,151c-.5-.3-.3-1.2-.3-1.7,0-2-.2-4.5.3-6.4,0,2.7-.1,5.4,0,8.1Z"/>
  <path class="st14" d="M217.2,139.7c0-1.6,0-3.1,0-4.7.5,1.2.5,3.5,0,4.7Z"/>
  <path class="st38" d="M217.2,129.7c-.6-.7-.3-2.1-.3-3.1.6.7.3,2.1.3,3.1Z"/>
  <path class="st40" d="M178.7,87.4l-.3.6c0-.3-.5-.7-.3-1.3.4,0,.5.4.6.6Z"/>
  <path class="st38" d="M216.9,123.7h-.3c0-.5,0-1,0-1.6.5.3.3,1.1.3,1.6Z"/>
  <path class="st37" d="M185.6,238l.9-9.7c4.1-.2,6.1,1.6,5.6,5.8s-3.1,4.2-6.5,3.9Z"/>
  <path class="st34" d="M206.2,229c5.1-.2,5.5,12.4-.7,10.3-3.2-1.1-3.9-10.1.7-10.3Z"/>
  <path class="st37" d="M242.6,93.4c4.3,1.4,4.1,7.2.4,9s-5.6-.2-5.4-1.6,4.6-5.6,5-7.4Z"/>
  <path class="st37" d="M226.8,85.6c6.9-1.6,3.5,11.8-1.9,9.3s-.7-8.7,1.9-9.3Z"/>
  <path class="st3" d="M167.8,95.3l-2.5,1.3-.9-4.7c.6.4,3.9,2.8,3.4,3.4Z"/>
  <path class="st17" d="M216.3,124.1c0,.6.2,1.2.3,1.9,0,1.5,0,2.9,0,4.4l.3,3.8c0,2.1,0,4.2,0,6.3l-.3,2.2c0,6.4.2,12.7.9,19.1,6.3-1.9,7.3-8,10.7-12.6s5.4-6.6,10.3-5.4,3.2.9,3.1,2.4c-2.7-.3-4,2.3-4.3,4.6-.7,4.4-1.8,6.1-3,10.1s-1.3,7.4-2.2,11-3.9,6.7-5.8,9.5c-2.7,4-7.2,11.1-10.8,14.3s-3.1,1.2-4.1,2.2-1.1,1.7-1.1,2v6.1c-3.2,0-6.5,0-9.7,0-6.7,0-13.4.2-20-.3v-6.1c0-.7-5-11.5-5.6-13.8-2.7-8.9-1.7-19.8-1.6-29,0-.7,0-1.3,0-2s.2-1.9.6-2.1c.4,1.8,1.2,3.5,2,5.1,1.7,3.4,6,10.7,10.4,6.8s.2-1.2,1.1-1c1.3,4.3,7.3,5.3,8.8.6.5.5.7.8,1.5,1.2,2,1,3.7.8,5.4-.6,1.3-2.4,1.6-5.2,1-8.5-.3-2.9-.4-5.7-.4-8.7-.1-1.5-.1-3.2-.3-4.7-.1-.6,0-.8.3-.6.5,1.1,1.1,4.9,2.5,3.2.1-3.2.4-6.3.4-9.5l.6-6.1c.3-4.8,0-10,.6-14.7s4.8-4.5,6.7-2,1.6,8.6,1.7,10.9Z"/>
  <path class="st17" d="M187.5,162.2c-1.8-4.1-4.1-9.6-5.6-13.7-2.6-7.3,4.7-12.2,9.5-6.3.8,6.3,3.8,13.7,4.2,19.9s.2,2.4-.5,3.3c-.3,0,.2-3.8-1.8-4.8s-4.6-.7-5.2,1.6c0,.6-.3.5-.6,0Z"/>
  <path class="st17" d="M203.4,148.8c.6,4.6,1.1,9.6.5,14.5-.2.5-.6,1.2-1.2,1.1-.3.2-.7.2-.9.3-.2,0-.2-.2,0-.3-.1-.5,0-1.1.5-1.7,1.4-4.9-1.9-6.8-5.8-4.2,0,1-.2,1.8-.6,2.2-1.5-6.3-2.5-12.7-4-19,0-4.7,3.6-6.5,7.8-4.7s3.1,8.4,3.8,11.7Z"/>
  <path class="st17" d="M185.6,164.1c-.2,0-.2-.2,0-.3-.6,0-.6-.6-.2-1.5-.5-.2-4.3-.5-3.6,1.1l-.6.4c-1.6-1.3-2.2-1.7-1.9-4.1l-.9,1.2c-.9-2.7-4.2-7.1-4.4-9.9s4.2-6.5,6.9-3.1,5.2,11.1,5.6,13.2.3,1.9-.9,2.9Z"/>
  <path class="st31" d="M194.3,165.3c-2.8,2.8-7.8-2.9-4.5-4.3s5.8,3,4.5,4.3Z"/>
  <path class="st8" d="M201.9,164.4c-.2.4-.8.8-1.3.6-.5.2-1.1.2-1.9,0-.2,0-.4-.2-.6-.3-.8-.6-1.8-1.5-1.6-2.5-.4-1.1-.4-2.3,0-3.8.9-2.6,6.1-2.3,6.6.5s.4,4.4-1.2,5.5Z"/>
  <path class="st26" d="M203.1,164.7l-.3-.3c.3-.2.9-1,.9-1.4.3-1.6.1-8.4-.6-9.8s-1.5-1.2-1.3-2.3l1.9,1.9c-.1-1.4-.5-2.7-.3-4.1s.6-.8.3-1.3c.4,4.8,1.2,10.3.6,15.2s-.4,1.4-1.3,2Z"/>
  <path class="st1" d="M181.2,163.8c-.8-3.3,2.8-1.9,5-2.2l-.6,2.2c-.2.4-.5.7-.9.6-.4.3-.9.6-1.6.6-.8-.1-1.3-.8-1.9-1.3Z"/>
  <path class="st4" d="M196.6,162.2c.1.4,0,.5-.3.3-.2-.5-.2-1.3-.3-1.9.4-.7.3-1.3.6-2.2.1,1.1-.2,2.7,0,3.8Z"/>
  <path class="st30" d="M198.1,164.7c-1.3-.7-1.4-.7-1.9-2.2l.3-.3c.1.7,1.1,1.9,1.6,2.5Z"/>
  <path class="st29" d="M188.7,164.4c.2.3,1.2.7,1.3,1.2-1,.2-1-.9-1.3-1.2Z"/>
  <path class="st10" d="M201.9,164.7c-.4.2-.4.5-1.3.6-.3,0-.3-.2,0-.3,0,0,1.1-.5,1.3-.6v.3Z"/>
  <path class="st13" d="M200.6,165.1v.3c-1,.1-1.2-.1-1.9-.3.5-.4,1.2.1,1.9,0Z"/>
  <path class="st16" d="M188.1,162.2c0,.2,0,.7,0,.9.1,0,.1.2,0,.3-.3-.5-.4-.7-.6-1.3h.6Z"/>
  <path class="st5" d="M184.7,164.7c-.6.2-.8.5-1.6.3.4-.4,1-.4,1.6-.6.3,0,.3.2,0,.3Z"/>
  <path class="st36" d="M203.8,142.2l-.3.6c0-.3-.6-.9-.3-1.6.4-.1.4.5.6.9Z"/>
  <path class="st11" d="M188.7,164.4c-.3-.4-.3-.4-.6-.9v-.3c.6.2.5,1,.6,1.3Z"/>
  <path class="st30" d="M185.6,164.1c-.5.4-.2.4-.9.6v-.3c.3-.1.6-.5.9-.6v.3Z"/>
  <path class="st24" d="M241.3,146.6l-3.4,5.3c0-2.2.6-5.6,3.4-5.3Z"/>
  <path class="st14" d="M216.9,134.1c-.6-.9-.3-2.6-.3-3.8.6.9.3,2.6.3,3.8Z"/>
  <path class="st14" d="M216.6,142.5c0-.7-.2-1.8.3-2.2,0,.7.2,1.8-.3,2.2Z"/>
  <path class="st38" d="M216.6,125.9c-.5-.3-.3-1.3-.3-1.9h.3c0,.6,0,1.3,0,1.9Z"/>
  <path class="st9" d="M129.5,157.6c2-.5,2.3,2.8.5,3.1s-2.1-2.7-.5-3.1Z"/>
  <path class="st35" d="M272.7,163.8c-1-.6-.1-6.8,2.2-6.2s.2,7.7-2.2,6.2Z"/>
  <path class="st42" d="M195.6,187.7c0,.1,1.2,3.3,0,2s-.7-5.3-.6-6.4c.2-1.8,1-3.5,1.6-5.2-1,0-2.2-.2-2.8-1.1l-2.2-5.2c.6-.1.7.3,1,.7,1.1,1.6.9,4.5,3,4.8s1.9-.9,3.2-2.3c2.8-3.1,6.6-6.1,10.6-7.3-2.2,1.8-4.8,2.9-7,4.7s-6.7,7-6.7,10.2-.1,3.5,0,5Z"/>
  <path class="st39" d="M213.8,148.5c-.6,1.1-2.3.5-3.3.3s-3.3-1.2-2.7-1.9c1,.3,1.6.9,2.7,1.2s2.1.4,3.3.3Z"/>
  <path class="st42" d="M210.6,149.4s.1.7-.2.6c-.7-.5-2-.3-2.4-1.2.4,0,2.4.5,2.5.6Z"/>
  <path class="st28" d="M197.2,157.9c.6-.9,4.4-.9,5.1.6s.3,3.5.2,4.2c-.4,2-3.7,2.5-4.8.5s-1-4.5-.4-5.2Z"/>
  <path class="st22" d="M185.6,162.2c-.5,2.2-2.7,2.6-4.1.8-.3-1.2,3.3-.7,4.1-.8Z"/>
</svg>