<?xml version="1.0" encoding="utf-8"?>
<!-- Generator: Adobe Illustrator 23.0.1, SVG Export Plug-In . SVG Version: 6.00 Build 0)  -->
<svg version="1.1" id="HQFL" xmlns="http://www.w3.org/2000/svg" xmlns:xlink="http://www.w3.org/1999/xlink" x="0px" y="0px"
	 viewBox="0 0 600 600" style="enable-background:new 0 0 600 600;" xml:space="preserve">
<style type="text/css">
	.st0{fill-rule:evenodd;clip-rule:evenodd;fill:#FFFFFF;}
	.st1{fill-rule:evenodd;clip-rule:evenodd;fill:#ED1C24;}
</style>
<g>
	<path class="st0" d="M586.6,75.3c-1.4-10.7-11.1-18.4-21.7-17.3l-52,2.8c-80.6,0-155.9-20.1-201.2-53.6c-7.4-5.2-16.7-5.2-23.7,0.1
		C242.9,40.8,167.6,60.9,86.9,60.9L34.9,58c-0.5,0-13.9,4-13.9,4l-7.6,12.9C4.1,155,16.6,239.1,49.4,318.7
		c33.7,81.7,88.1,156.2,157.4,215.5c26.1,22.4,54.1,42.4,83,59.5c6.2,3.8,14.1,3.8,20.4-0.1c28.8-17,56.6-37,82.7-59.3
		c69.3-59.3,123.7-133.8,157.5-215.5C583.3,239.2,595.8,155,586.6,75.3L586.6,75.3z"/>
	<g>
		<path class="st1" d="M586.6,75.3c-1.4-10.7-11.1-18.4-21.7-17.3l-52,2.8c-80.6,0-155.9-20.1-201.2-53.6
			c-7.4-5.2-16.7-5.2-23.7,0.1C242.9,40.8,167.6,60.9,86.9,60.9L34.9,58c-0.5,0-13.9,4-13.9,4l-7.6,12.9
			C4.1,155,16.6,239.1,49.4,318.7c33.7,81.7,88.1,156.2,157.4,215.5c26.1,22.4,54.1,42.4,83,59.5c6.2,3.8,14.1,3.8,20.4-0.1
			c28.8-17,56.6-37,82.7-59.3c69.3-59.3,123.7-133.8,157.5-215.5C583.3,239.2,595.8,155,586.6,75.3L586.6,75.3z M368.6,69.9
			c20.3,6.8,42.2,12.1,65.1,15.8V169c-17.2-21.6-39.5-39-65.1-50.3V69.9L368.6,69.9z M273.3,52.6c9.6-4.8,18.5-10,26.6-15.5
			c8.2,5.5,17.1,10.7,26.6,15.5v53.8c-8.7-1.4-17.5-2.1-26.6-2.1c-9,0-17.9,0.7-26.6,2.1V52.6L273.3,52.6z M166.1,85.7
			c23-3.7,44.9-9,65.2-15.8v48.8c-25.6,11.3-47.9,28.7-65.2,50.3V85.7L166.1,85.7z M124.1,393.2c-20.5-31.6-37.6-64.9-50.7-99.2
			V91.8c4.5,0.2,9,0.3,13.5,0.3c12.5,0,25-0.5,37.2-1.4V393.2L124.1,393.2z M231.3,514.1c-1.4-1.1-2.8-2.3-4.1-3.5
			c-22.1-19-42.5-39.5-61.1-61.2v-67.8c17.3,21.6,39.6,39,65.2,50.2V514.1L231.3,514.1z M326.6,546.1c-8.7,6-17.6,11.8-26.6,17.3
			c-9-5.5-17.9-11.3-26.6-17.3V444.1c8.7,1.4,17.6,2.1,26.6,2.1c9.1,0,17.9-0.7,26.6-2.1V546.1L326.6,546.1z M433.8,449.4
			c-18.5,21.7-38.9,42.2-61,61.2c-1.4,1.2-2.8,2.4-4.1,3.5v-82.3c25.6-11.2,47.9-28.6,65.1-50.2V449.4L433.8,449.4z M299.9,434.6
			c-87.8,0-159.3-71.5-159.3-159.3c0-87.9,71.5-159.3,159.3-159.3c87.9,0,159.4,71.5,159.4,159.3
			C459.3,363.1,387.8,434.6,299.9,434.6L299.9,434.6z M526.5,294c-13.1,34.3-30.1,67.6-50.7,99.1V90.7c12.2,0.9,24.7,1.4,37.2,1.4
			c4.5,0,9-0.1,13.5-0.3V294L526.5,294z"/>
		<path class="st1" d="M299.9,131.1c-79.5,0-144.1,64.7-144.1,144.1c0,79.5,64.7,144.2,144.1,144.2c79.5,0,144.2-64.7,144.2-144.2
			C444.1,195.8,379.4,131.1,299.9,131.1L299.9,131.1z M299.9,407c-72.6,0-131.7-59.1-131.7-131.8c0-72.6,59.1-131.7,131.7-131.7
			c72.7,0,131.7,59.1,131.7,131.7C431.7,347.9,372.6,407,299.9,407L299.9,407z"/>
		<path class="st1" d="M242,225.5c5.8,0,10.5-4.8,10.5-10.7c0-5.8-4.7-10.6-10.5-10.6h-30.3c-5.7,0-10.5,4.7-10.5,10.6v122.3
			c0,5.9,4.8,10.6,10.5,10.6H242c5.8,0,10.5-4.8,10.5-10.6c0-5.9-4.7-10.6-10.5-10.6c0,0-16.9,0-19.8,0c0-3.1,0-36.8,0-39.8
			c2.7,0,13.9,0,13.9,0c5.8,0,10.5-4.8,10.5-10.6c0-5.8-4.7-10.7-10.5-10.7c0,0-11.2,0-13.9,0c0-3,0-36.8,0-39.8
			C225.1,225.5,242,225.5,242,225.5L242,225.5z"/>
		<path class="st1" d="M299.6,164.4c-18.8,0-34.1,16.2-34.1,36.1v137.2c0,19.9,15.3,36.2,34.1,36.2c18.9,0,34.1-16.2,34.1-36.2v-9.3
			c0-5.8-4.7-10.5-10.4-10.5c-5.7,0-10.3,4.7-10.3,10.5v9.3c0,8.3-6,15.1-13.4,15.1c-7.4,0-13.4-6.8-13.4-15.1V200.5
			c0-8.3,6-15.1,13.4-15.1c7.4,0,13.4,6.8,13.4,15.1v9.3c0,5.8,4.6,10.5,10.3,10.5c5.7,0,10.4-4.7,10.4-10.5v-9.3
			C333.8,180.6,318.5,164.4,299.6,164.4L299.6,164.4z"/>
		<path class="st1" d="M381,214.3c0,0,0,38.4,0,54.9c-7.7-27.9-14.7-57-14.8-57.3c-1.4-5.1-6.4-8.3-11.6-7.5c-5.2,0.7-9,5.2-9,10.4
			v122.5c0,5.8,4.7,10.5,10.5,10.5c5.8,0,10.5-4.7,10.5-10.5c0,0,0-38.4,0-54.9c7.8,28,14.7,56.9,14.8,57.2c1.5,5,6.5,8.3,11.6,7.5
			c5.1-0.7,9-5.2,9-10.4V214.3c0-5.8-4.8-10.5-10.5-10.5C385.7,203.8,381,208.4,381,214.3L381,214.3z"/>
	</g>
</g>
</svg>
