<?xml version="1.0" encoding="utf-8"?>
<!-- Generator: Adobe Illustrator 23.0.3, SVG Export Plug-In . SVG Version: 6.00 Build 0)  -->
<svg version="1.1" id="Layer_1" xmlns="http://www.w3.org/2000/svg" xmlns:xlink="http://www.w3.org/1999/xlink" x="0px" y="0px"
	 viewBox="0 0 892 600" style="enable-background:new 0 0 892 600;" xml:space="preserve">
<style type="text/css">
	.st0{clip-path:url(#SVGID_2_);}
	.st1{fill:#00008B;}
	.st2{clip-path:url(#SVGID_4_);}
	.st3{fill:#FFFFFF;}
	.st4{clip-path:url(#SVGID_6_);}
	.st5{fill:#FF0000;}
	.st6{fill:#939598;}
</style>
<title>Nova Zelândia</title>
<g>
	<g>
		<defs>
			<path id="SVGID_1_" d="M861.1,6c13.7,0.1,24.8,11.2,24.9,24.9V569c0,13.8-11.1,24.9-24.9,24.9h0H30.9c-13.7,0-24.9-11-24.9-24.7
				c0,0,0,0,0-0.1V30.9C6.1,17.2,17.2,6.1,30.9,6H861.1"/>
		</defs>
		<clipPath id="SVGID_2_">
			<use xlink:href="#SVGID_1_"  style="overflow:visible;"/>
		</clipPath>
		<g class="st0">
			<rect id="_15" y="5" class="st1" width="892" height="594.9"/>
			<g id="Group_2">
				<g>
					<defs>
						<rect id="SVGID_3_" y="5" width="446" height="223"/>
					</defs>
					<clipPath id="SVGID_4_">
						<use xlink:href="#SVGID_3_"  style="overflow:visible;"/>
					</clipPath>
					<g class="st2">
						<path id="_14" d="M0,5l446,223 M0,228L446,5"/>
						<polygon class="st3" points="436,247.9 223,141.4 10,247.9 0.9,229.8 2.5,201.8 173.1,116.5 2.7,31.3 1.3,2.3 44.3,2.2 
							223,91.6 402.8,1.6 444.9,2.8 456,25 272.9,116.5 456,208.1 						"/>
					</g>
				</g>
			</g>
			<g id="Group_1">
				<g>
					<defs>
						<path id="SVGID_5_" d="M0,5l223,111.5H0V5z M223,5h223L223,116.5V5z M223,116.5h223V228L223,116.5z M223,116.5V228H0
							L223,116.5z"/>
					</defs>
					<clipPath id="SVGID_6_">
						<use xlink:href="#SVGID_5_"  style="overflow:visible;"/>
					</clipPath>
					<g class="st4">
						<path id="_12" d="M0,5l446,223 M0,228L446,5"/>
						<polygon class="st5" points="439.4,241.3 223,133.1 6.7,241.3 0.8,229.6 2,210.4 189.8,116.5 2.3,22.8 1.3,2.3 28.9,2.8 
							223,99.9 419.7,1.5 444.5,1.9 452.6,18.3 256.2,116.5 452.6,214.7 						"/>
					</g>
				</g>
			</g>
			<path id="_10" d="M223,5v223 M0,116.5h446"/>
			<polygon class="st3" points="260.2,228 185.8,228 185.8,153.7 0,153.7 0,79.3 185.8,79.3 185.8,5 260.2,5 260.2,79.3 446,79.3 
				446,153.7 260.2,153.7 			"/>
			<path id="_9" d="M223,5v223 M0,116.5h446"/>
			<polygon class="st5" points="245.3,228 200.7,228 200.7,138.8 0,138.8 0,94.2 200.7,94.2 200.7,5 245.3,5 245.3,94.2 446,94.2 
				446,138.8 245.3,138.8 			"/>
			<polygon id="_8" class="st3" points="727.3,161.2 745.9,174.7 738.8,196.5 757.3,183.1 775.9,196.5 768.8,174.7 787.4,161.2 
				764.4,161.2 757.3,139.4 750.2,161.2 			"/>
			<polygon id="_7" class="st5" points="738.8,164.9 750.2,173.3 745.8,186.8 757.3,178.4 768.8,186.8 764.4,173.3 775.9,164.9 
				761.7,164.9 757.3,151.4 753,164.9 			"/>
			<polygon id="_6" class="st3" points="635.3,83.2 656.1,98.4 648.1,122.9 669,107.8 689.9,122.9 681.9,98.4 702.8,83.2 677,83.2 
				669,58.7 661,83.2 			"/>
			<polygon id="_5" class="st5" points="646.7,86.9 660.5,97 655.2,113.2 669,103.2 682.8,113.2 677.5,97 691.3,86.9 674.3,86.9 
				669,70.8 663.7,86.9 			"/>
			<polygon id="_4" class="st3" points="532.2,186.9 553,202.1 545.1,226.6 566,211.4 586.8,226.6 578.8,202.1 599.7,186.9 
				573.9,186.9 566,162.4 558,186.9 			"/>
			<polygon id="_3" class="st5" points="543.7,190.6 557.4,200.6 552.2,216.9 566,206.8 579.7,216.9 574.5,200.6 588.3,190.6 
				571.2,190.6 566,174.4 560.7,190.6 			"/>
			<polygon id="_2" class="st3" points="631.5,349.6 654.7,366.5 645.8,393.7 669,376.9 692.2,393.7 683.3,366.5 706.5,349.6 
				677.8,349.6 669,322.4 660.2,349.6 			"/>
			<polygon id="_1" class="st5" points="643,353.4 659.1,365 652.9,383.9 669,372.3 685.1,383.9 678.9,365 695,353.4 675.1,353.4 
				669,334.4 662.9,353.4 			"/>
		</g>
	</g>
</g>
<g>
	<g id="Layer_1-2">
		<path class="st6" d="M861.1,6c13.7,0.1,24.8,11.2,24.9,24.9V569c0,13.8-11.1,24.9-24.9,24.9h0H30.9c-13.7,0-24.9-11-24.9-24.7
			c0,0,0,0,0-0.1V30.9C6.1,17.2,17.2,6.1,30.9,6H861.1 M861.1,0H30.9C13.9,0,0,13.8,0,30.8c0,0,0,0.1,0,0.1l0,0V569
			c-0.1,17.1,13.7,30.9,30.8,31c0,0,0.1,0,0.1,0H861c17,0,30.9-13.8,30.9-30.8c0,0,0-0.1,0-0.1V30.9c0.1-17-13.6-30.8-30.5-30.9
			C861.3,0,861.2,0,861.1,0z"/>
	</g>
</g>
</svg>
