<?xml version="1.0" encoding="utf-8"?>
<!-- Generator: Adobe Illustrator 23.0.1, SVG Export Plug-In . SVG Version: 6.00 Build 0)  -->
<svg version="1.1" id="Layer_1" xmlns="http://www.w3.org/2000/svg" xmlns:xlink="http://www.w3.org/1999/xlink" x="0px" y="0px"
	 viewBox="0 0 595.276 595.276" enable-background="new 0 0 595.276 595.276" xml:space="preserve">
<g>
	<path fill="#1E1A18" d="M2.86,359.945c0.84-0.368,0.443-1.117,0.479-1.695c1.568-25.034,7.606-48.883,18.878-71.348
		c7.066-14.082,16.313-26.482,27.886-37.238c11.461-10.652,20.841-22.908,26.882-37.5c7.79-18.816,8.096-37.937,1.994-57.197
		c-5.591-17.645-14.942-33.145-27.709-46.532c-1.695-1.777-1.918-2.754-0.391-4.829c14.856-20.195,30.692-39.622,46.221-59.289
		c8.513-10.781,16.894-21.659,24.966-32.774c0.232-0.319,0.574-0.59,0.356-1.055c0.648,0,1.296,0,1.944,0
		c5.693,1.333,10.965,3.86,16.418,5.862c19.41,7.127,39.236,12.781,59.402,17.321c15.259,3.436,30.652,6.038,46.158,7.993
		c8.021,1.012,16.086,1.595,24.147,2.241c12.769,1.023,25.545,1.01,38.321,0.833c11.074-0.154,22.113-1.09,33.136-2.243
		c15.634-1.634,31.135-4.062,46.518-7.25c23.424-4.854,46.356-11.422,68.773-19.8c4.537-1.696,8.958-3.728,13.666-4.958
		c0.648,0,1.296,0,1.944,0c0.852,0.479,1.579,1.063,2.164,1.888c9.881,13.947,20.634,27.223,31.248,40.606
		c12.979,16.364,26.104,32.616,38.342,49.554c0.38,0.525,0.735,1.068,1.118,1.589c1.083,1.473,0.975,2.756-0.339,4.091
		c-4.611,4.687-8.647,9.852-12.382,15.254c-9.617,13.909-16.496,29.005-19.037,45.806c-2.903,19.198,0.971,37.142,10.812,53.845
		c4.377,7.429,9.654,14.131,15.467,20.501c3.506,3.842,7.469,7.161,11.07,10.878c8.229,8.492,15.111,17.957,20.699,28.345
		c9.404,17.483,15.54,36.089,18.859,55.651c0.824,4.856,1.018,9.764,1.54,14.643c0,9.883,0,19.765,0,29.648
		c-1.122,2.26-0.969,4.783-1.333,7.173c-2.222,14.576-7.406,28.084-14.484,40.913c-11.033,19.999-25.901,36.809-43.344,51.388
		c-31.533,26.356-67.718,43.548-107.247,54.09c-12.841,3.424-25.967,5.385-39.004,7.827c-25.104,4.703-49.276,12.102-71.13,25.795
		c-6.107,3.827-11.93,8.056-16.486,13.744c-1.216,1.518-1.944,1.343-3.106-0.045c-1.7-2.03-3.267-4.239-5.661-5.583
		c-3.907-3.914-8.574-6.795-13.264-9.615c-15.419-9.273-32.135-15.33-49.442-19.975c-11.831-3.175-23.902-5.071-35.932-7.202
		c-22.24-3.94-43.72-10.4-64.479-19.283c-25.684-10.991-49.318-25.287-70.192-43.932c-19.199-17.149-34.967-36.895-44.981-60.848
		c-4.587-10.972-7.523-22.361-8.603-34.244c-0.211-2.322,0.221-4.779-0.866-7.008c0-0.648,0-1.296,0-1.944
		c0.53-0.993,0.121-2.062,0.251-3.087c-0.137-1.723,0.285-3.472-0.251-5.175c0-0.486,0-0.972,0-1.458
		c0.398-0.972,0.398-1.944,0-2.916C2.86,360.917,2.86,360.431,2.86,359.945z"/>
	<path fill="#FFFFFF" d="M5.63,358.061c0.598-26.126,8.206-50.177,21.633-72.478c6.48-10.763,14.749-20.004,24.003-28.482
		c13.388-12.266,24.234-26.437,30.856-43.529c7.941-20.495,7.845-41.216,1.272-61.989c-5.211-16.468-13.777-31.111-25.018-44.182
		c-1.455-1.692-1.579-2.724-0.181-4.604c20.839-28.037,41.586-56.144,62.318-84.26c1.053-1.428,1.928-1.851,3.75-1.161
		c27.675,10.476,56.085,18.316,85.168,23.806c26.369,4.977,52.924,8.07,79.762,8.52c24.565,0.413,49.012-1.029,73.352-4.529
		c37.438-5.382,73.901-14.504,109.279-27.896c1.454-0.55,2.087-0.199,2.929,0.944c21.023,28.511,42.076,57.001,63.167,85.462
		c0.945,1.275,0.878,2.013-0.151,3.208c-10.37,12.055-18.615,25.417-24.017,40.406c-12.082,33.523-6.751,64.339,14.711,92.558
		c4.865,6.397,10.238,12.357,16.255,17.669c18.627,16.448,30.835,36.945,38.489,60.364c3.961,12.117,6.437,24.501,6.812,37.284
		c0.524,17.863-3.939,34.56-11.828,50.415c-10.679,21.464-26.255,38.945-44.649,54.038c-27.675,22.708-59.163,38.137-93.247,48.563
		c-15.004,4.589-30.325,7.723-45.8,10.225c-26.503,4.284-52.212,11.168-76.086,23.856c-6.724,3.573-13.149,7.62-19.033,12.485
		c-0.696,0.576-1.23,1.37-2.418,0.416c-16.324-13.096-35.195-21.114-54.946-27.318c-14.584-4.581-29.53-7.565-44.61-9.976
		c-43.391-6.939-83.769-21.738-120.189-46.614c-17.14-11.707-32.419-25.495-45.085-42.031
		c-12.666-16.536-21.66-34.769-25.233-55.443C5.997,368.601,5.55,363.356,5.63,358.061z"/>
	<g>
		<path fill="#231F20" d="M164.214,180.403c-0.288,0-0.575-0.002-0.862-0.006c-32.93-0.455-59.406-27.681-59.021-60.693
			c0.186-15.928,6.62-30.871,18.116-42.075c11.485-11.192,26.579-17.219,42.472-17.01c33.163,0.469,59.812,27.513,59.405,60.287
			c-0.201,16.179-6.652,31.267-18.166,42.484C194.877,174.381,180.01,180.403,164.214,180.403z M164.067,64.664
			c-14.527,0-28.275,5.617-38.793,15.867c-10.72,10.447-16.72,24.377-16.893,39.221c-0.36,30.782,24.324,56.172,55.026,56.595
			c14.992,0.192,29.215-5.423,39.926-15.857c10.739-10.46,16.755-24.537,16.942-39.634l0,0c0.379-30.544-24.48-55.748-55.412-56.186
			C164.597,64.666,164.331,64.664,164.067,64.664z"/>
	</g>
	<g>
		<path fill="#FAEC24" d="M482.736,139.748c-0.839,0.444-1.26,0.656-1.67,0.885c-15.677,8.77-31.33,17.582-47.056,26.265
			c-2.05,1.132-2.727,2.375-2.724,4.711c0.137,101.084,0.198,202.167,0.269,303.251c0.001,1.607,0,3.215,0,4.952
			c0.553-0.107,0.866-0.145,1.166-0.228c16.719-4.663,32.848-10.852,48.412-18.546c1.76-0.87,1.687-2.074,1.687-3.546
			c-0.034-100.193-0.059-200.387-0.084-300.58C482.735,151.332,482.736,145.75,482.736,139.748z"/>
		<path fill="#FAEC24" d="M330.764,224.579c-1.996,1.1-2.582,2.32-2.58,4.512c0.074,91.615,0.084,183.23,0.11,274.845
			c0,0.595,0.099,1.19,0.176,2.061c16.594-7.078,33.596-11.88,51.068-15.528c0-97.745,0-195.217,0-292.977
			c-0.944,0.475-1.659,0.802-2.343,1.184C361.726,207.325,346.284,216.024,330.764,224.579z"/>
		<path fill="#FAEC24" d="M227.345,282.408c-1.622,0.896-2.229,1.834-2.228,3.728c0.059,67.699,0.051,135.397,0.053,203.096
			c0,0.715,0,1.431,0,2.312c17.67,3.949,34.769,9.201,51.343,16.686c0-84.473,0-168.637,0-253.051
			c-0.677,0.318-1.185,0.52-1.659,0.784C259.023,264.787,243.21,273.643,227.345,282.408z"/>
		<path fill="#FAEC24" d="M123.521,340.463c-1.377,0.762-1.435,1.737-1.436,2.978c-0.007,39.113-0.016,78.226-0.064,117.338
			c-0.002,1.483,0.367,2.315,1.853,2.898c10.306,4.041,20.504,8.365,30.879,12.216c5.946,2.207,12.159,3.698,18.556,5.602
			c0-56.454,0-112.484,0-168.617c-0.384,0.133-0.618,0.178-0.815,0.288C156.176,322.276,139.872,331.413,123.521,340.463z"/>
		<path fill="#FAEC24" d="M569.55,313.763c-6.38-15.599-16.665-28.366-28.777-39.814c-1.9-1.795-3.849-3.538-6.097-5.601
			c0,52.108,0,103.71,0,155.793c0.727-0.503,1.013-0.648,1.234-0.861c17.355-16.746,30.997-35.833,37.023-59.585
			C577.239,346.722,576.207,330.039,569.55,313.763z"/>
		<path fill="#FAEC24" d="M77.163,435.687c0-22.715,0-45.165,0-68.007c-13.854,7.752-27.427,15.346-41.005,22.944
			C44.287,404.436,67.325,429.77,77.163,435.687z"/>
	</g>
	<g>
		<path d="M572.395,306.208c-7.299-15.131-18.012-27.583-30.348-38.766c-9.454-8.57-18.079-17.875-25.169-28.527
			c-17.262-25.934-22.5-54.042-14.97-84.348c4.314-17.364,12.412-32.933,23.075-47.23c2.749-3.685,2.749-2.431,0.108-6.008
			c-17.313-23.448-34.667-46.865-51.951-70.335c-1.045-1.419-1.903-1.649-3.577-1.133c-16.761,5.158-33.439,10.646-50.37,15.182
			c-22.766,6.099-45.992,9.997-69.435,12.521c-16.766,1.805-33.571,2.349-50.438,2.491c-26.502,0.223-52.727-2.221-78.792-6.647
			c-30.599-5.196-60.548-12.971-89.786-23.429c-0.609-0.218-1.226-0.412-1.839-0.617c-0.287-0.286-0.575-0.571-0.862-0.857
			c-0.426,0.85-0.737,1.784-1.293,2.537c-17.511,23.705-35.032,47.403-52.607,71.061c-1.091,1.469-1.205,2.433-0.031,3.954
			c7.755,10.05,14.085,20.943,18.847,32.723c7.109,17.586,10.086,35.793,7.659,54.682c-2.708,21.079-11.512,39.595-25.251,55.574
			c-7.683,8.936-16.459,16.931-24.741,25.351c-11.42,11.609-20.841,24.569-26.511,39.967c-8.422,22.871-6.424,45.314,3.174,67.346
			c8.095,18.584,20.393,34.127,35.214,47.73c29.042,26.655,63.386,43.606,100.868,54.772c16.798,5.004,34.101,7.504,51.268,10.733
			c29.877,5.619,58.5,14.723,84.064,31.801c1.178,0.787,1.959,0.58,3.017-0.125c2.963-1.974,5.929-3.961,9.017-5.727
			c25.643-14.658,53.525-22.712,82.453-27.398c21.778-3.527,43.184-8.352,63.856-16.149c32.805-12.372,62.603-29.572,87.29-54.843
			c14.259-14.596,25.616-31.094,32.023-50.663C583.684,349.453,582.687,327.545,572.395,306.208z M454.091,123.192
			c-2.114,1.215-4.041,2.322-6.302,3.621c-7.471-13.165-14.873-26.208-22.431-39.526c2.287-1.287,4.394-2.601,6.631-3.636
			c0.524-0.243,1.627,0.284,2.225,0.757c5.268,4.163,10.481,8.395,15.714,12.603c0.472,0.38,0.966,0.734,1.86,1.409
			c-3.933-6.769-7.601-13.082-11.4-19.621c2.157-1.232,4.092-2.339,6.364-3.637c7.466,13.153,14.868,26.193,22.318,39.318
			c-5.69,4.161-5.689,4.159-10.592,0.185c-2.892-2.343-5.803-4.664-8.683-7.022c-2.808-2.299-5.588-4.634-8.627-7.157
			C445.523,108.139,449.728,115.526,454.091,123.192z M443.543,129.18c-2.605,1.482-5.041,2.868-7.748,4.409
			c-7.471-13.163-14.87-26.201-22.403-39.473c2.603-1.489,5.024-2.875,7.742-4.43C428.627,102.892,436.026,115.931,443.543,129.18z
			 M87.654,241.805c12.206-18.208,18.972-38.185,19.201-60.177c0.202-19.394-4.482-37.713-13.437-54.844
			c-3.736-7.147-8.3-13.868-12.617-20.701c-0.902-1.428-1.125-2.332-0.035-3.799c16.116-21.708,32.177-43.457,48.197-65.236
			c0.946-1.285,1.724-1.487,3.198-0.97c28.834,10.118,58.353,17.634,88.484,22.636c25.987,4.315,52.133,6.78,78.54,6.67
			c19.635-0.082,39.162-1.226,58.614-3.682c28.215-3.562,55.998-9.299,83.358-17.07c0.687-0.195,1.381-0.363,2.072-0.543
			c0.058,0.14,0.116,0.281,0.174,0.421C324.627,110.923,205.851,177.338,87.075,243.752c-0.12-0.089-0.241-0.178-0.361-0.267
			C87.026,242.924,87.298,242.336,87.654,241.805z M338.701,174.922c-0.173-7.111-0.829-14.211-1.295-21.315
			c-0.079-1.198-0.231-2.39-0.39-3.988c-3.491,1.942-6.697,3.726-10.061,5.598c-1.746-3.061-3.42-5.997-5.239-9.187
			c6.534-3.706,12.964-7.352,19.644-11.141c1.864,3.739,4.527,6.727,4.706,11.114c0.333,8.157,1.097,16.297,1.721,24.998
			c3.801-2.141,7.227-4.071,10.997-6.195c1.751,3.086,3.47,6.116,5.33,9.393c-6.982,3.959-13.768,7.807-20.799,11.794
			C341.443,182.322,338.809,179.326,338.701,174.922z M340.61,187.515c-2.559,1.455-4.987,2.835-7.735,4.397
			c-7.473-13.166-14.872-26.201-22.43-39.518c2.753-1.55,5.187-2.921,7.767-4.374C325.732,161.28,333.102,174.276,340.61,187.515z
			 M233.695,195.917c2.767-1.563,5.375-3.035,8.114-4.582c6.1,7.266,12.069,14.375,18.037,21.484
			c0.123-0.065,0.245-0.129,0.368-0.194c-2.031-5.85-4.057-11.701-6.095-17.549c-0.851-2.442-1.693-4.887-2.603-7.306
			c-0.445-1.183-0.236-1.935,0.957-2.519c1.572-0.769,3.07-1.692,4.896-2.714c4.915,14.722,9.738,29.168,14.633,43.828
			c-2.36,1.338-4.423,2.617-6.597,3.666c-0.567,0.274-1.799,0.118-2.183-0.318C253.438,218.605,243.726,207.431,233.695,195.917z
			 M249.783,231.655c-0.319,1.999-0.423,3.631-0.852,5.172c-1.507,5.415-6.896,8.567-12.298,6.996
			c-2.202-0.64-4.497-1.627-6.24-3.071c-8.445-6.999-13.469-15.977-14.594-26.966c-0.3-2.937,0.174-5.808,1.901-8.347
			c2.397-3.524,6.698-5.314,10.784-4.233c1.77,0.468,3.64,1.074,5.097,2.127C243.349,210.392,248.104,220.311,249.783,231.655z
			 M136.893,278.501c2.185,5.913,4.323,11.845,6.611,17.718c0.708,1.819,0.708,3.028-1.344,3.766
			c-0.896,0.322-1.701,0.899-2.712,1.45c-6.262-7.663-12.485-15.279-18.709-22.896c-0.124,0.079-0.248,0.158-0.372,0.238
			c4.75,8.398,9.499,16.796,14.351,25.373c-1.969,1.114-3.767,2.131-5.772,3.266c-7.469-13.164-14.843-26.158-22.374-39.432
			c3.349-1.895,6.615-3.743,10.023-5.672c4.882,5.936,9.651,11.735,14.42,17.534c0.135-0.061,0.27-0.123,0.405-0.184
			c-2.569-7.041-5.138-14.082-7.793-21.358c3.447-1.941,6.664-3.753,10.077-5.676c7.468,13.17,14.837,26.164,22.352,39.415
			c-2.354,1.34-4.573,2.605-7.117,4.053c-4.763-8.362-9.499-16.676-14.235-24.99c-0.141,0.063-0.282,0.126-0.424,0.189
			C135.151,273.698,136.007,276.105,136.893,278.501z M137.99,250.215c2.542-1.457,4.956-2.84,7.68-4.401
			c7.47,13.169,14.87,26.216,22.377,39.451c-2.589,1.474-5.022,2.86-7.679,4.373C152.883,276.451,145.507,263.457,137.99,250.215z
			 M86.528,261.454c4.248,1.698,8.179,3.268,12.788,5.11c-1.817,1.133-3.104,2.506-4.523,2.66c-1.424,0.154-2.98-0.908-4.788-1.546
			c-0.387,3.45-0.767,6.814-5.522,6.709C85.161,270.097,85.822,265.917,86.528,261.454z M77.23,435.547
			c-9.838-5.917-32.876-31.252-41.006-45.063c13.579-7.598,27.152-15.192,41.006-22.944C77.23,390.382,77.23,412.831,77.23,435.547z
			 M73.795,338.695c-1.021-0.972-1.988-1.892-3.044-2.896c-0.21,0.4-0.381,0.59-0.407,0.797c-0.844,6.781-6.269,10.18-12.574,7.5
			c-2.611-1.11-5.177-2.813-7.15-4.843c-6.284-6.468-10.468-14.203-11.809-23.174c-0.413-2.762-0.191-5.943,0.799-8.526
			c2.405-6.278,9.875-8.146,15.856-4.09c2.621,1.777,4.776,4.243,7.383,6.614c-2.567,2.05-4.692,3.747-6.867,5.484
			c-1.209-1.175-2.209-2.5-3.527-3.31c-0.956-0.587-2.628-1.014-3.436-0.555c-0.821,0.467-1.548,2.251-1.31,3.21
			c0.692,2.791,1.682,5.556,2.94,8.144c1.266,2.603,2.98,4.99,4.53,7.451c0.342,0.542,0.795,1.025,1.247,1.486
			c1.996,2.035,4.302,2.632,5.817,1.532c1.598-1.161,1.7-3.464,0.143-6.382c-1.355,0.705-2.557,1.331-3.996,2.08
			c-1.554-2.707-3.068-5.343-4.77-8.307c3.688-2.106,7.3-4.17,11.25-6.426c4.159,7.314,8.29,14.578,12.574,22.112
			C76.175,337.327,75.023,337.989,73.795,338.695z M103.47,321.861c-2.747,1.561-5.493,3.122-8.355,4.749
			c-4.094-4.366-8.069-8.605-12.126-12.932c-0.749,0.406-1.435,0.778-2.365,1.283c2.833,5.023,5.6,9.93,8.484,15.044
			c-2.537,1.441-4.98,2.83-7.681,4.364c-7.461-13.156-14.864-26.208-22.41-39.512c5.028-2.76,9.753-5.561,14.667-7.978
			c3.281-1.614,6.681-0.789,9.286,1.57c5.181,4.691,8.809,10.129,6.855,17.71c-0.177,0.686,0.424,1.847,1.02,2.414
			c4.336,4.128,8.763,8.159,13.161,12.222C103.828,321.15,103.649,321.505,103.47,321.861z M84.826,280.332
			c6.272-3.568,12.411-7.06,18.758-10.67c1.749,3.075,3.413,6.001,5.186,9.119c-3.764,2.167-7.375,4.246-11.168,6.43
			c1.087,1.921,2.066,3.653,3.156,5.579c3.089-1.715,6.021-3.342,9.104-5.054c1.681,2.959,3.27,5.757,4.957,8.726
			c-3.013,1.739-5.929,3.422-9.001,5.195c1.203,2.137,2.303,4.092,3.548,6.304c3.731-2.081,7.366-4.107,11.264-6.281
			c1.825,3.226,3.492,6.173,5.328,9.421c-6.22,3.537-12.361,7.029-18.746,10.66C99.764,306.642,92.388,293.652,84.826,280.332z
			 M173.377,481.354c-6.397-1.904-12.61-3.394-18.556-5.602c-10.375-3.851-20.573-8.175-30.879-12.216
			c-1.486-0.583-1.855-1.415-1.853-2.898c0.048-39.113,0.056-78.226,0.064-117.338c0-1.241,0.058-2.215,1.436-2.978
			c16.351-9.051,32.655-18.188,48.974-27.297c0.198-0.11,0.431-0.155,0.815-0.288C173.377,368.87,173.377,424.9,173.377,481.354z
			 M186.406,274.627c-2.381,3.876-7.443,4.978-12.118,3.199c-5.648-2.149-9.462-6.411-12.559-11.333
			c-4.045-6.43-7.336-13.187-6.63-21.114c0.71-7.976,8.063-12.228,15.339-8.917c5.703,2.595,9.447,7.228,12.521,12.455
			c3.178,5.404,5.726,11.055,5.831,17.498c0.207,0.077,0.413,0.154,0.62,0.232C188.439,269.325,187.867,272.249,186.406,274.627z
			 M221.115,253.182c-6.11-4.931-12.164-9.932-18.237-14.91c-0.4-0.328-0.825-0.625-1.518-0.704
			c4.086,7.199,8.173,14.397,12.367,21.786c-2.105,1.204-4.041,2.312-6.239,3.569c-7.468-13.157-14.837-26.141-22.386-39.441
			c2.561-1.451,4.873-2.76,7.303-4.136c6.344,5.096,12.641,10.154,19.237,15.453c-3.913-6.735-7.65-13.168-11.502-19.799
			c2.183-1.253,4.118-2.363,6.305-3.618c7.477,13.178,14.876,26.22,22.372,39.432c-1.949,1.107-3.642,2.219-5.472,3.016
			C222.788,254.072,221.689,253.645,221.115,253.182z M276.581,508.088c-16.575-7.485-33.673-12.737-51.343-16.686
			c0-0.881,0-1.596,0-2.312c-0.002-67.699,0.005-135.397-0.053-203.096c-0.002-1.894,0.606-2.832,2.228-3.728
			c15.865-8.765,31.678-17.621,47.51-26.446c0.474-0.264,0.983-0.466,1.659-0.784C276.581,339.451,276.581,423.615,276.581,508.088z
			 M295.254,213.015c-3.043,4.5-8.943,5.285-14.328,1.963c-2.704-1.668-5.275-3.839-7.284-6.292
			c-5.305-6.476-9.216-13.702-9.643-22.318c-0.09-1.826,0.097-3.751,0.598-5.504c1.52-5.315,7.068-8.376,12.424-6.93
			c1.54,0.416,3.079,1.05,4.443,1.874c8.518,5.14,16.277,19.083,16.258,29.043c0.216,0.082,0.432,0.164,0.647,0.245
			C297.363,207.756,296.805,210.721,295.254,213.015z M319.642,197.431c-3.721-3.816-7.348-7.723-11.057-11.659
			c-0.773,0.473-1.439,0.88-2.224,1.36c2.838,5.038,5.6,9.941,8.456,15.01c-2.643,1.483-5.085,2.854-7.728,4.337
			c-7.473-13.168-14.843-26.154-22.421-39.506c4.993-2.762,9.642-5.537,14.475-7.94c3.644-1.812,8.019-0.669,11.158,2.908
			c4.106,4.679,7.218,9.803,5.192,16.525c-0.172,0.572,0.477,1.586,1.009,2.144c4.176,4.391,8.417,8.721,12.844,13.281
			c-2.636,1.49-5.043,2.954-7.562,4.187C321.278,198.324,320.115,197.915,319.642,197.431z M379.605,490.329
			c-17.472,3.648-34.474,8.45-51.068,15.528c-0.077-0.87-0.176-1.466-0.176-2.061c-0.026-91.615-0.036-183.23-0.11-274.845
			c-0.002-2.193,0.584-3.412,2.58-4.513c15.521-8.555,30.962-17.254,46.431-25.902c0.684-0.382,1.398-0.709,2.343-1.184
			C379.605,295.111,379.605,392.584,379.605,490.329z M382.767,160.595c-1.525,6.095-7.374,9.287-13.343,7.305
			c-1.067-0.354-2.182-0.742-3.085-1.382c-10.782-7.641-16.879-17.959-16.728-31.304c0.086-7.547,7.263-12.105,14.252-9.264
			c2.971,1.207,5.885,3.196,8.09,5.526c6.549,6.918,10.676,15.111,11.462,24.826C383.206,157.734,383.116,159.197,382.767,160.595z
			 M408.59,148.894c-0.618,0.26-1.801-0.163-2.414-0.659c-6.419-5.187-12.774-10.454-19.151-15.692
			c-0.161-0.133-0.38-0.196-0.773-0.391c4.248,7.47,8.386,14.746,12.676,22.29c-2.11,1.214-4.096,2.357-6.325,3.639
			c-7.56-13.338-14.928-26.335-22.399-39.515c2.319-1.323,4.36-2.621,6.535-3.634c0.542-0.253,1.666,0.219,2.261,0.689
			c5.462,4.313,10.866,8.7,16.288,13.064c0.351,0.283,0.716,0.548,1.36,1.041c-3.884-6.673-7.567-12.999-11.449-19.669
			c2.149-1.221,4.139-2.352,6.398-3.634c7.488,13.189,14.892,26.23,22.419,39.488C412.104,146.995,410.422,148.124,408.59,148.894z
			 M421.227,141.84c-5.688-10.005-11.306-19.886-16.984-29.873c-1.77,0.947-3.384,1.811-5.188,2.777
			c-1.823-3.191-3.535-6.189-5.407-9.467c5.9-3.348,11.688-6.632,17.664-10.023c1.841,3.236,3.584,6.3,5.39,9.477
			c-1.745,1.052-3.251,1.96-5.052,3.045c5.625,9.942,11.212,19.816,16.911,29.889C426.095,139.069,423.8,140.375,421.227,141.84z
			 M481.2,460.898c-15.564,7.694-31.693,13.882-48.412,18.546c-0.3,0.084-0.612,0.121-1.166,0.228c0-1.737,0.001-3.344,0-4.952
			c-0.071-101.084-0.132-202.168-0.269-303.251c-0.003-2.337,0.674-3.579,2.724-4.711c15.725-8.682,31.379-17.495,47.056-26.265
			c0.41-0.23,0.831-0.441,1.67-0.885c0,6.001-0.001,11.583,0,17.165c0.025,100.193,0.05,200.387,0.084,300.58
			C482.888,458.825,482.96,460.028,481.2,460.898z M489.106,101.018c-1.537,5.149-6.869,8.12-12.074,6.717
			c-1.769-0.477-3.628-1.154-5.065-2.243c-9.752-7.391-15.286-17.157-15.889-29.481c-0.08-1.636,0.368-3.398,0.969-4.947
			c1.788-4.611,6.867-7.352,11.635-6.089c2.289,0.606,4.678,1.609,6.499,3.079c8.655,6.987,13.264,16.267,14.883,27.226
			C489.754,97.215,489.654,99.184,489.106,101.018z M573.001,363.554c-6.025,23.753-19.667,42.839-37.023,59.585
			c-0.221,0.213-0.508,0.359-1.234,0.861c0-52.083,0-103.685,0-155.793c2.248,2.062,4.197,3.805,6.097,5.601
			c12.112,11.448,22.397,24.215,28.777,39.814C576.274,329.898,577.306,346.581,573.001,363.554z"/>
		<path d="M303.507,169.13c-2.291-1.408-4.055,0.943-6.211,2.005c1.4,2.491,2.695,4.792,4.153,7.386
			c2.062-1.411,5.114-1.754,4.811-4.703C306.088,172.135,304.901,169.986,303.507,169.13z"/>
		<path d="M77.772,296.962c-2.403-1.341-4.132,1.119-6.217,2.073c1.491,2.611,2.808,4.92,4.253,7.451
			c1.971-1.527,5.172-1.813,4.847-4.887C80.479,299.925,79.198,297.757,77.772,296.962z"/>
		<path d="M363.359,136.07c-0.857-0.512-2.246-0.841-3.076-0.489c-0.8,0.339-1.186,1.655-1.445,2.06
			c0.055,1.03,0.017,1.367,0.098,1.672c1.811,6.839,5.122,12.866,10.142,17.843c0.77,0.764,2.758,1.198,3.603,0.733
			c0.826-0.455,1.115-2.233,1.253-3.473c0.099-0.892-0.272-1.942-0.717-2.77c-2.324-4.323-4.68-8.631-7.16-12.865
			C365.426,137.706,364.426,136.708,363.359,136.07z"/>
		<path d="M469.578,75.352c-2.121-1.312-4.183-0.17-4.159,2.323c0.011,1.183,0.197,2.497,0.74,3.52
			c2.488,4.683,5.072,9.319,7.763,13.887c0.583,0.989,1.653,1.806,2.675,2.397c2.086,1.205,4.131-0.079,4.196-2.81
			c-0.126-0.563-0.136-1.525-0.541-2.276c-2.671-4.958-5.378-9.899-8.196-14.774C471.519,76.691,470.52,75.935,469.578,75.352z"/>
		<path d="M229.542,211.716c-0.951-0.403-2.258-0.687-3.13-0.332c-0.73,0.298-1.056,1.588-1.348,2.079
			c0.13,1.185,0.101,1.858,0.286,2.467c1.858,6.128,4.973,11.564,9.172,16.382c0.417,0.479,0.942,1.006,1.516,1.176
			c0.942,0.279,2.233,0.706,2.886,0.293c0.776-0.49,1.246-1.759,1.449-2.771c0.161-0.802-0.086-1.831-0.488-2.577
			c-2.679-4.963-5.413-9.897-8.223-14.786C231.201,212.846,230.379,212.071,229.542,211.716z"/>
		<path d="M278.537,184.977c-0.318-0.352-0.747-0.629-1.17-0.857c-2.12-1.14-4.299-0.064-3.956,2.282
			c1.163,7.947,4.945,14.629,11.025,19.83c1.929,1.65,4.257,0.077,4.22-2.551c-0.031-0.19-0.046-0.436-0.111-0.668
			C286.631,196.213,283.259,190.217,278.537,184.977z"/>
		<path d="M170.327,247.434c-1.145-1.346-2.615-2.756-4.586-1.749c-2.03,1.037-1.33,3.041-1.15,4.769
			c0.041,0.393,0.161,0.807,0.351,1.152c2.596,4.708,5.161,9.434,7.863,14.081c0.54,0.928,1.509,1.787,2.483,2.229
			c0.913,0.414,2.259,0.592,3.111,0.205c0.737-0.335,1.049-1.608,1.395-2.202c-0.205-1.152-0.232-1.902-0.475-2.573
			C177.217,257.539,174.34,252.149,170.327,247.434z"/>
	</g>
	<g>
		<path d="M151.582,108.645c-1.231-2.568-4.203-2.524-5.544-0.001c-0.848,1.596-1.316,3.471-1.593,5.276
			c-0.388,2.531-0.441,5.113-0.649,7.831c-1.684,0-3.36-0.304-4.869,0.069c-2.416,0.597-0.819,2.537-1.161,4.032
			c2.23,0,4.229,0,6.106,0c0.741,2.34,1.146,4.523,2.104,6.426c1.324,2.628,4.321,2.575,5.725-0.031
			c0.711-1.321,1.286-2.859,1.389-4.336c0.287-4.101,0.527-8.234,0.323-12.331C153.297,113.232,152.603,110.773,151.582,108.645z
			 M148.819,130.457c-2.822-2.941-2.881-16.728-0.214-19.861C151.627,112.506,151.871,127.35,148.819,130.457z"/>
		<path d="M209.489,110.083c-0.358-1.681-1.346-3.164-3.434-3.214c-2.118-0.051-3.067,1.432-3.528,3.101
			c-1.934,7.002-1.91,14.051-0.012,21.056c0.46,1.696,1.499,3.137,3.548,3.114c1.935-0.022,2.984-1.402,3.341-3.02
			c0.76-3.449,1.249-6.958,1.85-10.45C210.67,117.056,210.226,113.538,209.489,110.083z M206.259,130.321
			c-3.067-1.751-3.289-17.02-0.286-19.734C208.827,113.083,209.027,126.84,206.259,130.321z"/>
		<path d="M185.6,106.847c-2.193-0.038-3.139,1.617-3.598,3.374c-1.791,6.858-1.764,13.764,0.012,20.616
			c0.452,1.743,1.458,3.364,3.656,3.304c2.054-0.056,3.047-1.578,3.408-3.27c0.72-3.379,1.159-6.817,1.726-10.301
			c-0.541-3.465-0.958-6.909-1.657-10.294C188.777,108.489,187.754,106.884,185.6,106.847z M185.814,130.314
			c-2.924-1.709-3.283-16.321-0.369-19.807C188.415,113.165,188.595,127.007,185.814,130.314z"/>
		<path d="M122.35,106.845c-2.188-0.04-3.146,1.597-3.61,3.35c-1.792,6.769-1.748,13.594-0.076,20.375
			c0.45,1.824,1.37,3.62,3.7,3.551c2.282-0.068,3.214-1.834,3.577-3.691c0.648-3.312,1.008-6.68,1.504-10.125
			c-0.506-3.339-0.883-6.706-1.569-10.01C125.508,108.529,124.522,106.884,122.35,106.845z M122.225,130.368
			c-2.762-2.68-2.841-16.634,0.005-19.877C125.322,113.541,125.235,127.973,122.225,130.368z"/>
		<path d="M163.024,112.11c-0.295-3.501-2.141-5.366-4.318-5.271c-2.012,0.088-3.513,2.151-4.092,5.364
			c-0.347,1.928,0.221,2.871,2.204,2.727c0.353-1.23,0.552-2.453,1.09-3.503c0.187-0.364,1.495-0.633,1.806-0.371
			c1.303,1.098,1.087,5.608-0.433,6.165c-2.472,0.905-1.665,2.565-1.683,3.625c1.213,0.64,2.675,1.009,2.719,1.504
			c0.209,2.331,0.082,4.7-0.068,7.046c-0.023,0.355-0.852,0.979-1.212,0.917c-0.516-0.089-1.171-0.605-1.362-1.097
			c-0.455-1.173-0.674-2.437-1.018-3.781c-0.806,0.2-1.496,0.371-2.883,0.714c0.797,2.294,1.226,4.458,2.261,6.276
			c1.373,2.413,4.265,2.482,5.785,0.158c0.981-1.5,1.601-3.355,1.931-5.135c0.491-2.654-0.367-5.123-1.178-7.726
			C161.869,117.458,163.237,114.632,163.024,112.11z"/>
		<path d="M178.804,120.382c1.622-3.784,1.954-7.709-0.071-11.466c-1.545-2.866-5.108-2.935-6.576-0.047
			c-0.943,1.856-1.219,4.051-1.818,6.178c1.228,0.281,1.923,0.441,2.921,0.669c0.129-1.154,0.03-2.118,0.376-2.88
			c0.391-0.863,1.181-1.544,1.798-2.304c0.564,0.709,1.617,1.431,1.6,2.125c-0.054,2.119-0.165,4.364-0.913,6.306
			c-0.977,2.537-2.773,4.749-3.868,7.253c-0.991,2.267-1.514,4.74-2.321,7.374c3.814,0,6.847,0,10.006,0c0-1.313,0-2.484,0-3.934
			c-1.986,0-3.801,0-6.065,0c0.634-1.228,1.048-2.06,1.49-2.876C176.515,124.649,177.854,122.599,178.804,120.382z"/>
		<path d="M197.179,106.815c-0.45,0.355-1.041,0.624-1.323,1.082c-0.842,1.365-1.321,3.033-2.387,4.162
			c-1.578,1.672-1.4,3.387-1.074,5.6c1.074-0.836,1.908-1.485,3.065-2.385c0,6.339,0,12.275,0,18.324c0.911,0,1.605,0,2.665,0
			c0-8.608,0.015-16.993-0.04-25.377C198.08,107.75,197.494,107.283,197.179,106.815z"/>
		<path d="M129.286,117.539c0.89-0.68,1.733-1.324,3.09-2.361c0,6.441-0.001,12.313,0.006,18.185c0,0.063,0.095,0.126,0.214,0.273
			c0.557,0,1.183,0,2.053,0c0-9.042,0-17.823,0-26.6C132.176,106.997,128.505,114.251,129.286,117.539z"/>
		<path d="M170.128,121.941c-1.973,0-3.828,0-5.781,0c0,1.382,0,2.554,0,3.853c1.979,0,3.841,0,5.781,0
			C170.128,124.429,170.128,123.251,170.128,121.941z"/>
	</g>
</g>
</svg>
