<?xml version="1.0" encoding="UTF-8"?>
<svg xmlns="http://www.w3.org/2000/svg" version="1.1" xmlns:cc="http://creativecommons.org/ns#" xmlns:dc="http://purl.org/dc/elements/1.1/" xmlns:inkscape="http://www.inkscape.org/namespaces/inkscape" xmlns:rdf="http://www.w3.org/1999/02/22-rdf-syntax-ns#" xmlns:sodipodi="http://sodipodi.sourceforge.net/DTD/sodipodi-0.dtd" xmlns:svg="http://www.w3.org/2000/svg" viewBox="0 0 700 700">
  <!-- Generator: Adobe Illustrator 29.1.0, SVG Export Plug-In . SVG Version: 2.1.0 Build 142)  -->
  <defs>
    <style>
      .st0 {
        fill: #12692c;
      }

      .st1 {
        fill: #fff;
      }

      .st2 {
        fill: #d8141d;
      }

      .st3 {
        fill: #2c4273;
      }
    </style>
  </defs>
  <g id="Layer_1" inkscape:export-filename="C:\Users\suitedoalex\sites\pachuca-logo-0.png">
    <g>
      <sodipodi:namedview id="namedview61" bordercolor="#666666" borderopacity="1" gridtolerance="10" guidetolerance="10" inkscape:current-layer="Layer_1" inkscape:cx="248.78905" inkscape:cy="354.57838" inkscape:pageopacity="0" inkscape:pageshadow="2" inkscape:window-height="837" inkscape:window-maximized="1" inkscape:window-width="1600" inkscape:window-x="-8" inkscape:window-y="-8" inkscape:zoom="0.57355633" objecttolerance="10" pagecolor="#ffffff" showgrid="false"/>
      <path id="path2-9" class="st1" d="M343.4,16.4c-101.9,69.3-120.8,69.3-243.8,69.3h-9.4v61.4c-1,203.2-1.9,413.3,254.2,537.9l4.1,2,4.1-2c258.3-123.5,256.2-332.9,254.1-535.4l-.4-63.8h-9.4c-113.5,0-128.1,0-243.3-69.7l-5.2-3.1-5,3.4Z" inkscape:connector-curvature="0" inkscape:export-filename="C:\Users\suitedoalex\sites\pachuca-logo-5.png" inkscape:export-xdpi="182.47403" inkscape:export-ydpi="182.47403"/>
      <path id="path4-54" class="st3" d="M343.2,3.5c-105.8,72-125.4,72-253.2,72h-9.8v63.8c-1,211-2,429.2,264,558.6l4.3,2.1,4.3-2c268.3-128.3,266-345.8,263.9-556.1l-.5-66.3h-9.7c-117.9,0-133,0-252.7-72.4l-5.4-3.2-5.2,3.5ZM349,23.2c116.2,69.8,138.1,71.8,247.8,71.9,0,13.4.3,47,.3,47,.2,18.5.4,37.2.4,55.9,0,84.7-3.9,169.8-29.7,246.2-35.1,103.9-104.9,178.4-219.2,234.1-113.4-56.2-182.8-131.1-218.1-235.5-27.9-82.5-30.9-174.9-30.9-266.1s0-24.8.1-37.2c0,0,0-31.1,0-44.3,119.5,0,145.7-1.9,249.2-71.9h0Z" inkscape:connector-curvature="0" inkscape:export-filename="C:\Users\suitedoalex\sites\pachuca-logo-5.png" inkscape:export-xdpi="182.47403" inkscape:export-ydpi="182.47403"/>
      <path id="path6-3" class="st3" d="M463.6,174.1c-2.1-3.9-3-10.8-2.8-20.8.2-8.2,1-14,2.7-17.5,2.4-4.6,5.5-6.5,9.7-5.6,1.8.3,3.4,1,4.9,2.5,1.3,1.3,2.7,3.1,3.6,5.3.6,1.2,1,3.3,1.6,5.9l16.1-2.8c-2-8.9-4.9-15.9-9.1-21-4.2-5.2-9.8-8.8-17.2-10.5-9.4-2.2-16.7,0-21.8,7-5.4,7.3-8.2,18.9-8.5,34.5-.2,11.9,1.3,21.6,4.3,29.3,2.8,7.6,6.3,12.9,10.3,15.9,4,2.8,9.2,4.3,15.6,4.3s9.5-1.2,12.9-3.3c3.4-2.2,6.2-5.4,8.5-9.5,2.2-4.1,4-9.4,5.1-15.5l-15.8-8.2c-.7,5.3-2.2,9.4-3.9,12.2-1.8,2.7-4.5,4-7.9,3.9-3.6-.3-6.3-2.2-8.2-6.1ZM546.8,199.3h18.9l-21-75.7-19.8-1.2-22.9,76.7h18.4l2.8-12.8h10.4c0,.1,10.3.4,10.3.4l2.8,12.5ZM159.4,171c7.1-.3,12.6-2.7,16.2-7.3,1.5-2.1,2.7-4.3,3.6-7,1.2-3.4,1.8-7.4,1.8-11.9s-.5-8-1.6-11.1c-.7-2.2-1.8-4-3.1-5.5-3.3-3.7-8-5.1-14.7-4.6l-4.9.2-25.3.7v74.8h18.1v-27.9l7-.3h3,0ZM222.1,199h19l-21.1-83-20.3,1.9-20.5,75.1-1.6,6.2h18.4l2.8-13.4,10.2-.4,10.3-.3,2.8,14ZM294.9,184.3c2.4-5.5,4.2-12.3,5.2-20.7l-15.9-6.7c-.7,6.5-2.1,11.6-3.9,15.2-1.6,3.4-4.3,5.3-7.9,5.5-3.6.3-6.2-1.5-8.2-5.4-2.1-3.7-3-10.8-2.8-21.4,0-8.6.9-15,2.5-19.3,2.2-5.9,5.4-9.5,9.5-10.6,1.8-.4,3.4-.2,4.9.8,1.5.9,2.7,2.5,3.7,4.6.6,1.3,1,3.6,1.6,6.5l16-9.8c-1.9-10.7-5.1-18.3-9.2-22.4-4.2-4-10-4.8-17.4-2.4-9.4,3-16.6,9.4-22,18.9-5.1,9.4-7.9,21.4-7.9,36.4-.2,11.1,1.3,20.4,4.3,27.3,2.8,7.3,6.4,12.3,10.4,15.3,4,2.8,9.2,4.5,15.6,4.5s9.5-1.3,12.8-4c3.4-2.8,6.2-6.8,8.5-12.3h0ZM364.6,198.5l.9-114-18.3-1.5-.3,40.4-19.6,1.2.3-39.7-18.1,4-.6,109.7h18c0-.1.1-46.1.1-46.1l19.6-.7-.2,46.7h18.1ZM432.7,159.4l.9-58.1-18-4.5-.9,62.1c0,5.6-.9,10.1-2.7,12.9-1.8,3.1-4.2,4.5-7.3,4.3-3.3-.3-5.6-2.1-7.4-5.5-1.6-3.3-2.7-8-2.5-13.8l.9-65.4-18.1-4.6-.7,66.6c-.2,5.5.4,11.9,1.6,19,.6,4.5,1.8,8.8,3.7,12.9,1.8,4.2,4,7.3,6.2,9.5,2.2,2.4,5.1,3.7,8.5,4.5,3.3.7,6.4,1.2,9.2,1.2,4.9,0,9.2-1.2,12.6-3.4,2.5-1.5,4.9-4.3,7.3-8.2,2.2-3.9,4-8.2,5.1-13.4,1-5.1,1.6-10.4,1.6-16.2h0ZM577.5,110l.8,101.1H118.7v-101.6c113.7,0,134.4.5,230.2-64.9,108.3,65.4,124.2,65.4,228.7,65.4h0ZM533.8,144.7l.6-2.2,5.8,27.8-6.4-.3-6.4-.3,6.4-25ZM156.4,138.9c2.4,0,4.2.7,5.1,2.1,1.3,1.5,1.8,3.6,1.8,5.9s-.6,4.5-2.1,6.1c-1,1.3-2.7,2.1-4.7,2.5-.9.2-1.6.2-2.5.3l-4.5.2v-16.8l5.2-.3c.6,0,1.2-.1,1.8,0h0ZM209,137.9l6.5,29-6.5.6-6.4.4,6.4-30Z" inkscape:connector-curvature="0" inkscape:export-filename="C:\Users\suitedoalex\sites\pachuca-logo-5.png" inkscape:export-xdpi="182.47403" inkscape:export-ydpi="182.47403"/>
      <path id="path8-8" class="st3" d="M432.6,543.4l-4.7-3-2.8-38.6-2.3-3.7-2.5-59.2-24-11.8,2.8-1.1s16.3,8.7,21.5,10.4c2.2-3.5,2.8-6.3,5.7-8,1.3-2.4-3.5-8.7-3.5-8.7l-8.7-20.8-4.3.9-3.1-26.2v-4.1c7.4-35.2,8.7-19.1-1.7-50l-29.5-6.9v-11.7l1.7-1.1c.6.6,6.3,5.2,6.3,6.3l-1.1.6c0,2.4,4.6,4.6,5.9,6.3h3.9c1.7-1.7,3.5-3.5,4.1-3.9,1.7,1.7,1.7,1.1,1.7,2.2.6,0-2.4,3.5-1.7,3.5l4.1-.5c1.1-1.3,4.6-5.2,1.1-8.2-1.1-4.6-5.2-6.3-5.8-9.8l-4.6-4.1v-11.5l-1.1-1.1v-2.4l-5.2-4.6c-2.4,0,0,0-5.2,1.7v.6c-.6,0-1.7.5-1.7,0s-.6-1.3,0-3c-.6-1.7-4.1-4.6-5.2-5.7l-3,2.2c-.5-1.1-1.7-2.2-2.2-1.1l-2.4,2.8c-1.7,0-1.7-5.2-1.7-6.3s-1.1-.6-1.1-.6v3l-3,5.7h-.5c-5.2-4.6-6.3-7.4-12.8-6.9l-3.9,3.5-1.1-1.1c-1.7,4.6-5.7,4.6-3.5,8,0,1.7,0,3.5-1.1,4.7-1.7.5-1.1,0-2.4-1.3-.5,1.3-1.1,1.7-2.9,3,0-.6-.6-1.3-1.1-1.3l-3.5,1.7h-.6c-1.7,1.3-2.8,1.8-4.1,2.8l-.5,5.2c-3,0-1.7,0-1.7.6,0,1.7-2.4.6-2.4.6,0,0-.6-2.4-1.7-.6,0,1.7,0,4.1,1.7,4.1,3.5,1.7,5.2,2.8,5.8,4.6,0,1.1-.6,5.2-.6,8l-5.2,3.5c0,1.3-1.1,1.3-1.1,1.3,0,1.1,2.2,2.8,2.2,2.8q0,1.1-1.1,1.7c-1.1,0-1.7-.6-2.4-.6s-1.7.6-1.7,1.7v8c0-3.5-.5,4-1.6,4l-4.1,2.4,1.1,8,1.3,1.7c1.7,1.1.5,5.2.5,5.2l-5.9,60.9-5.6.4h-1.1c1.1,1.7,1.1,4.1,1.1,5.2-.6,0-1.7,0-1.7.6l-1.7,1.1q0,1.3-1.1,1.3l-1.3,5.1-3.5,2.4v5.2l7.7,6.2-1.8,32-1.1,1.1-1.3,27.1-3.5,3.5-.5,8.7v.6l-1.3,17.8-1.1,11.7-4.1,3.9v12.8l89.5,5.3,60.7-5.9v-10.9ZM423.4,513.9l-.5,1.9-22.9-2.4.3,6.9h-4.7l1.3-9.1,26.5,2.7ZM418.9,502.6l-33.4-2.2,1.3-6.2,8.7,1.1,7.4,1.7.5,2.7,17.2.5-1.6,2.4ZM409.7,474.7l3.8,6.1,3.6,1.3.3,7.6-5.1-.5-4.6-.6,1.9-13.9ZM411.3,492.5l-15.5-.6-13.6-.9,3.8-5.5,7.6,4.3,9-.2,8.7,3ZM381.3,478.4v-37.1s5.4-12.3,5.4-12.3l1.8,5.5v46.4s-7.2-2.5-7.2-2.5ZM399.9,487.1l-9.7-.3v-10.5l9.7,1.7v9.1ZM397.1,438.7l2.8,6.3v29.4c0,0-9.7-1.8-9.7-1.8v-31.6l3.6-1.3,3.3-1ZM395.5,382.7c.8.9,1.9,1.7,2.7,2.4l-4.3,3.6-2.2-3.3,3.8-2.7ZM401.4,405.1l-9.8.2-7.6-.2,9.3-5.7c.8.8,7.1,4.9,8.1,5.7ZM383.5,365.5l.8-18.5,3.6,1.9.3,17.5.2,16.9c-1.4,1.3-3.3,1.6-5.2.6-.2-7.7.5-7.7.3-18.4h0ZM382,395.9c.8.8,1.7,1.6,2.7,2.4l-4.4,3.5-2.1-3.1,3.8-2.7ZM376.3,407.3l32.5-.8c.8.9-2.5,3.3-1.6,4.1l-35.5,2.7,4.6-6ZM305.3,430.5l-5.5-2.5,49.7-6.5h1.6c0-.1-.3,1.8-.3,1.8l-2,1.7-43.4,5.5ZM306.4,433.6l-3.6.8s-1.6,1.3-2.2,2.5c-.3,0-2.2-1.1-2.1-1.9.1-.2,4-3.6,4-3.6l4,2.2ZM319,408.7l6.1-4.5,8.5,2-8.3,8.2-6.3-5.7ZM341.9,472.1l.8-31.7,4.7-3.6,1.9-3.8,3.8,1.4v35.8s-11.2,1.9-11.2,1.9ZM353.1,473.4v11.8l-12.8.9.8-10.4,12-2.2ZM343.2,432.5c.3-.5,3.3-6.3,4.3-6l1,1.8-3.3,5.5-1.9-1.3ZM339.8,480l-.2,4.6-3.6-1.4-3.8,4.6-15.5-.2v-6.8l23-.8ZM315.2,439.8l-.2,12.6-2.8,1,.5-12.5h.6l1.3-1.9.6.8ZM311.9,461.1l1.9-4.2.9,1.9-.3,29.8-4.3,1.9.9-29,.8-.3ZM315.9,490.7l19.4-2.1,18-1.6-3.5,3-14.2,1.4-28.1,2.5,8.4-3.3ZM355.6,488l7.4.6,15.1.9-5.7,2.5-10,.8-11.8-1.6,4.9-3.3ZM354.8,336.8l4.7,2v34.3c-1.3,1.4-2.7,1.7-4.7.8v-37h0ZM354.8,375.8l4.7,1.5v23.8l-4.7,2.8v-28.1ZM364.1,402.4c.8.8,7.7,4.2,8.7,5l-9,4.9-6.3-5.5,6.6-4.4ZM359.5,486.5l-4.7-1.3v-51s2.7.9,2.7.9l2.1-3.8v55.2h0ZM362.4,486.7v-49.2s7.4-1.9,7.4-1.9l5.1-15.1,3.7,6v60.4s-16.3-.2-16.3-.2ZM365.5,307.3l7.9-3.8v9.1s-8.8,2.7-8.8,2.7l.9-8.1ZM316,318.1c.5,1.1.6,1,2.1.3l1.9.8,6-5.2,1.3.8,5.2-3.9c.6-.6-3.5-4.9-3.8-5.2l2.2-1.4,3.2,2.4,2.2,1.6,5.5-4c-.3-.9-4.9-4.3-5.8-5.4,1.4-1.9,2.5-1.9,3.9-3.3v.2l3.5,4.3v1.9c-.1,0,4.9,4.9,4.9,4.9l3.2-.2.8.9c-.5,2.5,6.5,2.2,9,1.3,1.1,0,2.2,0,3,.3-.6,7.4-10.6,4.1-10.6,10.7-1.4.2-6.6-3.6-5.5-6l2.1-2.5c0-.5-7.6-4.9-6.6-4.3-6.3-1.4-15,10.6-20,15.1l1.3,1.3s-1.4,1.7-1.6,1.9l-8.5.5s-.5-6.5-.5-6.8c.3-.6.9-1.1,1.9-.9h0ZM340.3,323.4l-2.2-1.1,2.2-3.2,2.4-.2c-.5,1.1-1.9,3.3-2.4,4.4h0ZM341.1,329.2c-.3,1-1.9,3.5-2.4,4.6l-2.4-1.1,2.4-3.3h2.4ZM343,323.4l.3-1,1.4-.9h.2c.5,0,.8.2,1.1.5l-1,1.1c-.2,0-.3,0-.5.2-.2.2-.3.5-.3.6-1,.5-1.1,1.1-1.7,1.9-.5-.2-.6-.6-.8-1.1,0-.6.8-.8,1.3-1.3h0ZM335.4,326.5l-1.6,1.9-2.5-3.2.6-2.5c.8.8,2.7,3,3.5,3.8h0ZM319.9,332.2c.8.8,1.4,9.3,2.2,10.1l-6.6.5-1.7-6,6.1-4.6ZM312.3,346.7l10.3,4.3-3.3,44-12,4.4,5-52.7ZM307.2,401.9l13.6-5.5,3.1-45.1s1.3-1.1.8-2.2c2.2-2.7,4-4.7,6.5-7.1-1.6-1.3-3.6-2.7-5.4-3.5.6-1.6-.5-6.3,1.6-6.8l10.6,9.5c1.3-.2.3-1.7.2-2.1l-6.2-4.6.6-.3c.9.2,2.3,1.4,4.3,2.1,3.2,1.1,7.6-1,8.8-2.2.3-.4,9.4-8.8,10.1-9.3,3.3,1.4,1.3,3.8,3.1,5.2,2.2-.9,2.7-1.6,4.4-2.5,5.1.8,5.1,1.9,9.3-.5l1.7.8c0,1,.5,69.1.5,69.1l-2.7,1.6c-.5.9-1.6,1.7-2.8,1.9-.6,0-.9-.6-1.3-.5-.6-.2-.6.5-1.1.8l-4.5-2.5v-63.8l-3.7-3.8-5.8,3.3-.6,18c-1.9-.8-2.7-2.7-3.9-4.1-1.6-1.4.3-4-1-5.4l-2.2-2.1c.6-1.7,2-2.1,2.7-3.8,1.1-.3,1.7-2.1.5-2.4-1.3.3-1.9,2.1-3,2.8-.6,1.1-1.3,1.6-1.9,2.4l.8,2.7,2.1,1.6-.3,2.7-2.7.8-.6-.9-4.9,4.1c-.2-.2-2.2-1.7-2.5-1.6-.6.8-6.3,5.5-7.4,7.9,0,.5.6.5.9.9.9,0,4.9-4.3,5.4-5.2l1.4,1.3c-3.2,3.3-5.4,7.2-8.5,10.6l-1,17.5-.5,7.1c.5.3,1.3.6,1.9.5.9-2.5.6-5.8.8-8.8.6-4.7,1.1-9.8,1.1-14.5l7.2-8.7.6.9c0,.3-2.8,6-3.1,6.2v18.3l-.2,6.6.3,1.1c1.3,0,5.1,0,6.6,1.1l-.6,3.2c-.2.3-.3.5-.5.9h-7.4c-.2.2-.2.3-.2.5,0,.5.5.9,1.1,1.3.8-.6,2.1-.6,2.8,0l1.3-.5,1.9.6-.2,1.1-1.4,3.8s-8.9-2.6-10.7-3.2c-1.8-.6-2.6-.6-3.8.3-1.1.8-16.2,12-17.1,12.8l1.1-10.5ZM349.1,399.2l-.8-.8-2.8-1.3.6-1.1c0-.3-.3-.5-.6-.6l-1.1.3c-.2.2-.2.6-.2,1-.2-.3-.2-.6-.6-.8.2,0,.6-.2.6-.6.2-.3-.2-.6-.5-.9h-.5l-.3-2.5c.3-.3,1.1,0,1.4-.5.3.2.3.3.6.5.8-.5,3.8-2.3,3.8-2.3v-29.1s-4-4.7-4-4.7l-.6-1.9,5.2,2.1-7.1-4.7c-.9.3-3,2.8-2.7,2.7l-1.7-.6,4.1-4.7,7.1,3.5,1.6,1.9c.2,0,.3.3.5.6l1,15-.2,30.6-2.8-.8ZM352,402.2l-.3,4.1-13.3-3.6,4.1-5.5c.8.9,8.5,4.4,9.5,5ZM339.4,375.7v10.4s-2.4,1.4-2.8,1.3l-1.1-21c1.7,3.6,2.4,5.5,3.9,9.3h0ZM291.4,425.1l33.8-24.9,32.7,9.5-4.9.3-28.1-6.9-33.6,24.8.2-2.7ZM291.7,429.5l5.8-1.2,3.5,2.3-3.8,3.3-5.5-4.4ZM298.7,440.7l2.8-.5,6-5.6,2.8,2.7-1.1,35.8-12.7,2.1,2.1-34.6ZM296.1,478.3l13-2.1-1.2,11.9-12.5.7.6-10.6ZM295.2,496.6l.3-4.8,11.7-1.1-2.5,5.4-2.1,3.3-10.4-.2,3-2.7ZM304.8,543c0,.8.2.3.2,1.4l-9.8.3-9.6-.9-.3-1.4,19.6.6ZM283.8,553.1v-3.3l22.4,1v3.4s-22.4-1.1-22.4-1.1ZM307.3,540.3l-15.2-3.6,15.2.6v3ZM306.9,532.2l-16.7.2,2.4-10.3,1.3-11.4,12.8.5,1.6,11-1.3,9.9ZM311.7,510.9l.2-5.7,4.9,1.3,16.3-.9,1.3,2.7-3,1.9-19.6.8ZM350.9,522.6l-1.4,9.9-18,.8.9-13.7,4.1-8.5,14.7,1.3-.3,10.3ZM359.5,553.9l-4.8.6v-47.6c0,0,4.8,1.1,4.8,1.1v45.8h0ZM377.2,554.8h-14c-.6-.5.8-.5,2.1-.6h14.3c-.5.1-.9.5-2.4.6ZM361.9,532.7l1.9-13.1,4.4-1.3-1.3-9.8,12,2.5.6,11,.8,11.4-18.4-.8ZM338.2,499.7l-32.5.8,12.6-5.5,21.8-1,41.2,1,1.3,5.4-44.3-.6ZM390.5,523.1l-.8,10.4-6.3.3,1.4-8.5,1.3-5.7,1.3-8.1h3.6c0,.1-.5,11.5-.5,11.5ZM401,540.9c-.2.5-.6.5-.8.9l-2.1.8h-.6c-.3,0-.5-.2-.6-.5l-2.1-1.4-.8-.9c.2,0,.3,0,.5-.2.3.2.6.2.8,0l.9.2c.2-.3.8,0,1.3,0,.2-.3.6,0,1.1,0,.3-.3.8,0,1.3,0,0-.2.2-.2.5-.2l.6.6s0,.5,0,.6h0ZM429.4,552.9l-25.9,2.2-.9-6.1,9-.3,10.7.6,7.6.2-.5,3.5Z" inkscape:connector-curvature="0" inkscape:export-filename="C:\Users\suitedoalex\sites\pachuca-logo-5.png" inkscape:export-xdpi="182.47403" inkscape:export-ydpi="182.47403"/>
      <path id="path10-7" class="st3" d="M176.2,332.2l-.2-5.6c2.9-2.3,4.9-4.7,6.2-7.3,1.3-2.6,1.8-5.6,1.7-8.9-.2-5.3-2.4-9.6-6.4-13.2-4.1-3.5-8.8-5.2-14.3-4.9-5.5.2-10.2,2.3-13.9,6.2-3.7,3.9-5.5,8.5-5.2,13.7.1,3.3.9,6.2,2.4,8.7,1.5,2.5,3.6,4.7,6.4,6.5l.2,5.5c-4.2-2-7.4-4.8-9.7-8.3-2.3-3.5-3.6-7.6-3.8-12.3-.3-6.7,1.8-12.5,6.4-17.3,4.5-4.8,10.3-7.3,17.3-7.6,3.3-.1,6.4.3,9.4,1.5,3,1.1,5.7,2.8,8.2,5.1,2.4,2.2,4.2,4.6,5.4,7.3,1.3,2.7,2,5.7,2.1,8.9.2,4.7-.8,8.9-2.9,12.7-2.1,3.8-5.2,6.9-9.3,9.3h0Z" inkscape:connector-curvature="0" inkscape:export-filename="C:\Users\suitedoalex\sites\pachuca-logo-5.png" inkscape:export-xdpi="182.47403" inkscape:export-ydpi="182.47403"/>
      <path id="path12-6" class="st3" d="M189.6,340.7l.6,4.6-42.1,5.2,2,16.4-4.5.6-2.6-21,46.6-5.7Z" inkscape:connector-curvature="0" inkscape:export-filename="C:\Users\suitedoalex\sites\pachuca-logo-5.png" inkscape:export-xdpi="182.47403" inkscape:export-ydpi="182.47403"/>
      <path id="path14-9" class="st3" d="M193.4,370.2l1,4.5-27.7,5.8c-3,.6-5.1,1.2-6.4,1.8-1.3.5-2.3,1.2-3.2,2-1.3,1.3-2.2,2.7-2.7,4.4-.5,1.6-.6,3.3-.2,5.1.4,1.8,1.1,3.4,2.3,4.7,1.1,1.3,2.5,2.3,4.2,2.9,1.1.4,2.4.6,3.8.6,1.4,0,3.6-.4,6.5-1l27.7-5.8.9,4.4-29.3,6.2c-6,1.3-10.7,1-14.1-.7-3.4-1.8-5.6-5.1-6.7-9.9-1.1-5.1-.5-9.2,1.9-12.3,2.4-3,6.6-5.2,12.7-6.5l29.3-6.2Z" inkscape:connector-curvature="0" inkscape:export-filename="C:\Users\suitedoalex\sites\pachuca-logo-5.png" inkscape:export-xdpi="182.47403" inkscape:export-ydpi="182.47403"/>
      <path id="path16-3" class="st3" d="M182.5,428.6c1.2,3.5,1.4,6.4.5,8.7-.8,2.2-2.6,3.8-5.5,4.8-2.8.9-5.2.8-7.2-.5-1.9-1.3-3.5-3.7-4.7-7.3l-2.1-6.2,16.9-5.6,2.1,6.2ZM201.3,420.4c1.1,3.3,1.3,6,.6,8.1-.7,2.1-2.3,3.5-4.7,4.3-2.8.9-5,.7-6.8-.6-1.8-1.3-3.4-4.1-4.8-8.4l-.9-2.7,15.1-5,1.5,4.4ZM158,425.3l3.3,9.9c1.7,5.1,4.1,8.6,7.3,10.4,3.2,1.8,7,2,11.5.5,2.5-.8,4.5-2.1,5.9-4,1.4-1.8,2.2-3.9,2.1-6.2,1.4,1.2,2.9,1.9,4.6,2.1,1.7.3,3.5,0,5.4-.5,3.7-1.3,6.2-3.4,7.6-6.6,1.4-3.1,1.3-6.8,0-11l-3.2-9.5-44.6,14.9Z" inkscape:connector-curvature="0" inkscape:export-filename="C:\Users\suitedoalex\sites\pachuca-logo-5.png" inkscape:export-xdpi="182.47403" inkscape:export-ydpi="182.47403"/>
      <path id="path18-0" class="st3" d="M225,474.9c2.8,4.9,3.6,9.6,2.4,14.2-1.3,4.5-4.4,8.2-9.4,11.1-5.1,3-9.9,3.9-14.5,3-4.6-1-8.3-3.8-10.9-8.3l-5.5-9.4,33-19.1,5,8.6ZM180.9,483.8l6.1,10.6c2.1,3.7,4,6.3,5.7,7.9,1.6,1.6,3.6,2.9,5.9,3.9,3.5,1.5,7.1,2.1,10.8,1.9,3.7-.3,7.3-1.5,10.9-3.5,6-3.5,9.7-8.2,11.3-14.1,1.6-5.9.6-11.9-2.9-18l-7.1-12.2-40.6,23.6Z" inkscape:connector-curvature="0" inkscape:export-filename="C:\Users\suitedoalex\sites\pachuca-logo-5.png" inkscape:export-xdpi="182.47403" inkscape:export-ydpi="182.47403"/>
      <path id="path20-8" class="st3" d="M245.4,498.9l15.3,19.1-3.5,2.8-12.4-15.4-13.1,10.4,12.3,15.4-3.5,2.8-12.3-15.4-13.2,10.6,12.3,15.4-3.5,2.8-15.2-19,36.7-29.4Z" inkscape:connector-curvature="0" inkscape:export-filename="C:\Users\suitedoalex\sites\pachuca-logo-5.png" inkscape:export-xdpi="182.47403" inkscape:export-ydpi="182.47403"/>
      <path id="path22-9" class="st3" d="M510.1,309.7v-4.6c.1,0,42.6,1.2,42.6,1.2l.5-16.5h4.5c0,.1-.6,21.3-.6,21.3l-47-1.4Z" inkscape:connector-curvature="0" inkscape:export-filename="C:\Users\suitedoalex\sites\pachuca-logo-5.png" inkscape:export-xdpi="182.47403" inkscape:export-ydpi="182.47403"/>
      <path id="path24-9" class="st3" d="M518,333.9c4.3-3.3,9-4.7,14.3-4.1,5.7.6,10.2,3,13.7,7.1,3.5,4.1,4.9,8.8,4.3,14.1-.6,5.4-3,9.7-7.3,13-4.2,3.3-9.1,4.6-14.7,4-5.5-.6-9.9-3-13.4-7.1-3.5-4.1-4.9-8.8-4.3-14,.6-5.3,3-9.6,7.3-13ZM507,355.5c.8,2.9,2.2,5.6,4.2,8.1,2.1,2.7,4.5,4.8,7.3,6.4,2.8,1.6,5.8,2.5,9.1,2.9,7,.8,13-.8,18.3-4.9,5.2-4,8.2-9.4,9-16.1.4-3.5.1-6.8-.9-10-1-3.2-2.7-6.1-5-8.7-2-2.3-4.4-4.1-7-5.5-2.6-1.3-5.6-2.2-8.9-2.6-3.3-.4-6.5-.1-9.6.8-3,.9-5.8,2.4-8.4,4.5-2.5,2.1-4.5,4.4-6,7.1-1.5,2.7-2.4,5.6-2.7,8.9-.4,3.2-.1,6.3.7,9.2Z" inkscape:connector-curvature="0" inkscape:export-filename="C:\Users\suitedoalex\sites\pachuca-logo-5.png" inkscape:export-xdpi="182.47403" inkscape:export-ydpi="182.47403"/>
      <path id="path26-8" class="st3" d="M522.8,401.8c.9-3.6,2.2-6.2,4.1-7.6,1.9-1.5,4.2-1.9,7.1-1.2,2.9.7,4.9,2.1,5.8,4.2,1,2.1,1.1,5,.2,8.7l-1.5,6.4-17.3-4.1,1.5-6.3ZM502.5,398.9c.8-3.4,2-5.8,3.7-7.2,1.7-1.4,3.8-1.8,6.3-1.2,2.8.6,4.7,2,5.5,4,.8,2.1.7,5.3-.4,9.7l-.6,2.8-15.5-3.6,1.1-4.5ZM541.9,417.5l2.4-10.2c1.2-5.3,1-9.5-.7-12.7-1.7-3.2-4.9-5.4-9.5-6.5-2.6-.6-5-.5-7.1.3-2.2.8-3.9,2.2-5.1,4.2-.6-1.7-1.5-3.1-2.8-4.2-1.3-1.1-2.9-1.9-4.9-2.4-3.8-.9-7.1-.4-9.9,1.6-2.8,1.9-4.7,5.1-5.7,9.3l-2.3,9.8,45.8,10.8Z" inkscape:connector-curvature="0" inkscape:export-filename="C:\Users\suitedoalex\sites\pachuca-logo-5.png" inkscape:export-xdpi="182.47403" inkscape:export-ydpi="182.47403"/>
      <path id="path28-8" class="st3" d="M485.5,439l7.8-22.3,4.4,1.5-3.1,9,40,13.9-1.5,4.4-40-13.9-3.1,9-4.4-1.5Z" inkscape:connector-curvature="0" inkscape:export-filename="C:\Users\suitedoalex\sites\pachuca-logo-5.png" inkscape:export-xdpi="182.47403" inkscape:export-ydpi="182.47403"/>
      <path id="path30-8" class="st3" d="M468.2,475.5l2.1-4.2,25.3,12.7c2.7,1.4,4.7,2.2,6.1,2.6,1.3.4,2.6.5,3.7.4,1.8-.2,3.4-.8,4.8-1.8,1.4-1,2.5-2.3,3.3-3.9.8-1.7,1.2-3.4,1.2-5.1,0-1.7-.6-3.3-1.5-4.8-.6-1-1.5-1.9-2.6-2.8-1.1-.8-3-1.9-5.7-3.3l-25.3-12.7,2-4.1,26.8,13.4c5.5,2.8,9,5.8,10.6,9.4,1.6,3.5,1.3,7.5-.9,11.9-2.4,4.7-5.4,7.5-9.1,8.4-3.7.9-8.4,0-13.9-2.8l-26.8-13.4Z" inkscape:connector-curvature="0" inkscape:export-filename="C:\Users\suitedoalex\sites\pachuca-logo-5.png" inkscape:export-xdpi="182.47403" inkscape:export-ydpi="182.47403"/>
      <path id="path32-2" class="st3" d="M448.6,505l13.3-19.1,3.8,2.7-10.7,15.4,13.5,9.4,10.7-15.4,3.8,2.7-10.7,15.4,17.5,12.1-2.6,3.7-38.6-26.8Z" inkscape:connector-curvature="0" inkscape:export-filename="C:\Users\suitedoalex\sites\pachuca-logo-5.png" inkscape:export-xdpi="182.47403" inkscape:export-ydpi="182.47403"/>
      <path id="path44-7" class="st3" d="M118.5,253.8c4.2,186.3,47.1,313.2,230.2,401.7,183.8-87.2,226.3-214.3,229.7-401.7H118.5ZM348.7,651c-179-86.6-220.9-210.6-225-392.7h449.6c-3.3,183.3-44.9,307.5-224.5,392.7h0Z" inkscape:connector-curvature="0" inkscape:export-filename="C:\Users\suitedoalex\sites\pachuca-logo-5.png" inkscape:export-xdpi="182.47403" inkscape:export-ydpi="182.47403"/>
      <rect id="rect46-7" class="st0" x="117.8" y="220.3" width="166.3" height="25" inkscape:export-filename="C:\Users\suitedoalex\sites\pachuca-logo-5.png" inkscape:export-xdpi="182.47403" inkscape:export-ydpi="182.47403"/>
      <rect id="rect48-2" class="st2" x="411.3" y="220.3" width="166.3" height="25" inkscape:export-filename="C:\Users\suitedoalex\sites\pachuca-logo-5.png" inkscape:export-xdpi="182.47403" inkscape:export-ydpi="182.47403"/>
    </g>
  </g>
</svg>