<svg id="Layer_2" data-name="Layer 2" xmlns="http://www.w3.org/2000/svg" xmlns:xlink="http://www.w3.org/1999/xlink" viewBox="0 0 895 600"><defs><style>.cls-1,.cls-6{fill:none;}.cls-2{clip-path:url(#clip-path);}.cls-3{fill:#00ab39;}.cls-4{fill:#fff;}.cls-5{fill:#d21034;}.cls-5,.cls-6,.cls-7{stroke:#000;stroke-width:1.8px;}.cls-6,.cls-7{stroke-linejoin:round;}.cls-8{fill:#939598;}</style><clipPath id="clip-path"><path class="cls-1" d="M34.72,0H859.28A30.82,30.82,0,0,1,890,30.93V569.07A30.82,30.82,0,0,1,859.28,600H34.72A30.82,30.82,0,0,1,4,569.07V30.93A30.82,30.82,0,0,1,34.72,0Z"/></clipPath></defs><title>País de Gales</title><g class="cls-2"><rect class="cls-3" width="895" height="600.3"/><rect class="cls-4" width="895" height="300.15"/><path class="cls-5" d="M616.88,35.6l0,.07.11-.07Zm0,.07c-63,34.83-119.34,71.06-174.75,117.23C415.51,176.13,423,194.65,422,215.51c.86,14-3,27-11.64,34.88l-59.14,12c-1.89-5.45-3.76-10.9-5.65-16.35,1.8-8.37,8.72-12.48,23.28-7.23,1.15-10.76-7.51-15.14-17.63-18.87-3.48-2.71-7.79-4.79-7.23-14.09-1.7-21.06,32.08,1.5,32.39,1.5s-1.12-21.24-16.64-25.5c-8.47-3-12.05-11.92-8.82-18.53,6.77-13.51,19.52,1.06,29.27,1.58-.37-8.82-2.88-15.11-10.47-22.22-4.09-2.52-14.13-4.41-14.39-8.63-.21-5.73,9.41-8.18,22.64-6.59-2.76-8-11.66-13.22-23.89-17l-7.23-12.58c-3.42-6.34-5-6.51,3-18.54,7.13-4.61,16.6-11.13,23.73-15.74l-7.87-.94c1-8.6,1.16-11.49,3.16-25.77-7.65,10.45-17.21,8.58-25.8,12.88,0,0-24.51,4.35-32.4,14.77-.31,0-61.63-3.13-61.63-3.13-13.06,1.82-24.22,5.53-26.4,18.23-29.89,3-61.18.35-84,28.93,15.52-.73,29.1-4.42,46.52-2.18,0,0,14.86.28,17.94,16,.31.63,5,.64,5,.64l5.65,4.41c.74-2,1.46-4,2.19-6l5.05,3.46c.52-2.2,1.06-4.39,1.58-6.59,1.68,1.15,3.33,2.31,5,3.47.1-2.62.23-5.26.34-7.88l6.59,4.71V108.26s24.34-.05,31.76,15.41c.31.31-68.31,12.61-134.6,6.93,6.4-3.14,12.78-6.31,19.18-9.45C126.71,116.23,104,111.79,82.66,95c8,30.3,49.64,65.89,58.16,65.73,0,.32-8.18-14.76-8.18-14.76q36,1.58,72,3.12c2.62,8,1.46,16.9,7.87,23.93,0,0-4,13.16,4.86,18.53.32.63,10.55-26.71,10.55-26.71a98.88,98.88,0,0,0,6.29,12.24c4.57-23.51,30.17-27.35,30.17-27.35s5.35,12.27,5.35,12.59c-8,1.15-17.95,17.46-12.58,26.4-5.37.11-14.89,15.9-11.94,24.53-4.51,4.48-15.74,10.47-12.89,29.26-8.84,1.9-14.07,18.08-11.33,35.23-13.68,12.73-10.33,36.11,1.88,45.58-5.07,4.5-8.19,8-8.17,13.52-4.82-1.79-9.26-.29-11.34,2.86-5.91-6.05-14.38-11.35-20.42-5.69-1.56-7.16-10.89-15-21.09-14.12a19.22,19.22,0,0,0-14.13-20.15s-2.19-35.39-12.92-46.87c-1.05-6.42.61-10.78,9.45-16,8.83-4.71,10.71-8.36,10.06-21.7,3.48-8.92,6.13-18-4.71-24.18.33,10.6-2.93,15.7-7.23,20.41-5.14-.75-6.94,5.26-10.4,7.88-4.84-6.53,10.22-16.64-.94-31.16-.63-.63-7.78-19-25.46-18.53,8.4,4.92,12,13.2,11.94,21.7-5.58,15.72-8.41,27.87-2.83,45.92-7.34-11-11.51-31.93-17.59-35.56-5.33-1-7.93-13.65-28.63-10.06,8.93,2.4,11.76,9.22,14.17,15.41-5.48,2.82-2.76,10.26,1.24,15.4-.76,12.07,6.47,19.13,17.29,23.62q-2.67,24.69-5.35,49.35c-4.3-.55-10.91,16.18-13.52,16.68-4.21,2.62-11.55,9.66-3.13,11.64-2.5,9-4.82,14.48-18.27,16.35,0,0,14.21,8.43,26-6,12.63-.31,8.48-15.37,14.58-22,0-.31,3.47-2.49,8.51-15.74,2.21,11.84,14.36,48.08,41.82,66.07,23.93,25.62,43.6,49.82,43.39,84,9.34-8.69,14.92-22.45,19.21-35.56,13-4.52,31.58-6.25,48.15-5.5-2.85,6-6,11.71-1.93,15.59-11.56,4-14.09,12.37-9.45,20.76C239,449.92,238.2,455.23,238,469c-22.56,28.91-36.47,27.95-58.81,20.45-7.33-4.31-18.69-10.5-23.92-7.23-9.64-6.43-23.52-7.39-25.8,7.23,7.24-6,11.56-4.84,17.33.94-1.16,2.94-2.13,5.86,2.18,7.54-1.89,2.09-3.76,4.19-5.65,6.29-10.38-1.6-24.34-1.51-28,13.52,5.34-4.42,17.17-5.45,26.71-1.24l5.35,1.88c.21,2.41.43,4.82.64,7.23,0,0-14.14-2.18-17.93,20.76,13.26-14.11,22.64-10.4,22.64-10.4,5.11,7.48,23.92,6.36,37.44-6,19-10.62,24.54,4.64,36.81-5.35,10.16-7.58,22.2-2.54,30.47,6.29,9.54,3.58,19.53,6.53,27.39,0,0,0,9.59-6.12,19.17,3.77.1-11.15-7.8-17.08-18.53-17.29l-3.17-3.17C272.28,512.17,261,513,252.17,508c4.15-15.75,10.19-30,22-42.15,14.57-15.62,25.3-22.72,43.69-46.63-.71,13.51,9.65,28.54,15.11,42.26,0,0,11-17.54,12.58-31.79.32,0,13.77-7,19.51-13,12.13,7.52,31.88-6,44.64-17.21,7.87,3,13.84,2.76,23,0-7.34,14.93,4.25,28.79,22.64,34.58,1.7,13.18,15,15.94,35.22,16,.85,7.76,12.88,8.82,12.88,8.82-7.6,3.54-11.56,7.09-11.3,15.1-7.79.06-13.69,2-15.74,11-10.7.19-21.61,1-30.82,6.29-9.85-1.53-21.84-5.61-29.57-13.52-4-3.35-5-8.19-11.94-10.06-4.41-5.21-9.69-4.05-11.34.94-4.56-3.56-21.66-5.21-24.52,11,8-5.84,15.15-8.07,20.15-.94-2.72,4.95,6.65,7.78,14.77,9.76,5.76.36,16,5.6,19.17,14.46-7.42,2.26-18.67,1.51-26.1-4.1-6.6-5.53-15.52-4.87-20.42-1.25-6.8-4.33-23,3.85-23.62,17,6.82-6.25,13-9.28,19.22-5.32-3.08.73-1.91,1-1.59,2.83l15.71,9.12c-7.71,2-15,5.1-11.6,19.47,0,0,6.28-12.41,20.42-7.84.31-.31,1.94,4.44,6,1.25,6.11-7,20.1-10.08,32.39-11.3,9.86-1.18,19.71-4.08,28.29,1.54,7.64-3.93,16.15-6.57,24.86-.3,10.28,3.25,17.78,15.23,30.82,9.76,6.48-4.49,14.45-4.72,22.64,4.4.1-11.5-8.52-15.35-20.76-17.93-2.83-1.68-5.64-3.37-8.48-5-7.86-1.16-15.75.24-23.61-3.47,41.14-10.64,70-33.58,90.29-66.34l19.47,6.9c4.61.29,5,1.9,14.47,4.75.36-14-5.65-28.43-30.81-29.88l-33-12.58c-7-7.39-10.18-23.08-1.24-32.39,8.74-7.79,10.27-6.86,16-16.35,7-.64,13.64,6.59,20.12,6.59,3.08,9.14,20.82,17.23,32.09,14.46,7.07,6.26,20.5,9.73,35.22,4.71,8.36,7.32,19.24,10.37,32.06,4.71,3.4,3.41,10.59,6.11,18.87,4.41.63,0,4.19,9.09,13.23,12.28-3.94,3.83-1.52,20.45,2.52,26.4-2.76,6.4-3.63,13.21-1.28,19.82-9.11,5.86-11,10.22-6.9,20.12-11.93,19.17-26.2,21.36-39.62,15.44-4.83-3-9.64-6.11-14.47-9.15-5.14-5-10.27-10-15.41-15.07-2.61-2.46-8-3.23-9.15,2.18,0,0-19.77-4.41-21.36,12.28,8.2-8,19.82-.95,19.82-.64s-2.77,2.2-.64,5.39c.48-.4,14.43,5.21,26.85,10.55a75.24,75.24,0,0,1,11.19,4.93c-3.23-1.48-7.06-3.16-11.19-4.93-7.56-2.87-14.93-5.16-17.1-4.6-7-.66-14.5-1.53-17.93,3.77-7.57,3.2-19.39,5.76-18.87,19.81,5.11-8.36,12.12-8,21.06-7.23-.21.63-.4,1.25-.61,1.88,9.71,4.42,7.87-1.2,16.92-2,7.56-.7,18.29,2,24,3.92-7.13,2.09-16.83,1.21-21.4,6.29-.84,1.68-3.78,1-2.49,5,0,0-13.9-.36-17.63,18.87,14.14-9,24.85-8.78,25.17-8.78s4.4.94,4.4.94,17-11.33,17.29-11.33,16.44-7.14,23.89.94c6.49,3.19,13.44,3.39,20.15-.64,13.22-5.75,25.59-6.15,37.75,1.92l11,6.59c1.58-1,3.14-2.12,4.71-3.16a21.53,21.53,0,0,1,21.59,7.57c-3.78-19.19-17.48-19.82-17.48-19.82l-3.17-2.82c-6.49-2.52-13-5.06-19.47-7.57-2.84-7-10-12.62-2.86-21.06,7.25-36.07,15.93-63.17,1.88-99.71,13.1,5.66,22.91,23.16,39.33,17,0-14.68-54-42.55-95.31-64.94C756,337.68,837.23,287.76,806,224.32q7.38-22.95,14.76-45.92c7,14,21,24.69,33.68,29.24C844,187.75,838,127,844,85c-27.25,33.66-57.33,63.53-89.31,93.88,15.73,3.67,29.47,1.09,44.67-.8-4.3,8.81-8.47,17.64-12.77,26.45-41.55-24.34-90.34-6.07-90.71,26.41,1.43,37.87,48.25,43.25,75.27,30.05-5.36,34.54-84.72,21.82-84.72,21.82-28.2-9.72-55-8.06-84.61-7.84,6.16-18.94,40.34-35.74,66.38-28.33-36.46-40.87,5.15-91.62,55.33-107.24-54.69-18-7.6-59.74,33.34-89.62,0,0-117.72,49.55-128.45,49.39C595,96.63,604.09,57,616.85,35.67ZM247.35,83.25a39.07,39.07,0,0,1,8.51.91c5.31,1.29,11.77,2,11.68,3.61-2.46,4.11-8.5,9.08-14.43,8.78s-9.36-3.86-11.34-12.77A18,18,0,0,1,247.35,83.25ZM742.89,222.93c7.72-.11,17,3.16,26,12.73-4.34,12.5-42,18.92-44.52.42-.77-5.6,7.25-13,18.53-13.15Z"/><path class="cls-6" d="M286.23,192.52l5.71,8.3m-.25.27s0,11.16,2.33,11.42m-5.19,6c.26.26,6,9.86,6,9.86m-16.36,2.6c.26,0,7.27,8.05,7.27,8.05m6.09-6.25c0,.26,6.63,12.74,7.15,12.74m-15.83-4.16s2.34,15.06,4.41,14.54m-14.22,13.05L280,279m5.71-20.77s3.64,14.28,6.49,13m2.85-21.56c.26.26,6.76,9.62,8.58,8.32m-1.56,3.63L308.3,274m-16.61-2.85c.25.52,5.19,14.8,5.19,14.8m-17.14-7.27s4.68,15.83,8.83,13.23m-10.64,7.79s.26,8.31,4.41,8.83m2.86-13c0,.26,4.15,6,4.15,6m7.71-15.85,3.45,5.47M308,275.59l5.19,6.49M284,201.15c.26,7,11.38-2.47,15.79-8.44m-20.52,32.78a102.79,102.79,0,0,0,21.55-21.55M275.33,246c8.57-2.34,24.33-21.4,27.44-31.53M273.51,265c2.34,1,31.79-20.17,32.57-35.75m-33.35,52.1c0-.26,26.92-6.86,38.09-36.45M271.29,303.7s43-25.77,45.32-44.72m290.23,88s-2.77,22.24-25.1,25.62m32.11,14.1c.26-.26,21.28-23.36,15.83-30.37m33,8s-.26,16.1-13.5,27.26m39.72-22.58s.52,19.47-7.79,27.26M713,380.73s-9.31,18.23-12.69,20M712.61,413s12.25,3.06,16.15-5m-13,31.44s11.33,2.05,16.52-8.86m-17.74,29.28s9.17,7.7,15.4-2.42M583,309.9s-1,39.46,54.52,47.5c62,17.14,91.38,8.05,95,77.62-2.34,26.48-5.63,56.39-24.84,45M524.05,346.25s8.83,15.83,19.47,14.79c14-4.15,19.21,4.41,19.21,4.41m-76.58-3.37s23.37,11.42,43.36-7m-40.76-9.35C490.82,373,457.34,388.56,444.1,386m46.24,64.22c.26,0,18.14-10.74,14.5-18.27m-50.1,2.34c.52-.52,30.11-3.38,35.57-14M441,390.63c0-.25,42,.12,44.86,7.91m11-32.83s-41,70.1,34.78,70.1m-78.14-71.13s-8.83,26.22-21.29,35m-22.32-44.13s15.23,29.47-.09,44m-39.63-35.7c.26.52,4.93,41.79-5.45,53.47M350.38,365.2s1.56,26.21-6.23,35.56S346,429.52,346,429.52m-94.63,12.6s5.57,9.78,13.36,6.41m-3.89-27.78s12.46,5.45,16.61,3.38m-3.11-47.51s-18.43,5.19-11.43,27c10.65,8.56,21,7.26,21,7.26m-46,58.41c-.26,0,2.08,17.14,14,4.16,8.31-17.39,34.53-66.46,40.5-83.33m12.2-8.05S292,372.21,292.49,386c-.26,8.57,3.89,10.65,3.89,10.65.52,6.23,6,15.05,10.39,7,1.81-7.79-1.3-11.17-1.3-11.17m7.27-14c-11.42-.77-17.65,24.41,4.41,8.57m7.53-17.13s-2.85,3.89-7.27-.26c-2.34-4.15-10.64,18.69,3.9,19.47,2.59-6.75,10.64-8.57,10.64-8.57M338.7,359s-6.49,3.11-8.83,2.59c-7.79,1.82-6.23,20,3.64,18.95a112.55,112.55,0,0,0,7-9.34m-63-36c-.26,0-25.76,40.1,14.22,50.74M601.14,274.84s-15.57,13.25-1,34.53c-48.29-.78-74.25,21.55-76.33,36.6-61.52-4.41-50.36,13.77-70.35,19.73-26.74-22.32-65.94-9.86-63.34,12.47-17.92-25.19-45.43-13-48.81-6.75s-2.07-30.9-2.07-30.9-17.91,8.05-30.38,22.85c.26-9.87,0-26,0-31.15-15,3-29.42,3.2-44.91,2.85m-40.5-11.42s22.33,12.46,49.85-4.41m-51.66-40.5s17.39,15.57,50.1,10.64m-39.2-46.47s3.89,12.72,41.28,13.5m-28.62-42.92s14.08,17.22,33,14.63m-21-39.2s5.45,9.34,26.22,10.9m-14-38.16s10.91,11.94,23.37,9.86M334.24,64.6s4.83-4.82,12.88-2.41m-16.36,27.9s-15-.54-13.95-6.44c1.07-6.71,15.82-11.53,15.82-11.53s19.58-12.61,22.54-16.9m-88.52,68.66,19,36.48,9.12-13.68,4.83,9.39,7.78-13.68L320.83,151l-5.09-16.63,11.26-.8s-2.95-8-13.14-9.66c2.68-2.14,12.07-8.31,12.07-8.31s-5.37-6.17-13.68-6.44c2.68-2.95,6.44-10.19,6.17-10.19s-8.32-1.88-8.32-1.88,19,6.17,33.8-2.41m-36.46-29.5c.26.27-1.08,7.51-5.1,11.81m-68.4,8.31s11.78-3.24,20.6-1.4S275,88.76,275,88.76s13.95-1.88,18.51-5.1M204.7,93.05a88.65,88.65,0,0,0-2.14,9.39c0,2.68-8.59,6.17-8.59,6.17m16.1-27.09s7.51,9.38,7.77,14.75-5.63,9.39-5.63,9.39m-79.66,40L124.77,133l7-2.42M273,319.52c-6.23-8,4.67-131.62,27.78-163.81-8.05,58.15,18.69,117.6,25.44,117.34M202.8,121.18s10.51,4,32.32-13.24m29.47,41.8,15.64.19m469.5-97.05S489.13,174.66,485.33,181.1c44-13.27,230.63-44.38,235.19-41.72-11,2.65-237.47,54.62-248.09,67.14,56.52-1.9,174.88,18.21,193.46,37.55-40.21-9.1-160.47-26.93-197.26-19,26.94,6.45,130.12,73.21,130.12,83.83-15.56-14.79-139.6-66-144.53-61.07,28.44,17.07,68.66,80.42,68.65,96-8.34-13.28-80-90.28-84.21-85.35,7.59,10.62,22.62,101.52,14.94,105.73,0-11-27.84-90.56-30.11-92.83-5.69,1.51-41.17,97.07-34.14,106-4.55-31.86.76-98.37,9.48-95.71-15.55,2.27-65.19,67.72-59.88,78,1.52-16.31,3.74-27.13,31.81-81.38-31.1,1.9-95.59,42.49-106.59,56.91,8.72-25.8,63.35-69.42,87.25-72.46M463.9,167.74c27.54-15.29,112.66-46.48,169.43-69.37M410.44,250s18.78-.27,37.55-51.23C466.5,129,613.22,51.24,616.17,36.75m-454,283.36s-4.36,9.29-9.73,12m30.77,2.1s-5.82,11.31-7.16,16.67m27.3-11.14s4.89,15.44.86,22.68m-56.94-62.75c-14.75,8.32,8.39,60.87,78.4,66m-11.26-28.44s-1.88,9.39,11.26,28.17c-3.75,20.92,15.91,37.36,23.69,40M208.73,148.62c0-.27,2.15-5.64,2.15-5.64l2.39,6.21,3.85-.11,2.54-6.21,2.08,6.24h3.83l2.36-6.93,3.56,6.56,3,.15,2.38-8,4.92,5.73,1.78-.69,1.53-8,4.86,5.59,1.39-.81,2.25-7.88,4,5.86,2-.67,1.89-6.62,3.75,6.09m-60.91,9.82,29.26-.44c9.31-.13,24.64-13,41.8-9m-132.74,72s4.83,10.46,11.54,4.56m-22.8,2.41s-9.39,25.22,1.88,31.12m-15.29-59s0,5.9,12.33-3.22M79.69,323.5S89.61,326.45,88,334M83.44,207.62s6.17,2.95,12.07-6.17m53.38,296.4c9.65-.53,11.73,3.83,20.52,3.83,10.12.3,20-3.83,32.86-7.32m82.88,23.34c-.27,0-4.56,9.12-.81,13.68m-136.8-12.87s15.29-12.61,23.34-4.83c7.78,2.68,12.07,2.14,12.07,2.14M155.6,482.57s3.75,9.65-8.86,8.31M143,504.83s8,5.1-1.07,11.8m5.9,9.12s11,1.61,4.56,10.46m350.67-77.28s29.86,3.09,31.23,5.32c3.44-3.61,30.11-25.21-2.68-28.3-5.49,22.49-28,23.32-28.55,23ZM492.4,473.86c11.16,8.92,6.59,14.27,41.61-9.24M476.44,485s16.48,17.68,28.49-3.78M445,491.37,422.72,503m-40.17,16.48s13.56-11.67,19.91-5.49,33.3-5.32,33.3-5.32m-43.08-39.83s4.63,9.27-4.29,10.47M375,497.89s4.7,8.72-4.4,11.12m14.87,12.57s14.07.68,9.1,11.33m122.55-13.22s-7.72,6.52-2.06,13.9M629.2,472.83s8.93,4.29-1.71,11.67M618.56,500s6.7,7,2.23,12.87m16.48,14.08s9.27,2.57,8.24,10.3M767,520s-7.72,5.67-3.6,13.05m-134-238.64c18.54-2.23,45.14,39,58.7,47m81.09-105.38s9.39,8.19,1.13,28m16.28-59.51c2.61,2,12.7,7.42,19.37,19.89m6.4-81.56c0,.17-13,35.19-13,35.19M827,141.16s-2.58,31.24-6.35,37.59m-51.78,56.93c-4.34,12.5-42,18.89-44.52.39C723.08,226.65,746.67,212.11,768.89,235.68Z"/><path class="cls-7" d="M247.06,83.35,261.55,86S251.35,99.71,247.06,83.35Z"/></g><g id="Layer_1" data-name="Layer 1"><path class="cls-8" d="M863.1,6A25,25,0,0,1,888,30.9V569a24.9,24.9,0,0,1-24.9,24.9H32.9A24.82,24.82,0,0,1,8,569.1V30.9A25,25,0,0,1,32.9,6H863.1m0-6H32.9A30.86,30.86,0,0,0,2,30.9H2V569a30.88,30.88,0,0,0,30.9,31H863a30.86,30.86,0,0,0,30.9-30.9V30.9A30.71,30.71,0,0,0,863.1,0Z"/></g></svg>