<svg id="Layer_2" data-name="Layer 2" xmlns="http://www.w3.org/2000/svg" xmlns:xlink="http://www.w3.org/1999/xlink" viewBox="0 0 892 600"><defs><style>.cls-1{fill:none;}.cls-2{clip-path:url(#clip-path);}.cls-3{fill:#fff;}.cls-4{fill:#005293;}.cls-5{fill:#d21034;}.cls-6{fill:#939598;}</style><clipPath id="clip-path"><rect class="cls-1" width="892" height="600" rx="30.93"/></clipPath></defs><title>Panamá</title><g class="cls-2"><path class="cls-3" d="M-4,0H896V600H-4Z"/><g id="c"><g id="b"><path id="a" class="cls-4" d="M221,75l-23.18,71.33,35.67,11.59Z"/><path class="cls-4" d="M221,75l23.18,71.33-35.67,11.59Z"/></g><path class="cls-4" d="M292.28,126.84h-75v37.5Z"/><path class="cls-4" d="M292.28,126.84,231.6,170.92l-22-30.34Z"/><path class="cls-4" d="M265,210.69l-23.17-71.33L206.19,151Z"/><path class="cls-4" d="M265,210.69,204.36,166.6l22-30.33Z"/><path class="cls-4" d="M176.87,210.69l60.67-44.09-22-30.33Z"/><path class="cls-4" d="M176.87,210.69,200,139.36,235.71,151Z"/><path class="cls-4" d="M149.62,126.84l60.68,44.08,22-30.34Z"/><path class="cls-4" d="M149.62,126.84h75v37.5Z"/></g><path class="cls-4" d="M-4,300H446V600H-4Z"/><path class="cls-5" d="M446,0H896V300H446Z"/><path class="cls-5" d="M671,375l-23.18,71.33,35.67,11.59Z"/><path class="cls-5" d="M671,375l23.18,71.33-35.67,11.59Z"/><path class="cls-5" d="M742.28,426.84h-75v37.5Z"/><path class="cls-5" d="M742.28,426.84,681.6,470.92l-22-30.34Z"/><path class="cls-5" d="M715,510.69l-23.17-71.33L656.19,451Z"/><path class="cls-5" d="M715,510.69,654.36,466.6l22-30.33Z"/><path class="cls-5" d="M626.87,510.69l60.67-44.09-22-30.33Z"/><path class="cls-5" d="M626.87,510.69,650,439.36,685.71,451Z"/><path class="cls-5" d="M599.62,426.84l60.68,44.08,22-30.34Z"/><path class="cls-5" d="M599.62,426.84h75v37.5Z"/></g><g id="Layer_1" data-name="Layer 1"><path class="cls-6" d="M861.1,6A25,25,0,0,1,886,30.9V569a24.9,24.9,0,0,1-24.9,24.9H30.9A24.82,24.82,0,0,1,6,569.1V30.9A25,25,0,0,1,30.9,6H861.1m0-6H30.9A30.86,30.86,0,0,0,0,30.9H0V569a30.88,30.88,0,0,0,30.9,31H861a30.86,30.86,0,0,0,30.9-30.9V30.9A30.71,30.71,0,0,0,861.1,0Z"/></g></svg>