<?xml version="1.0" encoding="utf-8"?>
<!-- Generator: Adobe Illustrator 23.0.3, SVG Export Plug-In . SVG Version: 6.00 Build 0)  -->
<svg version="1.1" id="Layer_1" xmlns="http://www.w3.org/2000/svg" xmlns:xlink="http://www.w3.org/1999/xlink" x="0px" y="0px"
	 viewBox="0 0 892 600" style="enable-background:new 0 0 892 600;" xml:space="preserve">
<style type="text/css">
	.st0{clip-path:url(#SVGID_2_);}
	.st1{fill:#FFFFFF;}
	.st2{fill:#DC143C;}
	.st3{fill:#939598;}
</style>
<title>Polônia</title>
<g>
	<g>
		<defs>
			<path id="SVGID_1_" d="M30.9,0h830.1C878.2,0,892,13.8,892,30.9v538.1c0,17.1-13.8,30.9-30.9,30.9H30.9C13.8,600,0,586.2,0,569.1
				V30.9C0,13.8,13.8,0,30.9,0z"/>
		</defs>
		<clipPath id="SVGID_2_">
			<use xlink:href="#SVGID_1_"  style="overflow:visible;"/>
		</clipPath>
		<g class="st0">
			<rect x="0" class="st1" width="892" height="596"/>
			<rect x="0" y="298" class="st2" width="892" height="298"/>
		</g>
	</g>
</g>
<g>
	<path class="st3" d="M861.1,6C874.8,6,886,17.2,886,30.9v538.1c0,13.8-11.2,24.9-24.9,24.9H30.9C17.2,594,6,582.8,6,569.1V30.9
		C6,17.2,17.2,6,30.9,6H861.1 M861.1,0H30.9C13.8,0,0,13.8,0,30.9c0,0,0,0,0,0v538.1C0,586.2,13.8,600,30.9,600h830.1
		c17.1,0,30.9-13.8,30.9-30.9V30.9C892,13.8,878.2,0,861.1,0z"/>
</g>
</svg>
