<svg id="Layer_1" data-name="Layer 1" xmlns="http://www.w3.org/2000/svg" xmlns:xlink="http://www.w3.org/1999/xlink" viewBox="0 0 500 500"><defs><style>.cls-1{fill:none;}.cls-2{clip-path:url(#clip-path);}.cls-3{fill:#ee2722;}.cls-3,.cls-4,.cls-5{fill-rule:evenodd;}.cls-4{fill:#fff;}.cls-5{fill:#198538;}</style><clipPath id="clip-path"><rect class="cls-1" x="50.19" width="399.61" height="500"/></clipPath></defs><title>Portuguesa</title><g class="cls-2"><path class="cls-3" d="M250,500C10,358.57,46,129,62,42.46c20.29,36.92,57.58,41.26,81.64,30.32A70.5,70.5,0,0,0,184.71,0c37.17,46.37,93.42,46.37,130.58,0a70.5,70.5,0,0,0,41,72.78c24.06,10.94,61.35,6.6,81.64-30.32C454,129,490,358.57,250,500"/><path class="cls-4" d="M250,472.06C61.12,358.21,68.17,163.28,78.8,91.15c44.47,26.51,102.48,0,122.64-45,31.59,16,65.54,16,97.13,0,20.16,45,78.17,71.55,122.64,45C431.83,163.3,438.88,358.22,250,472.07"/><path class="cls-5" d="M272.38,369.85V214.7c16.54,1.66,35,5.1,59.61,10.31l-2.47.45c-13-2.72-22.48,2.83-24.17,8.56-1.15,3.93,1.27,8,8.54,9.88,7.42,1.88,12.78-4.76,21.08-2.59,7.69,2,13.39,10.2,24.61,12.18,5.21.92,13.06-.63,15.57-7.4,1.63-4.42.12-9.12,1.7-15.49,1.94-7.77,7.16-6.39,9.29-17,2.33-10.53-3-11.39-1.6-19.28,1.15-6.46,4.44-10.14,4.74-14.84.46-7.21-6.07-11.82-11.21-13.1-11.05-2.74-19.59,2.41-27.43,1.12-8.47-1.39-10.66-9.64-18.21-10.94-7.39-1.27-11.28,1.5-11.82,5.55-.79,5.93,5.51,14.82,18.53,17.64l2.1,1.42c-28.6-6.07-49.8-10-68.86-11.71V133.3l.95,2.35c.05,13.32,7.44,21.34,13.4,21.79,4.08.31,7.59-2.91,7.89-10.4.3-7.66-7.32-11.52-6.92-20.09.37-7.94,7.19-15.22,6.8-26.6-.18-5.29-3.34-12.64-10.48-13.69-4.66-.68-8.94,1.78-15.51,1.55-8-.28-7.74-5.66-18.52-5.57-10.78-.11-10.51,5.28-18.52,5.56-6.56.22-10.84-2.24-15.51-1.55-7.14,1-10.29,8.4-10.47,13.68-.39,11.39,6.42,18.67,6.79,26.61.4,8.57-7.21,12.43-6.91,20.08.29,7.49,3.81,10.72,7.88,10.41,6-.46,13.35-8.55,13.41-21.87l1-2.31V169.5c-19.07,1.75-40.26,5.66-68.87,11.73l2.11-1.42c13-2.82,19.32-11.71,18.52-17.64-.54-4-4.43-6.82-11.81-5.55-7.56,1.3-9.75,9.55-18.21,10.94-7.85,1.29-16.38-3.86-27.44-1.12-5.13,1.28-11.67,5.9-11.21,13.1.3,4.7,3.6,8.38,4.74,14.84,1.4,7.89-3.93,8.75-1.6,19.28,2.14,10.57,7.35,9.19,9.29,17,1.59,6.38.07,11.07,1.71,15.49,2.51,6.77,10.35,8.33,15.56,7.4,11.22-2,16.92-10.16,24.61-12.17,8.3-2.17,13.66,4.47,21.09,2.58,7.26-1.84,9.69-5.95,8.54-9.88-1.69-5.73-11.14-11.28-24.18-8.56L168,225c24.57-5.23,43.06-8.67,59.61-10.33V370l-1.08-2.51c-.05-13.32-7.32-21.34-13.28-21.79-4.08-.32-7.59,2.91-7.88,10.4-.3,7.66,7.31,11.52,6.91,20.09-.37,7.94-7.18,15.22-6.79,26.61.18,5.28,3.33,12.63,10.47,13.68,4.67.68,8.95-1.78,15.51-1.55,8,.27,7.74,5.66,18.52,5.56,10.78.09,10.52-5.3,18.52-5.58,6.57-.22,10.85,2.24,15.51,1.55,7.14-1,10.3-8.39,10.48-13.68.39-11.39-6.43-18.66-6.8-26.61-.4-8.56,7.22-12.42,6.91-20.08-.29-7.49-3.8-10.72-7.88-10.41-6,.46-13.32,8.47-13.37,21.79l-1,2.39"/><path class="cls-4" d="M255.79,142.26a5.8,5.8,0,0,0-11.58-.08v42.71c-21.51.6-44,4.51-77.76,11.74A5.8,5.8,0,0,0,168.78,208c32.74-7,54.55-10.77,75.43-11.37V361a5.8,5.8,0,0,0,11.58-.08V196.61c20.88.59,42.69,4.37,75.43,11.34a5.8,5.8,0,0,0,2.33-11.34c-33.8-7.22-56.25-11.13-77.76-11.72V142.26"/></g></svg>