<?xml version="1.0" encoding="utf-8"?>
<!-- Generator: Adobe Illustrator 22.1.0, SVG Export Plug-In . SVG Version: 6.00 Build 0)  -->
<svg version="1.1" id="Layer_1" xmlns="http://www.w3.org/2000/svg" xmlns:xlink="http://www.w3.org/1999/xlink" x="0px" y="0px"
	 viewBox="0 0 892 600" style="enable-background:new 0 0 892 600;" xml:space="preserve">
<style type="text/css">
	.st0{clip-path:url(#SVGID_2_);}
	.st1{fill:#FF0000;}
	.st2{fill:#006600;}
	.st3{fill:#FFFF00;}
	.st4{fill:#FFFFFF;stroke:#000000;stroke-width:0.67;}
	.st5{fill:#FF0000;stroke:#000000;stroke-width:0.51;}
	.st6{fill:#FFFF00;stroke:#000000;stroke-width:0.5;}
	.st7{fill:#003399;}
	.st8{fill:#FFFFFF;}
	.st9{fill:#939598;}
</style>
<title>Portugal</title>
<g id="Layer_2_1_">
	<g>
		<defs>
			<path id="SVGID_1_" d="M30.9,0h830.1C878.2,0,892,13.8,892,30.9v538.1c0,17.1-13.8,30.9-30.9,30.9H30.9C13.8,600,0,586.2,0,569.1
				V30.9C0,13.8,13.8,0,30.9,0z"/>
		</defs>
		<clipPath id="SVGID_2_">
			<use xlink:href="#SVGID_1_"  style="overflow:visible;"/>
		</clipPath>
		<g class="st0">
			<rect class="st1" width="900" height="600"/>
			<rect class="st2" width="360" height="600"/>
			<path class="st3" d="M477.4,393.1C432,391.7,224.3,262,222.8,241.3l11.5-19.1c20.6,30,233,156.1,253.9,151.6L477.4,393.1"/>
			<path d="M477.4,393.4L477.4,393.4c-24.1-0.7-92.6-37.5-143.9-68.7c-54.6-33.2-110.2-72.5-110.9-83.3c0-0.1,0-0.1,0-0.2L234,222
				c0.1-0.1,0.1-0.1,0.2-0.1c0.1,0,0.2,0.1,0.3,0.1c10.6,15.4,71.3,55.6,126.8,88.6c53.5,31.9,116.1,65.2,126.8,62.9
				c0.1,0,0.2,0,0.3,0.1c0.1,0.1,0.1,0.2,0,0.3l-10.8,19.2C477.5,393.3,477.5,393.3,477.4,393.4z M223.1,241.4
				c0.9,9.5,47.4,44.3,110.7,82.8c51.1,31.2,119.2,67.7,143.4,68.6l10.5-18.6c-0.2,0-0.5,0-0.7,0c-13.9,0-72.4-31.2-125.9-63.1
				c-55.1-32.8-115.4-72.7-126.7-88.4L223.1,241.4z"/>
			<path class="st3" d="M231.9,219.5c-4.1,11,54.2,47.1,124.4,89.7s130.6,69,135.1,65.2c0.7-1.2,1.4-2.5,2-3.8
				c-0.8,1.3-2.9,1.7-6.1,0.7c-19-5.5-68.4-28.1-129.6-65.3S243.3,234.9,235,220.3c-0.7-1.5-1-3.2-0.9-4.8h-0.2l-1.8,3.6
				L231.9,219.5L231.9,219.5z M478.5,393.7c-0.8,1.4-2.2,1.4-4.9,1.1c-17-1.9-68.4-26.9-129.2-63.3c-70.8-42.4-129.3-81-123-91.1
				l1.7-3.1l0.3,0.1c-5.7,17.1,115.4,86.4,122.6,90.8c70.1,43.4,129.2,68.8,134.4,62.2L478.5,393.7L478.5,393.7z"/>
			<path d="M475.7,395.2c-0.6,0-1.4-0.1-2.2-0.1c-17.3-1.9-69.2-27.4-129.4-63.4c-80.3-48.1-120.7-77-123.4-88.4
				c-0.3-1-0.2-2.2,0.4-3.1l1.7-3c0.1-0.1,0.2-0.2,0.3-0.1l0.3,0.1c0.1,0,0.1,0.1,0.2,0.1c0,0.1,0,0.2,0,0.2
				c-2.3,7,16.2,27.8,117.7,87.6c2.5,1.5,4.1,2.4,4.8,2.8c69.3,42.9,128.9,68.7,134,62.3c0.1-0.1,0.3-0.1,0.4-0.1c0,0,0,0,0,0
				c0.1,0.1,0.2,0.2,0.1,0.4l-1.9,3.3l0,0C478.1,394.9,477.1,395.2,475.7,395.2z M223,238.1l-1.4,2.4c-0.5,0.8-0.6,1.8-0.3,2.7
				c2.7,11.3,43,40.1,123.2,88.1c60.1,35.9,112,61.4,129.1,63.3c2.7,0.3,4,0.2,4.6-1l0,0l1.3-2.2c-0.8,0.3-1.6,0.4-2.5,0.4
				c-14.7,0-68.2-24.2-131.2-63.2c-0.7-0.4-2.3-1.4-4.8-2.8C262.4,279.3,221.6,249,223,238.1z M489.9,375.1
				c-11,0-67.9-25.5-133.8-65.6c-75.4-45.9-128.5-79.2-124.5-90.1c0,0,0,0,0-0.1l0.3-0.4l1.7-3.6c0.1-0.1,0.2-0.2,0.3-0.2h0.2
				c0.1,0,0.2,0,0.2,0.1c0.1,0.1,0.1,0.1,0.1,0.2c-0.1,1.6,0.2,3.2,0.9,4.7c8.8,15.4,70.1,53.9,122.6,85.7
				c57.6,34.9,108.7,59.2,129.5,65.2c2.9,0.8,4.9,0.6,5.8-0.6c0-0.1,0.1-0.1,0.2-0.1c0.1,0,0.2,0,0.3,0.1c0.1,0.2,0.2,0.2-1.8,3.7
				l-0.2,0.4c0,0,0,0.1-0.1,0.1C491,375,490.4,375.1,489.9,375.1L489.9,375.1z M232.1,219.6c-4,11.3,61.2,51,124.3,89.4
				c68,41.3,123.5,65.6,133.4,65.6c0.5,0,0.9-0.1,1.3-0.3l0.2-0.4c0.3-0.4,0.8-1.4,1.2-2.1c-1.2,0.6-3,0.6-5.3-0.1
				c-20.8-6-72-30.4-129.6-65.3c-52.5-31.9-114-70.4-122.8-86c-0.6-1.3-0.9-2.7-0.9-4.1l-1.4,2.9L232.1,219.6z"/>
			<path class="st3" d="M360.3,253.8c45.4-0.4,101.3-6.2,133.5-19l-6.9-11.3c-19,10.5-75.3,17.5-127,18.5
				c-61.1-0.6-104.2-6.3-125.8-20.8l-6.6,12C267.2,250.1,307.9,253.7,360.3,253.8"/>
			<path d="M360.3,254.1L360.3,254.1c-52.4-0.2-93-3.7-132.9-20.6c-0.1,0-0.1-0.1-0.1-0.2c0-0.1,0-0.2,0-0.2l6.6-12
				c0-0.1,0.1-0.1,0.2-0.1c0.1,0,0.2,0,0.2,0c20.1,13.5,60.1,20.1,125.7,20.7c46.7-0.9,106.3-7.1,126.8-18.5c0.1-0.1,0.3,0,0.4,0.1
				l6.9,11.3c0,0.1,0,0.2,0,0.2c0,0.1-0.1,0.1-0.2,0.2C459.8,248.6,402.5,253.8,360.3,254.1L360.3,254.1z M227.9,233.1
				c39.8,16.8,80.1,20.2,132.4,20.4l0,0c42.1-0.3,99.2-5.5,133.1-18.9l-6.6-10.8c-20.8,11.3-80.3,17.5-126.9,18.4
				c-65.4-0.6-105.4-7.1-125.8-20.6L227.9,233.1z"/>
			<path class="st3" d="M495.7,235.5c-1.1,1.8-22.1,9-53.1,14.4c-27.3,4.1-54.9,6.1-82.5,6c-26.4,0.1-52.8-1.6-79-5
				c-32.5-5.1-49.3-12.2-55.4-14.7c0.6-1.2,1-2,1.6-3.1c17.8,7.1,34.7,11.4,54.4,14.4c26,3.4,52.2,5.1,78.4,5
				c27.4,0,54.8-2,81.9-6.1c31.7-5.1,49.1-11.7,51.5-14.8L495.7,235.5L495.7,235.5z M489.5,223.6c-3.4,2.8-20.6,8.8-50.7,13.7
				c-26,3.7-52.2,5.5-78.4,5.5c-31,0-56.4-2.1-75.7-4.9c-30.6-4-46.9-11.2-52.8-13.3c0.6-1,1.2-2,1.8-3c4.6,2.3,20.3,8.7,51.3,13.1
				c19.1,2.7,44.5,4.7,75.4,4.7c26,0,52.1-1.8,77.8-5.5c30.3-4.2,46.6-11.9,49.1-13.9L489.5,223.6L489.5,223.6z"/>
			<path d="M359.5,256.1c-26.2,0.1-52.4-1.6-78.4-5c-31.4-4.9-48.4-11.8-54.8-14.4l-0.7-0.3c-0.1,0-0.1-0.1-0.2-0.2
				c0-0.1,0-0.2,0-0.2l0.6-1.3c0.3-0.6,0.6-1.1,0.9-1.8c0.1-0.1,0.2-0.2,0.4-0.1c17.1,6.8,33.9,11.3,54.4,14.4
				c25.8,3.4,51.8,5.1,77.8,5h0.6c27.4,0,54.8-2,81.9-6.1c31.4-5.1,48.9-11.6,51.3-14.7c0.1-0.1,0.2-0.1,0.3-0.1
				c0.1,0,0.2,0.1,0.2,0.1l2.2,3.9c0.1,0.1,0.1,0.2,0,0.3v0.1c-1.6,2.1-23.2,9.3-53.2,14.4c-27.3,4.1-54.9,6.1-82.6,6L359.5,256.1z
				 M226,236l0.4,0.1c6.4,2.6,23.4,9.5,54.7,14.4c26,3.4,52.2,5.1,78.4,5h0.6c27.6,0.1,55.2-1.9,82.5-6c31.5-5.4,51-12.4,52.8-14.1
				l-2-3.4c-3.1,3-19.2,9.4-51.4,14.6c-27.1,4-54.6,6.1-82,6.1h-0.6c-26,0.1-52-1.6-77.8-5c-20.4-3.1-37.2-7.6-54.3-14.4
				c-0.3,0.6-0.5,1-0.8,1.5L226,236z M359.7,243.1c-27.3,0-53.2-1.7-75.1-4.9c-27.1-3.5-42.8-9.5-50.4-12.4l-2.5-0.9
				c-0.1-0.1-0.2-0.2-0.2-0.4c0,0,0,0,0,0c0.6-1,1.2-2,1.8-3c0.1-0.1,0.2-0.2,0.4-0.1c2.7,1.3,17.7,8.3,51.3,13.1
				c15.1,2.1,40.3,4.7,74.6,4.7h0.7c26,0,52-1.8,77.8-5.5c29-4,46-11.5,49-13.8c0.1-0.1,0.1-0.1,0.2-0.1c0.1,0,0.2,0.1,0.2,0.1
				l2.2,3.7c0,0,0,0.1,0,0.1c0,0.1,0,0.2-0.1,0.2c-3.4,2.7-20.1,8.8-50.9,13.7c-26,3.7-52.2,5.5-78.5,5.5L359.7,243.1z M232.3,224.4
				l2.2,0.8c7.5,2.9,23.2,8.9,50.2,12.4c21.9,3.2,47.8,4.9,75,4.9h0.6c26.2,0,52.4-1.8,78.4-5.5c30-4.8,46.7-10.7,50.4-13.4
				l-1.9-3.2c-3.6,2.5-20.6,9.8-49,13.7c-25.8,3.7-51.8,5.6-77.9,5.5h-0.7c-34.4,0-59.6-2.5-74.7-4.7c-32.8-4.6-47.9-11.4-51.2-13
				C233.3,222.8,232.8,223.6,232.3,224.4z M489.5,223.6L489.5,223.6z"/>
			<path class="st3" d="M211.6,308.5c27.9,15,89.9,22.6,148.5,23.1c53.4,0.1,122.9-8.3,149-22l-0.7-15
				c-8.1,12.7-82.7,24.9-148.8,24.4S232,308.2,211.5,295L211.6,308.5"/>
			<path d="M360.9,331.9h-0.8c-51.9-0.5-118.1-6.8-148.6-23.1c-0.1,0-0.2-0.1-0.2-0.3l0,0l-0.1-13.5c0-0.2,0.1-0.3,0.3-0.3
				c0.1,0,0.1,0,0.2,0c20.7,13.4,82.9,23.4,147.9,23.9c65.6,0.5,140.6-11.8,148.6-24.3c0.1-0.1,0.2-0.2,0.3-0.1
				c0.1,0,0.2,0.1,0.2,0.3l0.7,15c0,0.1,0,0.2-0.1,0.3C483,323.6,413.5,331.9,360.9,331.9z M211.9,308.3
				c30.4,16.2,96.4,22.5,148.2,23h0.8c52.4,0,121.7-8.2,147.9-21.9l-0.7-14c-10.1,12.4-79.8,23.9-144.5,23.9h-4.1
				c-64.6-0.5-126.6-10.4-147.7-23.7L211.9,308.3z"/>
			<path class="st3" d="M510.5,306.5v3.6c-3.9,4.7-28.5,11.7-59.2,16.7c-23.4,3.6-54,6.3-92,6.3c-36.1,0-65-2.6-87.3-6
				c-35.3-5.1-57.9-14.1-62.5-16.8v-4.2c13.6,9,50.5,15.7,62.9,17.7c22.2,3.4,50.9,6,86.8,6c37.9,0,68.2-2.7,91.5-6.3
				C472.8,320.3,504.3,312.1,510.5,306.5L510.5,306.5z M510.5,293.6v3.6c-3.9,4.7-28.5,11.8-59.2,16.7c-23.4,3.6-54,6.3-92,6.3
				c-36.1,0-65-2.6-87.3-6c-35.3-5.2-58-14.2-62.5-16.8v-4.2c13.6,9,50.5,15.7,62.9,17.7c22.2,3.4,50.9,6,86.8,6
				c37.9,0,68.2-2.7,91.5-6.3C472.8,307.4,504.3,299.1,510.5,293.6L510.5,293.6z"/>
			<path d="M359.3,333.4c-32,0-61.4-2-87.4-6c-33.8-4.9-57.1-13.6-62.6-16.9c-0.1-0.1-0.1-0.1-0.1-0.2v-4.2c0-0.1,0.1-0.2,0.1-0.3
				c0.1-0.1,0.2-0.1,0.3,0c13.7,9.1,51.6,15.8,62.8,17.6c25.8,4,55,6,86.8,6c33.6,0,64.4-2.1,91.4-6.3c21.9-3.2,53.4-11.4,59.6-16.9
				c0.1-0.1,0.2-0.1,0.3-0.1c0.1,0,0.2,0.1,0.2,0.3v3.6c0,0.1,0,0.1-0.1,0.2c-4,4.8-29,11.9-59.4,16.8
				C424,331.3,393.1,333.4,359.3,333.4z M209.8,310.1c3.9,2.2,25.6,11.4,62.2,16.7c26,4,55.3,6,87.3,6c33.8,0,64.7-2.1,91.9-6.3
				c30.1-4.9,54.8-11.8,59-16.5v-2.9c-7.2,5.5-37.9,13.6-59.4,16.7c-27.1,4.1-57.9,6.3-91.5,6.3c-31.8,0-61.1-2-86.9-6
				c-11.2-1.8-48.5-8.5-62.6-17.5L209.8,310.1z M359.3,320.5c-32,0-61.4-2-87.4-6c-33.8-4.9-57.1-13.6-62.6-16.9
				c-0.1-0.1-0.1-0.1-0.1-0.2v-4.2c0-0.1,0.1-0.2,0.1-0.3c0.1-0.1,0.2-0.1,0.3,0c13.7,9.1,51.6,15.8,62.8,17.7c25.8,4,55,6,86.8,6
				c33.6,0,64.4-2.1,91.4-6.3c21.9-3.2,53.4-11.4,59.6-16.9c0.1-0.1,0.2-0.1,0.3-0.1c0.1,0,0.2,0.1,0.2,0.2c0,0,0,0.1,0,0.1v3.6
				c0,0.1,0,0.1-0.1,0.2c-4,4.8-29,11.9-59.4,16.8C424,318.4,393.1,320.5,359.3,320.5z M209.8,297.2c3.9,2.2,25.6,11.4,62.2,16.7
				c25.9,4,55.3,6,87.3,6c33.8,0,64.7-2.1,91.9-6.3c30.1-4.9,54.8-11.8,59-16.5v-2.9c-7.2,5.6-37.9,13.6-59.4,16.7
				c-27.1,4.2-57.9,6.3-91.5,6.3c-31.9,0-61.1-2-86.9-6c-11.2-1.8-48.5-8.4-62.6-17.5L209.8,297.2z"/>
			<path class="st3" d="M359.7,390.5c-64.1-0.4-119.1-17.5-130.7-20.3l8.5,13.3c20.5,8.6,74.1,21.5,122.9,20s91.4-5.2,121.4-19.8
				l8.7-13.7C469.9,379.6,400.3,390.4,359.7,390.5"/>
			<path d="M352.8,403.9c-46,0-95.4-11.7-115.5-20.2c-0.1,0-0.1-0.1-0.1-0.1l-8.5-13.3c-0.1-0.1-0.1-0.2,0-0.3
				c0.1-0.1,0.2-0.1,0.3-0.1c1.4,0.3,3.4,0.9,5.9,1.5c18.7,5,68.2,18.4,124.8,18.8l0,0c40.9-0.1,110.4-11,130.6-20.5
				c0.1,0,0.3,0,0.3,0.1c0.1,0.1,0.1,0.2,0,0.4l-8.7,13.7c0,0-0.1,0.1-0.1,0.1c-31.3,15.2-76.9,18.5-121.5,19.9
				C357.8,403.8,355.3,403.9,352.8,403.9z M237.6,383.2c21.2,8.9,74.8,21.4,122.7,20c44.5-1.3,90-4.6,121.2-19.8l8.1-12.9
				c-21.3,9.4-89.6,20.1-129.9,20.2l0,0c-56.6-0.3-106.3-13.8-124.9-18.8c-2.1-0.6-3.9-1-5.2-1.4L237.6,383.2z"/>
			<path class="st3" d="M485,380.5c-1.3,2-2.6,3.9-3.9,5.7c-14.2,5-36.5,10.2-45.9,11.8c-19.2,4-49,6.9-75.4,6.9
				c-56.8-0.8-103.4-12-125.2-21.4l-1.8-3l0.2-0.5l3,1.2c38.9,13.9,82.6,19.5,124,20.5c26.3,0.1,52.6-3,73.9-6.8
				c32.6-6.5,45.9-11.5,49.9-13.7l1-0.6L485,380.5z M492.5,368.2l0.1,0.1c-1,1.6-1.9,3.3-2.9,4.9c-7.5,2.7-28,8.7-58,12.9
				c-19.7,2.7-32,5.3-71.2,6c-73.6-1.9-121.2-16.2-132.5-19.8l-1.7-3.2c42.6,11.1,86.1,18.9,134.1,19.7c35.9-0.8,51.2-3.4,70.7-6.1
				c34.9-5.4,52.5-11.2,57.8-12.8c-0.1-0.1-0.2-0.2-0.2-0.3L492.5,368.2L492.5,368.2z"/>
			<path d="M359.8,405.2c-57.9-0.9-103.7-12.1-125.4-21.5c-0.1,0-0.1-0.1-0.1-0.1l-1.8-3c-0.1-0.1-0.1-0.2,0-0.3l0.3-0.5
				c0.1-0.1,0.2-0.2,0.3-0.1l3,1.2c34.8,12.4,76.5,19.3,124,20.5c29,0.1,56.2-3.6,73.9-6.8c36.5-7.3,47.4-12.3,49.8-13.7l1-0.6
				c0.1-0.1,0.2,0,0.3,0c0.1,0.1,0.1,0.2,0,0.3c-1.3,2-2.6,4-3.9,5.8c0,0-0.1,0.1-0.1,0.1c-15,5-30.4,8.9-46,11.8
				C415.2,402.4,384.9,405.2,359.8,405.2z M234.8,383.3c23.3,10.1,71,20.6,125,21.4c25.1,0,55.4-2.8,75.4-6.9
				c15.5-2.8,30.8-6.8,45.7-11.7c1-1.5,2.1-3.1,3.2-4.7h0c-2.5,1.4-13.4,6.4-50,13.7c-24,4.4-48.4,6.6-72.8,6.8h-1.2
				c-47.6-1.1-89.3-8-124.1-20.5l-2.8-1.1l-0.1,0.1L234.8,383.3z M360.5,392.4c-65.7-1.7-111.2-13.1-132.5-19.8
				c-0.1,0-0.1-0.1-0.2-0.1l-1.7-3.2c-0.1-0.1,0-0.3,0.1-0.4c0.1,0,0.1,0,0.2,0c48.7,12.7,91.3,19,134.1,19.7
				c32-0.7,47.8-2.9,64.5-5.2l6.2-0.9c33.7-5.2,51.3-10.8,57.1-12.6l0.2-0.1c0-0.1,0-0.2,0-0.2c0-0.1,0.1-0.2,0.2-0.2l3.8-1.4
				c0.1,0,0.3,0,0.3,0.1l0,0l0.1,0.1c0.1,0.1,0.1,0.2,0,0.3c-1,1.6-1.9,3.3-2.9,4.9c0,0.1-0.1,0.1-0.1,0.1
				c-10.1,3.6-31.4,9.2-58,12.9c-2.9,0.4-5.6,0.8-8.3,1.2C407.5,389.8,393.9,391.7,360.5,392.4L360.5,392.4z M228.2,372.1
				c21.3,6.7,66.8,18.1,132.3,19.8c33.4-0.6,47.1-2.6,62.8-4.9c2.7-0.4,5.4-0.8,8.3-1.2c26.5-3.7,47.7-9.2,57.9-12.8
				c0.9-1.5,1.8-2.9,2.6-4.3l-2.9,1.1l0,0c0,0.1,0,0.2,0,0.3c0,0.1-0.1,0.1-0.2,0.2l-0.6,0.2c-5.8,1.8-23.5,7.4-57.2,12.7l-6.2,0.9
				c-16.7,2.3-32.5,4.5-64.5,5.2c-42.6-0.7-85.1-6.9-133.6-19.5L228.2,372.1z M492.5,368.2L492.5,368.2l0.2-0.2L492.5,368.2z"/>
			<path class="st3" d="M493.2,296.6c0.2,42.2-21.4,80.1-38.8,96.8c-24.6,23.6-57.3,38.8-95.4,39.5c-42.5,0.8-82.7-27-93.4-39.1
				c-21-23.8-38.2-54.1-38.7-94.9c2.6-46.1,20.7-78.1,46.9-100.1s61.1-32.7,90.2-32c33.5,0.9,72.7,17.3,99.8,50
				C481.5,238.2,489.2,261.4,493.2,296.6L493.2,296.6z M359.5,152.1c81.7,0,148.9,66.5,148.9,148s-67.2,148.1-148.9,148.1
				s-148.4-66.5-148.4-148.1S277.7,152.2,359.5,152.1"/>
			<path d="M359.5,448.5c-82,0-148.7-66.5-148.7-148.3s66.7-148.3,148.7-148.3c39.5-0.1,77.4,15.6,105.3,43.5
				c57.9,56.9,58.7,150,1.7,207.9c-0.6,0.6-1.2,1.2-1.7,1.7C436.9,432.9,399,448.6,359.5,448.5z M359.5,152.4
				c-81.7,0-148.1,66.3-148.1,147.8S277.8,448,359.5,448c82,0,148.6-66.3,148.6-147.8S441.4,152.4,359.5,152.4z M357.3,433.3
				c-43.6,0-82.5-28.6-91.8-39.3c-25.6-29-38.3-60.1-38.8-95.1c2.4-42.4,18.2-76.2,47-100.4c24.5-20.6,59.1-32.9,90.4-32
				c36.9,1,75.2,20.2,100,50.1c17,20.5,25.3,42.9,29.5,79.9l0,0c0.2,40.8-20,78.9-38.9,97c-26.3,25.3-59.3,39-95.5,39.6L357.3,433.3
				z M361.1,167.1c-30.3,0-63.4,12.1-87,31.9c-28.7,24.1-44.4,57.7-46.8,100c0.5,34.8,13.1,65.7,38.7,94.6
				c9.3,10.6,48,39.1,91.4,39.1h1.8c36.1-0.7,69-14.3,95.2-39.5c18.8-18,38.9-55.9,38.7-96.6c-4.2-36.9-12.5-59.2-29.4-79.6
				c-24.7-29.8-62.9-48.9-99.6-49.9C363,167.1,362,167.1,361.1,167.1L361.1,167.1z"/>
			<path class="st3" d="M359.9,151.6c81.8,0,148.5,66.7,148.5,148.5s-66.7,148.5-148.5,148.5S211.4,382,211.4,300.1
				S278.1,151.6,359.9,151.6z M214.6,300.1c0,79.9,65.6,145.3,145.3,145.3S505.1,380,505.1,300.1s-65.6-145.3-145.2-145.3
				S214.6,220.3,214.6,300.1z"/>
			<path d="M359.9,449c-82.1,0-148.8-66.8-148.8-148.8s66.8-148.8,148.8-148.8s148.8,66.8,148.8,148.8S441.9,449,359.9,449z
				 M359.9,151.9c-81.7,0-148.2,66.5-148.2,148.2s66.5,148.2,148.2,148.2s148.2-66.5,148.2-148.3S441.6,151.9,359.9,151.9
				L359.9,151.9z M359.9,445.7c-80.7,0.3-146.4-64.9-146.7-145.6S278,153.8,358.7,153.5S505.1,218.3,505.4,299
				c0.2,39-15.3,76.4-42.9,104C435.4,430.4,398.4,445.7,359.9,445.7L359.9,445.7z M359.9,155.2c-79.9,0-145,65-145,145
				s65,145,145,145s145-65,145-145S439.8,155.2,359.9,155.2L359.9,155.2z"/>
			<path class="st3" d="M360,164c74.6,0,136,61.2,136,136s-61.4,136.1-136,136.1S224,374.9,224,300S285.4,164,360,164z M227.2,300
				c0,73,60,132.8,132.8,132.8S492.8,373,492.8,300s-60-132.8-132.8-132.8S227.2,227,227.2,300z"/>
			<path d="M360,436.4c-75.6,0.3-137.1-60.7-137.4-136.3c-0.3-75.6,60.7-137.1,136.3-137.4c75.6-0.3,137.1,60.7,137.4,136.3
				c0.1,36.5-14.3,71.6-40.1,97.4C430.8,422,396.1,436.4,360,436.4z M360,164.3c-74.9,0-135.8,60.9-135.8,135.8
				S285.1,435.8,360,435.8S495.7,374.9,495.7,300S434.8,164.3,360,164.3z M360,433.1c-73.8,0.3-133.8-59.3-134.1-133
				c-0.3-73.8,59.3-133.8,133-134.1c73.8-0.3,133.8,59.3,134.1,133c0.1,35.6-14,69.8-39.2,95C429.1,419,395.3,433.1,360,433.1z
				 M360,167.5c-73.1,0-132.5,59.5-132.5,132.5S286.9,432.5,360,432.5S492.5,373.1,492.5,300S433,167.5,360,167.5L360,167.5z"/>
			<path class="st3" d="M366.4,151.5h-12.9v298h13L366.4,151.5z"/>
			<path d="M366.5,449.8h-13c-0.2,0-0.3-0.1-0.3-0.3c0,0,0,0,0,0v-298c0-0.2,0.1-0.3,0.3-0.3h12.9c0.2,0,0.3,0.1,0.3,0.3l0,0
				l0.1,298C366.8,449.7,366.7,449.8,366.5,449.8z M353.8,449.2h12.4l-0.1-297.4h-12.4L353.8,449.2z"/>
			<path class="st3" d="M364.5,149.5h3v302h-3V149.5z M352.5,149.5h3v302h-3V149.5z"/>
			<path d="M367.5,451.8h-3c-0.2,0-0.3-0.1-0.3-0.3c0,0,0,0,0,0v-302c0-0.1,0-0.1,0.1-0.2c0.1-0.1,0.1-0.1,0.2-0.1h3
				c0.2,0,0.3,0.1,0.3,0.3l0,0v302c0,0.1,0,0.1-0.1,0.2C367.7,451.8,367.6,451.8,367.5,451.8z M364.8,451.2h2.5V149.8h-2.5V451.2z
				 M355.5,451.8h-3c-0.2,0-0.3-0.1-0.3-0.3c0,0,0,0,0,0v-302c0-0.2,0.1-0.3,0.3-0.3l0,0h3c0.2,0,0.3,0.1,0.3,0.3l0,0v302
				c0,0.1,0,0.1-0.1,0.2C355.7,451.8,355.6,451.8,355.5,451.8z M352.8,451.2h2.4V149.8h-2.4L352.8,451.2z"/>
			<path class="st3" d="M508.5,306.4v-11l-9-8.4l-51-13.5l-73.6-7.5l-88.6,4.5l-63.1,15l-12.7,9.4v11l32.3-14.5l76.6-12h73.6l54,6
				l37.5,9L508.5,306.4z"/>
			<path d="M508.5,306.7c0,0-0.1,0-0.1,0l-24-11.9l-37.5-9l-54-6h-73.6l-76.5,12l-32.2,14.4c-0.1,0-0.2,0-0.3,0
				c-0.1-0.1-0.1-0.1-0.1-0.2v-11c0-0.1,0-0.2,0.1-0.2l12.7-9.4h0.1l63.1-15l88.6-4.5l73.6,7.5l51.1,13.5c0,0,0.1,0,0.1,0.1l9,8.4
				c0.1,0.1,0.1,0.1,0.1,0.2v11c0,0.1-0.1,0.2-0.1,0.3C508.6,306.7,508.5,306.7,508.5,306.7z M392.9,279.2l54.1,6l37.6,9l23.6,11.7
				v-10.4l-8.9-8.2l-51-13.5l-73.5-7.5l-88.5,4.5l-62.9,15l-12.6,9.3v10.5l31.8-14.3h0.1l76.6-12L392.9,279.2z"/>
			<path class="st3" d="M360.1,277.1c35.1-0.1,69.2,3.3,96.2,8.6c27.9,5.6,47.5,12.5,54.2,20.4v3.9c-8.1-9.7-34.5-16.9-54.8-21
				c-26.8-5.2-60.7-8.6-95.6-8.5c-36.9,0.1-71.2,3.6-97.6,8.7c-21.2,4.2-49.5,12.6-53,20.8v-4c1.9-5.7,23-14.2,52.5-20.1
				C288.7,280.7,323,277.2,360.1,277.1L360.1,277.1z M360.1,264.4c35.1-0.1,69.2,3.3,96.2,8.6c27.9,5.6,47.5,12.5,54.2,20.4v3.9
				c-8.1-9.7-34.5-16.9-54.8-21c-26.8-5.2-60.6-8.6-95.6-8.5c-36.9,0.1-71,3.6-97.4,8.7c-20.5,3.9-49.9,12.6-53.2,20.8v-4
				c1.9-5.6,23.4-14.5,52.5-20.1C288.7,267.9,323,264.5,360.1,264.4L360.1,264.4z"/>
			<path d="M209.5,310.3L209.5,310.3c-0.2,0-0.3-0.1-0.3-0.3v-4c0,0,0-0.1,0-0.1c2.1-6.1,24.3-14.6,52.7-20.3
				c28.4-5.5,63.3-8.6,98.1-8.7l0,0c33.3-0.1,67.5,3,96.3,8.6c29.1,5.8,47.9,12.9,54.4,20.5c0,0.1,0.1,0.1,0.1,0.2v3.9
				c0,0.1-0.1,0.2-0.2,0.3c-0.1,0-0.2,0-0.3-0.1c-8.6-10.3-37.9-17.5-54.7-20.9c-28.3-5.5-61.8-8.5-94.5-8.5h-1
				c-34.4,0.1-69.1,3.2-97.5,8.7c-23.1,4.6-49.5,13-52.8,20.6C209.7,310.2,209.6,310.3,209.5,310.3z M361.1,280.2
				c32.8,0,66.3,3,94.6,8.5c16.5,3.3,45.2,10.3,54.5,20.5v-3c-6.5-7.5-25.1-14.4-54-20.2c-28.5-5.5-62.2-8.6-95.2-8.6h-1
				c-34.8,0.1-69.6,3.1-98,8.7c-27.8,5.6-50.2,14.1-52.3,19.9v2.9c5.6-8.6,35.4-16.5,52.7-20c28.5-5.6,63.2-8.6,97.6-8.7
				L361.1,280.2z M209.5,297.6L209.5,297.6c-0.2,0-0.3-0.1-0.3-0.3v-4c0,0,0-0.1,0-0.1c2.1-6.2,24.8-14.9,52.8-20.4
				c28.4-5.5,63.3-8.6,98.1-8.7h1c33,0,66.8,3,95.3,8.6c29.1,5.8,47.9,12.9,54.4,20.5c0,0.1,0.1,0.1,0.1,0.2v3.9
				c0,0.1-0.1,0.2-0.2,0.3c-0.1,0-0.2,0-0.3-0.1c-8.6-10.3-37.9-17.5-54.7-20.9c-28.2-5.5-61.8-8.5-94.5-8.5h-1
				c-34.3,0.1-68.9,3.1-97.4,8.7c-18.7,3.5-49.6,12.3-53,20.6C209.8,297.5,209.6,297.6,209.5,297.6z M361.1,267.5
				c32.8,0,66.3,3,94.6,8.5c16.5,3.3,45.2,10.3,54.5,20.5v-3c-6.5-7.5-25.1-14.4-54-20.2c-28.8-5.6-62.9-8.6-96.1-8.6l0,0
				c-34.8,0.1-69.6,3.1-98,8.7c-30.4,5.9-50.4,14.8-52.3,19.9v2.8c5.3-8.3,34.1-16.4,52.8-19.9c28.5-5.6,63.1-8.6,97.5-8.7
				L361.1,267.5z"/>
			<path class="st3" d="M359.2,199.4c55.3-0.3,103.5,7.7,125.5,19l8,13.9c-19.2-10.3-71.2-21.1-133.5-19.5
				c-50.8,0.3-105,5.6-132.3,20.1l9.6-16.1C259,205.4,311.6,199.5,359.2,199.4"/>
			<path d="M227,233.3c-0.1,0-0.2,0-0.2-0.1c-0.1-0.1-0.1-0.2,0-0.4l9.6-16.1c0,0,0.1-0.1,0.1-0.1c23.2-12,78.3-17.5,122.7-17.6h2.8
				c52.2,0,100.2,7.4,122.9,19.1c0,0,0.1,0.1,0.1,0.1l8,13.9c0.1,0.1,0,0.2,0,0.3c-0.1,0.1-0.2,0.1-0.3,0.1
				c-20.1-10.9-72.4-21-133.4-19.4c-35.7,0.2-100.4,3.1-132.1,20.1C227.1,233.3,227.1,233.3,227,233.3z M236.8,217.2l-9,15.1
				c32.2-16.6,96.1-19.5,131.5-19.7c60.2-1.6,112,8.3,132.8,19l-7.5-13c-23.1-11.8-72.2-19.2-125.3-19l0,0
				C315,199.8,260,205.2,236.8,217.2L236.8,217.2z"/>
			<path class="st3" d="M360,210.5c31.5-0.1,62,1.7,86.2,6.1c22.6,4.2,44.1,10.5,47.1,13.9l2.4,4.2c-7.5-4.9-26.1-10.3-50-14.9
				s-54.5-6-85.8-5.9c-35.6-0.1-63.2,1.8-87,5.9c-25.1,4.7-42.5,11.4-46.8,14.6l2.3-4.5c8.3-4.3,21.6-9.4,43.8-13.4
				C296.9,212,324.9,210.7,360,210.5L360,210.5z M360,198.5c30.2-0.1,60,1.6,83.2,5.8c18.3,3.6,36.4,9.1,43.1,14.1l3.5,5.5
				c-5.9-6.6-28.3-12.8-48-16.3c-23-4-51.6-5.5-81.8-5.8c-31.7,0.1-60.9,2-83.6,6.2c-21.7,4.1-35.6,9-41.6,12.8l3.1-4.6
				c8.2-4.3,21.3-8.2,37.9-11.5C298.7,200.5,328.1,198.6,360,198.5L360,198.5z"/>
			<path d="M495.7,235c-0.1,0-0.1,0-0.2-0.1c-7.3-4.8-25.5-10.2-49.9-14.8c-21.4-4-50.3-6-85.8-5.9c-35.6-0.1-63.2,1.8-86.9,5.9
				c-25,4.7-42.3,11.3-46.7,14.5c-0.1,0.1-0.3,0.1-0.4,0c-0.1-0.1-0.1-0.2-0.1-0.4l2.3-4.5c0,0,0.1-0.1,0.1-0.1
				c11.2-5.7,25.6-10.1,43.9-13.4c22.2-4.1,47.6-5.8,87.7-6l0,0c34-0.1,63.8,2,86.3,6.1c23,4.3,44.2,10.6,47.3,14l2.4,4.3
				c0.1,0.1,0,0.3-0.1,0.4C495.8,235,495.8,235,495.7,235z M362.3,213.6c34.5,0,62.5,2,83.5,5.9c23.5,4.4,41.2,9.6,49.2,14.3
				l-1.8-3.2c-3-3.3-24.5-9.6-47-13.8s-52.3-6.1-86.2-6.1l0,0c-40,0.2-65.4,2-87.6,6c-18.2,3.3-32.5,7.6-43.7,13.3l-1.8,3.4
				c5.6-3.4,22.4-9.6,46-14c23.8-4.1,51.4-6,87-5.9H362.3z M489.7,224.2c-0.1,0-0.2,0-0.2-0.1c-6.1-6.8-29.6-13-47.8-16.2
				c-21-3.6-47.7-5.5-81.7-5.8c-33.1,0.1-62,2.2-83.6,6.2c-19.2,3.7-34.7,8.4-41.4,12.8c-0.1,0.1-0.3,0.1-0.4,0
				c-0.1-0.1-0.1-0.3,0-0.4l3.1-4.6c0,0,0.1-0.1,0.1-0.1c8.1-4.3,21.3-8.2,38-11.5c21.6-3.9,50.7-6.1,84.2-6.1h2
				c32.1,0,60.1,2,81.2,5.8c19.6,3.8,37,9.5,43.2,14.1c0,0,0.1,0,0.1,0.1l3.5,5.5c0.1,0.1,0.1,0.3-0.1,0.4
				C489.7,224.2,489.7,224.2,489.7,224.2z M359.9,201.5c34.1,0.3,60.8,2.2,81.8,5.8c17,3,38.5,8.6,46.5,14.9l-2.3-3.7
				c-6.2-4.6-23.4-10.2-42.9-14c-21.5-3.9-50.2-5.8-83.1-5.8l0,0c-33.5,0.1-62.6,2.2-84.1,6.1c-16.7,3.3-29.8,7.2-37.8,11.4
				l-2.3,3.5c7.3-4.2,22.2-8.7,40.5-12.2C297.9,203.7,326.8,201.6,359.9,201.5z"/>
			<path class="st3" d="M433.7,361.9c-27.3-5.1-54.7-5.8-73.8-5.6c-92.1,1.1-121.9,18.9-125.5,24.3l-6.9-11.2
				c23.4-17,73.6-26.5,132.9-25.5c30.8,0.5,57.3,2.5,79.7,6.9L433.7,361.9"/>
			<path d="M234.4,380.9L234.4,380.9c-0.1,0-0.2,0-0.2-0.1l-6.9-11.2c-0.1-0.1,0-0.3,0.1-0.4c23.5-17,73.2-26.6,133-25.6
				c32.5,0.5,58.6,2.8,79.7,6.9c0.1,0,0.2,0.1,0.2,0.2c0,0.1,0,0.2,0,0.3L434,362c-0.1,0.1-0.2,0.2-0.3,0.1
				c-21.7-4-46.5-5.9-73.7-5.6c-89.7,1-121.3,18.3-125.3,24.2C234.6,380.8,234.5,380.9,234.4,380.9z M227.9,369.4l6.5,10.6
				c5-6.3,37.2-23,125.5-24.1c27.2-0.3,52,1.5,73.7,5.6l6-10.7c-21-4-47-6.3-79.2-6.8C300.9,343.1,251.4,352.6,227.9,369.4z"/>
			<path class="st3" d="M359.5,354.7c25.6,0.4,50.8,1.4,75,6l-1.8,3.1c-22.5-4.2-46.6-5.8-73.2-5.6c-34-0.3-68.4,2.9-98.3,11.5
				c-9.4,2.6-25.1,8.7-26.7,13.7l-1.8-2.9c0.5-3,10-9.1,27.6-14.1C294.8,356.6,326.8,354.9,359.5,354.7L359.5,354.7z M360.5,341.8
				c26.5,0.5,54,1.7,80.6,7l-1.8,3.2c-24.1-4.8-47-6.4-78.6-6.9c-34.1,0.1-70.3,2.5-103.2,12.1c-10.6,3.1-28.9,9.8-29.5,15.1
				l-1.8-3.1c0.4-4.8,16.3-11.1,30.5-15.2C289.9,344.3,326.2,341.9,360.5,341.8L360.5,341.8z"/>
			<path d="M234.6,383.6c-0.1,0-0.2,0-0.2-0.1l-1.7-2.9c0-0.1,0-0.1,0-0.2c0.6-3.3,10.5-9.4,27.8-14.3c32.7-9.4,63.3-11.5,99.1-11.7
				l0,0c24.3,0.4,50.2,1.3,75.1,6c0.1,0,0.2,0.1,0.2,0.1c0,0.1,0,0.2,0,0.3l-1.8,3.1c-0.1,0.1-0.2,0.2-0.3,0.1
				c-21.2-3.9-45.1-5.8-73.1-5.6h-4c-36,0-67.7,3.9-94.3,11.5c-10.1,2.8-25,8.9-26.5,13.5C234.8,383.6,234.7,383.6,234.6,383.6
				L234.6,383.6z M233.1,380.4l1.4,2.3c2.5-5,17.4-10.8,26.7-13.4c27.6-7.9,60.8-11.8,98.4-11.5c28-0.1,51.8,1.7,73.1,5.6l1.5-2.6
				c-24.7-4.6-50.5-5.5-74.6-5.9l0,0c-35.7,0.3-66.2,2.3-98.9,11.7C242.6,371.7,233.8,377.7,233.1,380.4z M228,372.6
				c-0.1,0-0.2-0.1-0.2-0.1l-1.8-3.1c0-0.1,0-0.1,0-0.2c0.4-4.9,16.1-11.2,30.7-15.5c28.3-8.2,61.3-12.1,103.8-12.2l0,0
				c26,0.5,53.7,1.7,80.7,7c0.1,0,0.2,0.1,0.2,0.1c0,0.1,0,0.2,0,0.3l-1.8,3.2c-0.1,0.1-0.2,0.2-0.3,0.1
				c-25.6-5.1-49.9-6.4-78.6-6.9c-42.3,0.1-75.1,3.9-103.1,12c-13.8,4-28.8,10.4-29.4,14.8C228.2,372.4,228.1,372.5,228,372.6
				L228,372.6z M226.5,369.1l1.4,2.4c2.4-6.5,26.7-13.8,29.6-14.6c28-8.1,60.9-12,103.2-12.1c28.6,0.4,53,1.8,78.5,6.8l1.5-2.7
				c-26.8-5.3-54.4-6.4-80.2-6.9c-42.5,0.1-75.4,3.9-103.7,12.2C243.2,358.2,227.1,364.5,226.5,369.1L226.5,369.1z"/>
			<path class="st3" d="M491.4,371.1l-11.1,17.2L448.5,360L366,304.5l-93-51L224.7,237l10.3-19.1l3.5-1.9l30,7.5l99,51l57,36
				l48,34.5l19.5,22.5L491.4,371.1z"/>
			<path d="M480.3,388.5c-0.1,0-0.1,0-0.2-0.1l-31.8-28.3l-82.5-55.5l-93-51l-48.2-16.5c-0.2-0.1-0.2-0.2-0.2-0.4c0,0,0,0,0,0
				l10.3-19.1c0,0,0.1-0.1,0.1-0.1l3.5-1.9c0.1,0,0.1,0,0.2,0l30,7.5l99.1,51l57,36l48,34.5l19.5,22.5c0.1,0.1,0.1,0.2,0.1,0.2
				l-0.6,3.6c0,0,0,0.1,0,0.1l-11,17.2C480.5,388.5,480.4,388.5,480.3,388.5L480.3,388.5z M225.1,236.8l48,16.4l93,51l82.5,55.5
				l31.6,28l10.8-16.8l0.6-3.4l-19.4-22.4l-48-34.5l-57-36l-99-51l-29.8-7.4l-3.3,1.8L225.1,236.8z M491.4,371.1L491.4,371.1z"/>
			<path class="st3" d="M223,237.5c8.5-5.7,70.7,22,135.8,61.3c64.9,39.4,127,83.9,121.4,92.2l-1.8,2.9l-0.9,0.7
				c0.2-0.1,1.1-1.3-0.1-4.4c-2.8-9.1-46.8-44.2-119.8-88.4c-71.2-42.5-130.6-68-136.5-60.7L223,237.5z M493.5,370.8
				c5.4-10.6-52.4-54.1-124-96.4c-73.2-41.5-126-65.9-135.6-58.6l-2.1,3.9c0,0.2,0.1-0.3,0.5-0.6c1.8-1.5,4.7-1.4,6-1.4
				c16.6,0.3,64,22.1,130.5,60.2c29.1,17,123.1,77.2,122.7,94.2c0,1.5,0.1,1.8-0.4,2.5L493.5,370.8L493.5,370.8L493.5,370.8z"/>
			<path d="M477.5,394.8c-0.1,0-0.2,0-0.2-0.1c-0.1-0.1-0.1-0.3,0-0.4l0,0c0,0,1-1-0.2-4c-2.9-9.4-49.4-45.8-119.7-88.2
				c-74.8-44.6-130.8-67.4-136.1-60.8c-0.1,0.1-0.3,0.1-0.4,0c-0.1-0.1-0.1-0.2-0.1-0.3l1.9-3.6c0,0,0.1-0.1,0.1-0.1
				c8.8-6,71.2,22.1,136.1,61.3c58.4,35.4,119,77.9,121.8,90.4c0.2,0.8,0.1,1.6-0.3,2.3l-1.8,2.8l-0.1,0.1l-0.9,0.7l0,0
				C477.7,394.8,477.6,394.8,477.5,394.8z M225.2,239.6c16.3,0,71.4,25.5,132.6,62c71.4,43.1,117,78.8,120,88.5
				c0.5,1.1,0.7,2.2,0.6,3.4l1.7-2.6c0.3-0.6,0.4-1.2,0.2-1.8c-2.7-12.3-63.2-54.6-121.5-90c-63.5-38.3-126.7-66.9-135.5-61.3
				l-1.3,2.4C223,239.7,224.1,239.5,225.2,239.6z M491.1,374.8c-0.1,0-0.1,0-0.2,0c-0.1-0.1-0.1-0.3-0.1-0.4l0.2-0.4
				c0.2-0.5,0.2-0.9,0.1-1.4V372c0.4-16.9-95.5-78.1-122.6-93.9c-66.2-38-113.8-59.9-130.4-60.2h-0.3c-1.4,0-3.9,0-5.4,1.4
				c-0.2,0.1-0.3,0.3-0.4,0.5c-0.1,0.2-0.2,0.3-0.4,0.2c-0.1-0.1-0.2-0.2-0.2-0.4c0,0,0-0.1,0-0.1l2.1-3.9c0,0,0-0.1,0.1-0.1
				c11.5-8.7,80.3,27.1,135.9,58.6c64.5,38.2,129.9,85.1,124.1,96.8l0,0l-2.1,3.3c-0.1,0.1-0.2,0.3-0.3,0.4
				C491.3,374.7,491.2,374.7,491.1,374.8z M238.3,217.3c16.7,0.3,64.3,22.2,130.6,60.2C400.5,296,492.2,355,491.8,372v0.5v0.3
				l1.4-2.1l0,0c4.9-9.9-49.5-52-123.8-96c-78.3-44.4-126.3-65.3-135.3-58.7l-1.3,2.4c1.6-0.8,3.3-1.1,5.1-1L238.3,217.3z"/>
			<path class="st4" d="M270.9,316.5c0,23.5,9.4,46.1,26.2,62.6c16.2,16.2,38.3,26.4,62.7,26.4c23.6,0,46.3-9.4,63-26.1
				c16.2-16.1,26.2-61.9,26.2-61.9h-0.5v-120l-178-0.2v119.2H270.9z"/>
			<path class="st5" d="M274.5,317v-0.6c0.1,22.6,9.1,44.2,25.2,60c33.3,33.4,87.2,33.4,120.6,0.2c0,0,0,0,0.1-0.1
				c16-15.9,25-37.5,25-60.1h0.1v-115h-171L274.4,317 M410.5,236.7l1,72.7v8.1h-1c0,2.1-0.1,4.2-0.4,6.3
				c-1.4,11.2-6.5,21.6-14.6,29.5c-20.1,19.8-52.5,19.5-72.3-0.7c-9.3-9.4-14.5-22.1-14.6-35.3v-80.8L410.5,236.7L410.5,236.7z"/>
			<g id="castle">
				<path class="st3" d="M285.3,231.9c0.2-8.3,6.1-10.2,6.1-10.3s6.3,2.1,6.3,10.4l-12.7-0.1"/>
				<path class="st6" d="M280.5,221.5l-1.3,9h6.2c0.1-7.3,6-8.6,6.1-8.6s6.1,9.6,6.1,9.6h7.5l-1.2-10H280.5L280.5,221.5L280.5,221.5
					z"/>
				<path class="st6" d="M278.8,231.5h25.4c0.5-0.4,1,0.1,1,0.8c0,0.6-0.4,1.1-1,1.2h-25.4c-0.6-0.1-1-0.6-1-1.2
					C277.8,231.6,278.2,231.1,278.8,231.5z"/>
				<path class="st6" d="M288,231.5c0-5,3.4-6.4,3.4-6.4s3.5,1.4,3.5,6.4H288"/>
				<path class="st6" d="M280,217.5h23c0.6,0,1,0.4,1,1s-0.4,1-1,1h-23c-0.6,0-1-0.4-1-1S279.4,217.5,280,217.5z"/>
				<path class="st6" d="M280.5,219.5h22.1c0.6,0,1,0.4,1,1s-0.4,1-1,1h-22.1c-0.6,0-1-0.4-1-1S279.9,219.5,280.5,219.5z"/>
				<path class="st6" d="M287.4,204.5h3.1v-1h2v1h1v-1h2v3.2c0,0.4-0.3,0.8-0.8,0.8c0,0,0,0,0,0h-6.4c-0.5,0-0.8-0.4-0.8-0.8v-3.2
					h-0.1L287.4,204.5z"/>
				<path class="st6" d="M294.4,207.5l0.4,10h-6.6l0.4-10h5.4"/>
				<path id="cp1" class="st6" d="M286.3,212.5l0.2,5h-5.9l0.2-5H286.3z"/>
				<path id="cp1-2" class="st6" d="M302.2,212.5l0.2,5h-5.9l0.2-5H302.2z"/>
				<path id="cp2" class="st6" d="M279.5,209.5h3v-1h2v1h1v-1h2v3.2c0,0.4-0.3,0.8-0.8,0.8c0,0,0,0,0,0h-6.4c-0.4,0-0.8-0.4-0.8-0.8
					l0,0v-3.2h0V209.5z"/>
				<path id="cp2-2" class="st6" d="M295.4,209.5h3.1v-1h2v1h1v-1h2v3.2c0,0.4-0.3,0.8-0.8,0.8c0,0,0,0,0,0h-6.4
					c-0.5,0-0.8-0.4-0.8-0.8v-3.2h-0.1L295.4,209.5z"/>
				<path d="M290.9,210.9c0-0.9,1.3-1,1.1,0v2.1h-1v-2"/>
				<path id="cp3" d="M282.9,214.3c0-0.9,1.3-0.9,1.1,0v1.7h-1v-2"/>
				<path id="cp3-2" d="M298.8,214.3c-0.1-0.3,0.2-0.6,0.5-0.7c0.3-0.1,0.6,0.2,0.7,0.5c0,0.1,0,0.1,0,0.2v1.7h-1v-2"/>
			</g>
			<g id="castle-2">
				<path class="st3" d="M285.3,300.9c0.2-8.3,6.1-10.2,6.1-10.3s6.3,2.1,6.3,10.4l-12.7-0.1"/>
				<path class="st6" d="M280.5,291l-1.3,9.5h6.2c0.1-7.8,6-9.1,6.1-9.1s6.1,10.1,6.1,10.1h6.2l-1.1-11h-22.3V291z"/>
				<path class="st6" d="M278.8,300.5h25.4c0.6,0.1,1,0.6,1,1.3c0,0.6-0.4,1.2-1,0.8h-25.4c-0.5,0.4-1-0.1-1-0.8
					C277.8,301.1,278.2,300.6,278.8,300.5z"/>
				<path class="st6" d="M288,300.5c0-5,3.4-6.4,3.4-6.4s3.5,1.5,3.5,6.4H288"/>
				<path class="st6" d="M280,287.5h23c0.6,0,1,0.4,1,1s-0.4,1-1,1h-23c-0.6,0-1-0.4-1-1S279.4,287.5,280,287.5z"/>
				<path class="st6" d="M280.5,289.5h22.1c0.6,0,1,0.4,1,1s-0.4,1-1,1h-22.1c-0.6,0-1-0.4-1-1S279.9,289.5,280.5,289.5z"/>
				<path class="st6" d="M287.4,273.5h2.1v1h1v-1h2v1h1v-1h2v3.2c0,0.4-0.3,0.8-0.8,0.8c0,0,0,0,0,0h-6.4c-0.5,0-0.8-0.4-0.8-0.8
					v-4.2h-0.1L287.4,273.5z"/>
				<path class="st6" d="M294.4,277.5l0.4,10h-6.6l0.4-10h5.4"/>
				<path id="cp1-3" class="st6" d="M286.3,281.5l0.2,5h-5.9l0.2-5H286.3z"/>
				<path id="cp1-4" class="st6" d="M302.2,281.5l0.2,5h-5.9l0.2-5H302.2z"/>
				<path id="cp2-3" class="st6" d="M279.5,278.5h2v1h1v-1l2-1v2h1v-2h2v3.2c0,0.4-0.3,0.8-0.8,0.8c0,0,0,0,0,0h-6.4
					c-0.4,0-0.8-0.4-0.8-0.8c0,0,0,0,0,0v-3.2h0V278.5z"/>
				<path id="cp2-4" class="st6" d="M295.4,278.5h2.1v1h1v-1l2-1v2h1v-2h2v3.2c0,0.4-0.3,0.8-0.8,0.8c0,0,0,0,0,0h-6.4
					c-0.5,0-0.8-0.4-0.8-0.8v-3.2h-0.1L295.4,278.5z"/>
				<path d="M290.9,280.4c0-0.9,1.3-1,1.1,0v2.6h-1v-3"/>
				<path id="cp3-3" d="M282.9,283.7c0-0.9,1.3-0.9,1.1,0v2.3h-1v-2"/>
				<path id="cp3-4" d="M298.8,283.7c-0.1-0.3,0.2-0.6,0.5-0.7c0.3-0.1,0.6,0.2,0.7,0.5c0,0.1,0,0.1,0,0.2v2.3h-1v-2"/>
			</g>
			<g id="castle3">
				<g id="castle-3">
					<path class="st3" d="M312.4,373.5c-5.7-6-3-11.5-3-11.6s6-3,11.8,2.8L312.4,373.5"/>
					<path class="st6" d="M301.6,369.9l6,7.4l4.4-4.4c-5.5-5.6-2.3-10.7-2.2-10.8s5.5-3,10.8,2.1l4.4-4.4l-7.6-6L301.6,369.9
						L301.6,369.9z"/>
					<path class="st6" d="M307.4,377.7l17.9-18c0.5-0.4,1.3-0.2,1.7,0.3c0.3,0.4,0.3,0.9,0,1.3l-17.9,18c-0.5,0.4-1.3,0.3-1.7-0.3
						C307.1,378.6,307.1,378.1,307.4,377.7L307.4,377.7z"/>
					<path class="st6" d="M313.9,371.1c-3.5-3.5-2.1-6.9-2.1-6.9s3.5-1.5,7,2L313.9,371.1"/>
					<path class="st6" d="M298.2,367.8l17.2-17.3c0.4-0.4,1-0.3,1.4,0.1c0.4,0.4,0.5,1,0.1,1.4l-17.2,17.3c-0.4,0.4-1.1,0.3-1.5-0.1
						C297.9,368.8,297.8,368.2,298.2,367.8z"/>
					<path class="st6" d="M300.1,368.9l16.4-16.5c0.4-0.3,1-0.3,1.4,0.1c0.4,0.4,0.5,1,0.1,1.4l-16.4,16.5c-0.4,0.3-1,0.3-1.4-0.1
						C299.8,369.9,299.7,369.3,300.1,368.9z"/>
					<path class="st6" d="M294.1,352.4l1.3-1.3l0.9,0.9l0.9-1l-1-1l1.3-1.3l0.9,0.9l1-1l-1-0.9l1.3-1.3l2.1,2.1
						c0.3,0.3,0.3,0.8,0,1.1c0,0,0,0,0,0l-4.7,4.7c-0.3,0.3-0.8,0.4-1.2,0L294.1,352.4L294.1,352.4z"/>
					<path class="st6" d="M301.8,350.3l7.2,6.5l-4.6,4.6l-6.6-7.1L301.8,350.3"/>
					<path id="cp1-5" class="st6" d="M299.5,359l3.8,3.5L299,367l-3.6-3.8L299.5,359L299.5,359L299.5,359z"/>
					<path id="cp1-6" class="st6" d="M310.7,347.8l3.8,3.5l-4.4,4.4l-3.6-3.8L310.7,347.8L310.7,347.8z"/>
					<path id="cp2-5" class="st6" d="M291.9,361.3l1.3-1.3l0.9,0.9l0.9-1l-1-0.9l1.3-1.3l1,0.9l0.9-0.9l-1-0.9l1.3-1.3l2.1,2.1
						c0.3,0.3,0.3,0.8,0,1.1c0,0,0,0,0,0l-4.6,4.6c-0.3,0.3-0.8,0.3-1.1,0L291.9,361.3L291.9,361.3z"/>
					<path id="cp2-6" class="st6" d="M303.1,350l1.3-1.3l0.9,0.9l0.9-0.9l-1-0.9l1.3-1.3l0.9,0.9l0.9-0.9l-1-0.9l1.3-1.3l2.1,2.1
						c0.3,0.3,0.3,0.8,0,1.1c0,0,0,0,0,0l-4.6,4.6c-0.3,0.3-0.8,0.3-1.1,0L303.1,350z"/>
					<path d="M301.6,354.9c-0.3-0.2-0.3-0.6-0.1-0.9c0.2-0.3,0.6-0.3,0.9-0.1c0,0,0.1,0.1,0.1,0.1l1.6,1.6l-0.9,0.9L301.6,354.9"/>
					<path id="cp3-5" d="M298.3,362.9c-0.3-0.2-0.3-0.6-0.1-0.9c0.2-0.3,0.6-0.3,0.9-0.1c0,0,0,0,0.1,0.1l1.3,1.3l-0.9,0.9
						L298.3,362.9"/>
					<path id="cp3-6" d="M309.6,351.6c-0.3-0.2-0.3-0.6-0.1-0.9s0.6-0.3,0.9-0.1c0.1,0,0.1,0.1,0.1,0.1l1.3,1.3l-0.9,0.9
						L309.6,351.6"/>
				</g>
			</g>
			<g id="castle-4">
				<path class="st3" d="M353.9,231.9c0.2-8.3,6.1-10.2,6.1-10.3s6.3,2.1,6.3,10.4l-12.3-0.1"/>
				<path class="st6" d="M348.5,221.5l-0.7,9h6.2c0.1-7.3,6-8.6,6.1-8.6s6.1,9.6,6.1,9.6h7l-1.2-10H348.5L348.5,221.5L348.5,221.5z"
					/>
				<path class="st6" d="M347.4,231.5h25.4c0.5-0.4,1,0.1,1,0.8c0,0.6-0.4,1.1-1,1.2h-25.4c-0.6-0.1-1-0.6-1-1.2
					C346.4,231.6,346.8,231.1,347.4,231.5z"/>
				<path class="st6" d="M356.6,231.5c0-5,3.4-6.4,3.4-6.4s3.5,1.4,3.5,6.4H357"/>
				<path class="st6" d="M348.5,217.5h23.1c0.6,0,1,0.4,1,1s-0.4,1-1,1h-23.1c-0.6,0-1-0.4-1-1S348,217.5,348.5,217.5z"/>
				<path class="st6" d="M349,219.5h22.1c0.6,0,1,0.4,1,1s-0.4,1-1,1H349c-0.6,0-1-0.4-1-1S348.4,219.5,349,219.5z"/>
				<path class="st6" d="M355.9,204.5h2.6v-1h3v1h1v-1h2v3.2c0,0.4-0.3,0.8-0.8,0.8c0,0,0,0,0,0h-6.4c-0.5,0-0.8-0.4-0.8-0.8v-3.2
					h-0.6L355.9,204.5z"/>
				<path class="st6" d="M362.9,207.5l0.4,10h-6.6l0.4-10H362.9"/>
				<path id="cp1-7" class="st6" d="M354.9,212.5l0.2,5h-5.9l0.2-5H354.9z"/>
				<path id="cp1-8" class="st6" d="M370.8,212.5l0.2,5h-6l0.2-5H370.8L370.8,212.5z"/>
				<path id="cp2-7" class="st6" d="M348,209.5h2.5v-1h3v1h1v-1h2v3.1c-0.3,0.4-0.7,0.7-1.2,0.9h-6.5c-0.5-0.3-0.9-0.6-1.4-1v-3h0.5
					V209.5z"/>
				<path id="cp2-8" class="st6" d="M363.9,209.5h2.6v-1h3v1h1v-1h1v3.2c0,0.4-0.3,0.8-0.8,0.8c0,0,0,0,0,0h-6.4
					c-0.5,0-0.8-0.4-0.8-0.8v-3.2h0.4L363.9,209.5z"/>
				<path d="M359.4,210.9c0-0.9,1.3-1,1.6,0v2.1h-1v-2"/>
				<path id="cp3-7" d="M351.4,214.3c0-0.9,1.3-0.9,1.6,0v1.7h-1v-2"/>
				<path id="cp3-8" d="M367.4,214.3c0-0.9,1.3-0.9,1.6,0v1.7h-1v-2"/>
			</g>
			<g id="castle-5">
				<path class="st3" d="M434.4,231.9c-0.2-8.3-6.1-10.2-6.1-10.3s-6.4,2.1-6.3,10.4l12-0.1"/>
				<path class="st6" d="M439.5,221.5l1,9h-6.2c0-7.3-6-8.6-6.1-8.6s-6.2,9.6-6.2,9.6h-7.2l1.2-10L439.5,221.5L439.5,221.5
					L439.5,221.5z"/>
				<path class="st6" d="M440.9,231.5h-25.4c-0.5-0.4-1,0.1-1,0.8c0,0.6,0.4,1.1,1,1.2h25.4c0.6-0.1,1-0.6,1-1.2
					C441.9,231.6,441.5,231.1,440.9,231.5z"/>
				<path class="st6" d="M431.7,231.5c0-5-3.4-6.4-3.4-6.4s-3.5,1.4-3.5,6.4h7.3"/>
				<path class="st6" d="M439.7,217.5h-23.1c-0.6,0-1,0.4-1,1s0.4,1,1,1h23.1c0.6,0,1-0.4,1-1S440.3,217.5,439.7,217.5z"/>
				<path class="st6" d="M439.2,219.5h-22.1c-0.6,0-1,0.4-1,1s0.4,1,1,1h22.1c0.6,0,1-0.4,1-1S439.8,219.5,439.2,219.5z"/>
				<path class="st6" d="M432.3,204.5h-2.8v-1h-2v1h-1v-1h-2v3.2c0,0.4,0.3,0.8,0.8,0.8c0,0,0,0,0,0h6.4c0.5,0,0.8-0.4,0.8-0.8v-3.2
					h-0.2L432.3,204.5z"/>
				<path class="st6" d="M425.3,207.5l-0.4,10h6.6l-0.4-10H425"/>
				<path id="cp1-9" class="st6" d="M433.4,212.5l-0.2,5h5.9l-0.2-5H433.4z"/>
				<path id="cp1-10" class="st6" d="M417.5,212.5l-0.2,5h5.9l-0.2-5H417.5z"/>
				<path id="cp2-9" class="st6" d="M440.2,209.5h-2.7v-1h-2v1h-1v-1h-2v3.2c0,0.4,0.3,0.8,0.8,0.8c0,0,0,0,0,0h6.4
					c0.5,0,0.8-0.4,0.8-0.8v-3.2h-0.3L440.2,209.5z"/>
				<path id="cp2-10" class="st6" d="M424.3,209.5h-2.8v-1h-2v1h-1v-1h-2v3.2c0,0.4,0.3,0.8,0.8,0.8c0,0,0,0,0,0h6.4
					c0.5,0,0.8-0.4,0.8-0.8v-3.2h-0.2L424.3,209.5z"/>
				<path d="M428.8,210.9c0-0.9-1.3-1-0.8,0v2.1h1v-2"/>
				<path id="cp3-9" d="M436.8,214.3c0-0.9-1.3-0.9-0.8,0v1.7h1v-2"/>
				<path id="cp3-10" d="M420.9,214.3c0-0.9-1.3-0.9-0.9,0v1.7h1v-2"/>
			</g>
			<g id="castle-6">
				<path class="st3" d="M434.4,300.9c-0.2-8.3-6.1-10.2-6.1-10.3s-6.4,2.1-6.3,10.3l12-0.1"/>
				<path class="st6" d="M439.5,291l1,9.5h-6.2c0-7.8-6-9.1-6.1-9.1s-6.2,10.1-6.2,10.1h-6.2l1.1-11h22.6V291z"/>
				<path class="st6" d="M440.9,300.5h-25.4c-0.6,0.1-1,0.6-1,1.3c0,0.6,0.4,1.2,1,0.8h25.4c0.5,0.4,1-0.1,1-0.8
					C441.9,301.1,441.5,300.6,440.9,300.5z"/>
				<path class="st6" d="M431.7,300.5c0-5-3.4-6.4-3.4-6.4s-3.5,1.5-3.5,6.4h7.3"/>
				<path class="st6" d="M439.7,287.5h-23.1c-0.6,0-1,0.4-1,1s0.4,1,1,1h23.1c0.6,0,1-0.4,1-1S440.3,287.5,439.7,287.5z"/>
				<path class="st6" d="M439.2,289.5h-22.1c-0.6,0-1,0.4-1,1s0.4,1,1,1h22.1c0.6,0,1-0.4,1-1S439.8,289.5,439.2,289.5z"/>
				<path class="st6" d="M432.3,273.5h-1.8v1h-1v-1h-2v1h-1v-1h-2v3.2c0,0.4,0.3,0.8,0.8,0.8c0,0,0,0,0,0h6.4c0.5,0,0.8-0.4,0.8-0.8
					v-4.2h-0.2L432.3,273.5z"/>
				<path class="st6" d="M425.3,277.5l-0.4,10h6.6l-0.4-10H425"/>
				<path id="cp1-11" class="st6" d="M433.4,281.5l-0.2,5h5.9l-0.2-5H433.4z"/>
				<path id="cp1-12" class="st6" d="M417.5,281.5l-0.2,5h5.9l-0.2-5H417.5z"/>
				<path id="cp2-11" class="st6" d="M440.2,278.5h-1.7v1h-1v-1l-2-1v2h-1v-2h-2v3.2c0,0.4,0.3,0.8,0.8,0.8c0,0,0,0,0,0h6.4
					c0.5,0,0.8-0.4,0.8-0.8v-3.2h-0.3L440.2,278.5z"/>
				<path id="cp2-12" class="st6" d="M424.3,278.5h-1.8v1h-1v-1l-2-1v2h-1v-2h-2v3.2c0,0.4,0.3,0.8,0.8,0.8c0,0,0,0,0,0h6.4
					c0.5,0,0.8-0.4,0.8-0.8v-3.2h-0.2L424.3,278.5z"/>
				<path d="M428.8,280.4c0-0.9-1.3-1-0.8,0v2.6h1v-3"/>
				<path id="cp3-11" d="M436.8,283.7c0-0.9-1.3-0.9-0.8,0v2.3h1v-2"/>
				<path id="cp3-12" d="M420.9,283.7c0-0.9-1.3-0.9-0.9,0v2.3h1v-2"/>
			</g>
			<g id="castle3-2">
				<g id="castle-7">
					<path class="st3" d="M407.3,373.5c5.7-6,3-11.5,3-11.6s-6-3-11.8,2.8L407.3,373.5"/>
					<path class="st6" d="M418.1,369.9l-6,7.4l-4.4-4.4c5.5-5.6,2.3-10.7,2.2-10.8s-5.5-3-10.8,2.1l-4.4-4.4l7.6-6L418.1,369.9
						L418.1,369.9z"/>
					<path class="st6" d="M412.3,377.7l-17.9-18c-0.5-0.4-1.3-0.2-1.7,0.3c-0.3,0.4-0.3,0.9,0,1.3l17.9,18c0.5,0.4,1.1,0.3,1.5-0.1
						C412.6,378.8,412.7,378.1,412.3,377.7z"/>
					<path class="st6" d="M405.8,371.1c3.5-3.5,2.1-6.9,2.1-6.9s-3.5-1.5-7,2L405.8,371.1"/>
					<path class="st6" d="M421.5,367.8l-17.2-17.3c-0.4-0.4-1.1-0.3-1.5,0.1c-0.3,0.4-0.3,1,0,1.4l17.2,17.3
						c0.4,0.4,1.1,0.3,1.5-0.1C421.8,368.8,421.8,368.2,421.5,367.8L421.5,367.8z"/>
					<path class="st6" d="M419.6,368.9l-16.4-16.5c-0.5-0.3-1.1-0.2-1.5,0.2c-0.3,0.4-0.3,0.9,0,1.3l16.4,16.5
						c0.4,0.3,1,0.3,1.4-0.1C419.9,369.9,420,369.3,419.6,368.9z"/>
					<path class="st6" d="M425.6,352.4l-1.3-1.3l-0.9,0.9l-0.9-1l0.9-1l-1.4-1.3l-0.9,0.9l-1-1l1-0.9l-1.3-1.3l-2.1,2.1
						c-0.3,0.3-0.3,0.8,0,1.1c0,0,0,0,0,0l4.7,4.7c0.3,0.3,0.8,0.4,1.2,0L425.6,352.4L425.6,352.4z"/>
					<path class="st6" d="M417.9,350.3l-7.2,6.5l4.6,4.6l6.6-7.1L417.9,350.3"/>
					<path id="cp1-13" class="st6" d="M420.2,359l-3.8,3.5l4.4,4.4l3.6-3.8L420.2,359L420.2,359L420.2,359z"/>
					<path id="cp1-14" class="st6" d="M409,347.8l-3.8,3.5l4.4,4.4l3.6-3.8L409,347.8L409,347.8z"/>
					<path id="cp2-13" class="st6" d="M427.8,361.3l-1.3-1.3l-0.9,0.9l-0.9-0.9l1-0.9l-1.3-1.3l-0.9,0.9l-0.9-0.9l1-0.9l-1.3-1.3
						l-2.1,2.1c-0.3,0.3-0.3,0.8,0,1.1c0,0,0,0,0,0l4.6,4.6c0.3,0.3,0.8,0.3,1.1,0L427.8,361.3L427.8,361.3z"/>
					<path id="cp2-14" class="st6" d="M416.6,350l-1.3-1.3l-0.9,0.9l-0.9-0.9l1-0.9l-1.3-1.3l-1,0.9l-0.9-0.9l1-0.9l-1.3-1.3
						l-2.1,2.1c-0.3,0.3-0.3,0.8,0,1.1c0,0,0,0,0,0l4.6,4.6c0.3,0.3,0.8,0.3,1.1,0L416.6,350L416.6,350z"/>
					<path d="M418.1,354.9c0.3-0.3,0.3-0.7,0-0.9s-0.7-0.3-0.9,0l-1.6,1.6l0.9,0.9L418.1,354.9"/>
					<path id="cp3-13" d="M421.4,362.9c0.3-0.2,0.3-0.6,0.1-0.9c-0.2-0.3-0.6-0.3-0.9-0.1c0,0,0,0-0.1,0.1l-1.3,1.3l0.9,0.9
						L421.4,362.9"/>
					<path id="cp3-14" d="M410.1,351.6c0.3-0.2,0.3-0.6,0.1-0.9c-0.2-0.3-0.6-0.3-0.9-0.1c0,0,0,0-0.1,0.1L408,352l0.9,0.9
						L410.1,351.6"/>
				</g>
			</g>
			<g id="quina">
				<path class="st7" d="M349,304v-0.5c0,3.2,1.2,6.3,3.4,8.7c4,4.5,10.9,4.9,15.4,0.8c0.3-0.3,0.6-0.6,0.8-0.8
					c2.2-2.4,3.4-5.5,3.4-8.7V287h-23V304"/>
				<circle class="st8" cx="354.1" cy="293.6" r="2.2"/>
				<circle class="st8" cx="366.6" cy="293.6" r="2.2"/>
				<circle class="st8" cx="360.3" cy="299.6" r="2.2"/>
				<circle class="st8" cx="354.1" cy="305.9" r="2.2"/>
				<circle class="st8" cx="366.6" cy="305.9" r="2.2"/>
			</g>
			<g id="quina-2">
				<path class="st7" d="M349,265v-0.5c0,3.2,1.2,6.3,3.4,8.7c4,4.5,10.9,4.9,15.4,0.8c0.3-0.3,0.6-0.6,0.8-0.8
					c2.2-2.4,3.4-5.5,3.4-8.7V248h-23V265"/>
				<circle class="st8" cx="354.1" cy="254.6" r="2.2"/>
				<circle class="st8" cx="366.6" cy="254.6" r="2.2"/>
				<circle class="st8" cx="360.3" cy="260.6" r="2.2"/>
				<circle class="st8" cx="354.1" cy="266.9" r="2.2"/>
				<circle class="st8" cx="366.6" cy="266.8" r="2.2"/>
			</g>
			<g id="quina-3">
				<path class="st7" d="M318,304v-0.5c0,3.2,1.2,6.3,3.4,8.7c4,4.5,10.9,4.9,15.4,0.8c0.3-0.3,0.6-0.6,0.8-0.8
					c2.2-2.4,3.4-5.5,3.4-8.7V287h-23V304"/>
				<circle class="st8" cx="322.9" cy="293.6" r="2.2"/>
				<circle class="st8" cx="335.4" cy="293.6" r="2.2"/>
				<circle class="st8" cx="329.1" cy="299.6" r="2.2"/>
				<circle class="st8" cx="322.9" cy="305.9" r="2.2"/>
				<circle class="st8" cx="335.4" cy="305.9" r="2.2"/>
			</g>
			<g id="quina-4">
				<path class="st7" d="M380,304v-0.2c0,3.1,1.1,6.1,3.2,8.3c3.8,4.3,10.4,4.7,14.7,0.8c0.3-0.3,0.6-0.5,0.8-0.8
					c2.1-2.3,3.2-5.3,3.2-8.3V287h-22V304"/>
				<circle class="st8" cx="385.2" cy="293.6" r="2.2"/>
				<circle class="st8" cx="397.7" cy="293.6" r="2.2"/>
				<circle class="st8" cx="391.5" cy="299.6" r="2.2"/>
				<circle class="st8" cx="385.2" cy="305.9" r="2.2"/>
				<circle class="st8" cx="397.7" cy="305.9" r="2.2"/>
			</g>
			<g id="quina-5">
				<path class="st7" d="M349,342v0.2c0,3.2,1.2,6.3,3.4,8.7c4,4.5,10.9,4.9,15.4,0.8c0.3-0.3,0.6-0.6,0.8-0.8
					c2.2-2.4,3.4-5.5,3.4-8.7V326h-23V342"/>
				<circle class="st8" cx="354.1" cy="332.3" r="2.2"/>
				<circle class="st8" cx="366.6" cy="332.3" r="2.2"/>
				<circle class="st8" cx="360.3" cy="338.3" r="2.2"/>
				<circle class="st8" cx="354.1" cy="344.5" r="2.2"/>
				<circle class="st8" cx="366.6" cy="344.5" r="2.2"/>
			</g>
		</g>
	</g>
</g>
<g id="Layer_1_1_">
	<path class="st9" d="M861.1,6C874.8,6,886,17.2,886,30.9v538.1c0,13.8-11.2,24.9-24.9,24.9H30.9C17.2,594,6,582.8,6,569.1V30.9
		C6,17.2,17.2,6,30.9,6H861.1 M861.1,0H30.9C13.8,0,0,13.8,0,30.9c0,0,0,0,0,0v538.1C0,586.2,13.8,600,30.9,600h830.1
		c17.1,0,30.9-13.8,30.9-30.9V30.9C892,13.8,878.2,0,861.1,0z"/>
</g>
</svg>
