<?xml version="1.0" encoding="utf-8"?>
<!-- Generator: Adobe Illustrator 27.8.1, SVG Export Plug-In . SVG Version: 6.00 Build 0)  -->
<svg version="1.1"
	 id="svg2" xmlns:dc="http://purl.org/dc/elements/1.1/" xmlns:rdf="http://www.w3.org/1999/02/22-rdf-syntax-ns#" xmlns:cc="http://creativecommons.org/ns#" xmlns:svg="http://www.w3.org/2000/svg"
	 xmlns="http://www.w3.org/2000/svg" xmlns:xlink="http://www.w3.org/1999/xlink" x="0px" y="0px" viewBox="0 0 220.9 226.7"
	 style="enable-background:new 0 0 220.9 226.7;" xml:space="preserve">
<style type="text/css">
	.st0{fill-rule:evenodd;clip-rule:evenodd;fill:#FFFFFF;}
	.st1{fill:#0E1E3D;}
	.st2{fill-rule:evenodd;clip-rule:evenodd;fill:#0E1E3D;}
	.st3{fill:#D81144;}
	.st4{fill-rule:evenodd;clip-rule:evenodd;fill:#FBC715;}
	.st5{fill:#FFFFFF;}
	.st6{fill:#D2D3D1;}
</style>
<g>
	<path id="path14" class="st0" d="M31.9,24.4v119.2c0,9.4,1.2,13,4.1,18.1l0.2,0.3l0.2,0.3c16.8,25.1,44.7,40,74.6,40
		s57.8-15,74.6-40l0.2-0.3l0.2-0.3c2.9-5,4.1-8.7,4.1-18.1V24.4H31.9"/>
	<path id="path16" class="st1" d="M180.5,123.2v20.4c0,8.1-0.9,10-2.8,13.3c-14.5,21.6-39,35.8-66.7,35.8
		c-27.8,0-52.2-14.2-66.7-35.8c-1.9-3.3-2.8-5.2-2.8-13.3V125V94.7V33.9h139.1v59.7v29.6H180.5z M184.8,96.2V29.7H37.1v114
		c0,8.6,1,11.3,3.4,15.5l0.1,0.1l0.1,0.1c15.8,23.6,42.1,37.7,70.3,37.7s54.5-14.1,70.3-37.7l0.1-0.1l0.1-0.1
		c2.4-4.1,3.4-6.8,3.4-15.5V130L184.8,96.2"/>
	<path id="path18" class="st2" d="M185.8,130.6v13c0,8.9-1.1,11.7-3.5,16l-0.1,0.2l-0.1,0.1c-16,23.9-42.6,38.2-71.1,38.2
		s-55.1-14.3-71.1-38.2l-0.1-0.2l-0.1-0.2c-2.5-4.3-3.5-7.1-3.5-16v-12.9v-33v-69h149.7v67.8L185.8,130.6L185.8,130.6z M188.2,96.9
		V26.3H33.7v117.4c0,9.4,1.2,12.6,3.9,17.2l0.1,0.2l0.1,0.2c16.5,24.6,43.8,39.2,73.1,39.2s56.6-14.7,73.1-39.2l0.1-0.2l0.1-0.2
		c2.6-4.6,3.9-7.7,3.9-17.2V132L188.2,96.9"/>
	<path id="path20" class="st3" d="M97.5,64.7c-2.4,0-4.4-2.1-4.4-4.7c0-2.6,2-4.7,4.4-4.7s4.4,2.1,4.4,4.7S99.9,64.7,97.5,64.7z
		 M101.8,38v14.7c-1.6-1.6-3.7-2.5-6-2.5c-4.9,0-8.9,4.3-8.9,9.7c0,5.3,4,9.7,8.9,9.7c2.3,0,4.4-1,6-2.6v2.4h5.9V38.1h-5.9V38z
		 M126.5,64H121V44.2h3.8c1.7,0,3.1,1.4,3.1,3.2s-1.4,3.2-3.1,3.2h-2v5.5h3.7c2,0,3.6,1.7,3.6,3.9C130.1,62.3,128.8,63.8,126.5,64
		L126.5,64z M131.4,52.7c1.6-1.6,2.5-3.6,2.5-5.9c0-2.1-0.8-4-2.1-5.5c-1.4-1.6-3.8-2.3-7.1-2.3h-9.9v30.3h12.7
		c4.9-0.1,8.8-4,8.8-8.7C136.4,57,135.3,54.6,131.4,52.7z M160.7,69.3h5.8V38.2h-5.8V69.3z M151,61.6c0,1.8-1.5,3.3-3.4,3.3
		s-3.4-1.5-3.4-3.3V50.7h-5.9v12.1c0,4.1,4.1,7.4,9.2,7.4s9.2-3.3,9.2-7.4V50.7H151V61.6z M65.4,47.9c0-4.9-3.9-8.9-8.7-8.9
		c-0.1,0-0.8,0-1,0h-10v30.3h6.1V44.2h3.7c2.3,0,4,1.8,4,4s-1.8,4-4.1,4H54v7.2l6.1,9.9h7.2l-8.5-12.7
		C62.6,55.6,65.4,52.1,65.4,47.9L65.4,47.9z M72.2,57.6c0-2,1.6-3.7,3.6-3.7s3.6,1.7,3.6,3.7H72.2z M75.7,49.7
		c-5.4,0-9.8,4.5-9.8,10.1s4.4,10.1,9.8,10.1c4.1,0,7.3-1.9,9-4.9l-4.8-2.3c-0.6,1.4-2,2.3-3.7,2.3c-2.2,0-4-1.7-4-3.8
		c0-0.1-0.1-0.1,0-0.2h13.1c0-0.4,0.1-0.8,0.1-1.3C85.4,53.2,81.1,49.7,75.7,49.7z M170.5,38.2v31.1h5.8V38.2H170.5"/>
	<path id="path22" class="st4" d="M152.1,108.8c0,22.8-18.5,41.3-41.3,41.3s-41.3-18.5-41.3-41.3S88,67.5,110.8,67.5
		S152.1,86,152.1,108.8"/>
	<path id="path24" class="st5" d="M146.6,121.3c-0.1-0.1-0.1-0.2-0.2-0.3c-0.1-0.1-0.1-0.2-0.2-0.4c-0.3-0.5-0.6-1-0.8-1.4
		c0.7,0.1,1.4,0.1,2.2,0.2L146.6,121.3z M220.4,132.9L220.4,132.9c-0.1-0.1-0.1-0.3-0.2-0.3c0-0.2-0.1-0.5-0.1-0.7l0,0
		c-0.1-0.6-0.2-1.3-0.4-2c-0.4-1-1.4-1.7-2.5-2c-0.1-0.4-0.3-0.8-0.4-0.9c-0.7-1-1.7-1.7-2.5-2.2c-0.2-0.1-0.4-0.3-0.5-0.4l-0.2-0.2
		c-0.5-0.4-1.1-0.6-1.7-0.6c-1.1,0-2.2,0.7-2.9,1.5c-0.1-0.3-0.3-1-0.4-1.4c-0.2-0.6-0.3-1.1-0.4-1.5v-0.1c0-0.1,0-0.1-0.1-0.2
		c-0.3-0.8-0.9-2.5-2.9-2.8c-0.5-0.1-1.1-0.1-1.5-0.1c-1,0-1.3-0.2-1.5-0.3c0-0.1,0.1-0.2,0.2-0.4c0.2-0.4,0.3-0.8,0.4-1.2
		c0.4-1.4,0.7-3.4,0.4-5.1c0.5,0.1,1,0.1,1.5,0.1c1.6,0,3.3-0.3,4.8-1h0.1c2.9-1.4,5.8-4.6,5.6-8.7v-0.1c-0.3-3.5-2.3-6.8-5.9-10
		c0.9-0.3,2-0.6,2.9-1.2c2.6-1.8,3.8-4.9,3.1-8.7l-0.1-0.3c-0.4-1.9-1.8-2.1-2.3-2.1c-0.6,0-1.1,0.2-1.5,0.6
		c-0.1,0.1-0.2,0.2-0.3,0.3c-0.2,0.2-0.5,0.4-0.7,0.6c-0.6,0.3-1.4,0.5-2.3,0.7c-0.7,0.1-1.4,0.3-2.1,0.5c-3.3,1.1-5.3,2.9-6.1,5.2
		c-0.5,1.4-0.3,3.2,0.6,4.7l0.1,0.1c1,1.6,2.4,2.9,3.7,4.1c1.8,1.7,3.4,3.3,3.8,5.2c0.1,0.3,0.2,1-1,1.9c-0.5,0.3-1.1,0.4-1.8,0.4
		c-1,0-2.2-0.3-3.1-0.8l0,0c-1.4-0.7-2.9-1.7-4.3-2.6c-2.3-1.5-4.6-3.1-7.3-4c-1.3-0.6-2.6-0.8-3.8-1.1c-1.5-0.3-2.9-0.6-3.9-1.4
		l-0.1-0.1c-0.4-0.3-0.9-0.6-1.3-0.9c-1.3-1-2.8-2-4.6-2.5c-0.7-0.2-1.4-0.3-1.9-0.4c-0.7-0.1-1.1-0.2-1.4-0.4
		c-0.3-0.2-0.6-0.4-0.9-0.6l0,0c-1.2-0.9-2.5-1.8-3.9-2.5c-2.3-1.1-4.6-1.7-7.2-2.3c-0.1,0-0.5-0.5-0.7-0.7c-0.4-0.5-0.9-1-1.5-1.5
		c-1.9-1.5-4.1-2.9-7-2.9c-0.3,0-0.5,0-0.8,0c-1.8,0.1-3.3,1.3-4.2,2.1c-2.1,1.9-4.5,3.6-6.7,5.2c-3.5,2.5-7.1,5.1-10.3,8.6
		c-3.3,3.4-4.5,7.7-5.6,11.4c-0.2,0.5-0.3,1.1-0.5,1.6c-0.3,1-0.6,2.1-0.8,3.1c-1.3,5.2-2.5,10.1-7.4,13.3c-0.8,0.5-1.2,1.4-1.1,2.3
		s0.7,1.7,1.6,2c0.4,0.1,1.1,0.3,1.9,0.3c0,0.5,0.2,1,0.6,1.4c0.3,0.4,1,0.9,2.1,0.9h0.1c3.4,0,5.8-1.9,7.8-3.9
		c0.7,0.6,1.6,1.3,2.9,1.6l0.3,0.1h0.4c1.2-0.2,2.3-0.3,3.4-0.3c1,0.3,2,0.7,3,1.1c0.8,0.3,1.6,0.6,2.4,0.9l0.4,0.1h0.4
		c2.2-0.1,3.4-2,3.9-2.7l0.1-0.1l0.1-0.2c0.1-0.2,0.1-0.4,0.2-0.5l0,0l0.1,0.5c0.3,1,0.6,2.1,1.3,2.9c0.6,0.7,1.5,1.1,2.4,1.1l0,0
		c0.4,0,0.7-0.1,0.9-0.1h0.1l0.1,0.1c0.4,0.4,1,1,1.9,1.3s1.8,0.5,2.7,0.8c1.1,0.3,2.2,0.6,3.2,1h0.1c0.8,0.3,1.7,0.5,2.6,0.5
		c1.4,0,2.3-0.6,3-1.2c1.2-1,1.7-2,2-3.1c0.2,0,0.4-0.1,0.7-0.2c1.5-0.5,3-3.2,3-3.3c0.1-0.2,0.2-0.4,0.3-0.5
		c0.4-0.6,0.6-1.1,0.5-1.7c0-1.4-1.1-2.6-2.6-2.6h-0.2c-0.1,0-2.9,0-3.7,0h-0.1c-0.4,0-0.7,0.1-1,0.2c0,0,0,0-0.1-0.1
		c-0.2-0.3-0.4-0.9-0.8-1c0,0,0.1,0,0.1-0.1l0.8,0.1c0.5,0,1,0.1,1.5,0.1c1.8,0,3.4-0.3,5-0.6c1.4-0.2,2.8-0.1,4.2-0.1
		c0.1,0,0.3,0,0.4,0h0.1c0.6,0,1.2,0.1,1.9,0.1c0.7,0.1,1.4,0.1,2.2,0.1c0.3,0,0.5,0,0.8,0c0.7,0,1.4-0.2,2.1-0.4
		c0.1,0.3,0.1,0.8,0.2,1.3l0.1,0.4c0.4,1.6,0.9,4,3.7,5.8l0.4,0.3c1.3,0.9,2.1,1.4,4.1,1.7c0.5,0.1,1.4,0.1,2-0.1
		c2.5-0.5,5.2,0.1,7.4,1.7l0.2,0.1c0.2,0.1,0.4,0.3,0.7,0.5c0.5,0.4,1.1,1,2,1.3c0.6,0.2,1.2,0.3,1.8,0.3l0,0c1.2,0,1.9-0.4,2.4-0.6
		l0,0c0.1,0.1,0.2,0.2,0.2,0.3c0.3,0.5,0.8,1.1,1.4,1.7c1.2,1.1,2.7,1.3,3.7,1.3c0.5,0,0.9,0,1.3-0.1c0.1,0,0.3,0,0.5,0
		c0.3,0,0.5,0,0.7,0c0.3,0,0.5-0.1,0.6-0.1c0.5,0.4,1.1,0.4,1.3,0.4s0.4,0,0.6-0.1l2.3-0.8c0.7-0.2,1.2-0.7,1.5-1.3
		C221.2,134.7,220.7,133.7,220.4,132.9"/>
	<path id="path26" class="st5" d="M77.6,118.8c-0.1,0.1-0.2,0.2-0.3,0.3c-0.5,0.5-1.2,1.1-1.8,1.9c-0.4-0.7-0.6-1.1-0.9-1.6
		c0.9-0.1,1.8-0.4,2.5-0.7C77.3,118.7,77.4,118.7,77.6,118.8C77.6,118.8,77.6,118.8,77.6,118.8z M106.2,124.4l-1.2-0.6
		c-1.1-0.6-1.8-1.8-2.5-3.1c-0.4-0.6-0.7-1.2-1.1-1.8c-0.4-0.6-0.9-1-1.4-1.4c-0.1-0.1-0.2-0.2-0.3-0.2c-1.3-3.6-2.7-7.8-3.1-12.4
		c-0.1-1.1-0.8-3.1-1.5-4.4l0,0c-2.1-3.4-7-9.1-7.2-9.4c-0.2-0.2-0.4-0.4-0.6-0.6l-0.1-0.1l-8.7-7.2L78.4,83
		c-1.8-1.3-2.5-1.6-3.9-2.1c-2.2-0.8-5.3-0.7-7.6,0.3l-0.1,0.1c-0.8,0.4-1.5,0.8-2.1,1.3c-1,0.7-2,1.3-3,1.6l-0.2,0.1
		c-0.8,0.4-1.8,0.7-2.8,1c-2,0.6-4.4,1.4-6.3,3.1c-0.5,0.4-0.9,0.8-1.2,1.1c-0.5,0.4-0.9,0.9-1.1,1c-0.1,0-0.2,0-0.4,0
		c-3.2,0-5.7,0.8-8.1,2.8l-0.1,0.1c-1.5,1.3-2.9,2.6-4.4,3.1c-0.6,0.2-1.4,0.3-2.3,0.4h-0.1c-1.5,0.1-1.8,0.2-3.2,0.5
		c-2.5,0.6-4.9,2.4-6.8,3.9c-0.9,0.7-1.4,1.1-1.6,1.2s-0.4,0.2-0.5,0.3c-2.1,1.2-3.9,2.3-6.1,2.3h-0.1c-1.2-0.1-2.3-0.9-2.7-2
		c-0.4-1.4,0.1-2.8,1.2-3.9c0.7-0.7,1.6-1.5,2.4-2.2c1.5-1.3,2.9-2.5,3.9-3.9c1.6-2.2,1.5-5.7-0.4-7.7c-1.4-1.6-3.9-2.3-5.9-2.8
		h-0.2c-0.1,0-0.2,0-0.4-0.1h-0.1c-0.2,0-0.4-0.1-0.7-0.1c-0.4-0.1-0.7-0.1-1.1-0.2C11.7,82,11,81.5,10.3,81
		c-0.5-0.4-1.1-0.7-1.7-1.1L7.3,79l-1,1.5c-0.8,1.2-1.1,2.5-1,4v0.1c0.3,2.7,2.5,5.6,5.1,6.8h0.1c0.1,0,0.2,0.1,0.3,0.1
		c0.6,0.3,1.2,0.4,1.8,0.4c-1.4,1.2-2.8,2.5-4.1,4c-2.4,2.7-2.6,7-1.5,9.9c1.4,3.8,5.3,5.9,8.4,6.4c0.6,0.1,1.1,0.1,1.7,0.1
		c1,0,2-0.1,2.9-0.3l0,0c0.1,1.4,0.1,2.3,0.2,2.9c0.2,1.2,0.8,2.5,1.1,3.4v0.1c-0.7,0.4-1.8,0.9-2.2,1c-0.6,0.1-1.2,0.1-1.6,0.1
		c-0.3,0-0.6,0-0.7,0c-0.7,0.1-1.3,0.4-1.8,0.8c-0.6,0.6-1,1.5-1.5,2.9c-0.2,0.5-0.4,1.1-0.6,1.5c-0.2,0.3-0.4,0.5-0.7,0.7
		c-0.3-0.6-0.9-1.1-1.3-1.4l0,0h-0.1c-0.9-0.7-2.3-0.7-3.3-0.1c-0.1,0.1-0.3,0.2-0.4,0.3L7,124.3c-0.6,0.4-1.3,0.9-2.1,1.5
		c-0.5,0.4-0.9,1-1,1.7c-0.2,0-0.4,0.1-0.5,0.1c-1.2,0.5-2.5,1.9-2.6,3.3c0,0.5-0.1,1.4-0.2,1.7l-0.1,0.1c-0.8,0.9-1,2.5,0,3.5
		c0.7,0.7,3.4,1.4,3.9,1.4h0.1h0.3H5c0.2-0.1,0.3-0.1,0.5-0.2l0.6,0.1c0.3,0,0.7,0.1,1.2,0.2c0.7,0.2,1.5,0.3,2.4,0.3
		c0.9,0,1.8-0.2,2.5-0.6c1.4-0.6,2-1.8,2.5-2.6c0.1-0.2,0.3-0.5,0.4-0.7c0.1,0,0.2,0,0.2,0.1c0.4,0.1,0.8,0.2,1.3,0.2
		c2.2,0.1,4.1-1.1,5-1.9c0.4-0.3,0.7-0.6,1-0.9c0.4-0.3,0.7-0.7,1-0.9c0.3-0.1,0.8-0.2,1.3-0.2c0.9,0,2,0.2,2.9,0.4
		c1.9,0.5,3.9,0.3,5.5-0.6c0.8-0.5,1.7-0.9,2.3-1.3H36c0.4-0.2,0.7-0.4,1-0.5c1.6-0.9,2.7-2.7,3.5-4.1c0.3-0.7,0.9-2,1-2.4
		c0.1,0,0.3,0,0.4,0l0,0c1,0,2.1-0.2,3-0.3c0.7-0.1,1.3-0.2,1.7-0.2h0.1c0.2,0,0.4,0,0.6,0c0.9,0,2.3,0.1,3.3,0.2
		c0.9,0.1,1.4,0.2,2.6,0.2c0.2,0,0.3,0,0.5,0c0.4,0,0.8,0.1,1.2,0.1c1.2,0,2.1-0.3,2.9-0.7c0.2,0.2,0.6,0.7,0.8,0.9h-0.1
		c-0.7,0-1.4,0.3-1.9,0.8c-0.6-0.3-1.7-0.3-2.7-0.2c-1.1,0.1-2.2,0.3-3.3,0.5c-0.9,0.2-1.5,0.6-1.8,1.4c-0.4,0.8-0.3,1.7,0.1,2.5
		c0.6,1.1,1.2,2,1.8,3l0.3,0.4c0.3,0.5,1,1.2,2.4,1.2c0.2,0,0.4,0,0.6,0c0,0,0,0,0.1,0c0,0.1,0.1,0.1,0.1,0.2c0.4,0.8,1,1.8,1.9,2.5
		c1,0.8,2.3,1.3,3.7,1.3c0.6,0,1.2-0.1,1.8-0.3c2.6-0.8,5.2-1.7,7.7-2.9h0.3h0.2c0.2,0,0.3,0,0.5,0c1-0.1,2.5-0.2,3.7-1.4l0.1-0.1
		l0.1-0.1c0.5-0.7,0.9-1.3,1.3-2c0,0.1,0,0.2,0.1,0.2v0.1c0.6,1.7,2.4,2.5,3.9,2.5l0,0h0.1c1.7-0.1,3.2-0.6,4.5-1.1h0.1
		c0.2-0.1,0.4-0.1,0.6-0.2l0.1-0.1c1-0.4,2.4-0.5,4.2-0.2h0.2h0.2c1.8-0.1,3.2-1,4.4-1.9c2.2,2.3,5,3.5,8.3,3.5c0.1,0,0.2,0,0.4,0
		h0.5h0.1c1.1-0.3,1.8-1.1,1.9-2.2c0-0.2,0-0.4,0-0.6c0.2,0,0.4-0.1,0.6-0.1c1-0.2,1.8-1,1.9-2C107.6,125.8,107.2,124.8,106.2,124.4
		"/>
	<path id="path28" class="st3" d="M63.7,126.8c-0.1-0.1-0.1-0.2-0.2-0.4c-0.2-0.4-0.3-0.8-0.4-1.2c-0.2-0.7-0.4-1.3-1.2-1.2
		c-1.1,0.2-2.2,0.2-3.4,0.2c0,0-0.4,0-0.5,0.3s0.2,0.6,0.5,0.9c0.2,0.2,0.4,0.3,0.5,0.5c0.2,0.3,0.4,0.8,0.6,1.2
		c0.3,0.7,0.6,1.3,0.9,1.4c0.1,0,0.3,0.1,0.5,0.1c0.7,0,1.8-0.4,2.5-1C64,127.3,63.9,127.1,63.7,126.8"/>
	<path id="path30" class="st3" d="M9.9,125.6L9.9,125.6c-0.3-0.2-0.7-0.2-1,0c-0.2,0.1-0.4,0.3-0.6,0.4c-0.6,0.4-1.2,0.8-1.9,1.4
		C6.2,127.6,6,128,6,128.3c0,0.2,0,0.4,0.1,0.5s0.5,0.6,0.6,0.7c0.2,0.1,0.4,0.3,0.8,0.3c0.2,0,0.4-0.1,0.7-0.2
		c1.2-0.6,2.4-2.8,2.5-2.9C10.8,126.4,10.4,126.1,9.9,125.6"/>
	<path id="path32" class="st3" d="M4.6,135.7L4.6,135.7L4.6,135.7L4.6,135.7z M6,130.9c-0.2-0.3-1.1-1.3-1.5-1.3H4.4
		c-0.6,0.3-1.4,1.1-1.4,1.6c-0.2,2.1-0.2,2.4-0.8,3c-0.2,0.2-0.3,0.6-0.1,0.8s2.3,0.8,2.5,0.8l0,0c0.2-0.1,0.3-0.5,0.8-2
		c0.2-0.8,0.5-1.7,0.8-2.5C6.2,131.2,6.2,131.1,6,130.9"/>
	<path id="path34" class="st3" d="M92.9,114.4c-0.1,0.5-0.2,0.8-0.3,0.9c-0.1,0.1-0.2,0.4-0.6,0.4s-0.4-0.5-0.4-0.6
		c0,0-0.1-1.4-0.3-2c-0.3-0.6-1.7-2.5-2.5-2.4c-0.2,0-0.7,0.3-1.1,0.9c-0.5,0.6-0.5,0.7-0.6,0.8c-0.1,0.1-0.3,0-0.4-0.3
		c-0.1-0.4-0.1-0.7,0-1.4c0.2-0.7,0.3-0.9,0.5-1.4c0,0,0.4-1,0.6-1.2c0.4-0.7,1-0.6,1-0.6c0.2,0,0.7-0.1,1.2,0.6
		c0.6,0.8,0.5,0.7,0.7,1s0.4,0.6,0.9,1.1c0.5,0.6,1.1,1.7,1.3,2.3C92.9,113.3,92.9,113.9,92.9,114.4z M88.9,123.4
		c0,0-0.1,0.6-0.4,0.9s-1.4,0.4-2,0.4s-0.8-0.1-0.9-0.3c-0.1-0.2,0.1-0.6,0.1-0.6c0.1-0.1,0.7-1.5,2.1-1.9c0,0,0.4-0.2,0.8,0
		C89.2,122.3,89,123.3,88.9,123.4z M74.6,100.7c0,0.2-0.2,0.3-0.3,0.3c-0.1,0-0.2,0-0.2-0.2c-0.4-2.3-0.7-3.4-1.2-4.5
		c-0.2-0.3-0.4-0.6-0.6-0.9c-0.4-0.5-0.7-1-0.3-1.6c0.1-0.2,0.4-0.3,0.7-0.3c0.1,0,0.3,0,0.4,0.1c0.4,0.2,0.9,0.7,1.3,1.6
		C75.5,97.4,74.6,100.6,74.6,100.7z M105.3,126.1c-0.6-0.3-1.3-0.6-1.3-0.6c-1.5-0.9-2.4-2.4-3.3-3.8c-0.3-0.6-0.7-1.1-1.1-1.7
		c-0.2-0.4-0.7-0.7-1-1.1c-0.3-0.3-0.6-0.6-0.7-0.7c-1.4-3.8-2.9-8.3-3.3-13.3c-0.1-0.8-0.6-2.4-1.2-3.5c-2-3.2-6.7-8.8-7-9.1
		c-0.2-0.2-0.3-0.4-0.5-0.5l-0.1-0.1l-8.6-7.1c-1.7-1.2-2.2-1.4-3.4-1.9c-0.8-0.3-1.7-0.4-2.7-0.4c-1.2,0-2.4,0.2-3.4,0.7
		c-0.7,0.4-1.3,0.8-2,1.2c-1.1,0.7-2.2,1.4-3.4,1.8c-1,0.4-2,0.7-3,1.1c-1.9,0.6-3.9,1.2-5.5,2.7c-0.5,0.4-0.8,0.8-1.2,1.1
		c-1.5,1.4-1.6,1.5-2.8,1.5C47,92.4,45,93,43,94.7c-1.6,1.5-3.2,2.9-5.1,3.5c-0.8,0.3-1.8,0.4-2.8,0.5c-1.4,0.1-1.6,0.1-3,0.5
		c-2,0.5-4.2,2.1-6,3.6c-0.6,0.5-1.4,1.1-1.8,1.3c-0.2,0.1-0.4,0.3-0.6,0.4c-2.3,1.3-4.4,2.6-7.1,2.6c-0.1,0-0.1,0-0.2,0
		c-2-0.1-3.9-1.6-4.5-3.4c-0.6-2.1,0-4.3,1.7-5.9c0.8-0.8,1.7-1.6,2.6-2.3c1.4-1.2,2.7-2.3,3.6-3.5c1.1-1.4,0.9-3.8-0.3-5.2
		c-1.2-1.3-3.9-2-4.9-2.2h-0.2c-0.1,0-0.3,0-0.4-0.1c-0.6-0.1-1.2-0.2-1.9-0.4c-1.6-0.4-2.8-1.7-4.2-2.4c-0.5,0.8-0.7,1.7-0.7,2.7
		c0.3,2.1,2,4.3,4,5.2c0.1,0,0.2,0.1,0.3,0.1c0.6,0.3,1.3,0.3,1.9,0.3c0.1,0,0.3,0,0.4,0c0.1,0,0.3,0,0.4,0c0.4,0,0.8,0,1.2,0.1
		s0.8,0.5,0.8,1c0,0.3-0.1,0.5-0.5,0.8c-0.3,0.3-0.7,0.6-1,0.8c-1.7,1.4-3.4,2.8-4.9,4.6c-1.9,2.1-2,5.6-1.1,7.9
		c1.1,3,4.3,4.7,6.9,5.1c0.5,0.1,0.9,0.1,1.4,0.1c1.5,0,3-0.4,4.4-0.7c0.1,0,0.1,0,0.1,0c0.1,0,0.2,0,0.2,0.3c0,0.6,0.1,1.3,0.1,2
		c0.1,1.1,0.1,2.2,0.2,2.6c0.2,1,0.7,2.2,1,3c0.1,0.3,0.2,0.6,0.3,0.7c0.1,0.5,0,1-0.3,1.2c-1.1,1-3.2,1.8-3.6,1.8
		c-0.6,0.1-1.3,0.1-1.8,0.1c-0.3,0-0.5,0-0.6,0c-0.2,0-0.4,0.1-0.6,0.3c-0.3,0.3-0.6,1.2-1,2.1c-0.2,0.6-0.5,1.2-0.7,1.7
		c-0.7,1.1-1.8,1.8-2.9,2.4c-0.3,0.2-0.6,0.3-0.8,0.5l0,0c-0.5,0.7-0.9,1.4-1.5,1.9c-0.5,0.4-1,0.5-1.6,0.6l0,0l0,0
		c-0.9,1-1.1,2.3-1.4,3.6c0,0.2-0.1,0.4-0.1,0.6v0.2h0.1c0.5,0,0.9,0.1,1.4,0.2c0.6,0.1,1.3,0.3,1.9,0.3s1.1-0.1,1.6-0.4
		c0.8-0.4,1.3-1.1,1.7-1.9c0.3-0.5,0.6-1,1-1.4c0.2-0.3,0.5-0.4,0.9-0.4c0.3,0,0.7,0.1,1,0.2c0.3,0.1,0.6,0.2,0.9,0.2
		c1.5,0.1,3-0.9,3.7-1.4c0.3-0.2,0.6-0.5,0.9-0.8c0.5-0.4,0.9-0.9,1.4-1.2c0.6-0.3,1.4-0.4,2.3-0.4c1.1,0,2.4,0.2,3.3,0.4
		c0.5,0.1,1.1,0.2,1.6,0.2c0.9,0,1.8-0.2,2.5-0.6c0.8-0.5,1.7-0.9,2.4-1.3c0.4-0.2,0.8-0.4,1-0.5c1.2-0.7,2.3-2.5,2.6-3.3
		c0.4-0.7,1-2.3,1-2.3v-0.1l-1.4-1.1l-0.1,0.1c0,0-0.9,1.6-1.5,2.3c-2.5,3.4-6.6,3.9-9.9,3.9c-0.2,0-0.5,0-0.7,0
		c-4.1,0-7.3,1.4-9.7,4c-0.1,0.1-0.3,0.1-0.4,0s-0.1-0.2,0-0.3c0.1-0.3,0.1-0.4,0.3-0.7c2.5-3.6,6.9-4.1,10.4-4.2
		c2.6-0.2,4.5-0.6,6.1-1.5c2.1-1.1,3.6-3.4,4.3-5.3c0.4-1.2,0.6-2.5,0.8-3.8c0.1-1,0.3-2,0.6-3c0-0.1,0.2-0.2,0.3-0.2h0.1
		c0.1,0,0.4,0.1,0.4,0.3c-0.4,2-0.8,4.7,0.1,7c0.4,0.9,1.3,1.3,2.8,1.3c0.9,0,1.8-0.1,2.7-0.3c0.7-0.1,1.4-0.2,2-0.2
		c0.2,0,0.5,0,0.7,0c1.1,0,2.2,0.2,3.3,0.4c0.9,0.2,1.9,0.4,2.9,0.4c0.2,0,0.4,0,0.6,0c0.3,0,0.7,0.1,1.1,0.1c0.8,0,1.4-0.2,1.8-0.5
		c0.3-0.2,0.2-0.6,0.1-1.1v-0.1c0-0.1,0-0.2-0.1-0.3c-0.2-0.6-0.5-1.5,0-2c0.1-0.1,0.2-0.1,0.3-0.1s0.2,0,0.2,0.1
		c0.1,0.2,0.1,0.4,0.2,0.5c0.2,0.7,0.4,1.5,0.9,2.2c1,1.3,2.5,2.5,4.5,3.5c1.2,0.9,2.7,2.3,2.8,4.3c0,0.9-0.9,1.5-1.5,1.9
		c-1,0.5-2.6,1.1-3.6,1.1c-0.7,0-1.2-0.5-1.2-0.5c-1-0.9-0.9-1.2-1.5-2.3c-0.3-0.6-0.7-1.2-1.2-1.7c-0.6-0.7-1.4-1-2.5-0.9
		c-1,0.1-2,0.3-3.1,0.5c-0.2,0-0.4,0.2-0.5,0.4c-0.1,0.2-0.1,0.5,0.1,0.7c0.6,1,1.1,2,1.7,3l0.3,0.4c0.1,0.2,0.4,0.3,0.7,0.3
		c0.1,0,0.3,0,0.4,0c0.2,0,0.3,0,0.5,0c0.5,0,0.8,0.1,1.1,0.4c0.2,0.3,0.3,0.6,0.5,0.9c0.4,0.7,0.8,1.4,1.5,1.9
		c0.6,0.5,1.5,0.9,2.4,0.9c0.4,0,0.8-0.1,1.2-0.2c2.7-0.8,5.3-1.7,7.8-3H70c0.2,0,0.4,0,0.5,0c0.9-0.1,1.7-0.1,2.4-0.8
		c0.8-1.2,1.5-2.3,2.1-3.5c0.5-1.1,0.5-2.2,0-3c-1.6-2.5-1.9-3.2-2.5-4.9l0,0l0,0c-0.2-0.1-0.4-0.1-0.6-0.2
		c-0.4-0.2-0.8-0.3-1.3-0.3h-0.1c-0.5,0-0.9,0.2-1.1,0.5l0,0l2.9,5.7c0.2,0.4,0.4,0.9,0.3,1.6s-1.5,2.9-1.9,3.2
		c-0.1,0.1-0.2,0.1-0.2,0.1s-0.2,0-0.1-0.4c0.3-0.9,0.6-3.1,0.5-3.8c-0.1-0.8-2.5-4.8-2.6-5v-0.1c-0.4-0.6-0.8-1.2-0.7-2
		c0-0.3,0.3-0.6,0.5-0.7c0.4-0.2,0.8-0.2,1.2-0.3c1-0.2,2.1-0.5,2.5-1c1.2-1.7,1.8-3.6,2.3-6.1c0-0.1,0.1-0.3,0.3-0.3
		c0.1,0,0.2,0,0.2,0.2c0.4,2.4-0.2,4.9-1.6,6.9c-0.1,0.1-0.1,0.3-0.1,0.5s0.3,0.4,0.3,0.4c0.6,0.4,2.6,0.2,4-0.6
		c1.1,0,2.2-0.2,3.2-0.4c0.3-0.1,0.6-0.1,1-0.2c0.1,0.1,0.2,0.1,0.2,0.2c-0.9,1-1.4,2.1-1.6,3.4c-0.2,0.2-0.5,0.5-0.8,0.7
		c-0.9,0.9-1.9,1.8-2,3c0,0,0,0.4,0.4,0.5c0.2,0,0.3-0.1,0.5-0.1c0.2-0.1,0.4-0.1,0.5-0.1c0.2,0,0.3,0.1,0.3,0.3l-1.1,1.6
		c-0.4,0.7-0.2,1.3-0.1,2c0.1,0.4,0.1,0.7,0.2,1c0.3,0.8,1.2,1.2,2,1.2c1.4-0.1,2.7-0.5,3.9-1c0.2-0.1,0.4-0.2,0.7-0.2
		c1.3-0.6,3.1-0.7,5.3-0.4c1.7-0.1,3-1.2,4.2-2.3c0.5,0,1.1,0.3,1.7,0.9c1.9,2,4.1,3,7,3c0.1,0,0.2,0,0.3,0h0.3
		c0.3-0.1,0.4-0.2,0.4-0.4s-0.2-0.4-0.5-0.6l-1.6-0.8c-1.3-0.8-2.6-1.8-3-3c-0.4-1.4-1.2-2.7-1.7-3.7c-0.1-0.2-0.2-0.4-0.4-0.5
		c-0.2-0.3-0.5-0.7-0.6-1l0,0c1.7,0.6,2.7,1.9,3.8,4c0.9,1.6,3.1,3.3,5.2,3.3c0.3,0,0.6,0,0.8-0.1c0.2-0.1,0.4-0.2,0.4-0.4
		C105.5,126.4,105.5,126.2,105.3,126.1"/>
	<path id="path36" class="st3" d="M161.7,124.8c-0.1-0.2-0.4-0.2-0.5-0.2s-0.1,0-0.2,0c-0.4,0.1-0.8,0.1-1.3,0.1c-0.2,0-0.4,0-0.6,0
		c-0.2,0-0.3,0-0.5,0c-0.3,0-0.5,0-0.7,0.1l0,0l0,0c0,0.1-0.8,1.5-0.7,2.4c0.1,1,1.1,1.2,1.8,1.3c0.3,0.1,0.6,0.1,0.9,0.1
		c0.5,0,0.9-0.2,1.1-0.5c0.4-1.2,0.7-2.1,0.8-3C161.8,125,161.8,124.9,161.7,124.8"/>
	<path id="path38" class="st3" d="M215.1,128c-0.5-0.7-1.3-1.2-1.9-1.6c-0.3-0.2-0.6-0.4-0.7-0.5l-0.1-0.1c-0.2-0.1-0.3-0.2-0.5-0.2
		c-0.7,0-1.5,0.9-1.5,1.2c0,0.4,0.6,1.2,1.4,2.2l0.2,0.2c0.4,0.5,0.9,0.8,1.3,0.8l0,0c0.5,0,0.9-0.2,1.3-0.5
		C214.8,129.1,215.4,128.5,215.1,128"/>
	<path id="path40" class="st3" d="M218.6,133.7c-0.1-0.3-0.2-0.5-0.3-0.7c-0.1-0.3-0.1-0.7-0.2-1c-0.1-0.5-0.1-1-0.3-1.4
		c-0.2-0.5-0.8-0.8-1.3-0.8c-0.2,0-0.4,0-0.5,0.1c-0.8,0.4-1.3,0.8-1.1,1.7c0.4,1.3,0.7,2.3,0.9,3.6c0,0.2,0.2,0.8,0.5,0.8
		c0,0,0,0,0.1,0l2.3-0.8c0.1,0,0.2-0.1,0.2-0.2C219,134.7,218.8,134.2,218.6,133.7"/>
	<path id="path42" class="st3" d="M151.6,92.2c-0.3,0.3-0.7,0.6-1,0.9c-1.2,1.1-2.5,2.3-3.3,3.6c-0.4,0.5-0.7,1.2-1,1.7
		c0,0.1-0.1,0.2-0.2,0.2c-0.1,0-0.1,0-0.2-0.1c-0.2-0.2,0-1.9,0.3-2.7c0.7-1.8,2.2-3.7,4.2-5.2c0.2-0.1,0.5-0.2,0.7-0.2
		c0.4,0,0.7,0.2,0.8,0.5C152.1,91.3,152,91.8,151.6,92.2z M137.1,112.5c-0.2,0.3-0.5,0.4-0.8,0.3s-0.5-0.4-0.7-0.7
		c-0.2-0.3-0.3-0.6-0.8-0.6c0,0,0,0-0.1,0c-0.4,0-0.7,0.2-1,0.5c-0.2,0.1-0.8,0.6-1,0.7c-0.9,0.7-1.7,1.5-1.9,2.5
		c-0.1,0.4-0.1,0.4-0.1,0.5c-0.1,0.4-0.1,0.7-0.4,0.9l0,0h-0.1c-0.1,0-0.3-0.1-0.4-0.1c-0.1-0.1-0.2-0.2-0.2-0.3
		c-0.2-1.7,0.4-3.3,1.7-4.4c0.8-0.6,1.4-1.5,2-2.3c0.3-0.4,0.6-0.8,0.9-1.2c0.2-0.2,0.6,0,1.3,0.7c0.3,0.3,1.1,1.8,1.5,2.7
		C137.3,112.2,137.1,112.5,137.1,112.5L137.1,112.5z M136.4,124.6c-0.1,0.2-0.5,0.4-0.9,0.4s-0.8-0.1-1-0.3c-0.6-0.4-0.9-1-0.9-1.9
		c0-0.2,0-0.4,0.2-0.6c0.1-0.1,0.2-0.1,0.4-0.1c0.5,0,1.4,0.3,1.8,0.9C136.1,123,136.8,124,136.4,124.6z M214.5,135.6
		c-0.2-1.4-0.5-2.7-1.2-4.1v-0.1h-0.1c-1.3,0.1-2.2-1-3-2c-0.3-0.3-0.5-0.7-0.8-1c-0.4-0.5-0.9-0.9-1.3-1.2c-0.5-0.4-0.9-0.8-1-1.1
		c-0.2-0.4-0.4-1.1-0.6-1.9c-0.1-0.5-0.3-1-0.4-1.4c0-0.1-0.1-0.1-0.1-0.2c-0.2-0.6-0.5-1.4-1.4-1.6c-0.4-0.1-0.9-0.1-1.3-0.1
		c-1.2-0.1-2.4-0.3-3-1.1c-0.6-0.8-0.3-1.5,0-2.3c0.1-0.3,0.2-0.6,0.3-1c0.4-1.5,0.6-3.3,0.3-4.5c-0.1-0.2-0.1-0.4-0.2-0.6
		c-0.2-0.5-0.4-1.3-0.2-1.6c0.1-0.2,0.3-0.3,0.5-0.3s0.5,0.1,0.7,0.1s0.3,0.1,0.4,0.1c0.6,0.1,1.5,0.3,2.3,0.3c1.4,0,2.8-0.3,4-0.8
		c2.3-1.1,4.6-3.7,4.5-6.8c-0.3-3.2-2.3-6.3-6-9.4c-0.1-0.1-0.2-0.2-0.3-0.2c-0.5-0.4-1.1-0.9-1.1-1.4s1.2-0.7,1.9-0.9
		c0.2,0,0.3-0.1,0.5-0.1h0.2c0.9-0.2,1.9-0.5,2.7-1c2.7-1.8,2.6-5,2.3-6.7c0,0,0-0.1,0-0.2c0-0.2-0.1-0.5-0.3-0.5
		c-0.1,0-0.1,0-0.2,0.1c-0.1,0.1-0.2,0.1-0.2,0.2c-0.3,0.3-0.6,0.6-1,0.8c-0.8,0.5-1.9,0.7-2.9,0.9c-0.6,0.1-1.3,0.3-1.9,0.5
		c-2.7,0.9-4.3,2.3-4.9,4c-0.3,0.9-0.1,2,0.5,3.1c0.9,1.4,2.1,2.6,3.3,3.7c1.9,1.8,3.9,3.7,4.4,6.3c0.3,1.5-0.4,2.8-1.9,3.9
		c-0.8,0.5-1.8,0.7-2.9,0.7c-1.4,0-2.8-0.4-4.1-1c-1.6-0.8-3.1-1.8-4.5-2.8c-2.2-1.5-4.4-3-7-3.8c-1.1-0.5-2.3-0.7-3.5-1
		c-1.7-0.3-3.4-0.7-4.7-1.8c-0.5-0.3-0.9-0.6-1.4-1c-1.2-0.9-2.5-1.8-4-2.2c-0.5-0.2-1.1-0.3-1.6-0.3c-0.8-0.1-1.6-0.2-2.2-0.7
		c-0.3-0.2-0.6-0.5-0.9-0.7c-1.2-0.9-2.4-1.7-3.6-2.3c-2.1-1-4.3-1.6-6.7-2.1c-0.8-0.2-1.3-0.8-1.8-1.4c-0.3-0.4-0.7-0.9-1.2-1.2
		c-1.9-1.5-3.6-2.5-5.8-2.5c-0.2,0-0.4,0-0.6,0c-1.2,0.1-2.3,1-3.1,1.6c-2.2,1.9-4.6,3.7-6.9,5.3c-3.4,2.5-7,5-10,8.3
		c-3,3.1-4.1,6.9-5.1,10.6c-0.2,0.5-0.3,1.1-0.5,1.6c-0.3,1-0.5,2.1-0.8,3.1c-1.4,5.5-2.8,10.9-8.2,14.5c-0.4,0.2-0.2,0.7,0.1,0.8
		c0.1,0.1,2.8,0.8,4.7-1.5c1.4-1.7,2.2-3.3,3.8-5.1c0.1-0.1,0.2-0.2,0.4-0.2c0.1,0,0.2,0.1,0.1,0.3c-0.2,0.7-0.6,1.3-1.1,1.9
		c-0.4,0.6-0.9,1.3-1.1,2c-0.5,1.6-2,2.8-3.3,4c0,0-0.2,0.1-0.3,0.3c-0.1,0.1-0.1,0.2-0.1,0.2c0,0.3,0.2,0.6,0.8,0.6l0,0
		c3.1,0,5.2-2.2,7.4-4.3c0.1-0.1,0.2-0.1,0.4-0.1c0.1,0,0.2,0,0.3,0.1s0.5,0.4,0.7,0.6c0.7,0.6,1.4,1.3,2.3,1.4l0,0l0,0
		c1.1-0.2,2.1-0.3,3.2-0.3c0.3,0,0.6,0,0.8,0c1.1,0.3,2.2,0.8,3.3,1.2c0.8,0.3,1.6,0.6,2.3,0.9l0,0l0,0c1,0,1.8-1,2.3-1.8
		c0.2-0.6,0.1-1.2,0-1.7c-0.1-0.3-0.1-0.7-0.1-1c0.2-0.1,0.4-0.1,0.7,0c0.2,0,0.6,0,0.7,0c0.3,0,0.6-0.3,0.5-0.8
		c-0.2-1-0.7-1.7-1.2-2.4c-0.4-0.7-0.9-1.3-1.1-2c-0.3-0.9-1.1-1.7-1.7-2.5c-0.8-0.9-1.6-1.7-1.8-2.7c0,0-0.1-0.2,0-0.3
		c0.1-0.1,0.3,0,0.3,0c0.4,0.3,0.7,0.6,1.1,0.9c1.2,0.9,2.4,1.9,3.8,2.1c1.4,0.1,2.9,0.3,4.3,0.2c0.4-0.1,0.6-0.4,0.5-0.7
		c-0.6-1.2-1.2-2.5-1.5-4c-0.3-1.1-1-3.9-0.3-6.1c0.1-0.2,0.2-0.3,0.3-0.3c0,0,0,0,0.1,0c0.2,0.1,0.4,0.3,0.4,0.6v0.3
		c0.2,2.9,0.4,5.7,2.2,8.1c0.5,0.8,1.2,1.2,1.8,1.6c0.5,0.3,1,0.5,1.3,0.9c0.4,0.5,0.4,1.3,0.2,1.8l-2.2,3.2c-0.5,0.7-1,1.5-1.2,2.3
		s-0.1,1.6,0,2.4v0.2c0,0-0.1-0.1-0.2-0.2c-0.9-1.6-1.1-3-0.6-4c0.3-0.7,2.1-3.2,2.6-4c0.2-0.3,0.3-0.5,0.2-0.7
		c-0.2-0.2-1.5-0.8-1.9-0.8H151c-0.3,0.1-0.5,0.4-0.7,0.6c0,0.1-0.1,0.1-0.1,0.2l-2.7,4.9l-0.1,0.2c-0.2,0.5-0.3,0.9-0.2,1.5
		c0.1,0.7,0.4,1.5,0.6,2.1c0,0.2,0.1,0.3,0.1,0.5c0.2,0.9,0.5,1.7,0.8,2.1c0.2,0.3,0.5,0.4,0.9,0.4c0.2,0,0.4,0,0.6-0.1
		c0.3-0.1,0.7-0.1,1,0c0.4,0.1,0.7,0.4,1,0.7s0.6,0.7,1.1,0.8c0.8,0.3,1.7,0.5,2.6,0.7c1.1,0.3,2.3,0.6,3.4,1c0.6,0.2,1.3,0.4,2,0.4
		s1.2-0.2,1.8-0.7c0.9-0.7,1.2-1.4,1.4-2.4c0.2-0.9,0.5-1,1.2-1c0.3,0,0.4,0,0.7-0.1s1.3-1.3,1.8-2.3c0.1-0.3,0.3-0.5,0.4-0.7
		c0.2-0.2,0.2-0.4,0.2-0.6c0-0.5-0.4-0.6-0.7-0.6h-0.2c0,0-2.9,0-3.7,0c-1.2,0.1-1.7,1.2-2.1,2.2c-0.2,0.4-0.3,0.8-0.5,1.1
		c-0.3,0.6-0.9,0.9-1.7,0.9c-0.2,0-0.7-0.1-1-0.2c-1.6-0.4-3.2-0.8-3.8-2.3c-0.1-0.3-0.2-0.8,0.2-1.3c0.8-1,1.9-2.2,3.1-3.1
		c1.6-0.3,3.1-1.5,4-3c0.2-0.3,0.3-0.5,0.4-0.8c0.1-0.4,0.3-0.9,0.7-1.1c0.3-0.1,0.5-0.1,0.5,0.1c0.1,0.8-0.2,1.6-0.5,2.4
		c-0.1,0.2-0.1,0.3-0.2,0.5v0.1h0.1c0.4,0,0.9,0.1,1.3,0.1c1.6,0,3.1-0.3,4.6-0.5c1.5-0.3,3-0.5,4.6-0.5c0.2,0,0.3,0,0.5,0
		c0.7,0,1.4,0.1,2,0.1c0.6,0.1,1.3,0.1,2,0.1c0.2,0,0.5,0,0.7,0c2-0.1,3.5-1,3.9-2.4c0.4-1.2,0.4-3.4-0.1-6.3c0-0.1,0-0.2,0-0.3
		c0,0,0,0,0-0.1s0-0.2,0.1-0.3c0.2-0.1,0.4,0,0.5,0.2c0.8,2.1,1.2,4.6,1.4,6.3c0.3,1.6,0.9,3.3,2.1,5.1c1.4,2.1,3.8,3.4,6.5,3.4
		c0.6,0,1.3-0.1,1.9-0.2c0.4-0.1,0.6,0,0.9,0c3.4,0,6.4,1.5,8.6,4.3v0.1c0,0.1-0.2,0.2-0.3,0.2l-0.3-0.2c-1.9-1.5-3.9-3-6.4-3.4
		c-0.4-0.1-0.9-0.1-1.4-0.1c-0.7,0-1.4,0.1-2.1,0.2c-0.7,0.1-1.3,0.2-2,0.2c-0.9,0-1.6-0.1-2.3-0.4c-2.9-0.9-5.2-4.3-6-6.3
		c0-0.1-0.1-0.2-0.3-0.2c-0.1,0-0.2,0-0.2,0.1c-0.3,0.2-0.4,0.3-0.4,0.5s0.2,1.7,0.4,2.3c0.4,1.6,0.6,3.4,3,4.9c1.5,1,2,1.4,3.7,1.6
		c0.3,0,1,0,1.3-0.1c0.7-0.2,1.5-0.2,2.2-0.2c2.4,0,4.8,0.8,6.8,2.3c0.3,0.2,0.7,0.5,1,0.7c0.4,0.4,0.9,0.8,1.4,0.9
		c0.3,0.1,0.7,0.2,1.1,0.2c0.9,0,1.2-0.3,1.8-0.6c0.3-0.1,0.6-0.2,0.8-0.2c0.7,0,1.1,0.6,1.7,1.3c0.3,0.4,0.7,0.9,1.1,1.4
		c0.7,0.7,1.6,0.7,2.3,0.7c0.4,0,0.8,0,1.2-0.1c0.4,0,0.8,0,1.1-0.1C214.4,135.7,214.5,135.6,214.5,135.6L214.5,135.6"/>
	<path id="path44" class="st5" d="M89.9,84c0-11.4,9.3-20.7,20.7-20.7s20.7,9.3,20.7,20.7s-9.3,20.7-20.7,20.7
		C99.2,104.7,89.9,95.4,89.9,84"/>
	<path id="path46" class="st6" d="M95.1,95.2c6,4.4,14.5,5.1,21.2,1.5c7.2-3.7,11.6-11.4,10.9-19.7c-0.1-1.2-0.3-2.4-0.6-3.5
		c2,3.1,3.2,6.7,3.2,10.6c0,10.6-8.6,19.1-19.1,19.1C104.2,103.1,98.5,100,95.1,95.2"/>
	<path id="path48" class="st2" d="M105,88.8c-4.5-1.1-7.5-2.2-7.5-2.2C97,82,97.4,78,97.4,78c1.9-1,7.2-3.4,7.2-3.4
		c2.5,2.8,4.9,6.6,4.9,6.6C108.3,83.5,105,88.8,105,88.8z M97.6,70c-0.4,0.7-1.8,2.9-2.9,5.6c-1.1,1.4-2.1,2.8-2.5,3.4
		C93.1,75.5,95,72.4,97.6,70z M117.7,81.1c0,0,1.7-3.5,3.7-6.3c0,0,3.9,1.8,5.7,3.3c0,0,0.7,2.1,0.2,8.2c0,0-2.3,1.3-5.7,2.2
		C121.6,88.5,119.4,84.6,117.7,81.1z M109,95.5l8.3-0.2l1.6,4.5c-3.1,1.9-6.9,2.8-6.9,2.8c-4-0.9-6.2-2.6-6.2-2.6L109,95.5z
		 M110.6,64.9c2.5,0,4.9,0.5,7.1,1.4c-0.1,0.4-0.3,1.4-1.1,2.6c-4-0.5-8.4-0.1-8.4-0.1l-3.7-2.9C106.5,65.2,108.5,64.9,110.6,64.9z
		 M98.4,98.7c-3.2-2.6-5.5-6.3-6.4-10.5c1,1.1,3,3.1,3,3.1c1.2,2.5,4.2,6.7,4.2,6.7C98.9,98.3,98.6,98.6,98.4,98.7"/>
	<path id="path50" class="st2" d="M77.2,179l7.8,3.8l3.8-7.8l-2.6-1.3l-2.5,5.2l-2.6-1.3L92,155l-2.6-1.3L77.2,179z M97.1,166.4
		l2.9,0.5l1-5.7l2.8,0.5l-9.6,20.9l-0.5,2.9l8.6,1.5l1.5-8.6l-2.9-0.5l-1,5.7l-2.8-0.5l9.6-20.9l0.5-2.9l-8.6-1.5L97.1,166.4z
		 M79.1,150.6l2.3,1.8l-6,7.6l-2.3-1.8L79.1,150.6z M61.3,168.6l2.3,1.8l7.8-9.9l2.3,1.8l-7.8,9.9l2.3,1.8L83,155.2
		c1.5-1.9,1.2-4.6-0.7-6.1c-1.9-1.5-4.6-1.2-6.1,0.7L61.3,168.6z M115.9,187.3l5.8-0.7c1.6-0.2,2.7-1.6,2.5-3.2l-1-8.5
		c-0.2-1.7-0.9-2.2-1.6-2.4c0.7-0.5,1.2-1,1-2.4l-1-8.8c-0.2-1.6-1.6-2.7-3.2-2.5l-5.8,0.7L115.9,187.3z M115.8,162l2.9-0.3l1.1,9.6
		l-2.9,0.3L115.8,162z M117.3,174.5l2.9-0.3l1.1,9.6l-2.9,0.3L117.3,174.5z M133.2,153.9l-2.7,1.1l9.3,23.3l-2.7,1.1l-9.3-23.3
		l-2.7,1.1l8.9,22.2c0.9,2.2,3.4,3.3,5.7,2.4c2.2-0.9,3.3-3.4,2.4-5.7L133.2,153.9z M153.2,174.2l2.4-1.7l-7.3-10.2l2.4-1.7l6.1,8.5
		c0.4,0.6,1.1,1,1.7,1.3l2.4-1.7c-0.7-0.3-1.3-0.6-1.8-1.3l-5.5-7.6c-1-1.4-1.8-1.5-2.6-1.3c0.3-0.7,0.5-1.5-0.3-2.6l-5.2-7.2
		c-0.9-1.3-2.7-1.6-4.1-0.7l-4.7,3.4L153.2,174.2z M140.9,152.1l2.4-1.7l5.6,7.8l-2.4,1.7L140.9,152.1z M164.9,157.7
		c1.9,1.5,4.6,1.1,6.1-0.7c1.5-1.9,1.2-4.6-0.7-6.1l-8.9-7l-2.6,3.3l2.3,1.8l0.8-1l7.6,6l-1.8,2.3l-17.5-13.7l1.8-2.3l3.5,2.7
		l1.8-2.3l-2.5-2c-1.9-1.5-4.6-1.1-6.1,0.7c-1.5,1.9-1.2,4.6,0.7,6.1L164.9,157.7z M74.2,140.4c0.8,1.6,0.4,3.7-0.8,5l-3.1,2.5
		l-1.8-2.3c1.1-1,2.3-1.9,3.5-2.8l-1.7-2.3l-7.7,5.9c0.9,1.7,2.9,3,2.2,5.2l-0.2,0.7l-8.2,6.3c-1.1,0.6-2.5,0.6-3.7,0.2
		c-1.4-0.5-2.4-2-2.7-3.3c-0.3-1.7,0.3-3.2,1.6-4.3c0.9-0.7,1.7-1.3,2.6-2c0.6,0.7,1.2,1.6,1.8,2.4c-1.1,0.9-2.3,1.8-3.5,2.7
		l1.7,2.3c2.6-1.9,5.1-4,7.7-6c-1.1-1.7-3.4-3.5-1.9-5.7l0.6-0.8l7.5-5.7c1.2-0.7,3-0.7,4.2,0C73.1,138.8,73.8,139.6,74.2,140.4"/>
</g>
</svg>
