<?xml version="1.0" encoding="utf-8"?>
<!-- Generator: Adobe Illustrator 23.0.3, SVG Export Plug-In . SVG Version: 6.00 Build 0)  -->
<svg version="1.1" id="Layer_1" xmlns="http://www.w3.org/2000/svg" xmlns:xlink="http://www.w3.org/1999/xlink" x="0px" y="0px"
	 viewBox="0 0 892 600" style="enable-background:new 0 0 892 600;" xml:space="preserve">
<style type="text/css">
	.st0{clip-path:url(#SVGID_2_);}
	.st1{fill:#006AA7;}
	.st2{fill:#FECC00;}
	.st3{fill:#939598;}
</style>
<title>Suécia</title>
<g>
	<g>
		<defs>
			<path id="SVGID_1_" d="M30.9,0h830.1C878.2,0,892,13.8,892,30.9v538.1c0,17.1-13.8,30.9-30.9,30.9H30.9C13.8,600,0,586.2,0,569.1
				V30.9C0,13.8,13.8,0,30.9,0z"/>
		</defs>
		<clipPath id="SVGID_2_">
			<use xlink:href="#SVGID_1_"  style="overflow:visible;"/>
		</clipPath>
		<g class="st0">
			<rect x="0" y="0" class="st1" width="892" height="600"/>
			<rect x="246.5" y="0" class="st2" width="120.2" height="600"/>
			<rect x="0" y="240.4" class="st2" width="892" height="120.2"/>
		</g>
	</g>
</g>
<g>
	<g id="Layer_1-2">
		<path class="st3" d="M861.1,6c13.7,0.1,24.8,11.2,24.9,24.9V569c0,13.8-11.1,24.9-24.9,24.9h0H30.9c-13.7,0-24.9-11-24.9-24.7
			c0,0,0,0,0-0.1V30.9C6.1,17.2,17.2,6.1,30.9,6H861.1 M861.1,0H30.9C13.9,0,0,13.8,0,30.8c0,0,0,0.1,0,0.1l0,0V569
			c-0.1,17.1,13.7,30.9,30.8,31c0,0,0.1,0,0.1,0H861c17,0,30.9-13.8,30.9-30.8c0,0,0-0.1,0-0.1V30.9c0.1-17-13.6-30.8-30.5-30.9
			C861.3,0,861.2,0,861.1,0z"/>
	</g>
</g>
</svg>
