<?xml version="1.0" encoding="UTF-8"?>
<svg id="Layer_1" xmlns="http://www.w3.org/2000/svg" version="1.1" viewBox="0 0 258 258">
  <!-- Generator: Adobe Illustrator 29.1.0, SVG Export Plug-In . SVG Version: 2.1.0 Build 142)  -->
  <defs>
    <style>
      .st0 {
        fill: #013f8a;
      }

      .st1 {
        fill: #fff;
      }
    </style>
  </defs>
  <path class="st0" d="M130.1,1.5c-6.6,4.5-12.7,9.4-20.1,13.2-9.4,4.8-10.2,6.2-23.4,6.3l-55.2.8v121.8c5.6,68.9,69.9,108.5,98.7,115.9,28.8-7.4,93.4-47,98.9-115.9V21.8l-55.2-.4c-13.2-.1-14.2-1.9-23.7-6.8-7.3-3.8-13.5-8.7-20.1-13.2Z"/>
  <path class="st1" d="M129.2,6.2c-5.9,4.1-11.6,8.4-18.1,11.6-3.5,1.7-6.9,3.7-10.7,4.7-3.8,1-7.9,2.1-11.9,2.2-4.2,0-8.3,0-12.5,0h-41.9v118.2c.1,1.3.3,2.6.4,3.8.2,1.6.4,3.2.7,4.7.4,2.7,1,5.5,1.6,8.2.1.5.2,1,.4,1.5,1.1,4.2,2.4,8.2,3.9,12.3.2.6.5,1.3.7,1.9.1.4.3.8.5,1.2.6,1.5,1.3,3,2,4.5,3.2,6.9,7.1,13.6,11.6,19.8,1.5,2,3,4,4.5,6,4.3,5.3,9,10.4,14,15.1,7.6,7.2,16,13.6,25,19.1,6.5,4,13.2,7.6,20.3,10.5,3.4,1.4,6.8,2.6,10.3,3.6.9-.2,1.8-.5,2.7-.8,3.9-1.2,7.9-2.8,11.7-4.5,8.4-3.8,16.4-8.5,23.9-13.8,6.1-4.3,12-9.1,17.5-14.2,7.6-7.1,14.5-15,20.3-23.6.8-1.2,1.6-2.3,2.3-3.5.7-1.2,1.5-2.4,2.2-3.6,2.3-3.9,4.3-7.9,6.1-12,1.1-2.5,2.2-5.1,3.1-7.7.5-1.3.9-2.7,1.4-4,1.7-5.3,2.9-10.8,3.8-16.3.3-2.1.6-4.1.8-6.2.1-1.1.2-2.3.2-3.4l-.2-116.6c-17.6.2-35.2-.2-52.7,0-4.2,0-8.2-.5-12.5-1.7-4.2-1.2-6.1-2.5-9-3.9-3-1.5-6-3.1-8.8-4.9-4.3-2.7-8.4-5.7-12.6-8.6l-.8.6Z"/>
  <path class="st0" d="M129.2,13.8c-5.2,3.6-10.5,7.1-16.2,9.9-3.8,1.9-7.6,3.9-11.8,4.9-4.9,1.1-10.1,1.9-15.2,2-7.7,0-15.2,0-22.8,0h-22.8v112.3c.1,1.2.2,2.5.4,3.7,0,.4.1.8.1,1.2.3,2.4.7,4.8,1.2,7.1.6,2.9,1.3,5.9,2.2,8.7,2,6.7,4.6,13.2,7.8,19.4,4.7,9,10.6,17.4,17.3,25,3.3,3.7,6.7,7.2,10.4,10.6,4.2,3.8,8.5,7.4,13.1,10.7,5.8,4.3,12,8.2,18.4,11.6.4.2.9.5,1.3.7,3.5,1.8,7,3.5,10.7,4.9.3.1.7.3,1,.4,1.2.5,2.5.9,3.7,1.3.3.1.7.2,1.1.4.4.1.7.2,1,.3,2.4-.7,4.7-1.6,7-2.5.6-.2,1.2-.5,1.8-.7,3.3-1.4,6.6-3,9.8-4.7.5-.3,1.1-.6,1.6-.9,6.5-3.6,12.7-7.6,18.6-12.1.6-.4,1.1-.9,1.7-1.3,9.2-7.2,17.7-15.4,24.9-24.6,2.6-3.3,5.1-6.7,7.3-10.3.3-.4.6-.9.9-1.4,5.8-9.4,10.3-19.6,13.1-30.3.1-.5.3-1,.4-1.6,0-.3.2-.8.3-1.1,1.1-4.7,1.8-9.4,2.3-14.2.1-2.3,0-4.5,0-6.8,0-35.8,0-70.4,0-106.2-15.7.2-31.6-.1-47.3,0-4.8,0-9.6-1-14.3-2.2-4.4-1.2-8.5-3.4-12.6-5.5-4.8-2.5-9.3-5.4-13.7-8.5-.6-.4-1.2-.8-1.8-1.2l-.9.6Z"/>
  <path class="st1" d="M87.2,63.6v13.7c0,.8-.2,1.6-.5,2.4-.3.7-.7,1.4-1.3,1.9-.5.5-1.2,1-1.9,1.3-.7.3-1.5.5-2.3.5h-14.1c-.8,0-1.6-.2-2.3-.5-.7-.3-1.4-.7-1.9-1.3-.6-.6-1-1.2-1.3-1.9-.3-.7-.5-1.5-.5-2.4v-13.7h5v14c0,.5.2.9.5,1.3.3.3.8.5,1.3.5h12.8c.5,0,.9-.2,1.3-.5.3-.4.5-.8.5-1.3v-14h5,0ZM95,63.6v15.8h18.1v3.9h-23v-19.7h5ZM140,63.6v3.9h-18.9c-.4,0-.7.1-1,.4-.3.3-.4.6-.4,1v1.1c0,.4.1.7.4,1,.3.3.6.4,1,.4h14.8c1.8,0,3.1.5,3.9,1.4s1.2,2.1,1.2,3.6v1.7c0,.6-.1,1.2-.3,1.8-.2.6-.5,1.2-.9,1.6-.4.5-.9.9-1.6,1.1-.6.3-1.4.4-2.3.4h-20.7v-3.9h19.4c.4,0,.7-.1,1-.4.3-.3.4-.6.4-1v-1.1c0-.4-.1-.7-.4-1-.3-.3-.6-.4-1-.4h-14.8c-.7,0-1.4-.1-2-.3-.6-.2-1.2-.5-1.6-.9-.5-.4-.8-.8-1.1-1.4-.3-.5-.4-1.1-.4-1.8v-2.6c0-.7.1-1.3.4-1.9.3-.6.6-1.1,1.1-1.5.5-.4,1-.8,1.6-1,.6-.2,1.3-.4,2-.4h20.2ZM153.3,63.6l-11.4,19.7h5.4l9.4-16.4,9.4,16.4h5.4l-11.4-19.7h-7ZM199.1,63.6v19.7h-6.6l-14.6-15.5v15.5h-4.9v-19.7h6.6l14.7,15.5v-15.5h4.9ZM128.8,38.4v16.7h-4.1v-6.7h-9l-3.3-3.3h12.3v-6.7h4.1ZM111.3,38.4v16.7h-4.1v-16.7h4.1ZM148.2,38.4c.7,0,1.3.1,1.9.4.6.3,1.1.6,1.6,1.1.5.5.8,1,1.1,1.6.3.6.4,1.3.4,2v6.5c0,.7-.1,1.3-.4,1.9-.3.6-.6,1.1-1.1,1.6-.5.5-1,.8-1.6,1.1-.6.3-1.2.4-1.9.4h-8.8l-3.3-3.3h11.5c.4,0,.8-.1,1-.4.3-.3.4-.7.4-1.1v-7c0-.4-.1-.7-.4-1-.3-.3-.6-.5-1-.5h-12v13.4h-4.1v-16.7h16.7Z"/>
  <path class="st1" d="M76.4,104.2l-2.5,23.2,7.3,7.3-9.6,16.2-2.1,20.7,6.2,2.1,2.5,10,.8,8.7,2.9.4,4.6.4.4-1.7,6.2,4.6,5.8,8.7,4.2-1.7,4.3,1.7,3.6,11.6,19,6.4,19.2-6.4,3.3-11.2,4.6-2.1,4.2,1.7,5.8-8.7,6.2-4.6.8,2.1,4.2-.8h2.9l.8-9.1,2.1-10,6.2-2.1-1.2-20.3-10-16.6,7.1-7.1-2.5-23.2h-14.9l-10,3.7-28.2-7.1-29,7.1-10-3.7-15.2-.2Z"/>
  <g>
    <path class="st0" d="M79.1,107.3l-2.1,18.3,10,10-4.6-11.2-3.3-17ZM79.4,107.3l20.9,10,23.3-12-22.3,6-11.1-3.9h-10.8ZM130.2,105.8l-18.3,10.6,18.1-5.6,18.6,5.6-18.5-10.6Z"/>
    <path class="st0" d="M130.2,113.7l-22.4,10.6,19.5-3.7,2.9,12,2.9-12,19.5,3.7-22.4-10.6ZM181,107.3l-20.9,10-23.3-12,22.3,6,11.1-3.9h10.8ZM181.3,107.3l2.1,18.3-10,10,4.6-11.2,3.3-17ZM87.4,119.3l4.7,13.3-6.7,17.8,11.6,15.4-7.1-16.2,7.1-17.8-9.6-12.5ZM108.6,132.6l-11.6,8.7,9.1,12.4,7.9,1.2-1.7,17,5.8-17.8-5-7.1-11.6-5.4,7.1-9.1Z"/>
    <path class="st0" d="M114.4,138l8.1-8.3-3.1,7.7,4.2,17.6-9.1-17ZM146.1,137.9l-8.1-8.3,3.1,7.7-4.2,17.6,9.1-17ZM151.7,132.5l11.6,8.7-9.1,12.4-7.9,1.2,1.7,17-5.8-17.8,5-7.1,11.6-5.4-7.1-9.1ZM173.1,119.5l-4.7,13.3,6.7,17.8-11.6,15.4,7.1-16.2-7.1-17.8,9.6-12.5ZM84.5,157.9l10.4,21.6,11.6-12.4-10,4.6-12-13.7Z"/>
    <path class="st0" d="M84.3,135.1l-5.6,17.8,6.6,27,14.9,17.4,1.2,5.8-5.8-9.1-11.2-7.9-2.5,6.2-.8-9.1-4.2-18.3-4.2,6.6,1.2-19.5,10.2-17ZM175.9,157.9l-10.4,21.6-11.6-12.4,10,4.6,12-13.7Z"/>
    <path class="st0" d="M176.1,135l5.6,17.8-6.6,27-14.9,17.4-1.2,5.8,5.8-9.1,11.2-7.9,2.5,6.2.8-9.1,4.2-18.3,4.2,6.6-1.2-19.5-10.2-17ZM110.4,203.1l3.2,11.3,16.5,5.5,16.7-5.5,3.4-11.3-6.3,7.5-13.7,3.3-13.7-3.3-6.1-7.5Z"/>
    <path class="st0" d="M121.9,160.8l-6.2,20.3,12.5,7.9v6.6l-8.7,3.7-11.2-2.1-2.5-4.1,12.9,2.5-16.6-8.3,2.1-4.6,14.5,8.3-12.5-13.7,2.1-5.8-11.6,13.7,8.3,15.4,14.7,2.5,10.6-4.3,10.8,4.3,14.5-2.5,8.3-15.4-11.6-13.7,2.1,5.8-12,13.3,14.1-7.9,2.1,4.6-16.6,8.3,12.9-2.5-2.5,4.1-10.8,2.1-9.1-3.7v-6.6l12.5-7.9-6.3-20.3.9,18.3-9.1,2.4-9.1-2.4.8-18.3Z"/>
  </g>
</svg>