<?xml version="1.0" encoding="UTF-8"?>
<svg id="Layer_1" xmlns="http://www.w3.org/2000/svg" version="1.1" viewBox="0 0 400 400">
  <!-- Generator: Adobe Illustrator 29.1.0, SVG Export Plug-In . SVG Version: 2.1.0 Build 142)  -->
  <defs>
    <style>
      .st0 {
        fill: #07ab56;
      }

      .st1 {
        fill: #dc4447;
      }

      .st2 {
        fill: #f9fcfa;
      }

      .st3 {
        fill: #08ac57;
      }

      .st4 {
        fill: #01ab58;
      }

      .st5 {
        fill: #fafcfb;
      }

      .st6 {
        fill: #fbfcfc;
      }

      .st7 {
        fill: #03ab5a;
      }

      .st8 {
        fill: #de393e;
      }

      .st9 {
        fill: #00aa58;
      }

      .st10 {
        fill: #0cac58;
      }

      .st11 {
        fill: #0bad59;
      }

      .st12 {
        fill: #08ab56;
      }

      .st13 {
        fill: #fdfdfd;
      }
    </style>
  </defs>
  <path class="st8" d="M370,39.1c4.9,6.2,10.4,11.6,15.6,17.6s6.8,7.8,6.7,8.3c-10.3,12.6-20.7,26.4-27.2,41.5-29.8,69.4,36,101.2,32,163.9s-21.7,59.5-46.2,73.4c-42,23.9-97,9-135.5,42.3-2.2,1.9-12.9,14.1-13.8,13.9s-6.3-7.8-7.6-9.2c-47.8-49.3-124.3-10.3-169-72.2-.3-.5-.8-1.3-.5-1.7,2.4-2.8,12.4-12,15.4-13.9l1.9.4,1.3-1.3c7.3,4.2,14.7,8.3,22.1,12.4,2-1.7,4.2-3.7,6-5.6-3.3-8-6-16.1-7.1-24.7-.8-2.4,4.3-6.3,6.4-4.8,1-1.2,1.8-.9,2.8,0l13.2,16,20.9-16.8c6.4-4,7.3-7.2,2.8-9.5l-19,15.9c-2.8,3.9-12.3-9.2-12.4-10.4s.2-2.1,1.1-2.8c6.9-5.3,13-10.8,18.4-16.4-1.6-2.6,1.7-5.2,4-3.2l2.8.8,13.1,15.4,24.6-20.5c-1.6-4-2.9-5.8-6.5-1.9l-11.9,10.3c-3.2,7.4-15.6-9.8-15.4-10.9l1.3-1.3c-.3-.5-.8-1.4-.5-1.7,1.8-1.7,15.8-13.6,16.9-14s1.3.1,1.9.5l2.2.2c20.9,22.9,53.5-6.4,35.7-30.7l.3-2.2c-.4-.5-.8-1.3-.5-1.7,1.8-1.9,15.9-15.1,16.9-15.5s1.3.1,1.9.4l1.9-.3c9.5,11.5,27.4,13.2,36.2-.1s6.7-24.7-5.1-16.1c4.1,12-4.3,24.4-17,17.5-2.9-1.5-8.2-4.8-7.3-8.2l-.6-1.6s8.9-7.4,26.7-22.2l1.7.6,3.7,1.9,12.8,14.7,22.1-18.8c3.9-2.4,1.6-4.2-1.5-6.3-6,6.1-12.4,11.2-19.2,15.4-1.6-.5-8.6-9.4-9.9-11.7v-2.5c-.3-.6-.7-1.4-.4-1.8,3.5-3.8,14.2-13.4,18.3-16.2l1.9.4h2.1c10.2,12.1,16.6,16.7,30,5.4,12.6-10.7,6.8-19.8-1.7-30.8l.7-1.7c-1.4-1.9,1.5-3.9,3.2-2.4,1.1-1.4,2.2-.7,3.2.5,4.6,5.5,9.1,11.2,13.5,16.9.9,1.1,20.5-17.1,21.9-18.9,6.4-8.3,2.2-20.4-8.7-20.9l-1.2-1.6c-1.5-2.1,3.4-6.8,5.6-5.6,1.3-1.2,2.5-.4,3.5.8l13.2,16.1,27.4-22.3c.2-.3-2.9-4.6-4-4.2-6.6,6.2-13.4,12-20.5,17.3-1.3,0-14.3-12.9-8.8-14.8l15.8-13c.7-1.1,1.1-2.4,1.4-3.9-.4-.5-.8-1.3-.5-1.7,1.1-1.3,11-10.2,12.2-10.8l1.9.4c.1.1,1.2,0,1.9.8,2.7,2.9,4.9,6.6,8.4,8.7Z"/>
  <path class="st0" d="M359.7,29.5l-13.5,12c-1.2.4-2.5-.1-3.9-1.5l-16.9,14.7c-4,2.2-11.1-6.6-9.7-10.8l19.1-15.9c.1-.3-3.4-4.6-3.6-4.5-6,4-22.1,17.4-25.9,22.7l13.4,16.3c1,1.2.7,2-.5,2.9l-5.6,5.6c-1,3.2-5.3,3.1-5.1-.7,2.6-8.2-5.2-17.1-13.6-13.5s-23.2,17-23.2,18.5l13.8,16.7c1,1.3,1,2.1-.5,2.9l-3.2,2.4c-1.5,1.1-2.4.3-3.6-.8l-12.5-15.7c-.6-.3-5.6,3.9-5.4,4.2,5.5,6.3,9.9,13.1,13.4,20.3.3.6.6,1.5.3,1.8-1.4,1.4-12.3,10.2-13.5,10.7l-1.9-.5c-1.3-.3-2.5-.8-3.6-1.7l-12.9-15.2-4.8,4.3c4.1,5.7,8.3,11.3,12.8,16.8l.5,3-19.9,17.6-3.2-1.3c-4.6-5.2-8.9-10.6-12.9-16.2-2.1,1.4-3.9,3.3-5.6,5.1,4.6,5.3,9,10.7,13.2,16.4l.5,3.2-27.9,23.2c-3,.9-6.2-5.6-7-8.2-3.3-11.4,8-21.9,18.7-15.8,4.7-6,4.8-7.6-3.3-8.7-18.5-2.4-29.2,24.1-17,37.6l-.3,2.3-18.3,16.8-2.2-.2c-21.1-23.8-55.1,5.8-35.8,30.6l-.2,2.3-18.3,15.2c-1.3,1.2-2.5.4-3.5-.8l-12.9-16.1c-2.2,1.5-4.1,3.2-5.8,5,5,5.3,9.7,10.9,13.9,16.9l.4,3c-1.6.7-3.3,1.5-4,3.2-1.2.7-2.7,0-4.5-2.2l-17,14.6c-3.9,2.3-11.5-7.1-9.6-11,6.9-5.6,13.3-11.4,19.2-17.4-1.9-3.2-4-4-6.2-2.4-11.1,9.3-21.7,19-31.8,29.2,3,7,5.7,14,8,21.2l-.3,3.8c.9,2.4-2.5,6-4.8,4.8-.9,1.6-2,1.3-3.4.5l-20.2-12.8c-2.4,1.3-4.7,3.1-6.4,5.2,7.2,3.9,14.5,7.8,21,12.5l-.6,1.9-16.7,15.2c-28.9-40.1-23.3-64.6-3.2-107,9.1-19.1,21.4-37.6,23.1-59.5,2.6-33.2-9.8-53.6-28.7-78.6-.2-.3-.2-1.3-.8-2-1.2-1.6-6-6-5.2-7.6L68.4,2.4c30.6,16.8,65,27.8,99.8,17.8s23.3-10.3,34.1-17.8c38.7,33.3,92,23.9,133,.1,7.7,8.2,15.6,16.4,23.3,24.6.8.9,1,2.2,1.1,2.4Z"/>
  <path class="st9" d="M343.5,215.1c28.9,29.2,22.2,80.3-14,99.9-50.2,27.2-104.6-21.8-87.7-75.1,13.8-43.5,69.4-57.5,101.8-24.8Z"/>
  <path class="st13" d="M284,95c-.2-.2-.2-1.3-.8-2-2.1-2.6-14.2-16-14.3-17.7l.3-1.1c7.8-4.7,19.8-20.5,29.3-19.8s13.6,9.8,10.2,17.4c1.4,0,2.5-.7,4-.8,13.6-.6,18.9,14.9,10.4,24.4s-13.7,12.4-18.7,16.3-3.1,2.8-4.4,2.1c-4.6-5.8-9.2-11.6-13.9-17.3s-1.7-1.1-2-1.5Z"/>
  <path class="st13" d="M166.8,196.4c21.5,27.3-16.2,59.6-38.3,32.7-23.4-28.5,16.5-60.4,38.3-32.7Z"/>
  <path class="st13" d="M318.2,65.5c-.2-.2-.2-1.3-.8-2-1.8-2.3-14.3-16.5-14.2-17.6,8.8-8.6,18.6-16.6,28-24.3,1.3.7,6,6.1,5.3,7.1l-19.5,16c-1.4,2.2,4.9,7.7,6.4,9.6l17.9-15.5c1.3-1.6,4,1.7,4.8,2.8s1.6,2.5,1.2,3.2c-1.3,3-18.8,15.1-18.7,16.4l9.2,10.8,20.8-18.3c.7-.2,6.4,5.9,5.6,7.2l-29.5,24c-4.4-5.7-9-11.3-13.6-16.8s-2.3-1.7-2.8-2.4Z"/>
  <path class="st13" d="M86.3,239.5c.2.3,2,.7,1.2,1.6-2.2,3.5-18.9,15-19.5,17.3s5.2,7.3,6.7,9l18.5-15.8c1-.7,4.4,3,5,3.9s.5.8.7,1.3c-1,3.3-19,16.1-19,17.5,2.4,1.7,6.8,10.7,9.8,9.9l20.9-17.5c1,1.9,4.8,4.7,4.3,6.6s-25,21.5-28.9,24.5c-4.7-5.4-9-11.3-13.6-16.8-.6-.7-1.7-1.1-2-1.5-.6,0-1.1-.2-1.7-.4s-1-.4-1.2-.7c-3.9-4.7-7.5-9.8-10.7-14.9-2.3-.6-1.7-2.6-1-4.4s23.9-22.4,25.5-22.7c1.9-.3,3.6.7,5,3.2Z"/>
  <path class="st13" d="M280.8,97.4c2.2,2.9,6,8,7.6,11.2,5.3,10.3,1.2,17.2-7.2,23.9-14.5,11.6-21.6,3.3-31.5-8-5.5-6.2-10.1-13.6-15.9-19.6l7.6-6.8c5.8,6.1,10.8,12.8,16.3,19.2l1.8-.4c8.9,17.8,28.3,5.6,14.4-8.7-1.3-.7-1.7-1.7-1-2.9-5.2-6.8-10.5-13.7-15.8-20.4,1.7-1.2,6.3-6.5,8.1-5.9s11.2,13.8,12.8,15.9,2.4,1.8,2.8,2.4Z"/>
  <path class="st13" d="M86.3,239.5c-6.1-5.7-8.2,1.1-12,4.3s-6.2,4.3-8.3,6.1c-4.5,3.9-9.7,7-9.2,13.6,3.3,6,6,12.4,8.3,19.2l-1.1,1.6c2.8,8.2,5.7,16.4,8.6,24.5,0,1.6-6,7.1-7.6,7.3-7.1-2.6-14-7.8-20.7-11.7s-2.1-.6-2.6-.9-.6-1-1.3-1.5c-6.9-4.2-13.9-8.4-21-12.1-.3-1.1.3-1.3.8-2,.9-1.4,6.7-6.1,8-5.6,6.8,4.4,13.6,8.9,20.5,13.1.9.6,2.2.6,2.6.9,1.7-.8,3.8.1,6.4,2.9-1.8-3-2.4-5.6-1.6-7.7-3.1-8.2-5.7-16.7-9.3-24.7v-1.6c0,0,34.8-30,34.8-30,2.3-1.2,4,3.1,4.8,4.4Z"/>
  <path class="st13" d="M185.2,179.7c-9-11.6-9.3-27.3,2.8-36.7s15.6-6.7,23.5-1.2c0,.6-4.5,8-5,8.2-1.1.7-4.9-1.7-6.9-1.8-4.1-.3-8.6,2.9-10.3,6.5-3.6,7.1.3,12.5,4.6,17.8,12.5,15.3,28.3,8.6,22.3-10.3,7.3-2.4,10.4-6.9,11.7,3.8,2.2,17.6-17.3,30.1-33,21.9-2.4-1.2-8.3-6.1-9.8-8.1Z"/>
  <path class="st13" d="M110.3,244.3c.2.2.2,1.3.8,2,1.3,1.5,8.6,10.6,9.3,10.7,4-1,17.1-15.5,19.7-15s5.5,5.6,4.9,6.3l-26.4,22.3-1.9-1.1c-4.2-6.2-9.6-11.4-14.3-17.2-5.2-6.2-9.7-13.4-15.6-19.2-1.2-2.4,6-6.2,7.2-8,4.6,5.5,8.9,11.3,13.5,16.8s2.2,1.7,2.8,2.4Z"/>
  <path class="st13" d="M221.8,149.3c-5.3-6.4-10-13.6-15.9-19.6,1.2-1.1,7-7.9,8.7-6.7,4.5,6.8,10.1,12.8,15.2,19.1,3.3,4,7,8.4,9.6,12.8.7.5,4.3-2.5,5.1-3.2,2.1-1.7,13.5-12.5,14.5-12.7s5.7,5.3,5.7,5.9c0,1.8-23.9,20.1-26.6,23.5-5.2-6.6-11-12.7-16.3-19.2Z"/>
  <path class="st10" d="M70.4,279.5l-6.4,4.8c-2-5.7-6.8-15.5-7.2-20.8,2.1.3,3.4,2.9,4.7,4.4,3.1,3.7,5.8,7.9,8.8,11.5Z"/>
  <path class="st13" d="M174,51.1v8.8h-27.1c.2,1.7-.8,11.2,1.2,11.2h24.3v8.8h-25.5v13.6h27.5c1.8,0,1.1,7.2,1.2,8.8h-38.3v-51.1h36.7Z"/>
  <path class="st13" d="M111.8,102.2h-11.2c-.6,0-2.3-10.3-4.5-11.1s-18.7-.4-19.7-.2l-3.7,11.2h-11.2l20.3-51.2c2.9.7,8.8-1.3,10.7,1.3l19.2,49.8Z"/>
  <path class="st8" d="M257.7,117.4l15.1-12c.4.5,1.6,1,2.4,2,4.4,5.8,9.1,10.8,2,17.2-9.5,8.6-14.1-1-19.5-7.2Z"/>
  <rect class="st5" x="117.4" y="92.6" width="9.6" height="9.6"/>
  <rect class="st2" x="183.6" y="92.6" width="9.6" height="9.6"/>
  <path class="st1" d="M56.1,291.4c1.2,3.3,3.8,6.7,4,10.4-.9,1-7.8-5-8.8-5.6l4.8-4.8Z"/>
  <path class="st13" d="M299.1,315.4c-3.6,1.5-24.7-3.8-24.7-6.8v-23.6h8.8v18.8c0,1.2,6,2.4,7.2,2v-39.1h-15.9v-56.3c4.3-2.8,10.1-4.7,15.1-5.6s9.6-1.9,9.6,0v110.6Z"/>
  <path class="st13" d="M323.8,310.6v-100.6c41.8,18.5,40.3,80.9,0,100.6Z"/>
  <path class="st13" d="M309.5,225.2c-.3-.3-4.5.3-4.8,0-.5-.5.1-8.5.6-10.2s4.6-9.4,5.1-9.7c1.2-.7,7.1.3,7.1,2.7v104.5s-8,2.1-8,2.1v-89.4Z"/>
  <path class="st6" d="M269.6,214v91.8c-1.5-.5-8.8-6-8.8-6.8v-61.9l-4,3.2v-14.8c0-.9,10-12.1,12.8-11.6Z"/>
  <path class="st8" d="M294.3,90.2c5.6-2.4,12.2-13.1,19.1-10,3.5,1.6,3.9,6.8,2,9.9s-10.5,10.1-11.3,10.3c-2.6.7-8.1-8.2-9.8-10.3Z"/>
  <path class="st3" d="M288,83.8c-1.1-.8-4.2-7.3-6.4-8.3,3.2-2.5,10.2-10.6,13.9-10.9,4.6-.3,7.1,4.4,5.4,8.7s-11.6,11.4-12.9,10.5Z"/>
  <path class="st12" d="M158.1,203.6c.4.5.8,1.3.5,1.7-3.5,3.7-15.4,14.8-19.3,17.1l-1.9-.4c-6.2-7.3-9.7-17.3-.4-24s15.8-1.2,21.1,5.6Z"/>
  <path class="st8" d="M137.3,222l20.7-18.4c5.9,7.5,8.5,16.5-.4,23.2-7.7,5.8-15,1.5-20.3-4.8Z"/>
  <path class="st11" d="M80,82.2c-.7-.7,5.2-16.8,7.2-18.4.9,5.5,4.8,11.5,6,16.7s-.6,1.6-.9,1.6h-12.4Z"/>
  <path class="st7" d="M290.4,213.2v43.9h-7.2v-41.1c0-1,5.8-3.1,7.2-2.8Z"/>
  <path class="st4" d="M331.8,293.8v-67.9c19.5,17.2,19.3,50.6,0,67.9Z"/>
</svg>