<svg id="Layer_1" data-name="Layer 1" xmlns="http://www.w3.org/2000/svg" viewBox="0 0 755.57 755.57"><defs><style>.cls-1{fill:#e61e25;}.cls-2{fill:#fff;}</style></defs><title>WAC</title><path class="cls-1" d="M825.94,514.23c0,208.06-169.82,377.71-377.86,377.71S70.37,722.29,70.37,514.23,240,136.37,448.08,136.37,825.94,306.17,825.94,514.23Z" transform="translate(-70.37 -136.37)"/><path class="cls-2" d="M233.08,328c4,8.86,25.25,21.86,34.7,34.11a23,23,0,0,1,5.31,14.17c0,11.07-9,13-17.72,15.36-14.47,4.28-30.12,6.05-38.39,4.72-7.38-1.18-18.61-7.53-17.57-22.29-9.15,4-14.17,15.95-12.25,26.73,3.25,17.57,21,18.16,35.88,17.57,15.95-.59,34.7-4.14,47.69-9,20.82-8,28.94-25.4,27.32-39.13-1.48-11.37-10.34-17.87-20.53-27.91-6.35-6.5.89-10-3.39-14.18-3.69-3.84-10.63-9-15.5-12.26-3.69-2.66-8.57-5-13.29-4.72C241.06,311.49,230.72,322.86,233.08,328Z" transform="translate(-70.37 -136.37)"/><path class="cls-2" d="M650.51,215.66c59.36,54.79,96.72,133,96.72,219.86,0,164.79-134.36,299.17-299.15,299.17s-299-134.38-299-299.17c0-86.82,37.21-165.07,96.72-219.86C150.1,280.78,87.2,390.35,87.2,514.23,87.2,713,249.32,875.11,448.08,875.11s361-162.12,361-360.88C809.1,390.35,746,280.63,650.51,215.66Zm-334,614a11.08,11.08,0,1,1,11.07-11.08A11.16,11.16,0,0,1,316.51,829.63Zm36.92-80.18-9.45-.3-76.49,37.66,3,7.83L264.24,803,227,774.84l5.61-7.23,8.56-1.62,4.73-45-43.57,13.44.15,7.23-7.08,5.61-30.85-36.91,6.19-6.94,7.68,2.65,21.12-58.91-1.32-12.4,5.74-6.94,31.45,34.55-5,6.34-9.15.15L208,705.15l54.94-17.28,16.83,11.22-6.06,56L317,734.54l-1.19-6.21,4-6.94,38.24,18ZM500.78,860.34l-2.37-8,4.14-5.16L480.4,821.06,448.8,837.6l-29.53-17.86-19.33,23.62,3.54,3.84-2.07,8.86-41.78-10.18,2.8-10.2,9-.15,60-71.31-5.46-6.49.15-8.72,52.11.15.15,6.51-4.57,5,65.55,77.07h7.53l2.67,10Zm84.46-28.94a11.07,11.07,0,1,1,11.07-11.07A11,11,0,0,1,585.24,831.4ZM743.68,698.65c-9.15,17.28-21.85,40-36,55.39-18.31,19.63-48,35.42-76,31.6-15.21-2.07-25.41-3.86-39.28-1,4.57-10.33,3.54-28.64,4.72-41.5,2.07-22,9.9-36.91,22.45-50.49,19.05-20.53,35.29-31.75,60.53-43L677.82,642l4.73-6.19L709,655.83l-5.76,6.36c-14.32,3.84-40.16,18.31-51,28.21-15.79,14.62-28.93,39.41-15.49,54.33,7.38,8.43,17.86,7.55,28.79,3.69,16.11-5.59,38.25-24.95,48.88-43.4,5.16-9.15,8-18.46,6.79-27l5.16-7.52,28.8,20.38-4.73,7.23Z" transform="translate(-70.37 -136.37)"/><polygon class="cls-2" points="361.31 668.6 378.89 680.12 397.34 670.07 378.29 647.78 361.31 668.6"/><path class="cls-2" d="M448.07,523.24c-3.25-8.12-8.71-16.24-13.14-20.52-8-7.83-19-7.68-28.35-3.84-20.23,8.27-40.75,24.66-56.85,39.13-5.61-5.46-14.18-15.8-19.94-21.56-9.6-10-15.65-8.72-22.74-3.4-8.71,6.79-15.95,12.4-24.51,19.93-6.5,5.76-13.88,14.18-15.65,22-1.18,5.61.59,12,13.14,16.39,28.2,9.89,26.14,21,16.39,28.5-6.35,5-32.49,3.1-49.17-4.58-14-6.5-24.51-18.16-21.7-36.18,3.69-24.07,6.79-36,8-48.14-12.4-.89-19.64.3-25.4-3.55-8-5.32-10.33-17.87-8.71-48-1.18,8.27-5.9,16.68-10.34,25-3.25,6.2-5.31,15.51-2.36,24.51,6.64,19.78,20.67,22,31.15,25.55-1,15.65-6.2,34.11-4,50.94,1.77,13,11.07,27.76,26.13,33.67,23.48,9.45,53,16.39,67.78-.3,9.6-10.93,13.14-20.08,12.85-27.76-.59-17-17.13-26-27.32-36.18-6.35-6.49-3.4-15.21,6.06-21.56,8.56-5.9,14.47-5.46,22.3.59,5,4,11.07,11.52,17.57,20.68-1.78,4.57-2.66,10.63-3.1,14.32,5.17-3.84,7.82-5.61,11.52-7.23,6.64,2.8,15.5,3.25,25.39,3.1a237.4,237.4,0,0,0,41.79-4.43C434.63,556,457.37,547.45,448.07,523.24Zm-85.5,20.82c9.59-10.19,49.61-43,61.57-30,8.56,9,9.74,13.88,7.38,18.46-2.21,4.13-10.34,7.53-17.87,9.6C395.95,547,372.47,546.42,362.58,544.06Z" transform="translate(-70.37 -136.37)"/><path class="cls-2" d="M301.74,304.11l-9,9.3c1.33,4.58,6.2,10.34,12.7,11.51l9.3-10C309.71,313,303.81,307.65,301.74,304.11Z" transform="translate(-70.37 -136.37)"/><path class="cls-2" d="M313.41,482.33c0,14.18,7.68,5.76,19.49-3.84l-3.54-130.83c0-10.78-10-3.69-19.78,2.81Z" transform="translate(-70.37 -136.37)"/><path class="cls-2" d="M287.42,440.4c-3.25-3.1-9.9-4-10.19-4,3.54,13.29-.15,33.37-10.93,48C277.67,479.08,294.36,462,287.42,440.4Z" transform="translate(-70.37 -136.37)"/><path class="cls-2" d="M330.53,617.44c.15.44,2.21,6.79,5.76,9.45,20.38-4.13,35.59-19.64,39.72-28.35C357,612,341,618.92,330.53,617.44Z" transform="translate(-70.37 -136.37)"/><path class="cls-2" d="M344.71,417.37c5.76,30.57,65.41,18.16,83.13,10.63,17.87-7.68,32-20.38,29.83-38.83-1.33-11.37-5.76-19.34-12.85-26.73-6.2-6.64.29-12.11-4-16.24-4.87-5-18.6-18.9-25.54-16.68-4,1.33-13.88,13.29-11.37,17,5,7.39,23,18.75,32.78,31,3.69,4.87,5.91,11.37,5.91,15.8,0,14.76-35,20.37-47,21.71-11.81,1.48-24.66.88-32-5.76-4.28-3.69-6.79-10.63-5.46-21.71C349,391.67,342.64,406.59,344.71,417.37Z" transform="translate(-70.37 -136.37)"/><path class="cls-2" d="M454.57,279.45c-16,7.23-49.91,16.09-50.35-7.09-12.26,5.47-18.16,25.84-8.42,35.88,9,9.3,34.41,3.54,54.19-3.84,16.54-6.2,51.83-23.77,49.17-45.33-1.33-11.37-8.57-15.5-20.23-25.84-7.68-6.94-.15-8.71-4.43-13S460,209.61,454,210c-4.14.15-15.06,15.65-11.07,18.61,9.15,6.35,18.31,11.66,27.17,18.31C486,258.78,468,273.4,454.57,279.45Z" transform="translate(-70.37 -136.37)"/><path class="cls-2" d="M494.73,201.19c.14-.3,6.64-6.64,6.05-11.08-12.4-18.31-32.63-15.06-41.79-9.15C474.65,181,486.76,190.41,494.73,201.19Z" transform="translate(-70.37 -136.37)"/><path class="cls-2" d="M341.9,312.09c-5.17-2.07-11.07-7.38-13.14-10.93l-9,9.31a17.31,17.31,0,0,0,12.85,11.66Z" transform="translate(-70.37 -136.37)"/><path class="cls-2" d="M560.14,286.24A15.76,15.76,0,0,0,572,297l8.71-9.3c-4.72-1.92-10.34-6.94-12.25-10.19Z" transform="translate(-70.37 -136.37)"/><path class="cls-2" d="M313,292.59a84.84,84.84,0,0,0,60.25-29.24c6.35-7.09,10.78-15.06,10.78-22.74,0-4.73-3.24-9.3-7.53-11.37-7.82-3.84-19.64-4.57-21.56-9.6-3.84-10,14.32-15.5,21-15.36,14.32.59,21.41,11.22,26.73,10.93,1.92-.15,4.43-1,7.83-5.91,11.66-17.42-18.46-26.14-30.86-25.54-17.72.74-28.79,7.82-37.8,16.83-9.6,9.6-22.44,29.53-5.46,37.8,4.87,2.36,17.57,3,17.57,10.19,0,3.1-2.36,6.79-6.05,9.89-5.61,4.43-21.71,8.86-35.88,8.86-13.43.15-25.1-3.54-25-14.77.3-14.32,5-21,14.47-35.44-16.09,7.23-40.46,28.35-32.93,51.23C273.54,283.44,292.14,293.92,313,292.59Z" transform="translate(-70.37 -136.37)"/><path class="cls-2" d="M553.06,354c23.18,3.69,55.81-5.91,67.33-30.27,4.58-9.75,4.58-22.59,5-29.24,1.18-18.75-19.93-2.07-20.23,1.33-.59,7.38,2.22,17.72-3.84,25.25-6.79,8.57-21.85,9.75-34.26,9.45-11.52-.15-30-1.47-33.67-15.8-2.07-7.82-.29-18.3.45-30.56L538.14,201c.88-10.78-10.34-5-20.67.74L512.3,302.19C510.23,321.83,516.73,348.41,553.06,354Z" transform="translate(-70.37 -136.37)"/><path class="cls-2" d="M318,665.14c6.35,8.86,26.58,24.51,49.91,25.69,3.4-3.69,1-11.66,1-12.11C357.41,681.23,341.31,675.18,318,665.14Z" transform="translate(-70.37 -136.37)"/><path class="cls-2" d="M358.44,484.4c1.33,4.73,6.35,10.48,12.85,11.67l9.45-10c-5.17-1.92-11.22-7.38-13.29-10.93Z" transform="translate(-70.37 -136.37)"/><path class="cls-2" d="M679.16,443.5c-4.87-1.92-10.34-6.8-12.26-10.19L658.48,442c1.18,4.28,5.91,9.74,12,10.78Z" transform="translate(-70.37 -136.37)"/><path class="cls-2" d="M533.86,600.31a28.19,28.19,0,0,1-12.26-10l-8.42,8.56c1.18,4.28,5.91,9.74,12,10.78Z" transform="translate(-70.37 -136.37)"/><path class="cls-2" d="M559,596.33a28.2,28.2,0,0,1-12.26-10l-8.42,8.56c1.18,4.28,5.76,9.74,12,10.78Z" transform="translate(-70.37 -136.37)"/><path class="cls-2" d="M562.95,266.46c9-9,23.48-14.91,42.53-20.67-9.3-2.51-34.26-1.18-50.65,11.66C554.68,262,562.65,266.16,562.95,266.46Z" transform="translate(-70.37 -136.37)"/><path class="cls-2" d="M642.09,405c-12.7,14-39.57,15.8-60.1,16.09a35.66,35.66,0,0,0-.74-11.22c-4.28-20.38-19.93-36-27.76-34.4-14,3-28.79,22.15-34.85,35.58C513.93,421.35,529,434.64,535,437.59a96.44,96.44,0,0,0,24.37,7.83c-13.57,22.39-40.74,32.43-67.51,34.25l2.24-153c1.92-18-14-2.66-24.07,5.91l1.44,146.88c-18.34-1.5-36-6.19-49.73-10.59,10.34,14.37,29.4,26.48,49.92,30l.43,44c.15,13.88,3.1,36.32,32.93,35.88,25.4-.3,46.81-8.12,54.78-23.63,5-9.89,4.58-22.89-4-38.83-4-7.68-13.74,2.66-12.11,6.35,2.36,6.05,2.8,10,2.07,15.65-1.48,9.3-6.5,16.39-29.68,16.39-25,0-24.81-8.71-25-26.43l.42-28.77c32.36-3.33,66-26,81.68-52.15,29.53,2.66,62.9-3.54,79.14-22.59,8-9.3,14.77-32.34,13.44-56.7,11.22,16.39,21.41,36.47,25.54,55.67,5.32,24.22,1.62,50.2-17.57,67.48-4.5,4-9.7,8.75-16.21,14.25-3.42-11.2-7.38-22.31-11.7-33.44-8.27-21.41-11.37-20.08-22.89-13.44-5.91,3.54-12.11,8.86-19.93,15.5-6.5,5.61-6.94,15.35-6.2,25.4,1,15.9,2.09,31.35,2.94,47.15-13.36,8.76-18.71,13-13.27,13.68,5.59.69,9.82,1.17,14,.77.13,3.26.25,6.54.35,9.86.44,17.57,4.43,39.72-17.57,44.45-16.24,3.4-33.22,4.58-53.45,7.09-15.8,2.07-29.83,11.66-40.46,20.67-27.32,22.74-44.89,56.26-66.15,57-14,.59-28.65-12.7-28.65-43-17.13,25.25-5.17,52,12.7,60.84,30,14.47,53.6-25.1,72.35-47.84,19.2-23.33,48.14-22,86.53-26.87,27.32-3.55,35.29-11.52,42.82-22.89,7.09-10.48,9.15-27.32,9.6-44.74.17-7.22,0-14.48-.32-21.75q17.09-10.3,31.3-19.86c2.32,7.88,4.36,16,5.94,23.75,4.43,22.44,3.84,39.27-10.63,57.73-17.86,22.59-49.47,37.36-82,51.38,33.67,6.35,77.82-15.8,96.87-46.81,8-12.85,10.18-28.79,9.89-45a241,241,0,0,0-6.83-50.38c28.34-20.82,45.45-39.86,50.09-59.92,10.48-45.92-19.49-105.43-34.7-148.25C670.59,295,665,281.08,658,283c-4.28,1.18-10.48,8.71-20.53,22.3-3.54,4.73-2.65,10.78-.29,16.1C644.75,337.19,657.16,388.43,642.09,405Zm-100.71-1.48c3-4.43,8.27-8.86,12.11-8.42,6.35.44,13.73,12.7,13.59,25.69C551.87,419.58,535,413.53,541.39,403.48ZM617.33,535.3c-.64-11.78-1.2-23.52-.79-35.1.3-5.91,1.77-9.89,6.94-12.85,5.48-3.18,13.38,10.45,20.34,29.22C636.46,522.22,627.77,528.47,617.33,535.3Z" transform="translate(-70.37 -136.37)"/></svg>