<?xml version="1.0" standalone="no"?>
<!DOCTYPE svg PUBLIC "-//W3C//DTD SVG 20010904//EN"
 "http://www.w3.org/TR/2001/REC-SVG-20010904/DTD/svg10.dtd">
<svg version="1.0" xmlns="http://www.w3.org/2000/svg"
 width="298.000000pt" height="298.000000pt" viewBox="0 0 298.000000 298.000000"
 preserveAspectRatio="xMidYMid meet">
<metadata>
Created by potrace 1.11, written by Peter Selinger 2001-2013
</metadata>
<g transform="translate(0.000000,298.000000) scale(0.100000,-0.100000)"
fill="#000000" stroke="none">
<path d="M1290 2765 c-270 -43 -505 -163 -702 -358 -282 -280 -407 -620 -377
-1028 24 -318 158 -596 399 -823 188 -177 408 -288 660 -332 145 -25 400 -15
538 20 245 64 431 174 608 358 173 180 276 369 329 602 40 171 35 443 -9 620
-103 406 -444 766 -846 894 -183 58 -413 76 -600 47z m370 -65 c36 -6 69 -16
73 -23 17 -26 117 -211 117 -217 0 -7 -343 -140 -361 -140 -13 0 -229 83 -330
126 l-36 16 56 113 56 112 60 10 c81 14 285 15 365 3z m-553 -291 l27 -10 -41
-19 c-94 -42 -190 -107 -264 -178 -78 -74 -79 -74 -79 -44 0 24 13 42 69 94
58 54 229 168 252 168 4 0 20 -5 36 -11z m862 -25 c80 -44 128 -80 204 -153
44 -43 57 -62 57 -85 0 -29 -1 -28 -72 41 -82 78 -170 141 -257 182 -50 23
-56 29 -42 39 26 17 40 14 110 -24z m-459 -272 c0 -151 -1 -158 -20 -158 -19
0 -20 7 -20 158 0 151 1 158 20 158 19 0 20 -7 20 -158z m-810 6 c0 -13 7
-101 14 -197 l15 -174 -126 -154 -126 -155 -95 95 -96 96 12 74 c14 91 54 219
99 317 l34 76 117 21 c155 27 152 27 152 1z m1748 -5 l83 -16 29 -58 c44 -86
68 -153 95 -264 38 -154 40 -149 -66 -249 l-90 -86 -107 131 c-59 73 -115 141
-124 153 -15 20 -15 39 -6 196 5 96 12 185 14 198 5 26 6 26 172 -5z m-764
-355 c97 -67 175 -127 175 -133 0 -5 -30 -104 -68 -220 l-69 -210 -232 0 -233
0 -71 218 c-59 183 -68 220 -56 228 8 4 89 62 180 128 98 71 172 119 182 117
10 -2 96 -60 192 -128z m-756 -77 c103 -33 132 -46 137 -62 4 -11 5 -22 3 -25
-3 -2 -75 20 -161 49 -141 47 -155 54 -145 70 5 10 15 16 22 14 7 -3 72 -24
144 -46z m1291 25 c10 -12 -12 -22 -131 -59 -79 -25 -153 -48 -166 -52 -21 -6
-21 -5 -11 18 12 26 58 46 199 87 80 23 94 24 109 6z m247 -398 c-17 -83 -34
-135 -77 -230 -25 -53 -36 -67 -58 -71 -14 -3 -27 -5 -28 -4 0 1 14 34 33 72
35 73 88 239 99 313 l7 42 19 -24 c18 -23 18 -28 5 -98z m-1911 -22 c18 -81
61 -195 95 -253 l19 -33 -27 6 c-15 4 -27 7 -28 8 -45 66 -93 195 -113 302 -8
39 -6 54 6 74 l16 25 7 -25 c4 -14 15 -61 25 -104z m684 -218 c-28 -40 -72
-103 -97 -140 -26 -38 -50 -68 -53 -68 -21 0 -16 38 11 79 109 169 135 201
163 201 l28 0 -52 -72z m551 -4 c115 -160 122 -172 109 -195 -13 -25 -7 -31
-99 101 -41 58 -85 120 -98 138 l-24 32 29 0 c25 0 37 -11 83 -76z m-945 -162
l180 -48 42 -64 c22 -36 71 -111 108 -168 37 -57 66 -105 64 -106 -2 -2 -55
-29 -117 -60 l-112 -56 -53 26 c-92 47 -213 130 -283 196 l-67 65 17 109 c21
132 26 154 35 154 3 0 87 -22 186 -48z m1488 34 c3 -7 13 -64 23 -125 l18
-111 -50 -51 c-27 -27 -72 -68 -100 -90 -65 -50 -211 -138 -243 -146 -31 -8
-244 95 -236 115 4 12 124 199 184 287 26 39 28 39 201 86 200 54 196 54 203
35z m-636 -390 c-20 -31 -87 -41 -237 -39 -123 3 -158 11 -178 42 l-15 22 54
-8 c71 -11 293 -8 344 4 22 5 42 8 44 7 2 -2 -4 -14 -12 -28z"/>
</g>
</svg>
