<?xml version="1.0" standalone="no"?>
<!DOCTYPE svg PUBLIC "-//W3C//DTD SVG 20010904//EN"
 "http://www.w3.org/TR/2001/REC-SVG-20010904/DTD/svg10.dtd">
<svg version="1.0" xmlns="http://www.w3.org/2000/svg"
 width="1200.000000pt" height="1200.000000pt" viewBox="0 0 1200.000000 1200.000000"
 preserveAspectRatio="xMidYMid meet">
<metadata>
Created by potrace 1.14, written by Peter Selinger 2001-2017
</metadata>
<g transform="translate(0.000000,1200.000000) scale(0.100000,-0.100000)"
fill="#000000" stroke="none">
<path d="M5675 10793 c-394 -33 -693 -87 -1029 -185 -767 -224 -1464 -638
-2041 -1213 -725 -722 -1201 -1663 -1355 -2678 -67 -447 -67 -985 0 -1434 232
-1537 1195 -2866 2585 -3568 528 -267 1038 -419 1645 -491 182 -21 671 -30
870 -15 1882 141 3497 1358 4158 3132 134 359 227 766 274 1194 18 161 18 769
0 930 -48 439 -140 834 -281 1211 -500 1332 -1545 2364 -2886 2848 -372 135
-836 234 -1244 266 -122 9 -597 12 -696 3z m550 -123 c1180 -61 2251 -535
3080 -1365 550 -550 949 -1214 1170 -1948 25 -82 45 -151 45 -153 0 -2 -26 -4
-57 -4 l-58 0 -63 195 c-385 1195 -1226 2163 -2357 2711 -479 232 -930 363
-1485 431 -208 26 -793 25 -1000 0 -754 -93 -1395 -324 -2004 -724 -891 -585
-1572 -1497 -1866 -2500 l-33 -113 -59 0 c-52 0 -59 2 -54 18 232 820 624
1498 1201 2077 748 751 1696 1216 2742 1346 285 35 519 43 798 29z m235 -185
c745 -79 1449 -334 2060 -747 414 -280 804 -653 1102 -1054 287 -387 524 -847
667 -1299 23 -71 46 -142 51 -157 l9 -28 -98 0 -98 0 -23 78 c-12 42 -45 138
-72 212 -381 1030 -1136 1877 -2114 2370 -451 228 -928 372 -1444 436 -173 21
-638 30 -826 15 -1662 -131 -3086 -1183 -3697 -2731 -36 -91 -80 -213 -98
-272 l-33 -108 -97 0 -98 0 14 43 c7 23 30 94 50 157 235 737 690 1432 1285
1963 770 687 1724 1080 2770 1141 129 7 548 -4 690 -19z m-245 -295 c847 -47
1626 -328 2295 -829 685 -513 1206 -1232 1469 -2030 23 -68 41 -125 41 -127 0
-2 -1809 -4 -4020 -4 -2211 0 -4020 2 -4020 5 0 3 18 59 40 125 513 1535 1868
2641 3475 2835 258 32 466 39 720 25z m4344 -3147 c22 -86 61 -308 80 -463 47
-377 47 -783 0 -1160 -19 -155 -58 -377 -80 -462 l-10 -38 -4549 0 -4549 0
-10 38 c-5 20 -21 96 -35 167 -95 493 -106 1065 -30 1575 16 111 48 279 65
343 l10 37 4549 0 4549 0 10 -37z m-8929 -2355 c87 -299 248 -673 410 -953
453 -786 1114 -1412 1918 -1814 494 -247 968 -388 1542 -458 207 -25 793 -25
1000 0 563 69 1031 206 1510 443 749 369 1357 908 1812 1604 232 355 436 792
548 1178 l33 112 59 0 c52 0 59 -2 54 -17 -104 -366 -197 -605 -346 -898 -901
-1765 -2789 -2768 -4752 -2524 -1366 169 -2579 930 -3343 2097 -232 356 -430
781 -551 1185 -24 82 -44 151 -44 153 0 2 26 4 58 4 l59 0 33 -112z m249 5
c18 -60 62 -182 98 -273 571 -1448 1872 -2478 3408 -2699 238 -34 418 -44 709
-38 284 6 433 20 676 63 1470 265 2702 1278 3253 2674 36 91 80 213 98 273
l33 107 97 0 98 0 -9 -27 c-5 -16 -28 -86 -51 -158 -119 -376 -313 -777 -537
-1115 -273 -411 -656 -814 -1054 -1111 -661 -493 -1406 -783 -2248 -875 -216
-24 -686 -24 -905 0 -931 101 -1769 459 -2470 1056 -140 119 -406 386 -513
515 -261 314 -433 576 -602 920 -130 264 -188 411 -300 768 l-9 27 98 0 97 0
33 -107z m8137 90 c-3 -10 -15 -49 -27 -88 -39 -129 -150 -399 -233 -565 -211
-422 -463 -769 -800 -1105 -626 -622 -1402 -1020 -2271 -1164 -433 -73 -939
-72 -1375 0 -1274 212 -2382 1003 -3002 2144 -110 201 -241 507 -297 690 -12
39 -24 78 -27 88 -5 16 191 17 4016 17 3825 0 4021 -1 4016 -17z"/>
<path d="M5895 9519 c-231 -31 -447 -150 -585 -322 -64 -81 -145 -241 -171
-342 -30 -113 -30 -297 -1 -418 107 -437 510 -722 957 -676 343 35 633 271
744 604 116 351 1 737 -289 967 -180 143 -437 217 -655 187z m63 -364 l-3
-159 -141 -103 -141 -103 -151 51 -151 51 -11 36 c-5 20 -15 62 -22 93 l-11
57 36 49 c46 63 116 128 192 179 78 53 95 62 173 89 l65 23 84 -52 83 -51 -2
-160z m487 150 c79 -52 188 -159 216 -211 10 -20 9 -37 -6 -104 -10 -45 -23
-87 -29 -95 -6 -7 -76 -34 -156 -59 l-144 -45 -106 76 c-58 42 -122 88 -142
102 l-37 26 -1 160 0 160 83 51 82 51 78 -28 c43 -15 116 -53 162 -84z m-950
-543 l150 -48 57 -168 56 -168 -92 -126 -93 -127 -94 3 c-52 2 -99 8 -106 14
-7 5 -29 35 -50 66 -74 113 -123 275 -123 411 l0 69 73 61 c39 33 72 61 72 61
0 0 68 -22 150 -48z m1236 -16 l72 -59 -6 -101 c-3 -61 -14 -129 -27 -171 -26
-84 -89 -209 -128 -252 -26 -30 -31 -32 -122 -37 l-95 -6 -92 129 -91 130 56
168 57 167 145 47 c80 26 148 46 152 45 4 0 39 -28 79 -60z m-462 -546 l93
-130 -34 -86 c-38 -99 -45 -105 -168 -130 -117 -23 -288 -16 -384 17 l-68 24
-35 84 c-23 56 -32 90 -26 101 4 9 46 69 93 133 l85 117 176 0 176 0 92 -130z"/>
<path d="M7194 6355 c-3 -13 -4 -34 -2 -46 2 -20 8 -24 34 -21 l32 3 7 -223
c4 -123 4 -259 0 -301 -7 -70 -9 -77 -29 -77 -49 0 -64 -11 -75 -53 -5 -23 -9
-42 -8 -44 2 -1 63 -9 136 -17 73 -9 137 -18 142 -21 8 -6 39 57 39 79 -1 26
-21 40 -66 45 l-48 6 -1 345 0 345 -78 2 c-73 1 -77 0 -83 -22z m133 -618 c-2
-23 -3 -1 -3 48 0 50 1 68 3 42 2 -26 2 -67 0 -90z"/>
<path d="M7780 6332 c-17 -13 -21 -24 -16 -40 9 -27 22 -28 36 -2 16 30 35 24
70 -20 34 -43 55 -48 99 -25 34 17 45 40 31 65 -12 23 -38 16 -36 -8 1 -12 -8
-18 -31 -20 -18 -2 -33 1 -33 6 0 5 -11 21 -25 36 -28 30 -64 33 -95 8z"/>
<path d="M3934 6315 c-48 -48 -6 -115 72 -115 48 0 74 24 74 70 0 46 -26 70
-76 70 -34 0 -51 -6 -70 -25z"/>
<path d="M5334 6284 c-66 -75 -70 -83 -47 -99 16 -12 21 -11 40 7 12 12 20 25
16 31 -3 6 -2 7 4 4 20 -13 79 72 69 99 -10 26 -33 14 -82 -42z"/>
<path d="M3260 6313 c-84 -4 -100 -15 -100 -70 0 -28 3 -33 24 -33 21 0 27 -8
44 -67 11 -38 23 -83 27 -101 4 -18 17 -59 30 -90 12 -31 39 -118 60 -192 53
-195 47 -184 103 -175 26 4 50 9 53 11 9 5 74 212 98 314 24 101 60 229 71
250 4 9 24 16 49 18 l41 3 0 53 c0 61 0 61 -108 72 -47 5 -61 3 -75 -10 -22
-23 -23 -101 -2 -110 21 -8 20 -15 -19 -151 -19 -66 -44 -158 -57 -205 -24
-92 -43 -138 -51 -124 -13 22 -67 236 -78 304 -6 41 -14 82 -17 90 -4 8 -5 18
-5 23 1 4 -5 23 -13 43 -13 31 -13 35 0 39 8 3 22 7 31 10 9 3 14 8 12 11 -3
3 -2 20 2 39 8 36 -3 56 -29 53 -9 -1 -50 -3 -91 -5z m490 -93 c0 -5 -5 -10
-11 -10 -5 0 -7 5 -4 10 3 6 8 10 11 10 2 0 4 -4 4 -10z m-433 -92 c-3 -8 -6
-5 -6 6 -1 11 2 17 5 13 3 -3 4 -12 1 -19z"/>
<path d="M5784 6245 c-20 -13 -21 -18 -9 -67 9 -42 16 -54 33 -56 16 -3 25 4
32 23 6 17 16 25 27 23 15 -3 18 -19 20 -128 2 -69 8 -144 13 -167 6 -24 8
-60 5 -80 -3 -21 -2 -63 3 -93 l7 -55 -50 -15 c-45 -14 -50 -18 -50 -45 l0
-30 144 3 c144 4 281 28 289 51 2 6 10 11 18 11 8 0 14 7 14 15 0 8 7 15 15
15 28 0 46 43 41 102 -5 77 -51 153 -110 185 l-28 15 35 29 c47 38 68 119 44
165 -26 50 -70 83 -131 99 -79 21 -333 21 -362 0z m193 -21 c-3 -3 -12 -4 -19
-1 -8 3 -5 6 6 6 11 1 17 -2 13 -5z m189 -52 c17 -11 31 -43 38 -88 5 -39 3
-44 -33 -77 -21 -19 -47 -37 -57 -40 -37 -11 -136 -29 -139 -25 -2 1 -5 53 -7
113 l-3 110 45 6 c67 9 144 10 156 1z m33 -307 c48 -35 69 -65 76 -103 9 -57
-11 -87 -83 -120 -46 -21 -70 -26 -126 -25 -38 1 -73 6 -80 13 -6 6 -12 58
-14 120 -4 108 -4 110 19 120 30 12 189 9 208 -5z"/>
<path d="M7758 6171 c-73 -24 -118 -81 -118 -150 0 -39 16 -63 29 -43 3 5 17
12 29 13 17 3 28 15 37 42 18 51 19 52 78 52 96 -1 123 -20 151 -112 7 -21 5
-21 -26 -12 -42 12 -131 2 -184 -21 -61 -26 -114 -113 -114 -187 0 -57 46
-129 97 -154 55 -26 102 -23 201 15 l72 28 44 -33 45 -32 35 29 c40 33 44 49
17 64 -44 23 -61 71 -61 174 0 111 -17 174 -64 244 -49 71 -73 85 -163 88 -43
2 -90 0 -105 -5z m168 -302 c49 -13 56 -23 68 -96 l6 -43 -66 -30 c-37 -16
-75 -30 -85 -30 -38 0 -90 34 -105 68 -27 67 -15 95 56 126 43 19 68 19 126 5z"/>
<path d="M3861 6116 c-5 -11 -7 -28 -5 -36 1 -8 3 -18 3 -21 1 -4 19 -9 42
-12 22 -3 42 -7 45 -9 2 -3 0 -74 -4 -159 l-7 -154 -40 -5 c-37 -5 -40 -8 -43
-37 -3 -30 -1 -33 25 -34 27 -2 27 -2 3 -6 -35 -6 -42 -16 -28 -36 15 -20 157
-34 232 -23 l47 7 -7 57 c-9 75 -19 92 -52 92 l-27 0 7 93 c10 138 11 278 1
288 -5 5 -49 11 -97 13 -82 3 -88 2 -95 -18z m96 -22 c-3 -3 -12 -4 -19 -1 -8
3 -5 6 6 6 11 1 17 -2 13 -5z m63 -48 c0 -3 -4 -8 -10 -11 -5 -3 -10 -1 -10 4
0 6 5 11 10 11 6 0 10 -2 10 -4z m-39 -107 l-8 -94 -1 75 c-2 69 5 126 14 117
2 -2 0 -46 -5 -98z m-38 -266 c-7 -2 -19 -2 -25 0 -7 3 -2 5 12 5 14 0 19 -2
13 -5z"/>
<path d="M4280 6093 c-7 -21 -10 -50 -8 -63 2 -21 9 -26 41 -28 l37 -3 0 -155
c0 -130 -2 -154 -15 -154 -18 0 -20 -45 -5 -85 10 -25 12 -26 82 -23 l73 3 3
43 c3 38 1 42 -20 43 -23 1 -23 1 2 9 l25 7 -27 8 c-28 7 -28 8 -28 90 l0 83
54 50 c82 74 137 76 182 6 21 -32 14 -140 -16 -235 -25 -80 -25 -104 -1 -128
16 -16 26 -18 58 -10 21 5 59 9 84 9 53 0 67 12 71 61 3 32 1 34 -33 37 l-36
3 1 137 c1 121 -2 143 -21 184 -22 48 -85 103 -132 115 -32 8 -117 -10 -170
-36 -47 -22 -58 -14 -49 34 5 24 4 25 -53 25 -31 0 -64 3 -73 6 -11 4 -18 -5
-26 -33z m131 -106 c-8 -8 -11 -3 -11 19 1 25 2 27 11 11 8 -14 8 -22 0 -30z
m69 -1 c0 -2 -7 -7 -16 -10 -8 -3 -12 -2 -9 4 6 10 25 14 25 6z m-63 -73 c-3
-10 -5 -2 -5 17 0 19 2 27 5 18 2 -10 2 -26 0 -35z m16 -290 c-7 -2 -21 -2
-30 0 -10 3 -4 5 12 5 17 0 24 -2 18 -5z m310 -30 c-7 -2 -21 -2 -30 0 -10 3
-4 5 12 5 17 0 24 -2 18 -5z"/>
<path d="M5070 6113 c-38 -7 -50 -22 -50 -60 0 -34 3 -37 51 -47 l26 -6 -5
-104 c-5 -124 10 -186 64 -256 50 -63 79 -74 145 -49 28 11 68 28 89 39 l37
19 10 -32 9 -32 86 -5 c97 -6 98 -5 98 68 0 34 -3 35 -57 32 -32 -2 -33 -1
-33 42 0 24 5 106 12 182 9 105 9 141 1 143 -7 3 -9 11 -7 18 6 14 -3 18 -78
30 -43 7 -40 16 -58 -174 -12 -124 -17 -140 -63 -188 -39 -42 -92 -45 -126 -9
-21 22 -22 31 -21 179 1 90 -2 163 -9 174 -8 16 -77 47 -92 42 -2 -1 -15 -4
-29 -6z m91 -41 c-7 -2 -18 1 -23 6 -8 8 -4 9 13 5 13 -4 18 -8 10 -11z m-7
-372 c3 -14 -3 -7 -13 15 -11 22 -20 49 -20 60 0 20 20 -25 33 -75z m303 -42
c-3 -8 -6 -5 -6 6 -1 11 2 17 5 13 3 -3 4 -12 1 -19z m-187 2 c12 -8 11 -10
-7 -10 -12 0 -25 5 -28 10 -8 13 15 13 35 0z m50 -10 c-8 -5 -19 -10 -25 -10
-5 0 -3 5 5 10 8 5 20 10 25 10 6 0 3 -5 -5 -10z m-42 -47 c-10 -2 -28 -2 -40
0 -13 2 -5 4 17 4 22 1 32 -1 23 -4z"/>
<path d="M6675 6070 c-79 -30 -141 -117 -178 -246 -14 -49 -13 -54 10 -110 47
-116 135 -171 258 -162 35 3 76 13 92 23 17 10 54 53 84 97 l53 80 1 79 c0 66
-3 82 -17 90 -10 6 -18 15 -18 20 0 6 5 7 11 3 26 -16 -13 36 -53 70 -88 76
-153 91 -243 56z m62 -76 c-3 -3 -12 -4 -19 -1 -8 3 -5 6 6 6 11 1 17 -2 13
-5z m118 -55 l45 -42 0 -76 c0 -65 -4 -82 -23 -109 -60 -80 -130 -101 -207
-60 -49 27 -89 84 -84 121 12 82 18 101 54 146 40 51 50 55 138 59 25 2 42 -7
77 -39z m-318 -241 c-3 -8 -6 -5 -6 6 -1 11 2 17 5 13 3 -3 4 -12 1 -19z"/>
<path d="M8505 6070 c-79 -30 -141 -117 -178 -246 -14 -49 -13 -54 10 -110 47
-116 135 -171 258 -162 35 3 76 13 92 23 17 10 54 53 84 97 l53 80 1 79 c0 66
-3 82 -17 90 -10 6 -18 15 -18 20 0 6 5 7 11 3 26 -16 -13 36 -53 70 -88 76
-153 91 -243 56z m62 -76 c-3 -3 -12 -4 -19 -1 -8 3 -5 6 6 6 11 1 17 -2 13
-5z m118 -55 l45 -42 0 -76 c0 -65 -4 -82 -23 -109 -60 -80 -130 -101 -207
-60 -49 27 -89 84 -84 121 12 82 18 101 54 146 40 51 50 55 138 59 25 2 42 -7
77 -39z m-318 -241 c-3 -8 -6 -5 -6 6 -1 11 2 17 5 13 3 -3 4 -12 1 -19z"/>
<path d="M3738 4073 c-3 -45 -5 -48 -33 -51 -32 -4 -45 -16 -45 -44 0 -14 8
-18 34 -18 l35 0 -2 -110 c-2 -99 0 -111 18 -124 22 -17 100 -22 109 -7 12 19
-7 41 -34 41 -19 0 -30 6 -34 18 -4 15 -9 123 -7 160 1 7 16 12 41 12 28 0 40
4 41 15 4 50 5 50 -34 53 l-39 3 4 50 c3 47 2 49 -24 49 -25 0 -27 -3 -30 -47z"/>
<path d="M5175 4091 c-11 -10 -4 -41 9 -41 11 0 15 -21 18 -90 5 -142 0 -190
-22 -190 -17 0 -38 -35 -28 -46 3 -2 33 -8 69 -13 67 -9 79 -4 79 31 0 10 -9
18 -22 20 -23 3 -23 6 -26 164 l-2 162 -36 4 c-19 2 -37 2 -39 -1z"/>
<path d="M8450 4065 c0 -18 5 -25 19 -25 18 0 19 -6 15 -72 -11 -166 -16 -199
-30 -205 -8 -3 -14 -13 -14 -23 0 -12 11 -19 38 -24 57 -9 62 -8 62 19 0 14
-4 25 -10 25 -5 0 -10 22 -10 48 0 58 20 82 68 82 45 0 53 -22 40 -104 -6 -36
-9 -68 -7 -70 2 -2 19 -7 37 -11 38 -8 52 13 33 48 -6 12 -11 36 -10 52 9 117
-39 169 -128 141 -22 -7 -23 -6 -16 55 7 70 -6 89 -59 89 -23 0 -28 -4 -28
-25z"/>
<path d="M4388 4075 c-11 -12 5 -56 18 -51 14 6 18 -53 14 -242 -1 -58 2 -73
15 -78 9 -4 21 -2 28 5 6 6 31 11 54 11 54 0 89 22 109 69 21 50 12 97 -28
138 -26 27 -39 33 -75 33 l-43 0 0 44 c0 66 -7 76 -49 76 -21 0 -40 -2 -43 -5z
m196 -198 c25 -53 9 -93 -44 -107 -61 -16 -70 -7 -70 66 0 71 12 86 65 81 24
-1 34 -10 49 -40z"/>
<path d="M6450 4061 c-26 -4 -35 -11 -35 -26 0 -13 6 -19 16 -17 23 3 29 -26
29 -150 0 -92 -2 -108 -16 -108 -10 0 -14 -7 -12 -22 6 -42 118 -35 118 7 0 7
-9 15 -20 18 -15 4 -20 14 -20 40 0 29 4 35 25 39 21 4 29 -2 50 -38 14 -23
29 -54 35 -68 8 -23 15 -26 55 -26 38 0 45 3 45 20 0 13 -9 22 -26 26 -15 4
-40 26 -59 53 l-33 46 39 36 c45 42 51 81 19 122 -31 39 -132 62 -210 48z
m180 -73 c19 -34 8 -56 -41 -79 -83 -40 -88 -36 -81 59 l4 53 51 -3 c44 -3 54
-7 67 -30z"/>
<path d="M2900 4025 c0 -8 11 -17 24 -21 23 -5 25 -11 28 -82 2 -43 1 -97 -2
-122 -4 -37 -9 -46 -27 -48 -15 -2 -23 -10 -23 -24 0 -18 4 -20 31 -14 17 3
44 6 60 6 19 0 29 5 29 15 0 8 -6 15 -14 15 -16 0 -26 30 -26 83 0 32 3 37 23
37 13 0 28 -5 35 -12 15 -15 22 -7 25 28 2 28 1 29 -40 26 l-43 -3 0 45 c0 38
3 46 19 46 10 0 39 3 66 6 l47 7 -4 -29 c-2 -21 2 -30 14 -32 21 -4 39 35 31
67 -5 20 -12 21 -129 21 -103 0 -124 -3 -124 -15z"/>
<path d="M8872 3967 c-27 -29 -29 -67 -4 -67 11 0 24 11 30 25 15 33 64 35 86
3 23 -33 20 -38 -25 -38 -51 0 -75 -13 -94 -50 -21 -42 -19 -73 10 -104 27
-30 65 -34 116 -12 29 12 36 12 57 -2 21 -14 25 -14 39 1 15 15 15 18 0 35
-11 12 -17 35 -17 64 0 52 -15 101 -42 141 -17 24 -25 27 -77 27 -47 0 -61 -4
-79 -23z m125 -125 c6 -4 14 -19 18 -32 5 -22 1 -28 -31 -43 -33 -16 -38 -16
-60 -2 -28 18 -32 59 -6 74 20 12 62 14 79 3z"/>
<path d="M7333 3973 l-83 -4 0 -39 c0 -36 3 -40 25 -40 16 0 25 6 25 15 0 12
13 15 56 15 68 0 66 -5 -38 -81 -62 -47 -69 -55 -66 -83 3 -27 7 -32 43 -38
22 -3 75 -4 118 -1 l77 6 0 38 c0 35 -3 39 -25 39 -18 0 -25 -5 -25 -20 0 -18
-7 -20 -65 -20 -48 0 -63 3 -60 13 3 7 41 45 86 86 59 54 79 79 77 95 -3 24
-11 25 -145 19z"/>
<path d="M3247 3963 c-12 -12 -7 -41 8 -47 11 -4 15 -20 15 -56 0 -62 20 -113
53 -135 23 -15 28 -15 63 0 33 14 39 14 54 0 9 -8 33 -15 54 -15 35 0 37 2 34
28 -2 19 -8 27 -22 25 -18 -1 -18 5 -13 87 6 94 0 110 -39 110 -21 0 -23 -6
-30 -71 -5 -53 -13 -78 -30 -98 -19 -21 -26 -24 -41 -15 -14 9 -19 27 -21 90
-2 60 -7 82 -19 92 -18 13 -55 16 -66 5z"/>
<path d="M4044 3930 c-51 -76 -30 -195 37 -219 43 -15 63 -14 107 5 20 10 44
17 52 18 23 2 23 29 -1 55 l-22 23 -31 -37 c-25 -29 -37 -36 -60 -33 -32 3
-63 39 -68 78 l-3 25 86 -3 c78 -3 87 -1 91 16 7 27 -15 76 -43 96 -14 9 -43
16 -71 16 -45 0 -49 -3 -74 -40z m128 -17 c28 -26 22 -30 -34 -25 -59 5 -81
17 -58 32 24 15 72 12 92 -7z"/>
<path d="M5764 3930 c-51 -76 -30 -195 37 -219 43 -15 63 -14 107 5 20 10 44
17 52 18 23 2 23 29 -1 55 l-22 23 -31 -37 c-25 -29 -37 -36 -60 -33 -32 3
-63 39 -68 78 l-3 25 86 -3 c78 -3 87 -1 91 16 7 27 -15 76 -43 96 -14 9 -43
16 -71 16 -45 0 -49 -3 -74 -40z m128 -17 c28 -26 22 -30 -34 -25 -59 5 -81
17 -58 32 24 15 72 12 92 -7z"/>
<path d="M6894 3930 c-51 -76 -30 -195 37 -219 43 -15 63 -14 107 5 20 10 44
17 52 18 23 2 23 29 -1 55 l-22 23 -31 -37 c-25 -29 -37 -36 -60 -33 -32 3
-63 39 -68 78 l-3 25 86 -3 c78 -3 87 -1 91 16 7 27 -15 76 -43 96 -14 9 -43
16 -71 16 -45 0 -49 -3 -74 -40z m128 -17 c28 -26 22 -30 -34 -25 -59 5 -81
17 -58 32 24 15 72 12 92 -7z"/>
<path d="M7664 3930 c-51 -76 -30 -195 37 -219 43 -15 63 -14 107 5 20 10 44
17 52 18 23 2 23 29 -1 55 l-22 23 -31 -37 c-25 -29 -37 -36 -60 -33 -32 3
-63 39 -68 78 l-3 25 86 -3 c78 -3 87 -1 91 16 7 27 -15 76 -43 96 -14 9 -43
16 -71 16 -45 0 -49 -3 -74 -40z m128 -17 c28 -26 22 -30 -34 -25 -59 5 -81
17 -58 32 24 15 72 12 92 -7z"/>
<path d="M8015 3950 c-8 -24 1 -40 22 -40 13 0 15 -14 12 -97 l-4 -98 35 0
c31 0 35 3 38 28 2 15 -1 27 -7 27 -6 0 -11 20 -11 44 0 36 5 48 26 65 32 25
57 27 74 6 12 -15 11 -43 -6 -147 l-6 -38 40 0 c22 0 47 3 56 6 20 8 21 44 1
44 -12 0 -15 14 -15 68 0 124 -56 168 -162 127 -13 -5 -18 -2 -18 9 0 25 -67
22 -75 -4z"/>
<path d="M4864 3950 c-54 -22 -104 -123 -85 -172 28 -74 137 -105 186 -53 26
29 55 85 55 108 0 37 -30 84 -68 105 -43 24 -55 25 -88 12z m84 -69 c32 -27
30 -80 -4 -115 -34 -33 -68 -33 -101 0 -28 28 -27 63 3 109 20 31 68 33 102 6z"/>
<path d="M4746 3002 c-27 -64 -52 -120 -56 -125 -3 -4 -61 -15 -128 -24 -67
-9 -122 -20 -122 -23 0 -3 40 -45 88 -93 l88 -88 -17 -122 c-10 -67 -16 -123
-15 -125 2 -2 51 21 110 50 l106 53 106 -53 c59 -29 108 -52 110 -50 1 2 -5
58 -15 125 l-17 122 88 88 c48 48 88 90 88 93 0 3 -55 14 -122 23 -67 9 -125
20 -128 24 -4 5 -29 61 -56 125 -27 65 -51 118 -54 118 -3 0 -27 -53 -54 -118z"/>
<path d="M5946 3002 c-27 -64 -52 -120 -56 -125 -3 -4 -61 -15 -128 -24 -67
-9 -122 -20 -122 -23 0 -3 40 -45 88 -93 l88 -88 -17 -122 c-10 -67 -16 -123
-15 -125 2 -2 51 21 110 50 l106 53 106 -53 c59 -29 108 -52 110 -50 1 2 -5
58 -15 125 l-17 122 88 88 c48 48 88 90 88 94 0 3 -55 13 -122 22 -67 9 -125
20 -128 24 -4 5 -29 61 -56 125 -27 65 -51 118 -54 118 -3 0 -27 -53 -54 -118z"/>
<path d="M7146 3002 c-27 -64 -52 -120 -56 -125 -3 -4 -61 -15 -128 -24 -67
-9 -122 -20 -122 -23 0 -3 40 -45 88 -93 l88 -88 -17 -122 c-10 -67 -16 -123
-15 -125 2 -2 51 21 110 50 l106 53 106 -53 c59 -29 108 -52 110 -50 1 2 -5
58 -15 125 l-17 122 88 88 c48 48 88 90 88 94 0 3 -55 13 -122 22 -67 9 -125
20 -128 24 -4 5 -29 61 -56 125 -27 65 -51 118 -54 118 -3 0 -27 -53 -54 -118z"/>
</g>
</svg>
