<svg xmlns="http://www.w3.org/2000/svg" xmlns:xlink="http://www.w3.org/1999/xlink" viewBox="0 0 892 600"><defs><style>.cls-1{fill:none;}.cls-2{clip-path:url(#clip-path);}.cls-3{fill:#d00;}.cls-4{fill:#fff;}.cls-5{fill:#0c1c8c;}.cls-6{fill:#fcb514;}.cls-7{fill:#007c59;}.cls-8{fill:#939598;}</style><clipPath id="clip-path"><path class="cls-1" d="M861.1,6A25,25,0,0,1,886,30.9V569a24.9,24.9,0,0,1-24.9,24.9H30.9A24.82,24.82,0,0,1,6,569.1V30.9A25,25,0,0,1,30.9,6H861.1"/></clipPath></defs><title>África do Sul</title><g id="Layer_2" data-name="Layer 2"><g class="cls-2"><g id="layer1"><g id="g4800"><rect id="red_stripe" data-name="red stripe" class="cls-3" x="0.18" y="0.05" width="899.78" height="599.68"/><rect id="horizontal_white_stripe" data-name="horizontal white stripe" class="cls-4" x="0.18" y="199.94" width="899.78" height="399.79"/><rect id="blue_stripe" data-name="blue stripe" class="cls-5" x="0.18" y="399.83" width="899.78" height="199.89"/><rect id="rect4798" x="0.16" y="97.96" width="306.7" height="388.25"/><path id="diagonal_white_stripes" data-name="diagonal white stripes" class="cls-4" d="M0,.13,270.48,299.65.1,479.68l.22,120,179.27.26L505.42,382.74l125-83.09-125-83.08L180.73.17Z"/><path id="black_triangle_with_yellow_fimbration" data-name="black triangle with yellow fimbration" class="cls-6" d="M.09,0,.46,119.87l270,179.78L0,479.75l.39,120,78.34-4.07L444.36,342.71l25.87-27-46.89-79.08L83.86.08Z"/><path id="diagonal_green_stripes" data-name="diagonal green stripes" class="cls-7" d="M.09,0,.44,72.21,341.71,299.65,0,527.39l.38,72.34,107.5.27L483.55,349.63l74.36-50-74.36-50L109.17.16Z"/><rect id="right_green_stripe" data-name="right green stripe" class="cls-7" x="450.07" y="239.92" width="449.89" height="119.94"/></g></g></g></g><g id="Layer_1" data-name="Layer 1"><g id="Layer_1-2" data-name="Layer 1"><path class="cls-8" d="M861.1,6A25,25,0,0,1,886,30.9V569a24.9,24.9,0,0,1-24.9,24.9H30.9A24.82,24.82,0,0,1,6,569.1V30.9A25,25,0,0,1,30.9,6H861.1m0-6H30.9A30.86,30.86,0,0,0,0,30.9H0V569a30.88,30.88,0,0,0,30.9,31H861a30.86,30.86,0,0,0,30.9-30.9V30.9A30.71,30.71,0,0,0,861.1,0Z"/></g></g></svg>