<?xml version="1.0" encoding="UTF-8"?>
<svg id="Layer_1" xmlns="http://www.w3.org/2000/svg" version="1.1" viewBox="0 0 1000 1000">
  <!-- Generator: Adobe Illustrator 29.0.0, SVG Export Plug-In . SVG Version: 2.1.0 Build 186)  -->
  <defs>
    <style>
      .st0 {
        fill: #c49a3a;
      }

      .st1 {
        fill: #832b8f;
      }

      .st2 {
        fill: #9a4d9f;
      }

      .st3 {
        fill: #fcfcfd;
      }

      .st4 {
        fill: #fdfdfe;
      }

      .st5 {
        fill: #a28f63;
      }
    </style>
  </defs>
  <path class="st1" d="M434.1,6.9c144-5,294.9,2.7,427.4,62.4,18.7,57,34.7,116.5,42.6,176.2,38.3,292.5-84.4,524.4-316.6,692.8-28.1,20.4-57.5,39.5-87.8,56-113.8-63.9-215.4-151.5-290.4-258.6-95.9-137.1-132.7-291-116.7-458,6.8-71.4,19.9-140,45.3-207.2,39.3-20.8,84.5-33.5,127.9-42.9s111.8-18.8,168.3-20.7ZM835.2,101.4c-2.1-2.3-12.9-7.2-16.5-8.8-115.2-52-296.6-57.9-421.3-47.3-81,6.9-155.7,24.3-231.5,53.3-2.8,1.7-5.2,9.5-6.4,13-6,17.2-11.6,39.7-16.1,57.7-66,263.8-3.1,490.7,196.4,672.8,48.4,44.2,100.8,83.6,158.9,114.4l2.8-.4c146.4-84.8,276.2-208.7,337.6-369.3,54.8-143.2,52.3-290.4,11.6-436.8-2.3-8.3-11.6-44.1-15.6-48.5Z"/>
  <path class="st0" d="M835.2,101.4c3.9,4.4,13.3,40.2,15.6,48.5,40.7,146.5,43.2,293.7-11.6,436.8-61.5,160.6-191.2,284.5-337.6,369.3l-2.8.4c-58.1-30.8-110.5-70.2-158.9-114.4C140.3,660.1,77.5,433.1,143.5,169.4c4.5-18,10-40.5,16.1-57.7s3.6-11.3,6.4-13c75.7-29,150.5-46.4,231.5-53.3,124.7-10.6,306.1-4.7,421.3,47.3,3.5,1.6,14.4,6.4,16.5,8.8ZM290.7,284.9c-2.3-30.5,13.5-83.3-26.2-94.9s-50.6,6.8-52.8,34.6c-1.6,20,1.6,40.3,1.3,60.2h20.1c5.9,0,.2-23.1,3.2-27.2h31.1v25.2c0,.1,1.8,1.9,1.9,1.9h21.4ZM787.7,194.3c-37.5-17.1-84.4,1.5-81.5,47.2,2.1,33.5,30.1,48.1,61.1,44.3,4.4-.5,20.2-4,20.2-9.1,0-2.1-6.5-15.7-8.4-16.3s-15,5-20.5,5c-23.3,0-34.2-25.9-22.4-44.4,10.6-16.7,27.8-11,43.6-7.5l7.9-19.2ZM469.3,284.9c0-30.9,13.1-92.8-33-95.8-16.5-1.1-34.2,3.4-41.1,19.9-6.1,14.6-3.9,30.5-3.6,45.5.1,7.8-1.3,20.4,0,27.2s1,3.2,1.9,3.2h19.4c.1,0,1.9-1.8,1.9-1.9v-25.2h32.4v27.2h22ZM482.2,190.4v94.5h22c2.7-30,.9-60.8,1-91-1.6-8.2-16.3-1.5-23-3.5ZM579.3,243.4c-15-15.5-25.6-35.1-39.5-51.8-3.2-4-19.7-2.8-22.7-.7s-1.3,2.5-1.3,3.9c2.7,26.1-3.4,59,0,84.3.2,1.7,1.7,5.8,3.3,5.8h18.8l1.3-54.4,42.1,54.4h20.1l1.3-94.5c-8.1-.9-15.2-2.4-23.3,0v53.1ZM702.3,190.4l-68.6-1.3v95.8h22c-.4-1.3,1.3-2.8,1.3-3.2v-34.3h38.8v-20.7h-36.9c-3.2,0-1.6-13.9-1.9-16.8h45.3v-19.4ZM325.6,190.4h-22v94.5h60.2c.1,0,1.9-1.8,1.9-1.9v-18.8h-40.1v-73.8ZM759.3,510.1c-22.1,22.4-48.7,43.3-76.4,58.3l-5.2-11.6c-.4,5.4-5.4,11.7-6.2,16.5s3.3,6.3-1.5,5.5c0-6.5-3.7-23.3-7.1-28.5-2.3-3.5-2.5,3-4.5,2.6-3.2-12.5-1.6-34.1-6.5-45.3-.2-3,.3-6.1,0-9.1s-4.2-26.2-5.2-27.2c-3.4-3.6-2.3,8.5-5.2,7.8-.4-3.8-1.4-7.4-2.6-11-.7-2.3-1.6-7.4-3.9-8.4l-5.2,14.2c.5-8.3-5.1-15.3-6.5-23.3-2,.6-3.3,5.2-3.9,7-1.1,3.3,0,9.5-3.8,8.5l-6.5-23.3c-4.7,3.6-6.7,9.7-9.1,14.9s1.1,2.6-2.6,2c1.5-3.2-7.2-22-8.4-22-4.2,4.6-8.7,10.3-8.4,16.8-4.4.3-3.9-5.1-5.3-8.3-1-2.2-7.3-15-8.3-15l-7.1,9c-.3-4.6-3.9-35-2.6-36.2s9.8.6,10.4,0c1.3-1.4-.6-5.7-2.7-7-6.9-4.7-8.5,3-10.3-9.8-.2-1.6.3-3.6,0-5.2-.7-4-2.7-15.4-4.5-18.1s-3.8,4.1-5.8,3.9c-1-2.1-4.6-14.9-5.2-15.5-2.8-2.9-5.6,9.2-7.7,9.1-.6-2.6-6-16.3-9.1-14.2s-4,9.9-6.5,10.3l-6.5-14.2c-1.1-.7-7.9,10.8-7.8,12.9-.6.5-1.8.2-2.7-.8-1.9-2-5.9-14.8-9.2-9.2s-3.9,7.6-4.9,11.3l-8.4-11.6-7.1,15.5-7.1-9c-1.9,0-5.3,11.8-5.8,14.2-3.2,1.6-3.8-6.3-6.4-3.9s-3.2,14.8-3.9,18.1-.8,5.4-1.3,7.8c-2,10-1.5,4.4-8.7,7.4s-3.9,3.3-5.5,4.9c-1.1,5.3,12,2.4,12.9,3.2l-2.6,36.2-8.4-9c-1.3,0-11.6,19.8-9.7,23.3-5.7,1.1-3.1-2-4.9-6.1s-5-8.3-7.4-12c-1.3,0-9.8,20-8.4,23.3-3.6.6-2-.6-2.6-2s-6.2-16.2-9.1-13.6l-6.5,22-7.7-15.5c-1.9,6-3.7,11.9-5.2,18.1-3.7.9-4.3-7.1-5.2-10.4-1.4,0-2,1.5-2.6,2.6-3,5.3-5,15.9-5.2,22-2.2-1.1-1.3-6-2.2-8.8s-1-3.8-3-4.1c-1.1,7.5-3,14.8-4.4,22.2-.3,1.9-2,5,.5,6.3-.8,2.6-.5,8.5-1.3,11.7-4,13-3.1,30.4-5.2,44l-5.1-5.2c-2,9.9-6.7,19.5-6.5,29.8-4.6.9-1.1-3-1.8-6.5-1-4.8-5.1-10.4-6-15.5l-5.2,12.9c-19.7-9.8-37.9-22.5-55-36.3-7.4-6-15.9-12.9-22.7-19.4-13.3-12.8-26.7-29.8-37.3-44.9-31.5-44.8-55.7-97.2-63.7-151.9-2.3-.3-1.2,2.9-1.3,4.5-.5,13.8.1,27.7,0,41.5-.6,124.9,31.6,236,100.9,339.7,30.6,45.7,66.8,87.4,106.1,125.6,32.6,31.6,64.7,56.1,102.3,81.6,7.8,5.3,15.4,11,23.4,16.1,4.6,2.9,24.4,16.1,27.8,16.3,6.4.4,45.6-27,53.6-32.3,37.9-25.4,69.2-50.2,102.3-81.6,40.7-38.5,73.6-76.5,104.9-123,78.8-117.2,109.6-245,102.3-386.5l-2.6-14.8c-12.4,78.9-43.5,148.9-99.7,205.8Z"/>
  <path class="st1" d="M759.3,705.6c-2.7-2.6-.8-8-1.3-11.7,1-1.7,4.8-9.3,3.9-10.3-30.7-9.9-63-14.9-95.1-18.1-48.7-4.9-98-5.5-146.9-6.5-2.6,2.6,3.8,52.3.7,57-1.1,1.8-36.8-1.4-42.1,0v-51.8c-37.1,10-73.5,35.2-84.1,73.8,17.7,0,35.4,0,53.1,0v9.1c-34-.3-68.2,0-102.3,0v-10.4s-71.8,0-71.8,0c-4.7-.5-5.3-6.6-7.1-9l7.8-54.4c-1.3-1.4-34.8,8.6-36.1,10.5-1.1,1.5,1.6,6,2.5,7.7-.5,3.7,1.4,9-1.3,11.7-69.3-103.7-101.5-214.8-100.9-339.7,0-13.8-.6-27.7,0-41.5s-1-4.8,1.3-4.5c8,54.6,32.2,107,63.7,151.9,10.6,15.1,24,32.1,37.3,44.9v125c0,2.5-.7,4.7-1.3,7.1-1.4,5.2-15.9,31.2-4.5,32.4,3.2.4,15.3-5,19.8-6.2,93.1-23.7,208-24.2,303.8-21.1,62.2,2,140.2,5.7,199.4,24.6,2,.6,7.1,3.7,7.7,3.6,1.8-.2,5.9-7.1,5.8-9.3s-5.9-16.9-7.1-20.2c-.8-2-.8-4.2-3.3-5.1,0-.2-1.4-.7-1.4-3.1.4-43.8-.1-87.7,0-131.5,56.2-57,87.3-126.9,99.7-205.8l2.6,14.8c7.3,141.5-23.5,269.2-102.3,386.5ZM429,684.7c.9-1.5.5-11.7-1-13.5-6.3-8-18.4,5.2-11.1,13.7,2,2.3,11.2,1.3,12.1-.2ZM329.1,674.7c-5.2,1.6-9.4,18.6,2.3,16.6,6.8-1.1,7.9-19.7-2.3-16.6Z"/>
  <path class="st3" d="M651.8,507.5c4.9,11.2,3.3,32.8,6.5,45.3,2.1.4,2.2-6.1,4.5-2.6,3.4,5.2,7.1,22,7.1,28.5,4.8.8,1-2.7,1.5-5.5.8-4.7,5.9-11.1,6.2-16.5l5.2,11.6,5.8,20.7c1.2-5.9.6-13.7,5.8-18.1,1.1,7.7,3.7,15.2,5.1,22.8.5,2.7-.3,5.8.1,8.3-27.9-21.4-63.6-29.8-97.9-34.7-70.4-10.1-227.6-12.4-288.2,25.9-5.2,3.3-8.5,7.8-13.8,10.1.6-4.1,5.4-31.1,6.5-32.4,2.2-2.6,4.4,5.4,4.6,6.4.7,4,.2,7.9,1.2,11.7l5.8-19.4,5.2-12.9c.9,5.1,5,10.7,6,15.5.7,3.5-2.8,7.4,1.8,6.5-.2-10.3,4.5-19.9,6.5-29.8l5.1,5.2c2.1-13.6,1.1-31,5.2-44,3.7-11.8,18.1-25,29.8-28.5-.9,11.5-1,24.2-2.7,35.5-.7,4.7-3.4,4-4.2,7.3-4.4,16.7,5.6,23.4,7,38,.2,1.8-1.1,3.8,1.9,3.2,5.1-1.1,2.6-5.9,3.9-10.4s10.5-21.9,11.7-21.9c2.4,5,10.5,14.8,11.8,19.4s-1.3,7.2-.8,7.8,3.6.2,4.6-1.3.4-5.4,1.2-7.8c2.4-6.8,9.7-14.2,11.1-22,6.1,7.5,12.7,17.2,11.6,27.2,1.6,0,3.8.4,5.3-.6s3.6-11.8,3.7-13.1c.7-5.8,0-39.5,2.6-41.4s2.6-.5,4-.6v21.4c0,.8-2.1,2.6-1.3,4.5,3.2-1.1,2.5-5.7,3.5-8.8,4.6-14.5,10.6-29,22.4-39.1,1,6.3-3.5,15,5.2,13-2.5-19.9,2.7-22.9,20-28.5,21.2-6.9,44.1-3.4,65.7.5,27.1,4.8,74.4,15.8,86.5,43.6ZM504.2,490.7v-20.1c0-3.4-9.1-1.6-9.1,1.3v18.8h9.1ZM526.2,473.8h-6.5v18.1h6.5v-18.1ZM539.2,475.1v18.1c0,.3,5.3.7,6.5,1.3-1.2-6.9,4.3-21.2-6.5-19.4ZM562.5,477.7h-6.5s1.3,18.1,1.3,18.1h6.5c-1.9-5.9-1.2-12-1.3-18.1ZM587.1,479.7c-1,3.4,0,16.5,0,21.4s7.9,3.1,7.8-.7-1.2-16.4-1.9-18.8-1.5-2.8-2.7-3.8c-1.1-.4-3,1.2-3.2,1.9ZM578,498.4c-.7-4.6,1.1-11.8-.2-16s-4.1-2.9-5-2.1,3,14.7,1.3,18.1h3.9ZM609.1,506.2c-2.4-4,0-15.6-2.5-17.5s-3.6-.9-4-.6c-.7.7.6,17.4,1.4,18s3.8-.1,5.1,0ZM619.3,493.5c-.3-.4-4.5-2-5-1.5,2.2,6-1.7,18.4,6.5,19.4-1.6-3.5-.5-16.3-1.5-17.9ZM550.8,501c-1,1,0,23.9,0,27.8s3.3,11.2,5.8,13.6c0-6.3.4-37.6-1.8-40.7s-3.7-1.1-4-.8ZM504.2,538.6c.6-3.5.8-25.5-6.5-20.7s-2.8,17.7-2.5,18.6c1,3.1,6.4,2,9,2.1ZM629.8,543.7c1.8-1.8,3.4-23.6-3.9-23.3-.2,7.1.3,14.3,1.3,21.3.3,1.8.5,3.9,2.5,1.9ZM591,530.2c-1.2,4.4.9,13.7,0,18.8,12.5,5.2,6.7-19.9,3.2-20.7-1.1-.4-3,1.2-3.2,1.9Z"/>
  <path class="st2" d="M550.8,737.9v9.1c-4,0-8.4-.3-12.3,0s-3.7-1-3.2,1.9c5.5,2.9,8.8,7.5,15.5,7.1v5.2c-1.9,0-5.1-.6-6.5.6,2,1.5,6,6.2,7.8,7.1v141.1c-8,5.4-47.2,32.7-53.6,32.3s-23.3-13.4-27.8-16.3c-8-5-15.6-10.8-23.4-16.1v-139.8c3.8-2.4,8-5,10.4-9-3.4,0-6.9,0-10.4,0l1.3-5.2c7.2.4,11-1.8,16.5-6.1,1.1-.8,2.4,0,1.6-3-6.5,0-13,0-19.4,0v-9.1c34.5,0,69.1,0,103.6,0ZM530.1,747h-59.5v6.5h59.5v-6.5ZM535.3,761.2h-69.9c0,3.2-1,7.4,3.2,7.8,19.5-1.8,43.2,2.4,62.2,0,5.5-.7,4.6-2.8,4.5-7.8Z"/>
  <path class="st1" d="M654.4,763.8v64.7c-33.1,31.3-64.4,56.1-102.3,81.6v-141.1c3.5,1.9,8.4,1.5,12.4,1.3,29.3-1.1,60.4-4.5,89.9-6.5ZM570.3,781.9c1.8,1.6,3.4,2.5,5.2,3.9,20.9,15.5,42.5,31.1,64.1,45.3,2.2,0,9.6-7.4,8.4-9-23.8-12.1-47.8-24.6-71.2-37.6-2.3-1.3-3.3-2.5-6.5-3.9s-.2-2-2.6-1.3c0,1.5,1.8,1.9,2.6,2.6Z"/>
  <path class="st1" d="M447.3,770.3v139.8c-37.6-25.5-69.6-49.9-102.3-81.6v-64.7c34,2.7,68.2,4.1,102.3,6.5ZM426.6,783.2c-.6.3-2.3,0-3.7.7-23.6,12.4-46.4,26.5-70.1,38.8,0,2.2,7.4,10.3,10.3,7.8,21.2-15.3,42.3-30.7,63.5-46s5.6-2.1,6.5-5.2c-3.1-1.1-5.1,3.2-6.5,3.9Z"/>
  <path class="st3" d="M543.1,375.5c4.7,3,7.7,7.9,11.7,11.7,1.8,12.7,3.4,5.1,10.3,9.8s4,5.7,2.7,7-9.8-.5-10.4,0c-1.3,1.3,2.3,31.7,2.6,36.2l7.1-9c1,0,7.2,12.8,8.3,15,1.5,3.1.9,8.6,5.3,8.3-.3-6.5,4.2-12.2,8.4-16.8,1.2,0,9.9,18.8,8.4,22,3.6.6,2-.6,2.6-2,2.3-5.2,4.3-11.2,9.1-14.9l6.5,23.3c3.7,1,2.7-5.2,3.8-8.5s2-6.5,3.9-7c1.4,8,7,14.9,6.5,23.3l5.2-14.2c2.3,1,3.2,6.1,3.9,8.4,1.1,3.6,2.2,7.3,2.6,11,2.8.7,1.8-11.4,5.2-7.8s4.9,23.9,5.2,27.2c-5.8-7.6-10.4-13-18.5-18.4-40.4-27.3-122.3-32.7-169.9-28.2-26.4,2.5-106,17.3-114.6,46.6-2.5-1.2-.8-4.4-.5-6.3,1.3-7.4,3.3-14.8,4.4-22.2,2,.3,2.5,2.5,3,4.1.8,2.8,0,7.7,2.2,8.8.2-6.1,2.1-16.7,5.2-22,3.7,3.6,4.1,9.4,3.9,14.2,5,.3,3.3-4,3.9-6.5,1.5-6.2,3.3-12.1,5.2-18.1l7.7,15.5,6.5-22c2.9-2.7,8.3,11.9,9.1,13.6s-1.1,2.6,2.6,2c-1.4-3.2,7.2-23.3,8.4-23.3,2.4,3.7,5.7,8,7.4,12s-.8,7.2,4.9,6.1c-1.9-3.5,8.4-23.3,9.7-23.3l8.4,9,2.6-36.2c-.9-.8-14.1,2.1-12.9-3.2,1.6-1.6,3.4-4,5.5-4.9,7.3-3,6.7,2.6,8.7-7.4,3-2.5,5-8,7.8-10.4.9-.7,5.8-3.3,6.5-2.6l-2.6,55.6,3.2-3.9c1,0,7.4,10.5,8.3,12.4,2.3,4.9-.6,8.1,5.9,7s.6-3.5,1.4-5.1c2.4-4.8,8.7-10.9,10.3-15.6,2.5-7.3,2.7-19.2,4.9-27.5s4.7-16,6.1-14c-1.1,7.3,1.7,5,7.8,5.2-.2-4.1.4-8.2,0-12.3s-2.6-3.3-2-4.6,7.9-6.3,9.1-6.4c7-.4,25.7,5,31.8,9ZM514.6,379.3h-3.9v11.7h3.9v-11.7ZM526.2,392.3c-.5-4.3,2.4-12.8-3.9-12.9v12.9s3.9,0,3.9,0ZM536.4,383.5c-.1-.2-2.8-1-3.7-1.5v14.2s3.9,0,3.9,0c-.6-2.8,1-11-.2-12.7ZM547,401.3c.7-.8-.1-17.1-3.9-18.1,1.1,5.2-3.2,17.4,3.9,18.1Z"/>
  <path class="st1" d="M651.8,498.4c.3,3-.2,6.1,0,9.1-12.1-27.8-59.3-38.8-86.5-43.6-21.6-3.8-44.4-7.3-65.7-.5-17.3,5.6-22.5,8.7-20,28.5-8.7,2.1-4.2-6.7-5.2-13-11.7,10.1-17.7,24.6-22.4,39.1-1,3.1-.3,7.7-3.5,8.8-.8-1.9,1.3-3.8,1.3-4.5v-21.4c-1.4,0-2.7-.4-4,.6-2.7,1.9-1.9,35.6-2.6,41.4s-3.2,12.7-3.7,13.1c-1.4,1-3.6.5-5.3.6,1.1-10-5.5-19.7-11.6-27.2-1.3,7.8-8.7,15.1-11.1,22-.8,2.4-.1,6.2-1.2,7.8s-4,1.8-4.6,1.3,1.5-5.1.8-7.8c-1.2-4.6-9.4-14.4-11.8-19.4-1.2,0-11.1,19.9-11.7,21.9-1.2,4.5,1.3,9.3-3.9,10.4-3,.6-1.7-1.4-1.9-3.2-1.4-14.7-11.4-21.3-7-38,.9-3.4,3.5-2.6,4.2-7.3,1.7-11.3,1.8-24,2.7-35.5-11.7,3.5-26.1,16.6-29.8,28.5.8-3.2.5-9,1.3-11.7,8.6-29.3,88.1-44.1,114.6-46.6,47.6-4.5,129.4.9,169.9,28.2,8,5.4,12.7,10.8,18.5,18.4ZM453.8,475.1v19.4c1.4.1,5.8-.7,6.3-1.5s1.5-13.9,1.5-16c0-3.9-5.2-1.3-7.8-2ZM443.4,476.4c-1.7-.4-6.5.2-6.5,1.9v18.8c1.1-.6,6.5-1,6.5-1.3v-19.4ZM412.2,477.8c-.8-.5-3-.4-3.9.7-3.7,4.5-2.5,18.8-3.8,25.1,11.3,3.1,10.2-24.2,7.7-25.8ZM426.6,498.4c.7-.7-.5-16.5,0-19.4-1.2,1.3-5.2,1-5.2,1.3v19.4c1.3-1.3,5-1.1,5.2-1.3ZM398.1,486.8c-9.5.4-5.7,14-6.5,20.7,8.6-2.2,4-13.6,6.5-20.7ZM385.1,492c-.3-.3-3.2-.3-4,.8-2.5,3.4-.6,14.2-1.2,18.7h3.9c-1-3.3,2.8-18,1.3-19.4Z"/>
  <path class="st2" d="M760.6,644.7c0,3.5-3.5,15.1-4.8,19.1s0,4.1-2.3,2.8-8.3-25-10.7-29.4,0-2.2-2.9-1.7l-9.7,24.6-12.3-31.1c-1.7-1.3-8.9,17.2-9.1,19.4-2.6,2-3.8-17.4-4.2-19.7-.8-4-1.8-10.4-3.5-14,3.6-3.2-.8-9.6-1.3-12.9s.4-5.5-.1-8.3c-1.4-7.6-4-15.1-5.1-22.8-5.3,4.4-4.6,12.2-5.8,18.1l-5.8-20.7c27.7-15,54.3-35.9,76.4-58.3-.2,43.8.3,87.7,0,131.5,0,2.4,1.4,2.9,1.4,3.1Z"/>
  <path class="st2" d="M317.8,569.6l-5.8,19.4c-1-3.8-.5-7.7-1.2-11.7s-2.4-9-4.6-6.4-5.8,28.3-6.5,32.4-3.1,7.9,0,10.4c-4.8,8.8-4.6,25-6.5,35-5-3.5-6.1-11.6-8.7-16.5-.8-1.5,0-2.2-2.9-1.6-4.6,8.2-6.8,19.5-10.7,27.5s-1.3,2.7-3.6,2.3c-.5-8.7-5.5-16.5-8.4-24.6-3.7,5.7-6.1,13.4-8.4,20s-2.2,10.6-2.6,11-3.7.1-3.9,0c-.8-.7-2.3-18.3-5.2-20.7.6-2.3,1.4-4.6,1.3-7.1v-125c6.7,6.5,15.2,13.4,22.6,19.4,17.1,13.8,35.3,26.5,55,36.3Z"/>
  <path class="st3" d="M579.3,243.4v-53.1c8.1-2.3,15.2-.8,23.3,0l-1.3,94.5h-20.1l-42.1-54.4-1.3,54.4h-18.8c-1.6,0-3.1-4.1-3.3-5.8-3.4-25.3,2.7-58.1,0-84.3,0-1.4,0-3,1.3-3.9,3.1-2.1,19.6-3.3,22.7.7,13.8,16.7,24.4,36.3,39.5,51.8Z"/>
  <path class="st3" d="M290.7,284.9h-21.4c-.1,0-1.9-1.8-1.9-1.9v-25.2h-31.1c-3,4.1,2.7,27.2-3.2,27.2h-20.1c.3-20-2.9-40.3-1.3-60.2,2.2-27.8,26.7-42.3,52.8-34.6,39.6,11.6,23.9,64.3,26.2,94.9ZM267.4,237c6-37.6-36.8-35.7-32.4,0h32.4Z"/>
  <path class="st3" d="M469.3,284.9h-22v-27.2h-32.4v25.2c0,.1-1.8,1.9-1.9,1.9h-19.4c-.9,0-1.7-2.2-1.9-3.2-1.3-6.9.2-19.5,0-27.2-.3-15-2.5-30.9,3.6-45.5,6.9-16.4,24.6-21,41.1-19.9,46.1,3.1,32.9,65,33,95.8ZM415.6,237c6.6,2.1,23.8-1.5,31.7,0,.4-12.7-.4-27.2-16.2-27.3s-20.9,25.6-15.5,27.3Z"/>
  <path class="st2" d="M266.1,727.6c1.8,2.5,2.5,8.6,7.1,9h71.8s0,10.4,0,10.4c-12.5,0-25,0-37.5,0l18.8,2.6c4.5.3,9.1-.2,13.6,0,8,1.5,4.7,4.6,5.2,11.7-2.3,0-16.8-.5-16.8.6,5.5.1,11.4,1.5,16.8,1.9v64.7c-39.4-38.2-75.6-79.9-106.1-125.6,2.7-2.6.8-8,1.3-11.7,6.4,11.5,17.9,25.4,25.9,36.2Z"/>
  <path class="st2" d="M759.3,705.6c-31.3,46.5-64.2,84.5-104.9,123v-64.7c3.5-.2,6.8-1,10.4-1.3s8.2.8,11.7-.6c0-1.2-9.7-.6-11.7-.6-3.4,0-6.9,0-10.4,0v-11.7c13.3-.7,26.9.2,40.1-1.9-13.3-1.2-26.8-.6-40.1-.6v-9.1c24.3,0,48.6,0,72.9,0l30.7-44c.5,3.7-1.4,9,1.3,11.7Z"/>
  <path class="st3" d="M787.7,194.3l-7.9,19.2c-15.9-3.5-33-9.3-43.6,7.5-11.8,18.5-.9,44.4,22.4,44.4s17.9-5.9,20.5-5,8.4,14.2,8.4,16.3c0,5.1-15.8,8.6-20.2,9.1-31,3.8-59-10.9-61.1-44.3-2.9-45.8,44.1-64.3,81.5-47.2Z"/>
  <path class="st3" d="M702.3,190.4v19.4h-45.3c.3,2.9-1.2,16.8,1.9,16.8h36.9v20.7h-38.8v34.3c0,.4-1.7,2-1.3,3.2h-22v-95.8s68.6,1.3,68.6,1.3Z"/>
  <path class="st3" d="M325.6,190.4v73.8h40.1v18.8c0,.1-1.8,1.9-1.9,1.9h-60.2v-94.5h22Z"/>
  <path class="st3" d="M482.2,190.4c6.7,2,21.4-4.7,23,3.5,0,30.3,1.7,61-1,91h-22v-94.5Z"/>
  <path class="st3" d="M446,380.6c.7-3.3,2.2-16.5,3.9-18.1,2.6-2.5,3.3,5.4,6.4,3.9.5-2.4,3.9-14.3,5.8-14.2l7.1,9,7.1-15.5,8.4,11.6c1-3.7,3-8,4.9-11.3,3.3-5.7,7.4,7.1,9.2,9.2s2.1,1.4,2.7.8c0-2.1,6.7-13.7,7.8-12.9l6.5,14.2c2.4-.5,6-10,6.5-10.3,3-2.1,8.4,11.6,9.1,14.2,2.1,0,5-11.9,7.7-9.1s4.2,13.4,5.2,15.5c2,.2,3.6-7.3,5.8-3.9s3.8,14.2,4.5,18.1c-3.1-3.9-5.3-5.2-9.1-7.8-24.6-16.7-71.2-16.3-94.5,2.6-1.7,1.3-3.4,2.6-5.2,3.9Z"/>
  <g>
    <path class="st3" d="M487.5,75.6l-7.8.6c.9,12.7,3.9,24.7,2.7,37.4l-20,1.5c-1.8.1-10.3-1.6-12-3-5.1-4.3-5.3-15.7.7-18.9,4.4-2.4,6,1.9,10.4,1.2,2.1-11.7-13.8-8.1-18.9-2.4-7.5,8.5-1.3,21.8-2.4,22.1-3.7,1-18.5,1.7-21.4-.4-5.6-4.1-1.1-16.5-3-22.5l-7.8.6,1.4,18.7c.6,7.6-14.1,6.6-15.5,1.1-.7-2.7-.5-15.6-1.2-16.1l-9,.7c5.2,11.5,2.1,43.3-16.9,34.2-3.5-1.7-8.5-8.6-8.8-12.2l-1.5-20-7.7.6,1.5,21.3c.1,1.5,5.1,10.2,6.7,11.9,9.9,10.4,26,6.4,33.4-5.1,1.1-1.8,1.4-5.1,1.6-5.2.6-.5,6.2,1.9,8.5,2,10.1.5,15.9-6,26.1-.7l56.7-.4c14.8-4.5,3-35.8,4-46.7Z"/>
    <path class="st3" d="M548.9,95.4c2.3-6.1,7.4-7.5,13.5-7.1.4-.4-1.2-5.7-1.9-6.1-1.2-.6-5.2,0-6.8.4-14.3,3.2-14.6,20.2-12.7,32l14.3.3c.3,10-13.1,12.7-19.6,6.5-3.4-3.2-6.4-13.7-7.1-18.4-.5-3.2,3-7.6-2.7-8.1-9.7-.9-4.3,15.4-2.1,20.7,9.8,24.1,44.4,20,41.4-7.9-10.5-.5-21.9,2.8-16.2-12.2Z"/>
    <path class="st3" d="M638.4,97.8c-.2-.8-7.4-2.1-7.8.5-1,6.1,2.3,17.1,1.7,23.9-3.2.7-15,.9-16.8-1.6-.4-.6-2.6-12.8-2.7-14.5-.7-8.9,5.5-27.6-9.4-23.3,6.9,20.3-8.9,47.5,22.7,48.6,25.4.9,11.5-17.4,12.2-33.5Z"/>
    <path class="st3" d="M577.7,93.7c-9.3,10.9,13.9,15.7,16.8,26l-24.8-2.1c.5,2-.3,6.2.7,7.6,1,1.3,27.9,5.7,30.2-3.2,3.4-13.4-15.7-20.1-22.9-28.2Z"/>
    <path class="st3" d="M499.8,120.8c.2,2.3,7.4,1.6,9.2,1.3l-3.4-46.5-9,.7,3.2,44.5Z"/>
    <path class="st3" d="M552.6,132.5c-3.8-2-5.7,1.9-7,2-1.1,0-6.7-4.3-9.2-.2-1,1.6-.6,6.1,1.2,7.2,4.3,2.6,8.5-2.9,9-2.7,0,0,0,1.6.6,2.1,7.9,5.1,10.4-5.8,5.5-8.4Z"/>
    <path class="st3" d="M413.4,129c-.4,0-1.1.2-1.2,0-.7-.7-1.1-4.4-3.8-4.7-9.7-1.1-4,20.1,4.5,6,1.9,4,4.2,4.4,8.5,3.1,3.6-7.2-6.3-13.3-8-4.4Z"/>
    <path class="st3" d="M374,89.2c-2.7-3.7-13.1.5-7.8,7,3.4,4.2,11.8-1.5,7.8-7Z"/>
    <path class="st3" d="M638.1,93.9c3.5-2.9-1-10.1-6.3-8-5.5,2.2,1.1,12.3,6.3,8Z"/>
  </g>
  <path class="st2" d="M554.7,381.9c.3,1.6-.2,3.6,0,5.2-4-3.8-7-8.6-11.7-11.7l2.6-1.3c3.8,2.6,6,3.8,9.1,7.8Z"/>
  <path class="st2" d="M363.1,460.9c.6-1.1,1.1-2.6,2.6-2.6.9,3.2,1.5,11.2,5.2,10.4-.6,2.5,1.1,6.8-3.9,6.5.2-4.9-.2-10.6-3.9-14.2Z"/>
  <path class="st2" d="M452.5,378.1c-2.8,2.3-4.8,7.9-7.8,10.4.5-2.4.7-5,1.3-7.8,1.7-1.2,3.5-2.5,5.2-3.9l1.3,1.3Z"/>
  <path class="st4" d="M701,614.9c1.7,3.5,2.7,9.9,3.5,14s1.7,21.7,4.2,19.7c.1-2.2,7.4-20.7,9.1-19.4l12.3,31.1,9.7-24.6c3-.5,2.1.2,2.9,1.7,2.4,4.4,9.3,28.7,10.7,29.4,2.3,1.2,1.9-1.9,2.3-2.8,1.3-4,4.9-15.6,4.8-19.1,2.5.9,2.5,3.1,3.3,5.1,1.2,3.3,7,18.3,7.1,20.2s-4,9.1-5.8,9.3-5.8-3-7.7-3.6c-59.2-18.9-137.2-22.6-199.4-24.6-95.9-3.1-210.7-2.6-303.8,21.1-4.5,1.1-16.6,6.5-19.8,6.2-11.4-1.2,3.2-27.2,4.5-32.4,2.9,2.5,4.4,20,5.2,20.7s3.7.1,3.9,0c.4-.4,1.7-8.4,2.6-11,2.3-6.6,4.7-14.4,8.4-20,2.9,8.1,7.9,15.8,8.4,24.6,2.2.4,2.7-.5,3.6-2.3,3.9-8,6.1-19.3,10.7-27.5,2.9-.5,2.1.2,2.9,1.6,2.7,4.9,3.7,13,8.7,16.5,1.9-10,1.7-26.2,6.5-35s23.4-19.5,33.7-22l-6.5,59.5,4.5-1.3,15-29.7c3-.7,2.1.4,2.9,1.7,4.4,6.9,8.6,17.6,11.5,25.4l9-.4,14.2-31.8c3-.7,2.1.4,2.9,1.7,3.3,5.1,7.7,14.9,10.3,20.7s0,8.9,10.6,7.2l16.4-30.9c3.2-2.9,3.8,7.7,6.4,7.8,10.1-28.3,38.5-44.2,67.1-48.8,44.5-7.2,146.6,4,185.8,27.1,5.9,3.5,14.8,9.1,17.7,15.3Z"/>
  <path class="st4" d="M447.3,737.9c-17.7,0-35.4,0-53.1,0,10.6-38.6,47.1-63.7,84.1-73.8v51.8c5.4-1.3,41,1.8,42.1,0,3-4.7-3.3-54.4-.7-57,48.9,1,98.2,1.6,146.9,6.5s64.5,8.2,95.1,18.1c.9,1.1-2.9,8.7-3.9,10.3l-30.7,44c-24.3,0-48.6,0-72.9,0-34.5,0-69.1,0-103.6,0-34.5,0-69.1,0-103.6,0ZM573.8,669.6c-5.2,1.6-5.1,14.8,0,16.3,15.7,4.7,13.2-20.3,0-16.3ZM673.6,676c-.5-.8-4.4-1.7-5.6-1.5-6.9.7-5.6,15.1-1.1,16.6s6.4.7,7.6-1-.2-12.9-1-14.1ZM525,722.4h-47.9v6.5h47.9v-6.5Z"/>
  <path class="st3" d="M240.2,691.3c-.9-1.7-3.6-6.2-2.5-7.7,1.3-1.9,34.9-11.8,36.1-10.5l-7.8,54.4c-8-10.9-19.5-24.8-25.9-36.2Z"/>
  <path class="st3" d="M345,747c34.1,0,68.2-.3,102.3,0,6.5,0,13,0,19.4,0,.8,3-.6,2.1-1.6,3-5.5,4.3-9.3,6.5-16.5,6.1-35.8-2-72.4-4.6-108.7-6.5-4.5-.2-9.1.2-13.6,0l-18.8-2.6c12.5,0,25,0,37.5,0Z"/>
  <path class="st3" d="M429,684.7c-.9,1.5-10.1,2.5-12.1.2-7.3-8.5,4.8-21.7,11.1-13.7s1.9,12.1,1,13.5Z"/>
  <path class="st3" d="M329.1,674.7c10.2-3.1,9,15.5,2.3,16.6-11.7,2-7.5-15-2.3-16.6Z"/>
  <path class="st1" d="M699.7,602c.5,3.4,4.9,9.7,1.3,12.9-2.9-6.2-11.8-11.8-17.7-15.3-39.2-23.1-141.3-34.3-185.8-27.1-28.5,4.6-57,20.5-67.1,48.8-2.7,0-3.3-10.7-6.4-7.8l-16.4,30.9c-10.5,1.7-7.8-1-10.6-7.2s-7-15.6-10.3-20.7.1-2.3-2.9-1.7l-14.2,31.8-9,.4c-2.9-7.8-7.1-18.5-11.5-25.4-.8-1.3.1-2.3-2.9-1.7l-15,29.7-4.5,1.3,6.5-59.5c-10.2,2.5-28.5,12.6-33.7,22-3.1-2.5-.5-7.2,0-10.4,5.4-2.3,8.7-6.8,13.8-10.1,60.6-38.3,217.8-36,288.2-25.9,34.3,4.9,70.1,13.3,97.9,34.7ZM389,587.8c-10.5,0-9.6,2-9,11.7,10.5,0,9.6-2,9-11.7ZM348.9,596.8c-7.7.7-9.7,2.1-9,10.3,9.5.4,9.9-1.4,9-10.3Z"/>
  <path class="st2" d="M550.8,501c.3-.3,3.2-.3,4,.8,2.2,3,1.8,34.3,1.8,40.7-2.5-2.4-5.8-10.5-5.8-13.6s-1-26.9,0-27.8Z"/>
  <path class="st1" d="M504.2,490.7h-9.1v-18.8c0-2.9,9.1-4.7,9.1-1.3v20.1Z"/>
  <path class="st2" d="M504.2,538.6c-2.6-.1-8,1-9-2.1s1.7-18.1,2.5-18.6c7.3-4.8,7.1,17.2,6.5,20.7Z"/>
  <path class="st2" d="M587.1,479.7c.2-.7,2.1-2.3,3.2-1.9,1.2,1,2.2,2.3,2.7,3.8.8,2.4,1.9,15.5,1.9,18.8s-7.8,1.1-7.8.7c0-4.8-1-17.9,0-21.4Z"/>
  <path class="st2" d="M591,530.2c.2-.7,2.1-2.3,3.2-1.9,3.5.8,9.3,25.9-3.2,20.7.9-5.1-1.2-14.4,0-18.8Z"/>
  <path class="st2" d="M539.2,475.1c10.7-1.8,5.2,12.5,6.5,19.4-1.1-.6-6.5-1-6.5-1.3v-18.1Z"/>
  <rect class="st2" x="519.8" y="473.8" width="6.5" height="18.1"/>
  <path class="st2" d="M562.5,477.7c0,6.1-.6,12.2,1.3,18.1h-6.5s-1.3-18.1-1.3-18.1h6.5Z"/>
  <path class="st2" d="M629.8,543.7c-2,2-2.3-.2-2.5-1.9-1-7-1.6-14.2-1.3-21.3,7.3-.4,5.7,21.5,3.9,23.3Z"/>
  <path class="st2" d="M609.1,506.2c-1.3-.2-4.5.4-5.1,0s-2.1-17.3-1.4-18,3-.1,4,.6c2.6,1.9.1,13.6,2.5,17.5Z"/>
  <path class="st2" d="M619.3,493.5c1,1.6,0,14.4,1.5,17.9-8.2-1-4.3-13.4-6.5-19.4.4-.5,4.7,1,5,1.5Z"/>
  <path class="st2" d="M578,498.4h-3.9c1.7-3.4-2-17.5-1.3-18.1s4.3,0,5,2.1c1.3,4.1-.5,11.4.2,16Z"/>
  <path class="st1" d="M654.4,737.9v9.1c-34.5,0-69.1-.4-103.6,0v-9.1c34.5,0,69.1,0,103.6,0Z"/>
  <path class="st1" d="M448.6,756l-1.3,5.2c-34-.5-68.2-.2-102.3,0-.5-7.1,2.8-10.1-5.2-11.7,36.3,1.9,73,4.4,108.7,6.5Z"/>
  <path class="st1" d="M654.4,761.2c-34.4-.1-69.2-.9-103.6,0v-5.2c34.2-1.9,69.4-4.6,103.6-6.5v11.7Z"/>
  <path class="st3" d="M550.8,747c34.5-.4,69.1,0,103.6,0,13.3,0,26.9-.6,40.1.6-13.3,2.2-26.8,1.2-40.1,1.9-34.2,1.9-69.4,4.6-103.6,6.5-6.7.4-10.1-4.2-15.5-7.1-.5-3,1.3-1.8,3.2-1.9,3.9-.3,8.3,0,12.3,0Z"/>
  <path class="st3" d="M345,761.2c34-.2,68.2-.5,102.3,0,3.4,0,6.9,0,10.4,0-2.3,4.1-6.5,6.6-10.4,9-34-2.4-68.3-3.8-102.3-6.5-5.4-.4-11.3-1.8-16.8-1.9,0-1.1,14.6-.6,16.8-.6Z"/>
  <path class="st3" d="M550.8,761.2c34.4-.9,69.1-.1,103.6,0,3.4,0,6.9,0,10.4,0v1.3c-3.5.3-6.8,1.1-10.4,1.3-29.5,2-60.6,5.4-89.9,6.5-4,.2-8.9.5-12.4-1.3s-5.7-5.6-7.8-7.1c1.4-1.3,4.5-.6,6.5-.6Z"/>
  <path class="st3" d="M535.3,761.2c0,5.1,1.1,7.2-4.5,7.8-19,2.3-42.7-1.9-62.2,0-4.2-.4-3.3-4.5-3.2-7.8h69.9Z"/>
  <rect class="st3" x="470.6" y="747" width="59.5" height="6.5"/>
  <path class="st3" d="M576.7,784.5c23.4,12.9,47.4,25.5,71.2,37.6,1.2,1.6-6.1,9-8.4,9-21.6-14.2-43.2-29.7-64.1-45.3l1.3-1.3Z"/>
  <path class="st5" d="M576.7,784.5l-1.3,1.3c-1.8-1.3-3.4-2.3-5.2-3.9v-1.3c3.2,1.4,4.2,2.6,6.5,3.9Z"/>
  <path class="st2" d="M570.3,780.6v1.3c-.8-.7-2.6-1-2.6-2.6,2.4-.7,2.3,1.1,2.6,1.3Z"/>
  <path class="st3" d="M426.6,783.2v1.3c-21.2,15.3-42.3,30.7-63.5,46-2.9,2.5-10.3-5.6-10.3-7.8,23.7-12.2,46.5-26.3,70.1-38.8,1.4-.7,3.2-.4,3.7-.7Z"/>
  <path class="st2" d="M426.6,783.2c1.3-.7,3.4-5,6.5-3.9-.9,3.1-4.4,3.7-6.5,5.2v-1.3Z"/>
  <path class="st1" d="M545.7,374.2l-2.6,1.3c-6.1-4-24.8-9.4-31.8-9-1.2,0-8.6,5.5-9.1,6.4-.6,1.3,1.8,2.7,2,4.6.4,4.1-.2,8.2,0,12.3-6.1-.2-8.9,2.1-7.8-5.2-1.4-2-5.7,12.4-6.1,14-2.2,8.3-2.4,20.2-4.9,27.5s-7.9,10.8-10.3,15.6c-.8,1.6-.3,4.9-1.4,5.1-6.5,1.1-3.7-2.2-5.9-7s-7.3-12.5-8.3-12.4l-3.2,3.9,2.6-55.6c-.6-.7-5.6,1.9-6.5,2.6l-1.3-1.3c23.3-18.9,69.9-19.3,94.5-2.6ZM490,378h-5.2c-2,18.9,7.1,19,5.2,0ZM478.3,379.4c-8.4,0-4.4,8.3-5.2,14.2,8,1,4.5-8.8,5.2-14.2ZM468,381.9c-6.6-1.6-5.8,14.9-5.2,15.5s3,.1,4-.6c2.5-1.8.7-11.5,1.2-15Z"/>
  <path class="st2" d="M547,401.3c-7.1-.8-2.7-12.9-3.9-18.1,3.7,1,4.6,17.3,3.9,18.1Z"/>
  <path class="st2" d="M536.4,383.5c1.2,1.7-.3,9.9.2,12.7h-3.9s0-14.2,0-14.2c.8.5,3.5,1.3,3.7,1.5Z"/>
  <path class="st2" d="M526.2,392.3h-3.9s0-12.9,0-12.9c6.2.1,3.3,8.7,3.9,12.9Z"/>
  <rect class="st2" x="510.7" y="379.3" width="3.9" height="11.7"/>
  <path class="st3" d="M412.2,477.8c2.6,1.6,3.6,28.9-7.7,25.8,1.2-6.3,0-20.5,3.8-25.1s3.1-1.2,3.9-.7Z"/>
  <path class="st3" d="M453.8,475.1c2.6.7,7.9-1.9,7.8,2s-1.1,15.3-1.5,16-4.9,1.6-6.3,1.5v-19.4Z"/>
  <path class="st3" d="M443.4,476.4v19.4c0,.3-5.3.7-6.5,1.3v-18.8c0-1.7,4.8-2.4,6.5-1.9Z"/>
  <path class="st3" d="M426.6,498.4c-.2.2-3.9,0-5.2,1.3v-19.4c0-.3,4,0,5.2-1.3-.5,2.9.7,18.7,0,19.4Z"/>
  <path class="st3" d="M398.1,486.8c-2.5,7.1,2.1,18.5-6.5,20.7.8-6.7-3.1-20.3,6.5-20.7Z"/>
  <path class="st3" d="M385.1,492c1.5,1.5-2.3,16.1-1.3,19.4h-3.9c.6-4.5-1.3-15.3,1.2-18.7s3.6-1.1,4-.8Z"/>
  <path class="st0" d="M267.4,237h-32.4c-4.4-35.7,38.3-37.6,32.4,0Z"/>
  <path class="st0" d="M415.6,237c-5.3-1.7-1.8-27.4,15.5-27.3s16.6,14.6,16.2,27.3c-7.9-1.5-25.1,2.1-31.7,0Z"/>
  <path class="st5" d="M664.8,761.2c1.9,0,11.7-.5,11.7.6-3.5,1.4-7.9.4-11.7.6v-1.3Z"/>
  <rect class="st2" x="477.1" y="722.4" width="47.9" height="6.5"/>
  <path class="st2" d="M573.8,669.6c13.1-4,15.7,21,0,16.3s-5.2-14.7,0-16.3Z"/>
  <path class="st2" d="M673.6,676c.8,1.2,2,12.6,1,14.1s-5.8,1.6-7.6,1c-4.5-1.5-5.8-16,1.1-16.6,1.2-.1,5.1.8,5.6,1.5Z"/>
  <path class="st3" d="M389,587.8c.6,9.6,1.5,11.6-9,11.7-.6-9.6-1.5-11.6,9-11.7Z"/>
  <path class="st3" d="M348.9,596.8c.9,8.9.4,10.8-9,10.3-.6-8.3,1.3-9.6,9-10.3Z"/>
  <path class="st3" d="M468,381.9c-.5,3.4,1.3,13.1-1.2,15s-3.6.9-4,.6c-.6-.6-1.4-17.1,5.2-15.5Z"/>
  <path class="st3" d="M490,378c2,19-7.1,18.9-5.2,0h5.2Z"/>
  <path class="st3" d="M478.3,379.4c-.6,5.4,2.8,15.3-5.2,14.2.8-5.9-3.3-14.3,5.2-14.2Z"/>
</svg>