<?xml version="1.0" encoding="utf-8"?>
<!-- Generator: Adobe Illustrator 27.9.0, SVG Export Plug-In . SVG Version: 6.00 Build 0)  -->
<svg version="1.1" id="Layer_1" xmlns="http://www.w3.org/2000/svg" xmlns:xlink="http://www.w3.org/1999/xlink" x="0px" y="0px"
	 viewBox="0 0 400 400" style="enable-background:new 0 0 400 400;" xml:space="preserve">
<style type="text/css">
	.st0{fill:#FFFFFF;}
	.st1{fill:#FD0807;}
	.st2{fill:#D89906;}
	.st3{fill:#070606;}
	.st4{enable-background:new    ;}
</style>
<g>
	<g>
		<path class="st0" d="M200,8.4C144.4,8.5,92,11.3,63.4,17.1c0,66.8,0,244.3,0,264.5c0,89.5,126.7,111.7,136.6,111.7
			c10,0,136.6-22.2,136.6-111.7c0-20.2,0-197.7,0-264.5C308,11.3,255.6,8.5,200,8.4"/>
	</g>
	<g>
		<path class="st1" d="M69.2,15.8c0,0,124.9-29,261.6,0v50.1c0,0-97.1,83.7-261.6,120.7"/>
	</g>
	<g>
		<path class="st2" d="M348.1,19.4c0,87.9,0,240.9,0,257.6c0,95.6-127.9,116.4-148.1,116.9C179.8,393.5,51.9,372.7,51.9,277
			c0-16.7,0-169.7,0-257.6C44.7,21,40.6,22,40.6,22s0,226.9,0,252.5c0,97.2,137.6,122,159.4,122.5c21.7-0.5,159.4-25.3,159.4-122.5
			c0-25.6,0-252.5,0-252.5S355.3,21,348.1,19.4"/>
	</g>
	<g>
		<path class="st3" d="M336.6,17.1c0,85.4,0,246.9,0,264.5c0,89.5-126.7,111.7-136.6,111.7c-10,0-136.7-22.2-136.7-111.7
			c0-17.6,0-179.1,0-264.5c-4.4,0.9-8.3,1.7-11.5,2.4c0,81.2,0,239.3,0,257.6c0,95.6,127.9,116.4,148.1,116.9
			c20.2-0.5,148.1-21.3,148.1-116.9c0-18.3,0-176.5,0-257.6C344.9,18.7,341,17.9,336.6,17.1"/>
	</g>
	<g>
		<g>
			<path class="st0" d="M218,35.9c0,0,7.2-0.4,9.4-5.8c1.9-4.4-2-3.9-2-3.9s-2.7,0.6-2.4-0.2c0.2-0.8,0.8-1.4,3-2
				c1.5-0.5,1-2.4,1-2.4s0-0.8-1-0.6c0,0-4.4,0.5-5.2,5.3c-0.8,4.7,4.2,3.2,4.2,3.2c0.5-0.2,1.4-0.1,0.7,0.8
				C224.8,31,221.7,33.8,218,35.9"/>
		</g>
		<g>
			<path class="st0" d="M227.1,66.8c0,0-1.1-0.7-2.6-5.8c-1.7-5.9,1.9-16,1.9-16C230.3,54.5,227.1,66.8,227.1,66.8 M246.9,45.7
				c-0.4-5.7-4-18.6-13.2-30.1c-0.6-0.7-1.5-0.1-1.5,0.7c0,0.8,1,28.6,3.6,33c1.6,2.9,1.3-0.4,1.3-0.4L235.8,29c0,0,8.3,12.2,8.6,27
				c0.3,15.5-9,21.2-12.3,18c0,0-1.8-1.4-1.8-2c0,0,2.8-11.4,1.9-18.9c-0.9-7.5-2.8-8.9-4.9-16.6c0,0-0.3-1.5-1.2-0.8
				c-0.9,0.8-0.9,1.4-1.4,4.9c-0.4,3.5-2,10.1-2.6,13c-0.6,2.8-1.8,11.2,2,17.9c0,0-4.4,5.3-9.5,4.8c-4.3-0.5-10.2-3.3-9.7-16.5
				c0,0,0.1-1.1-0.2-1.1c-0.4-0.1-1.8,12.5,3.3,19.5c4.9,6.6,14.1,8,19.2-0.1c0,0,9.1,10.7,14.5,1.8
				C247.1,71.3,248.2,63.9,246.9,45.7"/>
		</g>
		<g>
			<path class="st0" d="M265.5,45.8c-0.8-5.7-4.9-19-14.1-30.5c-0.6-0.7-1.5-0.1-1.5,0.7c0,0.8,1.2,28.9,3.8,33.3
				c1.6,2.9,2.5,0.1,2.5-0.6c0.3-5.1-2.7-20.1-2.7-20.1s9.6,12.6,9.9,27.3c0.3,15.5-10,20.5-13.4,18c0,0-1.3-0.8-2.6-2.5
				c0,0-0.5-0.9-0.8-0.4c-0.2,0.5-0.3,9.8,4.3,11.1c4.6,1.3,6.6,0.4,9.1-2.7C266.4,71.8,267.5,60.1,265.5,45.8"/>
		</g>
		<g>
			<path class="st0" d="M193.7,27.9c0,0-6.2,2.7-3.9,13.4c1.9,9.1,3.7,6.5,3.7,6.5s0.4-0.7-0.2-2.9c-0.6-2.2-3.6-9,2.3-10.7
				c0,0,5.1-0.4,8,2.1c2.9,2.5,6.4,6.2,4.6,9.6c-1.8,3.4-2.3,2.7-2.3,2.7s-0.4-6-4-6.5c-3.6-0.5-4.8,4.7-4.9,6.3
				c-0.2,3,0.1,6.2,1.3,7.3c0,0-9,10.6-22.6,7.7c-12.3-2.6-11.7-22-11.7-22s0-13.9-2.6-13.3c-0.9,0.2-3.4,5-2.6,6.6
				c0.9,1.7,2.2,8,1.1,12c-0.8,3.2-3.4,5.5-3.4,5.5s-4.8,4.6-5.4,9c-0.6,4.4,0.1,5.9,0.8,6.7c0.6,0.8,2,2,4.7,2.3
				c3.3,0.4,3.3,2.4,3.3,2.6c0,0.4,0.2,1.9-1.9,4.2c-1.6,1.7-5.4,4.9-12.9,3c-7.1-1.8-9.5-10-8.4-16.2c1.1-6.2,7.5-16.9,8.3-18.4
				c0.7-1.5,3.4-6.5,3.3-13.5c0,0-1.1-1.1-1.5,2.3c0,0-0.2,3.6-2,7.7c-0.9,2-10,18.3-10.9,25c-0.6,4.4-1.1,15.4,8.3,19.3
				c9.4,3.9,17.4-0.2,20.4-10c2.6-8.6-0.8-11.1-2.2-12c-1.4-0.9-7.9-2-6-3.9c1.9-1.9,5.3-6.8,6.7-10.1c0,0,1,19.5,18.2,20.7
				c15.5,1.1,23.2-12.9,23.5-13.2c1.2,0.1,8.7-1.4,9.2-12.5C212.5,32.5,199.8,24.7,193.7,27.9z M201.7,52.9c-0.9,0-1.7-1.3-1.7-2.9
				c0-1.6,0.8-2.9,1.7-2.9c0.9,0,1.7,1.3,1.7,2.9C203.4,51.6,202.6,52.9,201.7,52.9z"/>
		</g>
	</g>
	<g>
		<path class="st1" d="M199.5,9.7"/>
	</g>
	<g>
		<path class="st1" d="M199.5,9.7"/>
	</g>
	<g>
		<path class="st1" d="M273.5,230.1L140,288.5c-23.4,8-46.2,14.7-67.2,19.4C93.7,375.3,198.8,391,200,391
			c1.3,0,130.8-19.4,130.8-107.4v-89C315.2,206.1,295.5,218.2,273.5,230.1z"/>
	</g>
	<g>
		<path class="st1" d="M199.5,9.7"/>
	</g>
	<g class="st4">
		<path class="st0" d="M156.1,347.7h-5.8l-0.8,2.7h-5.2l6.2-16.5h5.6l6.2,16.5h-5.3L156.1,347.7z M155.1,344.2l-1.8-5.9l-1.8,5.9
			H155.1z"/>
		<path class="st0" d="M163.9,334h5.1v12.4h8v4.1h-13.1V334z"/>
		<path class="st0" d="M197.1,347.7h-5.8l-0.8,2.7h-5.2l6.2-16.5h5.6l6.2,16.5h-5.3L197.1,347.7z M196,344.2l-1.8-5.9l-1.8,5.9H196z
			"/>
		<path class="st0" d="M204.9,334h5.1v5.8h5.6V334h5.1v16.5h-5.1v-6.7H210v6.7h-5.1V334z"/>
		<path class="st0" d="M224.1,334h5.1v12.4h8v4.1h-13.1V334z"/>
		<path class="st0" d="M236,334h5.7l3.3,5.6l3.3-5.6h5.6l-6.4,9.6v6.9h-5.1v-6.9L236,334z"/>
	</g>
	<g class="st4">
		<path class="st0" d="M180.6,354.8v16.8h-4.6v-11c-0.7,0.6-1.5,1-2.2,1.4c-0.7,0.4-1.6,0.7-2.6,1v-3.8c1.6-0.5,2.8-1.1,3.6-1.8
			c0.9-0.7,1.5-1.6,2-2.6H180.6z"/>
		<path class="st0" d="M185.8,367.9l4.6-0.6c0.1,0.6,0.3,1.1,0.6,1.4c0.3,0.3,0.6,0.4,1,0.4c0.7,0,1.3-0.4,1.7-1.1
			c0.3-0.5,0.5-1.7,0.7-3.5c-0.5,0.6-1.1,1-1.7,1.2c-0.6,0.3-1.2,0.4-2,0.4c-1.5,0-2.7-0.5-3.7-1.6c-1-1.1-1.5-2.4-1.5-4
			c0-1.1,0.3-2.1,0.8-3c0.5-0.9,1.2-1.6,2.1-2c0.9-0.5,2-0.7,3.4-0.7c1.6,0,3,0.3,4,0.8c1,0.6,1.8,1.5,2.4,2.7s0.9,2.9,0.9,4.9
			c0,3-0.6,5.2-1.9,6.5c-1.3,1.4-3,2.1-5.2,2.1c-1.3,0-2.3-0.2-3.1-0.5c-0.8-0.3-1.4-0.7-1.9-1.3C186.4,369.5,186,368.8,185.8,367.9
			z M194.2,360.5c0-0.9-0.2-1.6-0.7-2.1c-0.5-0.5-1-0.8-1.6-0.8c-0.6,0-1.1,0.2-1.5,0.7s-0.6,1.1-0.6,2.1c0,0.9,0.2,1.6,0.6,2.1
			c0.4,0.5,0.9,0.7,1.6,0.7c0.6,0,1.2-0.2,1.6-0.7C194,362.1,194.2,361.4,194.2,360.5z"/>
		<path class="st0" d="M200.9,363.3c0-3.1,0.6-5.3,1.7-6.6c1.1-1.3,2.8-1.9,5.2-1.9c1.1,0,2,0.1,2.7,0.4c0.7,0.3,1.3,0.6,1.7,1.1
			c0.5,0.4,0.8,0.9,1.1,1.4c0.3,0.5,0.5,1,0.6,1.7c0.3,1.2,0.5,2.5,0.5,3.8c0,3-0.5,5.2-1.5,6.6c-1,1.4-2.8,2.1-5.2,2.1
			c-1.4,0-2.5-0.2-3.4-0.7c-0.9-0.4-1.6-1.1-2.1-1.9c-0.4-0.6-0.7-1.4-0.9-2.5S200.9,364.5,200.9,363.3z M205.5,363.3
			c0,2.1,0.2,3.5,0.6,4.3c0.4,0.8,0.9,1.2,1.6,1.2c0.5,0,0.9-0.2,1.2-0.5c0.3-0.3,0.6-0.8,0.8-1.5c0.2-0.7,0.2-1.8,0.2-3.3
			c0-2.2-0.2-3.7-0.6-4.4c-0.4-0.8-0.9-1.1-1.7-1.1c-0.8,0-1.3,0.4-1.6,1.2C205.6,359.8,205.5,361.2,205.5,363.3z"/>
		<path class="st0" d="M216.4,355.1h13.4v3.1c-1.2,1-2.1,2.2-2.9,3.4c-0.9,1.5-1.7,3.1-2.2,5c-0.4,1.4-0.7,3.1-0.9,5h-4.6
			c0.4-2.7,0.9-5,1.7-6.8c0.8-1.8,2-3.8,3.7-5.8h-8.1V355.1z"/>
	</g>
	<g>
		<g>
			<g>
				<path class="st2" d="M331,96.9c1-0.9,1.5-2.4,1.1-3.8c-0.3-1.4-1.4-2.5-2.7-2.8c-0.3-0.1-1.9-0.5-4.5-0.5
					c-6.5-0.1-19,2.5-33.9,17c1.7-2.3,3.5-4.7,5.5-7.1c1-1.2,1.2-3,0.4-4.4c-0.8-1.4-2.3-2.2-3.8-1.9c-0.4,0.1-9,1.4-18.6,8.8
					c-2.2,1.7-4.5,3.7-6.6,6.1c0-0.1,0.1-0.1,0.1-0.2c0.7-1.4,0.6-3.1-0.4-4.3c-1-1.2-2.5-1.7-4-1.3c-0.4,0.1-6.8,2.1-13.3,8.8
					c-2.8,2.9-5.6,6.7-7.9,11.5c0.1-0.6,0.2-1.1,0.4-1.4c0.6-1.5,0.1-3.3-1.1-4.3c-1.2-1.1-2.9-1.2-4.3-0.4
					c-0.4,0.2-10.2,6.3-13.6,20.7c-0.5-0.7-1.1-1.3-2-1.6c-1.6-0.6-3.4,0.1-4.4,1.6c-0.1,0.3-7.3,11.6-8.3,26.3
					c0-0.1-0.1-0.1-0.1-0.2c-0.7-1.3-2.1-2.1-3.6-1.9c-1.5,0.1-2.7,1.2-3.2,2.6c-0.1,0.3-2.9,8.7-2.9,20.3c0,4.4,0.4,9.3,1.6,14.3
					c-19-11.2-51.9-32.5-68.1-101.8c-0.3-1.3-1.2-2.3-2.3-2.7c-1.2-0.4-2.5-0.3-3.5,0.5c-0.5,0.3-8.9,7-8.8,21.6
					c0,0.9,0,1.9,0.1,2.9c-4.6-7.5-10.1-17.6-14.3-28.3c-0.5-1.3-1.7-2.2-3-2.4c-1.4-0.2-2.7,0.4-3.5,1.6c-0.1,0.1-1.8,2.6-3.6,5.9
					c-1.8,3.4-3.7,7.5-3.8,12c0,0.1,0,0.4,0,0.8c0.2,3.6,0.8,7.9,2.6,12.5c-2.2-2.9-4.2-6-6.2-9.2c-0.7-1.1-1.9-1.9-3.3-1.8
					c-1.3,0-2.5,0.8-3.2,2c-0.2,0.4-2.8,5.2-2.9,12.6c0,4.8,1.2,10.7,4.9,16.7c2.2,3.5,5,6.9,8.1,9.9c-3.9-2.6-7.8-5.6-11.2-8.8
					c-1-0.9-2.4-1.3-3.7-0.8c-1.3,0.5-2.3,1.6-2.5,3c0,0.2-0.2,1.1-0.2,2.6c-0.2,4.4,1.5,13.6,10.3,22.3c-0.7-0.4-1.4-0.8-2.2-1.1
					c-1.3-0.7-2.9-0.6-4.1,0.4c-1.2,0.9-1.7,2.5-1.3,4c0.1,0.3,1.4,5.7,5.9,11.7c1.7,2.3,4,4.6,6.8,6.7c-1.1,0-2.1,0.5-2.8,1.3
					c-1,1.1-1.2,2.8-0.6,4.2c0.1,0.5,4.8,10.1,18,15c-0.5,0.4-1,1-1.3,1.6c-0.6,1.5-0.2,3.2,0.9,4.3c0.4,0.5,21.6,21.2,67.5,24.2
					c-4.7,2-11.3,4.1-20,5.3c-0.3-1.6-1.4-2.8-3-3.1c0,0-0.9-0.2-2.3-0.6c-4.5-1.2-14.3-4.7-18.4-10c-0.7-0.9-1.7-1.4-2.8-1.4
					c-1.1,0-2.1,0.4-2.8,1.2c-0.2,0.3-2.9,2.8-3.1,7.5c-0.1,2.4,1.2,5.2,3.6,7.1c-0.3,0-0.6,0-0.8-0.1c-2-0.2-3.8,1.4-4,3.5
					c0,0.1-0.2,1.6-0.2,3.9c0,2.9,0.2,7.1,1.6,11c0.5,1.5,2,2.6,3.5,2.6c0,0,0.1,0,0.2,0c-0.3,0.4-0.6,0.8-0.7,1.3
					c-0.4,1.3-0.2,2.7,0.6,3.7c0.3,0.2,10.3,13.4,25.6,16.5l1.2,0c0.4-0.1,12.6-2,29-13.7c-0.9,3.1-1.8,7.5-1.8,12.1
					c0,3.5,0.5,7.4,2.4,10.9c0.3,0.5,1.7,2.9,5.2,5.4c-1.1,1.3-2,3.1-2,5.4c0,0.6,0.1,1.2,0.2,1.9c0.3,1.4,1.3,2.5,2.6,2.9
					c1.3,0.4,2.7,0.1,3.6-0.8l0,0c0.2-0.2,1.6-1.2,3.1-1.2c0.3,0,0.6,0,1,0.1c0.8,0.2,1.2,0.5,1.5,0.8c-0.8,1-1.4,2.5-1.1,3.7
					c0.5,1.6,2.3,2.6,4,2.6c0,0,0,0,0,0c0.2,0,2,0,4.3-0.8c1.1-0.4,2.4-1,3.6-2.2c1.2-1.2,2.1-3.1,2.1-5.2c0-0.1,0-0.1,0-0.1v-0.1
					c-0.3-4.5-3.2-6.9-5.5-8.9c-1.5-1.2-3-2.1-4.2-2.8c0-0.8,0.1-1.9,0.5-3.1c0.3-0.9,0.9-2.5,1.9-4.6c1.4,3.8,5,5.1,8.2,5.1
					c1.5,0,2.9-0.5,3.5-1.9c0,0,0.2-0.4,0.1-0.9c0.2,0.1,0.2,0.2,0.4,0.3c0,0.5,0.2,0.7,0.5,1.4c0.6,1.6,2.4,2.2,4.1,2.1
					c0.2,0,1.5-0.1,3.1-0.9c1.5-0.6,4.1-2.6,4.1-6.1c0-0.8-0.1-1.6-0.4-2.3c-1.4-3.8-4.1-5.1-6.2-6.3c-1.4-0.7-2.6-1.1-3.3-1.4
					c-0.8-0.7-2.4-2.7-2.3-4.6c0-0.2,0-0.2,0-0.2c0.1-0.7-0.1-1.5-0.4-2.1c6.5-8.3,15.6-17.6,27.7-25.8c7.1-4.5,12.9-7.8,17.1-9.9
					c2.1-1.1,3.7-1.9,4.9-2.4c0.6-0.3,1-0.5,1.3-0.6c0.2-0.1,0.3-0.1,0.3-0.1h0c0.3,1,0.9,1.8,1.8,2.3c1.3,0.7,2.8,0.6,3.9-0.2
					c0.1-0.1,1.2-0.9,2.5-2.2c1.1-1.3,2.8-2.9,3-6.1c0-0.3,0-0.4,0-0.5h0l0-0.1c-0.2-4.2-3.2-6.9-6.1-7.7c-1.2-1-3.3-2.7-6.4-3.8
					c-3.1-1.1-8-2.4-13.5-3.3c3.1-3.8,9.2-11.8,15.6-22.9c9-15.4,21.9-38.3,60.1-64c1.1-0.7,1.8-2,1.7-3.4c-0.1-1.4-0.8-2.6-2-3.2
					c-0.4-0.2-3.3-1.7-8.1-1.7c-1.8,0-3.8,0.2-6,0.7C312.9,114.3,320.6,106.6,331,96.9"/>
			</g>
			<g>
				<path class="st3" d="M319.8,124.5c-38.7,26-52.3,49.7-61.3,65.3c-8.9,15.5-17.2,24.8-17.2,24.8h-19.8c7.2,2.5,19.3,3.3,19.3,3.3
					c7.2,0.7,14,2.4,17.6,3.7c3.6,1.3,5.8,3.8,5.8,3.8c2,0.2,4,1.7,4.1,4.2c0.1,2.6-3.9,5.5-3.9,5.5c0.1-0.8,0.1-2-0.7-2.5
					c-1-0.7-2.9-0.4-4-0.1c-0.8,0.2-10.1,4.4-24.7,13.6c-28.3,19.5-40.6,43.9-42.5,50.2c-1.3,4.1-0.4,6.9-0.4,6.9
					c1.9,0.7,9.3,4.9,9.5,9.2c0.1,4.3-6.2,4.4-6.2,4.4s0.9-0.6,1.3-1.2c0.4-0.6-0.3-4.7-4.7-5.8c-4.4-1.1-7.6,2-7.6,2
					c-0.8-4.4,3.5-5.5,3.5-5.5l-0.1-2.2c-5.3-2.8-7.1-6-7.1-6c-4.9-9.6,1.2-24.5,1.2-24.5c0.7-1.7,1.6-2.9,0.8-3.9
					c-1.1-1.4-4,0.9-4,0.9c-17.9,13.9-31.4,16-31.4,16c-13.6-2.6-23.4-15.1-23.4-15.1c14.5-3.4,22.9-8.8,22.9-8.8
					c-16.6,2.3-25.8,2.3-25.8,2.3c-2-5.7-1.2-13.2-1.2-13.2c47.1,3.7,62.8-13.4,62.8-13.4c-53.7,0.5-77.7-23.4-77.7-23.4
					c14.4,0.4,19.9-2.3,19.9-2.3l-0.9-1.9C95.7,212.4,88,195.3,88,195.3c16.3,5.1,30.8,4.3,30.8,4.3l-0.9-2.9
					c-5.2-0.9-11.1-1.9-11.1-1.9C83.6,191.7,79,172.1,79,172.1c20.6,11.2,36.2,12.5,36.2,12.5l-0.2-3.1
					c-42.9-10.5-38.6-35.9-38.6-35.9c15,14.2,37.7,22.7,37.7,22.7l0.2-3.2c0,0-20.8-11.9-29.1-25.6c-8.4-13.7-1.9-25.3-1.9-25.3
					c12.9,21.5,32.3,36.6,32.3,36.6l0.1-3.6c0,0-7.9-8.1-13.9-16.7c-6.1-8.6-7.6-15.9-7.9-22c-0.3-6.1,6.7-16.1,6.7-16.1
					c8.9,22.7,23.3,42.1,23.3,42.1c2.1-0.6,0.9-3.2,0.9-3.2c-8.2-23.9,4.6-33.4,4.6-33.4c18.2,78.7,59.1,97.7,75.8,107.7
					c12.5,8.4,8,19.6,8,19.6c9.3-13.3-7.5-24.1-7.5-24.1c-5.4-18.3,0.4-35.8,0.4-35.8c1.9,3.4,7.3,6.6,7.3,6.6
					c-2.1-17.1,7.5-32.6,7.5-32.6c-0.4,8.3,6.3,16.1,6.3,16.1c-3.9-25.9,12.3-35.6,12.3-35.6c-2.4,6.6,0.2,25.5,0.7,28.2
					c0.6,2.7,1.3,2.4,1.3,2.4c-1.6-36.7,23.4-44.3,23.4-44.3c-11.8,21.9-10.5,36.6-10.7,38.6c-0.2,2,1,2.2,1,2.2
					c6.4-44.9,38.6-49.8,38.6-49.8c-21.5,26.3-24.6,46.2-24.6,46.2C300.7,86.3,328.5,94,328.5,94c-29.3,27.2-36.9,38.5-36.9,38.5
					C309.3,118.6,319.8,124.5,319.8,124.5"/>
			</g>
		</g>
		<g>
			<path class="st3" d="M210.5,285.5c0,0,6.6,1.8,7.7,5.3c1.2,3.7-3.7,4.3-3.7,4.3c1.9-1.5-1.3-4.2-3.6-5c-2.3-0.9-4.4-0.1-5.3,1.1
				c-0.9,1.2,0.7,2.9,0.7,2.9c-2.3,0-4.3-1.1-4.8-2.9c-0.6-2.5,2.3-4.5,2.3-4.5c-0.3-5.7,2.3-9.9,2.3-9.9
				C205.8,282.2,210.5,285.5,210.5,285.5"/>
		</g>
		<g>
			<path class="st3" d="M123.1,236.1c7,8.7,22.9,11.9,22.9,11.9c-4.6,0.5-16.4,1.2-22.2-2.6C118.1,241.7,123.1,236.1,123.1,236.1"/>
		</g>
		<g>
			<path class="st2" d="M152.1,189.7c-15.7-3.4-25-12.2-25-12.2C127.6,193.7,152.1,189.7,152.1,189.7"/>
		</g>
		<g>
			<path class="st2" d="M255,227l3.9-2.1c0,0-2.5-1.4-8.1-1.8C250.8,223.1,252.9,224,255,227"/>
		</g>
		<g>
			<path class="st2" d="M151.1,182.1c-15.6-8.9-24.2-21.5-24.2-21.5C122.4,178.4,151.1,182.1,151.1,182.1"/>
		</g>
		<g>
			<path class="st2" d="M223.8,233.9l2.6,2.4l-0.9,4c5-5.2,7-6.1,7-6.1C227.1,234.4,223.8,233.9,223.8,233.9"/>
		</g>
		<g>
			<path class="st2" d="M150.7,172.4c-17.5-17.7-20.5-31.2-20.5-31.2C119.9,159.6,150.7,172.4,150.7,172.4"/>
		</g>
		<g>
			<path class="st2" d="M231.9,221.2c0,0-4.8-1.1-8.5-3.9c0,0,1.5,2.9,1.9,3.6c0,0-2,2.7-2.3,3.4C223,224.2,228,221.7,231.9,221.2"
				/>
		</g>
		<g>
			<path class="st2" d="M223,232.3c0,0,4.5-3,8.3-4.3c0,0-5.2-0.4-8.5-2.4l2.1,3.2L223,232.3"/>
		</g>
	</g>
</g>
</svg>
