<?xml version="1.0" encoding="utf-8"?>
<!-- Generator: Adobe Illustrator 23.0.3, SVG Export Plug-In . SVG Version: 6.00 Build 0)  -->
<svg version="1.1" id="Ebene_1" xmlns="http://www.w3.org/2000/svg" xmlns:xlink="http://www.w3.org/1999/xlink" x="0px" y="0px"
	 viewBox="0 0 300 300" style="enable-background:new 0 0 300 300;" xml:space="preserve">
<style type="text/css">
	.st0{clip-path:url(#SVGID_2_);fill:#FFFFFF;}
	.st1{fill:#A7A9AC;}
	.st2{fill:#377C2B;}
	.st3{fill:none;stroke:#231F20;stroke-width:0.296;}
	.st4{fill:#0067B1;}
	.st5{fill:#002D62;}
</style>
<g>
	<g>
		<defs>
			<rect id="SVGID_1_" x="37.3" y="0.1" width="225.5" height="296.7"/>
		</defs>
		<clipPath id="SVGID_2_">
			<use xlink:href="#SVGID_1_"  style="overflow:visible;"/>
		</clipPath>
		<path class="st0" d="M150.5,0.3l-4.9,2c0,0-0.7,30.4-0.8,32.1c-1,0.5-3.5,1.6-3.5,1.6s-0.4,2-0.5,3c-33.3,1-65.3,7.5-95.1,19.2
			c0,0-7.5,3-7.5,3l-0.9,0.4l0,3.1v129.6c0,46.2,87.3,94.9,112.1,104.6l1.7,0.7l1.7-0.7c28.7-11.9,112-60.8,112-104.6v-82.2V61.6
			l-8.3-3.4C226.6,46.5,194.6,40,161.3,39c-0.2-1-0.6-3-0.6-3s-2.5-1.2-3.4-1.6c0-1.7-0.8-32.1-0.8-32.1L151,0.1L150.5,0.3"/>
	</g>
</g>
<path class="st1" d="M151.9,124.7c0,0.6-0.5,1-1,1c-0.6,0-1-0.5-1-1v-2.5c0-0.6,0.5-1,1-1c0.6,0,1,0.5,1,1V124.7 M151.9,132.3
	c0,0.6-0.5,1-1,1c-0.6,0-1-0.5-1-1v-2.5c0-0.6,0.5-1,1-1c0.6,0,1,0.5,1,1V132.3z M151.9,140c0,0.6-0.5,1-1,1c-0.6,0-1-0.5-1-1v-2.5
	c0-0.6,0.5-1,1-1c0.6,0,1,0.5,1,1V140z M151.9,147.7c0,0.6-0.5,1-1,1c-0.6,0-1-0.5-1-1v-2.5c0-0.6,0.5-1,1-1c0.6,0,1,0.5,1,1V147.7z
	 M151.9,155.4c0,0.6-0.5,1-1,1c-0.6,0-1-0.5-1-1v-2.5c0-0.6,0.5-1,1-1c0.6,0,1,0.5,1,1V155.4z M151.9,163c0,0.6-0.5,1-1,1
	c-0.6,0-1-0.5-1-1v-2.5c0-0.6,0.5-1,1-1c0.6,0,1,0.5,1,1V163z M151.9,170.7c0,0.6-0.5,1-1,1c-0.6,0-1-0.5-1-1v-2.5c0-0.6,0.5-1,1-1
	c0.6,0,1,0.5,1,1V170.7z M151.9,178.4c0,0.6-0.5,1-1,1c-0.6,0-1-0.5-1-1v-2.5c0-0.6,0.5-1,1-1c0.6,0,1,0.5,1,1V178.4z M151.9,186
	c0,0.6-0.5,1-1,1c-0.6,0-1-0.5-1-1v-2.5c0-0.6,0.5-1,1-1c0.6,0,1,0.5,1,1V186z M151.9,193.7c0,0.6-0.5,1-1,1c-0.6,0-1-0.5-1-1v-2.5
	c0-0.6,0.5-1,1-1c0.6,0,1,0.5,1,1V193.7z M252.5,154.4c-6.4,16.6-15.1,28.5-25.9,35.6h17.9v3.8c0,16.2-15.7,32.4-48,49.3
	c-12.1,6.4-22.1,7.7-29,3.8c-3.6-2-7.9-6.4-8.5-16.1c-0.9-15.9-3.6-112.4-3.6-113.4l0-1.3l0.7-1c0,0,1.2-1.9,1.2-4.8
	c0-2.4,0.5-3.9,1-5.2c0.5-1.5,1.1-3,1.1-7.3V82.8h1.8v-5.1h3.1c0.1-0.4,0.7-3.7,0.8-4v-0.5c-1.9-0.3-6.1-0.9-6.1-0.9
	s-0.6-1.8-0.8-2.4c-1-0.1-3.8-0.5-3.8-0.5v-9.8h1.7c-0.4-3-1.2-9-1.2-9v-3.3c-0.2-0.1-0.5-0.3-0.5-0.3s-0.7-3.8-0.9-5.1
	c-0.8-0.4-1.5-0.7-2.3-1.1c-0.1,0-0.2,0.1-0.2,0.1s-1.2,0.6-2.1,1c-0.3,1.4-1,5.1-1,5.1s-0.2,0.1-0.4,0.3v3.3c0,0-0.8,6.1-1.3,9h1.7
	v9.8c0,0-2.8,0.4-3.8,0.5c-0.2,0.6-0.8,2.4-0.8,2.4s-4.2,0.6-6.1,0.9v0.5c0.1,0.3,0.6,3.2,0.8,4h3.1v5.1h1.8V98
	c0,4.3,0.5,5.9,1.1,7.4c0.5,1.3,1,2.8,1,5.2c0,2.8,1.2,4.7,1.2,4.7l0.7,1l0,1.3c0,1-2.7,97.6-3.6,113.4c-0.6,9.6-4.9,14-8.5,16.1
	c-6.9,3.9-16.9,2.6-29-3.8c-32.3-17-48-33.1-48-49.3v-3.8h17.9C64.7,182.9,56,171,49.6,154.4c-1.5-3.9-2.8-7.9-3.9-11.7v51.6
	c0,21.7,23.9,44.4,44,59.7c23.5,17.9,49.6,31.7,61.3,36.5c27.9-12,105.4-57.5,105.4-96.2v-51.6C255.3,146.5,254,150.5,252.5,154.4"
	/>
<path class="st2" d="M227.8,183c3.4-2.9,6.5-6.3,9.1-10c-3-0.7-6.2-1.6-9.1-2.3c-0.7-0.2-1.4-0.4-2.1-0.5c-2.8-0.7-5.2-1.4-6.9-1.8
	l-0.3-0.1c-3.9-1-8.8-1.6-13.3-1.9c-0.7-0.1-1.4-0.1-2.1-0.1c-3.7-0.2-7-0.2-9-0.2c-1.3,0-2.7-0.2-4.5-0.5l-6.2-0.8
	c-3.7-0.4-6-2.1-8.1-3.5c-0.8-0.6-1.6-1.1-2.4-1.6c-0.4-0.2-0.8-0.4-1.2-0.5c-0.3-0.1-0.6-0.2-0.9-0.2c-1.1-0.1-1.7,0.3-2.6,0.9
	c-0.7,0.5-1.5,1-2.7,1.4c-1.3,0.3-2.6-0.2-4.1-0.9c0.3,10.7,0.7,22.1,1,32.7h38.5c9.8,0,17.9-3.1,24.6-8.2
	C226.4,184.1,227.1,183.6,227.8,183"/>
<path class="st3" d="M227.8,183c3.4-2.9,6.5-6.3,9.1-10c-3-0.7-6.2-1.6-9.1-2.3c-0.7-0.2-1.4-0.4-2.1-0.5c-2.8-0.7-5.2-1.4-6.9-1.8
	l-0.3-0.1c-3.9-1-8.8-1.6-13.3-1.9c-0.7-0.1-1.4-0.1-2.1-0.1c-3.7-0.2-7-0.2-9-0.2c-1.3,0-2.7-0.2-4.5-0.5l-6.2-0.8
	c-3.7-0.4-6-2.1-8.1-3.5c-0.8-0.6-1.6-1.1-2.4-1.6c-0.4-0.2-0.8-0.4-1.2-0.5c-0.3-0.1-0.6-0.2-0.9-0.2c-1.1-0.1-1.7,0.3-2.6,0.9
	c-0.7,0.5-1.5,1-2.7,1.4c-1.3,0.3-2.6-0.2-4.1-0.9c0.3,10.7,0.7,22.1,1,32.7h38.5c9.8,0,17.9-3.1,24.6-8.2
	C226.4,184.1,227.1,183.6,227.8,183z"/>
<path class="st2" d="M140.7,155.4c-1.4,0.3-5.8,1.3-9.5,3.7c-0.7,0.4-1.4,0.9-2,1.5c0,0-0.1,0.1-0.1,0.1c-2.5,2.2-3.6,2.2-5,1.6
	c-0.4-0.2-0.7-0.3-1.2-0.3c-1.9,0-6.2,2.2-9.4,4.4c-1.2,0.8-6.4,1.8-14.7,3.1c-0.7,0.1-1.4,0.2-2.1,0.3c-5.7,0.8-12.5,1.7-20.3,2.8
	c-0.7,0.1-1.4,0.2-2.1,0.3c-1.6,0.2-3.2,0.4-4.9,0.6c0,0-1.7,0.2-3.8,0.5c2.6,3.4,5.5,6.6,8.7,9.3c0.7,0.6,1.4,1.1,2.1,1.6
	c6.7,5,14.8,8.1,24.6,8.1h38.6C139.6,190.1,140.6,157.9,140.7,155.4"/>
<path class="st3" d="M140.7,155.4c-1.4,0.3-5.8,1.3-9.5,3.7c-0.7,0.4-1.4,0.9-2,1.5c0,0-0.1,0.1-0.1,0.1c-2.5,2.2-3.6,2.2-5,1.6
	c-0.4-0.2-0.7-0.3-1.2-0.3c-1.9,0-6.2,2.2-9.4,4.4c-1.2,0.8-6.4,1.8-14.7,3.1c-0.7,0.1-1.4,0.2-2.1,0.3c-5.7,0.8-12.5,1.7-20.3,2.8
	c-0.7,0.1-1.4,0.2-2.1,0.3c-1.6,0.2-3.2,0.4-4.9,0.6c0,0-1.7,0.2-3.8,0.5c2.6,3.4,5.5,6.6,8.7,9.3c0.7,0.6,1.4,1.1,2.1,1.6
	c6.7,5,14.8,8.1,24.6,8.1h38.6C139.6,190.1,140.6,157.9,140.7,155.4z"/>
<path class="st4" d="M163.9,230.9c0.4,6,2.4,10.1,6,12.1c5.3,3,14,1.6,24.4-3.9c29.5-15.5,44.8-30.4,45.5-44.2h-77.3
	C163.1,211.5,163.6,225.7,163.9,230.9"/>
<path class="st3" d="M163.9,230.9c0.4,6,2.4,10.1,6,12.1c5.3,3,14,1.6,24.4-3.9c29.5-15.5,44.8-30.4,45.5-44.2h-77.3
	C163.1,211.5,163.6,225.7,163.9,230.9z"/>
<path class="st4" d="M66.8,195h-4.8c0.7,13.8,16,28.7,45.5,44.2c10.5,5.5,19.1,6.9,24.4,3.9c3.7-2.1,5.7-6.2,6-12.1
	c0.3-5.2,0.8-19.3,1.3-35.9L66.8,195"/>
<path class="st3" d="M66.8,195h-4.8c0.7,13.8,16,28.7,45.5,44.2c10.5,5.5,19.1,6.9,24.4,3.9c3.7-2.1,5.7-6.2,6-12.1
	c0.3-5.2,0.8-19.3,1.3-35.9L66.8,195L66.8,195z"/>
<path class="st5" d="M259.1,195.3c0,40.8-80,87.4-108.1,99.2c-23.5-9.4-108.1-56.8-108.1-99.2v-79.6c0.2,1.9,0.6,4.9,1.2,8.5
	c2.1,12.4,7.1,33,17.8,48.9c0.4,0.7,0.9,1.3,1.4,1.9c3.2,4.4,6.8,8.4,11,11.6c0.7,0.5,1.4,1,2.1,1.5c3.3,2.3,7,4.2,11,5.5H60.4v1
	c0,15.1,15.2,30.4,46.5,46.9c11.2,5.9,20.3,7.2,26.3,3.8c4.2-2.4,6.7-7.2,7.1-13.8c0.3-5.3,0.8-19.6,1.3-36.3l0.1-1.6
	c0.4-12.2,0.8-25.6,1.2-37.6c0.1-1.6,0.1-2.5,0.1-2.5h0c0.6-19.4,1-34.8,1-35.2l0-0.4l-0.2-0.3c0,0-1.7-2.5-1.7-6.3
	c0-1.9-0.4-3.1-0.8-4.3c-0.6-1.6-1.2-3.5-1.2-8.3V86.6h-1.8v-5.1h-2.6c-0.3-1.3-1.2-6.4-1.2-6.5v-1.9h-2.6v-1.4h3.3l6.2-0.9
	c0,0,0.6-1.7,0.8-2.4c0.8-0.1,3.1-0.4,3.1-0.4v-4.6h-2.1c0.3-2,1.7-11.9,1.7-11.9l0-3.9c0,0-0.8-0.3-0.8-0.3c0.5-0.3,1.5-1,1.5-1
	l0-0.1c0.1-0.7,0.8-4.5,1-5.3c0.7-0.4,3.4-1.6,3.4-1.6l0.6-0.3c0,0,0.7-30.6,0.8-31.9c0,1.3,0.8,31.9,0.8,31.9s3.2,1.5,4,1.9
	c0.1,0.3,0.3,1.4,0.4,2.4h0l0.2,1.3l0.3,1.7c0,0,1,0.6,1.5,1c0,0-0.8,0.3-0.8,0.3v3.7c0,0.1,1.2,8.9,1.7,12.1h-2.1V68
	c0,0,2.3,0.3,3.1,0.4c0.2,0.7,0.8,2.4,0.8,2.4l6.2,0.9h3.3v1.4h-2.6v0h0V75c0,0.2-1,5.2-1.2,6.5h-2.6v5.1h-1.8v7.1h0V99
	c0,4.8-0.6,6.6-1.2,8.3c-0.4,1.2-0.8,2.3-0.8,4.3c0,3.8-1.7,6.3-1.7,6.3l-0.2,0.3v0.4c0,0.4,0.5,17.7,1.1,38.8l0,0l0.1,2
	c0,0,1,31.6,1.1,34.5l0,1.6h0c0.5,16.7,1,31,1.3,36.3c0.4,6.6,2.8,11.4,7.1,13.8c6,3.4,15.1,2.1,26.3-3.8
	c31.3-16.4,46.5-31.8,46.5-46.9v-1h-27.1c4.1-1.3,7.8-3.2,11.1-5.6c0.7-0.5,1.4-1,2.1-1.6c4.3-3.4,8.1-7.5,11.3-12.1
	c0.4-0.6,0.9-1.2,1.3-1.8c10.7-16.1,15.6-36.8,17.6-49c0.6-3.3,0.9-6.1,1.1-7.9L259.1,195.3 M140.3,154.4c-1.4,0.3-5.4,1.2-9.1,3.3
	V94.2c2.2-0.1,4.5-0.3,6.7-0.4V99c0,5.1,0.7,7.3,1.3,8.9c0.4,1.1,0.7,2,0.7,3.6c0,3.9,1.4,6.5,1.9,7.2c-0.1,2.2-0.5,17.1-1,35.5
	L140.3,154.4z M76.4,171.3v-68.1c6.7-1.8,13.5-3.3,20.3-4.6v70C90.5,169.4,83.2,170.4,76.4,171.3 M139.4,196
	c-0.5,16.6-1,30.7-1.3,35.9c-0.3,6-2.4,10.1-6,12.1c-5.3,3-14,1.6-24.4-3.9c-29.5-15.5-44.8-30.4-45.5-44.2L139.4,196L139.4,196z
	 M101,193.8c-9.8,0-17.8-3.1-24.6-8.1c-0.7-0.5-1.4-1.1-2.1-1.6c-3.2-2.7-6.1-5.8-8.7-9.3c2.1-0.3,3.8-0.5,3.8-0.5
	c1.7-0.2,3.3-0.4,4.9-0.6c0.7-0.1,1.4-0.2,2.1-0.3c7.8-1,14.7-1.9,20.3-2.8c0.7-0.1,1.4-0.2,2.1-0.3c8.2-1.2,13.5-2.3,14.7-3.1
	c3.1-2.1,7.5-4.4,9.4-4.4c0.5,0,0.8,0.1,1.2,0.3c1.4,0.7,2.5,0.6,5-1.6c0,0,0.1,0,0.1-0.1c0.6-0.5,1.3-1,2-1.5
	c3.7-2.4,8.1-3.4,9.5-3.7l-1.1,37.4L101,193.8L101,193.8z M87.6,86.6l-6.5,1.9l-2.8-4.1l-15.7,4.5l-3.1,5.8l-5.8,1.6l14.9-26.8
	l5.6-1.6L87.6,86.6z M100.6,66.8l-0.4,13.6l16.5-2.2l0.1-4.6l6.1,0.2l-0.1,2.5c-0.1,4-1.7,5.3-6.7,5.9l-15.7,2
	c-4.9,0.6-6.5-0.2-6.4-4.2l0.3-11.3c0.1-4,1.7-5.3,6.7-5.9l15.7-2.1c4.9-0.6,6.5,0.2,6.4,4.2l-0.1,2l-6.1,1.6l0.1-4.1L100.6,66.8z
	 M42.9,66.3c1-0.4,4.8-2,4.8-2c29.8-11.7,61.7-18,94.9-18.9c-0.5,0.3-1.1,0.7-1.6,1.1c-0.7,0.4-1.3,0.9-1.6,1
	c-0.1,0-0.1,0.1-0.1,0.1s0,0,0.1,0c-31.8,1.2-62.3,7.4-90.9,18.6c0,0-2.5,1-3.5,1.4v41.4c0.6-0.3,1.2-0.5,1.2-0.5
	c28.8-11.3,59.6-17.7,91.7-19v2.1c-2.2,0.1-4.5,0.2-6.7,0.4c-0.7,0-1.4,0.1-2.1,0.1c-10.2,0.7-20.3,2-30.2,3.7
	c-0.7,0.1-1.4,0.2-2.1,0.4c-6.9,1.3-13.6,2.8-20.3,4.6c-0.7,0.2-1.4,0.4-2.1,0.6c-9.3,2.6-18.5,5.6-27.4,9.1c0,0-1.4,0.6-2.8,1.1
	c-0.4,0.2-0.9,0.3-1.2,0.5C42.9,112.3,42.9,66.3,42.9,66.3z M223.2,71.2l-0.3,13.2l16.8,4.3l0.1-4.5l6.2,2.6l0,2.5
	c-0.1,3.9-1.7,4.5-6.7,3.2l-16-4.1c-5-1.3-6.6-2.7-6.5-6.6l0.2-11c0.1-3.9,1.7-4.5,6.7-3.2l16,4.1c5,1.3,6.6,2.7,6.5,6.6l0,2
	l-6.2-0.8l0.1-4L223.2,71.2z M187,69.6l18.6,2.5l0,3.9L187,73.5l0.1,8.1l-6.1-0.8l-0.2-21.4l26.5,3.6l0,3.7l-20.4-2.8L187,69.6z
	 M205.3,165.2V98.5c6.9,1.3,13.7,2.9,20.4,4.7V169c-2.5-0.7-6.6-1.8-6.6-1.8C215,166.2,209.9,165.6,205.3,165.2 M161.4,158.7
	c-0.6-20.4-1.1-37.6-1.2-39.9c0.5-0.7,1.9-3.3,1.9-7.2c0-1.6,0.3-2.5,0.7-3.6c0.6-1.7,1.3-3.8,1.3-8.9v-5.1c2.2,0.1,4.5,0.2,6.7,0.4
	v63.6c-1.8-0.1-2.8,0.6-3.8,1.2c-0.6,0.4-1.2,0.8-2.1,1.1C164.2,160.3,162.6,159.5,161.4,158.7 M239.9,196
	c-0.7,13.8-16,28.7-45.5,44.2c-10.5,5.5-19.1,6.9-24.4,3.9c-3.7-2.1-5.7-6.2-6-12.1c-0.3-5.2-0.8-19.3-1.3-35.9L239.9,196L239.9,196
	z M162.5,193.8l-1-32.7c1.4,0.8,2.8,1.3,4.1,0.9c1.2-0.3,2-0.9,2.7-1.4c0.9-0.6,1.5-1,2.6-0.9c0.3,0,0.6,0.1,0.9,0.2
	c0.4,0.1,0.8,0.3,1.2,0.5c0.8,0.4,1.6,0.9,2.4,1.6c2.1,1.5,4.4,3.2,8.1,3.5l6.2,0.8c1.9,0.3,3.2,0.5,4.5,0.5c2,0,5.3,0,9,0.2
	c0.7,0,1.4,0.1,2.1,0.1c4.5,0.3,9.4,0.9,13.3,1.9l0.3,0.1c1.7,0.5,4.1,1.1,6.9,1.8c0.7,0.2,1.4,0.4,2.1,0.5c2.9,0.8,6.1,1.6,9.1,2.3
	c-2.7,3.7-5.7,7.1-9.1,10c-0.7,0.6-1.4,1.1-2.1,1.6c-6.7,5-14.9,8.2-24.6,8.2L162.5,193.8L162.5,193.8z M254.3,64.4
	c0,0,3.4,1.4,4.8,2v46l0,0c-0.3-0.1-0.7-0.3-1.1-0.4c-1.4-0.6-2.9-1.2-2.9-1.2c-8.9-3.5-18-6.5-27.3-9.1c-0.7-0.2-1.4-0.4-2.1-0.6
	c-6.7-1.8-13.5-3.3-20.4-4.6c-0.7-0.1-1.4-0.2-2.1-0.4c-9.9-1.8-20-3-30.2-3.7c-0.7,0-1.4-0.1-2.1-0.1c-2.2-0.1-4.4-0.3-6.7-0.4
	v-2.1c32,1.3,62.9,7.7,91.7,19c0,0,0.6,0.2,1.2,0.5V67.8c-1.2-0.5-3.5-1.4-3.5-1.4c-28.6-11.2-59.1-17.5-90.9-18.6
	c0.1,0,0.1,0,0.1,0s-2.1-1.3-3.3-2.1C192.7,46.4,224.6,52.7,254.3,64.4 M261.2,113.2V64.9l-6.1-2.5c-30.3-11.9-62.9-18.3-96.7-19.1
	c-0.3-1.6-0.7-3.9-0.7-3.9s-2.9-1.4-3.8-1.8c0-1.2-0.8-32-0.8-32L151,4.9L150.6,5L149,5.7c0,0-0.7,30.7-0.8,32
	c-0.8,0.4-3.8,1.8-3.8,1.8s-0.4,2.3-0.7,3.9c-33.9,0.7-66.4,7.1-96.8,19.1l-6.1,2.5l0,0.7v49.8h0l0,79.9
	c0,44.3,85.6,91.8,109.8,101.3l0.4,0.2l0.4-0.2c28.1-11.7,109.8-59.3,109.8-101.3L261.2,113.2C261.2,113.2,261.2,113.2,261.2,113.2z
	 M76.1,80.9l-5-7.7L65.2,84L76.1,80.9z"/>
</svg>
