<?xml version="1.0" encoding="utf-8"?>
<!-- Generator: Adobe Illustrator 23.0.3, SVG Export Plug-In . SVG Version: 6.00 Build 0)  -->
<svg version="1.1" id="Layer_1" xmlns="http://www.w3.org/2000/svg" xmlns:xlink="http://www.w3.org/1999/xlink" x="0px" y="0px"
	 viewBox="0 0 892 600" style="enable-background:new 0 0 892 600;" xml:space="preserve">
<style type="text/css">
	.st0{clip-path:url(#SVGID_2_);}
	.st1{fill:#00008B;}
	.st2{clip-path:url(#SVGID_4_);}
	.st3{fill:#FFFFFF;}
	.st4{clip-path:url(#SVGID_6_);}
	.st5{fill:#FF0000;}
	.st6{fill:#939598;}
</style>
<title>Austrália</title>
<g>
	<g>
		<g>
			<defs>
				<path id="SVGID_1_" d="M30.9,0H861c17.2,0,31,13.8,31,30.9V569c0,17.1-13.8,30.9-30.9,30.9H30.9C13.8,600,0,586.2,0,569.1V30.9
					C0,13.8,13.8,0,30.9,0z"/>
			</defs>
			<clipPath id="SVGID_2_">
				<use xlink:href="#SVGID_1_"  style="overflow:visible;"/>
			</clipPath>
			<g class="st0">
				<rect id="_12" x="0.4" y="0.4" class="st1" width="892" height="599.6"/>
				<g id="Layer_2_1_">
					<g id="_11">
						<g>
							<defs>
								<rect id="SVGID_3_" x="0.4" y="0.4" width="446" height="223"/>
							</defs>
							<clipPath id="SVGID_4_">
								<use xlink:href="#SVGID_3_"  style="overflow:visible;"/>
							</clipPath>
							<g class="st2">
								<path d="M0.4,0.4l446,223 M446.4,0.4l-446,223"/>
								<polygon class="st3" points="434.7,246.8 223.4,141.1 12.1,246.8 0.2,222.9 0.4,194.2 165,111.9 0,29.5 0,1.2 58.9,0.4 
									223.4,82.7 387,0.9 446.8,1.3 458.1,23.8 281.9,111.9 458.1,200 								"/>
							</g>
						</g>
					</g>
					<g>
						<g id="_10">
							<g>
								<defs>
									<path id="SVGID_5_" d="M0.4,0.4v111.5h520.3v111.5h-74.3L0.4,0.4z M446.4,0.4h-223v260.2H0.4v-37.2L446.4,0.4z"/>
								</defs>
								<clipPath id="SVGID_6_">
									<use xlink:href="#SVGID_5_"  style="overflow:visible;"/>
								</clipPath>
								<g class="st4">
									<path d="M0.4,0.4l446,223 M446.4,0.4l-446,223"/>
									<polygon class="st5" points="440.2,235.9 223.4,127.5 6.7,235.9 0.2,222.9 0.3,207.9 192.3,111.9 0.4,16 0.4,0.4 31.7,0.4 
										223.4,96.3 413.9,1 446.4,0.4 452.6,12.9 254.6,111.9 452.6,210.9 									"/>
								</g>
							</g>
						</g>
						<path id="_9" d="M223.4,0.4v260.2 M0.4,111.9h520.3"/>
						<polygon class="st3" points="258.3,260.6 188.6,260.6 188.6,146.8 0.4,146.8 0.4,77.1 188.6,77.1 188.6,0.4 258.3,0.4 
							258.3,77.1 520.8,77.1 520.8,146.8 258.3,146.8 						"/>
						<path id="_8" d="M223.4,0.4v238.7 M0.4,111.9h461.7"/>
						<polygon class="st5" points="244.3,239.1 202.5,239.1 202.5,132.8 0.4,132.8 0.4,91 202.5,91 202.5,0.4 244.3,0.4 244.3,91 
							462.1,91 462.1,132.8 244.3,132.8 						"/>
						<path id="_7" class="st1" d="M0.4,223.4h446V0.4h148.7v297.3H0.4V223.4z"/>
						<path id="_6" class="st3" d="M223.4,268l12.9,40.1l39.4-14.9l-23.3,35.1l36.2,21.5l-42,3.6l5.8,41.7l-29-30.5l-29,30.5
							l5.8-41.7l-42-3.6l36.2-21.5l-23.3-35.1l39.4,14.9L223.4,268z"/>
						<path id="_5" class="st3" d="M669.4,340.2l6.2,19.1l18.8-7.1l-11.1,16.7l17.3,10.2l-20,1.7l2.8,19.9l-13.8-14.5l-13.8,14.5
							l2.8-19.9l-20-1.7l17.3-10.2l-11.1-16.7l18.8,7.1L669.4,340.2z"/>
						<path id="_4" class="st3" d="M557.9,163.7l6.2,19.1l18.8-7.1l-11.1,16.7l17.3,10.2l-20,1.7l2.8,19.9L558,209.7l-13.8,14.5
							l2.8-19.9l-20-1.7l17.3-10.2L533,175.7l18.8,7.1L557.9,163.7z"/>
						<path id="_3" class="st3" d="M669.4,42.9l6.2,19.1l18.8-7.1l-11.1,16.7l17.3,10.2l-20,1.7l2.8,19.9l-13.8-14.5l-13.8,14.5
							l2.8-19.9l-20-1.7l17.3-10.2l-11.1-16.7l18.8,7.1L669.4,42.9z"/>
						<path id="_2" class="st3" d="M768.5,134l6.2,19.1l18.8-7.1l-11.1,16.7l17.3,10.2l-20,1.7l2.8,19.9l-14-14.5l-13.8,14.5
							l2.8-19.9l-20-1.7l17.3-10.2L743.7,146l18.8,7.1L768.5,134z"/>
						<path id="_1" class="st3" d="M714,223.4l4.9,11.9l12.8,0.9l-9.8,8.3l3.1,12.4l-10.9-6.7l-10.9,6.7l3.1-12.5l-9.8-8.3l12.8-0.9
							L714,223.4z"/>
					</g>
				</g>
				<g id="Layer_1_1_">
					<path class="st6" d="M861.1,6C874.8,6,886,17.2,886,30.9V569c0,13.8-11.2,24.9-24.9,24.9H30.9C17.2,594,6,582.8,6,569.1V30.9
						C6,17.2,17.2,6,30.9,6H861.1 M861.1,0H30.9C13.8,0,0,13.8,0,30.9l0,0V569c0,17.2,13.8,31,30.9,31H861
						c17.1,0,30.9-13.8,30.9-30.9V30.9C892,13.8,878.2,0,861.1,0z"/>
				</g>
			</g>
		</g>
	</g>
</g>
</svg>
