<svg id="Layer_2" data-name="Layer 2" xmlns="http://www.w3.org/2000/svg" xmlns:xlink="http://www.w3.org/1999/xlink" viewBox="0 0 895 600"><defs><style>.cls-1{fill:none;}.cls-2{clip-path:url(#clip-path);}.cls-3{fill:#fff;}.cls-4{fill:#002395;}.cls-5{fill:#fecb00;}.cls-6{fill:#939598;}</style><clipPath id="clip-path"><path class="cls-1" d="M34.72,0H859.28A30.82,30.82,0,0,1,890,30.93V569.07A30.82,30.82,0,0,1,859.28,600H34.72A30.82,30.82,0,0,1,4,569.07V30.93A30.82,30.82,0,0,1,34.72,0Z"/></clipPath></defs><title>Bósnia</title><g class="cls-2"><path class="cls-3" d="M0,14.33H0V583H0L390.86,293.65Z"/><rect class="cls-3" x="1" y="-0.05" width="133.04" height="598.67"/><rect class="cls-4" width="895" height="599.07"/><path class="cls-5" d="M224.52,0h590.8V599.07Z"/><g id="g"><path class="cls-3" d="M232.89,194.73l33-101.53,33,101.53L212.5,132H319.26Z"/><polyline class="cls-3" points="151.69 0 143.41 6.55 151.17 47.03 118.18 23.06 85.19 47.03 93.12 6.55 84.79 0"/></g><path class="cls-3" d="M454.44,416.28l33-101.53,33,101.53-86.37-62.75H540.81Z"/><polygon class="cls-3" points="339.71 166.93 352.32 205.92 393.11 205.95 360.11 229.88 372.72 268.7 340.06 244.82 306.74 268.7 319.35 229.9 286.35 205.95 327.15 205.88 339.71 166.93"/><polygon class="cls-3" points="413.56 240.78 426.17 279.77 466.96 279.8 433.96 303.74 446.57 342.55 413.91 318.67 380.59 342.55 393.2 303.75 360.2 279.8 401 279.73 413.56 240.78"/><path class="cls-3" d="M602.14,564l33-101.53,33,101.53-86.37-62.75H688.51Z"/><polyline class="cls-3" points="689.83 599.95 655.6 575.08 696.38 575.08 708.98 536.3 721.58 575.08 762.36 575.08 729.66 599.95"/><polygon class="cls-3" points="564.37 388.48 576.98 427.47 617.77 427.5 584.77 451.44 597.38 490.25 564.72 466.37 531.4 490.25 544.01 451.45 511.01 427.5 551.81 427.43 564.37 388.48"/></g><g id="Layer_1" data-name="Layer 1"><path class="cls-6" d="M863.1,6A25,25,0,0,1,888,30.9V569a24.9,24.9,0,0,1-24.9,24.9H32.9A24.82,24.82,0,0,1,8,569.1V30.9A25,25,0,0,1,32.9,6H863.1m0-6H32.9A30.86,30.86,0,0,0,2,30.9H2V569a30.88,30.88,0,0,0,30.9,31H863a30.86,30.86,0,0,0,30.9-30.9V30.9A30.71,30.71,0,0,0,863.1,0Z"/></g><polygon class="cls-3" points="191.9 19.12 204.51 58.11 245.3 58.13 212.3 82.07 224.91 120.88 192.25 97 158.93 120.88 171.53 82.09 138.54 58.13 179.34 58.06 191.9 19.12"/></svg>