<svg id="Layer_2" data-name="Layer 2" xmlns="http://www.w3.org/2000/svg" xmlns:xlink="http://www.w3.org/1999/xlink" viewBox="0 0 895 600"><defs><style>.cls-1{fill:none;}.cls-2{clip-path:url(#clip-path);}.cls-3{fill:#003893;}.cls-4{fill:#fff;}.cls-5{fill:#cf2027;}.cls-6{fill:#f7d116;}.cls-7{fill:#939598;}</style><clipPath id="clip-path"><path class="cls-1" d="M34.72,0H859.28A30.82,30.82,0,0,1,890,30.93V569.07A30.82,30.82,0,0,1,859.28,600H34.72A30.82,30.82,0,0,1,4,569.07V30.93A30.82,30.82,0,0,1,34.72,0Z"/></clipPath></defs><title>Cabo Verde</title><g class="cls-2"><rect class="cls-3" x="1.91" y="1.3" width="893.09" height="598.48"/><rect class="cls-4" x="1.91" y="300.55" width="891.99" height="149.62"/><rect class="cls-5" x="1.91" y="350.42" width="893.09" height="49.87"/><g id="s2"><g id="s"><g id="c"><path id="t" class="cls-6" d="M383.45,195.81l-9.25,28.46,14.23,4.62"/><path class="cls-6" d="M383.45,195.81l9.24,28.46-14.23,4.62"/></g><path class="cls-6" d="M411.91,216.49H382v15"/><path class="cls-6" d="M411.91,216.49,387.7,234.08,378.9,222"/><path class="cls-6" d="M401,249.94l-9.24-28.46-14.23,4.63"/><path class="cls-6" d="M401,249.94l-24.2-17.58,8.79-12.11"/><path class="cls-6" d="M365.86,249.94l24.21-17.58-8.8-12.11"/><path class="cls-6" d="M365.86,249.94l9.24-28.46,14.23,4.63"/><path class="cls-6" d="M355,216.49l24.21,17.59L388,222"/><path class="cls-6" d="M355,216.49h29.92v15"/></g><path class="cls-6" d="M383.45,495.05l-9.25,28.46,14.23,4.63"/><path class="cls-6" d="M383.45,495.05l9.24,28.46-14.23,4.63"/><path class="cls-6" d="M411.91,515.73H382v15"/><path class="cls-6" d="M411.91,515.73,387.7,533.32l-8.8-12.11"/><path class="cls-6" d="M401,549.19l-9.24-28.46-14.23,4.62"/><path class="cls-6" d="M401,549.19l-24.2-17.59,8.79-12.11"/><path class="cls-6" d="M365.86,549.19l24.21-17.59-8.8-12.11"/><path class="cls-6" d="M365.86,549.19l9.24-28.46,14.23,4.62"/><path class="cls-6" d="M355,515.73l24.21,17.59L388,521.21"/><path class="cls-6" d="M355,515.73h29.92v15"/></g><path class="cls-6" d="M554.2,319.87H524.28v15"/><path class="cls-6" d="M554.2,319.87,530,337.46l-8.79-12.1"/><path class="cls-6" d="M543.33,353.33l-9.24-28.46-14.23,4.62"/><path class="cls-6" d="M543.33,353.33l-24.21-17.59,8.8-12.1"/><path class="cls-6" d="M508.15,353.33l24.21-17.59-8.79-12.1"/><path class="cls-6" d="M508.15,353.33l9.25-28.46,14.23,4.62"/><path class="cls-6" d="M497.28,319.87l24.21,17.59,8.8-12.1"/><path class="cls-6" d="M497.28,319.87h29.93v15"/><path class="cls-6" d="M525.74,299.2l-9.24,28.46,14.23,4.62"/><path class="cls-6" d="M525.74,299.2,535,327.66l-14.23,4.62"/><path class="cls-6" d="M269.61,412.34H239.68v15"/><path class="cls-6" d="M269.61,412.34,245.4,429.93l-8.8-12.1"/><path class="cls-6" d="M258.74,445.8l-9.25-28.46L235.26,422"/><path class="cls-6" d="M258.74,445.8l-24.21-17.59,8.79-12.1"/><path class="cls-6" d="M223.56,445.8l24.21-17.59-8.8-12.1"/><path class="cls-6" d="M223.56,445.8l9.25-28.46L247,422"/><path class="cls-6" d="M212.69,412.34l24.21,17.59,8.79-12.1"/><path class="cls-6" d="M212.69,412.34h29.92v15"/><path class="cls-6" d="M241.15,391.67l-9.25,28.46,14.23,4.62"/><path class="cls-6" d="M241.15,391.67l9.25,28.46-14.23,4.62"/><path class="cls-6" d="M489,520.61l-9.25-28.46-14.23,4.62"/><path class="cls-6" d="M489,520.61,464.77,503l8.79-12.1"/><path class="cls-6" d="M453.8,520.61,478,503l-8.79-12.1"/><path class="cls-6" d="M453.8,520.61l9.25-28.46,14.23,4.62"/><path class="cls-6" d="M442.93,487.15l24.21,17.59,8.79-12.1"/><path class="cls-6" d="M442.93,487.15h29.93v15"/><path class="cls-6" d="M471.39,466.48l-9.25,28.46,14.23,4.62"/><path class="cls-6" d="M471.39,466.48l9.25,28.46-14.23,4.62"/><path class="cls-6" d="M499.85,487.15H469.93v15"/><path class="cls-6" d="M499.85,487.15l-24.21,17.59-8.79-12.1"/><path class="cls-6" d="M313.09,278.52l-9.25-28.46-14.23,4.62"/><path class="cls-6" d="M313.09,278.52l-24.21-17.59,8.8-12.1"/><path class="cls-6" d="M277.91,278.52l24.21-17.59-8.79-12.1"/><path class="cls-6" d="M277.91,278.52l9.25-28.46,14.23,4.62"/><path class="cls-6" d="M267,245.06l24.21,17.59,8.79-12.1"/><path class="cls-6" d="M267,245.06H297v15"/><path class="cls-6" d="M295.5,224.39l-9.25,28.46,14.23,4.62"/><path class="cls-6" d="M295.5,224.39l9.25,28.46-14.23,4.62"/><path class="cls-6" d="M324,245.06H294v15"/><path class="cls-6" d="M324,245.06l-24.21,17.59L291,250.55"/><path class="cls-6" d="M277.91,520.61,302.12,503l-8.79-12.1"/><path class="cls-6" d="M277.91,520.61l9.25-28.46,14.23,4.62"/><path class="cls-6" d="M267,487.15l24.21,17.59,8.79-12.1"/><path class="cls-6" d="M267,487.15H297v15"/><path class="cls-6" d="M295.5,466.48l-9.25,28.46,14.23,4.62"/><path class="cls-6" d="M295.5,466.48l9.25,28.46-14.23,4.62"/><path class="cls-6" d="M324,487.15H294v15"/><path class="cls-6" d="M324,487.15l-24.21,17.59L291,492.64"/><path class="cls-6" d="M313.09,520.61l-9.25-28.46-14.23,4.62"/><path class="cls-6" d="M313.09,520.61,288.88,503l8.8-12.1"/><path class="cls-6" d="M453.8,278.52,478,260.93l-8.79-12.1"/><path class="cls-6" d="M453.8,278.52l9.25-28.46,14.23,4.62"/><path class="cls-6" d="M442.93,245.06l24.21,17.59,8.79-12.1"/><path class="cls-6" d="M442.93,245.06h29.93v15"/><path class="cls-6" d="M471.39,224.39l-9.25,28.46,14.23,4.62"/><path class="cls-6" d="M471.39,224.39l9.25,28.46-14.23,4.62"/><path class="cls-6" d="M499.85,245.06H469.93v15"/><path class="cls-6" d="M499.85,245.06l-24.21,17.59-8.79-12.1"/><path class="cls-6" d="M489,278.52l-9.25-28.46-14.23,4.62"/><path class="cls-6" d="M489,278.52l-24.21-17.59,8.79-12.1"/><path class="cls-6" d="M212.69,319.87l24.21,17.59,8.79-12.1"/><path class="cls-6" d="M212.69,319.87h29.92v15"/><path class="cls-6" d="M241.15,299.2l-9.25,28.46,14.23,4.62"/><path class="cls-6" d="M241.15,299.2l9.25,28.46-14.23,4.62"/><path class="cls-6" d="M269.61,319.87H239.68v15"/><path class="cls-6" d="M269.61,319.87,245.4,337.46l-8.8-12.1"/><path class="cls-6" d="M258.74,353.33l-9.25-28.46-14.23,4.62"/><path class="cls-6" d="M258.74,353.33l-24.21-17.59,8.79-12.1"/><path class="cls-6" d="M223.56,353.33l24.21-17.59-8.8-12.1"/><path class="cls-6" d="M223.56,353.33l9.25-28.46L247,329.49"/><path class="cls-6" d="M497.28,412.34l24.21,17.59,8.8-12.1"/><path class="cls-6" d="M497.28,412.34h29.93v15"/><path class="cls-6" d="M525.74,391.67l-9.24,28.46,14.23,4.62"/><path class="cls-6" d="M525.74,391.67,535,420.13l-14.23,4.62"/><path class="cls-6" d="M554.2,412.34H524.28v15"/><path class="cls-6" d="M554.2,412.34,530,429.93l-8.79-12.1"/><path class="cls-6" d="M543.33,445.8l-9.24-28.46L519.86,422"/><path class="cls-6" d="M543.33,445.8l-24.21-17.59,8.8-12.1"/><path class="cls-6" d="M508.15,445.8l24.21-17.59-8.79-12.1"/><path class="cls-6" d="M508.15,445.8l9.25-28.46L531.63,422"/></g><g id="Layer_1" data-name="Layer 1"><path class="cls-7" d="M863.1,6A25,25,0,0,1,888,30.9V569a24.9,24.9,0,0,1-24.9,24.9H32.9A24.82,24.82,0,0,1,8,569.1V30.9A25,25,0,0,1,32.9,6H863.1m0-6H32.9A30.86,30.86,0,0,0,2,30.9H2V569a30.88,30.88,0,0,0,30.9,31H863a30.86,30.86,0,0,0,30.9-30.9V30.9A30.71,30.71,0,0,0,863.1,0Z"/></g></svg>