<svg xmlns="http://www.w3.org/2000/svg" xmlns:xlink="http://www.w3.org/1999/xlink" viewBox="0 0 892 600"><defs><style>.cls-1{fill:none;}.cls-2{clip-path:url(#clip-path);}.cls-3{fill:#d00;}.cls-4{fill:#fff;}.cls-5{fill:#939598;}</style><clipPath id="clip-path"><path class="cls-1" d="M861.1,6A25,25,0,0,1,886,30.9V569a24.9,24.9,0,0,1-24.9,24.9H30.9A24.82,24.82,0,0,1,6,569.1V30.9A25,25,0,0,1,30.9,6H861.1"/></clipPath></defs><title>Canadá</title><g id="Layer_2" data-name="Layer 2"><g class="cls-2"><rect id="_3" data-name="3" class="cls-3" width="892" height="600"/><rect id="_2" data-name="2" class="cls-4" x="223" width="446" height="600"/><path id="_1" data-name="1" class="cls-3" d="M446,118.81l-30.43,56.76c-3.45,6.17-9.64,5.59-15.82,2.15l-22-11.41,16.42,87.17c3.45,15.93-7.63,15.93-13.1,9l-38.44-43-6.24,21.86a7.46,7.46,0,0,1-8.63,5.17L279.1,236.28l12.77,46.43c2.73,10.33,4.86,14.61-2.76,17.33l-17.33,8.14,83.69,68a11,11,0,0,1,3.81,11.39l-7.33,24c28.82-3.32,54.64-8.32,83.47-11.39,2.54-.28,6.8,3.92,6.78,6.87l-3.81,88.07h14l-2.21-87.88c0-2.95,3.85-7.34,6.39-7.06,28.83,3.07,54.65,8.07,83.47,11.39l-7.33-24a11,11,0,0,1,3.81-11.39l83.69-68L602.89,300c-7.63-2.72-5.49-7-2.76-17.33l12.77-46.43-48.62,10.23a7.46,7.46,0,0,1-8.63-5.17l-6.24-21.86-38.45,43c-5.46,6.89-16.54,6.89-13.09-9l16.42-87.17-22,11.41c-6.19,3.44-12.37,4-15.82-2.15"/></g></g><g id="Layer_1" data-name="Layer 1"><g id="Layer_1-2" data-name="Layer 1"><path class="cls-5" d="M861.1,6A25,25,0,0,1,886,30.9V569a24.9,24.9,0,0,1-24.9,24.9H30.9A24.82,24.82,0,0,1,6,569.1V30.9A25,25,0,0,1,30.9,6H861.1m0-6H30.9A30.86,30.86,0,0,0,0,30.9H0V569a30.88,30.88,0,0,0,30.9,31H861a30.86,30.86,0,0,0,30.9-30.9V30.9A30.71,30.71,0,0,0,861.1,0Z"/></g></g></svg>