<svg id="Layer_1" data-name="Layer 1" xmlns="http://www.w3.org/2000/svg" viewBox="0 0 500 500"><defs><style>.cls-1{fill:#ed1c24;}.cls-2{fill:#fff;}</style></defs><title>Capivariano</title><path class="cls-1" d="M112.08,13.5c97.77,58.44,194.77,50.85,292.7.17,18.39,26.53,37.14,53.59,55.78,80.47-6,4.77-11.88,8.89-17.09,13.76-16.84,15.76-20.91,33.21-11.84,54.47,4.29,10.06,10,19.58,15.85,28.88,17.69,28.27,31,58.27,36.9,91.27,3.9,21.75,4.41,43.52-.85,65.14-8.07,33.14-28.7,55-59.73,68.42-28.14,12.15-57.48,20-87.15,26.87-19.82,4.62-39,11-54.31,25-7.43,6.78-13.63,14.92-20.45,22.51.3.22-.06.07-.22-.19-16.62-27.45-43.78-38.39-72.72-46.14-21.69-5.81-43.74-10.28-65.36-16.31-19.92-5.55-37.89-15.52-54.26-28.15-22.67-17.48-33.49-41.53-36.16-69.4-4.32-45,9.34-85.67,30.62-124.38,8.35-15.19,17.38-30.06,22.23-46.91,6.17-21.45.27-39.48-15.7-54.51-3.87-3.64-8-7-12.32-10.67ZM46.83,266,361.23,41.94c-85.31,29-167.86,27.27-247.08-19.71L66.84,92.44c1.23,1.09,2,1.76,2.72,2.41,26.06,22.48,32,45.68,18.65,77.37C82.85,184.93,76,197,69.36,209.17,59.61,227.08,51.4,245.57,46.83,266ZM394.4,137.47c-2.1,1.41-3.47,2.27-4.77,3.21-10.52,7.63-21,15.4-31.6,22.86-3,2.08-3.88,4.37-3.88,7.88q.14,127.28.08,254.56c0,1.76.16,3.52.29,6.23,12-3.48,23.27-6.94,34.64-9.92,4.33-1.14,5.64-3.13,5.64-7.6q-.21-135.55-.12-271.1C394.68,141.83,394.52,140.07,394.4,137.47Zm-74.29,53.81c-1.27.66-1.85.87-2.35,1.22-11.84,8.36-23.76,16.63-35.42,25.25-1.59,1.17-2.59,4.16-2.59,6.31q-.19,115.5-.1,231c0,1.67.19,3.35.23,3.93,11.8-5.68,23.15-11.55,34.86-16.53,4-1.71,5.49-3.23,5.48-7.67Q320,316,320.11,197.28Zm109-16.91V405.23a4,4,0,0,0,1.25,0c1.21-.55,2.4-1.15,3.57-1.77,25-13.12,38.53-34.64,44.14-61.6,6.2-29.77,1.54-58.7-7.45-87.24C461.49,225.79,445.72,200.49,429.06,174.37ZM245,461.28V244.08c-1.88,1.16-3.28,1.93-4.59,2.84-6.85,4.74-13.7,9.48-20.51,14.28-5,3.54-12,6.17-14.44,11-2.59,5.08-1,12.36-1,18.68q0,72.87-.09,145.74c0,3.71,1.1,5.28,4.62,6.86,11.34,5.11,22.36,10.93,33.5,16.48C243.18,460.34,243.86,460.7,245,461.28ZM169.75,295.91c-12.86,8.88-24.94,17.1-36.83,25.61-1.23.88-1.76,3.45-1.77,5.24-.14,14.53-.08,29.06-.08,43.59,0,16.21-.06,32.41.09,48.61,0,1.68.94,4.55,2,4.84,12,3.29,24.08,6.17,36.6,9.28ZM387,102.19c-6-.76-8.31.76-8.19,6.31a24.43,24.43,0,0,1-7.65,18.44c-3.82,3.72-8.46,5.91-13.64,3.73-4.88-2.06-5.24-6.92-5.2-11.56.13-12.53.44-25.06.39-37.58,0-5.79,2.64-9.58,7.56-11.84,2.84-1.3,6-1.87,9-2.84,4.88-1.59,8.4.28,11.19,4.22,1.15,1.63,2.36,3.2,4.35,5.88V42.9c-1.71,1.12-3.47,1.62-4,2.73-3.82,7.76-11.23,7.48-18.12,8.5a41.35,41.35,0,0,0-5.33,1.29c-14.76,4.26-23.55,14-24.39,29.39-1,18.16-.77,36.39-1,54.59a60.47,60.47,0,0,0,.33,10c1.67,10.64,8.49,14.29,17.48,8.51a268.93,268.93,0,0,0,28.46-21.11,24,24,0,0,0,7.46-12.56C387.14,117.17,386.66,109.7,387,102.19ZM153.7,265.84c0,2.11.12,3.62,0,5.11-.78,7.86-3,15.13-9.57,20.18-3.56,2.73-7.59,4.49-12.07,2.34s-5-6.24-5-10.62c.08-12.52.09-25.05.17-37.58,0-7.46,2.86-11.18,10.43-14,9.21-3.44,12.06-2.85,17.56,3.57,1,1.22,2.19,2.37,4.13,4.47V205.37c-2.34,1.91-4.79,2.92-5.47,4.65-2.24,5.69-7.15,5.48-11.74,6.19-.82.13-1.66.14-2.49.27-20.61,3.28-31.71,14.17-32.48,33.71-.79,19.85-.67,39.75-.35,59.62.21,13.07,8.41,17.09,19.45,9.9,7.25-4.73,14-10.21,21.23-15,15-10,14.72-24.7,13.21-40.4Zm100-53.36-2.37-.67c0-7.35-.13-14.69-.06-22,0-.58,1-1.31,1.72-1.69,2.59-1.44,5.23-3.77,7.89-3.83s5.39,2.19,7.41,3.11V158.71l-16.49,15.87-1.82-1c0-7.3-.05-14.59.06-21.88a3.75,3.75,0,0,1,1.35-2.48c5.56-4.52,11.14-9,16.83-13.38,2.75-2.11,5.25-1.58,7.19,1.4.6.93,1.34,1.78,1.76,2.34,5-.53,6.36-3.18,6-7.62-.44-5.32-.2-10.68-.3-16,0-2.35-.22-4.7-.38-8.09-19.1,14.17-37.15,27.56-55.16,41a3.66,3.66,0,0,0-1.4,2.42c-.15,4-.06,7.91-.06,12.49,2.3-1,4.14-1.62,5.88-2.47,3.52-1.72,5-.38,5,3.24.1,17.86.21,35.73.24,53.6a13.27,13.27,0,0,1-5.94,11.52,4.66,4.66,0,0,0-2,2.6c-.55,4.24-.81,8.52-1.19,13a7.07,7.07,0,0,0,1.83-.47q16.72-11.85,33.39-23.78a4.24,4.24,0,0,0,1.83-2.69c0-4.39-.32-8.79-.55-13.78ZM96.53,409.32V346.4l-41.3,28.52C65.5,390.81,80.31,400.18,96.53,409.32ZM290,200.38c.13-3.57-2.93-7-6.47-6.86-3.78.16-6.22,2.22-6.65,6.12a6.36,6.36,0,0,0,6.16,7A6.5,6.5,0,0,0,290,200.38ZM182.86,276.87a6.78,6.78,0,0,0-7-6.35,6.37,6.37,0,0,0-6.12,7.05c.36,3.94,2.73,6,6.57,6.1A6.7,6.7,0,0,0,182.86,276.87ZM409.58,115.78a6.46,6.46,0,0,0-6.51-6.72c-4,0-6.16,2.26-6.58,6.08a6.58,6.58,0,0,0,6.19,7.08A6.75,6.75,0,0,0,409.58,115.78Z"/><path class="cls-2" d="M46.83,266c4.57-20.45,12.78-38.94,22.53-56.85C76,197,82.85,184.93,88.21,172.22c13.34-31.69,7.41-54.89-18.65-77.37-.75-.65-1.49-1.32-2.72-2.41l47.31-70.21c79.22,47,161.77,48.7,247.08,19.71ZM159.26,157.54a47.09,47.09,0,0,0-.36-94.18,47.09,47.09,0,0,0,.36,94.18Z"/><path class="cls-2" d="M394.4,137.47c.12,2.6.28,4.36.28,6.12q0,135.55.12,271.1c0,4.47-1.31,6.46-5.64,7.6-11.37,3-22.62,6.44-34.64,9.92-.13-2.71-.29-4.47-.29-6.23q0-127.28-.08-254.56c0-3.51.91-5.8,3.88-7.88,10.64-7.46,21.08-15.23,31.6-22.86C390.93,139.74,392.3,138.88,394.4,137.47Z"/><path class="cls-2" d="M320.11,191.28v6q0,118.75.11,237.51c0,4.44-1.45,6-5.48,7.67-11.71,5-23.06,10.85-34.86,16.53,0-.58-.23-2.26-.23-3.93q0-115.5.1-231c0-2.15,1-5.14,2.59-6.31,11.66-8.62,23.58-16.89,35.42-25.25C318.26,192.15,318.84,191.94,320.11,191.28Z"/><path class="cls-2" d="M429.06,174.37c16.66,26.12,32.43,51.42,41.51,80.23,9,28.54,13.65,57.47,7.45,87.24-5.61,27-19.13,48.48-44.14,61.6-1.17.62-2.36,1.22-3.57,1.77a4,4,0,0,1-1.25,0Z"/><path class="cls-2" d="M245,461.28c-1.14-.58-1.82-.94-2.51-1.28-11.14-5.55-22.16-11.37-33.5-16.48-3.52-1.58-4.63-3.15-4.62-6.86q.16-72.87.09-145.74c0-6.32-1.59-13.6,1-18.68,2.49-4.87,9.42-7.5,14.44-11,6.81-4.8,13.66-9.54,20.51-14.28,1.31-.91,2.71-1.68,4.59-2.84Z"/><path class="cls-2" d="M169.75,295.91V433.08c-12.52-3.11-24.61-6-36.6-9.28-1.05-.29-2-3.16-2-4.84-.15-16.2-.09-32.4-.09-48.61,0-14.53-.06-29.06.08-43.59,0-1.79.54-4.36,1.77-5.24C144.81,313,156.89,304.79,169.75,295.91Z"/><path class="cls-2" d="M387,102.19c-.36,7.51.12,15-1.35,22a24,24,0,0,1-7.46,12.56,268.93,268.93,0,0,1-28.46,21.11c-9,5.78-15.81,2.13-17.48-8.51a60.47,60.47,0,0,1-.33-10c.26-18.2,0-36.43,1-54.59.84-15.4,9.63-25.13,24.39-29.39a41.35,41.35,0,0,1,5.33-1.29c6.89-1,14.3-.74,18.12-8.5.55-1.11,2.31-1.61,4-2.73V77c-2-2.68-3.2-4.25-4.35-5.88-2.79-3.94-6.31-5.81-11.19-4.22-3,1-6.16,1.54-9,2.84-4.92,2.26-7.59,6-7.56,11.84,0,12.52-.26,25-.39,37.58,0,4.64.32,9.5,5.2,11.56,5.18,2.18,9.82,0,13.64-3.73a24.43,24.43,0,0,0,7.65-18.44C378.71,103,381.05,101.43,387,102.19Z"/><path class="cls-2" d="M153.7,265.84l7-1.52c1.51,15.7,1.79,30.45-13.21,40.4-7.21,4.78-14,10.26-21.23,15-11,7.19-19.24,3.17-19.45-9.9-.32-19.87-.44-39.77.35-59.62.77-19.54,11.87-30.43,32.48-33.71.83-.13,1.67-.14,2.49-.27,4.59-.71,9.5-.5,11.74-6.19.68-1.73,3.13-2.74,5.47-4.65v33.92c-1.94-2.1-3.08-3.25-4.13-4.47-5.5-6.42-8.35-7-17.56-3.57-7.57,2.84-10.38,6.56-10.43,14-.08,12.53-.09,25.06-.17,37.58,0,4.38.61,8.5,5,10.62s8.51.39,12.07-2.34c6.59-5.05,8.79-12.32,9.57-20.18C153.82,269.46,153.7,268,153.7,265.84Z"/><path class="cls-2" d="M253.74,212.48l10.65-7.88c.23,5,.55,9.39.55,13.78a4.24,4.24,0,0,1-1.83,2.69q-16.65,12-33.39,23.78a7.07,7.07,0,0,1-1.83.47c.38-4.53.64-8.81,1.19-13a4.66,4.66,0,0,1,2-2.6A13.27,13.27,0,0,0,237,218.15c0-17.87-.14-35.74-.24-53.6,0-3.62-1.48-5-5-3.24-1.74.85-3.58,1.51-5.88,2.47,0-4.58-.09-8.54.06-12.49a3.66,3.66,0,0,1,1.4-2.42c18-13.44,36.06-26.83,55.16-41,.16,3.39.34,5.74.38,8.09.1,5.35-.14,10.71.3,16,.37,4.44-1,7.09-6,7.62-.42-.56-1.16-1.41-1.76-2.34-1.94-3-4.44-3.51-7.19-1.4-5.69,4.36-11.27,8.86-16.83,13.38a3.75,3.75,0,0,0-1.35,2.48C250,159,250,166.31,250,173.61l1.82,1,16.49-15.87v28.65c-2-.92-4.74-3.17-7.41-3.11s-5.3,2.39-7.89,3.83c-.7.38-1.72,1.11-1.72,1.69-.07,7.35,0,14.69.06,22Z"/><path class="cls-2" d="M96.53,409.32c-16.22-9.14-31-18.51-41.3-34.4l41.3-28.52Z"/><path class="cls-2" d="M290,200.38a6.5,6.5,0,0,1-7,6.28,6.36,6.36,0,0,1-6.16-7c.43-3.9,2.87-6,6.65-6.12C287.11,193.37,290.17,196.81,290,200.38Z"/><path class="cls-2" d="M182.86,276.87a6.7,6.7,0,0,1-6.55,6.8c-3.84-.11-6.21-2.16-6.57-6.1a6.37,6.37,0,0,1,6.12-7.05A6.78,6.78,0,0,1,182.86,276.87Z"/><path class="cls-2" d="M409.58,115.78a6.75,6.75,0,0,1-6.9,6.44,6.58,6.58,0,0,1-6.19-7.08c.42-3.82,2.62-6,6.58-6.08A6.46,6.46,0,0,1,409.58,115.78Z"/><path class="cls-1" d="M159.26,157.54A47.09,47.09,0,1,1,206,110.35,46.88,46.88,0,0,1,159.26,157.54Zm20-83.33v45.9h20.23C204.09,102,195.46,82.38,179.26,74.21Zm-19.48-5.69v51.69h13.57c0-16,0-31.52-.1-47A3.73,3.73,0,0,0,171,70.47C167.39,69.6,163.66,69.15,159.78,68.52Zm-38.7,57.85c3.76,13.45,21,26.17,33.2,25v-25Zm33-19.3H117.19c.16,3.07.43,5.52.37,8-.12,4.81,1.7,6.74,6.83,6.34,7.11-.55,14.28-.22,21.43-.33,2.73,0,5.47-.25,8.23-.38ZM154,85.81c-7.72,0-15,0-22.27,0-7.52,0-13.6,7.65-12.16,15.24H154Zm6.2,40.24v12.52c7.71,0,15,0,22.31,0,8.91-.05,12.6-3.18,14.67-12.51Zm-6.38-57a40.54,40.54,0,0,0-23.4,11.24h23.4Zm6.4,75.23v8.14a40.14,40.14,0,0,0,23.33-8.14Z"/><path class="cls-2" d="M179.26,74.21c16.2,8.17,24.83,27.82,20.23,45.9H179.26Z"/><path class="cls-2" d="M159.78,68.52c3.88.63,7.61,1.08,11.24,2a3.73,3.73,0,0,1,2.23,2.72c.14,15.5.1,31,.1,47H159.78Z"/><path class="cls-2" d="M121.08,126.37h33.2v25C142.08,152.54,124.84,139.82,121.08,126.37Z"/><path class="cls-2" d="M154.05,107.07v13.59c-2.76.13-5.5.34-8.23.38-7.15.11-14.32-.22-21.43.33-5.13.4-7-1.53-6.83-6.34.06-2.44-.21-4.89-.37-8Z"/><path class="cls-2" d="M154,85.81V101H119.56c-1.44-7.59,4.64-15.28,12.16-15.24C139,85.84,146.27,85.81,154,85.81Z"/><path class="cls-2" d="M160.19,126.05h37c-2.07,9.33-5.76,12.46-14.67,12.51-7.3,0-14.6,0-22.31,0Z"/><path class="cls-2" d="M153.81,69V80.27h-23.4A40.54,40.54,0,0,1,153.81,69Z"/><path class="cls-2" d="M160.21,144.26h23.33a40.14,40.14,0,0,1-23.33,8.14Z"/></svg>