<?xml version="1.0" encoding="utf-8"?>
<!-- Generator: Adobe Illustrator 23.0.3, SVG Export Plug-In . SVG Version: 6.00 Build 0)  -->
<svg version="1.1" id="Layer_1" xmlns="http://www.w3.org/2000/svg" xmlns:xlink="http://www.w3.org/1999/xlink" x="0px" y="0px"
	 viewBox="0 0 892 600" style="enable-background:new 0 0 892 600;" xml:space="preserve">
<style type="text/css">
	.st0{clip-path:url(#SVGID_2_);}
	.st1{fill:#FFFFFF;}
	.st2{fill:#C60C30;}
	.st3{fill:#003478;}
	.st4{fill:#939598;}
</style>
<title>Coreia do Sul</title>
<g>
	<g>
		<defs>
			<path id="SVGID_1_" d="M30.9,0h830.1C878.2,0,892,13.8,892,30.9v538.1c0,17.1-13.8,30.9-30.9,30.9H30.9C13.8,600,0,586.2,0,569.1
				V30.9C0,13.8,13.8,0,30.9,0z"/>
		</defs>
		<clipPath id="SVGID_2_">
			<use xlink:href="#SVGID_1_"  style="overflow:visible;"/>
		</clipPath>
		<g class="st0">
			<rect x="0" class="st1" width="892" height="600"/>
			<g id="b2">
				<path id="b" d="M144.4,189.1l83.2-124.8 M175.6,209.9l83.2-124.8 M206.8,230.7L290,105.8"/>
				<path d="M217.6,237.9L196,223.4l83.2-124.8l21.6,14.4L217.6,237.9z M186.4,217.1l-21.6-14.4L248,77.8l21.6,14.4L186.4,217.1z
					 M155.2,196.3l-21.6-14.4L216.8,57l21.6,14.5L155.2,196.3z"/>
				<path id="b-2" d="M602,494.1l83.2-124.8 M633.2,515l83.2-124.8 M664.4,535.8L747.6,411"/>
				<path d="M675.2,543l-21.6-14.5l83.2-124.8l21.6,14.4L675.2,543z M644,522.2l-21.6-14.4l83.2-124.8l21.6,14.4L644,522.2z
					 M612.8,501.4l-21.6-14.4l83.2-124.8l21.6,14.4L612.8,501.4z"/>
			</g>
			<path d="M622.8,417.9l104,69.3"/>
			
				<rect x="668.8" y="390" transform="matrix(0.5547 -0.8321 0.8321 0.5547 -76.0476 762.9984)" class="st1" width="12" height="125"/>
			<circle class="st2" cx="446" cy="300" r="150"/>
			<path class="st3" d="M321.2,216.8c-23,34.5-13.7,81,20.8,104s81,13.7,104-20.8s69.5-43.8,104-20.8c34.5,23,43.8,69.5,20.8,104
				c-46,68.9-139.1,87.6-208,41.6S275.2,285.7,321.2,216.8z"/>
			<g id="b2-2">
				<path id="b-3" d="M227.6,535.8l-83.2-124.8 M258.8,515l-83.2-124.9 M290,494.1l-83.2-124.8"/>
				<path d="M216.8,543l-83.2-124.8l21.6-14.4l83.2,124.8L216.8,543z M248,522.2l-83.2-124.8l21.6-14.4l83.2,124.8L248,522.2z
					 M279.2,501.4L196,376.5l21.6-14.4l83.2,124.8L279.2,501.4z"/>
				<path id="b-4" d="M685.2,230.7L602,105.8 M716.4,209.9L633.2,85.1 M747.6,189.1L664.4,64.3"/>
				<path d="M674.4,237.9l-83.2-124.8l21.6-14.4L696,223.4L674.4,237.9z M705.6,217.1L622.4,92.3L644,77.8l83.2,124.8L705.6,217.1z
					 M736.8,196.3L653.6,71.5L675.2,57l83.2,124.8L736.8,196.3z"/>
			</g>
			<path d="M201.6,462.9l31.2-20.8 M622.8,182.1l36.4-24.3 M690.4,137.1l31.2-20.8"/>
			<path class="st1" d="M204.9,467.9l-6.6-10l31.2-20.8l6.7,10L204.9,467.9z M626.1,187.1l-6.7-10l36.4-24.3l6.7,10L626.1,187.1z
				 M693.7,142l-6.7-10l31.2-20.8l6.7,10L693.7,142z"/>
		</g>
	</g>
</g>
<g>
	<path class="st4" d="M861.1,6C874.8,6,886,17.2,886,30.9v538.1c0,13.8-11.2,24.9-24.9,24.9H30.9C17.2,594,6,582.8,6,569.1V30.9
		C6,17.2,17.2,6,30.9,6H861.1 M861.1,0H30.9C13.8,0,0,13.8,0,30.9c0,0,0,0,0,0v538.1C0,586.2,13.8,600,30.9,600h830.1
		c17.1,0,30.9-13.8,30.9-30.9V30.9C892,13.8,878.2,0,861.1,0z"/>
</g>
</svg>
