<svg id="Layer_2" data-name="Layer 2" xmlns="http://www.w3.org/2000/svg" xmlns:xlink="http://www.w3.org/1999/xlink" viewBox="0 0 892 600"><defs><style>.cls-1{fill:none;}.cls-2{clip-path:url(#clip-path);}.cls-3{fill:#002b7f;}.cls-4{fill:#f9e814;}.cls-5{fill:#fff;}.cls-6{fill:#939598;}</style><clipPath id="clip-path"><rect class="cls-1" width="892" height="600" rx="30.93"/></clipPath></defs><title>Curação</title><g class="cls-2"><rect class="cls-3" x="-1.43" y="-0.96" width="894.87" height="601.91"/><path class="cls-4" d="M-1.43,375.24H893.43v75.24H-1.43Z"/><g id="s"><g id="f"><g id="t"><path id="o" class="cls-5" d="M195.2,132.8l-20.66,63.61,31.8,10.33Z"/><path class="cls-5" d="M195.2,132.8l20.67,63.61-31.8,10.33Z"/></g><path class="cls-5" d="M258.81,179H191.93v33.44Z"/><path class="cls-5" d="M258.81,179,204.7,218.32l-19.65-27Z"/></g><path class="cls-5" d="M131.6,179l54.1,39.31,19.66-27Z"/><path class="cls-5" d="M131.6,179h66.88v33.44Z"/><path class="cls-5" d="M234.51,253.79l-20.66-63.61L182,200.52Z"/><path class="cls-5" d="M234.51,253.79l-54.1-39.31,19.65-27.06Z"/><path class="cls-5" d="M155.89,253.79,210,214.48l-19.66-27.06Z"/><path class="cls-5" d="M155.89,253.79l20.67-63.61,31.8,10.34Z"/></g><path class="cls-5" d="M94.88,49.2,79.38,96.91l23.86,7.75Z"/><path class="cls-5" d="M94.88,49.2l15.5,47.71-23.85,7.75Z"/><path class="cls-5" d="M142.59,83.86H92.43v25.08Z"/><path class="cls-5" d="M142.59,83.86,102,113.35,87.27,93.06Z"/><path class="cls-5" d="M47.18,83.86l40.58,29.49L102.5,93.06Z"/><path class="cls-5" d="M47.18,83.86H97.34v25.08Z"/><path class="cls-5" d="M124.37,139.94l-15.5-47.7L85,100Z"/><path class="cls-5" d="M124.37,139.94,83.79,110.46,98.53,90.17Z"/><path class="cls-5" d="M65.4,139.94,106,110.46,91.24,90.17Z"/><path class="cls-5" d="M65.4,139.94l15.5-47.7L104.75,100Z"/></g><g id="Layer_1" data-name="Layer 1"><path class="cls-6" d="M861.1,6A25,25,0,0,1,886,30.9V569a24.9,24.9,0,0,1-24.9,24.9H30.9A24.82,24.82,0,0,1,6,569.1V30.9A25,25,0,0,1,30.9,6H861.1m0-6H30.9A30.86,30.86,0,0,0,0,30.9H0V569a30.88,30.88,0,0,0,30.9,31H861a30.86,30.86,0,0,0,30.9-30.9V30.9A30.71,30.71,0,0,0,861.1,0Z"/></g></svg>