<svg xmlns="http://www.w3.org/2000/svg" xmlns:xlink="http://www.w3.org/1999/xlink" viewBox="0 0 892 600"><defs><style>.cls-1{fill:none;}.cls-2{clip-path:url(#clip-path);}.cls-3{fill:#005cb9;}.cls-4{fill:#fefefe;}.cls-5{fill:#939598;}</style><clipPath id="clip-path"><path class="cls-1" d="M861.1,6A25,25,0,0,1,886,30.9V569a24.9,24.9,0,0,1-24.9,24.9H30.9A24.82,24.82,0,0,1,6,569.1V30.9A25,25,0,0,1,30.9,6H861.1"/></clipPath></defs><title>Escócia</title><g id="Layer_2" data-name="Layer 2"><g class="cls-2"><rect class="cls-3" x="-3.31" width="898.62" height="600"/><polygon class="cls-4" points="98.56 0 444.62 231.5 791.36 0 895.31 0 895.31 66.12 547.84 299.7 895.31 531.79 895.31 600 793.37 600 444.28 367.9 95.87 600 -3.31 600 -3.31 530.11 341.81 299.7 -3.31 69.28 -3.31 0 98.56 0"/></g></g><g id="Layer_1" data-name="Layer 1"><g id="Layer_1-2" data-name="Layer 1"><path class="cls-5" d="M861.1,6A25,25,0,0,1,886,30.9V569a24.9,24.9,0,0,1-24.9,24.9H30.9A24.82,24.82,0,0,1,6,569.1V30.9A25,25,0,0,1,30.9,6H861.1m0-6H30.9A30.86,30.86,0,0,0,0,30.9H0V569a30.88,30.88,0,0,0,30.9,31H861a30.86,30.86,0,0,0,30.9-30.9V30.9A30.71,30.71,0,0,0,861.1,0Z"/></g></g></svg>