<?xml version="1.0" encoding="utf-8"?>
<!-- Generator: Adobe Illustrator 23.0.3, SVG Export Plug-In . SVG Version: 6.00 Build 0)  -->
<svg version="1.1" id="Layer_1" xmlns="http://www.w3.org/2000/svg" xmlns:xlink="http://www.w3.org/1999/xlink" x="0px" y="0px"
	 viewBox="0 0 892 600" style="enable-background:new 0 0 892 600;" xml:space="preserve">
<style type="text/css">
	.st0{clip-path:url(#SVGID_2_);}
	.st1{fill:#FFFFFF;}
	.st2{fill:#DD0000;}
	.st3{fill:#002395;}
	.st4{fill:#939598;}
</style>
<title>Estados Unidos</title>
<g>
	<g>
		<g>
			<defs>
				<path id="SVGID_1_" d="M861.1,6c13.7,0.1,24.8,11.2,24.9,24.9V569c0,13.8-11.1,24.9-24.9,24.9l0,0H30.9
					c-13.7,0-24.9-11-24.9-24.7c0,0,0,0,0-0.1V30.9C6.1,17.2,17.2,6.1,30.9,6H861.1"/>
			</defs>
			<clipPath id="SVGID_2_">
				<use xlink:href="#SVGID_1_"  style="overflow:visible;"/>
			</clipPath>
			<g class="st0">
				<rect id="_59" class="st1" width="891.9" height="600"/>
				<rect id="_58" class="st2" width="893.5" height="40"/>
				<rect id="_57" y="79.9" class="st2" width="892" height="40"/>
				<rect id="_56" y="159.8" class="st2" width="892" height="40"/>
				<rect id="_55" y="239.8" class="st2" width="891.9" height="40"/>
				<rect id="_54" y="319.7" class="st2" width="892" height="40"/>
				<rect id="_53" y="399.6" class="st2" width="892" height="40"/>
				<rect id="_52" y="479.5" class="st2" width="892" height="40"/>
				<rect id="_52-2" y="559.4" class="st2" width="907.5" height="40"/>
				<rect id="_52-3" y="559.4" class="st2" width="892" height="40"/>
				<rect id="_51" class="st3" width="394.8" height="279.7"/>
				<polygon id="_50" class="st1" points="18.5,22.7 28,29.5 24.4,40.6 33.8,33.8 43.2,40.6 39.6,29.5 49,22.7 37.4,22.7 33.8,11.6 
					30.2,22.7 				"/>
				<polygon id="_49" class="st1" points="84,22.7 93.4,29.5 89.8,40.6 99.2,33.8 108.6,40.6 105,29.5 114.4,22.7 102.8,22.7 
					99.2,11.6 95.6,22.7 				"/>
				<polygon id="_48" class="st1" points="149.4,22.7 158.9,29.5 155.3,40.6 164.7,33.8 174.1,40.6 170.5,29.5 179.9,22.7 
					168.3,22.7 164.7,11.6 161.1,22.7 				"/>
				<polygon id="_47" class="st1" points="214.9,22.7 224.3,29.5 220.7,40.6 230.1,33.8 239.5,40.6 235.9,29.5 245.3,22.7 
					233.7,22.7 230.1,11.6 226.5,22.7 				"/>
				<polygon id="_46" class="st1" points="280.4,22.7 289.8,29.5 286.2,40.6 295.6,33.8 305,40.6 301.4,29.5 310.8,22.7 299.2,22.7 
					295.6,11.6 292,22.7 				"/>
				<polygon id="_45" class="st1" points="345.8,22.7 355.2,29.5 351.6,40.6 361,33.8 370.4,40.6 366.8,29.5 376.3,22.7 364.6,22.7 
					361,11.6 357.4,22.7 				"/>
				<polygon id="_44" class="st1" points="51.3,50.8 60.7,57.6 57.1,68.7 66.5,61.8 75.9,68.7 72.3,57.6 81.7,50.8 70.1,50.8 
					66.5,39.7 62.9,50.8 				"/>
				<polygon id="_43" class="st1" points="116.7,50.8 126.1,57.6 122.5,68.7 131.9,61.8 141.4,68.7 137.8,57.6 147.2,50.8 
					135.5,50.8 131.9,39.7 128.4,50.8 				"/>
				<polygon id="_42" class="st1" points="182.2,50.8 191.6,57.6 188,68.7 197.4,61.8 206.8,68.7 203.2,57.6 212.6,50.8 201,50.8 
					197.4,39.7 193.8,50.8 				"/>
				<polygon id="_41" class="st1" points="247.6,50.8 257,57.6 253.4,68.7 262.9,61.8 272.3,68.7 268.7,57.6 278.1,50.8 266.4,50.8 
					262.9,39.7 259.3,50.8 				"/>
				<polygon id="_40" class="st1" points="313.1,50.8 322.5,57.6 318.9,68.7 328.3,61.8 337.7,68.7 334.1,57.6 343.5,50.8 
					331.9,50.8 328.3,39.7 324.7,50.8 				"/>
				<polygon id="_39" class="st1" points="18.5,78.8 28,85.6 24.4,96.7 33.8,89.9 43.2,96.7 39.6,85.6 49,78.8 37.4,78.8 33.8,67.8 
					30.2,78.8 				"/>
				<polygon id="_38" class="st1" points="84,78.8 93.4,85.6 89.8,96.7 99.2,89.9 108.6,96.7 105,85.6 114.4,78.8 102.8,78.8 
					99.2,67.8 95.6,78.8 				"/>
				<polygon id="_37" class="st1" points="149.4,78.8 158.9,85.6 155.3,96.7 164.7,89.9 174.1,96.7 170.5,85.6 179.9,78.8 
					168.3,78.8 164.7,67.8 161.1,78.8 				"/>
				<polygon id="_36" class="st1" points="214.9,78.8 224.3,85.6 220.7,96.7 230.1,89.9 239.5,96.7 235.9,85.6 245.3,78.8 
					233.7,78.8 230.1,67.8 226.5,78.8 				"/>
				<polygon id="_35" class="st1" points="280.4,78.8 289.8,85.6 286.2,96.7 295.6,89.9 305,96.7 301.4,85.6 310.8,78.8 299.2,78.8 
					295.6,67.8 292,78.8 				"/>
				<polygon id="_34" class="st1" points="345.8,78.8 355.2,85.6 351.6,96.7 361,89.9 370.4,96.7 366.8,85.6 376.3,78.8 364.6,78.8 
					361,67.8 357.4,78.8 				"/>
				<polygon id="_33" class="st1" points="52.1,106.9 61.5,113.8 57.9,124.8 67.3,118 76.7,124.8 73.1,113.8 82.5,106.9 70.9,106.9 
					67.3,95.9 63.7,106.9 				"/>
				<polygon id="_32" class="st1" points="117.5,106.9 126.9,113.8 123.3,124.8 132.8,118 142.2,124.8 138.6,113.8 148,106.9 
					136.3,106.9 132.8,95.9 129.2,106.9 				"/>
				<polygon id="_31" class="st1" points="183,106.9 192.4,113.8 188.8,124.8 198.2,118 207.6,124.8 204,113.8 213.4,106.9 
					201.8,106.9 198.2,95.9 194.6,106.9 				"/>
				<polygon id="_30" class="st1" points="248.4,106.9 257.9,113.8 254.3,124.8 263.7,118 273.1,124.8 269.5,113.8 278.9,106.9 
					267.3,106.9 263.7,95.9 260.1,106.9 				"/>
				<polygon id="_29" class="st1" points="313.9,106.9 323.3,113.8 319.7,124.8 329.1,118 338.5,124.8 334.9,113.8 344.3,106.9 
					332.7,106.9 329.1,95.9 325.5,106.9 				"/>
				<polygon id="_28" class="st1" points="19.5,134.8 29,141.6 25.4,152.7 34.8,145.8 44.2,152.7 40.6,141.6 50,134.8 38.3,134.8 
					34.8,123.7 31.2,134.8 				"/>
				<polygon id="_27" class="st1" points="85,134.8 94.4,141.6 90.8,152.7 100.2,145.8 109.6,152.7 106,141.6 115.4,134.8 
					103.8,134.8 100.2,123.7 96.6,134.8 				"/>
				<polygon id="_26" class="st1" points="150.4,134.8 159.9,141.6 156.3,152.7 165.7,145.8 175.1,152.7 171.5,141.6 180.9,134.8 
					169.3,134.8 165.7,123.7 162.1,134.8 				"/>
				<polygon id="_25" class="st1" points="215.9,134.8 225.3,141.6 221.7,152.7 231.1,145.8 240.5,152.7 236.9,141.6 246.3,134.8 
					234.7,134.8 231.1,123.7 227.5,134.8 				"/>
				<polygon id="_24" class="st1" points="281.4,134.8 290.8,141.6 287.2,152.7 296.6,145.8 306,152.7 302.4,141.6 311.8,134.8 
					300.2,134.8 296.6,123.7 293,134.8 				"/>
				<polygon id="_23" class="st1" points="346.8,134.8 356.2,141.6 352.6,152.7 362,145.8 371.4,152.7 367.8,141.6 377.2,134.8 
					365.6,134.8 362,123.7 358.4,134.8 				"/>
				<polygon id="_22" class="st1" points="20.2,190 29.6,196.8 26,207.9 35.4,201 44.8,207.9 41.2,196.8 50.6,190 39,190 
					35.4,178.9 31.8,190 				"/>
				<polygon id="_21" class="st1" points="85.6,190 95,196.8 91.4,207.9 100.8,201 110.2,207.9 106.6,196.8 116,190 104.4,190 
					100.8,178.9 97.2,190 				"/>
				<polygon id="_20" class="st1" points="151.1,190 160.5,196.8 156.9,207.9 166.3,201 175.7,207.9 172.1,196.8 181.5,190 
					169.9,190 166.3,178.9 162.7,190 				"/>
				<polygon id="_19" class="st1" points="216.5,190 225.9,196.8 222.3,207.9 231.7,201 241.1,207.9 237.5,196.8 246.9,190 
					235.3,190 231.7,178.9 228.1,190 				"/>
				<polygon id="_18" class="st1" points="282,190 291.4,196.8 287.8,207.9 297.2,201 306.6,207.9 303,196.8 312.4,190 300.8,190 
					297.2,178.9 293.6,190 				"/>
				<polygon id="_17" class="st1" points="347.4,190 356.8,196.8 353.2,207.9 362.6,201 372,207.9 368.5,196.8 377.9,190 366.2,190 
					362.6,178.9 359,190 				"/>
				<polygon id="_16" class="st1" points="19.4,245.9 28.8,252.7 25.2,263.7 34.6,256.9 44,263.7 40.4,252.7 49.8,245.9 38.2,245.9 
					34.6,234.8 31,245.9 				"/>
				<polygon id="_15" class="st1" points="84.8,245.9 94.2,252.7 90.6,263.7 100,256.9 109.4,263.7 105.8,252.7 115.2,245.9 
					103.6,245.9 100,234.8 96.4,245.9 				"/>
				<polygon id="_14" class="st1" points="150.3,245.9 159.7,252.7 156.1,263.7 165.5,256.9 174.9,263.7 171.3,252.7 180.7,245.9 
					169.1,245.9 165.5,234.8 161.9,245.9 				"/>
				<polygon id="_13" class="st1" points="215.7,245.9 225.1,252.7 221.5,263.7 230.9,256.9 240.3,263.7 236.7,252.7 246.1,245.9 
					234.5,245.9 230.9,234.8 227.3,245.9 				"/>
				<polygon id="_12" class="st1" points="281.2,245.9 290.6,252.7 287,263.7 296.4,256.9 305.8,263.7 302.2,252.7 311.6,245.9 
					300,245.9 296.4,234.8 292.8,245.9 				"/>
				<polygon id="_11" class="st1" points="346.6,245.9 356,252.7 352.4,263.7 361.8,256.9 371.2,263.7 367.6,252.7 377,245.9 
					365.4,245.9 361.8,234.8 358.2,245.9 				"/>
				<polygon id="_10" class="st1" points="52.3,162.1 61.7,168.9 58.1,180 67.5,173.2 76.9,180 73.3,168.9 82.7,162.1 71.1,162.1 
					67.5,151 63.9,162.1 				"/>
				<polygon id="_9" class="st1" points="117.7,162.1 127.1,168.9 123.5,180 132.9,173.2 142.4,180 138.8,168.9 148.2,162.1 
					136.5,162.1 132.9,151 129.4,162.1 				"/>
				<polygon id="_8" class="st1" points="183.2,162.1 192.6,168.9 189,180 198.4,173.2 207.8,180 204.2,168.9 213.6,162.1 
					202,162.1 198.4,151 194.8,162.1 				"/>
				<polygon id="_7" class="st1" points="248.6,162.1 258,168.9 254.4,180 263.9,173.2 273.3,180 269.7,168.9 279.1,162.1 
					267.4,162.1 263.9,151 260.3,162.1 				"/>
				<polygon id="_6" class="st1" points="314.1,162.1 323.5,168.9 319.9,180 329.3,173.2 338.7,180 335.1,168.9 344.5,162.1 
					332.9,162.1 329.3,151 325.7,162.1 				"/>
				<polygon id="_5" class="st1" points="52.1,217.9 61.5,224.7 57.9,235.8 67.3,228.9 76.7,235.8 73.1,224.7 82.5,217.9 
					70.9,217.9 67.3,206.8 63.7,217.9 				"/>
				<polygon id="_4" class="st1" points="117.5,217.9 126.9,224.7 123.3,235.8 132.8,228.9 142.2,235.8 138.6,224.7 148,217.9 
					136.3,217.9 132.8,206.8 129.2,217.9 				"/>
				<polygon id="_3" class="st1" points="183,217.9 192.4,224.7 188.8,235.8 198.2,228.9 207.6,235.8 204,224.7 213.4,217.9 
					201.8,217.9 198.2,206.8 194.6,217.9 				"/>
				<polygon id="_2" class="st1" points="248.4,217.9 257.9,224.7 254.3,235.8 263.7,228.9 273.1,235.8 269.5,224.7 278.9,217.9 
					267.3,217.9 263.7,206.8 260.1,217.9 				"/>
				<polygon id="_1" class="st1" points="313.9,217.9 323.3,224.7 319.7,235.8 329.1,228.9 338.5,235.8 334.9,224.7 344.3,217.9 
					332.7,217.9 329.1,206.8 325.5,217.9 				"/>
			</g>
		</g>
	</g>
</g>
<g>
	<g id="Layer_1-2">
		<path class="st4" d="M861.1,6c13.7,0.1,24.8,11.2,24.9,24.9V569c0,13.8-11.1,24.9-24.9,24.9l0,0H30.9c-13.7,0-24.9-11-24.9-24.7
			c0,0,0,0,0-0.1V30.9C6.1,17.2,17.2,6.1,30.9,6H861.1 M861.1,0H30.9C13.9,0,0,13.8,0,30.8v0.1l0,0V569c-0.1,17.1,13.7,30.9,30.8,31
			h0.1H861c17,0,30.9-13.8,30.9-30.8v-0.1V30.9c0.1-17-13.6-30.8-30.5-30.9C861.3,0,861.2,0,861.1,0z"/>
	</g>
</g>
</svg>
