<svg id="Layer_2" data-name="Layer 2" xmlns="http://www.w3.org/2000/svg" xmlns:xlink="http://www.w3.org/1999/xlink" viewBox="0 0 892 600"><defs><style>.cls-1{fill:none;}.cls-2{clip-path:url(#clip-path);}.cls-3{fill:#d21034;}.cls-4{fill:#00209f;}.cls-5{fill:#fff;}.cls-6{fill:#016a16;}.cls-11,.cls-7{fill:#f1b517;}.cls-8{fill:#0a328c;}.cls-9{fill:#d20014;}.cls-10{fill:#503200;}.cls-11{fill-rule:evenodd;}.cls-12{fill:#939598;}</style><clipPath id="clip-path"><rect class="cls-1" width="892" height="600" rx="30.93"/></clipPath></defs><title>Haiti</title><g class="cls-2"><path class="cls-3" d="M0,0H892V600H0Z"/><path class="cls-4" d="M0,0H892V300H0Z"/><path class="cls-5" d="M351.17,222.41H540.83V377.59H351.17Z"/><path class="cls-6" d="M484.09,335.68l-38.62,1.13-38.46.43s-19.75,7.31-27.83,8.95-7,4.28-13.24,5.67c-5,1.12-5.56,1.47-8.49,1.66-1.77.12-4,1.48-6.09,3V377.4H540.64V357.53a37,37,0,0,0-6-2.57,64.81,64.81,0,0,0-9.64-3.1c-6.23-1.39-5.19-4-13.24-5.67s-27.66-10.5-27.66-10.5Z"/><path class="cls-6" d="M540.83,377.59H351.17V356.41l.08-.05c2.13-1.5,4.35-2.9,6.19-3a24.17,24.17,0,0,0,5.05-.86c.87-.21,1.95-.47,3.41-.8a13.62,13.62,0,0,0,5.54-2.48,17.73,17.73,0,0,1,7.7-3.19c8-1.62,27.61-8.87,27.81-8.94H407l38.45-.44,38.67-1.12,0,0c.19.09,19.65,8.87,27.62,10.49a17.84,17.84,0,0,1,7.71,3.19,13.57,13.57,0,0,0,5.53,2.48,46.41,46.41,0,0,1,7.45,2.29c.74.28,1.44.55,2.21.82a37.68,37.68,0,0,1,6,2.57l.1.06Zm-189.29-.37H540.46V357.63a38.28,38.28,0,0,0-5.89-2.5c-.78-.27-1.48-.53-2.22-.82A46.19,46.19,0,0,0,525,352a14,14,0,0,1-5.66-2.54,17.41,17.41,0,0,0-7.57-3.13c-7.84-1.59-26.68-10.06-27.66-10.5L445.47,337l-38.42.44c-.88.32-20,7.34-27.83,8.94a17.47,17.47,0,0,0-7.58,3.13A14,14,0,0,1,366,352c-1.45.33-2.54.59-3.41.8a25.19,25.19,0,0,1-5.11.87c-1.73.11-3.86,1.45-5.92,2.89Z"/><g id="a"><path class="cls-7" d="M435.06,289.18l2.79-.07,5.11,21.5-1.09,6.77Z"/><path d="M441.78,317.4l-6.84-28.31,3-.07,0,.07,5.12,21.52v0L442,317.4Zm-6.61-28.13,6.68,27.65,1-6.31-5.09-21.41Z"/><path class="cls-5" d="M432.13,274.84,434,291.41l2-.13Z"/><path d="M434,291.51v-.09L432,274.86l.18,0,4,16.54Zm-1.57-15.18,1.73,15,1.85-.12Z"/><path class="cls-7" d="M437.44,311.33l-8.58-23.07,3.2-.2,10,28.2Z"/><path d="M442,316.32l-4.65-5-8.63-23.19,3.39-.21,0,.07,10,28.2Zm-4.49-5,4.33,4.6L432,288.15l-3,.19Z"/><path class="cls-5" d="M424.84,275.11l3.54,16h2.86Z"/><path d="M431.38,291.24h-3.07l0-.07-3.54-16,.17-.06Zm-2.92-.19h2.65l-5.94-14.87Z"/><path class="cls-7" d="M429.81,303.25l-5-10.85,2.18-.46,9.2,18Z"/><path d="M436.08,310l-6.35-6.73-5.09-10.95.11,0,2.25-.48,0,.06,9.2,18Zm-6.19-6.82,5.89,6.24L426.9,292l-2,.42Z"/><path class="cls-5" d="M418.16,279.71,423.75,295h2.86Z"/><path d="M426.76,295.05h-3.08l0-.06-5.59-15.25.17-.07Zm-2.95-.18h2.64l-7.8-14.08Z"/><path class="cls-8" d="M430.5,304.88l-22.87-25c-7.15,5.66-5.82,16-5.82,16l25.91,20.33Z"/><path d="M427.78,316.45l-.11-.09L401.72,296v0c0-.11-1.25-10.51,5.85-16.13l.07,0,.05.06,22.91,25v0ZM401.9,295.91l25.77,20.22,2.73-11.22L407.62,280C400.88,285.44,401.82,295.22,401.9,295.91Z"/><path class="cls-9" d="M443.72,318.62l-17-17.18c-7.18.25-1.49,11-1.12,12.3l18.08,15.47Z"/><path d="M443.81,329.41l-.15-.13-18.11-15.49v0c-.05-.18-.22-.58-.42-1.07-1-2.39-3.09-7.37-1.48-9.88a3.57,3.57,0,0,1,3.1-1.47h0l0,0,17,17.22Zm-18.09-15.72L443.63,329V318.66l-16.91-17.13a3.37,3.37,0,0,0-2.92,1.38c-1.55,2.43.5,7.34,1.49,9.71C425.5,313.12,425.66,313.48,425.72,313.69Z"/><path class="cls-7" d="M442.28,315.67,407.2,278.11l-1.37,1L443,320.32Zm-37.11-40-.77-.89.08-1.79-7.24-4.6,3.23,7.28,2.47.44.77.9Z"/><path d="M443.09,320.6l-.21-.22-37.19-41.32,1.52-1.07.06.05,35.09,37.59v0ZM406,279.09,442.82,320l-.63-4.32-35-37.48Zm-2.27-1.92-.81-.94-2.48-.45-3.38-7.6,7.54,4.79-.08,1.8.81.93-.07.06Zm-3.16-1.55,2.45.44.73.84,1.32-1.21-.73-.85.07-1.77-6.93-4.41Z"/><path class="cls-7" d="M401.48,278.37a16.8,16.8,0,0,1,5.31-4.38l2,2.9-4.31,3.64Z"/><path d="M404.48,280.64l-.05,0-3.09-2.21.07-.08a16.8,16.8,0,0,1,5.34-4.4l.07,0,2.09,3Zm-2.87-2.28,2.87,2.05,4.19-3.54-1.91-2.76A16.49,16.49,0,0,0,401.61,278.36Z"/><path class="cls-8" d="M397.62,284.71l1.18,2.05c.73-.27,8.06-6.91,8.06-6.91l5.26-.16,1.52-1.68c-3.87-4.16-7.51.59-7.51.59Z"/><path class="cls-8" d="M398.76,286.87l0-.06-1.22-2.13.07,0,8.5-6.1a6.09,6.09,0,0,1,4-2.32A4.57,4.57,0,0,1,413.7,278l.06.06-1.59,1.77h0l-5.23.16c-.55.49-7.35,6.64-8.07,6.91Zm-1-2.13,1.09,1.9c.82-.46,5.52-4.64,8-6.86l0,0,5.26-.16,1.43-1.59a4.44,4.44,0,0,0-3.41-1.61,6.15,6.15,0,0,0-3.9,2.26v0Z"/><path class="cls-9" d="M401.82,288.17c.28-1.84,3.75-6.43,4.26-6.59,2.6.78,5,2.28,7.67-3.68-2.3,2.92-6.94,0-6.94,0l-2,1.68.06.81L398.74,286Z"/><path class="cls-9" d="M401.89,288.33l-.12-.09L398.6,286l.08-.08,6.07-5.64-.05-.82,2.1-1.74.06,0s4.6,2.9,6.82.08l.15.09c-2.42,5.47-4.67,4.74-7.05,4l-.7-.23c-.52.28-3.89,4.72-4.17,6.51Zm-3-2.33,2.87,2c.42-1.9,3.73-6.34,4.29-6.52h.05l.73.23c2.23.73,4.33,1.42,6.6-3.33-2.27,2.07-6.1-.12-6.62-.43l-1.93,1.6.06.81,0,0Z"/><path class="cls-8" d="M420.5,311.5l-28.73-22.82c-4.92,5-.83,20.46-.83,20.46L419,324.35Z"/><path d="M419.1,324.5l-.12-.07L390.86,309.2v0c0-.15-4-15.56.85-20.55l.06-.06.07.05,28.77,22.86ZM391,309.08,419,324.21l1.46-12.67L391.78,288.8C387.16,293.65,390.8,308.22,391,309.08Z"/><path class="cls-9" d="M444.33,330,420.7,311.05c-8.08,1.14-1.73,13-1.25,14.32l25,13.54Z"/><path d="M444.5,339.07l-.13-.08-25-13.55,0,0c0-.12-.15-.36-.3-.69-1-2.26-3.74-8.27-1.91-11.59a4.46,4.46,0,0,1,3.53-2.16h0l0,0,23.67,19V330Zm-25-13.76,24.8,13.45-.08-8.73-23.57-18.88a4.23,4.23,0,0,0-3.36,2.06c-1.79,3.24.9,9.18,1.92,11.42C419.37,324.94,419.47,325.17,419.52,325.31Z"/><path class="cls-7" d="M443.39,326.16l-51.1-38.36L391.11,289l53.68,41.91Zm-53.53-40.39-.92-.75-.25-1.77-8-3.32,4.5,6.62,2.51,0,.92.75Z"/><path d="M445,331.14l-.22-.18L391,289l1.31-1.31.06.05,51.13,38.38v0ZM391.25,289l53.37,41.67-1.31-4.42-51-38.3Zm-2.58-1.51-1-.79-2.52,0,0,0-4.66-6.88.28.12,8,3.34L389,285l1,.78Zm-3.39-1,2.49,0,.87.71,1.09-1.42-.88-.71-.24-1.76L381,280.13Z"/><path class="cls-7" d="M386.7,289a16.48,16.48,0,0,1,4.44-5.21l2.49,2.52L390,290.64Z"/><path d="M390.07,290.75l-3.5-1.69.05-.09a16.42,16.42,0,0,1,4.47-5.23l.06-.05,2.61,2.64-.06.06ZM386.83,289l3.19,1.54,3.49-4.18-2.38-2.41A16.29,16.29,0,0,0,386.83,289Z"/><path class="cls-8" d="M383.85,295.44l.32,2.12c.67-.38,7.12-7.46,7.12-7.46l5.17-1,1.06-1.67c-3.6-4.22-7.43,1.4-7.43,1.4Z"/><path class="cls-8" d="M384.1,297.7l-.35-2.3,0,0,6.24-6.55c.07-.11,2-2.87,4.41-3a3.88,3.88,0,0,1,3.16,1.6l0,.05-1.11,1.76h0l-5.14.95c-.47.51-6.46,7.07-7.13,7.45Zm-.15-2.23.29,1.92c.86-.69,4.87-5,7-7.35l0,0h0l5.14-.94,1-1.58a3.64,3.64,0,0,0-3-1.49c-2.34.13-4.26,2.9-4.27,2.93Z"/><path class="cls-9" d="M387.94,299.24c-.24-2,2.44-7.72,2.91-8,3.1.92,5.79,2.31,6.93-4.14-1.8,3.23-6.92.73-6.92.73l-1.72,2,.24,1.06-5.22,6.74Z"/><path class="cls-9" d="M388.05,299.39l-4-1.72,5.27-6.8L389,289.8l1.79-2,.07,0c.05,0,5.06,2.43,6.8-.69l.17.06c-.45,2.53-1.15,4-2.19,4.64s-2.63.26-4.17-.22l-.64-.2c-.46.4-3.08,5.94-2.84,7.85Zm-3.75-1.8,3.54,1.51c-.1-2.12,2.51-7.67,3-7.9h.07c.23.06.46.14.68.21,1.5.46,2.92.9,4,.23.92-.56,1.59-1.89,2-4.06-1.87,2.49-6.15.66-6.72.4l-1.64,1.87.24,1.06,0,0Z"/><path class="cls-8" d="M418.45,325.46c-.38-.1-37-20.89-37-20.89-2.66,4.5-.25,11,.92,12.06.07,3-1.21,4.61,1.41,10.88.77,4.07,2.66,7.82,5.4,10.05,3.34,12.84,16.45,13.7,21.49,3.25Z"/><path d="M400.42,348.08c-.33,0-.65,0-1-.05-4.92-.48-8.8-4.38-10.38-10.42-2.63-2.14-4.6-5.82-5.41-10.09-2-4.68-1.74-6.77-1.53-8.79a17,17,0,0,0,.12-2.06c-1.13-1.06-3.65-7.51-.9-12.15l0-.07.08,0c.36.21,36.42,20.66,37,20.88l.11,0-.06.1-7.81,15.35C408.53,345.38,404.64,348.08,400.42,348.08Zm-19-43.39c-2.6,4.51-.11,11,.94,11.87l0,0v0a15.83,15.83,0,0,1-.12,2.12c-.21,2-.42,4.07,1.53,8.72.81,4.26,2.76,7.9,5.37,10l0,0v0c1.56,6,5.38,9.83,10.23,10.31,4.52.44,8.77-2.27,11.09-7.08l7.77-15.27C416.29,324.46,385.45,307,381.45,304.69Z"/><path class="cls-9" d="M442.7,339.18l-25.09-14.71c-8.07,1.13.17,16.11.65,17.42l24.23,8.61Z"/><path d="M442.58,350.62l-.12,0L418.19,342l0,0c-.05-.15-.21-.47-.42-.93-1.43-3-5.21-10.92-3.18-14.69a3.8,3.8,0,0,1,3-1.92h0l0,0,25.15,14.74Zm-24.25-8.81,24.07,8.56.21-11.14-25-14.67a3.63,3.63,0,0,0-2.86,1.83c-2,3.69,1.91,11.84,3.18,14.52Q418.23,341.57,418.33,341.81Z"/><path class="cls-7" d="M438.49,333.84l-56.7-30.17-1,1.34,59.81,33.29ZM379.06,302l-1-.6-.53-1.72-8.4-2.08,5.51,5.87,2.48-.35,1,.6Z"/><path d="M440.83,338.52l-.25-.13L380.68,305l1.08-1.49.07,0,56.73,30.19v0ZM381,305l59.47,33.11-2-4.18-56.61-30.12Zm-2.79-1.1-1.08-.64-2.5.36,0,0-5.73-6.1,8.75,2.17.53,1.73,1.08.62Zm-1.05-.83,0,0,.95.55.84-1.56-1-.57-.52-1.7-8.05-2,5.27,5.61Z"/><path class="cls-7" d="M376.46,305.72A16.41,16.41,0,0,1,380,299.9l2.87,2.11-2.85,4.8Z"/><path d="M380.07,306.92l-.07,0-3.66-1.12,0-.1a16.35,16.35,0,0,1,3.56-5.84l.06-.06.06.05L383,302Zm-3.49-1.26,3.41,1,2.77-4.66L380,300A16.32,16.32,0,0,0,376.58,305.66Z"/><path class="cls-8" d="M374.2,312.51l1.19,2.34c.61-.46,6-9.16,6-9.16l5-1.64.94-2c-4-3.7-7,2.69-7,2.69Z"/><path class="cls-8" d="M375.35,315l-1.26-2.49,0,0,6.12-7.81c.05-.12,1.59-3.35,4-3.81a3.56,3.56,0,0,1,3.15,1.12l.05,0-1,2.13h0l-5,1.63c-.39.64-5.4,8.69-6,9.15Zm-1-2.46,1.1,2.17c.71-.79,4.13-6.19,5.91-9.06v0h0l4.94-1.63.89-1.93a3.36,3.36,0,0,0-2.94-1c-2.29.45-3.84,3.71-3.86,3.74Z"/><path class="cls-9" d="M379.54,315.82c-.4-2,1-8.39,1.4-8.69,3.12.93,5.73,1.2,6.45-5.24-1.81,3.06-6.66,1.91-6.66,1.91L379.31,306l.3.76-4.11,7.9Z"/><path class="cls-9" d="M379.66,316l-4.3-1.28,4.15-8-.3-.76,0,0,1.45-2.23.06,0c.05,0,4.8,1.1,6.56-1.87l.17.06c-.32,2.83-1,4.58-2.18,5.34s-2.81.45-4.33,0c-.41.52-1.73,6.61-1.34,8.57Zm-4-1.39,3.8,1.13c-.3-2.08,1-8.3,1.46-8.64l0,0,0,0c1.5.44,3.06.81,4.23,0s1.72-2.28,2.05-4.83c-1.84,2.5-5.92,1.76-6.47,1.64L379.42,306l.29.75,0,0Z"/></g><path class="cls-7" d="M456.66,289.18l-2.79-.07-5.11,21.5,1.09,6.77Z"/><path d="M449.94,317.4h-.18l-1.1-6.79v0L453.79,289h.08l2.91.07,0,.11Zm-1.09-6.79,1,6.31,6.68-27.65-2.6-.07Z"/><path class="cls-5" d="M459.59,274.84l-1.91,16.57-2-.13Z"/><path d="M457.76,291.51h-.08l-2.16-.15,4-16.54.18,0Zm-2-.31,1.85.12,1.73-15Z"/><path class="cls-7" d="M454.27,311.33l8.59-23.07-3.2-.2-10,28.2Z"/><path d="M449.71,316.32l-.16-.09L459.6,288h.06l3.33.2,0,.12-8.61,23.1Zm10-28.17-9.85,27.73,4.32-4.6,8.54-22.94Z"/><path class="cls-5" d="M466.88,275.11l-3.54,16h-2.86Z"/><path d="M463.41,291.24h-3.07l6.45-16.17.18.06Zm-2.8-.19h2.65l3.29-14.87Z"/><path class="cls-7" d="M461.91,303.25l5-10.85-2.18-.46-9.2,18Z"/><path d="M455.63,310l-.14-.1,9.23-18.08.07,0,2.29.48-.05.1L462,303.31Zm9.19-18-8.88,17.39,5.89-6.24,5-10.73Z"/><path class="cls-5" d="M473.56,279.71,468,295h-2.86Z"/><path d="M468,295.05H465l8.53-15.38.16.07Zm-2.76-.18h2.64l5.16-14.08Z"/><path class="cls-8" d="M461.22,304.88l22.87-25c7.14,5.66,5.82,16,5.82,16L464,316.29Z"/><path d="M463.94,316.45l-2.82-11.59,0,0,22.93-25,.07,0c7.1,5.62,5.86,16,5.85,16.13v0l0,0Zm-2.62-11.54,2.73,11.22,25.77-20.22c.08-.69,1-10.47-5.72-15.87Z"/><path class="cls-9" d="M448,318.62l17-17.18c7.18.25,1.48,11,1.12,12.3L448,329.21Z"/><path d="M447.9,329.41V318.59l0,0,17-17.22H465a3.58,3.58,0,0,1,3.1,1.47c1.61,2.51-.48,7.49-1.48,9.88-.21.49-.37.89-.42,1.07v0l0,0Zm.19-10.75V329L466,313.69c.06-.21.21-.57.42-1.07,1-2.37,3.05-7.28,1.5-9.71a3.39,3.39,0,0,0-2.92-1.38Z"/><path class="cls-7" d="M449.44,315.67l35.08-37.56,1.37,1-37.12,41.25Zm37.11-40,.77-.89-.08-1.79,7.24-4.6-3.24,7.28-2.46.44-.77.9Z"/><path d="M448.63,320.6l.72-5,0,0L484.51,278l1.51,1.07-.06.08Zm.9-4.89L448.9,320l36.85-40.94-1.22-.86ZM488,277.17l-1.6-1.47.8-.93-.07-1.8,7.53-4.79-3.37,7.6-2.48.45Zm-1.35-1.48L488,276.9l.73-.84,2.45-.44,3.09-7-6.94,4.41.08,1.77Z"/><path class="cls-7" d="M490.24,278.37a16.8,16.8,0,0,0-5.31-4.38l-2,2.9,4.31,3.64Z"/><path d="M487.23,280.64l-.05,0-4.37-3.69,2.09-3,.07,0a16.9,16.9,0,0,1,5.34,4.4l.07.08-.08.06Zm-4.18-3.77,4.19,3.54,2.87-2.05a16.6,16.6,0,0,0-5.15-4.25Z"/><path class="cls-8" d="M494.1,284.71l-1.18,2.05c-.73-.27-8.06-6.91-8.06-6.91l-5.27-.16L478.08,278c3.87-4.16,7.51.59,7.51.59Z"/><path class="cls-8" d="M493,286.87l-.07,0c-.72-.27-7.52-6.42-8.07-6.91l-5.27-.16,0,0L478,278,478,278a4.71,4.71,0,0,1,3.43-1.74h.18a6.12,6.12,0,0,1,4,2.32l8.57,6.14Zm-13.32-7.27,5.25.16,0,0c2.45,2.22,7.15,6.4,8,6.86l1.1-1.9-8.47-6.08a6,6,0,0,0-3.89-2.26,4.4,4.4,0,0,0-3.41,1.61Z"/><path class="cls-9" d="M489.9,288.17c-.28-1.84-3.76-6.43-4.26-6.59-2.61.78-5,2.28-7.67-3.68,2.3,2.92,6.94,0,6.94,0l2,1.68-.06.81L493,286Z"/><path class="cls-9" d="M489.83,288.33l0-.15c-.28-1.79-3.65-6.23-4.17-6.51l-.7.23c-2.38.78-4.63,1.51-7.05-4l.15-.09c2.22,2.82,6.78-.05,6.82-.08l.06,0,2.1,1.74,0,.82,6.15,5.72-.09.06Zm-4.19-6.85h0c.56.18,3.87,4.62,4.29,6.52l2.87-2-6.05-5.63.05-.81L484.9,278c-.51.31-4.34,2.5-6.61.43,2.27,4.75,4.37,4.06,6.59,3.33l.73-.23Z"/><path class="cls-8" d="M471.21,311.5,500,288.68c4.92,5,.83,20.46.83,20.46l-28.09,15.21Z"/><path d="M472.62,324.5l0-.14-1.48-12.9,0,0L500,288.55l.05.06c4.9,5,.9,20.4.86,20.55v0l0,0Zm-1.31-13,1.46,12.67,27.93-15.13c.22-.86,3.86-15.43-.76-20.28Z"/><path class="cls-9" d="M447.39,330,471,311.05c8.07,1.14,1.73,13,1.25,14.32l-25,13.54Z"/><path d="M447.21,339.07l.08-9.13,0,0L471,311h0a4.46,4.46,0,0,1,3.54,2.16c1.83,3.32-.89,9.33-1.91,11.59-.15.33-.26.56-.31.69v0h0Zm.27-9-.08,8.73,24.79-13.45.3-.68c1-2.24,3.7-8.18,1.92-11.42a4.26,4.26,0,0,0-3.36-2.06Z"/><path class="cls-7" d="M448.32,326.16l51.11-38.36,1.18,1.18-53.68,41.91Zm53.54-40.39.92-.75.25-1.77,8-3.32-4.49,6.62-2.51,0-.92.75Z"/><path d="M446.76,331.14l1.49-5,0,0,51.17-38.41,1.3,1.31-.08.06Zm1.64-4.92-1.3,4.42L500.47,289l-1.05-1.05Zm54.65-38.76-1.32-1.71,1-.78.24-1.79H503l8.24-3.45-.17.26-4.52,6.66h-.05l-2.48,0ZM502,285.78l1.09,1.42.87-.71h0l2.46,0,4.3-6.33-7.63,3.18-.24,1.76Z"/><path class="cls-7" d="M505,289a16.61,16.61,0,0,0-4.44-5.21l-2.5,2.52,3.59,4.31Z"/><path d="M501.65,290.75l0-.05L498,286.33l2.61-2.64.06.05A16.53,16.53,0,0,1,505.1,289l0,.09-.09,0Zm-3.44-4.41,3.49,4.18,3.19-1.54a16.34,16.34,0,0,0-4.31-5.05Z"/><path class="cls-8" d="M507.87,295.44l-.32,2.12c-.68-.38-7.12-7.46-7.12-7.46l-5.17-1-1.06-1.67c3.6-4.22,7.43,1.4,7.43,1.4Z"/><path class="cls-8" d="M507.62,297.7l-.12-.06c-.66-.38-6.65-6.94-7.12-7.45l-5.18-1,0,0-1.09-1.73,0-.05a3.88,3.88,0,0,1,3.16-1.6c2.43.13,4.33,2.89,4.41,3L508,295.4Zm-12.31-8.63,5.17.95,0,0c2.11,2.32,6.12,6.66,7,7.35l.29-1.92-6.21-6.53s-1.94-2.81-4.28-2.94h-.16a3.71,3.71,0,0,0-2.8,1.49Z"/><path class="cls-9" d="M503.78,299.24c.24-2-2.44-7.72-2.91-8-3.1.92-5.79,2.31-6.93-4.14,1.8,3.23,6.92.73,6.92.73l1.72,2-.24,1.06,5.22,6.74Z"/><path class="cls-9" d="M503.67,299.39l0-.16c.23-1.91-2.31-7.43-2.84-7.85l-.64.2c-1.54.48-3,.93-4.17.22s-1.74-2.11-2.19-4.64l.17-.06c1.73,3.12,6.75.71,6.8.69l.06,0,1.8,2-.24,1.07,5.27,6.8-.11,0Zm-2.8-8.2h0c.46.23,3.07,5.78,3,7.9l3.54-1.51-5.18-6.68.24-1.06L500.84,288c-.57.26-4.85,2.09-6.72-.4.43,2.17,1.09,3.5,2,4.06,1.1.68,2.52.23,4-.23.22-.07.45-.15.68-.21Z"/><path class="cls-8" d="M473.27,325.46c.38-.1,37-20.89,37-20.89,2.67,4.5.26,11-.91,12.06-.07,3,1.2,4.61-1.41,10.88-.78,4.07-2.66,7.82-5.4,10.05-3.35,12.84-16.45,13.7-21.5,3.25Z"/><path d="M491.3,348.08c-4.23,0-8.11-2.7-10.3-7.23l-7.86-15.46.11,0c.65-.26,36.65-20.67,37-20.88l.08,0,0,.07c2.75,4.64.23,11.09-.9,12.15a17,17,0,0,0,.12,2.06c.21,2,.42,4.11-1.54,8.81-.8,4.25-2.77,7.93-5.4,10.07-1.59,6-5.46,9.94-10.38,10.42C492,348.06,491.63,348.08,491.3,348.08ZM473.39,325.5l7.78,15.27c2.15,4.47,6,7.12,10.13,7.12.32,0,.64,0,1,0,4.85-.48,8.67-4.33,10.23-10.31v0l0,0c2.61-2.12,4.56-5.76,5.37-10,1.95-4.67,1.74-6.74,1.53-8.74a15.83,15.83,0,0,1-.12-2.12v0l0,0c1.05-.91,3.54-7.36.94-11.87C506.27,307,475.43,324.46,473.39,325.5Z"/><path class="cls-9" d="M449,339.18l25.1-14.71c8.07,1.13-.17,16.11-.65,17.42l-24.23,8.61Z"/><path d="M449.14,350.62l-.22-11.49.05,0,25.12-14.73h0a3.8,3.8,0,0,1,3,1.92c2,3.77-1.76,11.71-3.18,14.69-.22.46-.37.78-.43.93v0h0Zm0-11.39.2,11.14,24.08-8.56c.06-.16.21-.46.41-.9,1.28-2.68,5.17-10.83,3.19-14.52a3.63,3.63,0,0,0-2.86-1.83Z"/><path class="cls-7" d="M453.23,333.84l56.7-30.17,1,1.34L451.09,338.3ZM512.66,302l1-.6.53-1.72,8.4-2.08-5.52,5.87-2.48-.35-1,.6Z"/><path d="M450.88,338.52l2.28-4.74,0,0L510,303.55,511,305l-.09,0Zm2.42-4.61-2,4.18L510.77,305l-.87-1.19Zm60.26-30-1-1.89,1.07-.62.54-1.73h.05l8.7-2.16-5.76,6.13-2.5-.36Zm-.78-1.82.85,1.56,1-.57h0l2.43.35,5.27-5.61-8.05,2-.52,1.7Z"/><path class="cls-7" d="M515.25,305.72a16.22,16.22,0,0,0-3.54-5.82L508.84,302l2.85,4.8Z"/><path d="M511.65,306.92,508.72,302l.06-.05,2.94-2.16.06.06a16.5,16.5,0,0,1,3.56,5.84l0,.1-.09,0ZM509,302l2.77,4.66,3.4-1A16.11,16.11,0,0,0,511.7,300Z"/><path class="cls-8" d="M517.52,312.51l-1.19,2.34c-.61-.46-6-9.16-6-9.16l-5-1.64-.94-2c4-3.7,7,2.69,7,2.69Z"/><path class="cls-8" d="M516.36,315l-.08-.07c-.61-.46-5.62-8.51-6-9.15l-5-1.64-1-2.13,0,0a3.54,3.54,0,0,1,3.15-1.12c2.39.46,3.93,3.69,4,3.83l6.15,7.83Zm-10.95-11,5,1.64,0,0c1.78,2.87,5.19,8.27,5.91,9.06l1.1-2.17-6.08-7.76s-1.58-3.31-3.88-3.76a3.37,3.37,0,0,0-2.94,1Z"/><path class="cls-9" d="M512.17,315.82c.4-2-1-8.39-1.4-8.69-3.12.93-5.72,1.2-6.44-5.24,1.81,3.06,6.65,1.91,6.65,1.91L512.4,306l-.3.76,4.12,7.9Z"/><path class="cls-9" d="M512.05,316l0-.15c.4-2-.92-8.06-1.33-8.57-1.52.45-3.11.81-4.33,0s-1.87-2.51-2.18-5.34l.17-.06c1.76,3,6.51,1.88,6.55,1.87l.07,0,1.48,2.27-.31.76,4.15,8ZM510.79,307l0,0c.5.34,1.75,6.55,1.46,8.64l3.8-1.13L512,306.73l.3-.75-1.36-2.08c-.56.12-4.64.86-6.47-1.64.32,2.55,1,4.13,2,4.83s2.73.4,4.23,0Z"/><path class="cls-6" d="M443.91,253.36,443,271.5h5.8l-.85-18,6.05-.85-.67-7.17-15,.58.08,6.51Z"/><path class="cls-6" d="M448.88,271.59h-6v-.1l.93-18.05-5.54-.77L438.2,246h.09l15.1-.58v.08l.68,7.26H454l-6,.83Zm-5.8-.18h5.61l-.85-18,6-.85-.65-7-14.85.57.08,6.34,5.55.77v.08Z"/><g id="b"><path class="cls-6" d="M445.63,246c-15.52-15.54-27.75-8-30.66-5.8,1.92.37,3.65-.83,4.54-1-.56.71-1.73,2.46-1.73,2.46s4.8-2.27,5.34-2.06a8.51,8.51,0,0,0-1.46,1.87c.36.14,3.06-2.11,3.59-2.15a7.07,7.07,0,0,0-1.07,3.06l2.34-1.09c.6.43-.17,1.26.36,1.21,3.88-.32,9.35,3.56,10.1,4.75"/><path d="M436.9,247.28c-.74-1.18-5.75-4.72-9.55-4.72a3.7,3.7,0,0,0-.47,0,.26.26,0,0,1-.24-.08c-.08-.09-.05-.24,0-.41a.66.66,0,0,0-.12-.72l-2.43,1.14v-.16a7.79,7.79,0,0,1,.91-2.85c-.36.19-.93.59-1.46,1-1.16.81-1.69,1.17-1.9,1.08l-.1,0,.05-.09a9.47,9.47,0,0,1,1.3-1.74,35.87,35.87,0,0,0-5.06,2.06l-.3.14.19-.28s1-1.47,1.57-2.26c-.22.07-.48.17-.77.29a6.29,6.29,0,0,1-3.56.61l-.21,0,.17-.12c3.37-2.49,15.54-9.44,30.79,5.82l-.13.12c-14.89-14.9-26.8-8.49-30.37-5.92a6.55,6.55,0,0,0,3.24-.64,5.76,5.76,0,0,1,1.06-.36l.23,0-.15.18c-.41.53-1.19,1.66-1.54,2.18,1.12-.52,4.61-2.12,5.11-1.92l.15.06-.12.09a7.56,7.56,0,0,0-1.34,1.68,14.09,14.09,0,0,0,1.59-1,6.64,6.64,0,0,1,1.82-1.1l.22,0-.15.17a6.58,6.58,0,0,0-1,2.84l2.24-1,0,0a.82.82,0,0,1,.23.94.58.58,0,0,0,0,.25s0,0,.09,0l.47,0c3.87,0,9,3.61,9.72,4.81Z"/><path class="cls-6" d="M441.79,248.79c-1.62-3.7-31.18-10-37.12.49,2.33.59,4.55-1.95,4.55-1.95l-.2,2.34,3.94-3-1.41,3.12,3.13-2.54-.1,2.54,3.85-4.2-.51,2.44,3.44-1.46-.41,2"/><path d="M414.48,250l.1-2.59-3,2.41-.15-.11,1.27-2.79-3.82,2.93.2-2.28c-.59.59-2.47,2.29-4.46,1.78l-.12,0,.06-.1c3.21-5.67,12.84-6,18.3-5.76,9.19.48,18.12,3.3,19,5.28l-.16.07c-.85-1.93-9.7-4.69-18.83-5.16-5.38-.28-14.85.08-18.07,5.55,2.2.45,4.32-1.92,4.34-1.95l.19-.21-.21,2.41,3.78-2.89.14.11-1.26,2.76,3-2.42-.09,2.49,3.89-4.25-.54,2.59,3.44-1.46-.44,2.22-.18,0,.38-1.88-3.45,1.47.48-2.29Z"/><path class="cls-6" d="M440.48,249.38c-7.59-5.07-19.32-1.66-19.32-1.66-7.49,4.2-11.48,3.44-12.44,11.22a16.47,16.47,0,0,0,2.73-2.73l1.52,3,.5-4.3,1.21,3.32,1.82-5.46.41,3.7,2.83-3.7,1.32,1.07,1.21-2.83,1.11,1.85s1.92-1.17,3-.49l2.12-2.44.51,1.76,1.82-2.14.71,1.56,1.82-1.66-.1,1.17,6.27.1"/><path d="M413,259.55l-1.59-3.17a15,15,0,0,1-2.68,2.65l-.14.06,0-.16c.72-5.84,3.1-6.9,7.42-8.82,1.47-.65,3.15-1.4,5.06-2.47.14,0,11.88-3.38,19.42,1.66l-.1.16c-7.47-5-19.13-1.69-19.25-1.65-1.9,1.07-3.58,1.81-5.06,2.47-4.21,1.88-6.55,2.92-7.29,8.5a19.87,19.87,0,0,0,2.55-2.63l.09-.1,1.44,2.87.47-4,.18,0,1.12,3.07,1.74-5.21.17,0,.39,3.48,2.75-3.6,1.29,1.05,1.24-2.88,1.15,1.93c.38-.21,1.95-1,3-.48l2.18-2.51.51,1.75,1.8-2.12.72,1.57,1.9-1.73-.11,1.31,6.17.1v.18l-6.36-.1.09-1-1.75,1.59-.7-1.54L429,251.91l-.5-1.76-2.06,2.37-.07,0c-1.05-.64-2.92.48-2.94.49l-.08.05-1.07-1.78L421.09,254l-1.33-1.09-2.92,3.81-.38-3.52-1.77,5.32-1.17-3.2Z"/><path class="cls-6" d="M438.76,250.26c-5.29-.1-20.45,5.62-24.38,11.61a27.17,27.17,0,0,1,2.53-1.27l.77,2.41.95-2.41.2,1.86c.58-1.45,1.24-1.62,2.33-.1l.4-2.25.61,2.15,1-2.34s.64,2.54,1,2.44c0,0,1.68-4.39,2.43-4.59l.2,2.73,1-2.73.91,2.05.2-2.93,1,2.25s.53-2.21,1.31-2.64l1.52,1.37,6.75-4.85"/><path d="M417.68,263.28l-.83-2.55c-.81.36-1.63.77-2.42,1.22l-.12-.13c1.74-2.66,6-5.62,11.71-8.12,4.85-2.13,9.88-3.53,12.6-3.53h.14v.18h-.13c-5.22,0-19.78,5.5-23.95,11.25.72-.4,1.46-.76,2.19-1.08l.1,0,.72,2.25.85-2.16.18,0,.16,1.51c.28-.57.56-.85.89-.89s.82.24,1.34.92l.36-2h.18l.54,1.9,1-2.35.07.26a7.67,7.67,0,0,0,.86,2.35c.27-.69,1.72-4.37,2.47-4.57l.1,0,.18,2.43.94-2.55.86,1.92.17-2.56.18,0,.9,2c.17-.6.64-2.08,1.3-2.44l.06,0,1.5,1.36,6.7-4.81.11.15-6.82,4.9-1.52-1.37c-.71.47-1.21,2.52-1.22,2.54l-.06.26-1-2.16-.17,2.57-.18,0-.82-1.85-.93,2.53-.18,0-.19-2.6c-.56.41-1.64,2.84-2.26,4.48l0,0,0,0a.2.2,0,0,1-.16,0,6.06,6.06,0,0,1-.9-2.22l-1,2.33-.57-2-.37,2.07-.13-.18c-.52-.73-.93-1.06-1.29-1s-.59.4-.87,1.1l-.18,0-.16-1.49Z"/><path class="cls-6" d="M439.78,251.51c-7,2.7-13.34,12.36-12.86,16.45,3.13-3.88,2.45-3.35,3.85,1.12,0,0,.53-3.91,1.06-4.37l.92,2.89.34-3.78.94,0-.24-2.37,1.4,1.07c-.33-1.36-.68-1.82.77-3,0,0-1.83.23-.39-3.07l1.35,1.3s-.24-1.44.24-2l5-1.72"/><path d="M430.68,269.11c-.22-.73-.4-1.37-.54-1.87-.3-1.08-.48-1.73-.74-1.79s-.91.69-2,2.06l-.55.68,0-.22c-.48-4.07,5.72-13.79,12.91-16.55l.07.17c-7,2.69-13.05,12-12.82,16.14l.27-.34c1.18-1.47,1.7-2.12,2.11-2.12h.07c.37.08.54.69.88,1.92.11.41.25.91.42,1.47.15-1.05.58-3.62,1-4l.11-.09.82,2.59.31-3.42.92,0-.25-2.48,1.36,1c0-.06,0-.12-.05-.18a1.9,1.9,0,0,1,.73-2.48.87.87,0,0,1-.58-.34c-.38-.5-.26-1.46.35-2.85l.05-.12,1.26,1.21a2.77,2.77,0,0,1,.29-1.81l0,0h0l5-1.72.06.17-4.94,1.72c-.43.53-.21,1.89-.21,1.9l.05.28-1.45-1.41c-.67,1.57-.55,2.25-.32,2.55a.75.75,0,0,0,.66.28l.32,0-.25.2c-1.24,1-1.12,1.42-.85,2.45,0,.13.07.28.11.43l.06.25-1.44-1.09.23,2.27-1,0-.33,3.7-.18,0-.86-2.73a19.46,19.46,0,0,0-.94,4.19Z"/><path class="cls-6" d="M440.46,252.23l-2.66,5.07,1.36.39L436.09,260l2.59-.27s-3.95,1.45-4.43,5.33l4-1.77s-3.42,3.49-3.89,5.59l2.32-2A8.47,8.47,0,0,0,434.8,273l1.7-1.91c-.41,4.48-.27,4.87,1.78,8.3,0,0-.55-5.27.06-5.93l4.5,4.68-2.52-6.65s2.8,4.21,4.5,3.82l-3.54-5.4,3.48,2.83-4-5.92,3.68,1.12s-2.66-3.36-2.45-5.47l2.52,2.77s-.95-3.16-.68-4.08l1.29.26-2.52-2.9,1.71-.33-.21-1.9,1.23-.4-.07-2.1m-2.18,0c-4.37,5.92-2.12,15.07-4.71,19.74"/><path d="M438.2,279.39c-2-3.31-2.2-3.8-1.81-8.07l-1.67,1.86,0-.21a8.63,8.63,0,0,1,1.41-5.48l-1.88,1.65.07-.28c.39-1.75,2.73-4.38,3.6-5.3l-3.76,1.65,0-.16a7,7,0,0,1,4-5.17l-2.37.24,3.19-2.39-1.3-.37,2.72-5.17.16.09-2.61,5,1.43.42-2.95,2.22,2.26-.24.05.18s-3.8,1.44-4.36,5.1l3.88-1.71.1.14s-3.09,3.18-3.78,5.26l2.09-1.84.12.14a8.42,8.42,0,0,0-1.9,5.83l1.75-1.95,0,.27c-.39,4.33-.27,4.82,1.56,7.89-.13-1.31-.42-5,.13-5.59l.06-.07.05,0c1.06-2,1.27-4.8,1.5-7.76.31-4,.65-8.49,3.15-11.89l.15.11c-2.47,3.35-2.81,7.84-3.12,11.79-.23,3-.45,5.86-1.55,7.89l4.08,4.23-2.36-6.23.16-.08s2.54,3.8,4.18,3.8h.09l-3.47-5.28.13-.12,3,2.45-3.76-5.64,3.66,1.12c-.6-.8-2.48-3.48-2.31-5.31l0-.2,2.4,2.63c-.24-.88-.79-3-.57-3.76l0-.08,1.11.23-2.45-2.81,1.78-.35-.21-1.9,1.24-.39-.07-2h.18l.07,2.18-.06,0-1.16.37.21,1.92-1.64.31,2.6,3-1.47-.3c-.19,1,.69,3.92.7,3.95l-.16.09-2.37-2.6c0,2,2.42,5.15,2.44,5.18l.19.23L441,266.94l3.81,5.71-.13.12-3-2.46,3.29,5-.13,0c-1.36.32-3.32-2.11-4.18-3.27l2.27,6-.15.1-4.43-4.59c-.4.75-.13,4.37,0,5.77Z"/></g><path class="cls-6" d="M446.08,246c15.53-15.54,27.76-8,30.67-5.8-1.92.37-3.65-.83-4.54-1,.56.71,1.73,2.46,1.73,2.46s-4.8-2.27-5.34-2.06a8.35,8.35,0,0,1,1.45,1.87c-.35.14-3.05-2.11-3.59-2.15a7,7,0,0,1,1.08,3.06l-2.34-1.09c-.61.43.17,1.26-.36,1.21-3.89-.32-9.35,3.56-10.1,4.75"/><path d="M454.81,247.28l-.15-.1c.79-1.25,6.28-5.11,10.19-4.79.08,0,.09,0,.09,0a.81.81,0,0,0,0-.25.81.81,0,0,1,.23-.94l0,0,2.24,1a6.58,6.58,0,0,0-1-2.84l-.15-.17.22,0a7,7,0,0,1,1.82,1.1,15.09,15.09,0,0,0,1.58,1,7.49,7.49,0,0,0-1.33-1.68l-.12-.09.15-.06c.49-.19,4,1.4,5.11,1.92-.36-.52-1.13-1.65-1.55-2.18l-.14-.18.23,0a6,6,0,0,1,1.06.36,6.53,6.53,0,0,0,3.24.64c-3.57-2.57-15.48-9-30.37,5.92l-.13-.12c15.24-15.26,27.42-8.31,30.79-5.82l.16.12-.2,0a6.29,6.29,0,0,1-3.56-.61c-.29-.12-.55-.22-.78-.29.6.79,1.57,2.25,1.58,2.26l.19.28-.3-.14a35.87,35.87,0,0,0-5.06-2.06,9.23,9.23,0,0,1,1.29,1.74l.06.09-.1,0c-.21.09-.74-.27-1.9-1.08-.53-.37-1.11-.77-1.46-1a7.76,7.76,0,0,1,.9,2.85l0,.16-2.44-1.14c-.23.2-.17.47-.12.72s.07.32,0,.41a.27.27,0,0,1-.25.08,3.46,3.46,0,0,0-.46,0C460.57,242.56,455.56,246.1,454.81,247.28Z"/><path class="cls-6" d="M449.93,248.79c1.62-3.7,31.17-10,37.12.49-2.33.59-4.55-1.95-4.55-1.95l.2,2.34-3.95-3,1.42,3.12L477,247.23l.1,2.54-3.84-4.2.51,2.44-3.44-1.46.4,2"/><path d="M477.23,250l-3.78-4.14.47,2.29-3.44-1.47.37,1.88-.18,0-.44-2.22.16.07,3.28,1.39-.54-2.59,3.9,4.25-.09-2.49,3,2.42-1.26-2.76.14-.11,3.78,2.89-.21-2.41.18.21s2.15,2.4,4.35,1.95c-3.22-5.47-12.69-5.83-18.07-5.55-9.13.47-18,3.23-18.83,5.16l-.17-.07c.87-2,9.8-4.8,19-5.28,5.46-.28,15.09.09,18.3,5.76l.06.1-.12,0c-2,.51-3.88-1.19-4.46-1.78l.2,2.28-.17-.12L479,246.94l1.26,2.79-.14.11-3-2.41Z"/><path class="cls-6" d="M451.24,249.38c7.59-5.07,19.32-1.66,19.32-1.66,7.48,4.2,11.47,3.44,12.44,11.22a16.47,16.47,0,0,1-2.73-2.73l-1.52,3-.5-4.3L477,258.26l-1.82-5.46-.4,3.7L472,252.8l-1.32,1.07L469.45,251l-1.11,1.85s-1.93-1.17-3-.49L463.18,250l-.51,1.76-1.82-2.14-.71,1.56-1.82-1.66.1,1.17-6.27.1"/><path d="M478.7,259.55l-.5-4.21-1.17,3.2-1.77-5.32-.39,3.52L472,252.93,470.63,254l-1.2-2.78L468.37,253l-.08-.05s-1.89-1.13-2.94-.49l-.07,0,0-.05-2-2.32-.51,1.76-1.83-2.16-.71,1.54-1.74-1.59.09,1h-.1l-6.27.1v-.18l6.17-.1-.11-1.31,1.9,1.73.72-1.57,1.8,2.12.5-1.75,2.19,2.51c1-.56,2.61.27,3,.48l1.16-1.93,1.24,2.88,1.29-1.05,2.75,3.6.38-3.48.18,0L477,258l1.12-3.07.18,0,.47,4,1.44-2.87.09.1a19.87,19.87,0,0,0,2.55,2.63c-.74-5.58-3.08-6.62-7.29-8.5-1.48-.66-3.16-1.4-5.08-2.48-.1,0-11.77-3.33-19.23,1.66l-.1-.16c7.54-5,19.28-1.7,19.4-1.67a56,56,0,0,0,5.08,2.48c4.32,1.92,6.7,3,7.42,8.82l0,.16L483,259a14.62,14.62,0,0,1-2.68-2.65Z"/><path class="cls-6" d="M453,250.26c5.28-.1,20.45,5.62,24.37,11.61a25.82,25.82,0,0,0-2.52-1.27L474,263l-.94-2.41-.2,1.86c-.58-1.45-1.24-1.62-2.33-.1l-.4-2.25-.61,2.15-1-2.34s-.64,2.54-1,2.44c0,0-1.68-4.39-2.43-4.59l-.2,2.73-1-2.73-.92,2.05-.2-2.93-1,2.25s-.53-2.21-1.31-2.64l-1.52,1.37L452.17,253"/><path d="M474,263.28l-.9-2.3-.16,1.49-.18,0c-.28-.7-.57-1.06-.88-1.1s-.76.29-1.29,1l-.12.18-.37-2.07-.57,2-1-2.33c-.16.61-.57,2-.91,2.22a.18.18,0,0,1-.15,0l0,0,0,0c-.63-1.64-1.7-4.07-2.26-4.48l-.19,2.6-.18,0-.93-2.53-.82,1.85-.18,0-.17-2.57-1,2.16-.07-.26s-.5-2.07-1.21-2.54L458.94,258l-.06-.05-6.76-4.85.11-.15,6.69,4.81,1.51-1.36.06,0c.66.36,1.13,1.84,1.29,2.44l.91-2,.18,0,.17,2.56.85-1.92.95,2.55.18-2.43.1,0c.75.2,2.2,3.88,2.46,4.58a7.42,7.42,0,0,0,.87-2.36l.07-.26,1,2.35.54-1.9h.18l.36,2c.52-.68.94-1,1.34-.92s.61.32.88.89l.17-1.51.17,0,.86,2.16.72-2.25.09,0A23.39,23.39,0,0,1,477,261.6c-4.17-5.75-18.72-11.25-23.94-11.25H453v-.18h.14c2.72,0,7.75,1.4,12.59,3.53,5.71,2.5,10,5.46,11.72,8.12l-.12.13a25.07,25.07,0,0,0-2.43-1.22Z"/><path class="cls-6" d="M451.94,251.51c7,2.7,13.34,12.36,12.86,16.45-3.13-3.88-2.46-3.35-3.85,1.12,0,0-.53-3.91-1.06-4.37L459,267.6l-.34-3.78-.94,0,.24-2.37-1.4,1.07c.33-1.36.68-1.82-.77-3,0,0,1.83.23.38-3.07l-1.35,1.3s.24-1.44-.24-2l-5-1.72"/><path d="M461,269.11l-.18,0a18.89,18.89,0,0,0-.93-4.19l-.86,2.73-.18,0-.34-3.7-1,0,.23-2.27-1.44,1.09.06-.25c0-.15.08-.3.11-.43.27-1,.39-1.46-.85-2.45l-.25-.2.32,0a.78.78,0,0,0,.66-.28c.23-.3.35-1-.32-2.55l-1.45,1.41,0-.28s.23-1.37-.2-1.9l-4.95-1.72.06-.17,5,1.73v0a2.77,2.77,0,0,1,.3,1.81l1.26-1.21.05.12c.61,1.39.72,2.35.35,2.85a.87.87,0,0,1-.58.34,1.9,1.9,0,0,1,.73,2.48c0,.06,0,.12-.05.18l1.36-1-.25,2.48.92,0,.31,3.42.82-2.59.11.09c.45.4.87,3,1,4,.17-.56.31-1.06.42-1.47.34-1.23.51-1.84.88-1.92h.07c.4,0,.93.65,2.11,2.12l.27.34c.23-4.15-5.82-13.45-12.82-16.14l.06-.17c7.2,2.76,13.4,12.48,12.92,16.55l0,.22-.55-.68c-1.05-1.32-1.65-2.06-2-2.06h0c-.25.06-.43.71-.73,1.79C461.44,267.74,461.26,268.38,461,269.11Z"/><path class="cls-6" d="M451.26,252.23l2.66,5.07-1.36.39,3.07,2.31-2.6-.27s4,1.45,4.44,5.33l-4-1.77s3.41,3.49,3.89,5.59l-2.32-2a8.47,8.47,0,0,1,1.91,6.12l-1.7-1.91c.41,4.48.27,4.87-1.78,8.3,0,0,.55-5.27-.07-5.93l-4.5,4.68,2.53-6.65s-2.8,4.21-4.5,3.82l3.54-5.4L447,272.7l4-5.92-3.68,1.12s2.66-3.36,2.45-5.47l-2.52,2.77s.95-3.16.68-4.08l-1.3.26,2.53-2.9-1.71-.33.21-1.9-1.23-.4.07-2.1m2.18,0c4.37,5.92,2.11,15.07,4.71,19.74"/><path d="M453.52,279.39l-.17-.05c.15-1.4.41-5,0-5.77l-4.42,4.59-.15-.1,2.26-6c-.85,1.16-2.81,3.59-4.17,3.27l-.13,0,3.29-5-3,2.46-.13-.12,3.81-5.71L447,268.07l.18-.23s2.46-3.13,2.45-5.18l-2.37,2.6-.16-.09s.89-3,.7-3.95l-1.47.3,2.59-3-1.63-.31.21-1.92-1.23-.39.07-2.18h.19l-.07,2,1.24.39-.21,1.9,1.78.35-2.45,2.81,1.11-.23,0,.08c.22.75-.33,2.88-.58,3.75l2.4-2.62,0,.2c.18,1.83-1.7,4.51-2.3,5.31l3.66-1.12-3.76,5.64,3-2.45.14.12-3.47,5.28h.09c1.63,0,4.15-3.76,4.18-3.8l.16.08-2.36,6.23,4.08-4.23c-1.1-2-1.32-4.88-1.55-7.89-.31-3.95-.65-8.44-3.12-11.79l.14-.11c2.51,3.4,2.85,7.91,3.16,11.89.23,3,.44,5.77,1.5,7.76l.05,0,.06.07c.54.58.25,4.28.13,5.59,1.83-3.07,1.95-3.56,1.55-7.89l0-.27,1.75,1.95a8.35,8.35,0,0,0-1.91-5.83l.13-.14,2.09,1.84c-.69-2.08-3.75-5.22-3.78-5.26l.1-.14,3.87,1.71c-.55-3.67-4.31-5.09-4.35-5.1l0-.18,2.27.24-3-2.22,1.44-.42-2.61-5,.16-.09,2.71,5.17-1.29.37,3.18,2.39-2.36-.24a7,7,0,0,1,4,5.17l0,.16-.15-.06-3.61-1.59c.87.92,3.2,3.55,3.6,5.3l.06.28-1.87-1.65A8.58,8.58,0,0,1,457,273l0,.21-1.66-1.86C455.71,275.59,455.5,276.08,453.52,279.39Z"/><path class="cls-7" d="M448.29,335.22s2.38-19.89,2.37-28.45c0-6.74-1.63-21.67-1.63-21.67H442.2s-1,14.86-.88,21.58c.2,8.56,2.37,28.54,2.37,28.54Z"/><path d="M448.29,335.31h-4.68v-.08c0-.2-2.18-20.08-2.38-28.55-.15-6.64.88-21.43.89-21.58V285h7v.08c0,.15,1.62,15,1.62,21.68,0,8.47-2.35,28.26-2.37,28.46h-.09Zm-4.52-.18h4.44c.17-1.41,2.37-20.18,2.36-28.36,0-6.4-1.49-20.37-1.62-21.58h-6.66c-.09,1.23-1,15.11-.88,21.49C441.6,314.86,443.62,333.72,443.77,335.13Z"/><path class="cls-7" d="M441.75,286.06h7.92l-.93-5.33H443Z"/><path d="M449.78,286.15h-8.15l1.3-5.51h5.88Zm-7.92-.18h7.7l-.9-5.15h-5.59Z"/><path class="cls-7" d="M442.25,281.78h7.08L448,276.45h-4.36Z"/><path d="M449.45,281.88h-7.31l1.43-5.52h4.5l0,.07Zm-7.08-.19h6.84l-1.28-5.14h-4.22Z"/><path class="cls-7" d="M442.71,277.46h5.9l-1-5.33h-3.75Z"/><path d="M448.72,277.55H442.6l1.19-5.51h3.9v.07Zm-5.9-.18h5.68l-1-5.15h-3.6Z"/><path class="cls-7" d="M447.82,271.5h-4.13l-.42,1.93h4.89Z"/><path d="M448.26,273.52h-5.1l.46-2.11h4.28Zm-4.87-.18h4.66l-.31-1.75h-4Z"/><rect x="443.22" y="330.79" width="5.44" height="0.19"/><rect x="442.75" y="326.9" width="6.34" height="0.19"/><rect x="442.39" y="322.95" width="7.34" height="0.18"/><path class="cls-7" d="M450.11,318.74h-7.94m8-4.31h-8.35"/><path d="M450.11,318.83h-7.94v-.19h7.94Zm.06-4.31h-8.35v-.18h8.35Z"/><path class="cls-7" d="M450.49,310.5h-8.9m8.92-3.59h-9.3m9.24-4.32h-9.3"/><path d="M450.49,310.59h-8.9v-.19h8.9Zm0-3.58h-9.3v-.19h9.3Zm-.06-4.33h-9.3v-.18h9.3Z"/><rect x="441.35" y="298.23" width="8.79" height="0.18"/><rect x="441.6" y="293.89" width="8.13" height="0.18"/><rect x="441.99" y="289.97" width="7.46" height="0.18"/><path class="cls-8" d="M445.82,240.24c-1.38-.65-4.49-2.63-3.57-3.81l1.43-2.42c2-4.56,0-2.79-.25-4.22s7.73-.29,7.84,2.8c0,.85-.59.35-.5,5.22l-1.51,2.92a7.08,7.08,0,0,1-3.44-.49Z"/><path class="cls-8" d="M448.5,240.85a6.5,6.5,0,0,1-2.72-.53h0c-1.1-.52-3.48-2-3.76-3.17a.87.87,0,0,1,.16-.77L443.6,234c1.31-3,.86-3.16.39-3.37a.9.9,0,0,1-.65-.78.43.43,0,0,1,.18-.42c.72-.53,3.61-.27,5.68.73,1.38.66,2.13,1.51,2.17,2.47a1.41,1.41,0,0,1-.12.61c-.17.46-.45,1.22-.39,4.61v0l-1.53,3h-.05C449,240.84,448.76,240.85,448.5,240.85Zm-2.64-.69a6.79,6.79,0,0,0,3.34.48l1.48-2.85c-.06-3.41.23-4.18.4-4.65a1.2,1.2,0,0,0,.1-.55c0-1.11-1.14-1.87-2.06-2.31-2-1-4.82-1.23-5.49-.74a.23.23,0,0,0-.11.24.75.75,0,0,0,.55.64c.67.3,1,.7-.31,3.62l-1.43,2.44a.68.68,0,0,0-.13.63c.27,1.13,2.58,2.54,3.66,3Z"/><path class="cls-7" d="M446.78,252l-2-1.66.55-14.21,1.93.57Z"/><path d="M446.87,252.21l-2.15-1.81v0l.55-14.33,2.11.62v.07Zm-2-1.89,1.79,1.51.49-15.05-1.75-.51Z"/><path class="cls-9" d="M449.34,240.65c1.24-.73,2.05-2.89,1.3-4.17-2-2.58-3.34-1.52-6.75-2.68-.68.73-2.11,2.12-1.81,3.16,4.49,2.11,2.75.31,4.23.58.8.14,1.32,1.09,3,3.11Z"/><path class="cls-9" d="M449.32,240.76l-.05-.06c-.45-.53-.82-1-1.14-1.39-.85-1.05-1.28-1.59-1.83-1.68s-.57,0-.69.18c-.28.34-.56.65-3.57-.77h0v0c-.3-1,.93-2.31,1.66-3.08l.2-.21.06,0a15.57,15.57,0,0,0,2.93.65,4.83,4.83,0,0,1,3.87,2c.79,1.36-.08,3.57-1.33,4.3ZM446,237.42l.29,0c.62.11,1.06.65,1.94,1.75.31.38.66.82,1.09,1.33,1.15-.73,1.93-2.76,1.2-4a4.63,4.63,0,0,0-3.73-2,15.36,15.36,0,0,1-2.92-.64l-.12.13c-.69.73-1.85,2-1.63,2.86,2.85,1.33,3.09,1,3.31.79A.65.65,0,0,1,446,237.42Z"/><path id="c" class="cls-6" d="M423.07,322.66c-.53-1-2.12-1.71-4-1.71s-3.45.72-4,1.71a1.53,1.53,0,0,1-.2-.72c0-1.34,1.87-2.42,4.18-2.42s4.19,1.08,4.19,2.42A1.52,1.52,0,0,1,423.07,322.66Z"/><path class="cls-5" d="M423.07,322.91l-.1-.2c-.52-1-2.12-1.64-3.9-1.64s-3.36.68-3.88,1.64l-.1.19-.11-.18a1.78,1.78,0,0,1-.21-.78c0-1.4,1.93-2.54,4.3-2.54s4.31,1.14,4.31,2.54a1.65,1.65,0,0,1-.2.78Zm-4-3.27c-2.24,0-4.06,1-4.06,2.3a1.27,1.27,0,0,0,.09.47,5.83,5.83,0,0,1,8,0,1.5,1.5,0,0,0,.08-.47C423.14,320.67,421.32,319.64,419.07,319.64Z"/><path class="cls-6" d="M422.72,325.65c0,2.6-1.63,4.71-3.64,4.71s-3.64-2.11-3.64-4.71V323.1h7.28Z"/><path class="cls-5" d="M419.08,330.45c-2.06,0-3.73-2.15-3.73-4.8V323h7.46v2.64C422.81,328.3,421.13,330.45,419.08,330.45Zm-3.55-7.26v2.46c0,2.55,1.59,4.62,3.55,4.62s3.55-2.07,3.55-4.62v-2.46Z"/><ellipse class="cls-5" cx="419.08" cy="322.28" rx="3.61" ry="1.8"/><path class="cls-6" d="M418.25,324.3l-.62-6.59h2.77l-.46,6.59Z"/><path class="cls-7" d="M420,324.39h-1.86l-.64-6.77h3Zm-1.69-.18h1.52l.44-6.41h-2.57Z"/><path class="cls-6" d="M423.08,322.39c-.53,1-2.12,1.7-4,1.7s-3.46-.71-4-1.7a1.62,1.62,0,0,0-.2.72c0,1.33,1.88,2.42,4.19,2.42s4.18-1.09,4.18-2.42A1.51,1.51,0,0,0,423.08,322.39Z"/><path class="cls-5" d="M419.08,325.64c-2.37,0-4.3-1.13-4.3-2.53a1.52,1.52,0,0,1,.21-.78l.1-.19.11.19c.52,1,2.11,1.64,3.88,1.64s3.37-.67,3.89-1.64l.1-.19.11.19a1.65,1.65,0,0,1,.2.78C423.38,324.51,421.45,325.64,419.08,325.64Zm-4-3a1.86,1.86,0,0,0-.09.47c0,1.27,1.83,2.3,4.07,2.3s4.06-1,4.06-2.3a1.5,1.5,0,0,0-.08-.47,5.83,5.83,0,0,1-8,0Z"/><g id="d"><path class="cls-7" d="M438.07,347.72,424,343.34l-6.15-10.5L396,331.77l.76,7.88,18.56,3.55,1.76,3.16,21.33,5.94Z"/><path d="M438.52,352.42l-.12,0L417,346.44l-1.76-3.16-18.59-3.56v-.06l-.77-8H396l21.83,1.07,0,0L424,343.27l14.15,4.39Zm-21.37-6.14,21.17,5.9-.34-4.39-14.09-4.37,0,0-6.13-10.46-21.63-1.07.74,7.71,18.54,3.55,0,0Z"/><path class="cls-10" d="M423.32,350.66,401,317.87l-1.1.82,22.12,32.93Z"/><path d="M422,351.75l0-.08-22.17-33,1.24-.94.05.08,22.35,32.87Zm-22-33,22,32.78,1.13-.85L401,318Z"/><path class="cls-5" d="M403.1,319.15l-2.38-4c-.44-.74-1.12-1-2.12-.46a1.55,1.55,0,0,0-.48,2.25l2.21,3.7Z"/><path d="M400.29,320.79,398.05,317a2,2,0,0,1-.24-1.52,1.47,1.47,0,0,1,.75-.86,1.5,1.5,0,0,1,2.24.49l2.43,4.07-.08,0Zm-.72-6.27a2,2,0,0,0-.92.27,1.27,1.27,0,0,0-.66.75,1.89,1.89,0,0,0,.21,1.38l2.16,3.62,2.61-1.42-2.33-3.9A1.22,1.22,0,0,0,399.57,314.52Z"/><path class="cls-7" d="M426,330.41l-45-4.57-1.09,6.54,44.77,4.5Z"/><path d="M424.73,337h-.08l-44.87-4.51,1.12-6.72H381l45.09,4.59ZM380,332.29l44.6,4.49,1.27-6.29-44.8-4.56Z"/><path class="cls-7" d="M380.18,324.15,379,333.22h1.9l1.31-8.3Zm7.51,1.47-.51,8.16,1.16.14,1-7.24Zm30.48,3.52-1.09,7.67,2.18-.07.88-7.6Zm6.7.21-1.56,8.87,2.48.36.71-4.67a2.14,2.14,0,0,0,4.23-.41,2.09,2.09,0,0,0-2.14-2.05,2,2,0,0,0-1.88,1.37l.46-3.32Zm-16.24,1.44-6.18,7,.72.85,7.94-5.42Zm-14.38,17.36,6.19-7-.73-.85-7.94,5.42Zm16.19-1.74-7.53-5.82-.77.55,5.93,7.51ZM391.88,333l7.63,5.62.93-.7-6-7.51Zm8.3-4.64.73,9.15,1-.05,2.41-8.9Zm2.5,22.19-.73-9.15-1.13-.1-1.38,9.25Zm10.12-12.32-9.59,1-.14.92,9.7,1.27ZM390,341.37l9.36-1.48.2-.73-9.69-1.08Z"/><path d="M399.33,350.62l1.41-9.44,1.3.12v.08l.74,9.24Zm1.57-9.24-1.35,9.06h3l-.71-9Zm7.16,7.4-.06-.07-6-7.59.9-.64.06,0,7.61,5.88Zm-5.79-7.62,5.81,7.35,2.22-2.09-7.39-5.72Zm-8,7.12-2.62-2.53,8.1-5.53.83,1-.06.06Zm-2.33-2.5,2.32,2.24,6.07-6.83-.61-.72Zm20.94-4.27h-.11L403,340.22l.17-1.08h.07l9.69-1Zm-9.69-1.45,9.51,1.24,0-3-9.42,1Zm-13.27,1.42-.13-3.5,9.89,1.1-.24.89h-.06Zm.06-3.29.11,3.07,9.2-1.45.16-.57Zm13.19.53-.83-1,.06-.06,6.25-7,2.62,2.53Zm-.58-1,.61.72,7.78-5.31-2.32-2.25Zm-3.06.95-.06,0L391.74,333l2.72-2.73.07.08,6,7.58ZM392,333l7.49,5.51.8-.59-5.86-7.36Zm33.85,5.71-2.66-.38v-.1l1.58-8.95,2.48.16-.4,2.87a2,2,0,0,1,1.71-.93,2.15,2.15,0,1,1,0,4.3,2.24,2.24,0,0,1-2.06-1.33Zm-2.45-.54,2.29.34.7-4.58h.18a2,2,0,0,0,2,1.57,2,2,0,1,0,0-3.93,1.88,1.88,0,0,0-1.79,1.31l-.18,0,.45-3.23-2.12-.13Zm-22.59-.56v-.09l-.74-9.25,4.39.21L402,337.53Zm-.55-9.14.71,8.95.88,0,2.36-8.72ZM417,336.9l0-.1,1.1-7.75h2.15l-.89,7.78Zm1.28-7.67-1.07,7.48,2-.06.86-7.42ZM388.42,334l-1.34-.16.53-8.4,1.78,1.17Zm-1.15-.32,1,.12.93-7.1-1.42-.93Zm-6.28-.39h-2.08L380.1,324l2.22.84Zm-1.87-.18h1.71l1.29-8.15-1.87-.71Z"/><ellipse class="cls-7" cx="401.39" cy="339.25" rx="2.54" ry="2.45"/><path d="M401.39,341.79a2.54,2.54,0,1,1,2.63-2.54A2.6,2.6,0,0,1,401.39,341.79Zm0-4.9a2.36,2.36,0,1,0,2.44,2.36A2.41,2.41,0,0,0,401.39,336.89Z"/><path class="cls-11" d="M414.88,339.25a13.5,13.5,0,1,1-13.49-13A13.27,13.27,0,0,1,414.88,339.25Zm-2.7,0a10.8,10.8,0,1,1-10.79-10.41A10.61,10.61,0,0,1,412.18,339.25Z"/><path d="M401.39,352.35A13.11,13.11,0,1,1,415,339.25,13.36,13.36,0,0,1,401.39,352.35Zm0-26a12.93,12.93,0,1,0,13.39,12.92A13.18,13.18,0,0,0,401.39,326.33Zm0,23.43a10.52,10.52,0,1,1,10.88-10.51A10.72,10.72,0,0,1,401.39,349.76Zm0-20.83a10.33,10.33,0,1,0,10.7,10.32A10.53,10.53,0,0,0,401.39,328.93Z"/><path class="cls-7" d="M393,332.68l-2.11-1.59m17.22.05,1.8-1.84m2.06,18.26-2.21-1.74M393,349.55l1.91-2m43.52-21.11,2.31,11.77-1.88,1-2-12.6Z"/><path d="M393,349.61l-.14-.13,1.91-2,.14.13Zm18.85-2-2.22-1.74.11-.15,2.22,1.74Zm26.87-8.33,0-.12-2.05-12.7,1.79-.18,2.34,11.92Zm-1.85-12.65,2,12.37,1.71-.9-2.28-11.62Zm-44,6.1-2.11-1.59.11-.14,2.12,1.59Zm15.23-1.55-.13-.13,1.81-1.84.13.13Z"/><path class="cls-5" d="M437.18,324.88c-1.07-.45-2.46.31-4.74-2.58-3.76,3.44-.22,4,.35,7.37,1.06.43,1.72-2.65,4.61-3l4.59-.41-1.06-1.45s-2.95.08-3.75,0Z"/><path d="M433,329.8a.52.52,0,0,1-.24-.05l-.05,0v-.05a6.62,6.62,0,0,0-1.22-2.7c-.9-1.37-1.62-2.44.89-4.75l.08-.07.06.08c1.67,2.11,2.84,2.25,3.78,2.36a3.35,3.35,0,0,1,.91.19c.81,0,3.7,0,3.73,0H441l1.18,1.62H442l-4.59.41a4.85,4.85,0,0,0-3.21,2.06C433.76,329.38,433.41,329.8,433,329.8Zm-.12-.2c.36.11.71-.3,1.18-.86a5,5,0,0,1,3.33-2.12c.31,0,3.65-.33,4.43-.4l-.94-1.28c-.39,0-3,.08-3.7,0h0a3,3,0,0,0-.89-.19c-1-.11-2.15-.25-3.83-2.35-2.32,2.15-1.71,3.07-.8,4.45A6.8,6.8,0,0,1,432.88,329.6Z"/><path class="cls-5" d="M438.72,327.19l-.43-3.51c-.46-1.24-2-.18-2,.55l.39,3.24Z"/><path d="M436.6,327.57l-.4-3.33a1.51,1.51,0,0,1,1.19-1.21.85.85,0,0,1,1,.61l.44,3.63h-.09Zm1-4.37h-.15c-.49.09-1,.62-1,1l.38,3.13,1.86-.25-.42-3.42A.65.65,0,0,0,437.57,323.2Z"/><path class="cls-11" d="M427.53,336.9l0,3.27c-1.07.37-.91,1.17-.88,2.34l0,9.54c-.38.63-1.55.66-2.11,1.16s-.48,1.46,2,2.09l1.95.07c3-.65,3.59-1.63,2.1-2.19a6.28,6.28,0,0,1-2.23-1.11l.06-2.28,1.93.08c.52,0,1.51-1.31,1.54-2.37v-4.94c-.07-2.81-2.17-3.12-2.76-3.09l0-2.58Zm3.26,5.46c0-.8-1.11-1.52-1.57-1.54a2.18,2.18,0,0,0-1.5,1.74v2c.06.73.65,3.22,1.83,3.4.56.08,1.28-.8,1.28-1.53l0-4.07Z"/><path d="M428.62,355.47h0l-1.95-.08c-1.79-.44-2.29-1-2.39-1.44a.83.83,0,0,1,.29-.81,3,3,0,0,1,1-.49,2,2,0,0,0,1.08-.63l0-9.51c0-.12,0-.24,0-.36,0-.94-.07-1.68.89-2l0-3.3h2l0,2.58a2.82,2.82,0,0,1,1.81.71,3.36,3.36,0,0,1,.95,2.46v4.95c0,1.08-1,2.46-1.63,2.46l-1.84-.07-.06,2.15a5.85,5.85,0,0,0,1.94,1l.23.09c.72.27.86.59.84.82,0,.58-1.11,1.14-2.95,1.54Zm-1-18.48,0,3.25-.06,0c-.89.3-.87.9-.83,1.88,0,.12,0,.24,0,.36l0,9.58v0a2.17,2.17,0,0,1-1.19.72,2.79,2.79,0,0,0-.93.46.66.66,0,0,0-.24.63c.07.3.46.86,2.24,1.3l1.92.07c2-.44,2.76-1,2.79-1.38,0-.23-.24-.45-.72-.63l-.23-.09a5.33,5.33,0,0,1-2-1.05l0,0,.07-2.4,2,.07c.45,0,1.42-1.25,1.45-2.28v-4.94a3.17,3.17,0,0,0-.9-2.33,2.61,2.61,0,0,0-1.76-.66h-.1l0-2.59Zm2,11.07h-.09c-1.21-.19-1.83-2.66-1.91-3.48v-2a2.3,2.3,0,0,1,1.59-1.83h0a2.07,2.07,0,0,1,1,.5,1.61,1.61,0,0,1,.63,1h0v.1l0,4.06a2,2,0,0,1-.67,1.36A1,1,0,0,1,429.62,348.06Zm-.42-7.15a2.15,2.15,0,0,0-1.39,1.65v2c.06.67.64,3.14,1.75,3.31a.78.78,0,0,0,.57-.23,1.71,1.71,0,0,0,.6-1.21l0-4v-.1a1.34,1.34,0,0,0-.57-1,1.85,1.85,0,0,0-.92-.46Z"/><path class="cls-5" d="M414.55,346.81c-1.27-.52-1.26,2.34-1.26,2.34l2,0c.88.4,1.59,1.69,1,2.32s-4.36-.88-4.62-.07c.69,3.88,5.84,5.37,7.7,3.67s2.28-6.09-3.64-7.25Zm1.19,1.06-.58,1.27"/><path d="M417.27,355.88a6,6,0,0,1-1.86-.32,5.48,5.48,0,0,1-3.8-4.13v0c.16-.52,1.35-.31,2.61-.09.86.16,1.84.33,2,.13a.87.87,0,0,0,.15-.76,2.21,2.21,0,0,0-1.13-1.41l-2.07,0v-.09c0-.07,0-1.91.69-2.38a.7.7,0,0,1,.69,0l0,0,1.2,1c2.58.51,4.27,1.75,4.75,3.48a4,4,0,0,1-1.1,3.93A3.19,3.19,0,0,1,417.27,355.88Zm-5.47-4.45a5.26,5.26,0,0,0,3.67,3.95,4,4,0,0,0,3.87-.35,3.89,3.89,0,0,0,1.05-3.75c-.47-1.65-2.09-2.84-4.58-3.34l-.53,1.14h.05a2.41,2.41,0,0,1,1.25,1.54,1,1,0,0,1-.19.92c-.23.26-1,.15-2.19-.06C413.19,351.31,412,351.09,411.8,351.43Zm1.58-2.37,1.7,0,.56-1.22-1.14-1a.49.49,0,0,0-.5,0C413.46,347.28,413.39,348.69,413.38,349.06Z"/><path class="cls-7" d="M375.89,348.26l-1.93-8.1m4.26,7.64-3-6.31m8.06,4.65-6.68-3.59m9.57,2.86L373.82,340"/><path d="M375.8,348.28l-1.93-8.1h.05l-.13-.05.07-.17,12.38,5.38-.07.16-12.1-5.25,1.9,8Zm2.34-.44-3-6.31.17-.08,3,6.31Zm5.13-1.62-6.67-3.58.09-.17,6.67,3.59Z"/><path class="cls-9" d="M366.43,334.18a34,34,0,0,0-5.31.24c-.33.13,1.13,1.65.83,2.23-1.13,2.17-8.79,1.87-9.39,1.4-1-.81,7.13-1.51,7.19-2.06s-1.21-2.29-1-3.31c.26-1.32,3.58-1.81,3.58-1.81Z"/><path class="cls-9" d="M355.6,338.48a8.57,8.57,0,0,1-3.1-.36.25.25,0,0,1-.12-.27c.11-.42,1.66-.72,4.21-1.17a13.08,13.08,0,0,0,3.07-.71,3.29,3.29,0,0,0-.42-1.16,4,4,0,0,1-.6-2.15c.27-1.37,3.52-1.86,3.66-1.88h0l0,0,4.33,3.47h-.27a33.35,33.35,0,0,0-5.28.24,3.1,3.1,0,0,0,.35.64c.34.55.72,1.17.53,1.54-.33.64-1.21,1.12-2.62,1.43A18.51,18.51,0,0,1,355.6,338.48Zm6.68-7.52c-.37.06-3.23.57-3.46,1.74a3.9,3.9,0,0,0,.59,2,3.47,3.47,0,0,1,.43,1.27c0,.28-.91.46-3.22.86-1.58.28-4,.7-4.06,1,0,0,0,.06.05.08.38.3,4.09.55,6.76,0a3.61,3.61,0,0,0,2.5-1.33c.14-.28-.24-.91-.53-1.36s-.4-.66-.35-.81a.15.15,0,0,1,.09-.1,28.5,28.5,0,0,1,5.09-.26Z"/><path class="cls-10" d="M372.47,338.25l-10.21-8.44s-.45-.48-.82-.07.13.86.13.86l10.53,8.7Z"/><path d="M372.14,339.46l-.1-.09-10.52-8.69a.94.94,0,0,1-.31-.59.55.55,0,0,1,.16-.41.53.53,0,0,1,.41-.19h0a.86.86,0,0,1,.55.26l10.24,8.47Zm-10.36-9.79h0a.38.38,0,0,0-.28.13.45.45,0,0,0-.11.28.77.77,0,0,0,.25.46l10.42,8.61.3-.87-10.16-8.4A.68.68,0,0,0,361.78,329.67Z"/><path class="cls-7" d="M382.29,346.59c-.18-.18-8.31-7.22-8.31-7.22l-.54-2.06a19.3,19.3,0,0,0-1.72,1.29,10.78,10.78,0,0,0-1.17,1.64l2.28.11,7.19,6.59Z"/><path d="M380,347l0,0-7.16-6.56-2.4-.11.08-.13a10.91,10.91,0,0,1,1.19-1.66,18.42,18.42,0,0,1,1.73-1.3l.11-.07.56,2.15c.56.48,8.12,7,8.3,7.2l.13.13Zm-9.28-6.87,2.15.1,0,0,7.16,6.56,2-.31-8.17-7.09,0,0-.52-2a19.8,19.8,0,0,0-1.59,1.21A9.58,9.58,0,0,0,370.71,340.16Z"/><ellipse class="cls-7" cx="411.07" cy="356.26" rx="1.48" ry="1.43"/><path d="M411.07,357.79a1.53,1.53,0,1,1,1.57-1.53A1.55,1.55,0,0,1,411.07,357.79Zm0-2.86a1.34,1.34,0,1,0,1.39,1.33A1.36,1.36,0,0,0,411.07,354.93Z"/><ellipse class="cls-7" cx="407.28" cy="353.59" rx="1.48" ry="1.43"/><path d="M407.28,355.11a1.53,1.53,0,1,1,1.57-1.52A1.56,1.56,0,0,1,407.28,355.11Zm0-2.86a1.34,1.34,0,1,0,1.39,1.34A1.37,1.37,0,0,0,407.28,352.25Z"/><ellipse class="cls-7" cx="402.18" cy="355.34" rx="1.48" ry="1.43"/><path d="M402.18,356.86a1.52,1.52,0,1,1,1.57-1.52A1.55,1.55,0,0,1,402.18,356.86Zm0-2.86a1.34,1.34,0,1,0,1.39,1.34A1.37,1.37,0,0,0,402.18,354Z"/><ellipse class="cls-7" cx="394.31" cy="357.04" rx="1.48" ry="1.43"/><path d="M394.31,358.56a1.52,1.52,0,1,1,1.57-1.52A1.55,1.55,0,0,1,394.31,358.56Zm0-2.86a1.34,1.34,0,1,0,1.38,1.34A1.36,1.36,0,0,0,394.31,355.7Z"/><ellipse class="cls-7" cx="390.97" cy="357.43" rx="1.48" ry="1.43"/><path d="M391,359a1.52,1.52,0,1,1,1.58-1.52A1.55,1.55,0,0,1,391,359Zm0-2.86a1.34,1.34,0,1,0,1.39,1.34A1.36,1.36,0,0,0,391,356.09Z"/><ellipse class="cls-7" cx="387.69" cy="357.43" rx="1.48" ry="1.43"/><path d="M387.69,359a1.52,1.52,0,1,1,1.57-1.52A1.55,1.55,0,0,1,387.69,359Zm0-2.86a1.34,1.34,0,1,0,1.39,1.34A1.37,1.37,0,0,0,387.69,356.09Z"/><ellipse class="cls-7" cx="384.36" cy="357.34" rx="1.48" ry="1.43"/><path d="M384.36,358.86a1.53,1.53,0,1,1,1.57-1.52A1.55,1.55,0,0,1,384.36,358.86Zm0-2.86a1.34,1.34,0,1,0,1.39,1.34A1.36,1.36,0,0,0,384.36,356Z"/><ellipse class="cls-7" cx="385.98" cy="354.8" rx="1.48" ry="1.43"/><path d="M386,356.32a1.52,1.52,0,1,1,1.57-1.52A1.55,1.55,0,0,1,386,356.32Zm0-2.85a1.34,1.34,0,1,0,1.38,1.33A1.36,1.36,0,0,0,386,353.47Z"/><ellipse class="cls-7" cx="389.21" cy="354.95" rx="1.48" ry="1.43"/><path d="M389.21,356.47a1.52,1.52,0,1,1,1.57-1.52A1.54,1.54,0,0,1,389.21,356.47Zm0-2.86A1.34,1.34,0,1,0,390.6,355,1.36,1.36,0,0,0,389.21,353.61Z"/><ellipse class="cls-7" cx="392.29" cy="354.56" rx="1.48" ry="1.43"/><path d="M392.29,356.08a1.52,1.52,0,1,1,1.57-1.52A1.54,1.54,0,0,1,392.29,356.08Zm0-2.86a1.34,1.34,0,1,0,1.39,1.34A1.36,1.36,0,0,0,392.29,353.22Z"/><ellipse class="cls-7" cx="390.72" cy="352.07" rx="1.48" ry="1.43"/><path d="M390.72,353.6a1.53,1.53,0,1,1,1.57-1.52A1.56,1.56,0,0,1,390.72,353.6Zm0-2.86a1.34,1.34,0,1,0,1.39,1.34A1.37,1.37,0,0,0,390.72,350.74Z"/><ellipse class="cls-7" cx="387.69" cy="352.03" rx="1.48" ry="1.43"/><path d="M387.69,353.55a1.52,1.52,0,1,1,1.57-1.52A1.55,1.55,0,0,1,387.69,353.55Zm0-2.86a1.34,1.34,0,1,0,1.39,1.34A1.37,1.37,0,0,0,387.69,350.69Z"/><path class="cls-11" d="M418.94,358.13c0-.63-1.54-.35-1.54-1.1s2.35-.22,2.67.51c1.32-1.19,1.89-.32,2.7,0,1.15-1.71,2.57-1.65,4-.4.8-.88,2.82-.59,3.51.4a2.15,2.15,0,0,1,3.43,0c.38-.69.92-.54,1.31,0,.71-1.26,2.49-.88,3.23-.05.67-.73,1.35-.16,2.23.38.6-.56,1.56-.45,1.56.1s-1.26.38-1.26.95.92.25.92.9-1.36.7-1.57-.11a1.35,1.35,0,0,1-2.29-.28,1.56,1.56,0,0,1-2.49-.12c-.57.47-1.26.54-1.58.06a2.05,2.05,0,0,1-3.37-.34l-.59,0a1.82,1.82,0,0,1-3,0c-1.71,1.23-2.72.84-3.68,0-1.09,1.33-2.76,1.24-3.14,0-.74.53-2.28.66-2.28,0S418.94,358.69,418.94,358.13Zm3.31.3c0,.29-.39.52-.87.52s-.87-.23-.87-.52.39-.52.87-.52S422.25,358.15,422.25,358.43Zm3.64-.43c0,.34-.47.62-1.05.62s-1-.28-1-.62.47-.63,1-.63S425.89,357.65,425.89,358Zm7.15.39c0,.35-.42.63-1,.63s-.95-.28-.95-.63.43-.63.95-.63S433,358,433,358.39Zm-3.81-.16a.93.93,0,1,1-.92-.8A.87.87,0,0,1,429.23,358.23Zm8.12,0a.84.84,0,1,1-.83-.72A.78.78,0,0,1,437.35,358.25Zm-2.49.16a.54.54,0,0,1-1.07,0,.54.54,0,0,1,1.07,0Zm4.85.19a.61.61,0,1,1-.61-.66A.63.63,0,0,1,439.71,358.6Z"/><path d="M440.92,360.31a.92.92,0,0,1-.85-.44,1.35,1.35,0,0,1-1.23.39,1.39,1.39,0,0,1-1.08-.69,1.78,1.78,0,0,1-1.25.48,1.61,1.61,0,0,1-1.22-.65,1.45,1.45,0,0,1-1.07.34.75.75,0,0,1-.49-.27,2.28,2.28,0,0,1-1.94.65,2,2,0,0,1-1.49-1l-.48,0a1.9,1.9,0,0,1-1.64.81,2,2,0,0,1-1.48-.79c-1.72,1.2-2.76.75-3.63,0a2.36,2.36,0,0,1-2.15.89,1.38,1.38,0,0,1-1.06-.88,2.58,2.58,0,0,1-2.05.29.44.44,0,0,1-.27-.4c0-.37.4-.48.74-.58s.57-.17.57-.35-.25-.3-.66-.41-.88-.24-.88-.69c0-.24.16-.4.44-.46a2.88,2.88,0,0,1,2.35.82,1.57,1.57,0,0,1,2.24-.17,3.18,3.18,0,0,0,.4.23,2.64,2.64,0,0,1,1.8-1.27,2.89,2.89,0,0,1,2.19.87,2.11,2.11,0,0,1,1.61-.49,2.73,2.73,0,0,1,1.91.87,2.59,2.59,0,0,1,1.75-.83h0a2.44,2.44,0,0,1,1.64.78.78.78,0,0,1,.58-.41,1,1,0,0,1,.73.36,1.64,1.64,0,0,1,1.24-.73,2.59,2.59,0,0,1,2,.71c.63-.61,1.26-.21,2,.26l.22.14a1.33,1.33,0,0,1,1.31-.28.54.54,0,0,1,.35.49c0,.36-.37.47-.7.57s-.56.18-.56.38.13.22.36.3.56.19.56.6-.27.47-.67.52Zm-.8-.9.06.23a.74.74,0,0,0,.88.48c.29,0,.51-.18.51-.34s-.17-.33-.44-.43-.48-.16-.48-.47.37-.46.69-.56.57-.18.57-.39a.35.35,0,0,0-.24-.32,1.16,1.16,0,0,0-1.17.29l-.05.05-.06,0-.28-.18c-.75-.47-1.29-.81-1.83-.22l-.07.08-.06-.08a2.4,2.4,0,0,0-1.92-.72,1.48,1.48,0,0,0-1.17.75l-.07.12-.08-.1a.86.86,0,0,0-.66-.4c-.19,0-.35.16-.5.42l-.06.11-.08-.09a2.3,2.3,0,0,0-1.59-.81h0a2.49,2.49,0,0,0-1.69.85l-.08.08-.06-.09a2.5,2.5,0,0,0-1.84-.88,1.87,1.87,0,0,0-1.53.5l-.06.06-.07-.06a2.75,2.75,0,0,0-2.11-.88,2.54,2.54,0,0,0-1.72,1.26l0,.06-.07,0a3.36,3.36,0,0,1-.49-.27c-.6-.37-1.11-.68-2.11.22l-.09.08-.05-.11a2.61,2.61,0,0,0-2.2-.83c-.3.07-.3.23-.3.29,0,.29.3.39.75.51s.79.21.79.59-.37.44-.7.53-.6.18-.6.4a.26.26,0,0,0,.16.24,2.43,2.43,0,0,0,2-.34l.11-.08,0,.12a1.22,1.22,0,0,0,1,.88,2.22,2.22,0,0,0,2-.91l.06-.07.07.06c1,.81,1.95,1.12,3.57,0l.08-.06.05.08a1.81,1.81,0,0,0,1.38.79,1.75,1.75,0,0,0,1.51-.78l0,0,.69,0,0,.06a1.81,1.81,0,0,0,1.38,1,2.1,2.1,0,0,0,1.85-.67l.08-.08.06.09a.6.6,0,0,0,.44.28,1.34,1.34,0,0,0,1-.36l.08-.06.05.08a1.45,1.45,0,0,0,1.14.64,1.52,1.52,0,0,0,1.21-.53l.12-.15,0,.19a1.09,1.09,0,0,0,1,.71,1.07,1.07,0,0,0,1.14-.45Zm-1-.06a.72.72,0,0,1-.69-.75.7.7,0,1,1,1.39,0A.72.72,0,0,1,439.1,359.35Zm0-1.32a.55.55,0,0,0-.51.57.52.52,0,1,0,1,0A.55.55,0,0,0,439.1,358Zm-10.79,1.09a.9.9,0,1,1,1-.89A1,1,0,0,1,428.31,359.12Zm0-1.6a.72.72,0,1,0,0,1.41.71.71,0,1,0,0-1.41Zm3.78,1.6c-.58,0-1-.32-1-.73s.47-.72,1-.72,1,.32,1,.72S432.67,359.12,432.09,359.12Zm0-1.27c-.46,0-.85.25-.85.54s.38.54.85.54.86-.24.86-.54S432.56,357.85,432.09,357.85Zm4.43,1.2a.81.81,0,1,1,.92-.8A.87.87,0,0,1,436.52,359.05Zm0-1.42a.63.63,0,1,0,0,1.24.63.63,0,1,0,0-1.24Zm-15.14,1.42c-.54,0-1-.27-1-.62s.42-.61,1-.61,1,.27,1,.61S421.92,359.05,421.38,359.05Zm0-1c-.42,0-.78.19-.78.42s.36.43.78.43.78-.19.78-.43S421.8,358,421.38,358Zm12.95,1a.56.56,0,1,1,0-1.11.56.56,0,1,1,0,1.11Zm0-.92a.37.37,0,1,0,0,.73.37.37,0,1,0,0-.73Zm-9.49.67c-.64,0-1.14-.32-1.14-.72s.5-.72,1.14-.72,1.14.32,1.14.72S425.48,358.72,424.84,358.72Zm0-1.25c-.52,0-.95.24-.95.53s.43.53.95.53,1-.24,1-.53S425.36,357.47,424.84,357.47Z"/></g><path class="cls-7" d="M453.65,347.72l14.12-4.38,6.15-10.5,21.79-1.07-.76,7.88-18.56,3.55-1.76,3.16-21.34,5.94Z"/><path d="M453.19,352.42l.37-4.76.06,0,14.09-4.37,6.16-10.52h.05l21.89-1.08v.11l-.77,7.94-.06,0-18.52,3.54-1.76,3.16h0Zm.54-4.63-.33,4.39,21.16-5.9,1.77-3.16h0l18.5-3.54.73-7.71L474,332.93l-6.14,10.49h0Z"/><path class="cls-10" d="M468.39,350.66l22.3-32.79,1.1.82-22.12,32.93Z"/><path d="M469.69,351.75l-1.42-1.07.05-.07,22.35-32.88,1.24.94-.05.07Zm-1.17-1.11,1.12.85,22-32.78-1-.71Z"/><path class="cls-5" d="M488.62,319.15l2.38-4a1.4,1.4,0,0,1,2.11-.46,1.53,1.53,0,0,1,.48,2.25l-2.2,3.7Z"/><path d="M491.43,320.79l-2.94-1.6,2.43-4.07a1.5,1.5,0,0,1,2.24-.49,1.42,1.42,0,0,1,.74.86,2,2,0,0,1-.23,1.51Zm-2.69-1.67,2.62,1.42,2.16-3.63a1.84,1.84,0,0,0,.21-1.36,1.26,1.26,0,0,0-.66-.76c-.89-.47-1.54-.33-2,.43Z"/><path class="cls-7" d="M465.75,330.41l45-4.57,1.09,6.54-44.77,4.5Z"/><path d="M467,337v-.08l-1.33-6.57h.1l45.07-4.58,1.13,6.72Zm-1.12-6.49,1.27,6.29,44.6-4.49-1.07-6.36Z"/><path class="cls-7" d="M511.54,324.15l1.17,9.07h-1.9l-1.31-8.3ZM504,325.62l.51,8.16-1.17.14-.94-7.24Zm-30.48,3.52,1.09,7.67-2.19-.07-.87-7.6Zm-6.7.21,1.55,8.87-2.47.36-.71-4.67a2.14,2.14,0,0,1-4.23-.41,2.09,2.09,0,0,1,2.14-2.05,2,2,0,0,1,1.88,1.37l-.46-3.32Zm16.23,1.44,6.19,7-.72.85-7.94-5.42Zm14.39,17.36-6.19-7,.72-.85,7.94,5.42Zm-16.19-1.74,7.53-5.82.77.55-5.93,7.51ZM499.84,333l-7.63,5.62-.93-.7,6-7.51Zm-8.3-4.64-.73,9.15-1-.05-2.41-8.9ZM489,350.53l.73-9.15,1.13-.1,1.38,9.25Zm-10.12-12.32,9.59,1,.14.92-9.7,1.27Zm22.81,3.16-9.36-1.48-.2-.73,9.69-1.08Z"/><path d="M492.38,350.62h-3.44l.74-9.32,1.29-.12,0,.08Zm-3.24-.18h3l-1.35-9.06-1,.09Zm-5.48-1.66-2.52-2.38,7.66-5.92.91.64Zm-2.24-2.36,2.22,2.09,5.81-7.35-.64-.46Zm16.05,1.86-6.31-7.09.83-1,.07,0,8,5.48-.08.08Zm-6.07-7.09,6.08,6.83,2.32-2.24L492,340.47Zm-12.54.32,0-3.41h.11l9.65,1,.18,1.08h-.1Zm.15-3.2,0,3,9.51-1.24-.12-.75Zm22.81,3.17-.1,0L492.3,340l-.24-.89h.1L502,338Zm-9.38-1.67,9.2,1.45.12-3.07-9.47,1.05Zm-3.87-1.09-.07,0-8-5.49.08-.08,2.54-2.45,6.3,7.09Zm-7.82-5.55,7.78,5.31.62-.72-6.07-6.84Zm11.46,5.54-1.06-.79.06-.07,6-7.59L500,333l-.08.06Zm-.8-.82.8.59L499.7,333l-2.43-2.44Zm-25.56.79-.66-4.36a2.24,2.24,0,0,1-2.06,1.33,2.15,2.15,0,1,1,0-4.3,2,2,0,0,1,1.71.93l-.4-2.87h.1l2.38-.16,1.59,9.05Zm-.72-4.78h.18l.69,4.58,2.3-.34-1.53-8.69-2.12.13.45,3.23-.18,0a1.89,1.89,0,0,0-1.79-1.31,2,2,0,1,0,0,3.93A2,2,0,0,0,465.13,333.9Zm25.76,3.68-1.18-.05,0-.06-2.44-9h.11l4.28-.21Zm-1-.23.87,0,.72-8.95-3.95.19Zm-15.1-.45h-.11l-2.27-.07v-.08l-.88-7.7h2.15Zm-2.21-.25,2,.06-1.07-7.48h-1.79ZM503.29,334l-1-7.39,1.78-1.17.53,8.4Zm-.77-7.3.93,7.1,1-.12-.49-7.91Zm10.29,6.59h-2.08l-1.33-8.45,2.22-.84v.12Zm-1.92-.18h1.71l-1.14-8.86-1.86.71Z"/><ellipse class="cls-7" cx="490.33" cy="339.25" rx="2.54" ry="2.45"/><path d="M490.33,341.79a2.54,2.54,0,1,1,2.63-2.54A2.59,2.59,0,0,1,490.33,341.79Zm0-4.9a2.36,2.36,0,1,0,2.45,2.36A2.41,2.41,0,0,0,490.33,336.89Z"/><path class="cls-11" d="M476.84,339.25a13.5,13.5,0,1,0,13.49-13A13.27,13.27,0,0,0,476.84,339.25Zm2.7,0a10.8,10.8,0,1,0,10.79-10.41A10.6,10.6,0,0,0,479.54,339.25Z"/><path d="M490.33,352.35a13.11,13.11,0,1,1,13.58-13.1A13.36,13.36,0,0,1,490.33,352.35Zm0-26a12.93,12.93,0,1,0,13.4,12.92A13.18,13.18,0,0,0,490.33,326.33Zm0,23.43a10.52,10.52,0,1,1,10.89-10.51A10.72,10.72,0,0,1,490.33,349.76Zm0-20.83A10.33,10.33,0,1,0,501,339.25,10.53,10.53,0,0,0,490.33,328.93Z"/><path class="cls-7" d="M498.76,332.68l2.11-1.59m-17.22.05-1.8-1.84m-2.07,18.26,2.22-1.74m16.76,3.73-1.91-2M453.33,326.4,451,338.17l1.88,1,2-12.6Z"/><path d="M498.69,349.61l-1.91-2,.14-.13,1.9,2Zm-18.85-2-.11-.15,2.22-1.74.11.15ZM453,339.3l-2.06-1.08,0-.07,2.32-11.85,1.78.18v.1Zm-1.85-1.18,1.71.9,2-12.37-1.42-.15Zm47.69-5.37-.11-.14,2.12-1.59.11.14Zm-15.23-1.55-1.8-1.84.13-.13,1.81,1.84Z"/><path class="cls-5" d="M454.53,324.88c1.07-.45,2.47.31,4.75-2.58,3.76,3.44.22,4-.36,7.37-1.06.43-1.71-2.65-4.6-3l-4.6-.41,1.07-1.45s2.95.08,3.74,0Z"/><path d="M458.72,329.8c-.41,0-.76-.42-1.2-.94a4.85,4.85,0,0,0-3.21-2.06l-4.59-.41h-.17l1.19-1.62h.05s2.91.08,3.72,0a3.5,3.5,0,0,1,.92-.19c.94-.11,2.11-.25,3.78-2.36l.06-.08.07.07c2.52,2.31,1.8,3.38.9,4.75a6.63,6.63,0,0,0-1.23,2.7v.05l-.05,0A.52.52,0,0,1,458.72,329.8Zm-8.83-3.58c.78.07,4.12.36,4.44.4a5,5,0,0,1,3.33,2.12c.47.56.81,1,1.18.86a6.93,6.93,0,0,1,1.24-2.72c.92-1.38,1.53-2.3-.79-4.45-1.68,2.1-2.87,2.24-3.84,2.35a3,3,0,0,0-.88.19h0c-.75,0-3.31,0-3.71,0Z"/><path class="cls-5" d="M453,327.19l.43-3.51c.46-1.24,2-.18,2,.55l-.4,3.24Z"/><path d="M455.11,327.57l-2.21-.3.44-3.6a.85.85,0,0,1,1-.64,1.51,1.51,0,0,1,1.19,1.2Zm-2-.46,1.85.25.39-3.14c0-.39-.55-.92-1-1a.68.68,0,0,0-.79.5Z"/><path class="cls-11" d="M464.19,336.9l0,3.27c1.07.37.91,1.17.87,2.34l0,9.54c.38.63,1.55.66,2.1,1.16s.49,1.46-2,2.09l-1.95.07c-3-.65-3.58-1.63-2.09-2.19a6.28,6.28,0,0,0,2.23-1.11l-.06-2.28-1.93.08c-.52,0-1.51-1.31-1.54-2.37v-4.94c.07-2.81,2.17-3.12,2.76-3.09l0-2.58Zm-3.26,5.46c0-.8,1.11-1.52,1.57-1.54a2.18,2.18,0,0,1,1.5,1.74v2c-.07.73-.65,3.22-1.83,3.4-.56.08-1.28-.8-1.28-1.53l0-4.07Z"/><path d="M463.1,355.47h0c-1.83-.4-2.9-1-2.94-1.54,0-.23.11-.55.84-.82l.23-.09a5.85,5.85,0,0,0,1.94-1l-.06-2.15-1.84.07c-.59,0-1.6-1.38-1.63-2.46v-4.95a3.32,3.32,0,0,1,.95-2.46,2.79,2.79,0,0,1,1.8-.71l0-2.58h2v.09l0,3.21c1,.36.93,1.1.89,2,0,.12,0,.24,0,.36l0,9.51a2,2,0,0,0,1.08.63,3.11,3.11,0,0,1,1,.49.81.81,0,0,1,.28.81c-.1.41-.59,1-2.36,1.44Zm.16-5.77.07,2.4,0,0a5.33,5.33,0,0,1-2,1.05l-.23.09c-.48.18-.74.4-.72.63,0,.38.77.94,2.79,1.38l1.94-.07c1.76-.44,2.14-1,2.22-1.3a.66.66,0,0,0-.24-.63,2.89,2.89,0,0,0-.93-.46,2.17,2.17,0,0,1-1.19-.72l0,0v0l0-9.54c0-.13,0-.25,0-.37,0-1,.06-1.58-.83-1.88l-.06,0,0-3.25h-1.59l0,2.59h-.1a2.55,2.55,0,0,0-1.76.66,3.14,3.14,0,0,0-.9,2.34v4.94c0,1,1,2.27,1.45,2.27Zm-1.16-1.64a1,1,0,0,1-.63-.28,2,2,0,0,1-.67-1.35l0-4.17a1.57,1.57,0,0,1,.63-1,2.07,2.07,0,0,1,1-.5h0a2.27,2.27,0,0,1,1.58,1.82v2c-.07.83-.69,3.3-1.9,3.49ZM461,342.45l0,4a1.72,1.72,0,0,0,.61,1.21.75.75,0,0,0,.57.23c1.11-.17,1.69-2.64,1.75-3.32v-2a2.14,2.14,0,0,0-1.4-1.65h0a1.87,1.87,0,0,0-.91.46,1.34,1.34,0,0,0-.57,1v.1Z"/><path class="cls-5" d="M477.17,346.81c1.27-.52,1.26,2.34,1.26,2.34l-2,0c-.88.4-1.58,1.69-1,2.32s4.35-.88,4.62-.07c-.69,3.88-5.84,5.37-7.7,3.67S470,349,476,347.84ZM476,347.87l.58,1.27"/><path d="M474.45,355.88a3.19,3.19,0,0,1-2.19-.72,4,4,0,0,1-1.1-3.93c.48-1.73,2.17-3,4.75-3.48l1.22-1a.7.7,0,0,1,.69,0c.7.47.7,2.31.7,2.38v.09l-2.08,0a2.23,2.23,0,0,0-1.12,1.41.84.84,0,0,0,.15.76c.18.2,1.15,0,2-.13,1.26-.22,2.45-.43,2.61.09v0a5.48,5.48,0,0,1-3.8,4.13A6,6,0,0,1,474.45,355.88Zm1.46-7.94c-2.49.5-4.12,1.69-4.58,3.34a3.87,3.87,0,0,0,1.05,3.75,4,4,0,0,0,3.87.35,5.26,5.26,0,0,0,3.67-3.95c-.15-.34-1.4-.12-2.4.06-1.21.21-2,.32-2.19.06a1,1,0,0,1-.19-.92,2.38,2.38,0,0,1,1.25-1.54h0Zm.16-.08.56,1.22,1.71,0c0-.37-.08-1.78-.62-2.14a.49.49,0,0,0-.5,0Z"/><path class="cls-7" d="M515.83,348.26l1.93-8.1m-4.27,7.64,3-6.31m-8.05,4.65,6.68-3.59m-9.57,2.86L517.9,340"/><path d="M515.92,348.28l-.18,0,1.91-8-12.1,5.25-.07-.16L517.86,340l.07.17-.13.05h.05Zm-2.34-.44-.17-.08,3-6.31.17.08Zm-5.13-1.62-.09-.16,6.67-3.59.09.17Z"/><path class="cls-9" d="M525.29,334.18a34,34,0,0,1,5.31.24c.32.13-1.13,1.65-.83,2.23,1.12,2.17,8.79,1.87,9.39,1.4,1-.81-7.13-1.51-7.19-2.06s1.21-2.29,1-3.31c-.25-1.32-3.57-1.81-3.57-1.81Z"/><path class="cls-9" d="M536.12,338.48a18.44,18.44,0,0,1-3.81-.36c-1.41-.31-2.29-.79-2.62-1.43-.2-.37.19-1,.53-1.54a2.37,2.37,0,0,0,.34-.65,34.24,34.24,0,0,0-5.27-.23H525l4.36-3.5h0c.14,0,3.39.51,3.65,1.88a4.12,4.12,0,0,1-.59,2.15,3.25,3.25,0,0,0-.42,1.17,13.85,13.85,0,0,0,3.07.7c2.55.45,4.1.75,4.21,1.17a.26.26,0,0,1-.12.27A8.57,8.57,0,0,1,536.12,338.48Zm-9.73-4.4a21.84,21.84,0,0,1,4.24.26.17.17,0,0,1,.1.1c0,.15-.09.38-.35.81s-.68,1.08-.53,1.36a3.61,3.61,0,0,0,2.5,1.33c2.67.59,6.37.34,6.76,0,0,0,.06-.06,0-.08-.08-.34-2.48-.76-4.06-1-2.32-.4-3.19-.58-3.22-.86a3.28,3.28,0,0,1,.43-1.27,3.88,3.88,0,0,0,.58-2c-.22-1.17-3.09-1.68-3.46-1.74l-3.88,3.12Z"/><path class="cls-10" d="M519.25,338.25l10.21-8.44s.45-.48.82-.07-.14.86-.14.86l-10.52,8.7Z"/><path d="M519.58,339.46l-.44-1.24.05,0,10.21-8.44a.86.86,0,0,1,.54-.25h0a.54.54,0,0,1,.41.19.59.59,0,0,1,.16.41,1,1,0,0,1-.3.58Zm-.22-1.18.3.87,10.43-8.62h0a.87.87,0,0,0,.18-.25.39.39,0,0,0-.06-.48.35.35,0,0,0-.27-.13h0a.71.71,0,0,0-.42.2Z"/><path class="cls-7" d="M509.43,346.59c.18-.18,8.31-7.22,8.31-7.22l.54-2.06A19.61,19.61,0,0,1,520,338.6a11.08,11.08,0,0,1,1.18,1.64l-2.28.11-7.19,6.59Z"/><path d="M511.73,347h0l-2.46-.38.13-.13c.18-.17,7.74-6.72,8.29-7.2l.57-2.15.11.07a18.42,18.42,0,0,1,1.73,1.3,10.91,10.91,0,0,1,1.19,1.66l.07.13h-.15l-2.24.1Zm-2.1-.5,2,.31,7.18-6.58h0l2.12-.1a9.58,9.58,0,0,0-1.08-1.49,18.22,18.22,0,0,0-1.6-1.21l-.51,2,0,0C517.72,339.51,510.73,345.56,509.63,346.53Z"/><ellipse class="cls-7" cx="480.65" cy="356.26" rx="1.48" ry="1.43"/><path d="M480.65,357.79a1.53,1.53,0,1,1,1.57-1.53A1.55,1.55,0,0,1,480.65,357.79Zm0-2.86a1.34,1.34,0,1,0,1.39,1.33A1.36,1.36,0,0,0,480.65,354.93Z"/><ellipse class="cls-7" cx="484.44" cy="353.59" rx="1.48" ry="1.43"/><path d="M484.44,355.11a1.53,1.53,0,1,1,1.57-1.52A1.56,1.56,0,0,1,484.44,355.11Zm0-2.86a1.34,1.34,0,1,0,1.38,1.34A1.36,1.36,0,0,0,484.44,352.25Z"/><ellipse class="cls-7" cx="489.54" cy="355.34" rx="1.48" ry="1.43"/><path d="M489.54,356.86a1.52,1.52,0,1,1,1.57-1.52A1.55,1.55,0,0,1,489.54,356.86Zm0-2.86a1.34,1.34,0,1,0,1.38,1.34A1.36,1.36,0,0,0,489.54,354Z"/><ellipse class="cls-7" cx="497.41" cy="357.04" rx="1.48" ry="1.43"/><path d="M497.41,358.56A1.52,1.52,0,1,1,499,357,1.55,1.55,0,0,1,497.41,358.56Zm0-2.86A1.34,1.34,0,1,0,498.8,357,1.37,1.37,0,0,0,497.41,355.7Z"/><ellipse class="cls-7" cx="500.74" cy="357.43" rx="1.48" ry="1.43"/><path d="M500.74,359a1.52,1.52,0,1,1,1.58-1.52A1.55,1.55,0,0,1,500.74,359Zm0-2.86a1.34,1.34,0,1,0,1.39,1.34A1.36,1.36,0,0,0,500.74,356.09Z"/><ellipse class="cls-7" cx="504.03" cy="357.43" rx="1.48" ry="1.43"/><path d="M504,359a1.52,1.52,0,1,1,1.57-1.52A1.55,1.55,0,0,1,504,359Zm0-2.86a1.34,1.34,0,1,0,1.38,1.34A1.36,1.36,0,0,0,504,356.09Z"/><ellipse class="cls-7" cx="507.36" cy="357.34" rx="1.48" ry="1.43"/><path d="M507.36,358.86a1.53,1.53,0,1,1,1.57-1.52A1.55,1.55,0,0,1,507.36,358.86Zm0-2.86a1.34,1.34,0,1,0,1.39,1.34A1.36,1.36,0,0,0,507.36,356Z"/><ellipse class="cls-7" cx="505.74" cy="354.8" rx="1.48" ry="1.43"/><path d="M505.74,356.32a1.52,1.52,0,1,1,1.57-1.52A1.55,1.55,0,0,1,505.74,356.32Zm0-2.85a1.34,1.34,0,1,0,1.39,1.33A1.36,1.36,0,0,0,505.74,353.47Z"/><ellipse class="cls-7" cx="502.51" cy="354.95" rx="1.48" ry="1.43"/><path d="M502.51,356.47a1.52,1.52,0,1,1,1.57-1.52A1.54,1.54,0,0,1,502.51,356.47Zm0-2.86A1.34,1.34,0,1,0,503.9,355,1.36,1.36,0,0,0,502.51,353.61Z"/><ellipse class="cls-7" cx="499.43" cy="354.56" rx="1.48" ry="1.43"/><path d="M499.43,356.08a1.52,1.52,0,1,1,1.57-1.52A1.54,1.54,0,0,1,499.43,356.08Zm0-2.86a1.34,1.34,0,1,0,1.39,1.34A1.36,1.36,0,0,0,499.43,353.22Z"/><ellipse class="cls-7" cx="501" cy="352.07" rx="1.48" ry="1.43"/><path d="M501,353.6a1.53,1.53,0,1,1,1.57-1.52A1.56,1.56,0,0,1,501,353.6Zm0-2.86a1.34,1.34,0,1,0,1.38,1.34A1.36,1.36,0,0,0,501,350.74Z"/><ellipse class="cls-7" cx="504.03" cy="352.03" rx="1.48" ry="1.43"/><path d="M504,353.55A1.52,1.52,0,1,1,505.6,352,1.55,1.55,0,0,1,504,353.55Zm0-2.86a1.34,1.34,0,1,0,1.38,1.34A1.36,1.36,0,0,0,504,350.69Z"/><path class="cls-11" d="M472.78,358.13c0-.63,1.54-.35,1.54-1.1s-2.35-.22-2.67.51c-1.32-1.19-1.89-.32-2.7,0-1.15-1.71-2.57-1.65-4-.4-.8-.88-2.82-.59-3.52.4a2.15,2.15,0,0,0-3.43,0c-.37-.69-.91-.54-1.3,0-.71-1.26-2.49-.88-3.24-.05-.66-.73-1.34-.16-2.22.38-.6-.56-1.56-.45-1.56.1s1.26.38,1.26.95-.92.25-.92.9,1.36.7,1.57-.11a1.35,1.35,0,0,0,2.29-.28,1.56,1.56,0,0,0,2.49-.12c.57.47,1.26.54,1.57.06a2.06,2.06,0,0,0,3.38-.34l.59,0a1.82,1.82,0,0,0,3,0c1.7,1.23,2.72.84,3.67,0,1.1,1.33,2.77,1.24,3.15,0,.74.53,2.27.66,2.27,0S472.78,358.69,472.78,358.13Zm-3.31.3c0,.29.39.52.87.52s.87-.23.87-.52-.39-.52-.87-.52S469.47,358.15,469.47,358.43Zm-3.64-.43c0,.34.47.62,1.05.62s1-.28,1-.62-.47-.63-1-.63S465.83,357.65,465.83,358Zm-7.15.39c0,.35.42.63.95.63s.94-.28.94-.63-.42-.63-.94-.63S458.68,358,458.68,358.39Zm3.81-.16a.87.87,0,0,0,.92.8.81.81,0,1,0,0-1.6A.87.87,0,0,0,462.49,358.23Zm-8.12,0a.83.83,0,1,0,.82-.72A.77.77,0,0,0,454.37,358.25Zm2.48.16a.54.54,0,1,0,.54-.46A.51.51,0,0,0,456.85,358.41Zm-4.84.19a.61.61,0,1,0,.6-.66A.63.63,0,0,0,452,358.6Z"/><path d="M450.8,360.31h-.17c-.39-.05-.66-.26-.66-.52s.31-.52.56-.6.35-.13.35-.3-.21-.28-.55-.38-.7-.21-.7-.57a.53.53,0,0,1,.34-.49,1.34,1.34,0,0,1,1.32.28l.22-.14c.73-.47,1.37-.87,2-.26a2.62,2.62,0,0,1,2-.71,1.66,1.66,0,0,1,1.24.73,1,1,0,0,1,.73-.36.8.8,0,0,1,.58.41,2.4,2.4,0,0,1,1.63-.78h0a2.57,2.57,0,0,1,1.75.83,2.77,2.77,0,0,1,1.91-.87,2.14,2.14,0,0,1,1.62.49,2.88,2.88,0,0,1,2.19-.87,2.64,2.64,0,0,1,1.8,1.27,3.18,3.18,0,0,0,.4-.23,1.57,1.57,0,0,1,2.24.17,2.86,2.86,0,0,1,2.34-.82c.29.06.45.22.45.46,0,.45-.47.58-.88.69s-.66.19-.66.41.22.26.57.35.74.21.74.58a.45.45,0,0,1-.27.4,2.58,2.58,0,0,1-2.05-.29,1.4,1.4,0,0,1-1.06.88,2.36,2.36,0,0,1-2.15-.89c-.87.71-1.92,1.16-3.64,0a1.94,1.94,0,0,1-1.47.79,1.89,1.89,0,0,1-1.64-.81l-.49,0a2,2,0,0,1-1.49,1,2.27,2.27,0,0,1-1.93-.65.75.75,0,0,1-.49.27,1.41,1.41,0,0,1-1.07-.34,1.61,1.61,0,0,1-1.22.65,1.76,1.76,0,0,1-1.25-.48,1.39,1.39,0,0,1-1.08.69,1.35,1.35,0,0,1-1.23-.39A.92.92,0,0,1,450.8,360.31Zm-.43-2.76a.73.73,0,0,0-.32.06.35.35,0,0,0-.24.32c0,.21.21.29.57.39s.69.21.69.56-.26.39-.48.47-.44.17-.44.43.21.3.51.34a.74.74,0,0,0,.88-.48l.06-.23.11.22a1.07,1.07,0,0,0,1.14.45,1.09,1.09,0,0,0,1-.71l0-.19.12.15a1.51,1.51,0,0,0,1.15.53h.06a1.45,1.45,0,0,0,1.14-.64l.05-.08.08.06a1.38,1.38,0,0,0,1,.36.6.6,0,0,0,.44-.28l.06-.09.08.08a2.09,2.09,0,0,0,1.85.67,1.81,1.81,0,0,0,1.38-1l0-.06.7,0,0,0a1.71,1.71,0,0,0,1.51.78,1.81,1.81,0,0,0,1.38-.79l0-.08.08.06c1.62,1.16,2.59.85,3.56,0l.08-.06.05.07a2.22,2.22,0,0,0,2,.91,1.22,1.22,0,0,0,1-.88l0-.12.1.08a2.45,2.45,0,0,0,2,.34.26.26,0,0,0,.16-.24c0-.22-.24-.3-.6-.4s-.7-.19-.7-.53.4-.49.79-.59.74-.22.74-.51c0-.06,0-.22-.29-.29a2.6,2.6,0,0,0-2.2.83l-.05.11-.1-.08c-1-.9-1.51-.59-2.1-.22a3.36,3.36,0,0,1-.49.27l-.07,0-.05-.06a2.52,2.52,0,0,0-1.71-1.26,2.75,2.75,0,0,0-2.11.88l-.07.06-.06-.06a1.88,1.88,0,0,0-1.54-.5,2.49,2.49,0,0,0-1.83.88l-.06.09-.08-.08a2.5,2.5,0,0,0-1.7-.85h0a2.3,2.3,0,0,0-1.59.81l-.09.09-.06-.11c-.14-.26-.3-.4-.49-.42a.84.84,0,0,0-.66.4l-.09.1-.06-.12a1.48,1.48,0,0,0-1.17-.75,2.4,2.4,0,0,0-1.92.72l-.07.08-.06-.08c-.54-.59-1.08-.25-1.83.22l-.29.18-.06,0-.05-.05A1.21,1.21,0,0,0,450.37,357.55Zm2.24,1.8a.72.72,0,0,1-.69-.75.7.7,0,1,1,1.39,0A.72.72,0,0,1,452.61,359.35Zm0-1.32a.55.55,0,0,0-.51.57.54.54,0,0,0,.51.57.53.53,0,0,0,.51-.57A.54.54,0,0,0,452.61,358Zm10.8,1.09a.9.9,0,1,1,1-.89A1,1,0,0,1,463.41,359.12Zm0-1.6a.72.72,0,1,0,.84.71A.79.79,0,0,0,463.41,357.52Zm-3.78,1.6c-.59,0-1-.32-1-.73s.46-.72,1-.72,1,.32,1,.72S460.21,359.12,459.63,359.12Zm0-1.27c-.47,0-.86.25-.86.54s.38.54.86.54.85-.24.85-.54S460.09,357.85,459.63,357.85Zm-4.44,1.2a.81.81,0,1,1,.93-.8A.87.87,0,0,1,455.19,359.05Zm0-1.42a.63.63,0,1,0,0,1.24.63.63,0,1,0,0-1.24Zm15.15,1.42c-.54,0-1-.27-1-.62s.42-.61,1-.61,1,.27,1,.61S470.88,359.05,470.34,359.05Zm0-1c-.42,0-.78.19-.78.42s.36.43.78.43.78-.19.78-.43S470.76,358,470.34,358Zm-12.95,1a.56.56,0,1,1,0-1.11.56.56,0,1,1,0,1.11Zm0-.92a.37.37,0,1,0,0,.73.37.37,0,1,0,0-.73Zm9.49.67c-.64,0-1.14-.32-1.14-.72s.5-.72,1.14-.72,1.14.32,1.14.72S467.51,358.72,466.88,358.72Zm0-1.25c-.52,0-1,.24-1,.53s.44.53,1,.53.95-.24.95-.53S467.39,357.47,466.88,357.47Z"/><path class="cls-8" d="M445.67,333.59c-5,0-9.1,1.89-9.1,4.2a2.22,2.22,0,0,0,.34,1.15c1.09,1.26,4.62,2.17,8.8,2.17,3.91,0,7.25-.8,8.55-1.94a2.24,2.24,0,0,0,.51-1.38c0-2.31-4.07-4.2-9.1-4.2Z"/><path class="cls-8" d="M445.71,341.23c-4.17,0-7.74-.89-8.89-2.22a2.3,2.3,0,0,1-.36-1.22c0-2.38,4.13-4.32,9.21-4.32s9.22,1.94,9.22,4.32a2.35,2.35,0,0,1-.54,1.45C453,340.45,449.58,341.23,445.71,341.23Zm0-7.53c-4.95,0-9,1.84-9,4.09a2.09,2.09,0,0,0,.32,1.09c1.07,1.24,4.66,2.12,8.7,2.12,3.76,0,7.16-.77,8.48-1.92a2.2,2.2,0,0,0,.47-1.29C454.66,335.54,450.63,333.7,445.67,333.7Z"/><path class="cls-7" d="M454.85,338.12v14.11c0,1.66-4.09,3-9.14,3s-9.15-1.34-9.15-3V338.12c0,1.65,4.1,3,9.15,3S454.85,339.77,454.85,338.12Z"/><path d="M445.71,355.32c-5.18,0-9.24-1.35-9.24-3.09V338.12h.19c0,1.6,4.06,2.9,9,2.9s9.05-1.3,9.05-2.9H455v14.11C455,354,450.89,355.32,445.71,355.32Zm-9-16.57v13.48c0,1.6,4.06,2.91,9,2.91s9.05-1.31,9.05-2.91V338.75c-.85,1.42-4.52,2.46-9.05,2.46S437.51,340.17,436.66,338.75Z"/><path class="cls-9" d="M436.56,338.12v2.16L441,354l3.55-10.53,3.89,10.93,2.85-10.32,3.57,6.94v-3.84l-3.32-6.72c-.39.1-.78.19-1.18.26l-2.06,7.63-2.89-7.21c-.48,0-1,0-1.43-.05l-2.91,7.26-3.32-8.74c-.75-.43-1.19-.93-1.19-1.46Z"/><path class="cls-9" d="M448.45,354.68l-3.9-11L441,354.26l-4.53-14v-2.16h.19c0,.47.39.95,1.14,1.39h0l0,0,3.23,8.52,2.85-7.1H444c.48,0,1,0,1.43,0h.06l0,.06,2.79,6.95,2-7.41.06,0c.39-.07.79-.16,1.18-.26l.07,0,3.36,6.83V351l-.18.05-3.45-6.74Zm-3.9-11.52,3.88,10.91,2.83-10.27.11.21,3.39,6.61v-3.45l-3.27-6.64a10.1,10.1,0,0,1-1.06.24l-2.11,7.84-3-7.41c-.43,0-.87,0-1.31,0l-3,7.41-.08-.22-3.31-8.7a2.81,2.81,0,0,1-1-.91v1.53L441,353.68Z"/><path class="cls-8" d="M454.85,349.59v2.64c0,1.65-4.09,3-9.14,3s-9.15-1.35-9.15-3v-2.64c0,1.66,4.1,3,9.15,3s9.14-1.34,9.14-3Z"/><path class="cls-8" d="M445.71,355.32c-5.18,0-9.24-1.36-9.24-3.09v-2.64h.19c0,1.61,4.06,2.91,9,2.91s9.05-1.3,9.05-2.91H455v2.64C455,354,450.89,355.32,445.71,355.32Zm-9-5.09v2c0,1.6,4.06,2.91,9,2.91s9.05-1.31,9.05-2.91v-2c-.85,1.42-4.52,2.46-9.05,2.46S437.51,351.65,436.66,350.23Z"/><path class="cls-7" d="M449.47,352.32a23.72,23.72,0,0,1-2.37.24l0,2.63c.79,0,1.58-.12,2.37-.23Zm-9.73-.46,0,2.63a17.62,17.62,0,0,0,2.37.49v-2.63a17.07,17.07,0,0,1-2.34-.49Zm-3.18-2.26v2.63c0,.5.37.95,1,1.36l0-2.6c-.67-.42-1.06-.89-1.06-1.39Zm18.3.28h-.05a2.85,2.85,0,0,1-1.66,1.45V354c1.06-.49,1.7-1.08,1.7-1.72Z"/><path d="M447,355.29l0-2.82h.09c.77,0,1.57-.12,2.36-.24h.11l0,2.82h-.08a23.39,23.39,0,0,1-2.38.24Zm.17-2.64,0,2.44c.73,0,1.47-.11,2.18-.21l0-2.45C448.65,352.54,447.92,352.61,447.2,352.65Zm-5,2.44-.11,0a18.18,18.18,0,0,1-2.38-.49l-.07,0v-.07l0-2.75.12,0a16.74,16.74,0,0,0,2.34.48h.08Zm-2.37-.67a17.48,17.48,0,0,0,2.18.45v-2.44a17.62,17.62,0,0,1-2.16-.45Zm13.26-.31,0-2.83.06,0a2.69,2.69,0,0,0,1.61-1.39l0-.05.21-.05v2.47c0,.66-.61,1.29-1.75,1.82Zm.17-2.71v2.41c1-.48,1.51-1,1.51-1.58v-2A3.35,3.35,0,0,1,453.24,351.4Zm-15.57,2.36-.14-.09c-.7-.45-1.06-.93-1.06-1.44V349.6h.19c0,.45.34.89,1,1.31l.05,0Zm-1-3.54v2a1.56,1.56,0,0,0,.83,1.19l0-2.38A2.57,2.57,0,0,1,436.66,350.22Z"/><path d="M445.71,355.32c-5.18,0-9.24-1.35-9.24-3.09v-14h.19v14c0,1.6,4.06,2.91,9,2.91s9.05-1.31,9.05-2.91v-14H455v14C455,354,450.89,355.32,445.71,355.32Z"/><path class="cls-5" d="M452.78,337.19c0,1-3.16,1.82-7.07,1.82s-7.08-.82-7.08-1.82,3.17-1.81,7.08-1.81S452.78,336.19,452.78,337.19Z"/><path class="cls-5" d="M445.71,339.1c-3.53,0-7.17-.71-7.17-1.91s3.64-1.91,7.17-1.91,7.17.72,7.17,1.91S449.23,339.1,445.71,339.1Zm0-3.63c-4.18,0-7,.89-7,1.72s2.8,1.72,7,1.72,7-.89,7-1.72S449.88,335.47,445.71,335.47Z"/><path class="cls-7" d="M443.4,338.53l.31,2.5c.61.05,1.25.08,1.91.08l.46-2.58Zm8.2-.6-1.82.49.11,2.36c.59-.1,1.17-.23,1.74-.38Zm-10.81-3.82a11,11,0,0,0-1.44.53l.26,1.89,1.16-.37Zm4.88-.74-.72,0,.4,2.36,1.21,0,.47-2.31c-.45,0-.9-.05-1.36-.05Zm5.35.83-.24,2.07,1.38.49.15-2A10.29,10.29,0,0,0,451,334.2Z"/><path d="M445.71,341.23h-.09c-.59,0-1.22,0-1.92-.08h-.09l-.34-2.72h3Zm-1.9-.3c.62,0,1.18.06,1.71.07l.42-2.35h-2.41Zm6,0-.13-2.58,2.06-.55,0,2.7-.08,0c-.58.15-1.16.28-1.75.38Zm.11-2.4.1,2.13c.51-.09,1-.2,1.51-.33l0-2.23Zm2.36-1.59-1.61-.57.27-2.3.14,0a12.21,12.21,0,0,1,1.3.53l.07,0Zm-1.36-.73,1.15.41.14-1.8a8.92,8.92,0,0,0-1.07-.44Zm-11.39.49-.28-2.11.08,0a11.77,11.77,0,0,1,1.45-.53l.15,0,0,2.28Zm0-2,.22,1.67,1-.31,0-1.8A9,9,0,0,0,439.48,334.71Zm5.77,1.16-.43-2.59.34,0h.51c.45,0,.91,0,1.37.06h.13l-.52,2.52Zm-.16-2.37.36,2.14,1,0,.43-2.09c-.41,0-.82,0-1.22,0h-.58Z"/><path class="cls-7" d="M438,339.75l.36-2.57-1.87-1,.06,2.93Zm16.8-.55.09-2.58-1.76.53Z"/><path d="M438.06,339.89l-1.61-.74-.06-3.14,2.06,1.12Zm-1.43-.85,1.28.58.34-2.39-1.67-.91Zm18.25.4L453,337.1l2-.6Zm-1.6-2.25,1.43,1.76.07-2.2Z"/><path class="cls-7" d="M473.37,322.21c1.66-.23,4.13,2.05,4.27,4.87.12,2.23-3.38,2.12-3.38,2.12-.18.91-2.11,1.76-3.68,1.83s.42-2.87.42-2.87a8.53,8.53,0,0,1,.29-5.49Z"/><path d="M470.53,331.12a.58.58,0,0,1-.54-.26c-.38-.67.69-2.37.91-2.71a8.68,8.68,0,0,1,.31-5.52l0,0h0l2.09-.46a3.16,3.16,0,0,1,2.28.85,5.9,5.9,0,0,1,2.1,4.1,1.73,1.73,0,0,1-.48,1.32,4.5,4.5,0,0,1-2.89.9h0c-.28,1-2.21,1.76-3.75,1.83Zm.83-8.37a8.38,8.38,0,0,0-.28,5.38l0,.05,0,0c-.35.53-1.21,2-.92,2.55.07.12.2.18.43.17,1.65-.08,3.43-.95,3.59-1.76l0-.08h.08a4.48,4.48,0,0,0,2.86-.84,1.47,1.47,0,0,0,.42-1.18,5.71,5.71,0,0,0-2-4,2.94,2.94,0,0,0-2.14-.81Z"/><path class="cls-7" d="M471,328.05l1.6-.06s.12.83.42.86.65-.8.65-.8l2.43-.06"/><path d="M473,328.94h0c-.31,0-.44-.61-.49-.85l-1.52.05V328l1.69-.06V328c.05.3.18.76.34.78s.43-.43.55-.75l0-.05h.06l2.43-.06v.18l-2.37.06C473.64,328.36,473.35,328.94,473,328.94Z"/><path class="cls-9" d="M474.26,323.87c1.36-1,.17-3-.77-3l-2.2.06c-1,0-2.78,1.15-2.55,2.12a1.32,1.32,0,0,0,1.66,1.09c.41-.07,1.26-1.13,1.67-1.15S473.82,324.19,474.26,323.87Z"/><path class="cls-7" d="M470.06,324.28a1.38,1.38,0,0,1-1.41-1.19,1.18,1.18,0,0,1,.29-1,3.54,3.54,0,0,1,2.35-1.25l2.2-.06a1.81,1.81,0,0,1,1.39,1.34,1.56,1.56,0,0,1-.56,1.81h0c-.3.21-.79-.09-1.31-.41a2.43,2.43,0,0,0-.93-.44h0c-.18,0-.52.31-.82.57a2.33,2.33,0,0,1-.83.58Zm3.43-3.3-2.19.06a3.42,3.42,0,0,0-2.21,1.18,1,1,0,0,0-.26.83,1.23,1.23,0,0,0,1.56,1,2.48,2.48,0,0,0,.74-.54c.35-.31.69-.6.93-.61h0a2.4,2.4,0,0,1,1,.46c.43.26.91.56,1.11.42h0a1.39,1.39,0,0,0,.49-1.61C474.5,321.54,474,321,473.49,321Z"/><path class="cls-11" d="M374.48,351.86c-1.23.16-1.46,1.58-1,2.88-5.37,1.51-10.17,3.48-14.91,4.82-.19-.95,2.35-3.69,2.35-3.69.67.32,1.18,1.85,1.18,1.85.16-3.15,3.27-5.25,3.27-5.25-1.84-.25-7.46,1.93-8.13,2.82a8.71,8.71,0,0,1,2.51,0s-4.28,4.63-4.48,6c.67,1.5,8.06,2.62,8.06,2.62a12,12,0,0,1-2.18,1.86c2.94.65,7.37-1.43,8.7-2.7a12.52,12.52,0,0,1-6.15-2.46s.55,1.36.22,2c0,0-4.2-1.21-4.64-1.9,0-.06,9.94-2.63,14.74-4,.18.85,1.13,2.48,2.28,2.09.74-.25.51-1.73.23-2.78a1.5,1.5,0,1,0,1-2.58,1.52,1.52,0,0,0-1.44,1c-.19-.9-.69-2.71-1.62-2.59Zm3.78,3.06a.72.72,0,1,1-.71-.69A.7.7,0,0,1,378.26,354.92Z"/><path d="M362.35,366a5.37,5.37,0,0,1-1.22-.13l-.2,0,.17-.12a15.5,15.5,0,0,0,2.09-1.71c-1-.17-7.36-1.23-8-2.66v-.05c.19-1.29,3.79-5.27,4.41-5.95a9.91,9.91,0,0,0-2.34.05l-.21,0,.13-.17c.65-.87,6.28-3.12,8.22-2.86l.24,0-.2.14s-3.08,2.11-3.24,5.18l-.18,0s-.47-1.41-1.07-1.77c-.69.76-2.28,2.66-2.28,3.46,2.25-.64,4.5-1.42,6.88-2.23s5.09-1.75,7.83-2.53a2.78,2.78,0,0,1,.08-2.27,1.37,1.37,0,0,1,1-.64h0c.91-.11,1.41,1.35,1.66,2.4a1.6,1.6,0,0,1,1.4-.82h0a1.57,1.57,0,1,1,0,3.13h0a1.69,1.69,0,0,1-.85-.23c.27,1.11.39,2.39-.36,2.64a1.2,1.2,0,0,1-1-.13,3.37,3.37,0,0,1-1.34-1.94c-2.69.77-7,1.91-10.14,2.75-2.07.56-3.9,1-4.37,1.18.58.55,3.28,1.42,4.43,1.75a3.55,3.55,0,0,0-.25-1.86l.14-.1a12.56,12.56,0,0,0,6.1,2.44l.2,0-.15.14A13.41,13.41,0,0,1,362.35,366Zm-1-.26c2.78.47,6.81-1.34,8.26-2.59a12.91,12.91,0,0,1-5.75-2.27,2.74,2.74,0,0,1,.11,1.79l0,.06-.08,0c-.17-.05-4.23-1.23-4.68-1.94l0,0v0c0-.08,0-.08,4.57-1.29,3.19-.85,7.55-2,10.24-2.78l.09,0,0,.1a3.26,3.26,0,0,0,1.28,1.92,1.06,1.06,0,0,0,.88.11c.73-.25.36-2,.17-2.67l-.07-.29.22.19a1.42,1.42,0,0,0,.94.35h0a1.39,1.39,0,1,0,0-2.77h0a1.42,1.42,0,0,0-1.34,1l-.11.31-.07-.32c-.16-.77-.62-2.52-1.44-2.52h-.07a1.18,1.18,0,0,0-.9.56,2.68,2.68,0,0,0,0,2.2l0,.09-.09,0c-2.77.78-5.38,1.68-7.91,2.55s-4.7,1.62-7,2.26l-.1,0,0-.1c-.19-1,2.27-3.65,2.37-3.77l0-.05.06,0a3.17,3.17,0,0,1,1.08,1.54,8,8,0,0,1,3.08-4.78h-.07a19.35,19.35,0,0,0-7.56,2.64,6.44,6.44,0,0,1,2.31,0l.09.06-.07.08c-.05,0-4.21,4.56-4.45,5.92.71,1.43,7.9,2.53,8,2.54l.11,0,0,.1A9.87,9.87,0,0,1,361.38,365.73Zm16.15-10a.78.78,0,1,1,.82-.78A.8.8,0,0,1,377.53,355.7Zm0-1.38a.6.6,0,1,0,0,1.2h0a.6.6,0,1,0,0-1.2Z"/><path class="cls-7" d="M532.14,357.92c.36-.73-.33-4.42-.33-4.42-.74.08-1.76,1.36-1.76,1.36,1-3-1.73-8.08-1.73-8.08,1.82.38,7.89,6.26,8.2,7.32a15.13,15.13,0,0,0-3.06-.83c.44,3,2.52,4.41,3.3,6,0,0-3.45.76-3.1,3.64l-2.26,0c-.78-1,.31-2.55.31-2.55l-15.48-6.48c-1-.42-3.24-1.44-2.9-2.64s4,.5,4.94.8Z"/><path d="M531.36,363l0,0c-.71-.88,0-2.2.24-2.57L516.19,354c-2.21-.93-3.2-1.85-3-2.74a.59.59,0,0,1,.32-.39c.8-.4,2.84.39,4.05.87l.68.25,13.79,5.83a15.53,15.53,0,0,0-.34-4.2c-.69.16-1.61,1.3-1.62,1.32l-.16-.09c.94-2.95-1.7-7.95-1.72-8l-.09-.17.19,0c1.81.37,7.94,6.27,8.27,7.37l0,.18-.17-.07a16.94,16.94,0,0,0-2.92-.83,8.68,8.68,0,0,0,2.18,4.29,10.19,10.19,0,0,1,1.1,1.56l0,.11-.12,0s-3.36.78-3,3.55v.1Zm-17.22-12.09a1.07,1.07,0,0,0-.5.09.41.41,0,0,0-.23.27c-.22.78.74,1.63,2.86,2.52l15.58,6.53-.07.09s-1,1.51-.33,2.41l2.11,0c-.24-2.55,2.47-3.45,3.07-3.61a10.71,10.71,0,0,0-1-1.44,8.83,8.83,0,0,1-2.24-4.47v-.08l.08,0a11.85,11.85,0,0,1,2.91.76c-.77-1.38-6-6.34-7.85-7,.46.92,2.32,4.84,1.74,7.57a3.3,3.3,0,0,1,1.56-1.09h.09v.08c0,.15.69,3.73.32,4.48l0,.08-.08,0-13.87-5.87-.68-.25A12,12,0,0,0,514.14,350.93Z"/><path class="cls-7" d="M517.27,355.24l1.82-3.35c.65-.88-.69-1.84-1.65-.71l-2,3.05c-.9,1.67,1,2.13,1.87,1Z"/><path d="M516.07,355.94a1.11,1.11,0,0,1-.61-.16c-.46-.3-.51-.9-.14-1.59l2-3.06a1.2,1.2,0,0,1,1.67-.35.81.81,0,0,1,.12,1.16l-1.82,3.35A1.6,1.6,0,0,1,516.07,355.94Zm2.35-5.18a1.22,1.22,0,0,0-.91.48l-2,3c-.32.6-.29,1.1.08,1.35a1.29,1.29,0,0,0,1.63-.45l1.82-3.34a.62.62,0,0,0-.09-.91A.78.78,0,0,0,518.42,350.76Z"/><path class="cls-5" d="M408.73,360.73l-.12-3.65-4.42.25-.25,4Z"/><path d="M403.75,361.51l.27-4.36,4.76-.26.14,4Zm.62-4-.23,3.59,4.41-.52-.12-3.29Z"/><path class="cls-5" d="M376.47,365.85l-5.9-3.31c24.34,2.23,29.31-6.26,35.19-6.72,3.62-.28,4.18,4-2.83,2l1.82,4.48S387.47,372,370.49,368Zm106-5.12.12-3.65,5.4.13.25,4Z"/><path d="M379.08,369.12a37.15,37.15,0,0,1-8.63-1l-.61-.14,6.19-2.2-5.55-3.11.11-.34c17.14,1.56,24.65-2.2,29.63-4.69a15.47,15.47,0,0,1,5.53-2,2.72,2.72,0,0,1,2.68,1.06,1,1,0,0,1-.1,1.13c-.68.83-2.57.92-5.09.24l1.74,4.28-.14.08C404.69,362.51,392.75,369.12,379.08,369.12Zm-7.94-1.18c15.72,3.4,31.71-4.86,33.38-5.75l-1.9-4.68.37.1c3,.88,4.58.57,5.05,0a.63.63,0,0,0,.07-.73,2.38,2.38,0,0,0-2.34-.86c-1.69.13-3.32.95-5.39,2-4.92,2.47-12.33,6.19-29,4.8l5.52,3.1Zm117.33-6.56-6.16-.48.14-4,5.74.14Zm-5.78-.82,5.39.42-.23-3.59-5.05-.12Z"/><path class="cls-5" d="M515.88,365l5.55-3c-27.88.83-21.53-4.57-35.48-6.09-3.6-.39-6.31,4.24,2.83,2L487,362.28h4.38c9.5,6.25,22.31,6.81,30.8,4.8L515.88,365Z"/><path d="M512.8,368.29c-7.17,0-15.15-1.66-21.5-5.83h-4.6l1.77-4.41c-3.2.77-5.29.74-5.9-.06a.87.87,0,0,1,0-1,3.63,3.63,0,0,1,3.42-1.34,27.22,27.22,0,0,1,10.08,2.83c3.94,1.86,8,3.78,25.38,3.26l.09.34-5.19,2.83,6.49,2.2-.62.15A41.25,41.25,0,0,1,512.8,368.29Zm-25.56-6.2h4.17l0,0c9.06,6,21.47,6.77,30,4.92l-5.58-1.9-.21.11v-.56l.17.06,4.81-2.63c-16.81.44-20.86-1.47-24.78-3.32a26.64,26.64,0,0,0-10-2.8,3.33,3.33,0,0,0-3.06,1.16.53.53,0,0,0,0,.6c.4.53,2.16.77,5.87-.16l.35-.08Z"/><path class="cls-5" d="M402.84,357.82v6.3s15.45,5.74,43,5.74,43-5.74,43-5.74v-6.3s-11.7,5.39-43,5.39-43-5.39-43-5.39Z"/><path d="M445.87,370c-27.3,0-42.94-5.69-43.1-5.74l-.12-.05v-6.72l.26.12c.12.05,12.16,5.37,43,5.37s42.85-5.32,43-5.37l.26-.12v6.72l-.11.05C488.82,364.35,473.29,370,445.87,370ZM403,364c1.5.52,16.88,5.68,42.85,5.68s41.37-5.16,42.86-5.68v-5.91c-1.9.77-14.32,5.3-42.86,5.3s-40.95-4.54-42.85-5.3Z"/><path d="M405.15,364.16l1.36-4.62.63.18-1.2,4.07,2.36.65-.16.54Zm4.47-2,.07-.91.21-.78.67.17-.2.78-.39.83-.36-.09Zm6.65-.31.64.12-.57,2.72a3.22,3.22,0,0,1-.4,1.1,1.5,1.5,0,0,1-.75.56,2.22,2.22,0,0,1-1.19,0,2.45,2.45,0,0,1-1.08-.45,1.36,1.36,0,0,1-.48-.78,3.28,3.28,0,0,1,.06-1.22l.58-2.72.64.13-.57,2.71a2.48,2.48,0,0,0-.07.93.93.93,0,0,0,.31.53,1.42,1.42,0,0,0,.67.29,1.38,1.38,0,0,0,1.08-.11,1.83,1.83,0,0,0,.56-1.14Zm.73,5,.8-4.74.67.1,1.95,4.13.63-3.72.62.1-.8,4.74-.67-.11-1.95-4.13-.63,3.73Zm5.08.76.68-4.75.65.08-.68,4.76Zm1.87-2.09a2.61,2.61,0,0,1,.88-1.79,2.32,2.32,0,0,1,1.79-.48,2.43,2.43,0,0,1,1.2.45,2.08,2.08,0,0,1,.73,1,2.7,2.7,0,0,1,.14,1.31,2.75,2.75,0,0,1-.46,1.27,2.12,2.12,0,0,1-1,.77,2.5,2.5,0,0,1-1.24.16,2.43,2.43,0,0,1-1.21-.46,2.23,2.23,0,0,1-.73-1,2.67,2.67,0,0,1-.14-1.22Zm.68.08A1.81,1.81,0,0,0,425,367a1.57,1.57,0,0,0,1.14.63,1.61,1.61,0,0,0,1.28-.37,2,2,0,0,0,.64-1.37,2.3,2.3,0,0,0-.08-1,1.42,1.42,0,0,0-.52-.73,1.63,1.63,0,0,0-.85-.34,1.7,1.7,0,0,0-1.25.33,2,2,0,0,0-.68,1.48Zm4.61,2.83.41-4.78.67.05,2.29,4,.32-3.75.63.05-.41,4.78-.67-.05-2.29-4-.32,3.76Zm7,.49.22-4.8,3.35.14,0,.57-2.7-.12-.07,1.49,2.34.1,0,.56-2.33-.09-.1,2.18-.66,0Zm3.67.16,2-4.77h.71l1.94,4.84h-.75l-.56-1.47-2.08,0-.57,1.44Zm1.47-1.95,1.69,0-.49-1.34a9,9,0,0,1-.33-1,6.89,6.89,0,0,1-.29.91Zm3.83,2v-4.8h.66v4.8Zm3.09,0-.07-4.24-1.64,0v-.57l3.94-.06v.57l-1.65,0,.06,4.24h-.65Zm4.88-.12-.23-4.8.66,0,.2,4.24,2.45-.11,0,.56Zm3.35-.14,1.55-4.92.71-.05,2.39,4.65-.75.05-.69-1.41-2.07.14-.44,1.49Zm1.29-2.07,1.68-.12-.62-1.29c-.15-.31-.29-.64-.42-1a6,6,0,0,1-.2.94Zm5.84,1.52-.55-4.78,3.34-.35.07.56-2.69.29.17,1.47,2.33-.24.06.56-2.32.25.25,2.17Zm3.65-2.74a2.51,2.51,0,0,1,.39-1.95,2.26,2.26,0,0,1,1.6-.9,2.46,2.46,0,0,1,1.27.14,2.16,2.16,0,0,1,1,.77,2.74,2.74,0,0,1,.48,1.23,2.84,2.84,0,0,1-.11,1.34,2.1,2.1,0,0,1-.73,1,2.51,2.51,0,0,1-1.16.46,2.48,2.48,0,0,1-1.29-.15,2.15,2.15,0,0,1-1-.78,2.64,2.64,0,0,1-.46-1.14Zm.68-.09a1.89,1.89,0,0,0,.67,1.29,1.73,1.73,0,0,0,2.42-.34,2,2,0,0,0,.26-1.48,2.27,2.27,0,0,0-.35-1,1.52,1.52,0,0,0-.69-.59,1.62,1.62,0,0,0-.92-.12,1.71,1.71,0,0,0-1.12.62,2,2,0,0,0-.27,1.6Zm5.22,1.62-.89-4.73,2.18-.38a3.09,3.09,0,0,1,1-.05,1.13,1.13,0,0,1,.62.36,1.3,1.3,0,0,1,.34.67,1.16,1.16,0,0,1-.18.91,1.7,1.7,0,0,1-1,.62,1.67,1.67,0,0,1,.44.17,3.41,3.41,0,0,1,.66.53l1.09,1.14-.82.14-.83-.87a7.94,7.94,0,0,0-.59-.57,1.77,1.77,0,0,0-.39-.26,1.14,1.14,0,0,0-.32-.07,2.2,2.2,0,0,0-.36,0l-.75.13.39,2.1Zm.15-2.76,1.4-.24a2,2,0,0,0,.67-.21.73.73,0,0,0,.38-.8.71.71,0,0,0-.35-.51,1.25,1.25,0,0,0-.84-.07l-1.55.27Zm7.87-.52.68,0a2,2,0,0,1-1.65,2,2.53,2.53,0,0,1-1.35,0,2,2,0,0,1-1-.73,3.36,3.36,0,0,1-.55-1.2,2.76,2.76,0,0,1,0-1.34,1.92,1.92,0,0,1,.63-1,2.56,2.56,0,0,1,1.11-.54,2.2,2.2,0,0,1,1.31.09,2,2,0,0,1,.93.86l-.6.28a1.62,1.62,0,0,0-.67-.64,1.38,1.38,0,0,0-.86,0,1.66,1.66,0,0,0-.88.46,1.32,1.32,0,0,0-.36.81,2.43,2.43,0,0,0,.06.93,2.77,2.77,0,0,0,.42,1,1.33,1.33,0,0,0,.72.55,1.72,1.72,0,0,0,.87,0,1.44,1.44,0,0,0,.85-.5,1.57,1.57,0,0,0,.3-1Zm1.83,1.3-1.34-4.62,3.46-.94.16.55-2.83.76.41,1.42,2.65-.71.16.54-2.65.71.45,1.58,2.95-.8.15.55Z"/></g><g id="Layer_1" data-name="Layer 1"><path class="cls-12" d="M861.1,6A25,25,0,0,1,886,30.9V569a24.9,24.9,0,0,1-24.9,24.9H30.9A24.82,24.82,0,0,1,6,569.1V30.9A25,25,0,0,1,30.9,6H861.1m0-6H30.9A30.86,30.86,0,0,0,0,30.9H0V569a30.88,30.88,0,0,0,30.9,31H861a30.86,30.86,0,0,0,30.9-30.9V30.9A30.71,30.71,0,0,0,861.1,0Z"/></g></svg>