<?xml version="1.0" encoding="utf-8"?>
<!-- Generator: Adobe Illustrator 23.0.2, SVG Export Plug-In . SVG Version: 6.00 Build 0)  -->
<svg version="1.1" id="Layer_1" xmlns="http://www.w3.org/2000/svg" xmlns:xlink="http://www.w3.org/1999/xlink" x="0px" y="0px"
	 viewBox="0 0 600 600" style="enable-background:new 0 0 600 600;" xml:space="preserve">
<style type="text/css">
	.st0{fill:#FFFFFF;}
</style>
<g>
	<path d="M300,10c0,0,41.2,30.5,92.2,30.5c41.8,0,75.7-25.7,75.7-25.7l81.7,85.5c0,0-41.9,39.2-41.9,87.6
		c0,67.2,45.1,104.4,45.1,184c0,98.2-69,119.7-119.4,130.6C382.9,513.3,330.3,517,300,590c-30.3-73-82.9-76.7-133.4-87.5
		c-50.5-10.9-119.4-32.4-119.4-130.6c0-79.6,45.1-116.8,45.1-184c0-48.4-41.9-87.6-41.9-87.6l81.7-85.5c0,0,33.9,25.7,75.7,25.7
		C258.8,40.5,300,10,300,10"/>
	<path class="st0" d="M392.2,60.2c-40.4,0-74.9-16.7-92.2-26.8c-17.3,10.1-51.8,26.8-92.2,26.8c-30.4,0-56.9-11.5-72.6-20.2
		l-58,60.7c14.2,17.7,34.7,49.7,34.7,87.2c0,36-11.5,64.1-22.6,91.2c-11.6,28.3-22.5,55.1-22.5,92.7c0,17.1,2.3,31.9,6.9,44.8
		L436,52.7C423.2,57,408.2,60.2,392.2,60.2z"/>
	<path class="st0" d="M488,187.9c0-13.5,2.7-26.3,6.7-38L164.4,481.8c2.1,0.5,4.2,1,6.3,1.4c4.6,1,9.3,1.9,13.9,2.9
		c39.6,8,83.5,16.8,115.3,62.6c31.8-45.8,75.8-54.6,115.3-62.6c4.6-0.9,9.3-1.9,13.9-2.9c23.6-5.1,50.4-12.5,70.4-28.6
		c22.5-18.2,33.5-45.2,33.5-82.7c0-37.6-10.9-64.4-22.5-92.7C499.5,252,488,223.9,488,187.9z"/>
	<path d="M279.2,162.4c1.6-6.1,2.5-12.5,2.5-19.2c0-40.8-33.1-73.9-73.9-73.9c-40.8,0-73.9,33.1-73.9,73.9
		c0,40.8,33.1,73.9,73.9,73.9c34.1,0,62.7-23.1,71.3-54.4C279.2,162.6,279.2,162.5,279.2,162.4L279.2,162.4z"/>
	<path class="st0" d="M138.6,143.2c0-14.3,4.3-27.5,11.7-38.6l24.3,0.7c-3,2-5.5,4.6-7.5,7.6c-3.7,5.7-5.5,12.9-6.6,21.8
		c-2.7,1.4-5.4,3.3-8.1,5.4c-4.8,3.8-9.3,8.6-13,13.6C138.9,150.3,138.6,146.8,138.6,143.2z"/>
	<path class="st0" d="M260.2,140.2c-0.7-7.4-5.1-14.1-10.6-23c-1-1.7-2.1-3.4-3.3-5l15.4-12.3c9,11.1,14.6,25.1,15.3,40.4H260.2z"/>
	<path class="st0" d="M211.5,162.1c-1.4-5.4-5.4-8.8-10.3-10.5c-4.1-1.5-9-2-14.3-2.2c0.9-2,1.4-4,1.5-6.2c0-2.8-1.2-5.8-3.8-7.9
		c-2.6-2.1-6.4-3.3-11.7-3.8c-0.4,0-0.9-0.1-1.4-0.1c-2,0-4,0.4-6,1c1.1-7.2,2.8-12.9,5.6-17.1c3-4.6,7-7.6,13.5-9.6
		c23.6,15.2,40.1,29.6,50.1,55.1c-3,5.5-6.3,8.3-10.4,10.1c-3.5,1.4-7.6,2-12.4,2.1c0.6-1.3,0.8-2.8,0.8-4.2
		C212.6,166.8,212.1,164.5,211.5,162.1z"/>
	<path class="st0" d="M196.6,188.4c-1.7,5.4-2,11-2,18c0,1.5,0,3.1,0,4.8c-12.3-2.4-23.5-8-32.5-16c1.3-9,4.2-15.5,8-21.6
		c3.9-6.2,8.9-12.1,14.1-19.4c6.1,0,11.5,0.5,15.4,1.9c4,1.5,6.3,3.6,7.4,7.3c0.6,2.2,1,4.1,0.9,5.5c0,1.5-0.3,2.4-0.9,3
		C201.5,177.9,198.3,183,196.6,188.4z"/>
	<path class="st0" d="M171.5,136.2c0.3,0,0.6,0,0.9,0c4.7,0.4,7.6,1.6,9.2,2.8c1.5,1.3,2,2.5,2.1,4.2c0,2.1-1.1,4.9-2.9,7.5
		c-5.1,7.4-10.3,13.4-14.6,20.3c-3.6,5.7-6.6,12.1-8.1,20.1c-8.3-8.6-14.3-19.2-17.3-31.1c3.8-5.9,9.1-11.9,14.6-16.3
		C161,139.1,167.1,136.2,171.5,136.2z"/>
	<path class="st0" d="M238.8,158.7c-10.3-26-27.6-41.1-50.8-56.2c2.8-4.8,5.3-8.1,7.9-10.3c2.9-2.4,5.8-3.4,9.9-3.5
		c8.7,0,16.2,3.7,22.8,9.5c6.6,5.7,12.3,13.5,17.1,21.3c6.1,9.8,10.1,16.4,10,22.5c0,0.9-0.1,1.9-0.3,2.8c-1.1,5.5-3.2,8.8-6.1,10.8
		C246.6,157.6,243.1,158.5,238.8,158.7z"/>
	<path class="st0" d="M243.6,108.2c-3.6-4.9-7.5-9.6-12-13.5c-4.7-4.1-10.1-7.4-16.1-9.2l0.7-11.1c15.7,1.9,29.9,9.1,40.5,19.8
		c0.6,0.6,1.3,1.3,1.9,2L243.6,108.2z"/>
	<path class="st0" d="M210.9,84.5c-1.7-0.3-3.4-0.4-5.2-0.4c-1.7,0-3.4,0.2-5,0.6l-0.4-10.3c2.4-0.3,4.9-0.4,7.4-0.4
		c1.3,0,2.5,0,3.8,0.1L210.9,84.5z"/>
	<path class="st0" d="M195.7,75l0.4,11.4c-1.1,0.6-2.2,1.4-3.3,2.2c-3.4,2.8-6.3,6.9-9.3,12.2l-29.8-0.9c1.6-2,3.3-4,5.2-5.8
		C168.7,84.4,181.5,77.5,195.7,75z"/>
	<path class="st0" d="M199.3,211.9c0-2,0-3.8,0-5.6c0-0.9,0-1.7,0-2.5c4,0.5,7.8,0.7,11.5,0.7c0,0,0,0,0.1,0
		c14.7,0,27-3.7,37.9-10.9c7.3-4.7,14-11,20.5-18.5c-3.3,6.3-7.5,12.1-12.5,17.1c-12.5,12.5-29.8,20.3-49,20.3
		C204.9,212.4,202.1,212.2,199.3,211.9z"/>
	<path class="st0" d="M246.2,189.7c-10.3,6.7-21.5,10.1-35.5,10.2c-3.6,0-7.4-0.2-11.3-0.7c0.2-3.5,0.7-6.5,1.6-9.3
		c1.2-3.9,3.3-7.6,7-12c6.6,0,12.6-0.4,17.9-2.5c5-2,9.3-5.8,12.6-11.9c5-0.2,9.6-1.2,13.3-3.8c4.1-2.8,6.9-7.4,8.1-13.8
		c0.1-0.3,0.1-0.6,0.1-0.9H277c-0.1,5.4-0.9,10.7-2.2,15.7C265.4,173.4,256.3,183.1,246.2,189.7z"/>
	<rect x="199.6" y="393" transform="matrix(0.7042 -0.71 0.71 0.7042 -226.164 264.4542)" class="st0" width="9.4" height="21.2"/>
	<polygon class="st0" points="408.2,104.7 438.2,134.4 399.8,113.1 393.4,119.6 447.6,173.3 454.1,166.8 424.3,137.3 462.4,158.4 
		468.9,151.9 414.7,98.2 	"/>
	<path class="st0" d="M136.7,378.5l45.9,62.2l7-7.1l-7.9-10l7.8-7.9l10,7.8l7.2-7.2l-62.6-45.3L136.7,378.5z M176.3,405.5l-4.9,4.9
		l-17-21.8L176.3,405.5z"/>
	<polygon class="st0" points="246,295 232.6,281.7 211.7,302.8 225.1,316.1 232.1,309 272.9,349.5 279.8,342.6 239,302.1 	"/>
	<polygon class="st0" points="202.3,312.3 232.3,342.1 193.9,320.8 187.5,327.2 241.7,381 248.2,374.5 218.4,345 256.5,366.1 
		262.9,359.6 208.7,305.8 	"/>
	<path class="st0" d="M102.2,413.2l45.9,62.2l7-7.1l-7.9-10l7.8-7.9l10,7.8l7.2-7.2l-62.6-45.3L102.2,413.2z M141.9,440.3l-4.9,4.9
		l-17-21.8L141.9,440.3z"/>
	
		<rect x="165.1" y="427.8" transform="matrix(0.7041 -0.7101 0.7101 0.7041 -261.0343 250.2763)" class="st0" width="9.4" height="21.2"/>
	
		<rect x="201.3" y="324.4" transform="matrix(0.7041 -0.7101 0.7101 0.7041 -196.4417 253.6825)" class="st0" width="9.8" height="76.3"/>
	
		<rect x="381.4" y="142.8" transform="matrix(0.7042 -0.71 0.71 0.7042 -14.2278 327.8192)" class="st0" width="9.8" height="76.3"/>
	<path class="st0" d="M313.9,199.8l45.9,62.2l7-7.1l-7.9-10l7.8-7.9l10,7.8l7.2-7.2l-62.6-45.3L313.9,199.8z M353.5,226.9l-4.9,4.9
		l-17-21.8L353.5,226.9z"/>
	<path class="st0" d="M397,209.6c-1.9-3.6-4.7-7.7-8.4-12.1l-10.5,1.7c3.1,3.7,5.3,6.8,6.4,9.2c1.1,2.5,1,4.4-0.3,5.7
		c-1.4,1.4-3.5,1.3-6.5-0.1c-3-1.5-7.5-5.2-13.5-11.1c-4.9-4.8-8.1-8.7-9.7-11.6c-2.2-3.9-2.6-6.6-1-8.1c0.7-0.7,1.6-1,2.9-0.9
		c1.2,0.1,2.7,0.6,4.4,1.5c1,0.5,2.4,1.5,4.3,2.9l2.8-9.4c-6.5-4.9-11.9-7.9-16.3-9c-4.4-1.1-7.9-0.3-10.7,2.5
		c-3.6,3.6-3.9,8.8-1.1,15.5c2.9,6.7,8.8,14.6,17.8,23.5c6.7,6.7,12.8,11.6,18.2,14.7c5.4,3.2,9.8,4.8,13,5c3.2,0.2,6.1-1,8.5-3.4
		c2-2,2.9-4.3,2.8-7C399.9,216.3,398.9,213.2,397,209.6z"/>
	<polygon class="st0" points="284.5,313.3 273.8,302.7 284.5,291.9 273.4,281 262.8,291.7 254.1,283.2 265.6,271.6 254.1,260.1 
		235.7,278.6 289.9,332.4 308.6,313.5 296.3,301.3 	"/>
	<path class="st0" d="M430.7,166.6c-3.2-4.9-7.9-10.5-14.3-16.8c-8.7-8.6-16.5-14.4-23.3-17.2c-6.8-2.8-12.1-2.3-15.8,1.4
		c-3.6,3.6-4,8.9-1,15.8c2.9,6.9,8.8,14.8,17.6,23.5c6.3,6.3,12.1,11,17.4,14.2c5.2,3.1,9.6,4.9,13.2,5.1c3.6,0.3,6.6-0.9,9.1-3.4
		c2.5-2.5,3.4-5.7,2.8-9.6C435.7,175.9,433.8,171.5,430.7,166.6z M420.8,177.2c-1.4,1.4-3.8,1.4-7-0.1c-3.2-1.5-7.6-5-13-10.4
		c-5.5-5.5-9.1-9.8-10.6-13c-1.6-3.2-1.6-5.5-0.3-6.9c1.4-1.5,3.8-1.4,7,0c3.2,1.5,7.3,4.8,12.5,9.8c6.1,6,9.9,10.6,11.4,13.7
		C422.2,173.4,422.3,175.7,420.8,177.2z"/>
	<path class="st0" d="M310.9,273.1c-1.9-1-3.2-1.5-3.9-1.7c-1-0.3-2.3-0.3-3.8-0.2c0.5-1.6,0.5-3.1,0.3-4.5
		c-0.4-2.3-1.5-4.8-3.1-7.5c-1.7-2.7-4-5.5-7-8.5c-3.4-3.4-6.7-6-9.8-7.7c-3.1-1.7-5.6-2.4-7.6-2.2c-2,0.2-4.1,1.4-6.2,3.6
		l-11.4,11.5l54.2,53.8l6.9-7l-22-21.8l0.6-0.6c0.6-0.6,1.6-0.8,2.9-0.5c1,0.3,2.8,1.2,5.4,2.9l20.2,12.7l7.8-7.8l-19-12.2
		C314.3,274.8,312.8,274,310.9,273.1z M291,265.3c-0.4,1.4-0.8,2.2-1.1,2.6l-2.9,2.9l-11-10.9l3-3c1.2-1.3,2.6-1.7,4-1.2
		c1.4,0.5,3,1.6,4.7,3.3c1.2,1.2,2.1,2.4,2.7,3.5C291.1,263.7,291.2,264.6,291,265.3z"/>
	<polygon class="st0" points="501.5,92.3 490.8,103.1 449.9,62.6 443,69.5 497.2,123.3 514.8,105.6 	"/>
	<path class="st0" d="M425,87.7l45.9,62.2l7-7.1l-7.9-10l7.8-7.9l10,7.8l7.2-7.2l-62.6-45.3L425,87.7z M464.7,114.8l-4.9,4.9
		l-17-21.8L464.7,114.8z"/>
	<polygon class="st0" points="297,216.8 327,246.5 288.7,225.2 282.3,231.6 336.5,285.4 342.9,278.9 313.2,249.4 351.3,270.5 
		357.7,264 303.5,210.2 	"/>
	<polygon points="313.7,460.2 288.8,436.1 281,444.2 314,476.2 334,455.5 325.9,447.7 	"/>
	<polygon points="384.9,388 378.4,381.7 390.6,369.2 383.8,362.7 371.7,375.2 366.4,370.1 379.5,356.6 372.5,349.8 351.6,371.4 
		384.6,403.4 405.9,381.4 398.4,374.1 	"/>
	<rect x="319.6" y="408.5" transform="matrix(0.696 -0.7181 0.7181 0.696 -210.9793 364.7532)" width="11.2" height="46"/>
	<polygon points="336.4,387 352.5,410.6 328.5,395.2 318.2,405.8 351.2,437.8 357.6,431.2 332.4,406.8 362.5,426.1 368.3,420.2 
		348.1,390.7 373.2,415.1 379.6,408.5 346.6,376.5 	"/>
	<path d="M433.7,286.6l-8.5,8.8l23.5,41.7l0.1,0l-0.1,0.1l0,0l8-8.2l-4.2-6.5l8.9-9.2l6.7,4l8.2-8.4L433.7,286.6z M447,313.7
		l-9.1-14.4l14.7,8.6L447,313.7z"/>
	<rect x="392.2" y="333.7" transform="matrix(0.696 -0.7181 0.7181 0.696 -135.1912 394.0867)" width="11.2" height="46"/>
	<path d="M435.4,331.8c-0.7-0.3-1.7-0.6-3.1-0.9c-1.4-0.3-2.4-0.4-3-0.4c-0.8,0-1.9,0.4-3.3,0.9c0.8-1.5,1.3-2.9,1.4-4.1
		c0.2-1.9,0-3.8-0.8-5.7c-0.7-1.9-2-3.7-3.8-5.5c-2.1-2-4.3-3.4-6.5-4c-2.2-0.6-4.3-0.5-6.1,0.3c-1.8,0.8-3.9,2.4-6.3,4.9l-13,13.4
		l33,32l7.8-8.1l-13.4-13l0.7-0.7c0.7-0.7,1.6-1.1,2.7-1.2c0.8-0.1,2.1,0.3,4,1l14.3,5.5l8.8-9l-0.1-0.1L435.4,331.8z M417,329.7
		c-0.7,1.3-1.3,2.2-1.6,2.6l-3.3,3.4l-6.7-6.5l3.4-3.5c1.4-1.5,2.7-2.2,3.8-2.2c1.1,0,2.2,0.5,3.2,1.6c0.7,0.7,1.2,1.5,1.4,2.4
		C417.5,328.2,417.4,329,417,329.7z"/>
</g>
</svg>
