<svg id="Layer_2" data-name="Layer 2" xmlns="http://www.w3.org/2000/svg" xmlns:xlink="http://www.w3.org/1999/xlink" viewBox="0 0 892 600"><defs><style>.cls-1{fill:none;}.cls-2{clip-path:url(#clip-path);}.cls-3{fill:#fff;}.cls-4{fill:#ce1126;}.cls-5{fill:#007a3d;}.cls-6{fill:#939598;}</style><clipPath id="clip-path"><rect class="cls-1" width="892" height="600" rx="30.93"/></clipPath></defs><title>Iraque</title><g class="cls-2"><path class="cls-3" d="M262.9,600H0V0H262.9L385.08,33.33,262.9,66.67,385.08,100,262.9,133.33l122.18,33.34L262.9,200l122.18,33.33L262.9,266.67,385.08,300,262.9,333.33l122.18,33.34L262.9,400l122.18,33.33L262.9,466.67,385.08,500,262.9,533.33l122.18,33.34Z"/><path class="cls-4" d="M-1.25-5.84h900v600h-900Z"/><path class="cls-3" d="M-1.25,194.16H892v400H-1.25Z"/><path d="M-1.25,394.16H894.17v200H-1.25Z"/><path class="cls-5" d="M536.49,256.74a10.94,10.94,0,0,1-3-2.31c-.69-1-.29-1,2.54-.23,5.08,1.38,8.36.84,11.61-1.91l2.86-2.42,3.37,1.72c1.86.94,3.83,1.59,4.4,1.44,1.46-.39,4.49-4.27,4.39-5.62-.12-1.66,1.29-1.24,2,.58,1.35,3.57-.61,7.67-4.08,8.58-1.69.44-3.26.28-5.83-.61-3.15-1.1-3.68-1.08-5.26.13-3.55,2.71-8.48,3-12.91.65Zm12.56-11.48c-1.23-1.57-2.72-7.5-2.23-8.95.42-1.26.87-1.54,2-1.16,2,.63,2.47,2,2.17,6.71-.23,3.83-.8,4.83-1.94,3.4ZM401.2,241c-.4,2.85,5.09,10,7.58,11.29-1.69.76-3.79.42-5.33,1.27-8.65,8.64-40.22,39.42-46,46.78,17.08.34,36-.23,52-1,0-11.61,11-12.2,18.35-16.43,3.79,6,13.3,5.51,14.49,14.49l0,38.64H296.44c-2.57,11.34-12.8,20-27.06,16.43,4.41-4.61,11.84-6.2,14.5-12.56,2.24-13.94-4.48-22.55-8.83-30.45,7.2-2.62,8.29-3.27,15.6-8.19-5.14,15.6,13.35,13.88,27.05,13.53.43-5.3.22-11.54-3.87-12.32,5.25-1.9,6.12-2.56,14.5-9.66v21l101-.22c0-6.58,1.74-17.14-3.46-17.14-5,0-.23,13.52-4.09,13.52h-78l-.05-13.41c3.28-3.28,2.91-3,25.5-25.61,2.25-2.26,18.1-16.58,32-30Zm195-.58c5.44,2.94,9.76,7,16.42,8.7-.77,2.76-3.23,3.85-3.87,6.76v58.9c7.45,1.65,9-2.58,12.56-4.82,1,9.43,7,18.67,6.76,26H596.22V240.44ZM553.72,272l11.59-10.17v51.43l8.36,0-.26-57.67c3.39-3.39,10-8.32,11.69-11.73v92.1l-73.24,0c-1.08-19.12-1.26-38.92,21-34.66v-7.8c-.66-1.32-1.9.32-2.19-1.41,3.54-3.54,4.74-4.45,14.32-12.82l.17,33.94h8.45s.08-39.91.08-41.23Zm-27.49,40.73c1.57,2.36,6.91,2.32,6.66-1.65C532,307.81,525,309.06,526.23,312.73Z"/><circle class="cls-5" cx="314.23" cy="346.94" r="4.47"/><path class="cls-5" d="M452.24,240.54c5.45,2.93,9.76,7,16.43,8.69-.78,2.76-3.24,3.86-3.88,6.76v58.93c7.45,1.64,9-2.59,12.57-4.83,1,9.43,7,18.67,6.76,26.06H452.23V240.54Z"/></g><g id="Layer_1" data-name="Layer 1"><path class="cls-6" d="M861.1,6A25,25,0,0,1,886,30.9V569a24.9,24.9,0,0,1-24.9,24.9H30.9A24.82,24.82,0,0,1,6,569.1V30.9A25,25,0,0,1,30.9,6H861.1m0-6H30.9A30.86,30.86,0,0,0,0,30.9H0V569a30.88,30.88,0,0,0,30.9,31H861a30.86,30.86,0,0,0,30.9-30.9V30.9A30.71,30.71,0,0,0,861.1,0Z"/></g></svg>