<svg xmlns="http://www.w3.org/2000/svg" xmlns:xlink="http://www.w3.org/1999/xlink" viewBox="0 0 892 600"><defs><style>.cls-1{fill:none;}.cls-2{clip-path:url(#clip-path);}.cls-3{fill:#009b3a;}.cls-4{fill:#fff;}.cls-5{fill:#d00;}.cls-6{fill:#939598;}</style><clipPath id="clip-path"><path class="cls-1" d="M861.1,6A25,25,0,0,1,886,30.9V569a24.9,24.9,0,0,1-24.9,24.9H30.9A24.82,24.82,0,0,1,6,569.1V30.9A25,25,0,0,1,30.9,6H861.1"/></clipPath></defs><title>Itália</title><g id="Layer_2" data-name="Layer 2"><g class="cls-2"><rect class="cls-3" x="-4" width="900" height="600"/><rect class="cls-4" x="296" width="600" height="600"/><rect class="cls-5" x="596" width="300" height="600"/></g></g><g id="Layer_1" data-name="Layer 1"><g id="Layer_1-2" data-name="Layer 1"><path class="cls-6" d="M861.1,6A25,25,0,0,1,886,30.9V569a24.9,24.9,0,0,1-24.9,24.9H30.9A24.82,24.82,0,0,1,6,569.1V30.9A25,25,0,0,1,30.9,6H861.1m0-6H30.9A30.86,30.86,0,0,0,0,30.9H0V569a30.88,30.88,0,0,0,30.9,31H861a30.86,30.86,0,0,0,30.9-30.9V30.9A30.71,30.71,0,0,0,861.1,0Z"/></g></g></svg>