<svg id="Layer_2" data-name="Layer 2" xmlns="http://www.w3.org/2000/svg" xmlns:xlink="http://www.w3.org/1999/xlink" viewBox="0 0 892 600"><defs><style>.cls-1{fill:none;}.cls-2{clip-path:url(#clip-path);}.cls-3{fill:#007a3d;}.cls-4{fill:#fff;}.cls-5{fill:#ce1126;}.cls-6{fill:#939598;}</style><clipPath id="clip-path"><rect class="cls-1" width="892" height="600" rx="30.93"/></clipPath></defs><title>Jordania</title><g class="cls-2"><path class="cls-3" d="M0,400.22H894V600.33H0Z"/><path class="cls-4" d="M0,200.11H894V400.22H0Z"/><path d="M0,0H894V200.11H0Z"/><path class="cls-5" d="M0,0V600.33L600.33,300.17Z"/><path class="cls-4" d="M185.52,257.29l9.3,23.56L219,273.43l-12.62,22,20.9,14.31-25,3.82,1.84,25.27-18.6-17.19L166.91,338.8l1.84-25.27-25-3.82,20.9-14.31-12.62-22,24.22,7.42Z"/></g><g id="Layer_1" data-name="Layer 1"><path class="cls-6" d="M861.1,6A25,25,0,0,1,886,30.9V569a24.9,24.9,0,0,1-24.9,24.9H30.9A24.82,24.82,0,0,1,6,569.1V30.9A25,25,0,0,1,30.9,6H861.1m0-6H30.9A30.86,30.86,0,0,0,0,30.9H0V569a30.88,30.88,0,0,0,30.9,31H861a30.86,30.86,0,0,0,30.9-30.9V30.9A30.71,30.71,0,0,0,861.1,0Z"/></g></svg>