<?xml version="1.0" encoding="utf-8"?>
<!-- Generator: Adobe Illustrator 25.2.3, SVG Export Plug-In . SVG Version: 6.00 Build 0)  -->
<svg version="1.1" id="Layer_1" xmlns="http://www.w3.org/2000/svg" xmlns:xlink="http://www.w3.org/1999/xlink" x="0px" y="0px"
	 viewBox="0 0 600 600" style="enable-background:new 0 0 600 600;" xml:space="preserve">
<style type="text/css">
	.st0{fill-rule:evenodd;clip-rule:evenodd;fill:#FFFFFF;}
	.st1{fill-rule:evenodd;clip-rule:evenodd;fill:#008639;}
</style>
<g>
	<path class="st0" d="M311.48,7.2c163.52,6.46,291.74,144.84,285.41,308.03c-6.33,163.19-144.85,291-308.38,284.54
		C124.99,593.3-3.22,454.92,3.11,291.74C9.43,128.55,147.96,0.73,311.48,7.2"/>
	<path class="st1" d="M237.98,330.17c2.76,0.39,5.66,1.05,8.43,1.45c0,2.79,0.22,10.15,3.82,10.92c4.16,0.9,3.82-5.16,3.82-8.28
		c0-5.39,0-10.79,0-16.57c0-5.13,0-10.78,0.01-16.17c3.17-1.71,6.19-3.16,9.22-4.6c0,6.31-0.01,13.02,0,19.59
		c0,6.7-0.01,12.75-0.01,19.59c0,8.73-0.21,24.8-13.05,16.04c-6.55-4.48-12.26-12.69-12.25-20.91c0,0,0-0.26,0-0.53L237.98,330.17z
		 M270,293.36c3.03-1.84,6.06-3.16,9.09-4.34c0,8.42,0,16.83-0.01,25.11c0,8.55,0,16.96,0,25.38c0,4.67,0.27,15.93,6.06,17.62
		c6.51,1.9,6.06-12.2,6.06-15.52c0-9.47,0.01-19.46,0.01-29.58c0-9.2,0.01-19.32,0.01-29.19c3.16-1.58,6.32-2.63,9.36-4.34
		c-0.01,10.39-0.01,20.64-0.01,31.03c-0.01,10.12-0.01,20.12-0.01,30.37c0,9.72,1.34,43.46-15.43,35.76
		c-1.76-0.81-5.06-4.03-6.45-6.05c-7.21-10.42-8.69-21.74-8.68-34.32c0-6.97,0-13.94,0-21.04C270,307.3,270,300.33,270,293.36z
		 M315.97,388.44l-12.62-110.85l9.88-3.94l7.1,81.79l0.53-8.15l6.74-78.5l9.75-3.15l-12.68,126.09L315.97,388.44z M340.34,396.59
		c0-11.04,0-22.09,0.01-33c0-10.78,0.01-21.96,0.01-33c0-10.78,0.01-22.09,0.01-32.87c0-10.78,0-21.96,0.01-33.13
		c9.36-2.37,18.71-4.86,27.8-7.09c0,10.12,0,19.99-0.01,29.59c-6.19,1.18-12.39,2.1-18.45,2.89c0,8.28,0,16.04-0.01,23.93
		c5.54-0.26,11.2-0.79,16.6-1.44c0,9.73-0.01,19.59-0.01,28.79c-5.4,0.66-11.06,0.39-16.59,0.39c-0.01,9.73-0.01,19.46-0.01,29.45
		c6.33,1.06,12.65,1.45,18.98,1.71c0,10.39-0.01,20.12-0.01,29.72C359.44,401.2,349.82,399.49,340.34,396.59z M374.07,403.44
		l0.03-110.18l0.01-36.82l10.14-1.96l12.89,96.25l-0.37-98.36l9.09-2.1l-0.03,115.58l-0.01,38.52h-10.41l-3.42-25.38l-3.55-25.25
		l-6.05-43.52c0.33,31.24,0.52,62.38,0.5,93.62L374.07,403.44z M420.45,403.06c0.01-40.81,0.02-81.61,0.03-122.42l-10.54,0.66
		l0.01-30.9l30.44-2.1l-0.01,31.03l-10.67,0.53c-0.01,40.67-0.02,81.34-0.04,122.02L420.45,403.06z M444.2,248.96
		c3.03,0,6.2,0.4,9.09,0.66c0,7.62,0,15.51-0.01,22.88c0,7.76-0.01,15.25,0,23.4c0,7.1-0.01,14.73,0,22.35
		c-0.01,7.63-0.01,15.12-0.01,22.88c0,3.78-0.61,25.64,6.06,25.64c6.03,0,6.07-24.77,6.07-28.14c0-7.36,0-14.46,0.01-21.82
		c0-7.5,0.01-14.6,0-21.96c0-7.36,0.01-14.33,0-21.43c0.01-7.63,0.01-14.99,0.01-22.09c3.03,0.4,6.32,1.32,9.22,1.46
		c0,13.54,0,26.82-0.01,40.1c0,12.75,0,26.03-0.01,39.44c-0.01,14.51-0.27,59.78-15.3,64.43c-1.84,0.39-5.01,0.39-6.45-0.79
		c-9.13-8.27-8.69-45.63-8.68-58.25c0-7.5,0.01-14.73,0-22.36c0-7.36,0.01-14.72,0.01-21.96c0-7.36,0-14.99,0-22.09
		C444.2,263.82,444.21,256.32,444.2,248.96z M491.08,351.54c1.84-0.66,4.22-1.58,5.27-1.97c7.62-2.37,8.31-27.68,8.31-33.79
		c0-4.75-0.36-29.71-8.34-31.87l-5.23-1.01c0,11.83,0,23.14-0.01,34.45C491.09,328.79,491.09,340.23,491.08,351.54z M481.85,381.78
		c0-10.52,0-21.04,0.01-31.56c0.01-10.65,0.01-21.17,0.01-31.3c0-10.52,0-21.3,0.01-31.82c0-10.78,0-21.43,0.01-31.82
		c5.01,1.45,10.94,3.68,15.42,5.26c13.91,4.5,16.99,40.95,16.98,53.39c-0.01,16.06-3.38,49.75-18.2,58.9
		C492,375.34,486.6,379.28,481.85,381.78z M519.67,355.09c0-7.1,0-13.93,0-21.3c0-6.97,0-14.07,0.01-20.91c0-7.1,0-14.33,0-21.17
		c0-6.83,0.01-13.93,0.01-21.04c9.35,5,18.71,10.26,27.93,16.84c0,2.89-0.01,5.65,0,8.28c-6.19-1.71-12.39-3.69-18.58-5.4
		c0,4.21,0,7.89,0,12.23c5.53,0.27,11.07,0.27,16.73,0.66c0,2.63,0,5.65,0,8.68c-5.67,1.44-11.2,3.02-16.73,4.86
		c-0.01,4.87-0.01,10.12-0.01,15.12c6.46-3.42,12.78-7.89,20.16-12.09c0,3.02,0,5.78,0,8.68
		C538.79,337.47,529.3,346.29,519.67,355.09z M200.4,287.75c69.48-110.14,147.37-172.59,256.7-185.24
		c15.6,12.17,29.9,26.23,42.57,42.02c30.07,37.48,49.01,83.12,54.47,130.75c-21.93-21.87-157.75-96.1-337.08,38.53
		C214.55,303.41,208.58,294.28,200.4,287.75z M142.89,286.44c-18.47-53.47-25.34-109.05-24.63-162.12
		c23.74-23.95,51.99-43.05,82.99-56.07c15.7-6.59,31.92-11.55,48.46-14.86c-61.94,79.16-63.58,162.16-66.14,225.75
		c-3.49-0.98-7.15-1.56-10.92-1.71C161.58,276.98,151.23,280.39,142.89,286.44z M125.31,311.03
		c-37.13-23.91-50.37-46.61-70.74-78.77c-5.72,19.65-9.07,40.11-9.88,61c-1.39,35.85,5.02,71.51,18.26,104.45
		c13.09-21.03,37.1-46.99,61.33-63.13c-0.79-3.73-1.14-7.62-0.98-11.6C123.46,318.82,124.15,314.82,125.31,311.03z M165.46,372
		c-8.38,69.8,36.43,132.68,109.25,184.98c-9.54-0.96-18.97-2.45-28.25-4.45c-51.07-11.15-96.53-37.5-131.41-74.11
		c-9.98-33.81-8.96-80.55,17.8-125.11C140.49,363.44,152.11,370.48,165.46,372z M217.02,336.13
		c115.14,95.78,233.01,107.53,335.65,7.16c-7.93,50.24-30.78,96.77-65.84,134.11c-14.97,15.94-31.89,29.88-50.27,41.49
		c-91.49,2.68-183.65-30.22-253.76-148.11C199.54,366.43,212.87,353.11,217.02,336.13z M397.41,103.17l-12.73,4.71l-3.98-10.84
		l12.87-4.69L397.41,103.17z M311.65,143.89l-10.85,8.33l-6.93-9.17l10.75-8.18L311.65,143.89z M348.87,94.16l-0.11-0.28
		c-0.67-1.38-1.77-2.28-3.08-2.4c-1.31-0.12-3.6,0.32-6.09,1.41l-10.51,4.83c-4.56,2.08-7.38,3.93-8.05,5.32
		c-0.8,1.51-0.5,3.92,0.81,6.95l2.42,5.24c1.22,2.49,2.67,3.95,4.63,4.26c1.82,0.3,4.94-0.46,9.09-2.32l7.74-3.5
		c4.29-1.98,6.98-3.84,7.87-4.94c1.04-1.22,0.95-3.08,0.2-4.87l-0.23-0.42l13.41-6.14l0.11,0.27c0.57,0.98,1.01,1.94,1.23,2.36
		c0.97,2.34,1.56,4.51,1.52,6.35c-0.03,1.71-0.59,3.51-1.53,5.01c-1.08,1.61-2.82,3.16-4.92,4.42c-2.25,1.37-5.62,3.44-10.17,5.39
		l-14.67,6.81c-4.42,1.96-7.97,3.21-10.29,3.92c-2.32,0.7-4.59,0.89-6.54,0.57c-2.07-0.46-4.1-1.44-5.44-2.63
		c-1.46-1.32-3.12-3.33-4.33-5.95l-4.61-10.07c-2.3-5.1-2.55-9.48-0.64-12.87c1.77-3.4,6.88-7.01,14.62-10.51l14.67-6.81
		c4.69-2.07,8.54-3.56,10.86-4.26c2.3-0.58,4.57-0.76,6.27-0.6c1.56,0.28,3.21,1.09,4.43,2.13c1.34,1.18,2.62,3.02,3.73,5.37
		c0.23,0.42,0.45,0.83,0.56,1.11c0.09,0.4,0.2,0.68,0.32,0.82L348.87,94.16z M267.03,135.86l-25.89,26.97l4.38,4.2l24.46-25.32
		l6.2,5.73l-24.42,25.45l4.26,4.24l26.42-27.53l7.07,6.85l-36.4,37.96l-29.11-27.83l35.97-37.57L267.03,135.86z M172.16,290.11
		c19.17,0.76,34.2,16.98,33.46,36.11c-0.74,19.13-16.98,34.12-36.15,33.36c-19.18-0.76-34.2-16.98-33.46-36.11
		C136.75,304.34,152.99,289.35,172.16,290.11z M206.86,478.64l-5.34-8.37l21.77-13.6l-12.82-5.78l3.61-7.88l15.52,7.73l6.33,9.86
		L206.86,478.64z M254.66,491.09l-6.7-7.25c-1.01-1.09-2.03-1.92-2.7-1.95c-1.05-0.04-1.98,0.05-2.81,0.94
		c-0.82,0.76-1.25,1.66-1.15,2.46c-0.02,0.52,0.58,1.87,1.86,2.97l6.43,7.36c1.15,1.1,2.03,1.92,2.82,1.95
		c0.92,0.17,1.71,0.07,2.67-0.81c0.82-0.76,1.25-1.79,1.15-2.45C256.28,493.53,255.67,492.32,254.66,491.09z M262.06,504.02
		l-0.13-0.01c2.73-2.39,4.16-5.23,4.01-7.99c-0.03-2.51-1.63-5.59-4.65-9.01l-10.1-11.33c-2.4-2.6-4.59-4-6.82-4.35
		c-1.96-0.47-4.1,0.23-6.01,1.86l-5.19,4.53c-1.92,1.9-2.66,3.97-2.35,6.09c0.57,2.26,2.44,5.1,5.59,8.78l5.06,5.47
		c1.39,1.63,2.92,2.88,3.82,3.44c1.03,0.7,2.47,0.89,3.52,0.93l-2.86,2.52c-1.1,1.01-2.3,1.49-3.21,1.19
		c-1.06-0.04-2.07-1.01-3.34-2.38l-6.57-7.11c-1.01-1.23-1.62-2.44-1.72-3.23c-0.37-0.67-0.06-1.71,0.76-2.47l-6.32-6.96
		c-0.41,0.37-0.68,0.62-0.96,0.88c-0.13,0-0.27,0.25-0.41,0.38c-2.19,2.02-3.2,4.22-2.9,6.59c0.31,2.25,2.03,5.21,4.94,8.36
		l6.18,7.09c4.42,4.78,8.13,7.7,10.87,8.47c2.6,0.9,5.81-0.3,8.68-2.94L262.06,504.02z M276.38,538.84l-8.49-5.34l13.65-21.69
		l-14.13,0.48l-0.32-8.56l17.54,0.05l9.77,6.32L276.38,538.84z M294.59,534.19l0,0.13c-0.3,0.78-0.86,1.54-1,1.94
		c-0.87,2.2-1.2,3.9-1.27,5.6c-0.05,1.19,0.29,2.65,0.91,3.72c0.76,0.82,1.77,1.78,3.19,2.63c1.28,0.84,3.35,1.84,6.2,3.01
		l13.5,5.42c3.5,1.59,6.52,1.97,8.64,1.67c2.26-0.44,3.9-1.95,4.79-4.42l1.74-4c0.59-1.56,0.51-2.88,0.02-3.95
		c-0.48-1.2-1.75-2.44-3.82-3.58c1.83,0.34,3.55,0.41,4.76-0.2c0.94-0.49,1.91-1.5,2.64-3.44l1.46-3.5
		c0.89-2.46,0.71-4.71-0.41-6.47c-1.12-1.49-3.95-3.32-7.85-4.92l-13.11-5.27c-4.15-1.74-7.69-2.29-10.09-1.59
		c-2.14,0.7-4.2,2.86-5.38,5.97c0,0-0.15,0.52-0.3,0.78c-0.14,0.26-0.28,0.65-0.57,1.16l9.09,3.66l0.15-0.39
		c0.44-1.17,1.13-1.93,1.94-2.29c0.54-0.38,1.59-0.2,3.02,0.25l9.99,4.22c1.44,0.45,2.72,1.29,2.96,1.83
		c0.37,0.67,0.47,1.6,0.03,2.5c-0.3,0.78-0.85,1.42-1.52,1.65c-0.53,0.11-1.19,0.09-1.97-0.21l-10-3.95l-2.92,7.12l9.6,3.81
		c1.3,0.57,2.32,1.41,2.69,2.08c0.24,0.54,0.21,1.46-0.1,2.5c-0.43,0.77-1.11,1.4-1.77,1.51c-0.39-0.02-1.19-0.05-2.36-0.36
		l-11.29-4.54c-1.94-0.86-3.1-1.7-3.46-2.37c-0.37-0.41-0.33-1.72,0.12-3.02c0.27-0.13,0.29-0.52,0.42-0.64
		c-0.13-0.14,0.27-0.25,0.27-0.25L294.59,534.19z M311.06,18.11c157.6,6.24,281,139.41,274.9,296.68
		c-6.1,157.27-139.43,280.3-297.02,274.06c-157.59-6.23-281-139.41-274.91-296.68C20.13,134.9,153.47,11.88,311.06,18.11z
		 M310.66,31.91C160.83,25.98,33.92,143.08,28.13,292.6c-5.8,149.52,111.66,276.28,261.48,282.2
		c149.83,5.93,276.74-111.17,282.53-260.68C577.93,164.6,460.48,37.83,310.66,31.91z"/>
</g>
</svg>
