<?xml version="1.0" encoding="utf-8"?>
<!-- Generator: Adobe Illustrator 16.0.0, SVG Export Plug-In . SVG Version: 6.00 Build 0)  -->
<!DOCTYPE svg PUBLIC "-//W3C//DTD SVG 1.1//EN" "http://www.w3.org/Graphics/SVG/1.1/DTD/svg11.dtd">
<svg version="1.1" id="Layer_1" xmlns="http://www.w3.org/2000/svg" xmlns:xlink="http://www.w3.org/1999/xlink" x="0px" y="0px"
	 width="900px" height="900px" viewBox="0 0 900 900" enable-background="new 0 0 900 900" xml:space="preserve">
<g>
	<path fill="#00285E" d="M450,0C201.9,0,0,201.9,0,450c0,248.1,201.9,450,450,450c248.1,0,450-201.9,450-450
		C899.8,201.9,698.1,0,450,0"/>
	<path fill="#FFFFFF" d="M853,450c0-222.6-180.4-403-403.2-403C227.2,47,46.6,227.4,46.6,450c0,222.6,180.6,403.2,403.2,403.2
		C672.6,853,853,672.6,853,450"/>
	<path fill="#6CADDF" d="M706.6,450c0-141.7-114.9-256.6-256.6-256.6S193.4,308.3,193.4,450S308.3,706.6,450,706.6
		S706.6,591.7,706.6,450"/>
	<path fill="#00285E" d="M450,726.9c-152.7,0-276.9-124.4-276.9-277.1c0-152.7,124.2-276.9,276.9-276.9S727.1,297,727.1,449.8
		C726.9,602.7,602.7,726.9,450,726.9L450,726.9z M450,188.5c-144.1,0-261.5,117.3-261.5,261.5c0,144.1,117.3,261.5,261.5,261.5
		c144.1,0,261.5-117.3,261.5-261.5C711.5,305.9,594.1,188.5,450,188.5L450,188.5z"/>
	<path fill="#6CADDF" d="M450,881.5C212,881.5,18.5,688,18.5,450S212,18.5,450,18.5S881.5,212,881.5,450
		C881.3,688,688,881.5,450,881.5 M450,27.7C217.1,27.7,27.9,217.1,27.9,450c0,232.7,189.4,422.1,422.1,422.1S872.1,682.7,872.1,450
		C872.1,217.1,682.7,27.7,450,27.7"/>
	<g>
		<path fill="#6CADDF" d="M89.9,440.1l-7.3,1.8l-2-7.5l12.1-3.5h6.2v42.2h-9V440.1z"/>
		<path fill="#6CADDF" d="M109.4,461.4L109.4,461.4c0-5.3,2.4-8.1,6.8-10.1c-3.3-2-5.3-4.6-5.3-9.2v-0.2c0-6.4,5.9-11.4,14.7-11.4
			c8.8,0,14.7,5.1,14.7,11.4v0.2c0,4.4-2,7.2-5.3,9.2c4.2,2.2,6.8,4.8,6.8,9.9v0.2c0,7.7-6.8,12.3-16,12.3
			C116.7,473.7,109.4,468.7,109.4,461.4z M132.7,460.8L132.7,460.8c0-3.3-3.1-5.3-7.3-5.3c-4.2,0-7.3,2-7.3,5.1l0,0
			c0,2.9,2.6,5.3,7.3,5.3C130.1,465.8,132.7,463.6,132.7,460.8z M131.6,443.2L131.6,443.2c0-2.6-2.2-5.1-5.9-5.1
			c-3.7,0-5.9,2.2-5.9,4.8v0.2c0,2.9,2.4,5.1,5.9,5.1S131.6,446,131.6,443.2z"/>
	</g>
	<g>
		<path fill="#6CADDF" d="M772.8,455.7c-2.2,1.8-4.8,2.9-8.6,2.9c-9,0-14.9-5.1-14.9-13.4V445c0-8.3,6.6-14.7,16-14.7
			c5.7,0,8.8,1.3,12.1,4.6c3.1,3.1,4.8,7.5,4.8,15.8v0.2c0,13.6-6.4,22.9-18.2,22.9c-6.2,0-10.1-2-13.8-5.1l4.8-7
			c3.1,2.4,5.7,3.5,9.2,3.5C770.6,465.2,772.3,459.2,772.8,455.7z M773,444.7L773,444.7c0-3.7-2.6-6.6-7.2-6.6c-4.6,0-7,2.6-7,6.4
			v0.2c0,3.7,2.9,6.4,7.3,6.4C770.4,450.9,773,448.2,773,444.7z"/>
		<path fill="#6CADDF" d="M811.7,463.8h-20.4l-1.5-6.6l22.8-26.6h7.7v25.7h5.7v7.5h-5.7v9h-8.8v-9H811.7z M811.7,456.4v-13l-11.2,13
			H811.7z"/>
	</g>
	<path fill="#FFFFFF" d="M450,711.5c-144.1,0-261.5-117.3-261.5-261.5c0-144.1,117.3-261.5,261.5-261.5
		c144.1,0,261.5,117.3,261.5,261.5C711.5,594.1,594.1,711.5,450,711.5 M450,198.2c-138.9,0-251.8,112.9-251.8,251.8
		c0,138.9,112.9,251.8,251.8,251.8S701.8,588.9,701.8,450C701.8,311.1,588.9,198.2,450,198.2"/>
	<path fill="#00285E" d="M445.2,224.8c-129,0-203.5,16.9-203.5,16.9S212,354.9,229,499.7c7,60.9,56.5,191.6,220.4,236.4l0,0
		c163.9-44.6,213.4-175.6,220.4-236.4c16.9-145-12.7-258-12.7-258s-74.5-16.9-203.5-16.9H445.2z"/>
	<path fill="#97C1E7" d="M647.1,466c-1.5,43.9-8.3,175.3-198,247.6c-188.1-70.3-198-206.3-198-247.6H647.1L647.1,466z"/>
	<path fill="#FFFFFF" d="M641.4,458.8c5.1-109-13.4-197.3-13.4-197.3s-70.8-13.6-178.6-13.6c-108.1,0-180,14.9-180,14.9
		s-19.6,88.8-14.3,195.8h386.3V458.8L641.4,458.8z"/>
	<g>
		<path fill="#6CADDF" d="M455.1,709.7L254.9,467.8C247.6,517.7,288.1,664.7,455.1,709.7z"/>
		<path fill="#6CADDF" d="M314.6,466.3l185.2,223.5c18.7-9,32.5-17.8,45.7-28.3L383.9,466.3H314.6z"/>
		<path fill="#6CADDF" d="M443.2,466.5l136.9,165c13.4-15.2,24.8-29,33-43.5L512.4,466.5H443.2z"/>
		<path fill="#6CADDF" d="M643.8,466.5l-68.3-0.2l57.3,69.2C642.7,514.2,643.8,478.3,643.8,466.5z"/>
	</g>
	<path fill="#00285E" d="M530,557L530,557c-0.4-1.5-1.8-2.9-3.3-3.5l-11.4-4c-1.1-0.4-2-0.2-3.1,0c-0.9-4-3.1-7.5-6.4-9.9
		c-0.4-0.2-0.9-0.7-1.3-0.9c-0.7-0.4-1.5-0.9-2.4-1.3c-1.5-0.7-3.1-1.1-4.4-1.5c-3.3-1.1-6.6-2.2-10.8-5.1c-4-2.9-5.7-5.5-7.5-7.9
		c-0.4-0.7-0.9-1.1-1.3-1.8c-1.1-1.8-2.6-3.3-4.2-4.6c-2.9-2-6.4-3.1-9.9-3.1c-0.9,0-1.5,0.2-2.4,0.2c0,0,0,0,0-0.2
		c0.2-1.3-0.2-2.9-0.9-4l-7-9.4c-1.1-1.3-2.6-2.2-4.4-2.2l0,0c-1.8,0-3.3,0.7-4.2,2l-7.5,9.4c-0.9,1.1-1.3,2.6-1.1,4.2l0,0
		c-0.7,0-1.1-0.2-1.8-0.2c-3.5,0-7,1.1-9.9,3.1c-0.4,0.2-0.9,0.7-1.1,0.9c-0.7,0.7-1.3,1.1-2,2c-1.1,1.3-2,2.4-2.9,3.7
		c-2.2,2.9-4,5.5-8.4,8.6c-4,2.9-7,3.7-9.9,4.6c-0.7,0.2-1.3,0.4-2,0.7c-2,0.4-4,1.3-5.7,2.6c-3.5,2.4-5.7,6.2-6.6,10.3
		c-1.1-0.4-2.4-0.4-3.7-0.2l-11.2,3.7c-1.5,0.4-2.9,1.8-3.5,3.3l0,0c-0.4,1.5-0.2,3.3,0.7,4.6l6.8,9.9c0.9,1.1,2,1.8,3.3,2.2
		c-1.8,3.7-2.2,8.3-0.9,12.3c0.2,0.4,0.4,0.9,0.4,1.3c0.2,0.9,0.7,1.8,1.3,2.6c0.9,1.3,1.8,2.6,2.6,3.7c2.2,2.9,4.2,5.5,5.7,10.5
		c1.5,4.6,1.3,7.7,1.3,10.8c0,0.7,0,1.5,0,2.2c-0.2,2.2,0,4.2,0.9,6.2c1.3,4,4.2,7.2,7.5,9.2c-0.4,0.9-0.9,1.8-0.7,2.6v11.9
		c0,1.8,0.9,3.3,2.2,4.2l0,0c1.3,0.9,3.1,1.3,4.6,0.9l11.6-3.3c1.1-0.2,1.8-1.1,2.4-1.8c3.5,3.3,8.3,4.8,13,4.6
		c0.9,0,1.8-0.2,2.9-0.4c1.5-0.4,3.1-0.9,4.4-1.3c3.3-1.1,6.6-2.2,11.9-2.2c4.8,0,7.7,1.1,10.8,2c0.7,0.2,1.3,0.4,2,0.7
		c2,0.9,4.2,1.1,6.2,1.1c4.2,0,8.3-1.8,11.4-4.6c0.7,0.9,1.3,1.3,2.4,1.8l11.4,3.5c1.5,0.4,3.3,0.2,4.8-0.7l0,0
		c1.3-0.9,2.2-2.4,2.2-4.2l0.2-11.9c0-0.9-0.2-1.8-0.7-2.6c3.5-2,6.4-5.3,7.5-9.2c0.2-0.4,0.2-0.9,0.4-1.5c0.2-0.9,0.4-1.8,0.4-2.9
		c0.2-1.5,0.2-3.1,0.2-4.6c0-3.5,0-6.8,1.5-11.9c1.5-4.6,3.3-7,5.3-9.4c0.4-0.7,0.9-1.1,1.3-1.8c1.3-1.5,2.4-3.5,3.1-5.5
		c1.3-4.2,0.9-8.8-1.1-12.7c1.1-0.4,2-0.9,2.6-1.8l7-9.7C530.2,560.3,530.6,558.8,530,557z"/>
	<path fill="#FFC758" d="M443,582.7c0-3.7,3.1-6.6,6.8-6.6s6.8,3.1,6.8,6.6c0,3.7-3.1,6.6-6.8,6.6C446,589.3,443,586.2,443,582.7z"
		/>
	<path fill="#EE3124" d="M449.6,526c-1.1-4.2-3.7-7.7-7-9.7l7-9l6.6,9C452.9,518.6,450.7,521.9,449.6,526 M395.7,565.1
		c-3.5-2.4-5.9-5.5-7.3-9.2l-10.5,3.5l6.4,9.2C387.4,566.5,391.6,565.1,395.7,565.1 M416.6,627.3c-3.3,2.6-7,4-11.2,4v11.2l11-3.3
		C415.1,635.7,415.1,631.5,416.6,627.3 M482.5,627.5c1.5,4,1.5,7.9,0.2,11.6l10.8,3.3l0.2-11.2C490,631.5,486,630.2,482.5,627.5
		 M503,565.4c4.4-0.2,8.1,0.9,11.2,3.3l6.6-9L510,556C509.1,559.4,506.5,562.9,503,565.4 M435.9,627.8c-5.1,0-9-4-9-9
		c0-0.7-0.7-0.9-1.1-0.4c-3.3,4-5.7,7.5-5.9,11.6c-0.2,6.2,5.1,11.2,11.4,11.2c0.4,0,0.9,0,1.1,0c0.7,0,1.1,0,2-0.2
		c4.4-1.1,8.3-3.3,15.8-3.3c6.4,0,9.7,1.8,13,2.6c1.3,0.4,2.9,0.9,4.4,0.9c6.4,0,11.4-5.1,11.4-11.2c0-4.4-2.6-7.7-5.9-11.6
		c-0.2-0.4-0.9,0-0.9,0.4c0,4.8-4.2,9-9,9c-3.7,0-8.6-3.3-13.4-3.3C445.6,624.5,439.7,627.8,435.9,627.8z M430,615.5
		c0,4.2,3.3,7.5,7.5,7.5c0.4,0,0.9,0,1.5-0.2c0.2,0,0.4,0,0.7-0.2h0.2c2.6-0.9,5.1-2,9.7-2c4.6,0,6.8,1.3,9.4,2
		c0.9,0.2,1.8,0.4,2.6,0.4c4.2,0,7.5-3.3,7.5-7.5c0-1.1-0.2-2.2-0.7-3.1c-0.2-0.4-0.4-0.9-0.7-1.1c0,0-12.7-17.4-13.2-17.8
		c-0.7-0.9-1.5-0.4-2-0.2c-0.7,0.2-2.2,0.7-3.3,0.7c-1.1,0-2.4-0.2-3.1-0.7c-0.9-0.4-1.5-0.7-2,0.2c-0.4,0.7-9.7,13.2-12.5,17.1
		C430.7,611.9,430,613.5,430,615.5z M488.7,609.7c-1.5,4.8-6.6,7.2-11.4,5.7c-0.7-0.2-1.1,0.2-0.7,0.9c2.9,4.2,5.3,7.7,9.4,9.2
		c5.9,2,12.5-1.3,14.3-7.2c0.2-0.4,0.2-0.7,0.2-1.1c0.2-0.4,0.2-1.1,0.4-1.8c0.4-4.6-0.7-8.8,1.8-16c2-5.9,4.6-8.6,6.6-11.4
		c0.9-1.1,1.8-2.4,2.2-3.7c2-5.9-1.3-12.5-7.2-14.3c-4.2-1.3-8.3,0.2-13.2,2c-0.4,0.2-0.4,0.7,0.2,0.9c4.8,1.5,7.5,6.6,5.9,11.4
		c-1.1,3.5-5.7,7-7.3,11.6C488.7,599.6,490,606,488.7,609.7z M475,611.5c4,1.3,8.3-0.9,9.7-4.8c0.2-0.4,0.2-0.9,0.2-1.5
		c0-0.2,0-0.4,0-0.7v-0.2c0-2.6-0.4-5.5,0.9-9.7c1.5-4.4,3.3-6.2,4.8-8.3c0.4-0.7,0.9-1.5,1.3-2.4c1.3-4-0.9-8.1-4.8-9.4
		c-1.1-0.2-2.2-0.4-3.1-0.2c-0.4,0-0.9,0-1.3,0.2c0,0-20.7,6.6-21.3,6.8c-0.9,0.4-0.9,1.3-0.9,1.8c0,0.7-0.2,2.2-0.4,3.3
		c-0.2,0.9-0.9,2.2-1.5,2.9c-0.7,0.7-1.1,1.3-0.4,2s9.4,13.2,12.5,17.1C471.8,609.7,473.3,610.8,475,611.5z M487.4,553.9
		c4.2,2.9,5.1,8.6,2,12.5c-0.4,0.4,0,1.1,0.7,0.9c5.1-1.3,9-2.6,11.6-6.2c3.7-5.1,2.6-12.1-2.4-15.8c-0.2-0.2-0.7-0.4-1.1-0.7
		c-0.4-0.4-0.9-0.7-1.8-0.9c-4.2-1.8-8.6-2.2-14.7-6.6c-5.1-3.7-6.8-7-9-9.9c-0.7-1.1-1.8-2.2-3.1-3.3c-5.1-3.7-12.3-2.6-15.8,2.4
		c-2.4,3.5-2.4,7.9-2.2,13c0,0.4,0.7,0.7,0.9,0c2.9-4,8.6-4.8,12.7-2c3.1,2.2,5.1,7.7,9,10.3C477.7,551.1,484.3,551.7,487.4,553.9z
		 M484.9,567.6c2.4-3.3,1.8-8.1-1.8-10.5c-0.2-0.2-0.7-0.7-1.3-0.9c-0.2,0-0.4-0.2-0.7-0.2H481c-2.6-0.9-5.3-1.3-9-4s-4.8-5.1-6.4-7
		c-0.4-0.7-1.1-1.3-1.8-2c-3.3-2.4-8.1-1.8-10.5,1.8c-0.7,0.9-1.1,1.8-1.3,2.9c0,0.4-0.2,0.9-0.2,1.3c0,0,0,21.5,0,22.2
		c0,1.1,0.9,1.1,1.5,1.3c0.7,0.2,2.2,0.9,2.9,1.3c0.9,0.7,1.8,1.5,2.2,2.2c0.4,0.7,0.9,1.3,1.8,0.9c0.9-0.4,15.6-5.1,20.2-6.6
		C482.3,570,483.8,568.9,484.9,567.6z M433.7,538.1c4-2.9,9.7-2,12.7,2c0.4,0.4,1.1,0.4,1.1-0.2c0.2-5.1,0.2-9.4-2.2-13
		c-3.5-5.1-10.8-6.2-15.8-2.4c-0.4,0.2-0.7,0.4-0.9,0.7c-0.4,0.2-0.9,0.7-1.3,1.3c-3.1,3.5-4.8,7.5-11,11.9
		c-5.1,3.7-8.8,4.4-12.1,5.3c-1.3,0.4-2.9,0.9-4,1.8c-5.1,3.7-6.4,10.8-2.4,15.8c2.6,3.5,6.8,4.8,11.6,6.2c0.4,0.2,0.7-0.4,0.4-0.9
		c-2.9-4-2-9.7,2-12.5c3.1-2.2,8.8-2.4,12.7-5.3C427.8,546.5,430.7,540.3,433.7,538.1z M446,544.7c-2.4-3.3-7.2-4.2-10.5-1.8
		c-0.4,0.2-0.7,0.4-1.1,0.9c-0.2,0.2-0.2,0.2-0.4,0.4l-0.2,0.2c-1.5,2.2-2.9,4.6-6.6,7.3c-3.7,2.6-6.4,2.9-8.8,4
		c-0.9,0.2-1.8,0.7-2.4,1.1c-3.3,2.4-4.2,7-1.8,10.5c0.7,0.9,1.5,1.5,2.4,2c0.4,0.2,0.7,0.4,1.1,0.4c0,0,20.7,6.6,21.3,6.8
		c1.1,0.2,1.5-0.4,1.8-0.9c0.4-0.4,1.3-1.8,2.2-2.4c0.9-0.7,2-1.1,2.9-1.3c0.9-0.2,1.5-0.4,1.5-1.3c0-0.9,0-16.3,0-21.1
		C447.6,548,447.1,546.2,446,544.7z M402.1,584c-1.5-4.8,1.1-9.9,5.7-11.4c0.7-0.2,0.7-0.9,0.2-1.1c-4.8-1.8-9-3.3-13-2
		c-5.9,1.8-9.2,8.3-7.3,14.3c0,0.4,0.2,0.7,0.4,1.1c0.2,0.4,0.4,1.1,0.9,1.8c2.4,4,5.7,6.8,8.1,14.1c2,5.9,1.3,9.7,1.3,13.2
		c-0.2,1.3,0,2.9,0.4,4.4c2,5.9,8.3,9.2,14.3,7.2c4.2-1.3,6.6-4.8,9.4-9.2c0.2-0.4-0.2-0.9-0.7-0.7c-4.8,1.5-9.9-1.1-11.4-5.7
		c-1.1-3.5,0.4-9-1.1-13.6C408.3,592.2,403.2,587.5,402.1,584z M412,574.6c-4,1.3-6.2,5.5-4.8,9.4c0,0.4,0.2,0.9,0.7,1.3
		c0.2,0.2,0.2,0.4,0.4,0.4c0,0,0,0.2,0.2,0.2c1.5,2.2,3.5,4.2,5.1,8.3c1.5,4.4,0.9,6.8,1.1,9.4c0,0.9,0,1.8,0.4,2.6
		c1.3,4,5.5,6.2,9.4,4.8c1.1-0.2,2-0.9,2.6-1.5c0.2-0.2,0.7-0.7,0.9-0.9c0,0,12.7-17.4,13-18c0.7-0.9,0-1.5-0.4-2
		c-0.4-0.4-1.3-1.8-1.5-2.9c-0.2-0.9-0.4-2.2-0.4-3.1c0-0.9,0-1.5-0.9-1.8c-0.9-0.2-15.6-5.1-20.2-6.6
		C415.7,574.1,414,573.9,412,574.6z"/>
	<path fill="#FFC758" d="M512.8,350.2l46.4-16c0,0-4,19.3-2.9,34.3c1.3,19.3,12.5,34.1,12.5,34.1l-57.1,19.8L512.8,350.2z"/>
	<g>
		<path fill="#D4A11E" d="M568.9,402.5c0,0-10.1-14.5-11.9-31.4c-1.3-12.7,0-23.7,2.2-36.9c-2,8.8-9.4,33.6-30.3,56.7
			c-8.3,9.2-12.1,17.4-13.6,23.1l-0.9-109.2l0,0l0,0c0,0-11,4-12.1,4.2c-1.3,0.4-2,1.3-2,1.5c0,0.7-0.4,1.1-1.3,1.3
			c-0.9,0.2-7.3,2.6-11.6,4c-0.9,0.2-0.4,1.1,0,1.1c5.3-0.2,12.7-0.9,13.4-0.9c1.1-0.2,1.5-0.7,1.5-1.3c0,0,0,0,0-0.2
			c0.2-0.9,0.9-1.5,1.8-1.5c0.7,0,4.6-0.4,7-0.9L510,429.6h5.3v-8.3L568.9,402.5z"/>
	</g>
	<g>
		<path fill="#FFC758" d="M363.4,425.4c0,0-8.6-6.4-11-18.5c-2.4-12.3,3.7-19.3,3.7-19.3l56.2-19.3c0,0-3.5,11.2-0.2,23.9
			c4.2,16,12.7,26.8,12.7,26.8s-20.7-4-40.6-1.3C365.4,420.1,363.4,425.4,363.4,425.4z"/>
	</g>
	<path fill="#FFC758" d="M298.8,411.3c0,0,7-19.1,27.5-40c15.6-15.8,25.7-20.4,25.7-20.4s-9,13-12.7,34.3
		c-2.4,13.2,0.2,29.9,0.2,29.9s-10.5-2.2-22.6-3.5C306.7,410.4,298.8,411.3,298.8,411.3z"/>
	<path fill="#D4A11E" d="M352,350.9c0,0-8.8,13-12.5,34.3c-2.4,13.2,0.2,29.9,0.2,29.9s-2.6-0.7-8.8-2
		C305.9,407.4,352,350.9,352,350.9z"/>
	<path fill="#D4A11E" d="M385,366.3l-0.4-50.5l0,0l0,0l0,0l0,0c-1.1,0.4-11,3.7-12.1,4.2c-1.3,0.4-2,1.3-2,1.8
		c0,0.7-0.4,1.1-1.3,1.3c-0.9,0.2-7.2,2.4-11.6,4c-0.9,0.2-0.4,1.1,0,1.1c5.1-0.2,12.7-0.9,13.4-0.9c1.1-0.2,1.5-0.7,1.8-1.3
		c0,0,0,0,0-0.2c0.2-0.9,0.9-1.5,1.8-1.5c0.7,0,4.4-0.4,7-0.7l-0.4,43.1h4v-0.4H385z"/>
	<path fill="#D4A11E" d="M450.4,320.6h4V272l0,0l0,0c0,0-11,4-12.1,4.2c-1.3,0.4-2,1.3-2,1.5c0,0.7-0.4,1.1-1.3,1.3s-7.3,2.4-11.6,4
		c-0.9,0.2-0.4,1.1,0,1.1c5.3-0.2,12.7-0.9,13.4-0.9c1.1-0.2,1.5-0.7,1.8-1.3l0,0c0.2-0.9,0.9-1.5,1.8-1.5c0.7,0,4.2-0.4,6.8-0.7
		L450.4,320.6z"/>
	<path fill="#FFC758" d="M440.6,283.4h0.2c1.1-0.2,1.5-0.7,1.5-1.3l0,0c0-0.7,0.4-1.1,1.1-1.3l-1.3-4.2c-1.3,0.4-1.8,1.3-1.8,1.5
		c0,0.7-0.4,0.9-1.1,1.1L440.6,283.4z"/>
	<path fill="#FFC758" d="M370.7,327h0.2c1.1-0.2,1.5-0.7,1.5-1.3l0,0c0.2-0.7,0.4-1.1,1.1-1.3l-1.3-4.2c-1.3,0.4-1.8,1.3-1.8,1.5
		c0,0.7-0.4,0.9-1.1,1.1L370.7,327z"/>
	<path fill="#FFC758" d="M500.3,316h0.2c1.1-0.2,1.5-0.7,1.5-1.3l0,0c0.2-0.7,0.4-1.1,1.1-1.3l-1.3-4.2c-1.3,0.4-1.8,1.3-1.8,1.5
		c0,0.7-0.4,0.9-1.1,1.1L500.3,316z"/>
	<path fill="#D4A11E" d="M425,419c0,0-9-13.2-12.5-27.2c-3.1-12.1,0-23.5,0-23.5s-5.9,20.7-20.2,31.9c-9.9,7.9-34.3,15.2-28.6,25.3
		c0.9-1.3,3.3-4,13.2-6.4c1.1-0.2,2.4-0.4,3.7-0.7v16.7h5.3v-17.4C404.1,415.7,425,419,425,419z"/>
	<g>
		<path fill="#FFC758" d="M357.5,384.1c0,0-6.6-4-5.7-16.7c0.9-13.2,7.5-18.9,7.5-19.3l43.7-14.9c0,0-3.3,6.6-0.9,16.5
			c2.6,11.9,10.3,18.7,10.3,18.7s-22,0.2-41.7,7C361,378.6,357.5,384.1,357.5,384.1z"/>
	</g>
	<g>
		<path fill="#D4A11E" d="M383.4,356.6c12.5-10.3,19.3-23.5,19.3-23.5s-1.8,8.3-0.4,15.8c2.4,12.7,9.9,19.3,9.9,19.3
			s-17.8,0.2-36.9,5.7c-12.7,3.5-16.7,8.6-17.8,10.3C353.3,374.6,370.7,367.2,383.4,356.6z"/>
	</g>
	<g>
		<path fill="#FFC758" d="M433.3,428.7c0,0-12.1-9-14.9-25.9c-2.4-13.4,6.6-23.1,6.6-23.1l68.3-23.5c0,0-3.7,15.2-0.2,29.7
			c4,16.3,18.9,36.5,18.9,36.5s-28.3-8.1-53-5.1C435.5,420.3,433.3,428.7,433.3,428.7z"/>
	</g>
	<g>
		<path fill="#FFC758" d="M419.5,320.4c-0.4-10.3,6.8-18.7,7-19.1l49-17.1c0,0-3.3,7.7-2.4,14.3c1.5,12.5,8.6,19.1,8.6,19.1
			s-19.3-1.1-42,6.8c-12.5,4.4-13.8,10.3-13.8,10.3S419.9,333.1,419.5,320.4z"/>
	</g>
	<g>
		<path fill="#D4A11E" d="M458.1,307.2c8.8-7.7,17.4-22.9,17.4-22.9s-3.3,7.7-2.4,14.3c1.5,12.5,8.6,19.1,8.6,19.1
			s-20.9-0.2-40.9,6.8c-8.6,3.1-14.1,7.7-14.7,10.3C423.2,325.2,446,317.7,458.1,307.2z"/>
	</g>
	<g>
		<path fill="#FFC758" d="M426.5,376.8c0,0-7-8.1-8.4-20.9c-1.3-13.2,6.4-18.5,7-18.9l56.7-19.6c0,0-1.5,4.2-0.2,15.6
			c1.3,9.7,10.8,22.9,10.8,22.9s-30.3,0.9-49,8.1C431.5,368.7,426.5,376.8,426.5,376.8z"/>
	</g>
	<g>
		<path fill="#D4A11E" d="M464.1,344.1c12.3-10.5,17.8-26.4,17.8-26.4s-1.5,9,0,16c2.9,12.3,11.6,22.6,11.6,22.6s-26.4,0.4-45.5,6.8
			c-12.5,4.2-20.2,11.6-21.3,13.8C423.9,366.3,451.8,354.6,464.1,344.1z"/>
	</g>
	<g>
		<path fill="#D4A11E" d="M513.1,423.4c0,0-15.4-20-20-37.6c-2.9-11.6-0.7-24.8,0.2-29.4c-1.8,6.2-7.9,26.1-23.1,40.2
			c-14.5,13.4-43.1,19.8-36.9,32.3c1.1-2,4.4-6.8,16-9.7l-0.2,16h5.5v-17.1C479.9,414.2,513.1,423.4,513.1,423.4z"/>
	</g>
	<path fill="#FFC758" d="M539.4,461c3.5-0.7,7-1.5,12.3-2.9c-0.2-0.2-0.7-0.4-0.9-0.7c-5.7-6.4-4.8-13.2-1.3-16.5
		c12.7-11.9,12.5-20.7,12.5-20.7s-31,6.4-71.9,8.6c-2.6,0.2-12.1,4.4-14.9,4.4c-5.7,0.2-11.4,0.4-17.4,0.4
		c-77.1,0.7-98.7-4.8-123.9-9.4c-25.7-4.8-36.9-9.9-36.9-9.9l-0.9,2.6c0,0,20.2,7.9,34.7,14.9c3.1,1.5,15.2,19.6,19.1,25.7h-91.6
		c-5.1-105,15.2-190.9,15.2-190.9s70.1-14.9,175.6-14.9v-11.2c-111.8,0-186.3,15.8-186.3,15.8S230.3,371,247.4,507.7
		c7.3,56.9,54.3,163.5,201.3,212.9l6.4-9l-6.4-9C310.3,656.2,269.8,562.4,262.8,509c-1.5-11.9-2.6-23.7-3.5-35.2h190.1v-16h-97.6
		c2.2-7,9-8.8,17.6-6.8c8.8,2.2,17.6,4.4,25.9,4c20.9-1.1,17.8-6.6,19.8-6.6c21.5,1.3,29.7,6.6,48.3,6.2c17.1-0.2,23.1-4.8,24.6-4.8
		c20.9-0.2,28.8,9.4,49.7,11.2C538.3,461,539,461,539.4,461z"/>
	<path fill="#D4A11E" d="M635.2,256.4c0,0-74.3-15.8-186.1-15.8v11.2c105.5,0,175.3,14.9,175.3,14.9s20.4,85.9,15.2,190.9h-91.8
		c-7.2-7-3.1-16.3-0.7-18.5c10.8-9.7,10.8-16.3,10.8-16.3s-24.8,6.2-65.7,7.9c-2.6,0-14.1,5.3-16.9,5.3c-5.7,0.2-13.6,0.4-19.6,0.4
		c-53.2,0-79.3-1.1-125.5-11c0.9,1.1,1.3,1.5,2.2,2.9c0.2,0.4,20.2,5.5,20.4,5.9c3.1,4.2,7,7,11.9,9.7c7.5,4,18.5,7.3,27.5,7.9
		c20.9,1.3,16.9-6.6,18.9-6.6c21.3-0.4,35.2,7.2,53.8,7c17.1-0.2,17.6-5.7,19.3-5.7c16.9-0.9,34.1,6.4,48.8,11.2h-83.9v16h189.4
		c-0.9,11.6-2,23.3-3.5,35.2c-7,53.6-47.5,147.2-185.9,193.6v18c147-49.4,194.2-155.8,201.3-212.9
		C667.8,371.1,635.2,256.4,635.2,256.4z"/>
	<g>
		<polygon fill="#00285E" points="105.9,305.9 113.6,291.1 148.3,288.7 130.7,258.6 138.4,244.1 200.2,276.6 193.1,290 152.7,268.9 
			170.1,300.1 169.8,300.4 134.7,303.9 174.7,325 167.7,338.4 		"/>
		<path fill="#00285E" d="M176.4,196l9.7-10.3l71.6,26.4l-11,11.6l-15.8-6.2L210.7,239l7,15.4L207,265.9L176.4,196z M217.5,212.5
			l-22.9-8.8l10.1,22.2L217.5,212.5z"/>
		<polygon fill="#00285E" points="231.8,145.2 243.9,138 294.2,157.8 272,121.1 285,113.2 321,172.7 309.8,179.5 258,159.1 
			281,197.1 268.1,205 		"/>
		<path fill="#00285E" d="M325.6,133.2L325.6,133.2c-5.5-19.3,4.2-39.1,24.8-45c12.5-3.7,21.5-1.5,29.4,2.6l-6.4,13.6
			c-6.6-3.3-12.5-4.6-19.3-2.6c-11.2,3.3-16.7,14.9-13.4,26.6v0.2c3.3,11.4,14.1,18.7,25.5,15.4c7.7-2.2,11.4-6.6,15.4-13l12.1,6.8
			c-4.8,9.4-11.2,16.3-24,20C350.2,163.5,331.1,152.5,325.6,133.2z"/>
		<polygon fill="#00285E" points="409.4,77.1 424.5,76.7 425.4,104.4 453.5,103.7 452.9,76 468.2,75.6 470,145.5 454.6,145.9 
			454,117.8 425.6,118.7 426.5,146.6 411.1,147 		"/>
		<path fill="#00285E" d="M558.5,154.9l12.7-6.2c3.5,7.3,8.1,13.2,15.4,16.5c5.7,2.6,10.1,2,11.9-1.8v-0.2c1.8-3.5,0.2-6.4-9-13.8
			c-11.2-9.2-17.8-16.5-12.1-29v-0.2c5.3-11.4,18-14.7,31-8.8c9.2,4.2,15.8,10.8,19.8,18.9l-12.1,7.3c-3.7-6.6-8.4-11.4-13.6-13.8
			c-5.3-2.4-9.2-1.3-10.8,1.8v0.2c-2,4.2,0.2,6.8,9.9,14.7c11.2,9.2,16.5,17.4,11.2,28.3v0.2c-5.7,12.5-18.7,15.2-32.3,9
			C571.3,173.1,563.2,165.2,558.5,154.9z"/>
		<polygon fill="#00285E" points="660.5,159.1 643.6,146.1 652.1,134.9 698.1,169.8 689.5,181.3 672.6,168.3 639,212.5 626.7,203.2 
					"/>
		<path fill="#00285E" d="M770.8,258.2l14.3,28.6c4,7.9,4.8,15.2,2.9,21.3c-1.8,5.3-5.7,9.4-11.6,12.5h-0.2
			c-10.1,5.1-19.1,2.9-26.1-3.7l-14.7,26.4l-8.1-16l13.2-23.5L735,293l-20,10.1l-6.8-13.6L770.8,258.2z M754.3,301
			c3.3,6.6,8.8,8.8,14.1,6.2h0.2c5.9-2.9,6.8-8.6,3.5-15.2l-6.8-13.6l-17.8,9L754.3,301z"/>
		<polygon fill="#00285E" points="512,123.9 537.7,129.4 544.9,117.1 515,110.5 517.9,96.7 554.4,104.6 557.4,91.4 505.8,80.2 
			491.1,148.3 543.2,159.7 546,146.3 508.9,138.2 		"/>
		<polygon fill="#00285E" points="719.2,190.7 665.6,235.5 699.8,276.2 710.2,267.4 686,238.4 697.2,229 714.3,249.4 728.2,244.8 
			707.7,220.2 718.5,211.2 742.5,239.7 753,230.9 		"/>
		<g>
			<path fill="#00285E" d="M331.6,785.7L331.6,785.7c0-20.4,15.2-36.9,37.1-36.9c13.4,0,21.3,4.4,28.1,11l-9.9,11.4
				c-5.5-5.1-11-7.9-18.2-7.9c-12.1,0-20.7,9.9-20.7,22.2v0.2c0,12.1,8.4,22.4,20.7,22.4c8.1,0,13.2-3.3,18.7-8.3l9.9,10.1
				c-7.3,7.9-15.4,12.7-29.2,12.7C347.2,822.2,331.6,806,331.6,785.7z"/>
			<path fill="#00285E" d="M412.4,749.9H428v71h-15.6V749.9z"/>
			<path fill="#00285E" d="M464.3,764.4h-21.5v-14.5h58.9v14.5h-21.5v56.7h-15.6v-56.7H464.3z"/>
			<path fill="#00285E" d="M535.5,793l-27.2-43.1h18.2l16.9,28.6l17.1-28.6h17.8l-27.2,42.6v28.3h-15.6V793z"/>
		</g>
	</g>
</g>
</svg>
