<?xml version="1.0" encoding="utf-8"?>
<!-- Generator: Adobe Illustrator 23.0.1, SVG Export Plug-In . SVG Version: 6.00 Build 0)  -->
<svg version="1.1" id="Layer_1" xmlns="http://www.w3.org/2000/svg" xmlns:xlink="http://www.w3.org/1999/xlink" x="0px" y="0px"
	 viewBox="0 0 319 319" enable-background="new 0 0 319 319" xml:space="preserve">
<g>
	<polygon fill="#FFFFFF" points="308.663,204.578 308.318,204.233 307.973,203.544 307.284,202.854 306.939,202.503 306.25,201.812 
		305.552,201.469 304.174,200.778 302.795,200.435 300.374,200.435 298.651,200.778 297.272,201.469 296.576,201.812 
		295.885,202.503 295.196,202.854 294.508,203.544 293.817,203.89 293.473,204.233 292.783,204.578 292.439,204.924 
		291.741,205.267 291.398,205.612 290.707,205.958 290.364,206.309 289.673,206.654 289.328,206.999 287.951,207.688 
		287.598,208.033 286.909,208.377 286.563,208.722 285.184,209.411 284.841,209.756 284.495,193.525 284.15,192.49 283.807,191.802 
		283.461,191.103 283.108,190.76 282.765,190.415 282.42,189.726 281.731,189.381 281.04,188.692 280.352,188.347 279.661,187.994 
		278.222,187.98 278.619,187.305 278.972,186.271 279.661,184.892 280.007,183.85 280.352,183.161 280.695,182.127 281.04,181.437 
		281.386,180.395 282.075,178.327 282.42,177.638 282.765,176.597 283.108,175.563 283.461,174.529 283.807,173.487 284.15,172.108 
		284.495,171.074 284.841,169.687 285.184,168.653 285.529,167.275 285.875,165.888 286.218,164.509 286.563,162.778 
		286.909,161.399 287.252,159.677 287.598,157.944 287.951,155.876 288.294,153.455 288.639,150.691 288.984,147.581 
		289.328,143.437 289.328,126.164 288.984,121.675 288.639,118.911 288.294,116.152 287.951,113.731 287.598,111.655 
		287.252,109.933 286.909,108.202 286.563,106.478 286.218,105.093 285.529,102.334 285.184,100.947 284.841,99.57 284.495,98.536 
		284.15,97.149 283.461,95.08 283.108,94.039 282.075,90.937 281.731,89.895 281.386,89.204 281.04,88.17 280.695,87.129 
		280.352,86.44 280.007,85.406 279.318,84.027 278.972,82.985 278.619,82.296 277.931,80.917 277.585,79.875 276.208,77.117 
		275.863,76.42 274.483,73.664 274.132,73.318 273.787,72.622 272.753,70.554 272.408,70.209 272.062,69.52 271.719,68.822 
		271.374,68.133 271.028,67.788 270.685,67.099 270.34,66.754 269.994,66.065 269.643,65.367 269.298,65.023 268.953,64.333 
		268.609,63.989 268.264,63.299 267.919,62.955 267.575,62.265 267.23,61.913 266.885,61.223 266.541,60.879 266.196,60.189 
		265.851,59.845 265.5,59.155 264.809,58.466 264.466,57.77 263.775,57.079 263.43,56.39 262.741,55.7 262.396,55.011 
		262.052,54.658 261.362,53.969 261.011,53.281 259.977,52.247 259.631,51.556 259.286,51.213 258.943,50.86 257.909,49.826 
		257.563,49.137 256.874,48.446 256.521,48.101 256.176,47.758 255.833,47.405 254.797,46.371 254.453,45.682 253.074,44.303 
		252.729,43.95 252.386,43.606 252.033,43.261 249.276,40.504 248.93,40.151 248.242,39.806 247.896,39.463 247.544,39.117 
		245.475,37.049 245.13,36.696 244.441,36.351 243.407,35.317 243.054,34.974 242.366,34.628 240.986,33.249 240.298,32.898 
		239.264,31.864 238.567,31.519 237.877,30.83 237.188,30.485 236.497,29.796 235.809,29.443 235.463,29.098 234.775,28.754 
		234.429,28.409 234.078,28.064 233.388,27.718 233.044,27.375 232.354,27.03 232.01,26.684 231.32,26.341 230.976,25.996 
		230.286,25.643 229.94,25.299 229.244,24.954 228.555,24.609 228.21,24.265 226.831,23.575 226.487,23.231 225.797,22.886 
		225.1,22.541 224.755,22.189 222.687,21.155 222.344,20.81 220.964,20.121 220.266,19.776 218.198,18.742 217.509,18.389 
		216.821,18.046 216.122,17.7 212.675,15.976 211.633,15.632 210.944,15.287 210.256,14.934 209.222,14.591 208.531,14.245 
		207.497,13.9 206.801,13.557 204.733,12.866 204.042,12.523 203.008,12.177 201.966,11.832 200.932,11.481 198.864,10.79 
		197.823,10.447 196.445,10.102 195.409,9.756 194.032,9.413 192.99,9.068 190.232,8.377 188.501,8.034 187.122,7.681 
		185.399,7.335 183.667,6.992 181.599,6.647 179.523,6.301 177.11,5.958 174.345,5.613 170.89,5.267 165.024,4.924 154.321,4.924 
		148.792,5.267 145.345,5.613 142.236,5.958 139.814,6.301 135.679,6.992 133.946,7.335 132.223,7.681 130.836,8.034 129.459,8.377 
		127.734,8.722 126.7,9.068 125.313,9.413 123.936,9.756 122.902,10.102 121.515,10.447 118.413,11.481 117.371,11.832 
		115.303,12.523 114.613,12.866 113.579,13.211 112.537,13.557 111.848,13.9 110.814,14.245 109.435,14.934 108.393,15.287 
		107.014,15.976 105.98,16.321 104.601,17.01 103.904,17.355 101.836,18.389 101.148,18.742 99.768,19.431 99.072,19.776 
		97.004,20.81 96.658,21.155 95.279,21.844 94.583,22.189 94.238,22.541 92.858,23.231 92.515,23.575 91.135,24.265 90.79,24.609 
		90.094,24.954 89.405,25.299 89.06,25.643 88.371,25.996 88.026,26.341 87.335,26.684 86.992,27.03 86.301,27.375 85.95,27.718 
		85.605,28.064 84.916,28.409 84.571,28.754 83.882,29.098 83.537,29.443 83.191,29.796 82.503,30.139 82.157,30.485 81.461,30.83 
		80.427,31.864 79.738,32.207 79.048,32.898 78.702,33.249 78.014,33.594 77.325,34.283 76.972,34.628 76.283,34.974 74.559,36.696 
		73.87,37.049 73.181,37.738 72.828,38.083 70.76,40.151 70.07,40.504 68.692,41.882 68.339,42.227 66.617,43.95 66.271,44.303 
		65.583,44.991 65.237,45.682 64.203,46.716 63.85,47.061 63.507,47.405 63.162,47.758 62.127,48.792 61.782,49.48 60.403,50.86 
		60.059,51.213 59.714,51.901 59.369,52.247 59.018,52.59 58.327,53.281 57.984,53.969 57.293,54.658 56.95,55.011 56.604,55.7 
		55.916,56.39 55.57,57.079 54.882,57.77 54.529,58.466 54.183,58.811 53.84,59.5 53.149,60.189 52.804,60.879 52.461,61.223 
		52.115,61.913 51.77,62.265 51.427,62.955 51.081,63.299 50.736,63.989 50.393,64.333 50.04,65.023 49.694,65.367 49.351,66.065 
		49.006,66.754 48.66,67.099 47.972,68.478 47.626,68.822 47.283,69.52 46.592,70.897 46.249,71.243 45.904,71.931 45.551,72.622 
		45.207,73.318 44.517,74.698 44.171,75.041 43.483,76.42 43.137,77.117 42.103,79.187 41.76,80.228 41.415,80.917 41.062,81.606 
		40.718,82.296 40.373,83.33 40.028,84.027 39.684,84.715 39.339,85.749 38.994,86.44 38.65,87.482 38.305,88.17 37.616,90.238 
		37.271,90.937 36.926,91.971 36.575,93.005 36.229,94.039 35.884,95.08 35.539,96.115 35.195,97.494 34.85,98.536 34.505,99.913 
		34.161,100.947 33.816,102.334 33.127,105.093 32.782,106.823 32.437,108.202 32.086,109.933 31.74,112.001 31.395,114.076 
		31.052,116.497 30.706,118.911 30.361,122.02 30.018,126.51 30.018,142.747 30.361,147.236 30.706,150.345 31.052,153.112 
		31.395,155.525 31.74,157.601 32.086,159.323 32.437,161.054 32.782,162.778 33.127,164.164 33.471,165.543 33.816,166.93 
		34.505,169.687 34.85,171.074 35.539,173.142 35.884,174.183 36.229,175.217 36.575,176.597 36.926,177.285 37.271,178.327 
		37.96,180.395 38.305,181.093 38.65,182.127 38.994,182.816 39.339,183.85 39.684,184.546 40.028,185.582 41.062,187.65 
		40.373,187.65 39.339,187.994 38.994,188.347 37.616,189.035 36.926,189.726 36.575,190.069 36.229,190.76 35.884,191.103 
		35.539,191.802 35.195,192.49 34.85,193.525 34.85,209.756 33.471,209.067 33.127,208.722 32.437,208.377 31.74,208.033 
		31.395,207.688 30.706,207.343 30.361,206.999 29.672,206.654 29.327,206.309 28.638,205.958 27.948,205.612 27.597,205.267 
		27.251,204.924 26.563,204.578 26.217,204.233 25.528,203.89 25.183,203.544 24.494,203.199 24.149,202.854 23.46,202.503 
		23.108,202.157 22.762,201.812 20.694,200.778 19.66,200.435 16.205,200.435 15.171,200.778 14.129,201.123 13.786,201.469 
		13.095,201.812 12.407,202.503 12.061,202.854 11.373,203.544 11.027,204.233 10.682,204.578 10.339,205.612 9.993,206.654 
		9.993,209.756 10.339,211.143 10.682,212.177 11.027,212.522 11.373,213.211 11.718,213.907 13.095,216.666 13.441,217.017 
		14.129,218.396 14.482,219.085 14.828,219.43 15.171,220.119 15.516,220.817 15.862,221.161 16.205,221.851 16.55,222.195 
		17.239,223.574 17.584,223.919 17.93,224.616 18.273,224.961 18.618,225.65 18.971,226.34 19.315,226.684 19.66,227.374 
		20.005,227.718 20.351,228.416 20.694,228.76 21.04,229.45 21.728,230.139 22.074,230.828 22.419,231.173 22.762,231.869 
		23.108,232.214 23.46,232.56 23.804,233.248 24.149,233.594 24.494,234.283 24.838,234.628 25.183,234.981 25.528,235.67 
		26.217,236.358 26.563,237.049 27.597,238.083 27.948,238.779 28.984,239.813 29.327,240.502 30.706,241.881 31.052,242.578 
		32.086,243.614 32.437,243.957 32.782,244.648 33.816,245.682 34.161,246.033 35.195,247.067 35.539,247.757 36.575,248.791 
		36.926,249.135 37.271,249.488 40.718,252.935 41.062,253.288 41.415,253.631 41.415,253.977 41.062,254.665 40.028,255.699 
		39.684,256.39 39.339,256.741 38.994,257.086 38.65,257.775 37.96,258.466 37.616,259.154 37.271,259.5 36.926,260.188 
		36.575,262.264 36.575,262.955 36.926,264.685 37.616,266.064 38.65,267.098 38.994,267.45 41.062,269.518 41.415,269.863 
		42.103,270.208 42.794,270.897 43.137,271.25 43.828,271.939 44.517,272.284 45.551,273.318 45.904,273.663 46.592,274.007 
		46.938,274.352 47.283,274.705 47.626,275.048 48.317,275.394 49.351,276.428 50.04,276.773 50.393,277.116 50.736,277.462 
		51.427,277.807 51.77,278.15 52.115,278.503 52.804,278.849 53.495,279.537 54.183,279.883 54.529,280.226 54.882,280.571 
		55.57,280.917 55.916,281.262 56.604,281.605 56.95,281.958 57.638,282.304 58.327,282.992 59.018,283.338 59.369,283.681 
		60.059,284.026 60.403,284.372 61.093,284.715 61.437,285.06 62.127,285.413 62.816,285.757 63.162,286.102 63.85,286.447 
		64.203,286.791 64.892,287.136 65.237,287.481 66.617,288.17 66.96,288.515 67.651,288.859 68.339,289.212 68.692,289.557 
		70.76,290.591 71.106,290.936 72.483,291.625 73.181,291.97 73.525,292.314 74.215,292.667 76.972,294.046 77.668,294.389 
		81.116,296.114 81.814,296.465 85.259,298.19 86.301,298.533 88.371,299.569 89.405,299.92 90.094,300.265 90.79,300.609 
		91.824,300.954 92.515,301.299 93.549,301.645 94.238,301.988 95.279,302.333 96.313,302.679 97.004,303.022 98.038,303.368 
		99.072,303.721 100.114,304.064 100.802,304.409 103.904,305.443 104.946,305.789 106.325,306.132 108.393,306.823 109.78,307.174 
		110.814,307.519 112.194,307.864 113.233,308.208 117.371,309.242 118.756,309.587 120.481,309.932 121.86,310.278 
		123.591,310.621 125.313,310.974 127.389,311.319 129.114,311.663 131.535,312.008 133.603,312.353 136.022,312.697 
		138.78,313.042 142.236,313.387 146.034,313.731 152.591,314.076 167.1,314.076 173.312,313.731 177.11,313.387 180.565,313.042 
		183.324,312.697 185.743,312.353 188.156,312.008 190.232,311.663 192.3,311.319 194.032,310.974 195.755,310.621 197.479,310.278 
		198.864,309.932 200.589,309.587 201.966,309.242 203.353,308.898 206.112,308.208 207.146,307.864 208.531,307.519 
		209.91,307.174 210.944,306.823 211.986,306.477 213.02,306.132 214.399,305.789 215.434,305.443 216.475,305.098 219.577,304.064 
		220.266,303.721 221.308,303.368 222.344,303.022 223.032,302.679 225.1,301.988 225.797,301.645 226.831,301.299 227.521,300.954 
		228.555,300.609 229.244,300.265 229.94,299.92 230.976,299.569 232.354,298.879 233.388,298.533 234.078,298.19 234.775,297.845 
		237.531,296.465 238.222,296.114 238.918,295.769 243.054,293.701 243.753,293.355 245.13,292.667 245.821,292.314 246.164,291.97 
		247.544,291.28 248.242,290.936 248.93,290.591 249.276,290.246 250.653,289.557 250.998,289.212 251.687,288.859 252.386,288.515 
		252.729,288.17 254.108,287.481 254.453,287.136 255.833,286.447 256.176,286.102 256.874,285.757 257.218,285.413 257.909,285.06 
		258.252,284.715 258.943,284.372 259.286,284.026 259.977,283.681 260.32,283.338 261.011,282.992 261.362,282.647 
		262.052,282.304 262.396,281.958 262.741,281.605 263.43,281.262 263.775,280.917 264.466,280.571 265.154,279.883 
		265.851,279.537 266.541,278.849 267.23,278.503 267.575,278.15 268.264,277.807 269.298,276.773 269.994,276.428 270.685,275.739 
		271.374,275.394 272.062,274.705 272.408,274.352 272.753,274.007 273.442,273.663 274.132,272.973 274.483,272.629 
		274.829,272.284 275.517,271.939 276.208,271.25 276.551,270.897 277.242,270.208 277.931,269.863 278.619,269.174 
		278.972,268.829 280.007,267.795 280.695,267.45 281.04,267.098 283.108,265.03 283.461,264.34 283.807,263.643 284.15,262.61 
		284.15,259.843 283.807,258.809 283.461,258.12 283.108,257.432 282.765,257.086 282.42,256.39 281.386,255.356 281.04,254.665 
		280.007,253.631 279.661,252.935 279.318,252.59 279.318,252.246 282.075,249.488 282.42,249.135 283.108,248.446 283.461,248.101 
		284.15,247.412 284.495,246.723 285.184,246.033 285.529,245.682 286.909,244.302 287.252,243.614 287.598,243.268 
		287.951,242.923 288.639,242.234 288.984,241.538 290.364,240.159 290.707,239.468 291.398,238.779 291.741,238.426 
		292.087,237.738 292.439,237.392 292.783,237.049 293.128,236.358 293.817,235.67 294.162,234.981 294.508,234.628 
		294.851,234.283 295.196,233.594 295.885,232.905 296.23,232.214 296.576,231.869 296.927,231.173 297.617,230.484 
		297.961,229.794 298.306,229.45 298.651,228.76 298.997,228.416 299.34,227.718 299.685,227.374 300.031,226.684 300.374,226.34 
		300.719,225.65 301.065,225.306 301.416,224.616 301.761,224.272 302.106,223.574 302.45,222.885 302.795,222.54 303.484,221.161 
		303.829,220.817 304.174,220.119 304.518,219.43 304.863,219.085 305.897,217.017 306.25,216.666 307.629,213.907 307.973,213.211 
		308.318,212.866 308.663,212.177 309.007,211.143 309.007,205.612 	"/>
	<path fill-rule="evenodd" clip-rule="evenodd" fill="#FFEC00" d="M159.516,13.75c32.133,0,62.954,12.763,85.675,35.482
		c22.719,22.721,35.49,53.542,35.49,85.675c0,49.009-29.526,93.186-74.796,111.942c-45.276,18.748-97.395,8.385-132.046-26.265
		c-34.65-34.652-45.015-86.771-26.265-132.039C66.331,43.269,110.515,13.75,159.516,13.75L159.516,13.75z M159.516,13.75"/>
	<path fill-rule="evenodd" clip-rule="evenodd" fill="#00722C" d="M159.516,11.42h0.006v0.008c34.097,0,64.972,13.818,87.31,36.165
		c22.347,22.338,36.165,53.212,36.165,87.31h0.013v0.006h-0.013c0,34.105-13.818,64.98-36.165,87.317
		c-22.338,22.347-53.212,36.165-87.31,36.165v0.013h-0.006v-0.013c-34.105,0-64.98-13.818-87.317-36.165
		c-22.34-22.338-36.165-53.212-36.165-87.31h-0.008v-0.008h0.008c0-34.103,13.826-64.978,36.165-87.315
		c22.345-22.347,53.212-36.165,87.31-36.165V11.42H159.516z M159.522,16.066v0.008h-0.013v-0.008
		c-32.801,0-62.505,13.31-84.012,34.817c-21.515,21.515-34.824,51.219-34.824,84.025h0.015v0.008h-0.015
		c0,32.801,13.31,62.505,34.824,84.012c21.507,21.515,51.219,34.824,84.02,34.824v-0.008h0.006v0.008
		c32.801,0,62.505-13.31,84.012-34.817c21.515-21.515,34.824-51.219,34.824-84.02h-0.008v-0.013h0.008
		c0-32.801-13.31-62.505-34.817-84.012C222.027,29.376,192.323,16.066,159.522,16.066L159.522,16.066z M159.522,16.066"/>
	<path fill-rule="evenodd" clip-rule="evenodd" fill="#00722C" d="M159.516,27.112h0.006c29.766,0,56.713,12.072,76.219,31.579
		c19.506,19.499,31.571,46.446,31.571,76.212h0.008v0.006h-0.008c0,29.773-12.065,56.721-31.571,76.227
		c-19.506,19.498-46.454,31.571-76.219,31.571v0.008h-0.006v-0.008c-29.766,0-56.721-12.072-76.227-31.571
		c-19.499-19.506-31.563-46.454-31.571-76.219v-0.008c0-29.764,12.072-56.719,31.579-76.225
		c19.506-19.498,46.454-31.571,76.212-31.571H159.516z M159.522,29.435h-0.013c-29.113,0-55.476,11.81-74.564,30.896
		c-19.094,19.096-30.903,45.458-30.903,74.577h0.008v0.008h-0.008c0,29.113,11.81,55.476,30.896,74.57
		c19.096,19.088,45.458,30.898,74.579,30.898h0.006c29.113,0,55.476-11.81,74.57-30.898c19.088-19.094,30.898-45.456,30.898-74.57
		v-0.013c0-29.113-11.81-55.476-30.898-74.564C215.006,41.245,188.636,29.435,159.522,29.435L159.522,29.435z M159.522,29.435"/>
	<path fill-rule="evenodd" clip-rule="evenodd" fill="#00722C" d="M132.35,228.932c-6.998-2.016-13.682-4.796-19.94-8.243V108.373
		l-8.169,26.132h-11.57l-8.836-25.21c-2.72,8.04-4.196,16.659-4.196,25.612c0,22.056,8.94,42.026,23.395,56.481v23.425
		c-25.029-17.722-41.372-46.91-41.372-79.907c0-24.473,8.991-46.849,23.851-64.011l13.939,28.5l15.167-51.445
		c5.613-2.899,11.549-5.283,17.73-7.073V228.932z M231.935,168.66l15.136,9.968c-10.739,21.469-29.142,38.443-51.616,47.323V43.867
		c20.391,8.057,37.424,22.767,48.432,41.456l-14.718,10.461c-3.731-6.624-8.37-12.658-13.759-17.933l-0.015,114.129
		C222.073,185.371,227.911,177.278,231.935,168.66L231.935,168.66z M158.691,232.761c-6.843-0.059-13.511-0.823-19.949-2.218V39.275
		c6.693-1.446,13.647-2.218,20.774-2.218c10.296,0,20.224,1.596,29.547,4.549l-0.015,19.063c-9.135-3.633-19.101-5.688-29.532-5.634
		c-0.278,0-0.51,0.021-0.871,0l0.015,69.893h19.777v19.919h-19.769L158.691,232.761z M158.691,232.761"/>
	<path fill-rule="evenodd" clip-rule="evenodd" fill="#FFEC00" d="M275.458,261.163c-30.522,28.049-71.236,45.18-115.942,45.18
		c-43.989,0-84.102-16.592-114.453-43.831l20.916-26.894c24.534,22.802,57.408,36.756,93.537,36.756
		c36.839,0,70.297-14.501,94.981-38.107L275.458,261.163z M275.458,261.163"/>
	<path fill-rule="evenodd" clip-rule="evenodd" fill="#00722C" d="M276.551,262.37h-0.008c-4.316,3.971-8.834,7.718-13.517,11.225
		c-4.677,3.493-9.563,6.776-14.635,9.818c-25.988,15.595-56.391,24.555-88.875,24.555h-0.008v-0.006
		c-22.205,0-43.427-4.182-62.925-11.804c-3.177-1.243-6.31-2.578-9.391-3.994c-15.842-7.305-30.393-16.935-43.223-28.446
		l-1.124-1.011l0.928-1.199L64.69,234.62l1.078-1.395l1.304,1.186l0.023,0.021c3.386,3.148,6.947,6.131,10.647,8.934
		c3.733,2.816,7.585,5.425,11.541,7.823c20.488,12.41,44.52,19.55,70.232,19.55h0.006v0.008c18.204,0,35.565-3.582,51.43-10.079
		c2.571-1.057,5.111-2.187,7.629-3.409c12.859-6.219,24.586-14.411,34.8-24.175l1.297-1.235l1.101,1.416l20.96,26.896l0.928,1.191
		L276.551,262.37z M261.078,270.979c4.219-3.154,8.28-6.498,12.17-10.012l-18.931-24.294c-10.146,9.458-21.701,17.415-34.32,23.516
		c-2.548,1.237-5.149,2.398-7.808,3.486c-16.247,6.653-34.03,10.325-52.667,10.325v0.008h-0.006
		c-26.311,0-50.92-7.321-71.911-20.038c-4.107-2.488-8.055-5.157-11.817-8.003c-3.321-2.503-6.526-5.162-9.607-7.95L47.283,262.31
		c12.312,10.85,26.198,19.947,41.274,26.894c3.02,1.395,6.093,2.705,9.21,3.919c19.14,7.48,39.964,11.593,61.741,11.593v-0.008
		h0.008c31.891,0,61.716-8.798,87.204-24.083C251.651,277.665,256.447,274.442,261.078,270.979L261.078,270.979z M261.078,270.979"
		/>
	<path fill-rule="evenodd" clip-rule="evenodd" fill="#FFEC00" d="M301.289,208.557c-8.491,16.299-19.702,30.949-33.04,43.352
		l-13.751-17.642l-14.538,5.036c15.115-11.668,27.623-26.535,36.509-43.59l-0.405,28.139
		C286.21,218.584,294.536,213.57,301.289,208.557L301.289,208.557z M42.5,195.6c8.896,17.108,21.432,32.014,36.578,43.703
		l-13.099-3.685l-13.722,17.64c-13.998-12.694-25.741-27.84-34.544-44.752c6.766,5.028,15.121,10.064,25.298,15.347L42.5,195.6z
		 M42.5,195.6"/>
	<path fill-rule="evenodd" clip-rule="evenodd" fill="#00722C" d="M302.735,209.315c-1.207,2.308-2.459,4.585-3.762,6.818
		c-1.281,2.181-2.638,4.391-4.084,6.611c-7.246,11.15-15.834,21.342-25.532,30.357c-0.658,0.614-1.694,0.577-2.3-0.083
		c-0.059-0.059-0.106-0.128-0.157-0.188l-12.964-16.65l-13.45,4.66c-0.848,0.293-1.769-0.165-2.062-1.011
		c-0.232-0.675,0.008-1.402,0.547-1.813c2.099-1.619,4.138-3.298,6.116-5.022c1.978-1.73,3.912-3.528,5.799-5.387
		c9.646-9.502,17.82-20.511,24.137-32.651c0.42-0.794,1.402-1.109,2.204-0.689c0.599,0.315,0.929,0.951,0.869,1.588l-0.366,25.284
		c4.128-2.189,7.913-4.324,11.382-6.423c4.167-2.525,7.89-5.005,11.211-7.464c0.719-0.531,1.738-0.382,2.271,0.338
		c0.389,0.518,0.418,1.191,0.134,1.725H302.735z M296.155,214.492l0.345-0.6c-1.815,1.199-3.718,2.406-5.711,3.612v-0.008
		c-4.257,2.578-8.901,5.172-13.975,7.802c-0.232,0.111-0.487,0.178-0.764,0.178c-0.9-0.006-1.619-0.748-1.604-1.64l0.307-21.657
		c-5.959,10.183-13.235,19.514-21.59,27.749c-1.702,1.671-3.447,3.303-5.245,4.9l5.957-2.068c0.66-0.269,1.446-0.082,1.903,0.503
		l12.65,16.239c8.986-8.535,16.959-18.113,23.732-28.536C293.51,218.899,294.843,216.733,296.155,214.492L296.155,214.492z
		 M43.955,194.858c1.253,2.406,2.548,4.729,3.896,6.969c1.387,2.308,2.818,4.535,4.303,6.693
		c7.702,11.217,17.137,21.177,27.913,29.495c0.714,0.547,0.848,1.573,0.293,2.277c-0.412,0.547-1.101,0.75-1.725,0.577
		l-12.042-3.388l-13.047,16.778c-0.554,0.712-1.581,0.84-2.292,0.286c-0.031-0.023-0.059-0.054-0.09-0.075v-0.008l-0.059-0.054
		l-0.038-0.036c-1.97-1.792-3.873-3.612-5.709-5.448c-1.867-1.859-3.702-3.798-5.523-5.807c-9.233-10.2-17.175-21.574-23.567-33.865
		c-0.412-0.794-0.105-1.782,0.696-2.195c0.614-0.322,1.333-0.211,1.821,0.209c3.334,2.473,7.037,4.938,11.144,7.426
		c3.468,2.106,7.269,4.242,11.412,6.438l-0.457-25.501c-0.015-0.9,0.696-1.635,1.596-1.65
		C43.116,193.968,43.678,194.326,43.955,194.858L43.955,194.858z M45.056,203.491c-0.269-0.457-0.539-0.913-0.808-1.37l0.389,21.59
		c0.021,0.299-0.031,0.606-0.18,0.89c-0.412,0.794-1.395,1.111-2.189,0.698c-5.095-2.645-9.757-5.247-14.027-7.831
		c-2.009-1.214-3.919-2.429-5.74-3.628c5.627,9.742,12.258,18.825,19.746,27.097c1.73,1.918,3.536,3.814,5.418,5.696
		c1.446,1.454,2.914,2.862,4.391,4.234L64.69,234.62c0.397-0.51,1.07-0.756,1.73-0.57l5.613,1.581
		c-8.543-7.426-16.126-15.915-22.564-25.275C47.92,208.085,46.443,205.8,45.056,203.491L45.056,203.491z M18.783,207.268
		c0.15,0.136,0.278,0.294,0.374,0.48"/>
	<path fill-rule="evenodd" clip-rule="evenodd" fill="#FFEC00" d="M79.078,239.303l-3.463,4.481
		c-3.334-2.576-6.549-5.297-9.636-8.167L79.078,239.303z M79.078,239.303"/>
	<path fill-rule="evenodd" clip-rule="evenodd" fill="#00722C" d="M80.321,240.352l-3.417,4.422
		c-0.554,0.712-1.573,0.846-2.285,0.299v-0.008c-0.368-0.276-0.84-0.645-1.41-1.101c-0.554-0.441-1.019-0.817-1.4-1.124
		c-2.39-1.941-4.706-3.956-6.939-6.031c-0.66-0.616-0.698-1.642-0.082-2.302c0.441-0.48,1.109-0.629,1.692-0.441l13.032,3.672
		c0.871,0.24,1.372,1.14,1.132,2.001C80.577,239.971,80.463,240.174,80.321,240.352L80.321,240.352z M75.324,241.5l0.988-1.282
		l-3.904-1.101c0.48,0.405,0.967,0.809,1.454,1.207c0.539,0.434,0.998,0.802,1.364,1.093L75.324,241.5z M75.324,241.5"/>
	<path fill-rule="evenodd" clip-rule="evenodd" fill="#FFEC00" d="M239.96,239.303l3.463,4.481c3.334-2.576,6.549-5.297,9.628-8.167
		L239.96,239.303z M239.96,239.303"/>
	<path fill-rule="evenodd" clip-rule="evenodd" fill="#00722C" d="M242.719,240.218l0.988,1.282l0.105-0.082
		c0.366-0.292,0.825-0.66,1.356-1.093c0.487-0.397,0.975-0.802,1.462-1.207L242.719,240.218z M242.134,244.774l-3.417-4.422
		c-0.15-0.173-0.263-0.382-0.322-0.614c-0.247-0.861,0.261-1.761,1.124-2.001l13.032-3.672c0.583-0.188,1.251-0.038,1.692,0.441
		c0.616,0.66,0.577,1.686-0.082,2.302c-2.233,2.076-4.549,4.09-6.939,6.031c-0.374,0.307-0.838,0.683-1.4,1.124
		c-0.57,0.457-1.042,0.825-1.402,1.101l-0.008,0.008C243.699,245.62,242.68,245.486,242.134,244.774L242.134,244.774z
		 M242.134,244.774"/>
	<path fill-rule="evenodd" clip-rule="evenodd" fill="#00722C" d="M82.173,257.259l6.879,3.664l-2.818,11.712l8.124-8.894
		l6.856,3.649l-9.001,16.928l-4.27-2.277l6.864-12.905L84.623,280.28l-3.866-2.053l3.566-14.666l-6.864,12.911l-4.286-2.277
		L82.173,257.259z M107.171,269.203l5.508,2.227l-7.179,17.774l-5.508-2.225L107.171,269.203z M113.414,291.736l4.639-18.599
		l9.577,2.39c1.776,0.443,3.104,0.93,3.965,1.47c0.861,0.539,1.475,1.289,1.851,2.264c0.366,0.965,0.405,2.045,0.111,3.221
		c-0.261,1.034-0.704,1.874-1.326,2.511c-0.629,0.637-1.387,1.094-2.271,1.372c-0.57,0.173-1.303,0.255-2.202,0.232
		c0.629,0.397,1.07,0.748,1.326,1.057c0.173,0.209,0.397,0.606,0.675,1.205c0.276,0.6,0.457,1.049,0.516,1.358l1.439,6.083
		l-6.496-1.617l-1.657-6.453c-0.201-0.831-0.426-1.393-0.681-1.692c-0.345-0.391-0.779-0.652-1.304-0.781l-0.503-0.127l-1.888,7.545
		L113.414,291.736z M121.949,282.116l2.421,0.599c0.263,0.069,0.787,0.113,1.588,0.129c0.397,0.021,0.758-0.098,1.08-0.353
		c0.315-0.247,0.524-0.577,0.629-0.988c0.15-0.6,0.075-1.103-0.232-1.521c-0.299-0.42-0.975-0.758-2.024-1.021l-2.525-0.629
		L121.949,282.116z M149.842,294.915l-6.722-0.585l-1.207,3.073l-6.026-0.533l8.842-18.472l6.438,0.562l5.515,19.731l-6.183-0.539
		L149.842,294.915z M148.965,290.681l-1.516-7.052l-2.697,6.676L148.965,290.681z M161.187,292.344l5.59-0.84
		c0.194,0.9,0.508,1.575,0.921,2.016c0.675,0.727,1.581,1.026,2.713,0.93c0.84-0.077,1.469-0.322,1.895-0.758
		c0.412-0.441,0.6-0.915,0.556-1.439c-0.038-0.495-0.294-0.915-0.765-1.274c-0.472-0.353-1.506-0.629-3.117-0.84
		c-2.645-0.359-4.556-0.965-5.74-1.836c-1.199-0.861-1.859-2.045-1.993-3.536c-0.083-0.982,0.119-1.941,0.614-2.864
		c0.487-0.921,1.281-1.679,2.383-2.277c1.103-0.6,2.645-0.99,4.631-1.161c2.444-0.211,4.347,0.075,5.703,0.877
		c1.364,0.794,2.248,2.172,2.668,4.128l-5.538,0.81c-0.217-0.848-0.585-1.447-1.093-1.792c-0.51-0.345-1.178-0.487-2.009-0.412
		c-0.691,0.061-1.191,0.247-1.514,0.57c-0.322,0.322-0.464,0.691-0.428,1.109c0.023,0.301,0.188,0.562,0.495,0.781
		c0.307,0.232,0.982,0.405,2.045,0.531c2.63,0.33,4.527,0.735,5.688,1.207c1.168,0.464,2.047,1.101,2.622,1.903
		c0.585,0.794,0.923,1.717,1.013,2.759c0.111,1.22-0.136,2.383-0.719,3.476c-0.585,1.093-1.462,1.957-2.638,2.599
		c-1.17,0.639-2.676,1.042-4.527,1.199c-3.244,0.286-5.552-0.142-6.908-1.28C162.371,295.792,161.523,294.263,161.187,292.344
		L161.187,292.344z M183.654,290.764l5.387-1.709c0.338,0.854,0.75,1.477,1.23,1.851c0.771,0.606,1.715,0.764,2.818,0.495
		c0.815-0.203,1.4-0.554,1.753-1.049c0.343-0.495,0.457-0.998,0.328-1.506c-0.119-0.48-0.434-0.863-0.959-1.139
		c-0.516-0.27-1.588-0.389-3.213-0.345c-2.661,0.067-4.646-0.24-5.951-0.905c-1.318-0.675-2.158-1.732-2.525-3.192
		c-0.232-0.953-0.188-1.926,0.157-2.916c0.343-0.99,1.011-1.867,2.001-2.63c0.988-0.765,2.457-1.387,4.391-1.867
		c2.375-0.591,4.301-0.606,5.771-0.029c1.468,0.568,2.563,1.79,3.28,3.664l-5.343,1.663c-0.351-0.802-0.81-1.333-1.364-1.604
		c-0.554-0.255-1.235-0.292-2.045-0.09c-0.675,0.165-1.14,0.435-1.408,0.802c-0.271,0.368-0.353,0.758-0.248,1.163
		c0.075,0.292,0.276,0.524,0.614,0.696c0.338,0.173,1.034,0.24,2.099,0.201c2.653-0.09,4.585,0.015,5.807,0.301
		c1.23,0.284,2.197,0.771,2.893,1.468c0.696,0.696,1.176,1.552,1.431,2.571c0.299,1.191,0.24,2.375-0.173,3.545
		c-0.405,1.168-1.14,2.166-2.195,2.981c-1.049,0.81-2.481,1.446-4.288,1.897c-3.162,0.786-5.5,0.727-7.021-0.196
		C185.353,293.977,184.283,292.6,183.654,290.764L183.654,290.764z M204.756,282.453c-1.17-2.908-1.276-5.494-0.317-7.756
		c0.967-2.279,2.893-3.994,5.778-5.157c2.96-1.199,5.561-1.326,7.81-0.382c2.233,0.936,3.94,2.839,5.095,5.703
		c0.838,2.076,1.176,3.925,1.011,5.536c-0.165,1.611-0.756,3.05-1.776,4.324c-1.026,1.281-2.517,2.308-4.489,3.11
		c-2.007,0.81-3.798,1.163-5.364,1.057c-1.575-0.111-3.05-0.696-4.43-1.746C206.703,286.094,205.594,284.529,204.756,282.453
		L204.756,282.453z M210.263,280.249c0.727,1.799,1.581,2.952,2.563,3.47c0.98,0.516,2.053,0.539,3.2,0.075
		c1.176-0.472,1.932-1.23,2.269-2.256c0.338-1.034,0.105-2.54-0.696-4.525c-0.675-1.679-1.506-2.766-2.496-3.267
		c-0.99-0.495-2.06-0.51-3.215-0.046c-1.109,0.451-1.836,1.199-2.187,2.256C209.341,277.013,209.529,278.444,210.263,280.249
		L210.263,280.249z M223.886,264.288l5.141-2.968l7.225,12.514l8.002-4.623l2.362,4.092l-13.137,7.591L223.886,264.288z
		 M223.886,264.288"/>
</g>
</svg>
