<?xml version="1.0" encoding="UTF-8"?>
<svg id="Layer_1" xmlns="http://www.w3.org/2000/svg" version="1.1" viewBox="0 0 400 400">
  <!-- Generator: Adobe Illustrator 29.5.1, SVG Export Plug-In . SVG Version: 2.1.0 Build 141)  -->
  <defs>
    <style>
      .st0 {
        fill: #fff;
      }

      .st1 {
        fill: #0a2240;
      }
    </style>
  </defs>
  <path class="st1" d="M199.7.3s36.8,3.5,84.7,19.4c43.8,14.6,86.1,37.5,86.1,37.5v6.3c0,156.3-33.3,252.8-170.8,336.1,0,0-21.5-13.9-42.4-29.2C52.4,289.2,29.5,198.3,29.5,63.5v-6.3s41.7-22.9,86.1-37.5C163.5,3.8,199.7.3,199.7.3"/>
  <path class="st0" d="M116.3,23.2C164.2,7.3,199.7,3.8,199.7,3.8c0,0,36.1,3.5,84,19.4,43.1,14.6,82.6,36.1,82.6,36.1v4.2c0,134-22.2,224.3-126.4,304.2-20.1,15.3-40.3,27.1-40.3,27.1,0,0-19.4-11.8-39.6-27.1C55.9,287.9,33.7,197.6,33.7,63.5v-4.2s39.6-21.5,82.6-36.1"/>
  <path class="st1" d="M248.3,237.9l11.1-38.2,13.9,38.9,62.5-17.4-41.7-122.2h-68.8l-25.7,45.8-25.7-45.8h-68.1l-41.7,122.2,62.5,17.4,13.9-38.9,11.1,38.2h96.5Z"/>
  <path class="st1" d="M98.3,37.8v52.1l-41.7,121.5c-9.7-34-16-79.9-16-147.9,0,0,24.3-13.2,57.6-25.7M98.3,239.9v54.9c-13.2-18.8-25.7-37.5-35.4-64.6l35.4,9.7ZM241.3,246.2v110.4c-22.2,18.1-41.7,29.9-41.7,29.9,0,0-19.4-11.8-42.4-30.6v-108.3h84v-1.4ZM301,295.5v-55.6l36.1-10.4c-10.4,27.8-22.9,47.2-36.1,66M241.3,89.9h-20.1l-21.5,38.2-20.8-38.2h-21.5V19.1c26.4-6.3,42.4-7.6,42.4-7.6,0,0,16.7,1.4,41.7,7.6v70.8ZM301,89.9v-52.8c33.3,13.2,58.3,26.4,58.3,26.4,0,68.8-6.9,114.6-16.7,149.3l-41.7-122.9Z"/>
</svg>