<svg id="Layer_2" data-name="Layer 2" xmlns="http://www.w3.org/2000/svg" xmlns:xlink="http://www.w3.org/1999/xlink" viewBox="0 0 892 600"><defs><style>.cls-1{fill:none;}.cls-2{clip-path:url(#clip-path);}.cls-3{fill:#fff;}.cls-4{fill:#ce1126;}.cls-5{fill:#0038a8;}.cls-6{fill:#c00;}.cls-7{fill:#00c;}.cls-8{fill:#afb1a7;}.cls-9{fill:#fbc103;}.cls-10{fill:#c38533;}.cls-11{fill:#936933;}.cls-12{fill:#ab3426;}.cls-13{fill:#03813b;}.cls-14{fill:#27513b;}.cls-15{fill:#939598;}</style><clipPath id="clip-path"><rect class="cls-1" width="892" height="600" rx="30.93"/></clipPath></defs><title>Paraguai</title><g class="cls-2"><path class="cls-3" d="M-4,0H896V600H-4Z"/><path class="cls-4" d="M-4,0H896V200H-4Z"/><path class="cls-5" d="M-4,400H896V600H-4Z"/><circle class="cls-6" cx="446" cy="300" r="85"/><circle class="cls-3" cx="446" cy="300" r="80"/><circle class="cls-7" cx="446" cy="300" r="75"/><circle class="cls-3" cx="446" cy="300" r="70"/><path class="cls-1" d="M402.75,325a50,50,0,1,1,86.5,0"/><path d="M402,324.12l-9.81,4.36-1.85-4.17a7.58,7.58,0,0,1-.75-2.4,2.39,2.39,0,0,1,.43-1.56,3,3,0,0,1,1.36-1.12,2.89,2.89,0,0,1,2.11-.16,3.42,3.42,0,0,1,1.77,1.54,4.85,4.85,0,0,1,.35-1.42,11.51,11.51,0,0,1,1.09-1.84l1.38-2.05,1.06,2.37-1.5,2.38a13.71,13.71,0,0,0-1,1.69,1.71,1.71,0,0,0-.15.77,3.33,3.33,0,0,0,.34,1.05l.17.4,4.1-1.82Zm-6.54.54-.65-1.47a9.46,9.46,0,0,0-.91-1.73,1.24,1.24,0,0,0-.67-.37,1.45,1.45,0,0,0-.82.13,1.23,1.23,0,0,0-.74,1.53c.05.18.25.66.61,1.47l.69,1.54Zm2.39-10.56-10.51,2.23-1.64-7.79,1.77-.38,1.2,5.67,2.33-.49-1.11-5.28,1.77-.37,1.11,5.27,2.86-.6-1.24-5.87,1.77-.38ZM396,304.24l-10.74.09,0-3.48a12,12,0,0,1,.15-2.58,2.82,2.82,0,0,1,1-1.55,3.91,3.91,0,0,1,3.76-.29,2.85,2.85,0,0,1,1.06.9,3.23,3.23,0,0,1,.52,1.12,12.29,12.29,0,0,1,.17,2.25v1.41l4.05,0Zm-8.94-2.09,3.05,0v-1.18a6,6,0,0,0-.18-1.72,1.47,1.47,0,0,0-.54-.67,1.54,1.54,0,0,0-1.8.11,1.55,1.55,0,0,0-.47.88,12.72,12.72,0,0,0-.06,1.56Zm-1.48-10.07L386,290l5.7,1.16a14.34,14.34,0,0,0,1.78.28,1.82,1.82,0,0,0,1.17-.44,2.3,2.3,0,0,0,.67-1.33,2.24,2.24,0,0,0-.09-1.44,1.47,1.47,0,0,0-.8-.73,11.19,11.19,0,0,0-1.76-.46l-5.83-1.18.44-2.13,5.52,1.13a13.76,13.76,0,0,1,2.64.71,3.07,3.07,0,0,1,1.2.9,3.45,3.45,0,0,1,.6,1.42,5.44,5.44,0,0,1-.09,2.09,5.82,5.82,0,0,1-.81,2.21,3.44,3.44,0,0,1-1.15,1.05,2.93,2.93,0,0,1-1.29.36,12.76,12.76,0,0,1-2.71-.34Zm3.1-12.82,1.74-3.92a11.07,11.07,0,0,1,.87-1.7,2.78,2.78,0,0,1,2-1.24,2.57,2.57,0,0,1,2.38,1.14,2.45,2.45,0,0,1,.42,1.39,2.8,2.8,0,0,1,1.5-1,2.62,2.62,0,0,1,1.7.17,3.2,3.2,0,0,1,1.16.89,2.94,2.94,0,0,1,.64,1.3,3,3,0,0,1-.13,1.53c-.11.35-.44,1.16-1,2.42l-1.48,3.35Zm2.52-1.26,2.27,1,.57-1.3c.34-.78.54-1.26.61-1.46a1.4,1.4,0,0,0,0-.95,1.13,1.13,0,0,0-.64-.63,1.17,1.17,0,0,0-.85-.08,1.26,1.26,0,0,0-.68.59q-.17.29-.78,1.68Zm3.9,1.73,2.63,1.16.81-1.83a11.81,11.81,0,0,0,.54-1.39,1.36,1.36,0,0,0-.07-.89,1.34,1.34,0,0,0-.71-.65,1.39,1.39,0,0,0-.85-.12,1.36,1.36,0,0,0-.72.42,7.67,7.67,0,0,0-.92,1.7Zm8.1-6-8.68-6.16,1.25-1.77L403,271l3.12-4.4,1.47,1.05Zm5.48-7.19-7.85-7.33,1.48-1.58,7.85,7.33Zm5.76-10.52,2.07-.79a4.79,4.79,0,0,1,.36,3,5.07,5.07,0,0,1-5.37,3.48,5.57,5.57,0,0,1-3.56-2.28,5.85,5.85,0,0,1-1.5-4.12A4.74,4.74,0,0,1,408.4,252a4.44,4.44,0,0,1,3.23-1.08,4.3,4.3,0,0,1,2.09.87l-1.36,1.73a2.32,2.32,0,0,0-1.45-.53,2.22,2.22,0,0,0-1.45.53,2.43,2.43,0,0,0-1,1.87,4.18,4.18,0,0,0,1.14,2.64,4.48,4.48,0,0,0,2.38,1.82,2.37,2.37,0,0,0,2-.51,2.19,2.19,0,0,0,.82-1.35,3.16,3.16,0,0,0-.38-1.91Zm14.43-3.45-2.12,1-1.91-1.78L421,253.75l.28,2.58-2.07,1-1-11.49,2.06-1Zm-5.45-2.06-3.07-2.94.44,4.22Zm9-10,3.91-.61a8.21,8.21,0,0,1,2.05-.11,3.55,3.55,0,0,1,1.75.73,4.54,4.54,0,0,1,1.28,1.57,7.71,7.71,0,0,1,.74,2.45,7.18,7.18,0,0,1,0,2.31,4.75,4.75,0,0,1-.84,2.05A3.87,3.87,0,0,1,440,250a6.91,6.91,0,0,1-1.86.52l-4,.62Zm2.42,1.46,1.08,7,1.6-.25a5.61,5.61,0,0,0,1.28-.3,2,2,0,0,0,.8-.57,2.25,2.25,0,0,0,.4-1.11,6.93,6.93,0,0,0-.08-2,6.68,6.68,0,0,0-.51-1.86,2.5,2.5,0,0,0-.77-.93,2.09,2.09,0,0,0-1.06-.35,10.56,10.56,0,0,0-1.78.17Zm10,7.76.58-10.72,7.95.44-.1,1.81-5.78-.32-.13,2.38,5.38.29-.1,1.81-5.38-.29-.16,2.91,6,.33-.1,1.81Zm10.05.81,2.6-10.32,2.1.53-2.16,8.57,5.23,1.31-.44,1.76Zm12.65,4,5.35-9.31,3,1.74a12.13,12.13,0,0,1,2.15,1.43,2.74,2.74,0,0,1,.82,1.68,3.32,3.32,0,0,1-.51,2.12,3.53,3.53,0,0,1-1.14,1.26,3,3,0,0,1-1.32.47,3.14,3.14,0,0,1-1.22-.12,12.41,12.41,0,0,1-2-1l-1.22-.71-2,3.51Zm6.33-6.65-1.52,2.64,1,.59a5.38,5.38,0,0,0,1.57.71,1.41,1.41,0,0,0,1.48-.72,1.37,1.37,0,0,0,.19-1,1.49,1.49,0,0,0-.52-.84,9.28,9.28,0,0,0-1.32-.85Zm9.48,18.28-1.75-1.57.92-2.44-3.19-2.87L477,260.59l-1.71-1.54,10.28-5.2,1.7,1.53Zm-.14-5.83,1.56-4-3.74,2Zm.87,6.8,8.71-6.27,2.66,3.7a7.58,7.58,0,0,1,1.23,2.2,2.42,2.42,0,0,1-.11,1.61,3,3,0,0,1-1.09,1.37,2.88,2.88,0,0,1-2,.59,3.43,3.43,0,0,1-2.05-1.14,4.72,4.72,0,0,1-.05,1.47,13.35,13.35,0,0,1-.69,2l-.94,2.28-1.51-2.1,1-2.64a13.89,13.89,0,0,0,.61-1.85,1.61,1.61,0,0,0,0-.79,3.26,3.26,0,0,0-.53-1l-.26-.36L485.34,269Zm6.29-1.86.94,1.3a7.87,7.87,0,0,0,1.24,1.5,1.14,1.14,0,0,0,.73.23,1.33,1.33,0,0,0,.78-.29,1.3,1.3,0,0,0,.54-.75,1.34,1.34,0,0,0-.13-.9c-.09-.16-.39-.6-.9-1.31l-1-1.37Zm3.67,19.7-.93-2.17,1.87-1.82-1.7-3.94-2.59.15-.91-2.12,11.52-.4.91,2.11Zm2.33-5.35,3.07-2.93-4.23.24Zm2.74,10.72,1.77-.33.85,4.6-4.21.77a6.16,6.16,0,0,1-1.5-1.73,7.2,7.2,0,0,1-1-2.49,5.8,5.8,0,0,1,.16-3,4.45,4.45,0,0,1,1.65-2.22,6.53,6.53,0,0,1,2.7-1.14,6.14,6.14,0,0,1,3.06.16,4.77,4.77,0,0,1,2.34,1.66,5.64,5.64,0,0,1,1,2.43,5.19,5.19,0,0,1-.26,3.23,3.85,3.85,0,0,1-2,1.84l-.79-2.05a2.31,2.31,0,0,0,1.08-1.06,2.57,2.57,0,0,0,.16-1.62,2.92,2.92,0,0,0-1.29-2.06,3.77,3.77,0,0,0-2.78-.35,4.25,4.25,0,0,0-2.67,1.36,2.83,2.83,0,0,0-.53,2.36,3.67,3.67,0,0,0,.51,1.3,4.41,4.41,0,0,0,.85,1l1.34-.24Zm7.76,7.78-.09,2.16-5.81-.25a13.66,13.66,0,0,0-1.8,0,1.79,1.79,0,0,0-1.09.61,2.36,2.36,0,0,0-.46,1.42,2.26,2.26,0,0,0,.32,1.4,1.49,1.49,0,0,0,.9.61,11.37,11.37,0,0,0,1.82.17l5.94.26-.1,2.16-5.63-.24a14.84,14.84,0,0,1-2.72-.29,3,3,0,0,1-1.32-.71,3.22,3.22,0,0,1-.82-1.3,5.5,5.5,0,0,1-.24-2.08,5.84,5.84,0,0,1,.46-2.31,3.35,3.35,0,0,1,1-1.22,3,3,0,0,1,1.22-.55,12.73,12.73,0,0,1,2.73-.1l5.72.25ZM493,317.94l.6-2.27,2.6-.28,1.11-4.15-2.13-1.48.59-2.23,9.3,6.81-.59,2.21Zm5.13-2.76,4.23-.4-3.48-2.43Zm-7,6.34,4,2,7.32-.7-1.15,2.27-4.93.33,2.67,4.13-1.13,2.23-3.77-6.34-4-2Z"/><path class="cls-8" d="M433.62,344.5c-2.25-1.25-3.75-1.38-5.25-.38-2.75,1.75-6.37.25-5.87-2.5.25-1.49-.5-2.37-2.38-2.62-3.62-.5-3.75-2.25-.12-3.13,2.37-.62,2.5-1,.87-2.87s-1.37-2,2.63-1.25,3.62.5-2-2.25c-7.38-3.38-14.75-12.13-16.88-19.75-.75-2.75-1-5.25-.75-5.63s-.12-2.5-1.12-4.75c-1.75-4.37-1.5-8.87,1.5-17.5.87-2.87,1.62-4,1.75-2.5s.75.63,1.88-2.37c3.12-8.75,19-19.88,30.87-21.38,5.38-.75,5.38-.75,2.25,1.25l-3.12,2,4.12-.62c4.88-.88,5.12-.13.62,2.25l-3.49,1.87,3.37.13c1.75,0,3.63.75,3.87,1.62.51.88,1.13.38,1.63-1.37.5-2,1.5-2.75,3-2.38s2-.12,1.5-2.25c-.62-3.37,2.62-5,6.13-3a18.67,18.67,0,0,1,5,5.25c1.25,2.25,2.37,3.38,2.37,2.63a2.75,2.75,0,0,1,2.13-2.25c2.37-1,7.12,3,9.12,7.87,1,2.38,2.25,3.38,4.13,3.25,3.5-.25,4.62,1.38,4.62,7,0,4.38,2.5,8.25,4.13,6.5,2-1.87.62,8.13-1.5,12.25s-2.25,4.75-.5,6.38,1.62,2.37-.13,5.87a19.76,19.76,0,0,1-5.12,5.88c-2.25,1.5-3.13,3-2.88,5.25s-.62,3.87-3.87,6.12c-2.38,1.63-5.63,2.88-7.25,2.88-3,0-7.5,3.25-6.25,4.5.37.37,3.25-.25,6.37-1.25,7.5-2.5,9-2.5,7,0-1.37,1.62-1.25,2,1,2.62,3.63.88,3.5,2.63,0,3.13-1.87.25-2.87,1.25-2.87,2.87,0,2.75-3.88,4.13-5.88,2.13-.87-.88-2.62-.75-5.37.62-3.63,1.75-4.38,1.75-7.88-.12-3.12-1.63-4.12-3.13-4.75-7-1-6.38-2.5-6.38-3.5,0-.62,3.75-1.62,5.37-4.5,6.87-4.37,2.25-4.75,2.25-8.62.13Zm8.13-4.13c-.38-.49-.75.25-.63,1.63s.38,1.75.75.75a2.52,2.52,0,0,0-.12-2.37Zm13.75,0c-.38-.49-.75.25-.63,1.63s.38,1.75.75.75a2.52,2.52,0,0,0-.12-2.37Zm-18.25.88c0-.63-1-1.25-2.13-1.25-1.87,0-2,.25-.37,1.25C437.13,342.75,437.25,342.75,437.25,341.25Zm26.25-.75c0-.25-.88-.5-1.87-.5s-1.88.5-1.88,1.25.88.87,1.88.5S463.5,340.75,463.5,340.5Zm-36-3.88a2.54,2.54,0,0,0-2.38.13c-.5.37.26.75,1.63.62s1.75-.37.75-.75Zm43.75,0a2.54,2.54,0,0,0-2.38.13c-.5.37.26.75,1.63.62s1.75-.37.75-.75ZM434.75,334c0-.5-1.5-1.13-3.38-1.25-2.75-.13-3,0-1.62,1C432,335.25,434.75,335.37,434.75,334Zm6.25-5.25c0-.63-1.62-1.25-3.75-1.25s-3.75.62-3.75,1.25,1.75,1.25,3.75,1.25S441,329.5,441,328.75Zm22.5,0c0-.63-1.62-1.25-3.75-1.25s-3.75.62-3.75,1.25,1.75,1.25,3.75,1.25S463.5,329.5,463.5,328.75Zm11.25-13.25c0-.25-1.13,0-2.5.75s-2.5,1.62-2.5,2,1.13,0,2.5-.75S474.75,315.87,474.75,315.5Zm12.5-25.5a1.36,1.36,0,0,0-1.37-1.25c-.63,0-.88.62-.5,1.25C486.37,291.62,487.25,291.62,487.25,290ZM481,288.12c0-2.37-.75-2.37-1.75,0-.38,1-.12,1.88.5,1.88S481,289.12,481,288.12ZM446.88,268.5c-.38-.88-.63-.25-.63,1.5s.25,2.37.63,1.62A6.58,6.58,0,0,0,446.88,268.5Zm17.25-3.25c-.38-.38-1.38,0-2.25.87-1.13,1.25-1,1.38.74.63C463.87,266.37,464.5,265.62,464.13,265.25Z"/><path class="cls-9" d="M434.25,344.13c-3-1.5-4.13-1.63-6.5-.25s-3.38,1.25-4.63,0-1.12-1.75.38-2.63,1-1.37-1.88-2.62c-4.75-1.88-1.87-3,3.13-1.25,2.25.75,4,.75,4.37,0s0-1.13-1-1.13-3.12-1.12-4.75-2.5l-3-2.5,6.63,2c4.62,1.25,7.12,1.5,8.75.63s1.25-1.25-2.38-1.38c-6.62,0-19-6.62-22.75-12.25C406.87,314.88,403.25,305,405,305c.62,0,.5-1-.25-2.37-2.63-5.13-3.75-9-2.25-8.13,1,.63,1.12-.37.62-3.75-.37-2.75-.25-4.25.5-3.87s1.13-1.38,1.25-4c0-3.5.25-4.13,1-2.25s1.13,1.87,1.75-1.5c.38-2.13,3.13-6.38,6-9.38s4.75-4.5,4.13-3.5,1.37-.12,4.12-2.62a34.29,34.29,0,0,1,12.25-6.75c8-2.25,10.13-1.75,4.75,1.12l-3.5,1.88,4.38-.63,4.37-.62L441,260.5l-3.13,1.88,3.63.12c3,0,3.25.25,2,1.88a5.09,5.09,0,0,0-.88,4c.5,1.75.63,1.62.75-.5.25-5.75,2.63-2.63,2.88,3.75l.25,6.5.37-6.5c.5-6.5,2.13-8.63,3.38-4.38.25,1.13.25,0-.13-2.5-.37-3.12-.12-4.75.75-4.75a1.38,1.38,0,0,1,1.38,1.25,1.25,1.25,0,0,0,1.25,1.25c.87,0,.87-.75,0-2.37-1.75-3.38-1.63-4.76.75-5.63s7.25,2.25,9.12,6.25c1.25,2.88,1.63,3,3.38,1.25,1.37-1.5,2.5-1.63,4.25-.75,3.12,1.63,6.25,6.25,6.25,9.13,0,1.75.62,2.12,2.62,1.5,2.5-.88,2.63-.5,1.88,2.5-.5,2.12-.38,3,.5,2.5A3.91,3.91,0,0,0,483.5,274c.12-1.87.25-1.87,1.37.25a11.2,11.2,0,0,1,.75,6.37c-.5,3.38-.12,4.38,2.5,5.75s3,2.25,2.38,5.5a24.47,24.47,0,0,1-3.25,7.13c-1.75,2.37-2,3.37-.88,3.87,2.13.75,2.38,6,.5,8.38a21.78,21.78,0,0,1-4.62,4.12c-1.75,1.25-3.13,2.88-3.13,3.75s-1.12,1.5-2.37,1.5a3.3,3.3,0,0,0-3,1.63c-.63,1.87-.13,1.87,4.37.12l3.5-1.25-3.12,3.25a20.2,20.2,0,0,1-8,4.63,64.55,64.55,0,0,0-8,3c-2.75,1.37-2.75,1.62-.63,2.25,1.25.37,5.13-.13,8.5-1.13l6.25-1.87-3,2.5c-1.62,1.38-3.75,2.5-4.75,2.5s-1.5.5-1,1.12,2.13.75,4.38,0c5-1.75,7.87-.62,3.12,1.25-2.87,1.25-3.25,1.75-1.87,2.63s1.5,1.5.37,2.63-2.25,1.25-4.5,0c-2.5-1.38-3.62-1.25-6.75.24-4.25,2.26-5.87,1.5-6.5-2.87A17.56,17.56,0,0,0,454,335c-1.38-2.37-1.75-2.5-1.25-.63.25,1.38.87,4,1.25,5.88.62,2.62.37,3.25-1,2.75-.88-.38-2-2.88-2.5-5.63-1-6.25-3-6.25-4,0-.5,2.75-1.63,5.25-2.63,5.63-1.25.5-1.62.12-1.12-1.5a52.81,52.81,0,0,0,1.37-5.88l.75-3.75-2,3.38a19.61,19.61,0,0,0-2.12,6.5c-.38,4.12-2.13,4.62-6.5,2.37Zm2.62-3.75c-1.12-1.13-2.37-1.75-2.87-1.38-1.25,1.25.75,3.5,3,3.5,1.87,0,1.87-.12-.12-2.12Zm26,.75c1.38-2.13,0-2.5-2.62-.5-2.13,1.62-2.13,1.75-.25,1.87A3.54,3.54,0,0,0,462.87,341.13Zm-18.75-12.38c-1-1.62-11.87-1.62-11.87,0,0,.75,2.87,1.25,6.37,1.25C442.5,330,444.62,329.5,444.12,328.75Zm5.63-.62c0-1-.5-1.88-1.25-1.88s-1.25.88-1.25,1.88.62,1.87,1.25,1.87S449.75,329.13,449.75,328.13Zm15,.62c0-1.62-10.88-1.62-11.88,0-.5.75,1.63,1.25,5.5,1.25C461.87,330,464.75,329.5,464.75,328.75ZM443,321.63c-.38-.5-.75.25-.63,1.62s.38,1.75.75.75a2.52,2.52,0,0,0-.12-2.37Zm3.87-2.5c-.37-1.25-.62-.25-.62,2.12s.25,3.38.62,2.25A12.82,12.82,0,0,0,446.87,319.13Zm3.63,2.5c-.38-.5-.75.25-.63,1.62s.38,1.75.75.75a2.52,2.52,0,0,0-.12-2.37Zm6.87,0c-1.5-2.5-1.75-1.75-.62,1.5.5,1.12,1.12,1.75,1.37,1.37S458.12,322.88,457.37,321.63Zm-19.75-2.25c2.63-5.63,1.88-5.63-1.5,0-1.37,2.37-2.12,4.37-1.62,4.37S436.5,321.75,437.62,319.38Zm24.13,2.37a5.86,5.86,0,0,1-2-3.25c0-.75-.38-1.12-.75-.75-1,1.13,1.75,6,3.37,6,.75,0,.38-.87-.62-2ZM434,319.25c.37-1,.25-1.5-.5-1.12a2.37,2.37,0,0,0-1.25,2c0,1.75.87,1.37,1.75-.88Zm19-1.37c-.38-.5-.75.25-.63,1.62s.38,1.75.75.75a2.52,2.52,0,0,0-.12-2.37Zm-8.75-1.25c-.38-.5-.75.25-.63,1.62s.38,1.75.75.75a2.52,2.52,0,0,0-.12-2.37Zm-12-1c1.62-1.75,2.62-3.13,2.25-3.13a16.58,16.58,0,0,0-3.5,3.13c-1.63,1.75-2.63,3.12-2.25,3.12A16.65,16.65,0,0,0,432.25,315.63Zm40.5,2.37a3.08,3.08,0,0,0,2-2.63c0-1.49-.38-1.62-1.63-.49-1,.75-2.12,1-2.5.49s-.87.13-.87,1.25C469.75,319,470,319.12,472.75,318Zm-43.63-4.25c1.25-1.37,2-2.5,1.63-2.5s-1.63,1.13-2.88,2.5-2,2.5-1.62,2.5S427.87,315.13,429.12,313.75Zm35.63.75a7.69,7.69,0,0,0-2.13-2.12c-2-1.63-2.12-1.5-.5.5s2.63,2.62,2.63,1.62Zm1.25-2.37a15.32,15.32,0,0,0-2.75-2.88l-2.88-2.37,2.38,2.87C465,312.38,466,313.13,466,312.13Zm5-.13a7.69,7.69,0,0,0-2.13-2.12c-2-1.63-2.12-1.5-.5.5S471,313,471,312Zm14.87-5.75c-2-1.37-3.62-.5-3.62,2,0,1.5.5,1.63,2.62.38s2.38-1.63,1-2.38Zm-5.12-1.5c2.38-2.37,1.75-3.62-1-2-2.5,1.63-3.38,3.5-1.5,3.5A5,5,0,0,0,480.75,304.75Zm-57.87-2.25c1.62-.75,1.87-1.12.62-1.12a8.7,8.7,0,0,0-3.75,1.12C417.5,304,419.5,304,422.88,302.5Zm49.74-4.62a6.58,6.58,0,0,0-3.12,0c-.88.37-.25.62,1.5.62S473.38,298.25,472.62,297.88Zm-46.25-2.5a21.14,21.14,0,0,0-5.62,0c-1.62.25-.37.5,2.75.5S427.88,295.63,426.37,295.38Zm48.13,0a12.88,12.88,0,0,0-4.38,0c-1.25.37-.25.62,2.13.62S475.63,295.75,474.5,295.38Zm-51.88-3.75a6.58,6.58,0,0,0-3.12,0c-.88.37-.25.62,1.5.62S423.38,292,422.62,291.63Zm58.88-2.38c1-2.75-.5-5-1.88-2.87s-1.37,4.87,0,4.87C480.25,291.25,481.12,290.38,481.5,289.25Zm6.75-.25c.25-.87-.25-1.25-1.5-.75s-2,1.38-2,2C484.75,291.88,487.62,290.88,488.25,289Zm-63.25.13a2.55,2.55,0,0,0-2.38.12c-.5.38.26.75,1.63.63s1.75-.38.75-.75Zm47.5,0a2.55,2.55,0,0,0-2.38.12c-.5.38.26.75,1.63.63s1.75-.38.75-.75ZM426,286.25a7.87,7.87,0,0,0-3.12-1.25c-.63,0-.38.63.62,1.25a8.4,8.4,0,0,0,3.13,1.25C427.37,287.5,427,286.88,426,286.25ZM476,285c1-.62,1.37-1.25.63-1.25A8.58,8.58,0,0,0,473.5,285c-1,.63-1.25,1.25-.62,1.25A7.72,7.72,0,0,0,476,285Zm-50-1.87c0-.25-1.25-1.13-2.75-1.88-2.75-1.37-2.75-1.25-.5.5,2.62,2.13,3.25,2.38,3.25,1.38Zm3.13-1.88a11,11,0,0,0-3.5-2.62c-2.38-1.13-2.38-1,.37,1.25C429.5,282.75,430.25,283.13,429.13,281.25Zm43.12-6.62c1.62-.63,1.62-.75-.12-.75-1-.13-3.88,2-6.25,4.62l-4.25,4.63,4.37-3.88A33,33,0,0,1,472.25,274.63Zm-1.13,4.5c1.63-2,1.5-2.13-.37-.5a7.12,7.12,0,0,0-2.25,2.12C468.5,281.75,469.5,281.13,471.12,279.13Zm-40.12.5a15.32,15.32,0,0,0-2.75-2.88l-2.87-2.37,2.37,2.87C430,279.88,431,280.63,431,279.63Zm1-4.5c-1.62-1.88-3.13-3.38-3.38-3.13-.5.5,4.88,6.75,5.88,6.75C434.75,278.75,433.62,277.13,432,275.13Zm46.5-.25a1.15,1.15,0,0,0-1.25-1.13c-.62,0-1.25.88-1.25,2s.63,1.5,1.25,1.13A2.38,2.38,0,0,0,478.5,274.88Zm-14.75-8.63a1.24,1.24,0,0,1,1,1.25,1.33,1.33,0,0,0,1.5,1.25c1,0,.75-.75-.5-2a4.12,4.12,0,0,0-4.25-1.25c-1.13.5-1.75,1.13-1.38,1.63s0,2.25-1,4.25-1.88,4-1.76,4.5,1.25-1.38,2.75-4.25S463.25,266.25,463.75,266.25Zm-27,4.13c-1-1.88-1.87-3.13-2-2.63,0,1.5,2.88,7.25,3.38,6.75.37-.25-.25-2.12-1.38-4.12Zm26.5,1.5c-.37-.38-1.12.25-1.5,1.5-.75,1.75-.62,1.87.63.75C463.25,273.25,463.63,272.25,463.25,271.88Zm-29.37,0c-.38-1.13-1-1.75-1.25-1.38s-.25,1.13.25,1.88C434,274.38,434.75,274,433.88,271.88Zm19.25-2.13c-.38-.87-.63-.25-.63,1.5s.25,2.38.63,1.63A6.62,6.62,0,0,0,453.13,269.75Zm-13.25-1.12c-.63-1.63-1.25-2.38-1.25-1.5-.13,1.87,1.25,5.62,1.87,5C440.88,271.88,440.5,270.25,439.88,268.63Zm17.75.12c.37-1.37.12-2.25-.5-1.75a3.16,3.16,0,0,0-1.13,2.5c0,2.5.88,2.13,1.63-.75ZM471,265a1.37,1.37,0,0,0-1.37-1.25c-.63,0-.88.63-.5,1.25C470.13,266.63,471,266.63,471,265Zm-13.75-7.62c0-.63-.5-.88-1.25-.5-1.62,1-1.62,1.87,0,1.87A1.28,1.28,0,0,0,457.25,257.38Z"/><path class="cls-10" d="M434.25,344.13c-3-1.5-4.13-1.63-6.5-.25s-3.38,1.25-4.63,0-1.12-1.75.38-2.63,1-1.37-1.88-2.62c-4.75-1.88-1.87-3,3.13-1.25,2.25.75,4,.75,4.37,0s0-1.13-1-1.13-3.12-1.12-4.75-2.5l-3-2.5,6.63,2c4.62,1.25,7.12,1.5,8.75.63s1.25-1.25-2.38-1.38c-6.62,0-19-6.62-22.75-12.25C406.87,314.88,403.25,305,405,305c.62,0,.5-1-.25-2.37-2.63-5.13-3.75-9-2.25-8.13,1,.63,1.12-.37.62-3.75-.37-2.75-.25-4.25.5-3.87s1.13-1.38,1.25-4c0-3.5.25-4.13,1-2.25s1.13,1.87,1.75-1.5c.38-2.13,3.13-6.38,6-9.38s4.75-4.5,4.13-3.5,1.37-.12,4.12-2.62a34.29,34.29,0,0,1,12.25-6.75c8-2.25,10.13-1.75,4.75,1.12l-3.5,1.88,4.38-.63,4.37-.62L441,260.5l-3.13,1.88,3.63.12c3,0,3.25.25,2,1.88a5.09,5.09,0,0,0-.88,4c.5,1.75.63,1.62.75-.5.25-5.75,2.63-2.63,2.88,3.75l.25,6.5.37-6.5c.5-6.5,2.13-8.63,3.38-4.38.25,1.13.25,0-.13-2.5-.37-3.12-.12-4.75.75-4.75a1.38,1.38,0,0,1,1.38,1.25,1.25,1.25,0,0,0,1.25,1.25c.87,0,.87-.75,0-2.37-1.75-3.38-1.63-4.76.75-5.63s7.25,2.25,9.12,6.25c1.25,2.88,1.63,3,3.38,1.25,1.37-1.5,2.5-1.63,4.25-.75,3.12,1.63,6.25,6.25,6.25,9.13,0,1.75.62,2.12,2.62,1.5,2.5-.88,2.63-.5,1.88,2.5-.5,2.12-.38,3,.5,2.5A3.91,3.91,0,0,0,483.5,274c.12-1.87.25-1.87,1.37.25a11.2,11.2,0,0,1,.75,6.37c-.5,3.38-.12,4.38,2.5,5.75s3,2.25,2.38,5.5a24.47,24.47,0,0,1-3.25,7.13c-1.75,2.37-2,3.37-.88,3.87,2.13.75,2.38,6,.5,8.38a21.78,21.78,0,0,1-4.62,4.12c-1.75,1.25-3.13,2.88-3.13,3.75s-1.12,1.5-2.37,1.5a3.3,3.3,0,0,0-3,1.63c-.63,1.87-.13,1.87,4.37.12l3.5-1.25-3.12,3.25a20.2,20.2,0,0,1-8,4.63,64.55,64.55,0,0,0-8,3c-2.75,1.37-2.75,1.62-.63,2.25,1.25.37,5.13-.13,8.5-1.13l6.25-1.87-3,2.5c-1.62,1.38-3.75,2.5-4.75,2.5s-1.5.5-1,1.12,2.13.75,4.38,0c5-1.75,7.87-.62,3.12,1.25-2.87,1.25-3.25,1.75-1.87,2.63s1.5,1.5.37,2.63-2.25,1.25-4.5,0c-2.5-1.38-3.62-1.25-6.75.24-4.25,2.26-5.87,1.5-6.5-2.87A17.56,17.56,0,0,0,454,335c-1.38-2.37-1.75-2.5-1.25-.63.25,1.38.87,4,1.25,5.88.62,2.62.37,3.25-1,2.75-.88-.38-2-2.88-2.5-5.63-1-6.25-3-6.25-4,0-.5,2.75-1.63,5.25-2.63,5.63-1.25.5-1.62.12-1.12-1.5a52.81,52.81,0,0,0,1.37-5.88l.75-3.75-2,3.38a19.61,19.61,0,0,0-2.12,6.5c-.38,4.12-2.13,4.62-6.5,2.37Zm2.62-3.75c-1.12-1.13-2.37-1.75-2.87-1.38-1.25,1.25.75,3.5,3,3.5,1.87,0,1.87-.12-.12-2.12Zm26,.75c1.38-2.13,0-2.5-2.62-.5-2.13,1.62-2.13,1.75-.25,1.87A3.54,3.54,0,0,0,462.87,341.13Zm-18.75-12.38c-1-1.62-11.87-1.62-11.87,0,0,.75,2.87,1.25,6.37,1.25C442.5,330,444.62,329.5,444.12,328.75Zm5.63-.62c0-1-.5-1.88-1.25-1.88s-1.25.88-1.25,1.88.62,1.87,1.25,1.87S449.75,329.13,449.75,328.13Zm15,.62c0-1.62-10.88-1.62-11.88,0-.5.75,1.63,1.25,5.5,1.25C461.87,330,464.75,329.5,464.75,328.75ZM443,321.63c-.38-.5-.75.25-.63,1.62s.38,1.75.75.75a2.52,2.52,0,0,0-.12-2.37Zm3.87-2.5c-.37-1.25-.62-.25-.62,2.12s.25,3.38.62,2.25A12.82,12.82,0,0,0,446.87,319.13Zm3.63,2.5c-.38-.5-.75.25-.63,1.62s.38,1.75.75.75a2.52,2.52,0,0,0-.12-2.37Zm6.87,0c-1.5-2.5-1.75-1.75-.62,1.5.5,1.12,1.12,1.75,1.37,1.37S458.12,322.88,457.37,321.63Zm-19.75-2.25c2.63-5.63,1.88-5.63-1.5,0-1.37,2.37-2.12,4.37-1.62,4.37S436.5,321.75,437.62,319.38Zm24.13,2.37a5.86,5.86,0,0,1-2-3.25c0-.75-.38-1.12-.75-.75-1,1.13,1.75,6,3.37,6,.75,0,.38-.87-.62-2ZM434,319.25c.37-1,.25-1.5-.5-1.12a2.37,2.37,0,0,0-1.25,2c0,1.75.87,1.37,1.75-.88Zm19-1.37c-.38-.5-.75.25-.63,1.62s.38,1.75.75.75a2.52,2.52,0,0,0-.12-2.37Zm-8.75-1.25c-.38-.5-.75.25-.63,1.62s.38,1.75.75.75a2.52,2.52,0,0,0-.12-2.37Zm-12-1c1.62-1.75,2.62-3.13,2.25-3.13a16.58,16.58,0,0,0-3.5,3.13c-1.63,1.75-2.63,3.12-2.25,3.12A16.65,16.65,0,0,0,432.25,315.63Zm40.5,2.37a3.08,3.08,0,0,0,2-2.63c0-1.49-.38-1.62-1.63-.49-1,.75-2.12,1-2.5.49s-.87.13-.87,1.25C469.75,319,470,319.12,472.75,318Zm-43.63-4.25c1.25-1.37,2-2.5,1.63-2.5s-1.63,1.13-2.88,2.5-2,2.5-1.62,2.5S427.87,315.13,429.12,313.75Zm35.63.75a7.69,7.69,0,0,0-2.13-2.12c-2-1.63-2.12-1.5-.5.5s2.63,2.62,2.63,1.62Zm1.25-2.37a15.32,15.32,0,0,0-2.75-2.88l-2.88-2.37,2.38,2.87C465,312.38,466,313.13,466,312.13Zm5-.13a7.69,7.69,0,0,0-2.13-2.12c-2-1.63-2.12-1.5-.5.5S471,313,471,312Zm-17.88-5.37c2.5,1.87,4.88,3.12,5.13,2.75s-.13-2.25-.88-4.5c-2.12-6-1.75-6.88,3.88-11L466.5,290H452.62L451,284.38c-.88-3.13-2-5.63-2.5-5.63s-1.63,2.5-2.5,5.63L444.37,290H430.5l5.37,4c5.63,4.13,5.63,4.25,3.13,13.38l-.88,2.87,5.25-3.37,5.13-3.5Zm32.75-.38c-2-1.37-3.62-.5-3.62,2,0,1.5.5,1.63,2.62.38s2.38-1.63,1-2.38Zm-5.12-1.5c2.38-2.37,1.75-3.62-1-2-2.5,1.63-3.38,3.5-1.5,3.5A5,5,0,0,0,480.75,304.75Zm-57.87-2.25c1.62-.75,1.87-1.12.62-1.12a8.7,8.7,0,0,0-3.75,1.12C417.5,304,419.5,304,422.88,302.5Zm49.74-4.62a6.58,6.58,0,0,0-3.12,0c-.88.37-.25.62,1.5.62S473.38,298.25,472.62,297.88Zm-46.25-2.5a21.14,21.14,0,0,0-5.62,0c-1.62.25-.37.5,2.75.5S427.88,295.63,426.37,295.38Zm48.13,0a12.88,12.88,0,0,0-4.38,0c-1.25.37-.25.62,2.13.62S475.63,295.75,474.5,295.38Zm-51.88-3.75a6.58,6.58,0,0,0-3.12,0c-.88.37-.25.62,1.5.62S423.38,292,422.62,291.63Zm58.88-2.38c1-2.75-.5-5-1.88-2.87s-1.37,4.87,0,4.87C480.25,291.25,481.12,290.38,481.5,289.25Zm6.75-.25c.25-.87-.25-1.25-1.5-.75s-2,1.38-2,2C484.75,291.88,487.62,290.88,488.25,289Zm-63.25.13a2.55,2.55,0,0,0-2.38.12c-.5.38.26.75,1.63.63s1.75-.38.75-.75Zm47.5,0a2.55,2.55,0,0,0-2.38.12c-.5.38.26.75,1.63.63s1.75-.38.75-.75ZM426,286.25a7.87,7.87,0,0,0-3.12-1.25c-.63,0-.38.63.62,1.25a8.4,8.4,0,0,0,3.13,1.25C427.37,287.5,427,286.88,426,286.25ZM476,285c1-.62,1.37-1.25.63-1.25A8.58,8.58,0,0,0,473.5,285c-1,.63-1.25,1.25-.62,1.25A7.72,7.72,0,0,0,476,285Zm-50-1.87c0-.25-1.25-1.13-2.75-1.88-2.75-1.37-2.75-1.25-.5.5,2.62,2.13,3.25,2.38,3.25,1.38Zm3.13-1.88a11,11,0,0,0-3.5-2.62c-2.38-1.13-2.38-1,.37,1.25C429.5,282.75,430.25,283.13,429.13,281.25Zm43.12-6.62c1.62-.63,1.62-.75-.12-.75-1-.13-3.88,2-6.25,4.62l-4.25,4.63,4.37-3.88A33,33,0,0,1,472.25,274.63Zm-1.13,4.5c1.63-2,1.5-2.13-.37-.5a7.12,7.12,0,0,0-2.25,2.12C468.5,281.75,469.5,281.13,471.12,279.13Zm-40.12.5a15.32,15.32,0,0,0-2.75-2.88l-2.87-2.37,2.37,2.87C430,279.88,431,280.63,431,279.63Zm1-4.5c-1.62-1.88-3.13-3.38-3.38-3.13-.5.5,4.88,6.75,5.88,6.75C434.75,278.75,433.62,277.13,432,275.13Zm46.5-.25a1.15,1.15,0,0,0-1.25-1.13c-.62,0-1.25.88-1.25,2s.63,1.5,1.25,1.13A2.38,2.38,0,0,0,478.5,274.88Zm-14.75-8.63a1.24,1.24,0,0,1,1,1.25,1.33,1.33,0,0,0,1.5,1.25c1,0,.75-.75-.5-2a4.12,4.12,0,0,0-4.25-1.25c-1.13.5-1.75,1.13-1.38,1.63s0,2.25-1,4.25-1.88,4-1.76,4.5,1.25-1.38,2.75-4.25S463.25,266.25,463.75,266.25Zm-27,4.13c-1-1.88-1.87-3.13-2-2.63,0,1.5,2.88,7.25,3.38,6.75.37-.25-.25-2.12-1.38-4.12Zm26.5,1.5c-.37-.38-1.12.25-1.5,1.5-.75,1.75-.62,1.87.63.75C463.25,273.25,463.63,272.25,463.25,271.88Zm-29.37,0c-.38-1.13-1-1.75-1.25-1.38s-.25,1.13.25,1.88C434,274.38,434.75,274,433.88,271.88Zm19.25-2.13c-.38-.87-.63-.25-.63,1.5s.25,2.38.63,1.63A6.62,6.62,0,0,0,453.13,269.75Zm-13.25-1.12c-.63-1.63-1.25-2.38-1.25-1.5-.13,1.87,1.25,5.62,1.87,5C440.88,271.88,440.5,270.25,439.88,268.63Zm17.75.12c.37-1.37.12-2.25-.5-1.75a3.16,3.16,0,0,0-1.13,2.5c0,2.5.88,2.13,1.63-.75ZM471,265a1.37,1.37,0,0,0-1.37-1.25c-.63,0-.88.63-.5,1.25C470.13,266.63,471,266.63,471,265Zm-13.75-7.62c0-.63-.5-.88-1.25-.5-1.62,1-1.62,1.87,0,1.87A1.28,1.28,0,0,0,457.25,257.38Z"/><path class="cls-11" d="M434.25,344.13c-3-1.5-4.13-1.63-6.5-.25s-3.38,1.25-4.63,0-1.12-1.75.38-2.63,1-1.37-1.88-2.62c-4.75-1.88-1.87-3,3.13-1.25,2.25.75,4,.75,4.37,0s0-1.13-1-1.13-3.12-1.12-4.75-2.5l-3-2.5,6.63,2c4.62,1.25,7.12,1.5,8.75.63s1.25-1.25-2.38-1.38c-6.62,0-19-6.62-22.75-12.25C406.87,314.88,403.25,305,405,305c.62,0,.5-1-.25-2.37-2.63-5.13-3.75-9-2.25-8.13,1,.63,1.12-.37.62-3.75-.37-2.75-.25-4.25.5-3.87s1.13-1.38,1.25-4c0-3.5.25-4.13,1-2.25s1.13,1.87,1.75-1.5c.38-2.13,3.13-6.38,6-9.38s4.75-4.5,4.13-3.5,1.37-.12,4.12-2.62a34.29,34.29,0,0,1,12.25-6.75c8-2.25,10.13-1.75,4.75,1.12l-3.5,1.88,4.38-.63c4.37-.62,4.37-.62,1.25,1.25l-3.13,1.75,3.75.5c3.5.38,3.13.75-4.75,4.75-13.12,6.5-18.37,14.75-18.37,28.75,0,6,.62,8,4.87,14.5,8,12.25,10.25,13.63,22.63,13.88,14.87.25,17.5-.38,17.5-4.5s3.37-9,6-8.63c1.5.25,2.25-.62,2.5-2.75.75-5.87,2.87-9.87,4.87-9.12,1.63.62,1.5.12-.37-2.75-3.13-4.75-3.63-9.63-1.13-11.38,1.75-1.25,1.75-1.5,0-2.25-2.75-1-4.87-7.12-2.87-8.37.87-.63-.13-.88-2.63-.88-5,.13-9.5-3.62-7.5-6.5,1-1.37,1.5-1.5,2-.25a2.48,2.48,0,0,0,2,1.5c.75,0,.5-.87-.62-2-1.63-1.62-2.88-1.75-5.63-.87-5,1.62-9.62.25-10.12-3.13-.25-1.5.12-2.75.87-2.75a1.38,1.38,0,0,1,1.38,1.25,1.25,1.25,0,0,0,1.25,1.25c.87,0,.87-.75,0-2.37-1.75-3.38-1.63-4.75.75-5.63s7.25,2.25,9.12,6.25c1.25,2.88,1.63,3,3.38,1.25,1.37-1.5,2.5-1.62,4.25-.75,3.12,1.63,6.25,6.25,6.25,9.13,0,1.75.62,2.12,2.62,1.5,2.5-.88,2.63-.5,1.88,2.5-.5,2.12-.38,3,.5,2.5A3.91,3.91,0,0,0,483.5,274c.12-1.87.25-1.87,1.37.25a11.23,11.23,0,0,1,.75,6.38c-.5,3.37-.12,4.37,2.5,5.75s3,2.25,2.38,5.5a24.3,24.3,0,0,1-3.25,7.12c-1.75,2.38-2,3.38-.88,3.88,2.13.75,2.38,6,.5,8.37a21.8,21.8,0,0,1-4.62,4.13c-1.75,1.25-3.13,2.87-3.13,3.75s-1.12,1.5-2.37,1.5a3.32,3.32,0,0,0-3,1.62c-.63,1.88-.13,1.88,4.37.13l3.5-1.25-3.12,3.25a20.19,20.19,0,0,1-8,4.62,66.21,66.21,0,0,0-8,3c-2.75,1.38-2.75,1.63-.63,2.25,1.25.38,5.13-.12,8.5-1.12l6.25-1.88-3,2.5c-1.62,1.38-3.75,2.5-4.75,2.5s-1.5.5-1,1.13,2.13.75,4.38,0c5-1.75,7.87-.63,3.12,1.25-2.87,1.25-3.25,1.75-1.87,2.62s1.5,1.5.37,2.63-2.25,1.25-4.5,0c-2.5-1.38-3.62-1.25-6.75.25-4.25,2.25-5.87,1.5-6.5-2.88A17.56,17.56,0,0,0,454,335c-1.38-2.37-1.75-2.5-1.25-.62.25,1.37.87,4,1.25,5.87.62,2.63.37,3.25-1,2.75-.88-.37-2-2.87-2.5-5.62-1-6.25-3-6.25-4,0-.5,2.75-1.63,5.25-2.63,5.62-1.25.5-1.62.13-1.12-1.5a52.55,52.55,0,0,0,1.37-5.87l.75-3.75-2,3.37a19.68,19.68,0,0,0-2.12,6.5c-.38,4.13-2.13,4.63-6.5,2.38Zm2.62-3.75c-1.12-1.13-2.37-1.75-2.87-1.38-1.25,1.25.75,3.5,3,3.5,1.87,0,1.87-.12-.12-2.12Zm26,.75c1.38-2.13,0-2.5-2.62-.5-2.13,1.62-2.13,1.75-.25,1.87A3.54,3.54,0,0,0,462.87,341.13Zm-18.75-12.38c-1-1.62-11.87-1.62-11.87,0,0,.75,2.87,1.25,6.37,1.25C442.5,330,444.62,329.5,444.12,328.75Zm5.63-.62c0-1-.5-1.88-1.25-1.88s-1.25.88-1.25,1.88.62,1.87,1.25,1.87S449.75,329.13,449.75,328.13Zm15,.62c0-1.62-10.88-1.62-11.88,0-.5.75,1.63,1.25,5.5,1.25C461.87,330,464.75,329.5,464.75,328.75Zm8-10.75a3.08,3.08,0,0,0,2-2.62c0-1.5-.38-1.63-1.63-.5-1,.75-2.12,1-2.5.5s-.87.12-.87,1.25C469.75,319,470,319.13,472.75,318Zm13.12-11.75c-2-1.37-3.62-.5-3.62,2,0,1.5.5,1.63,2.62.38s2.38-1.63,1-2.38Zm-5.12-1.5c2.38-2.37,1.75-3.62-1-2-2.5,1.63-3.38,3.5-1.5,3.5A5,5,0,0,0,480.75,304.75Zm.75-15.5c1-2.75-.5-5-1.88-2.87s-1.37,4.87,0,4.87C480.25,291.25,481.12,290.38,481.5,289.25Zm6.75-.25c.25-.87-.25-1.25-1.5-.75s-2,1.38-2,2C484.75,291.88,487.62,290.88,488.25,289Zm-9.75-14.12a1.15,1.15,0,0,0-1.25-1.13c-.62,0-1.25.88-1.25,2s.63,1.5,1.25,1.13A2.38,2.38,0,0,0,478.5,274.88ZM471,265a1.37,1.37,0,0,0-1.37-1.25c-.63,0-.88.63-.5,1.25C470.12,266.63,471,266.63,471,265Zm-13.75-7.62c0-.63-.5-.88-1.25-.5-1.62,1-1.62,1.87,0,1.87A1.28,1.28,0,0,0,457.25,257.38ZM448,311.63c-.5-2.25-1.5-4.13-2-4.13s-.75,1-.37,2.25c.74,1.88.62,1.88-1.25.38-1.13-.88-2.13-1.25-2.13-.63s-1.5,1.75-3.25,2.63c-3.25,1.5-3.25,1.5-2.5-2.38.38-2.25.13-4.62-.62-5.5s-1-1.75-.5-1.75.12-.87-.75-2.12c-1.63-1.88-1.5-1.88,1-.5s2.75,1.12,2.12-.38a4.76,4.76,0,0,0-3.12-2.62c-1.38-.5-2.13-1.25-1.75-1.88s-.88-2.25-2.63-3.62l-3.37-2.63h3.37c3,0,7.38-2.62,6.63-3.87-.13-.25,0-.38.25-.13s2-1,3.75-2.5l3.25-2.87-2.5,3c-1.88,2.25-2,2.87-.63,2.5,1-.38,3-3,4.38-5.88s2.87-5.12,3.49-5.25c1.25,0,1.13,3.5-.12,4-.62.25-2,2.88-3,6-1.75,5.63-1.88,5.63-8.5,6.25l-6.75.63,5.25,3.62c2.87,2,5.25,4,5.25,4.5a48.23,48.23,0,0,1-1.87,6.25,59.42,59.42,0,0,0-1.88,5.88c0,.25,2.5-1.25,5.5-3.38l5.5-4,5.75,3.88c3.13,2.25,5.75,3.75,5.75,3.5a62.41,62.41,0,0,0-2.13-6.5c-2.24-6.63-2.37-6.38,6-12.13,3-2.12,3-2.12-4-2.12l-7-.13-1.5-5.12c-1.87-6.25-.74-7.75,2.38-3.63,1.75,2.13,2.5,2.5,2.62,1.25s.25-1.37.75-.25a1.34,1.34,0,0,0,2,.63c.88-.38,1.13-.25.5.25-1.62,1.87,3.13,5.62,7,5.62h3.88L466,291.88c-2.38,1.75-3.38,3.12-2.38,3.12s.25,1-1.62,2-3.5,2.5-3.5,3.25c0,1.13.37,1.13,1.5,0,2.12-2.12,4.12-1.87,2.37.25-.87,1-1,2-.5,2.25s.38.5-.5.25c-2.5-.62-2.75.88-.87,6,1.62,4.63,1.62,5-.5,4.13a11.39,11.39,0,0,0-3.63-1c-.87,0-1.25-.5-.87-1a1.46,1.46,0,0,0-.75-1.75c-.63-.38-1.25,0-1.38.87s-.5.5-1-.87c-1-2.13-1.25-2-2.25,1.87l-1.25,4.38Zm1.25-6.25c-.38-.5-.75.25-.63,1.62s.38,1.75.75.75A2.52,2.52,0,0,0,449.25,305.38Zm-9.88-18.75c0-1.13-.5-1.25-1.75-.25-2,1.75-2,2,0,2A1.71,1.71,0,0,0,439.37,286.63Zm19.75-.38c-2.12-2.37-5.12-2.25-3.62.13a1.27,1.27,0,0,0,1.75.5,1.37,1.37,0,0,1,1.87.62c.38.63,1.13,1.25,1.5,1.25S460.37,287.63,459.12,286.25Z"/><path class="cls-12" d="M423.75,344.13c-1.25-.5-1.25-1-.13-2.38s1-2-1.12-2.62c-1.5-.38-2.75-1.25-2.75-1.88s.75-1,1.62-.62c5,1.87,7,2.12,7.75.87.38-.62,0-1.25-1-1.25s-3.12-1.12-4.75-2.5l-3-2.5,6.63,2c4.62,1.25,7.12,1.5,8.75.63s1.25-1.25-2.38-1.38c-6.62,0-19-6.62-22.75-12.25C406.87,314.88,403.25,305,405,305c.62,0,.5-1-.25-2.37-2.63-5.13-3.75-9-2.25-8.13,1,.63,1.12-.37.62-3.75-.37-2.75-.25-4.25.5-3.87s1.13-1.38,1.25-4c0-3.5.25-4.13,1-2.25s1.13,1.87,1.75-1.5c.38-2.13,3.13-6.38,6-9.38s4.75-4.5,4.13-3.5,1.37-.12,4.12-2.62a34.29,34.29,0,0,1,12.25-6.75c8-2.25,10.13-1.75,4.75,1.12l-3.5,1.88,4.38-.63c4.37-.62,4.37-.62,1.25,1.25l-3.13,1.75,3.75.5c3.5.38,3.25.63-3.75,3.88-14.12,6.62-19.25,14.37-19.37,28.75,0,7.5.5,9.25,4.25,15,6.5,10.12,10.62,13.37,18,14.25,5.25.62,6.5,1.12,6.5,3,0,1.37.62,2.37,1.25,2.37s1.25-1.12,1.25-2.5c0-2.5,2-3,11.62-2.88,1.5,0,2.13-1,2.13-3.37,0-3.25,4.25-10.13,6-9.88,2.62.38,3.75-.37,3.12-2.37-.75-3.25,1.75-9,4-9s2.38-1.13.13-3.63c-2.75-3.25-3.5-8.37-1.38-10.12,1.75-1.5,1.63-2-.75-4.5-1.75-1.88-2.5-3.88-2-5.5.51-2,0-2.5-2.5-2.5-4.37,0-7.87-2.25-7.87-5,0-1.38.63-2.5,1.25-2.5a1.25,1.25,0,0,1,1.25,1.25,1.29,1.29,0,0,0,1.37,1.25c1,0,.88-.63-.12-1.88s-2.75-1.75-5.75-1.12c-6,1.12-10.5-.25-10.5-3.25,0-1.38.63-2.5,1.25-2.5a1.25,1.25,0,0,1,1.25,1.25,1.26,1.26,0,0,0,1.25,1.25c.88,0,.88-.75,0-2.38-1.75-3.37-1.62-4.75.75-5.62s7.25,2.25,9.12,6.25c1.38,3.12,1.63,3.25,3.75,1.25s2.5-2,5.63.75c3.37,2.87,6.62,11,4.37,11-.62,0-1.12,1-1.12,2.25,0,1.63.75,1.25,3.25-1.63l3.12-3.75-.75,3.5c-.5,2.38-.25,3.25.63,2.75A3.89,3.89,0,0,0,483.5,274c.12-1.88.25-1.88,1.37.25.75,1.25,1.13,4.12.75,6.5s-.25,4.25.5,4.25c1.75,0,1.38,3.5-.37,4.12-.88.25-1.13,1-.63,1.63s1.88.12,2.88-1.25,2.12-2.13,2.5-1.63c1.25,1.25-.75,8.13-3.38,11.5-1.37,1.75-2,3.13-1.37,3.13,2,0,2.87,6,1.25,8.62a16.14,16.14,0,0,1-5,4.38c-1.88,1.12-3.38,2.75-3.13,3.62s-.87,1.5-2.12,1.5a3.3,3.3,0,0,0-3,1.63c-.63,1.87-.13,1.87,4.37.12l3.5-1.25-3.12,3.25a20.2,20.2,0,0,1-8,4.63,64.55,64.55,0,0,0-8,3c-2.75,1.37-2.75,1.62-.63,2.25,1.25.37,5.13-.13,8.5-1.13l6.25-1.87-3,2.5c-1.62,1.38-3.75,2.5-4.75,2.5s-1.37.62-1,1.25c.75,1.25,2.88,1,7.88-.88.75-.37,1.5-.12,1.5.63s-1.25,1.5-2.75,1.87c-2.13.63-2.38,1.13-1.13,2.5,2,2.5-1.62,3.88-4.87,1.75-2-1.12-3-1.12-5,.13-3.25,2-7.63,2-6.88,0,.38-.87-.5-3.88-1.87-6.63-2.38-4.75-2.5-4.37-.75,3.38.62,2.62.37,3.25-1,2.75-1-.38-2.13-3.13-2.63-6.25-1-7-2.75-7-3.75,0-.5,3.12-1.75,5.87-2.75,6.25-1.25.5-1.62.12-1.12-1.5a52.81,52.81,0,0,0,1.37-5.88c.63-3.37.38-3.25-1.87,1.25-1.38,2.75-2.25,5.76-1.88,6.63.75,2-3.62,2-6.87,0-2-1.25-3-1.25-5,0a12.88,12.88,0,0,1-2.75,1.38,10.62,10.62,0,0,1-2-.76ZM437,340.5c-1.13-1.12-2.63-1.62-3.5-1.12-1.75,1.12.62,3.12,3.75,3.12C438.75,342.5,438.75,342.13,437,340.5Zm26.37.88c.88-.63,1.13-1.38.5-1.75s-2.37,0-3.62,1c-1.88,1.37-2,1.75-.5,1.87a8.18,8.18,0,0,0,3.62-1.12Zm-18.62-12.5c0-.63-2.75-1.38-6.25-1.63-4.38-.25-6.25.13-6.25,1.25s2.12,1.5,6.25,1.5C442,330,444.75,329.5,444.75,328.88Zm20-.38c0-1.12-1.88-1.5-6.25-1.25-8.13.63-8.13,2.75,0,2.75C462.62,330,464.75,329.5,464.75,328.5Zm8-10.5a3.08,3.08,0,0,0,2-2.62c0-1.5-.38-1.63-1.63-.5-1,.75-2.12,1-2.5.5s-.87.12-.87,1.25C469.75,319,470,319.13,472.75,318Zm13.12-11.75c-2-1.37-3.62-.5-3.62,2,0,1.5.5,1.63,2.62.38s2.38-1.63,1-2.38Zm-5.12-1.5c2.37-2.37,1.75-3.62-1-2-2.5,1.63-3.38,3.5-1.5,3.5A5,5,0,0,0,480.75,304.75Zm.75-15.5c1-2.75-.5-5-1.88-2.87s-1.37,4.87,0,4.87C480.25,291.25,481.12,290.38,481.5,289.25Zm-11.63-26.37c-1-1.88-1.25-1.88-1.37-.25,0,2.12,1.37,4,2.25,3.12C471,265.38,470.62,264.13,469.87,262.88Zm-12.62-5.38a1.26,1.26,0,0,0-1.25-1.25,1.34,1.34,0,0,0-1.25,1.25,1.25,1.25,0,0,0,1.25,1.25A1.18,1.18,0,0,0,457.25,257.5Z"/><path class="cls-13" d="M442.75,341.5c.37-1.12,1-3.62,1.37-5.5l.88-3.25-7.88-.12c-10.12,0-21.75-5.38-26.5-12.26C406.87,314.88,403.25,305,405,305c.62,0,.5-1-.25-2.38-2.63-5.12-3.75-9-2.25-8.12,1,.62,1.12-.38.62-3.75-.37-2.75-.25-4.25.5-3.88s1.13-1.37,1.25-4c0-3.5.25-4.12,1-2.25s1.13,1.88,1.75-1.5c.38-2.12,3.13-6.37,6-9.37s4.75-4.5,4.13-3.5,1.37-.13,4.12-2.63a34.6,34.6,0,0,1,12.25-6.75c8-2.25,10.13-1.75,4.75,1.13l-3.5,1.87,4.38-.62c4.37-.63,4.37-.63,1.25,1.25l-3.13,1.75,3.75.5c3.5.38,3.25.63-3.75,3.87-9.12,4.26-16.5,11.13-18.12,17.13A60.15,60.15,0,0,0,418.5,296c0,6.87.5,8.75,4.25,14.37a57.06,57.06,0,0,0,7.5,9.63c2.62,2.37,3.12,3.75,2.62,6.5-.87,3.5-.75,3.5,5.38,3.5,3.62,0,6.75.75,7.5,1.62,1.87,2.13.5,10.5-1.88,11.38-1.25.5-1.62.13-1.12-1.5Zm10,1.25c-2.13-1.37-3.25-9.12-1.63-11,.88-1,3.88-1.75,7.25-1.75h5.88v-6.87c-.12-5.5.37-7.38,2.75-9.63l2.75-2.75v4c0,4.13.75,4.75,3.5,2.88,1.37-.75,1.37-2.13.37-6.13-1-3.37-1-6.12-.12-8.25,1.88-5,4.5-4,3.87,1.5-.25,2.13,1.76,1.88,3.63-.37,1.25-1.5.88-2.5-2.25-5.75-3.87-3.88-5.87-9.63-4-11.5.5-.63,1.88.25,3,1.87,1.75,2.38,2.25,2.63,3.25,1,1.88-2.87,1.5-3.75-1.75-5s-7-5.75-7-8.5c0-1.12.63-1.25,2.38-.37,1.25.75,2.62.87,3.12.5,1.88-2,.38-2.88-5-2.88-5.87,0-10.5-1.62-10.5-3.75,0-.75,1.25-1.25,2.62-1.25,2.25,0,2.38-.25,1.13-1.87-1.13-1.38-2.75-1.75-5.75-1.13-4.87.88-10.5-.25-10.5-2,0-.75,1.13-1.25,2.5-1.25,2.25,0,2.38-.37,1.13-2.62s-1-2.5,1.25-1.75c2.75.87,3.75-1.25,1.12-2.25-.87-.25-1.25-.88-.75-1.38,1.13-1.37,7,2.88,7.88,5.63.5,1.37,2.5,3.25,4.5,4.25,4,2.12,4.37,1.75,2.25-2-1.13-2.38-1.13-2.38,1.25-1.25,3,1.62,6.37,6.25,6.37,8.62,0,1,1.13,3.25,2.5,5l2.62,3.25.75-2.87c1.38-5.5,2.88.25,2.13,8.37-.5,5.5-.38,7.75.62,7.75a2.85,2.85,0,0,0,2.13-1.87c.5-1,1.37-1.88,2-1.88,2.25,0,0,7.5-4,13.5-4.75,7.25-5,10.13-.63,7.25,2.5-1.62,3.13-1.75,3.13-.37,0,2.37-6,8.25-9.38,9.12-2.5.63-6.37,5.13-5.25,6.25.25.38,2.13,0,4.13-.75l3.62-1.38-3.12,3.25a20.2,20.2,0,0,1-8,4.63,27.81,27.81,0,0,0-6.75,2.62c-.88.76-3.88,1.25-6.63,1.13-5.25-.25-5.25-.38-2.75,8.87.63,2.38.38,2.5-1.62,1.13ZM436,339.38c-1.25-1.5-1.25-1.88.5-1.88a2,2,0,0,1,2,1.88C438.5,341.75,438,341.75,436,339.38Zm22.5,0a1.92,1.92,0,0,1,1.87-1.88c2.38,0,2.38,2,0,3C459.25,340.88,458.5,340.5,458.5,339.38Zm-32.13-3.75c-6.37-2.63-6.12-4.5.38-2.5s7.5,2.62,5.12,3.5c-.87.37-3.37-.13-5.5-1Zm38.25.5c-1-.63-1.5-1.13-1.12-1.13s3.37-.87,6.75-1.87c5.12-1.5,5.75-1.63,4.62-.13C472.62,335.63,466.62,337.5,464.62,336.13Z"/><path class="cls-14" d="M442.75,341.5c2.62-8.75,2.5-9.25-1.25-9-8.13.63-13.13,0-12.25-1.37.5-.88,0-1.13-1.5-.63s-4.88-.75-8.75-3c-5.13-2.87-6.38-4.25-6.38-6.87v-3.25l3.88,3.5c3.5,3.25,3.5,3.12-.38-1.25-2.75-2.88-4.75-4.25-5.62-3.38s-.5,1.88.62,3.38,1.25,1.75.25,1.12a9.67,9.67,0,0,1-3-3.5c-1.12-2-1-2.37.38-1.63.87.38.62,0-.5-1s-2.25-2.5-2.25-3.37c0-1.25.37-1.25,1.87,0,1,.87,1.88,1.12,1.88.62s1-.12,2.12.76c1.5,1.25,1.38.62-.5-2.13a13,13,0,0,1-2.37-7.12c.25-1.75,0-3-.5-2.75s-.63-3.75-.38-9.13.75-11.12.88-13,.5-3.5,1.12-3.5.75-.75.63-1.5.62-1.5,1.87-1.37,2-.5,1.63-1.5c-.75-2.25,3.75-6.25,4.87-4.38.63,1,1.38,1,2.63-.12.87-.75,1.37-1.88,1.12-2.5-1.62-2.5,12.38-8.38,14.88-6.25a12.69,12.69,0,0,0,3.87,1.75c2.5.62,2.5.62,0,.75a9.35,9.35,0,0,1-4.25-1q-1.87-1.12-5.62.75c-2.38,1.25-3.25,2.25-2.25,2.62,1.25.38,1.12,1.13-.63,3-2.12,2.5-2.12,2.5,2.13-.12s14.62-3.75,13.12-1.38c-.37.63-2.25.88-4.12.5a7.24,7.24,0,0,0-6.5,1.88c-2.63,2.25-2.75,2.5-.63,1.87,2.5-.75,2.5-.75,0,.88a49.29,49.29,0,0,0-7,5.75c-3.25,3.12-4.87,3.87-5.5,2.75s-.5-1.25.63-.5,1.37.5.62-.63-.5-1.37.63-.62,1.37.5.62-.63-.5-1.37.75-.62c1,.62,1.38.62.88,0s-.38-1.88.5-3-.13-.5-2.13,1.37c-3,2.88-5.62,9.38-3.12,7.88.5-.25.62.87.25,2.5s-.88,3.12-1.38,3.12c-1.25,0,0,17.88,1.38,19.63a2.93,2.93,0,0,1,.25,3c-.5.87-.38,1.12.37.75s1.88.62,2.75,2.37c2,4.38,1.63,5.5-.5,1.75-1-1.75-1.75-2.5-1.87-1.75,0,2.12,3.5,6.25,4.5,5.12.5-.5,2.5.5,4.37,2.38,2.63,2.5,3.25,4.12,2.75,6.87-.5,3.63-.5,3.63,5.63,3.63,3.62,0,6.75.75,7.5,1.62,1.87,2.13.5,10.5-1.88,11.38-1.25.5-1.62.12-1.12-1.5ZM428.25,329c1.13-.75.75-1.5-1.5-2.75-1.75-.87-2.88-2.12-2.5-2.62s2.12-.13,4,1.12,2.87,1.5,2.38.62a1.18,1.18,0,0,1,.5-1.87c.62-.25-.25-1.88-2.13-3.5l-3.5-3.13,2.25,3.63c2.25,3.62,1.13,3.5-3.25-.25-1.25-1-2.25-1.38-2.25-.88s-1.5-.25-3.25-2l-3.37-3,2.12,3.38c1.25,1.75,3,3.62,4,4s1.63,1.25,1.13,1.87.5,1.88,2,2.63c3.5,2,2.12,3.12-1.63,1.25-2.75-1.38-2.75-1.25-.5.5,2.88,2.25,3.25,2.37,5.5,1ZM415,310.13c-1.13-2-2.25-3.5-2.62-3.25-.5.62,3.37,6.87,4.25,6.87.25,0-.5-1.62-1.63-3.62Zm2.88-1.25c-1.13-2.25-1.76-4.38-1.51-4.88s.13-3.37-.37-6.5c-1-5.62-1-5.62-.88,1.88,0,4.25.88,9,2,10.87,2.63,4.63,3.25,3.38.75-1.37Zm-6.13-16.63.25-9.12L410.87,290c-.87,5.63-.62,11.25.5,11.25A67.4,67.4,0,0,0,411.75,292.25Zm3.37-6.62c.63-3.5.51-4.25-.37-2.5-1,2.37-1.75,9.12-.75,8a25,25,0,0,0,1.13-5.5Zm-1.75-11.25c0-.63-.5-.38-1.12.62a8.58,8.58,0,0,0-1.13,3.75c0,2,2.13-2,2.25-4.37Zm5-1.38c.5.38,2.63-1.12,4.63-3.37l3.63-4-4.26,3.75c-3.75,3.37-4.12,3.5-3.37,1,.5-1.63.25-3-.75-3.63s-1.25-.5-.75.13.12,2.37-.75,4.25a45.37,45.37,0,0,0-2.5,6.37c-.5,2.13-.12,1.88,1.13-1,1.12-2.25,2.37-3.87,3-3.5Zm8.13-10.62a1.35,1.35,0,1,0-.38,1.87A1.28,1.28,0,0,0,426.5,262.38Zm26.25,80.37c-2.13-1.37-3.25-9.12-1.63-11,.88-1,3.88-1.75,7.5-1.75h6.13l-.62-5.87c-.26-3.38-.26-5,.12-3.75,1,3.25,4.25.25,4.25-4-.12-3.13-.12-3.13-1.87-.88-1,1.38-1.88,1.88-1.88,1.13s1-2.25,2.38-3.38c2.25-2,2.37-2,2.87,2.25.38,3.13-.12,4.88-1.75,6.25-2.38,2.13-3.13,5.75-1.13,5.75s6.5-6.62,5.88-8.37c-.38-.88-.12-1.63.62-1.63s1.13-1.25.75-2.75c-.5-1.75.13-4,1.63-6,2.62-3.37,3.25-2.62,1.12,1.38a9.22,9.22,0,0,0-.87,4.62c.37,1.63,1.12,1.13,3.12-2,1.38-2.37,2.88-3.62,3.38-3s-.38,2.13-1.75,3.38-2.13,2.75-1.75,3.25-.13,1.12-1.13,1.12-2.5,1.5-3.5,3.5a16.61,16.61,0,0,1-4,5c-1.12.88-1.87,2.25-1.5,2.88s-.25,1.12-1.5,1.12a6,6,0,0,0-3.87,1.5c-.75.75-3.75,1.38-6.5,1.25-5.5-.25-5.38-.37-2.88,8.88.63,2.37.38,2.5-1.62,1.12ZM436,339.38c-1.25-1.5-1.25-1.88.5-1.88a2,2,0,0,1,2,1.88C438.5,341.75,438,341.75,436,339.38Zm22.5,0a1.92,1.92,0,0,1,1.87-1.88c2.38,0,2.38,2,0,3C459.25,340.88,458.5,340.5,458.5,339.38Zm-32.13-3.75c-6.37-2.63-6.12-4.5.38-2.5s7.5,2.62,5.12,3.5c-.87.37-3.37-.13-5.5-1Zm38.25.5c-1-.63-1.5-1.13-1.12-1.13s3.37-.87,6.75-1.87c5.12-1.5,5.75-1.63,4.62-.13C472.62,335.63,466.62,337.5,464.62,336.13Zm12.63-12.88c0-.25.87-.87,2-1.25s1.5-.25,1.12.5C479.62,323.75,477.25,324.25,477.25,323.25Zm7.5-10.38a2.94,2.94,0,0,1,1.25-2.25,1.37,1.37,0,0,0,.62-1.87,1.39,1.39,0,0,1,.63-1.88c.62-.37,1.25,0,1.25.88C488.37,309.75,484.75,314.75,484.75,312.87ZM408,309.37c-.38-1.12-1.25-1.75-1.88-1.37s-1.37,0-1.75-1,.25-2,1.75-2.38c1.25-.37,2-.12,1.63.5a3.26,3.26,0,0,0,.87,3.13c.75,1,1.25,2.12.88,2.5S408.5,310.5,408,309.37ZM472.37,307c-.12-1.38.25-2.13.63-1.63a2.54,2.54,0,0,1,.12,2.38C472.75,308.75,472.37,308.37,472.37,307Zm10-5c2.38-4,3-7.75,1.63-11.25-.38-1.13-1.25-1.63-1.88-1.25s-.75-.25-.37-1.25c.5-1.38-.25-2.38-2.25-3.13a13,13,0,0,1-4.75-3.37c-1.75-2.25-1.63-2.25,1,0,1.5,1.37,2.75,1.75,2.75,1,0-2-3.75-5.38-5.13-4.5-.62.38-1.12-.25-1.12-1.37,0-1.5.5-1.75,2.37-.75,1.25.75,2.63.87,3.13.5s.75.37.75,1.62a10.26,10.26,0,0,0,1.87,5c1.75,2.25,1.75,2.25,1.88-.5a12.7,12.7,0,0,0-2-5.87c-1.63-2.5-3.13-3.13-7.63-3.13-8.62,0-14.12-4-7.25-5.25,1.75-.37,3.75.13,4.5,1,1.13,1.5.63,1.63-2.75,1-2.5-.5-3.87-.37-3.25.25s3.5,1.13,6.38,1.13c4,0,5.25-.38,5.25-2a1.78,1.78,0,0,0-1.88-1.88,2.62,2.62,0,0,1-2.37-1.75c-.63-1.62-.38-1.62,1.37-.12,1.25.87,2.13,1.12,2.13.37,0-1.5-3.13-4.12-4-3.25-.38.25-1-.25-1.5-1.37-.5-1.63-.25-1.75,1.75-.63,2.87,1.5,6.25,6.13,6.25,8.5,0,2.13,4.37,7.88,5.37,7,.38-.37,1,2.75,1.5,7,.63,5.88,1.25,7.5,2.63,7s1.5-.12.5,1.75c-1.63,3-1.63,6.63,0,5.63.62-.38,0,1.12-1.63,3.5-3.5,5.37-6.5,5.62-3.25.37Zm-6.37.87c0-1.87-.25-2-1.38-.37s-1.25,1.5-.87.12a3.82,3.82,0,0,1,1.87-2.25c1.75-.62,3.13,3.13,1.63,4C476.5,304.87,476,304.12,476,302.87Zm-70.75,0c.5-.87.37-1.62-.25-1.62s-1.88-1.63-2.5-3.75c-1-2.75-1-3.63.12-3.38,1.63.25,1.75-2.12.25-5.75-.75-1.62-.5-2,1.25-1.37s2,.12,1.38-4c-.63-3.37-.5-4.13.25-2.38,1.37,3.13,1.12,21.5-.38,22.75C404.87,304,404.75,303.62,405.25,302.87Zm72.75-5c-1.75-1.87-3.25-4-3.25-4.62s1.12.25,2.62,1.87l2.5,3-.62-3.37c-.5-2-.25-3.5.37-3.5,1,0,2.75,8.75,2,9.75-.25.25-1.87-1.13-3.62-3.13ZM489.37,290c-.37-1.38-.12-2.5.5-2.5S491,288.62,491,290c0,3.25-.75,3.25-1.63,0Zm-15.75-.88c-.25-2.5,2-3,3.75-.62,1.63,1.87,1.5,2-.37.5-1.63-1.25-2.13-1.25-2.63,0s-.75,1.12-.75.12ZM485,278.75c0-2.38.25-3.38.62-2.13a12.88,12.88,0,0,1,0,4.38C485.25,282.12,485,281.12,485,278.75Zm-77.63.75c-.12-1.38.25-2.13.63-1.63a2.54,2.54,0,0,1,.12,2.38C407.75,281.25,407.37,280.87,407.37,279.5Zm58-13.25c-.37-.63-3.62-.88-7.25-.63-5.12.5-5.87.38-3.37-.62,2.87-1.13,2.87-1.13-.88-.75-2.25.12-4.12-.13-4.12-.75s1.12-1,2.5-1c2.5,0,2.87-2.38.62-4-1.75-1.25,4.75-.5,6.88.87,1.25.75,1.5.5.87-1.37-.87-2.25-.87-2.25,1,0a9.57,9.57,0,0,1,1.88,3.5c0,.5,1.5,1.75,3.25,2.62,2.62,1.38,2.87,1.88,1.37,2.5-1.12.38-2.37.25-2.75-.37Zm-3.5-4.13c0-.87-1.62-1.75-3.87-1.87-3.63-.25-3.75-.13-1.5,1.62C459.5,264.12,461.87,264.25,461.87,262.12Zm-29.12-1.5c1.25-1,2.87-1.5,3.62-1,1.38.88-1.5,2.88-4.12,2.88-1.5-.13-1.37-.5.5-1.88Zm5.75-4.37c0-.63.87-1.25,2-1.25s1.5.62,1.12,1.25C440.62,257.87,438.5,257.87,438.5,256.25ZM454.75,255c0-1.63,2.12-1.63,3.12,0,.38.75-.12,1.25-1.12,1.25S454.75,255.75,454.75,255Z"/></g><g id="Layer_1" data-name="Layer 1"><path class="cls-15" d="M861.2,6a25,25,0,0,1,24.9,24.9V569a24.9,24.9,0,0,1-24.9,24.9H30.9A24.82,24.82,0,0,1,6,569.1V30.9A25,25,0,0,1,30.9,6H861.2m0-6H30.9A30.86,30.86,0,0,0,0,30.9H0V569a30.88,30.88,0,0,0,30.9,31H861.1A30.86,30.86,0,0,0,892,569.1V30.9A30.71,30.71,0,0,0,861.2,0Z"/></g><path class="cls-1" d="M31.4,0H868.5a30.88,30.88,0,0,1,31,30.9V569a30.86,30.86,0,0,1-30.9,30.9H31.4A30.71,30.71,0,0,1,.5,569.1V30.9A30.86,30.86,0,0,1,31.4,0Z"/></svg>