<?xml version="1.0" encoding="utf-8"?>
<!-- Generator: Adobe Illustrator 27.9.1, SVG Export Plug-In . SVG Version: 6.00 Build 0)  -->
<svg version="1.1" id="Layer_1" xmlns="http://www.w3.org/2000/svg" xmlns:xlink="http://www.w3.org/1999/xlink" x="0px" y="0px"
	 viewBox="0 0 400 400" style="enable-background:new 0 0 400 400;" xml:space="preserve">
<style type="text/css">
	.st0{fill:#3A3839;}
	.st1{fill:#FFFFFF;}
	.st2{fill:#CF3438;}
	.st3{fill:#C51717;}
</style>
<g>
	<path class="st0" d="M144.6,10.2c0,5,0,9.8,0,14.7c1.9-0.1,3.6-0.5,5.3-0.8c2.7-0.4,5.4-1,8.1-1.4c1.3-0.2,1.3-0.2,1.3-1.5
		c0-4.1,0-8.3,0-12.4c0-1.6-0.1-1.3,1.2-1.5c5.4-0.8,10.8-1.5,16.2-2c6.6-0.6,13.2-0.8,19.9-0.6c4.2,0.2,8.3-0.1,12.5-0.1
		c9.6,0.1,19.2,1,28.8,2.4c0.9,0.1,2-0.1,2.5,0.5c0.6,0.6,0.2,1.8,0.2,2.7c0,3.7,0,7.4,0,11.2c0,0.7,0.1,1.1,0.9,1.3
		c4.4,0.7,8.8,1.5,13.2,2.3c0.1,0,0.3,0,0.7,0c0-4.9,0-9.7,0-14.8c3.3,0.8,6.4,1.5,9.5,2.3c24.2,6.2,47.3,15.3,69.5,26.7
		c0.9,0.5,1.4,1.1,1.8,2c4.6,9.9,8.3,20.2,11.6,30.7c4.2,13.5,7.5,27.2,9.8,41.1c1.7,10.2,2.9,20.4,3.5,30.6
		c0.6,10.4,0.7,20.8,0.2,31.2c-2,36.1-11.2,70.1-28.8,101.8c-11.9,21.5-26.9,40.6-44.5,57.8C270.9,351,252,365.4,231.6,378
		c-9.9,6.1-20.1,11.8-30.5,17.1c-0.7,0.4-1.3,0.5-2.1,0.1c-24.7-12.6-48-27.2-69.3-45c-20.6-17.1-38.7-36.6-53.4-59.1
		c-15.5-23.8-26.3-49.5-32.4-77.3c-1.9-9-3.4-18-4.3-27.1c-1.3-12.6-1.7-25.3-1.1-38c1.7-35.5,9.3-69.6,22.9-102.5
		c0.8-1.9,1.7-3.7,2.5-5.6c0.3-0.7,0.7-1.2,1.4-1.5c24.5-12.6,50-22.4,76.9-28.5C143,10.5,143.7,10.4,144.6,10.2z M140.8,15
		c-1.1,0.3-1.9,0.4-2.8,0.6c-24.3,6-47.5,15-69.8,26.4c-0.6,0.3-1,0.7-1.3,1.4c-1.2,2.8-2.5,5.6-3.6,8.4c-9,22.6-15.1,46-18.4,70.1
		c-1.4,10.2-2.3,20.4-2.6,30.6c-0.3,10.8,0,21.6,1.1,32.4c0.9,8.8,2.2,17.6,4,26.3c5.6,26.7,15.6,51.7,30.2,74.8
		c14,22.2,31.4,41.5,51.3,58.5c21.5,18.4,45.1,33.5,70.2,46.4c0.8,0.4,1.5,0.3,2.2-0.1c15.7-8.1,30.8-17.1,45.3-27.2
		c20.6-14.4,39.5-30.9,55.8-50.1c33.3-39.3,51.6-84.8,55.1-136.2c0.7-10.3,0.7-20.6,0.2-30.9c-0.6-10.9-1.7-21.6-3.5-32.3
		c-2.3-13.6-5.4-27-9.5-40.2c-3.2-10.3-6.8-20.4-11.2-30.2c-0.3-0.8-0.8-1.3-1.6-1.7c-21.8-11.1-44.4-19.9-68-25.9
		c-1.4-0.4-2.8-0.8-4.4-0.9c0,4.9,0,9.6,0,14.4c-0.5-0.1-1-0.1-1.4-0.2c-6.6-1.2-13.2-2.4-19.8-3.6c-1.2-0.2-1.2-0.2-1.2-1.4
		c0-4.2,0-8.4,0-12.5c0-1.2,0-1.2-1.1-1.3c-2-0.3-3.9-0.5-5.9-0.7c-7.8-1-15.7-1.5-23.6-1.4c-4,0.1-8,0.1-12.1,0
		c-7.6-0.2-15.2,0.4-22.7,1.2c-2.4,0.3-4.7,0.6-7.1,0.9c-0.7,0.1-1.2,0.3-1,1.1c0,0.3,0,0.6,0,0.9c0,4,0,8,0,11.9c0,1,0,1.2-1.1,1.3
		c-1.9,0.3-3.7,0.7-5.6,1c-4.8,0.9-9.5,1.7-14.3,2.6c-1.5,0.3-1.5,0.2-1.5-1.3c0-3.6,0-7.2,0-10.9C140.8,16.5,140.8,15.8,140.8,15z"
		/>
	<path class="st1" d="M140.8,15c0,0.9,0,1.5,0,2.2c0,3.6,0,7.2,0,10.9c0,1.6,0,1.6,1.5,1.3c4.8-0.8,9.5-1.7,14.3-2.6
		c1.9-0.3,3.7-0.7,5.6-1c1.2-0.2,1.1-0.3,1.1-1.3c0-4,0-8,0-11.9c0-0.3,0-0.6,0-0.9c-0.1-0.8,0.3-1.1,1-1.1c2.4-0.3,4.7-0.6,7.1-0.9
		c7.6-0.8,15.1-1.4,22.7-1.2c4,0.1,8,0.1,12.1,0c7.9-0.1,15.8,0.4,23.6,1.4c2,0.2,3.9,0.5,5.9,0.7c1.1,0.1,1.1,0.2,1.1,1.3
		c0,4.2,0,8.4,0,12.5c0,1.2,0,1.2,1.2,1.4c6.6,1.2,13.2,2.4,19.8,3.6c0.4,0.1,0.8,0.1,1.4,0.2c0-4.8,0-9.6,0-14.4
		c1.6,0.1,3,0.6,4.4,0.9c23.7,6,46.3,14.9,68,25.9c0.8,0.4,1.2,1,1.6,1.7c4.4,9.8,8.1,19.9,11.2,30.2c4.1,13.2,7.2,26.6,9.5,40.2
		c1.8,10.7,3,21.5,3.5,32.3c0.5,10.3,0.5,20.6-0.2,30.9c-3.4,51.4-21.7,96.9-55.1,136.2c-16.3,19.2-35.2,35.7-55.8,50.1
		c-14.5,10.1-29.6,19.1-45.3,27.2c-0.8,0.4-1.4,0.5-2.2,0.1c-25.1-13-48.7-28-70.2-46.4c-19.9-17-37.3-36.3-51.3-58.5
		c-14.6-23.1-24.6-48-30.2-74.8c-1.8-8.7-3.1-17.4-4-26.3c-1-10.8-1.4-21.6-1.1-32.4c0.3-10.2,1.2-20.4,2.6-30.6
		c3.4-24.1,9.5-47.5,18.4-70.1c1.1-2.8,2.4-5.6,3.6-8.4c0.3-0.6,0.7-1.1,1.3-1.4c22.3-11.4,45.5-20.4,69.8-26.4
		C138.8,15.4,139.7,15.2,140.8,15z M188.8,286.6c0-0.8,0-1.3,0-1.8c0-47.7,0-95.3,0-143c0-0.4,0-0.7,0-1.1c0-0.5,0.2-0.7,0.7-0.7
		c0.4,0,0.7,0,1.1,0c6.3,0,12.6,0,19,0c2.3,0,1.9-0.2,1.9,1.9c0,23.9,0,47.7,0,71.6c0,0.6-0.1,1.2,0.1,1.8c0.6,0.2,1.1,0.1,1.7,0.1
		c9.7,0,19.5,0,29.2,0c1.9,0,1.9,0,1.9-1.8c0-34.2,0-68.5,0-102.7c0-0.3,0-0.6,0-0.9c0-0.6-0.1-0.9-0.8-1c-1-0.1-1.9-0.4-2.8-0.6
		c-10.8-2-21.8-2.8-32.8-3c-9.9-0.2-19.9,0.2-29.8,1.1c-6.9,0.6-13.8,1.4-20.6,2.4c-1.9,0.3-1.9,0.3-1.9,2.2c0,80,0,159.9,0,239.9
		c0,0.2,0,0.4,0,0.6c-0.1,0.9,0.3,1.4,0.9,1.9c9,6.7,18.2,13,27.9,18.7c4.5,2.7,9.1,5.1,14,7.1c1,0.4,1.9,0.4,2.9-0.1
		c6.5-3.2,12.9-6.5,19.2-10.1c7.8-4.4,15.4-9,22.5-14.4c0.9-0.7,1.3-1.3,1.3-2.5c0-32.2,0-64.3,0-96.5c0-2,0.2-1.7-1.8-1.8
		c-9.9-0.1-19.9-0.1-29.8-0.2c-0.5,0-0.9-0.1-1.5,0.2c0,10.3,0,20.7,0,31.3C203.5,281.8,196.2,282.2,188.8,286.6z M148.4,110.5
		c-0.2,0-0.4,0-0.6,0c-3.6,0.7-7.3,1.3-10.9,2.1c-28.5,6.4-55.9,16-82.2,28.9c-1.2,0.6-1.5,1.3-1.6,2.5c-0.4,12.6,0.4,25.2,2,37.7
		c1.4,11.2,3.5,22.2,6.4,33.1c7.2,27.9,18.5,53.9,34.5,77.8c14.1,21,31.3,39.3,51.2,54.9c0.4,0.3,0.7,0.8,1.3,0.8
		c0-41.4,0-82.7,0-124.1c-0.4,0.1-0.6,0.2-0.8,0.2c-10.3,3.7-20.7,7.4-31.1,11.1c-0.8,0.3-1.1,0.7-1.1,1.5
		c-0.1,4.7-0.2,9.4-0.4,14.1c-0.1,1.8-0.1,3.6-0.2,5.4c-0.5,0-0.6-0.4-0.8-0.6c-1.2-1.6-2.3-3.4-3.2-5.2c-3.1-6-5.5-12.3-7.4-18.7
		c-0.6-1.8-0.7-1.5,1.1-2.1c14.2-5.1,28.4-10.1,42.6-15.1c1.4-0.5,1.5-0.5,1.5-2c0-11.1,0-22.1,0-33.2c0-0.5,0.1-1-0.2-1.5
		c-18.7,6.6-37.3,13.3-55.9,19.9c-0.4-0.4-0.4-0.9-0.5-1.3c-2.4-10.6-3.6-21.3-3.7-32.1c0-1,0.3-1.4,1.2-1.8
		c7.9-3.2,15.8-6.5,23.8-9.7c0.4-0.1,0.7-0.5,1.2-0.2c0.2,4.7,0.4,9.5,0.6,14.3c0.2,4.8,0.3,9.6,0.6,14.4c0.7,0,1.1-0.2,1.5-0.3
		c10-3.4,19.9-6.8,29.9-10.2c1.4-0.5,1.4-0.5,1.4-1.9c0-19.1,0-38.2,0-57.3C148.6,111.5,148.7,111,148.4,110.5z M285.4,153.8
		c0.6-0.1,1,0.2,1.5,0.4c8,3,16,6.1,24,9.2c1.5,0.6,1.4,0.2,1.3,2.1c-0.3,6.1-0.8,12.1-1.6,18.1c-1.3,10-3.3,19.9-6,29.6
		c-4,14.3-9.3,28-16.6,40.9c-0.1,0.2-0.2,0.4-0.2,0.5c0.1,0.1,0.2,0.3,0.4,0.3c5.4,2.6,11,4.8,17,5.8c3.5,0.6,7,0.7,10.5-0.3
		c4.7-1.3,8-4.2,10.6-8.2c1.9-2.9,3.3-6,4.4-9.2c2.6-7.8,5.5-15.5,8-23.4c3.6-11.2,6.3-22.7,7.1-34.5c0.7-10.2,0.3-20.3-3.2-30.1
		c-1.5-4.1-3.4-7.8-6.2-11.1c-4.4-5.2-9.8-9.2-15.6-12.7c-9.1-5.4-18.9-9.3-28.9-12.6c-12.4-4.1-25.2-7.1-38.1-9.4
		c-1.6-0.3-1.6-0.3-1.6,1.5c0,78.7,0,157.4,0,236.1c0,0.5,0,1,0,1.5c0.6,0,0.9-0.3,1.2-0.6c1.7-1.3,3.4-2.5,5-3.8
		c10.1-8.3,18.6-18.1,26.1-28.8c0.7-1,1-2,1-3.2c0-52.1,0-104.3,0-156.4C285.3,155,285.2,154.4,285.4,153.8z M176.3,50
		c-0.4,13.5-0.8,26.8-1.1,40.2c0,0.3,0,0.6,0,0.9c0,0.6,0.1,0.8,0.8,0.8c2.5,0,5,0,7.5,0c0.6,0,0.8-0.3,0.8-0.8c0-0.3,0-0.5,0-0.8
		c0.2-14,0.4-27.9,0.6-41.9c0-0.8,0-1.5-0.1-2.3c-0.2-1.7-0.7-3.3-1.7-4.7c-1-1.5-2.5-2.5-4.3-2.6c-4-0.3-7.1,1.2-9.2,4.8
		c-0.7,1.2-1.1,2.5-1.4,3.9c-1.6,8-3.1,16.1-4.6,24.1c-0.1,0.3,0,0.7-0.5,0.8c-0.4-8.7-0.9-17.4-1.3-26.1c0-0.6-0.1-1.1-0.2-1.7
		c-0.6-2.6-2.3-3.9-5-3.7c-1.7,0.1-3.3,0.5-4.9,1.1c-4.1,1.6-6.6,4.6-7,9.1c-0.1,1-0.2,2-0.4,3c-0.9,7.2-1.5,14.5-2.1,21.7
		c-0.4,5-0.8,10.1-1.1,15.1c-0.1,1.9-0.2,3.7-0.3,5.7c3.2-0.4,6.3-1,9.3-1.6c0.5-0.1,0.5-0.4,0.5-0.8c0-1.2,0-2.3,0.1-3.5
		c0.3-11,1.2-22,2.1-32.9c0.2-2.2,0.4-4.3,0.6-6.6c0.4,0.5,0.5,1,0.6,1.5c1,5,1.5,10.1,2,15.1c0.9,8.2,1.6,16.4,2.2,24.7
		c0.1,1,0.1,1,1.2,1c2.1,0,4.3,0,6.4,0c1.4,0,1.3,0.2,1.5-1.3c0.4-3,0.9-5.9,1.5-8.9c2-10.5,4.5-20.9,6.9-31.3
		C175.7,51.5,175.7,50.7,176.3,50z M345.9,126.9c0-0.6,0-1.1-0.1-1.7c-0.5-5.1-1.2-10.1-2-15.1c-1.9-11.1-4.5-22-7.9-32.8
		c-0.8-2.4-1.9-4.5-3.6-6.3c-6-6.7-13.7-9.8-22.3-11.3c-1.7-0.3-2.3,0.4-2,2.1c0.8,4.3,1.7,8.6,2.5,12.9c1.6,8.9,2.9,17.8,4.2,26.7
		c0.5,3.6,1,7.2,1.4,10.7c0.1,0.7,0.4,1.1,1,1.3c2.6,1,5,2.3,7.4,3.5c0.3,0.2,0.7,0.5,1.1,0.4c0-0.2,0.1-0.4,0.1-0.6
		c0-3.2-0.2-6.3-0.6-9.5c-0.3-3.1-0.7-6.3-1-9.4c-0.1-1-0.1-1.1,0.9-1.1c2,0,4,0,6,0c0.7,0,1,0.2,1.2,0.9c0.4,1.7,0.8,3.4,1.1,5.1
		c1,5.8,1.4,11.7,1.3,17.6c0,0.9,0.3,1.3,1.1,1.7c3.1,1.3,6.1,2.9,9,4.5C345,126.7,345.3,127,345.9,126.9z M274,47.8
		c0.3,1.9,0.6,3.8,0.9,5.7c0.9,5.9,1.7,11.8,2.6,17.7c0.8,5.7,1.5,11.5,2,17.3c0.4,4,0.7,8,0.9,12c0,0.7,0.2,1,0.9,1.1
		c1,0.1,2,0.3,3,0.6c1.9,0.5,3.8,1,5.8,1.5c-0.3-6.6-0.6-13.2-1.2-19.8c1.3,1.2,2.3,2.6,3.3,4.1c3.9,5.8,6.9,12,9.5,18.4
		c0.4,1,0.9,1.6,1.9,1.9c2.5,0.8,4.9,1.7,7.3,2.7c0.3,0.1,0.6,0.5,1,0.1c-4.5-9.4-8.8-18.9-14-28c0.2-0.4,0.5-0.4,0.8-0.5
		c4-1.7,5.7-4.7,4.8-9.1c-0.7-3.3-1.4-6.7-2-10c-0.5-2.7-1.8-4.8-3.7-6.7c-2.2-2.2-4.8-3.8-7.6-5.1c-4.2-1.9-8.6-3-13.2-3.7
		C276.2,47.9,275.1,47.5,274,47.8z M122.2,101.6c-1-1.6-1.8-3-2.6-4.3c-1.2-2.1-2.6-4.1-3.7-6.3c-1.5-3.2-2.8-6.6-4.2-9.8
		c-0.2-0.5-0.3-0.9,0.3-1.2c3.6-2.3,5.8-5.6,7.4-9.5c2-4.9,2.7-10.1,2.7-15.4c0-4-2.2-5.6-6-4.4c-5.3,1.6-10.7,3.4-16,5
		c-0.9,0.3-1.3,0.7-1.4,1.5c-0.7,3.2-1.5,6.3-2.2,9.5c-1.8,8.2-3.3,16.5-4.5,24.8c-0.9,5.9-1.7,11.8-2.3,17.7c0,0.4-0.3,0.8,0.2,1.2
		c2.8-1,5.7-1.9,8.6-2.9c0.5-0.2,0.6-0.6,0.7-1.1c0.3-2.5,0.6-5.1,1-7.6c0.5-3.6,1-7.3,1.4-10.9c0.1-0.6,0.1-1.2,0.9-1.5
		c0.2,0.4,0.5,0.9,0.7,1.3c2.5,4.4,5,8.9,7.4,13.4c0.5,0.8,1,1.1,1.9,1c2.1-0.1,4.2-0.1,6.3-0.2
		C119.9,101.8,120.9,101.7,122.2,101.6z M207,67.8c0,0.8,0,1.4,0,1.9c0,6.6-0.1,13.1-0.1,19.7c0,0.4,0,0.7,0,1.1
		c0,0.5,0.2,0.6,0.6,0.6c2.4,0,4.8,0,7.2,0c0.6,0,0.8-0.2,0.8-0.8c0-0.4,0-0.8,0-1.2c-0.1-8.2-0.2-16.4-0.3-24.6
		c-0.1-5.6-0.2-11.2-0.2-16.8c0-2-0.3-4-1.3-5.8c-0.9-1.7-2.2-2.9-4.1-3.1c-2.7-0.3-5.5-0.6-8.2-0.7c-2.3-0.1-4.5,0-6.6,1
		c-2.5,1.2-4,3-4,6c0,4.4-0.1,8.9-0.1,13.3c-0.1,10.5-0.3,21-0.4,31.5c0,1.5,0,1.3,1.3,1.3c2.1,0,4.3,0,6.4,0c1.4,0,1.3,0.1,1.3-1.3
		c0-5.6,0-11.2,0-16.8c0-0.4,0-0.7,0-1.1c0-0.4,0.1-0.7,0.5-0.8C202.2,70.1,204.5,69,207,67.8z M54.4,126.1c0.3-0.1,0.5-0.1,0.6-0.2
		c3.2-1.6,6.4-3.3,9.6-4.9c0.5-0.3,0.7-0.6,0.8-1.2c0.1-1.6,0.4-3.2,0.5-4.9c0.4-4.2,0.8-8.4,1.4-12.6c0.9-6.2,2-12.3,3.6-18.4
		c0.9-3.7,2-7.5,3.8-10.9c0.5-1,1-2.1,2.1-2.5c1.6-0.6,3.2-1,4.9-0.7c1,0.2,1.5,0.9,1.2,1.9c-0.6,1.7-0.8,3.5-1.2,5.2
		c-2.1,7.8-6.3,14.4-11.8,20.2c-0.3,0.4-0.8,0.6-1,1.2c1.8,0.8,3.7,0.9,5.7,0.9c1,0,1.7-0.3,2.5-0.9c3.6-2.9,6.1-6.5,8.1-10.6
		c2.6-5.2,4.3-10.6,5.5-16.3c0.5-2.3,1-4.6,1-6.9c-0.1-3.1-1.4-4-4.3-3.2c-4.2,1.3-8.4,2.6-12.7,3.9c-2.6,0.8-4.9,2-6.9,3.8
		c-0.7,0.7-1.2,1.4-1.6,2.4c-1.4,4.4-2.6,8.9-3.7,13.4c-3,12.3-5.3,24.7-7.6,37.1C54.8,123.2,54.4,124.6,54.4,126.1z M237,40.2
		c-0.3,6.4-0.9,12.4-1.6,18.5c-0.6,5-1.3,9.9-1.9,14.8c0,0.1-0.1,0.2-0.1,0.3c0,0-0.1,0.1-0.1,0.1c-0.2,0,0-0.2-0.1,0
		c-2-8.6-3.8-17.2-5.6-25.8c-0.6-2.8-1.2-5.6-1.7-8.4c-0.1-0.4-0.1-0.9-0.8-0.9c-2.6,0-5.2,0-7.8,0c0.1,0.3,0.1,0.5,0.1,0.7
		c2.8,11.9,5.3,23.9,7.8,35.9c1.1,5.2,2.2,10.5,3.3,15.7c0.1,0.5,0.2,1,0.9,1c3.2,0,6.3,0,9.5,0c0.5,0,0.7-0.2,0.8-0.7
		c0-0.3,0.1-0.6,0.2-0.9c1.2-6.8,2.1-13.6,2.8-20.4c1-8.6,1.6-17.1,2.3-25.7c0.1-0.8,0.4-1.8-0.1-2.4c-0.5-0.6-1.5-0.5-2.3-0.7
		C240.7,41,238.9,40.7,237,40.2z M275.5,100c0-2.1,0-4.2,0-6.3c0-1.5,0-1.5-1.4-1.9c-4.2-1.1-8.4-2.2-12.6-3c-0.9-0.2-1-0.5-1-1.3
		c0.1-3.9,0.1-7.7,0.1-11.6c0-1.2,0-1.2,1.3-1.6c3-0.8,6.1-1.6,9.1-2.5c1.4-0.4,1.4-0.4,1.4-1.9c0-2.1,0-4.3,0-6.4
		c0-0.4,0.1-0.9-0.2-1.4c-4.3,1.4-8.7,2.7-13.1,4.1c-0.6-5.1-1.1-9.9-1.6-14.8c-0.1-1,0-1,1-0.9c3.5,0.3,6.9,1.2,10.2,2.6
		c0.5,0.2,1,0.6,1.7,0.5c0-1.7-0.1-3.4,0-5.2c0-0.9-0.3-1.3-1.1-1.6c-5.4-2.2-10.9-3.6-16.7-4.1c-1.5-0.1-3.1,0-4.7,0
		c0,0.4,0,0.8,0.1,1.1c1.3,8.8,2.2,17.6,2.9,26.4c0.6,7.9,1.1,15.8,1,23.7c0,1-0.1,1.2,1.2,1.4c6.6,1,13.3,2.2,19.8,3.9
		C273.8,99.6,274.5,100,275.5,100z M139.8,44.9c-2.8,0.5-5.3,0.9-7.9,1.3c-0.7,0.1-0.9,0.4-1,1.1c-0.9,6.6-1.9,13.1-2.8,19.6
		c-0.8,5.5-1.4,11.1-2,16.7c-0.5,4.9-0.9,9.7-1,14.6c0,0.5-0.1,1,0.2,1.6c2.8-0.4,5.7-0.9,8.5-1.3c0.8-0.1,1-0.5,1-1.2
		c0.2-9,0.8-18,1.6-27c0.6-6.4,1.3-12.9,2.4-19.2C139,49.1,139.4,47.1,139.8,44.9z"/>
	<path class="st0" d="M188.8,286.6c7.4-4.3,14.8-4.7,22.5-1.3c0-10.6,0-21,0-31.3c0.6-0.3,1-0.2,1.5-0.2c9.9,0.1,19.9,0.1,29.8,0.2
		c2,0,1.8-0.2,1.8,1.8c0,32.2,0,64.3,0,96.5c0,1.2-0.4,1.8-1.3,2.5c-7.2,5.3-14.8,10-22.5,14.4c-6.3,3.6-12.7,6.9-19.2,10.1
		c-1,0.5-1.9,0.5-2.9,0.1c-4.9-2-9.5-4.4-14-7.1c-9.7-5.7-18.9-12.1-27.9-18.7c-0.7-0.5-1.1-1-0.9-1.9c0-0.2,0-0.4,0-0.6
		c0-80,0-159.9,0-239.9c0-1.9,0-1.9,1.9-2.2c6.8-1.1,13.7-1.8,20.6-2.4c9.9-0.9,19.8-1.3,29.8-1.1c11,0.2,22,1,32.8,3
		c0.9,0.2,1.9,0.4,2.8,0.6c0.7,0.1,0.8,0.4,0.8,1c0,0.3,0,0.6,0,0.9c0,34.2,0,68.5,0,102.7c0,1.8,0,1.8-1.9,1.8
		c-9.7,0-19.5,0-29.2,0c-0.6,0-1.1,0.1-1.7-0.1c-0.2-0.6-0.1-1.2-0.1-1.8c0-23.9,0-47.7,0-71.6c0-2.2,0.4-1.9-1.9-1.9
		c-6.3,0-12.6,0-19,0c-0.4,0-0.7,0-1.1,0c-0.5,0-0.8,0.2-0.7,0.7c0,0.4,0,0.7,0,1.1c0,47.7,0,95.3,0,143
		C188.8,285.2,188.8,285.7,188.8,286.6z M229.8,347.4c0.2,1.1,1,0.6,1.6,0.6c0.6,0,0.5-0.5,0.5-0.9c0-1.2,0-2.3,0-3.5
		c0-1.7,0-1.7,1.7-1.6c0.1,0,0.1,0,0.2,0c0.8-0.1,1,0.2,1,1c0,1.3,0,2.6,0,4c0,1.1,0,1.1,1.1,1.1c0.9,0,1,0,1-1.1
		c0-3.8,0-7.6,0-11.4c0-1.3-0.7-2.2-2-2.5c-0.8-0.2-1.5-0.1-2.3,0c-1.7,0.3-2.5,1.3-2.5,3.1c0,2.1,0.2,4.2-0.1,6.2l0,0
		c-0.4-0.7-0.6-1.3-0.5-2.2c0.3-1.6,0.2-3.3,0-5c-0.2-1.4-0.9-2-2.2-2c-1.2,0-2.4,0-3.7,0c-1.2,0-1.2,0-1.2,1.1c0,2.7,0,5.4,0,8.1
		c0,1.8,0,3.6,0,5.3c0,0.8,0.3,1.1,1.1,1c1-0.1,1.9-0.1,2.9,0c1.6,0.2,2.8-0.4,3.5-1.8C229.7,347.1,229.6,347.3,229.8,347.4z
		 M208.6,285c-0.1-0.1-0.2-0.2-0.4-0.1c-0.1,0.1,0,0.2,0.1,0.3c0.3,0.6,0.8,1,1.3,1.4c1.9,1.2,3.2,3,4.1,5c0.8,2,1.3,4.1,1.3,6.2
		c0,1.2,0.4,2,1.3,2.7c2.1,1.8,4.1,3.7,5.9,5.7c0.3,0.3,0.9,0.5,0.7,1.2c-0.5,0.3-0.7-0.2-0.9-0.5c-2.1-2.2-4.3-4.3-6.6-6.4
		c-0.6-0.6-1.1-0.6-1.9-0.4c-1.6,0.5-3.2,1.2-4.6,2c-2.8,1.7-5,3.9-6.6,6.8c-0.8,1.5-0.8,1.5,0.5,2.4c2.5,1.8,5,3.5,7.5,5.2
		c1.9,1.3,3.9,2.5,6,3.6c1.1,0.6,1.1,0.6,1.9-0.3c2.3-2.7,3.8-5.9,4.6-9.3c0.2-1,0.6-2.1-0.1-3.2c0,0,0.1-0.1,0.1-0.1
		c0.6-0.5,0.5-1.1,0.5-1.8c-0.3-8.3-4-14.6-11.1-19C211.1,285.9,210,285.2,208.6,285z M202.9,292.5c-8.3,4-12.7,11.4-16.7,19.1
		c-1-0.8-1.8-1.8-2.9-2.4c-0.8,2-1.3,3.9-1.7,5.9c-0.1,0.6,0.1,1,0.4,1.4c1.3,1.8,2.8,3.4,4.7,4.6c1.9,1.2,3.9,1.7,6.1,1.7
		c1.1,0,1.2-0.1,1.4-1.2c0.7-4.3,2.8-7.7,6-10.5c0.5-0.4,0.9-0.9,1.2-1.5c2-4.2,5.1-7.2,9.3-9.1c1-0.5,2.1-0.8,3.1-1.2
		c0.4-0.1,0.6-0.3,0.6-0.7c0-3.7-0.8-7.2-3.3-10.1c-1.3-1.4-2.7-2.3-4.7-1.5c-0.1,0.1-0.3,0-0.5,0.1c-2.1,0.5-4.2,1.1-6.2,2.1
		C200.6,290.7,201.9,291.4,202.9,292.5z M216.9,321.3c-3.5-1.8-6.6-3.8-9.7-5.9c-1.8-1.2-3.6-2.5-5.3-3.8c-0.5-0.4-0.8-0.4-1.3,0
		c-3.2,2.7-5.3,6.1-5.9,10.4c-0.1,0.7,0.1,1,0.7,1.4c1.7,0.9,3.3,1.9,5,2.9c3.3,1.9,3.3,1.9,7.1,0.8c0.1,0,0.3-0.1,0.4-0.1
		C211.3,325.8,214.2,324,216.9,321.3z M183.9,305.3c0.5-0.5,0.9-1.2,0.9-1.8c0-0.5-0.7-0.8-1.2-1.1c-0.3-0.3-0.4-0.5-0.1-0.9
		c0.3-0.3,0.5-0.4,0.9-0.1c0.4,0.3,0.6,0.6,1.1,0.7c1.4-1.9,1.4-1.9,0-3.5c0.2-0.3,0.4-0.7,0.7-0.7c0.6,0,0.8,0.7,1.5,0.9
		c0.4-0.5,0.8-1.1,1.2-1.6c-0.1-0.4-0.5-0.6-0.7-0.9c-0.7-0.7-0.7-0.7,0.2-1.4c0.6,0.2,0.8,0.9,1.6,1.1c0.3-0.3,0.6-0.7,1-1.1
		c0.9-0.9,0.9-0.9,0-1.9c-0.6-0.7-0.6-0.7,0.2-1.5c0.5,0.3,0.8,0.7,1.3,1.1c0.2,0.2,0.5,0.4,0.8,0.1c0.8-0.6,1.6-1.3,2.4-1.9
		c-0.4-0.4-0.6-0.7-0.9-1c-0.3-0.3-0.2-0.5,0-0.8c0.4-0.5,0.7-0.2,1.1,0.1c1,0.9,1,0.9,2.1,0.3c0.2-0.1,0.4-0.1,0.4-0.5
		c-0.3-0.4-0.6-0.8-0.9-1.3c-0.3-0.7-0.7-0.8-1.4-0.5c-3.4,1.2-6.4,3.1-9.1,5.5c-3.6,3.3-6,7.4-7.2,12.2c-0.1,0.4-0.5,1,0.1,1.4
		c1,0.6,1.9,1.2,2.9,1.9c0.6-1.4,0.6-1.4-0.5-2.1c-0.3-0.2-0.7-0.5-1-0.7c-0.4-0.2-0.4-0.5-0.2-0.9c0.3-0.4,0.5-0.5,0.9-0.2
		C182.7,304.6,183.3,304.9,183.9,305.3z M170.8,339.9c0.1,0,0.2,0,0.3,0c0.7,2.5,1.5,5.1,2.2,7.6c0.3,1.1,0.6,1.3,1.9,1.1
		c0.9-0.1,0.5-0.9,0.5-1.3c0-4.2,0-8.4,0-12.7c0-0.3,0-0.5,0-0.8c0-0.4-0.2-0.5-0.5-0.6c-1.3-0.2-1.5,0-1.5,1.3c0,0.4,0,0.8,0,1.2
		c0,1.7,0,3.4,0,5.1c-0.1,0-0.2,0-0.3,0c-0.4-1.3-0.9-2.6-1.3-3.8c-0.3-1.1-0.7-2.1-1-3.2c-0.3-0.9-1.1-0.5-1.7-0.5
		c-0.6,0-0.5,0.5-0.5,0.9c0,2.2,0,4.4,0,6.6c0,2.3,0,4.7,0,7c0,0.7,0.4,0.8,1,0.8c0.5,0,1,0,1-0.8c0-1.4,0-2.7,0-4.1
		C170.8,342.5,170.8,341.2,170.8,339.9z M204.5,348.1c0-0.1,0.1-0.2,0.1-0.3c0-4.1,0-8.2,0-12.4c0-1-0.6-1.6-1.4-2
		c-1.5-0.7-3.7-0.4-4.8,0.8c-0.4,0.4-0.6,0.8-0.6,1.3c0,3.9,0,7.8,0,11.8c0,0.8,0.4,0.9,1,0.9c0.6,0,1.1-0.1,1-0.9
		c0-1.1,0-2.2,0-3.4c0-2,0-2,2-1.8c0.5,0,0.7,0.2,0.7,0.7c0,1.2,0,2.4,0,3.7C202.6,348.4,202.6,348.4,204.5,348.1z M183.8,341.2
		C183.8,341.2,183.8,341.2,183.8,341.2c0-1.9,0-3.8,0-5.7c0-1.6-0.9-2.4-2.5-2.4c-1.2,0-2.3,0-3.5,0c-0.5,0-0.8,0.2-0.7,0.7
		c0,0.7,0,1.4,0,2.1c0,4.1,0,8.1,0,12.2c0,1.1,0,1.1,1.1,1.1c0.8,0,1.6,0,2.4,0c2.4,0,3.2-0.9,3.3-3.2
		C183.8,344.4,183.8,342.8,183.8,341.2z M192.6,341.6c0-1.9,0-3.8,0-5.6c0-1.5-0.7-2.4-2.1-2.7c-1.2-0.3-2.4-0.1-3.5,0.6
		c-0.8,0.5-1.3,1.2-1.3,2.3c0.1,3,0,5.9,0,8.9c0,0.9,0,1.7,0,2.6c0,0.8,0.5,0.7,1,0.7c0.5,0,1.1,0.1,1-0.7c0-1.2,0-2.3,0-3.5
		c0-1.9,0-1.9,1.9-1.8c0.6,0,0.9,0.2,0.9,0.9c0,1.4,0,2.9,0,4.3c0,0.8,0.3,0.9,1,0.9c1,0,1.1,0,1.1-1
		C192.6,345.3,192.6,343.5,192.6,341.6z M186.1,310.5c1.8-3.6,3.9-7,6.4-10.2c2.6-3.2,5.5-6,9.1-7.9c-0.8-0.8-1.5-1.5-2.1-2.3
		c-0.3-0.4-0.7-0.4-1-0.2c-0.3,0.2-0.8,0.3-0.9,0.7c0.2,0.5,0.7,0.9,1.1,1.3c0.3,0.4,0.1,0.6-0.2,0.9c-0.3,0.2-0.5,0.3-0.8,0
		c-0.3-0.3-0.6-0.6-0.8-0.9c-0.4-0.5-0.8-0.6-1.3-0.2c-0.7,0.6-1.4,1-2.1,1.8c0.4,0.4,0.8,0.9,1.3,1.3c0.3,0.3,0.1,0.5-0.1,0.8
		c-0.2,0.3-0.5,0.4-0.8,0.1c-0.4-0.5-0.7-1-1.1-1.5c-1.1,0.8-1.7,1.5-2.3,2.3c0.5,0.4,0.8,0.8,1.2,1.1c0.3,0.3,0.4,0.5,0.1,0.9
		c-0.3,0.3-0.5,0.4-0.9,0.1c-0.4-0.4-0.8-0.7-1.2-1c-1.5,1.6-1.5,1.6-0.1,3c0,0,0.1,0.1,0.1,0.1c0.4,0.3,0.3,0.6,0,0.9
		c-0.3,0.3-0.6,0.3-0.9,0c-0.4-0.3-0.7-0.8-1.3-1c-0.6,0.6-0.9,1.3-1.2,1.9c0,0.1,0,0.2,0.1,0.3c0.4,0.4,0.8,0.7,1.3,1.1
		c0.3,0.3,0.5,0.5,0.2,0.9c-0.3,0.4-0.6,0.4-1,0.1c-0.4-0.3-0.7-0.7-1.3-0.8c-0.4,0.5-0.8,1.1-0.8,1.6c0,0.6,0.8,0.7,1.2,1.1
		c0,0,0.1,0.1,0.1,0.1c0.4,0.3,0.2,0.6,0,0.9c-0.2,0.3-0.4,0.3-0.8,0.1c-0.4-0.2-0.7-0.6-1.2-0.6c-0.7,1.2-0.7,1.3,0.3,2.1
		C184.9,309.6,185.3,310.2,186.1,310.5z M213.4,340.7c0,1.9,0,3.9,0,5.8c0,1.3,0.4,1.8,1.6,2.2c0.9,0.3,1.8,0.3,2.7,0.2
		c2.1-0.1,2.9-0.9,2.9-3c0-3.5,0-7,0-10.5c0-0.4,0-0.7,0-1.1c-0.1-0.5-0.5-0.8-1-0.8c-0.5,0-0.9,0.3-1,0.8c-0.1,0.4-0.1,0.8-0.1,1.2
		c0,3.4,0,6.8,0,10.2c0,0.4,0.2,0.9-0.3,1.1c-0.7,0.3-1.5,0.3-2.2,0c-0.7-0.3-0.6-1-0.6-1.6c0-3.3,0-6.5,0-9.8c0-0.4,0-0.7,0-1.1
		c0-0.6-0.4-1.1-1-1.1c-0.7,0-1,0.5-1,1.1c0,0.3,0,0.6,0,0.9C213.4,337.2,213.4,339,213.4,340.7z M194.9,363.3c0,1.8,0.7,2.7,2,3
		c2.1,0.5,3.5-0.6,3.5-2.8c0.1-2.7,0-5.4,0-8.1c0-0.7-0.2-1.4-0.8-1.9c-1-0.8-2.2-0.7-3.3-0.3c-1,0.4-1.4,1.2-1.5,2.3
		c0,1.2,0,2.3,0,3.5c0,1.6,0.6,2.3,2.3,2.4c1.3,0.1,1.3,0.1,1.3,1.5c0,0.2,0,0.4,0,0.6c0,0.3-0.1,0.6-0.4,0.8
		c-0.4,0.2-0.8,0-0.9-0.3C196.7,362.8,195.8,363.3,194.9,363.3z M179.2,304c0.1-0.1,0.2-0.1,0.2-0.2c0.1-0.4,0.2-0.8,0.4-1.2
		c2.7-7.6,7.9-12.8,15.3-15.8c1.6-0.7,1.6-0.6,1.2-2.4c0-0.1-0.1-0.1-0.2-0.2C186.4,286.3,179.6,295.2,179.2,304z M201.8,363.8
		c0.1,0.7-0.4,1.7,0.2,2.2c0.5,0.4,1.5,0.1,2.2,0.1c0.4,0,0.7,0,1.1,0c0.3,0,0.4-0.1,0.5-0.4c0.2-1-0.1-1.5-1.1-1.5
		c-0.6,0-0.9-0.2-0.9-0.9c-0.1-0.9,0.2-1.5,0.9-2.1c0.9-0.7,1.8-1.5,2-2.8c0.2-1.1,0.2-2.2,0-3.3c-0.2-1.3-1.4-2.1-2.8-1.9
		c-1.5,0.1-2.4,1-2.4,2.4c0,1.2,0.1,1.3,1.3,1.3c0.8,0,0.7-0.5,0.7-1c0-0.4,0.3-0.7,0.7-0.6c0.4,0,0.6,0.3,0.7,0.7
		c0.1,1.5,0.1,2.9-1.3,3.8c-0.3,0.2-0.4,0.4-0.7,0.6c-0.8,0.5-1,1.2-1,2.1C201.8,362.7,201.8,363.2,201.8,363.8z M208.1,341.7
		c0,1.9,0,3.8,0,5.6c0,0.7,0.3,1,1,0.9c1,0,1,0,1-1.2c0-3.6,0-7.2,0-10.8c0-0.7,0-1.2,0.9-1.1c0.9,0,0.5-0.8,0.5-1.3
		c0.1-0.5-0.1-0.7-0.7-0.7c-1.4,0-2.7,0-4.1,0c-0.2,0-0.6,0-0.6,0.3c-0.1,0.5-0.2,1,0,1.5c0.1,0.4,0.6,0.3,0.9,0.2
		c0.8-0.1,1,0.3,1,1.1C208.1,338,208.1,339.9,208.1,341.7z M208,286.2c-1.1-1.8-1.4-2-3-2.3c-2.4-0.4-4.8-0.4-7.2-0.1
		c-0.6,0.1-0.9,0.4-0.8,1c0.2,1.4,1,2.5,1.8,3.6c0.3,0.4,0.6,0.2,0.9,0.1C202.4,287.4,205.1,286.7,208,286.2z M166.9,341.3
		c0-2.2,0-4.4,0-6.6c0-0.7-0.1-1-0.9-1c-1,0-1.1,0-1.1,0.9c0,4.4,0,8.7,0,13.1c0,0.9,0.1,0.9,1.1,0.9c0.8,0,0.9-0.3,0.9-1
		C166.9,345.5,166.9,343.4,166.9,341.3z M208,355.4c0.2,0,0.4,0.1,0.6,0.1c1.4,0.1,1.4,0.1,1.2,1.6c-0.5,2.6-1,5.2-1.5,7.8
		c-0.2,1.1-0.1,1.1,1,1.1c0.9,0,0.9-0.6,1-1.2c0.6-2.7,1.1-5.5,1.6-8.2c0.2-1,0.5-1.9,0.6-3.1c-1,0-2,0-3,0
		C207.7,353.5,207.7,353.5,208,355.4z M196,341c0-2.1,0-4.3,0-6.4c0-0.8-0.4-0.9-1-0.9c-0.6,0-1.1,0-1,0.9c0,4.2,0,8.4,0,12.7
		c0,0.9,0.1,0.9,1.1,1c0.7,0,1-0.2,1-1C195.9,345.2,196,343.1,196,341z M186.5,322.1c4.2,3.9,9.2,5.9,15,5.7
		c-0.2-0.3-0.5-0.5-0.8-0.6c-1.7-1-3.4-1.9-5-2.9c-0.9-0.6-1.8-1-3-0.7c-0.5,0.1-1,0-1.5-0.1C189.5,323.3,188,322.6,186.5,322.1z
		 M191.9,356.4c0.3,0.5,0.2,0.9,0.2,1.3c0,2.5,0,5-0.1,7.5c0,0.6,0.2,0.9,0.9,0.9c0.6,0,0.8-0.3,0.8-0.8c0-3.6,0-7.1,0-10.7
		c0-0.7-0.3-0.8-0.8-0.7c-0.5,0-2.1,1.2-2.2,1.7c-0.1,0.4-0.2,0.9,0.2,1.3C191.2,356.7,191.5,356.5,191.9,356.4z M180.9,314.6
		c0.6-1.9,1.1-3.6,1.6-5.3c0.1-0.4,0-0.7-0.3-0.9c-1-0.6-1.9-1.3-3.1-2C179.1,309.3,179.7,311.8,180.9,314.6z"/>
	<path class="st2" d="M148.4,110.5c0.3,0.5,0.2,1,0.2,1.5c0,19.1,0,38.2,0,57.3c0,1.4,0,1.4-1.4,1.9c-10,3.4-19.9,6.8-29.9,10.2
		c-0.4,0.1-0.8,0.4-1.5,0.3c-0.3-4.8-0.4-9.6-0.6-14.4c-0.2-4.8-0.4-9.5-0.6-14.3c-0.5-0.3-0.9,0.1-1.2,0.2
		c-7.9,3.2-15.8,6.5-23.8,9.7c-0.9,0.4-1.2,0.8-1.2,1.8c0,10.8,1.2,21.5,3.7,32.1c0.1,0.4,0.1,0.9,0.5,1.3
		c18.6-6.6,37.2-13.3,55.9-19.9c0.4,0.5,0.2,1.1,0.2,1.5c0,11.1,0,22.1,0,33.2c0,1.5,0,1.5-1.5,2c-14.2,5-28.4,10.1-42.6,15.1
		c-1.7,0.6-1.6,0.3-1.1,2.1c2,6.4,4.3,12.7,7.4,18.7c0.9,1.8,2,3.6,3.2,5.2c0.2,0.2,0.3,0.5,0.8,0.6c0.1-1.8,0.2-3.6,0.2-5.4
		c0.1-4.7,0.3-9.4,0.4-14.1c0-0.9,0.3-1.2,1.1-1.5c10.4-3.7,20.7-7.4,31.1-11.1c0.2-0.1,0.5-0.1,0.8-0.2c0,41.4,0,82.7,0,124.1
		c-0.6,0-0.9-0.5-1.3-0.8c-20-15.6-37.1-33.8-51.2-54.9c-16.1-23.9-27.3-49.9-34.5-77.8c-2.8-10.9-4.9-22-6.4-33.1
		c-1.6-12.5-2.4-25.1-2-37.7c0-1.3,0.4-2,1.6-2.5c26.3-12.9,53.7-22.5,82.2-28.9c3.6-0.8,7.3-1.4,10.9-2.1
		C148,110.5,148.2,110.5,148.4,110.5z"/>
	<path class="st2" d="M285.4,153.8c-0.2,0.6-0.1,1.2-0.1,1.8c0,52.1,0,104.3,0,156.4c0,1.2-0.3,2.2-1,3.2
		c-7.5,10.7-16,20.5-26.1,28.8c-1.6,1.3-3.3,2.5-5,3.8c-0.3,0.2-0.6,0.5-1.2,0.6c0-0.5,0-1,0-1.5c0-78.7,0-157.4,0-236.1
		c0-1.8,0-1.8,1.6-1.5c12.9,2.2,25.6,5.3,38.1,9.4c10,3.3,19.8,7.2,28.9,12.6c5.8,3.5,11.2,7.4,15.6,12.7c2.8,3.3,4.7,7,6.2,11.1
		c3.6,9.8,3.9,19.9,3.2,30.1c-0.8,11.8-3.5,23.2-7.1,34.5c-2.5,7.8-5.3,15.6-8,23.4c-1.1,3.2-2.5,6.3-4.4,9.2c-2.6,4-6,6.9-10.6,8.2
		c-3.5,0.9-7,0.9-10.5,0.3c-6-1-11.6-3.2-17-5.8c-0.1-0.1-0.2-0.2-0.4-0.3c0.1-0.2,0.1-0.4,0.2-0.5c7.4-12.9,12.6-26.7,16.6-40.9
		c2.7-9.7,4.7-19.6,6-29.6c0.8-6,1.3-12.1,1.6-18.1c0.1-1.8,0.2-1.5-1.3-2.1c-8-3.1-16-6.1-24-9.2
		C286.4,154,285.9,153.7,285.4,153.8z"/>
	<path class="st0" d="M176.3,50c-0.6,0.7-0.6,1.4-0.7,2.1c-2.5,10.4-4.9,20.8-6.9,31.3c-0.6,2.9-1.1,5.9-1.5,8.9
		c-0.2,1.5,0,1.3-1.5,1.3c-2.1,0-4.3,0-6.4,0c-1.1,0-1.1,0-1.2-1c-0.6-8.2-1.3-16.4-2.2-24.7c-0.5-5.1-1.1-10.1-2-15.1
		c-0.1-0.5-0.1-1-0.6-1.5c-0.2,2.3-0.4,4.4-0.6,6.6c-0.9,11-1.8,21.9-2.1,32.9c0,1.2,0,2.3-0.1,3.5c0,0.4,0,0.7-0.5,0.8
		c-3,0.6-6.1,1.2-9.3,1.6c0.1-2,0.2-3.9,0.3-5.7c0.4-5,0.7-10.1,1.1-15.1c0.6-7.3,1.2-14.5,2.1-21.7c0.1-1,0.3-2,0.4-3
		c0.4-4.5,2.9-7.5,7-9.1c1.6-0.6,3.2-1,4.9-1.1c2.7-0.1,4.3,1.1,5,3.7c0.1,0.5,0.2,1.1,0.2,1.7c0.4,8.7,0.9,17.4,1.3,26.1
		c0.5-0.1,0.4-0.5,0.5-0.8c1.6-8,3.1-16.1,4.6-24.1c0.3-1.4,0.7-2.7,1.4-3.9c2-3.6,5.1-5.1,9.2-4.8c1.8,0.1,3.2,1.1,4.3,2.6
		c1,1.4,1.4,3,1.7,4.7c0.1,0.8,0.1,1.5,0.1,2.3c-0.2,14-0.4,27.9-0.6,41.9c0,0.3,0,0.5,0,0.8c0,0.6-0.2,0.8-0.8,0.8
		c-2.5,0-5,0-7.5,0c-0.6,0-0.8-0.3-0.8-0.8c0-0.3,0-0.6,0-0.9C175.5,76.9,175.9,63.5,176.3,50z"/>
	<path class="st0" d="M345.9,126.9c-0.5,0.2-0.8-0.1-1.1-0.3c-3-1.6-6-3.1-9-4.5c-0.8-0.4-1.1-0.8-1.1-1.7c0-5.9-0.3-11.8-1.3-17.6
		c-0.3-1.7-0.7-3.4-1.1-5.1c-0.2-0.7-0.5-0.9-1.2-0.9c-2,0-4,0-6,0c-1,0-1,0-0.9,1.1c0.3,3.1,0.7,6.3,1,9.4c0.3,3.1,0.5,6.3,0.6,9.5
		c0,0.2,0,0.4-0.1,0.6c-0.5,0.1-0.8-0.2-1.1-0.4c-2.4-1.3-4.9-2.5-7.4-3.5c-0.6-0.3-0.9-0.6-1-1.3c-0.4-3.6-0.9-7.2-1.4-10.7
		c-1.2-8.9-2.5-17.8-4.2-26.7c-0.8-4.3-1.7-8.6-2.5-12.9c-0.3-1.7,0.3-2.4,2-2.1c8.6,1.5,16.3,4.6,22.3,11.3
		c1.6,1.8,2.8,3.9,3.6,6.3c3.4,10.7,6,21.7,7.9,32.8c0.8,5,1.5,10.1,2,15.1C345.8,125.7,345.8,126.3,345.9,126.9z M329.6,86.9
		c-0.5-3.5-0.9-6.8-1.8-10.1c-1-3.9-4.4-6.9-8.4-7.4c-1.7-0.2-2.2,0.3-1.7,2c1.5,4.9,3,9.8,3.9,14.9c0.1,0.5,0.3,0.7,0.8,0.7
		C324.7,86.9,327,86.9,329.6,86.9z"/>
	<path class="st0" d="M274,47.8c1.2-0.2,2.2,0.1,3.2,0.3c4.5,0.7,9,1.8,13.2,3.7c2.8,1.3,5.4,2.9,7.6,5.1c1.9,1.9,3.2,4,3.7,6.7
		c0.6,3.4,1.4,6.7,2,10c0.8,4.3-0.8,7.3-4.8,9.1c-0.3,0.1-0.6,0.1-0.8,0.5c5.1,9.1,9.5,18.6,14,28c-0.4,0.4-0.7,0-1-0.1
		c-2.4-1-4.8-1.9-7.3-2.7c-1-0.3-1.5-0.9-1.9-1.9c-2.6-6.4-5.6-12.6-9.5-18.4c-1-1.4-2-2.8-3.3-4.1c0.5,6.6,0.9,13.1,1.2,19.8
		c-2-0.5-3.9-1.1-5.8-1.5c-1-0.2-2-0.5-3-0.6c-0.7-0.1-0.9-0.4-0.9-1.1c-0.1-4-0.5-8-0.9-12c-0.6-5.8-1.2-11.5-2-17.3
		c-0.8-5.9-1.7-11.8-2.6-17.7C274.6,51.6,274.3,49.7,274,47.8z M284.1,58.4c0.4,2.3,0.8,4.4,1.2,6.5c0.6,3.3,1.1,6.5,1.5,9.8
		c0.1,0.4,0.1,0.8,0.7,0.8c3.1,0.3,6.2-0.5,6.9-4.6c0.6-3.3-0.1-6.4-2.1-9.1C290.2,59.1,287.5,58.2,284.1,58.4z"/>
	<path class="st0" d="M122.2,101.6c-1.3,0.1-2.3,0.1-3.3,0.2c-2.1,0.1-4.2,0.1-6.3,0.2c-0.9,0.1-1.5-0.2-1.9-1
		c-2.4-4.5-4.9-8.9-7.4-13.4c-0.2-0.4-0.5-0.9-0.7-1.3c-0.8,0.3-0.8,0.9-0.9,1.5c-0.5,3.6-1,7.3-1.4,10.9c-0.3,2.5-0.6,5.1-1,7.6
		c-0.1,0.5-0.1,0.9-0.7,1.1c-2.9,1-5.8,2-8.6,2.9c-0.5-0.4-0.3-0.8-0.2-1.2c0.6-5.9,1.4-11.8,2.3-17.7c1.2-8.3,2.7-16.6,4.5-24.8
		c0.7-3.2,1.5-6.3,2.2-9.5c0.2-0.8,0.6-1.2,1.4-1.5c5.4-1.6,10.7-3.3,16-5c3.8-1.2,6,0.4,6,4.4c0,5.3-0.8,10.5-2.7,15.4
		c-1.5,3.9-3.8,7.2-7.4,9.5c-0.6,0.4-0.5,0.7-0.3,1.2c1.4,3.3,2.6,6.6,4.2,9.8c1,2.2,2.4,4.2,3.7,6.3
		C120.5,98.6,121.3,100,122.2,101.6z M102.2,79c4-0.9,6.8-3,8.5-6.4c1.9-3.5,2.4-7.3,2.3-11.2c0-1.4-0.7-2-2.1-2.1
		c-1.5-0.1-2.9,0.5-4.3,0.9c-0.8,0.3-1.3,0.7-1.5,1.5c-0.3,1.4-0.6,2.8-0.8,4.2C103.6,70.2,102.9,74.4,102.2,79z"/>
	<path class="st0" d="M207,67.8c-2.5,1.2-4.8,2.3-7.1,3.3c-0.4,0.2-0.5,0.4-0.5,0.8c0,0.4,0,0.7,0,1.1c0,5.6,0,11.2,0,16.8
		c0,1.4,0.1,1.3-1.3,1.3c-2.1,0-4.3,0-6.4,0c-1.3,0-1.4,0.2-1.3-1.3c0.2-10.5,0.3-21,0.4-31.5c0.1-4.4,0.1-8.9,0.1-13.3
		c0-2.9,1.4-4.8,4-6c2.1-1,4.3-1.2,6.6-1c2.7,0.2,5.5,0.4,8.2,0.7c1.9,0.2,3.2,1.4,4.1,3.1c0.9,1.8,1.2,3.8,1.3,5.8
		c0.1,5.6,0.2,11.2,0.2,16.8c0.1,8.2,0.2,16.4,0.3,24.6c0,0.4,0,0.8,0,1.2c0,0.6-0.2,0.8-0.8,0.8c-2.4,0-4.8,0-7.2,0
		c-0.4,0-0.7-0.2-0.6-0.6c0-0.4,0-0.7,0-1.1c0-6.6,0.1-13.1,0.1-19.7C207,69.2,207,68.7,207,67.8z M199.4,62.8
		c2.5-1,4.8-1.9,7.2-2.8c0.6-0.2,0.6-0.6,0.6-1.1c0-3.8,0-7.5,0-11.3c0-0.6-0.2-0.9-0.9-0.9c-2,0-4,0-6,0c-0.7,0-1,0.2-1,0.9
		C199.4,52.6,199.4,57.6,199.4,62.8z"/>
	<path class="st0" d="M54.4,126.1c0-1.5,0.4-2.9,0.6-4.3c2.2-12.4,4.6-24.8,7.6-37.1c1.1-4.5,2.3-9,3.7-13.4c0.3-1,0.8-1.7,1.6-2.4
		c2-1.8,4.3-3.1,6.9-3.8c4.2-1.2,8.5-2.6,12.7-3.9c2.9-0.9,4.2,0.1,4.3,3.2c0.1,2.4-0.5,4.7-1,6.9c-1.2,5.6-2.9,11.1-5.5,16.3
		c-2,4-4.6,7.7-8.1,10.6c-0.8,0.6-1.5,0.9-2.5,0.9c-1.9,0-3.8-0.1-5.7-0.9c0.1-0.6,0.6-0.9,1-1.2c5.5-5.8,9.7-12.4,11.8-20.2
		c0.5-1.7,0.6-3.5,1.2-5.2c0.3-1-0.2-1.7-1.2-1.9c-1.7-0.3-3.4,0.2-4.9,0.7c-1.1,0.4-1.6,1.5-2.1,2.5c-1.8,3.5-2.8,7.2-3.8,10.9
		c-1.5,6.1-2.7,12.2-3.6,18.4c-0.6,4.2-0.9,8.4-1.4,12.6c-0.2,1.6-0.4,3.2-0.5,4.9c-0.1,0.6-0.3,0.9-0.8,1.2
		c-3.2,1.6-6.4,3.3-9.6,4.9C54.9,126,54.6,126,54.4,126.1z"/>
	<path class="st0" d="M237,40.2c1.9,0.4,3.7,0.8,5.5,1.2c0.8,0.2,1.8,0.1,2.3,0.7c0.5,0.6,0.1,1.6,0.1,2.4
		c-0.7,8.6-1.3,17.2-2.3,25.7c-0.8,6.8-1.6,13.6-2.8,20.4c-0.1,0.3-0.1,0.6-0.2,0.9c-0.1,0.5-0.3,0.7-0.8,0.7c-3.2,0-6.3,0-9.5,0
		c-0.7,0-0.8-0.4-0.9-1c-1.1-5.2-2.2-10.5-3.3-15.7c-2.5-12-5-24-7.8-35.9c0-0.2-0.1-0.4-0.1-0.7c2.6,0,5.2,0,7.8,0
		c0.7,0,0.7,0.5,0.8,0.9c0.6,2.8,1.2,5.6,1.7,8.4c1.8,8.6,3.6,17.2,5.6,25.8c0.1-0.2-0.1,0,0.1,0c0,0,0.1,0,0.1-0.1
		c0.1-0.1,0.1-0.2,0.1-0.3c0.6-4.9,1.3-9.9,1.9-14.8C236.1,52.7,236.8,46.6,237,40.2z"/>
	<path class="st0" d="M275.5,100c-1,0-1.8-0.4-2.6-0.6c-6.5-1.7-13.1-2.9-19.8-3.9c-1.3-0.2-1.2-0.4-1.2-1.4c0-7.9-0.4-15.8-1-23.7
		c-0.7-8.8-1.6-17.6-2.9-26.4c-0.1-0.3-0.1-0.7-0.1-1.1c1.6,0,3.2-0.1,4.7,0c5.8,0.5,11.3,1.9,16.7,4.1c0.8,0.3,1.1,0.7,1.1,1.6
		c-0.1,1.7,0,3.4,0,5.2c-0.8,0.1-1.3-0.3-1.7-0.5c-3.3-1.4-6.6-2.3-10.2-2.6c-1.1-0.1-1.1,0-1,0.9c0.5,4.9,1.1,9.7,1.6,14.8
		c4.4-1.4,8.8-2.8,13.1-4.1c0.3,0.5,0.2,1,0.2,1.4c0,2.1,0,4.3,0,6.4c0,1.5,0,1.5-1.4,1.9c-3,0.8-6.1,1.6-9.1,2.5
		c-1.3,0.3-1.3,0.3-1.3,1.6c0,3.9,0,7.7-0.1,11.6c0,0.8,0.1,1.1,1,1.3c4.2,0.8,8.4,1.9,12.6,3c1.4,0.4,1.4,0.4,1.4,1.9
		C275.5,95.8,275.5,97.9,275.5,100z"/>
	<path class="st0" d="M139.8,44.9c-0.4,2.2-0.7,4.2-1.1,6.2c-1.1,6.4-1.8,12.8-2.4,19.2c-0.8,9-1.4,18-1.6,27c0,0.7-0.1,1.1-1,1.2
		c-2.9,0.4-5.7,0.9-8.5,1.3c-0.3-0.6-0.2-1.1-0.2-1.6c0.1-4.9,0.5-9.8,1-14.6c0.6-5.6,1.2-11.1,2-16.7c0.9-6.6,1.9-13.1,2.8-19.6
		c0.1-0.6,0.3-1,1-1.1C134.4,45.8,137,45.4,139.8,44.9z"/>
	<path class="st1" d="M202.9,292.5c-1-1.1-2.3-1.8-3.1-3.2c2-1.1,4.1-1.6,6.2-2.1c0.1,0,0.3,0,0.5-0.1c2-0.8,3.4,0.1,4.7,1.5
		c2.5,2.9,3.3,6.3,3.3,10.1c0,0.4-0.2,0.6-0.6,0.7c-1.1,0.3-2.1,0.7-3.1,1.2c-4.2,1.9-7.4,4.9-9.3,9.1c-0.3,0.6-0.7,1.1-1.2,1.5
		c-3.3,2.8-5.4,6.2-6,10.5c-0.2,1.1-0.2,1.1-1.4,1.2c-2.2,0-4.2-0.5-6.1-1.7c-1.9-1.2-3.4-2.7-4.7-4.6c-0.3-0.4-0.5-0.8-0.4-1.4
		c0.4-2,0.9-3.9,1.7-5.9c1.2,0.6,2,1.5,2.9,2.4C190.2,303.9,194.6,296.5,202.9,292.5z"/>
	<path class="st1" d="M222.9,307.4c0,0-0.1,0.1-0.1,0.1c0.7,1,0.3,2.1,0.1,3.2c-0.8,3.5-2.3,6.6-4.6,9.3c-0.8,0.9-0.8,0.9-1.9,0.3
		c-2.1-1.1-4.1-2.3-6-3.6c-2.5-1.7-5-3.5-7.5-5.2c-1.3-0.9-1.3-0.9-0.5-2.4c1.6-2.9,3.8-5.1,6.6-6.8c1.4-0.9,3-1.5,4.6-2
		c0.8-0.3,1.3-0.2,1.9,0.4c2.3,2.1,4.5,4.1,6.6,6.4C222.2,307.2,222.4,307.7,222.9,307.4C222.9,307.4,222.9,307.4,222.9,307.4z"/>
	<path class="st1" d="M216.9,321.3c-2.7,2.7-5.7,4.4-9,5.6c-0.1,0-0.3,0.1-0.4,0.1c-3.8,1.1-3.8,1.1-7.1-0.8c-1.7-1-3.3-2-5-2.9
		c-0.6-0.3-0.8-0.7-0.7-1.4c0.6-4.2,2.7-7.6,5.9-10.4c0.5-0.4,0.8-0.3,1.3,0c1.8,1.3,3.5,2.6,5.3,3.8
		C210.3,317.5,213.4,319.6,216.9,321.3z"/>
	<path class="st1" d="M208.6,285c1.4,0.2,2.6,1,3.7,1.7c7.1,4.3,10.7,10.7,11.1,19c0,0.6,0.1,1.3-0.5,1.8c0,0,0,0,0,0
		c0.2-0.6-0.4-0.9-0.7-1.2c-1.9-2-3.8-3.9-5.9-5.7c-0.9-0.7-1.3-1.5-1.3-2.7c0.1-2.1-0.4-4.2-1.3-6.2c-0.9-2.1-2.2-3.8-4.1-5
		c-0.6-0.4-1-0.8-1.3-1.4C208.4,285.1,208.5,285,208.6,285z"/>
	<path class="st1" d="M183.9,305.3c-0.6-0.4-1.2-0.8-1.8-1.2c-0.4-0.3-0.6-0.2-0.9,0.2c-0.3,0.4-0.2,0.6,0.2,0.9
		c0.3,0.2,0.7,0.5,1,0.7c1.1,0.7,1.1,0.7,0.5,2.1c-1-0.6-1.9-1.3-2.9-1.9c-0.6-0.4-0.3-0.9-0.1-1.4c1.3-4.7,3.6-8.8,7.2-12.2
		c2.7-2.4,5.7-4.3,9.1-5.5c0.7-0.3,1.1-0.2,1.4,0.5c0.2,0.5,0.6,0.9,0.9,1.3c0,0.4-0.2,0.4-0.4,0.5c-1.1,0.7-1.2,0.7-2.1-0.3
		c-0.4-0.4-0.7-0.6-1.1-0.1c-0.2,0.3-0.3,0.5,0,0.8c0.3,0.3,0.5,0.6,0.9,1c-0.8,0.7-1.6,1.3-2.4,1.9c-0.3,0.3-0.5,0.1-0.8-0.1
		c-0.4-0.4-0.7-0.8-1.3-1.1c-0.8,0.8-0.8,0.8-0.2,1.5c0.9,0.9,0.8,0.9,0,1.9c-0.3,0.4-0.7,0.7-1,1.1c-0.7-0.2-1-0.8-1.6-1.1
		c-0.8,0.8-0.8,0.8-0.2,1.4c0.2,0.2,0.6,0.4,0.7,0.9c-0.4,0.5-0.8,1.1-1.2,1.6c-0.7-0.1-0.9-0.9-1.5-0.9c-0.3,0-0.5,0.4-0.7,0.7
		c1.4,1.6,1.4,1.6,0,3.5c-0.5-0.1-0.8-0.4-1.1-0.7c-0.4-0.3-0.6-0.2-0.9,0.1c-0.3,0.3-0.2,0.6,0.1,0.9c0.4,0.3,1.2,0.6,1.2,1.1
		C184.8,304.2,184.4,304.8,183.9,305.3z"/>
	<path class="st1" d="M170.8,339.9c0,1.3,0,2.5,0,3.8c0,1.4,0,2.7,0,4.1c0,0.8-0.4,0.8-1,0.8c-0.6,0-1-0.1-1-0.8c0-2.3,0-4.7,0-7
		c0-2.2,0-4.4,0-6.6c0-0.4-0.1-0.9,0.5-0.9c0.6,0,1.4-0.4,1.7,0.5c0.4,1.1,0.7,2.1,1,3.2c0.4,1.3,0.8,2.6,1.3,3.8c0.1,0,0.2,0,0.3,0
		c0-1.7,0-3.4,0-5.1c0-0.4,0-0.8,0-1.2c0-1.3,0.2-1.4,1.5-1.3c0.4,0,0.6,0.2,0.5,0.6c0,0.3,0,0.5,0,0.8c0,4.2,0,8.4,0,12.7
		c0,0.5,0.4,1.2-0.5,1.3c-1.3,0.2-1.6,0-1.9-1.1c-0.7-2.5-1.5-5.1-2.2-7.6C171,340,170.9,340,170.8,339.9z"/>
	<path class="st1" d="M229.7,346.9c-0.8,1.4-1.9,1.9-3.5,1.8c-1-0.1-1.9-0.1-2.9,0c-0.8,0-1.1-0.2-1.1-1c0.1-1.8,0-3.6,0-5.3
		c0-2.7,0-5.4,0-8.1c0-1.1,0-1.1,1.2-1.1c1.2,0,2.4,0,3.7,0c1.3,0,2,0.7,2.2,2c0.2,1.7,0.3,3.4,0,5c-0.2,0.9,0.1,1.5,0.5,2.2
		C229.7,343.9,229.7,345.4,229.7,346.9z M224.3,337.6C224.3,337.6,224.3,337.6,224.3,337.6c0,0.6,0,1.2,0,1.8c0,0.3,0,0.6,0.3,0.6
		c0.8,0.1,1.6,0.1,2.4,0c0.4-0.1,0.4-0.4,0.4-0.7c0-1,0-2,0-3c0-0.7-0.4-1.1-1.2-1.1c-0.3,0-0.5,0-0.8,0c-1.2,0-1.2,0-1.2,1.1
		C224.3,336.7,224.3,337.2,224.3,337.6z M224.3,344.2c0,2.6,0,2.6,2.4,2.4c0.7,0,1-0.2,1-1c0-0.8,0-1.5,0-2.3c0-1.1-0.2-1.2-1.3-1.2
		C224.3,342.1,224.3,342.1,224.3,344.2z"/>
	<path class="st1" d="M204.5,348.1c-1.9,0.2-1.9,0.2-1.9-1.6c0-1.2,0-2.4,0-3.7c0-0.5-0.2-0.7-0.7-0.7c-2-0.2-2-0.2-2,1.8
		c0,1.1,0,2.2,0,3.4c0,0.8-0.4,0.9-1,0.9c-0.6,0-1.1,0-1-0.9c0-3.9,0-7.8,0-11.8c0-0.6,0.2-1,0.6-1.3c1.2-1.2,3.4-1.6,4.8-0.8
		c0.8,0.4,1.4,1,1.4,2c0,4.1,0,8.2,0,12.4C204.6,348,204.5,348.1,204.5,348.1z M202.6,337.9c0-0.5,0-1,0-1.5c-0.1-1-0.3-1.2-1.2-1.2
		c-1,0-1.5,0.3-1.6,1.2c-0.1,1.1,0,2.1,0,3.2c0,0.4,0.2,0.5,0.5,0.6c2,0.3,2.2,0.1,2.2-1.9C202.6,338.1,202.6,338,202.6,337.9z"/>
	<path class="st1" d="M183.8,341.2c0,1.6,0,3.3,0,4.9c0,2.3-0.9,3.2-3.3,3.2c-0.8,0-1.6,0-2.4,0c-1.1,0-1.1,0-1.1-1.1
		c0-4.1,0-8.1,0-12.2c0-0.7,0-1.4,0-2.1c0-0.5,0.2-0.7,0.7-0.7c1.2,0,2.3,0,3.5,0c1.6,0,2.5,0.8,2.5,2.4
		C183.8,337.4,183.8,339.3,183.8,341.2C183.8,341.2,183.8,341.2,183.8,341.2z M179.1,341.1c0,1.7,0,3.5,0,5.2c0,0.3-0.1,0.7,0.2,0.8
		c0.7,0.1,1.5,0.2,2.1-0.1c0.5-0.3,0.4-0.9,0.4-1.4c0-3.1,0-6.1,0-9.2c0-1.4,0-1.4-1.4-1.4c-0.2,0-0.4,0-0.6,0
		c-0.6-0.1-0.8,0.2-0.8,0.8C179.1,337.7,179.1,339.4,179.1,341.1z"/>
	<path class="st1" d="M192.6,341.6c0,1.9,0,3.8,0,5.6c0,0.9-0.1,1-1.1,1c-0.7,0-1-0.1-1-0.9c0.1-1.4,0-2.9,0-4.3
		c0-0.7-0.2-0.8-0.9-0.9c-1.9,0-1.9-0.1-1.9,1.8c0,1.2,0,2.3,0,3.5c0,0.8-0.5,0.7-1,0.7c-0.5,0-1.1,0.1-1-0.7c0-0.9,0-1.7,0-2.6
		c0-3,0-5.9,0-8.9c0-1.1,0.4-1.7,1.3-2.3c1.1-0.7,2.3-0.9,3.5-0.6c1.4,0.3,2.1,1.2,2.1,2.7C192.6,337.8,192.6,339.7,192.6,341.6z
		 M190.5,337.9c0-0.5,0-1,0-1.5c0-1-0.2-1.2-1.1-1.2c-1.1,0-1.6,0.3-1.6,1.2c0,1.1,0,2.1,0,3.2c0,0.4,0.2,0.5,0.5,0.6
		c1.9,0.3,2.2,0.1,2.2-1.8C190.5,338.2,190.5,338,190.5,337.9z"/>
	<path class="st1" d="M186.1,310.5c-0.7-0.3-1.1-0.8-1.6-1.2c-1-0.8-1-0.8-0.3-2.1c0.5,0,0.8,0.4,1.2,0.6c0.3,0.2,0.5,0.2,0.8-0.1
		c0.2-0.3,0.4-0.6,0-0.9c0,0-0.1,0-0.1-0.1c-0.4-0.4-1.2-0.5-1.2-1.1c0-0.6,0.4-1.1,0.8-1.6c0.5,0.1,0.9,0.5,1.3,0.8
		c0.4,0.3,0.7,0.3,1-0.1c0.3-0.4,0.2-0.6-0.2-0.9c-0.4-0.3-0.9-0.7-1.3-1.1c-0.1,0-0.1-0.2-0.1-0.3c0.3-0.6,0.6-1.3,1.2-1.9
		c0.5,0.2,0.9,0.7,1.3,1c0.3,0.3,0.6,0.3,0.9,0c0.3-0.3,0.4-0.6,0-0.9c0,0-0.1-0.1-0.1-0.1c-1.3-1.4-1.3-1.4,0.1-3
		c0.4,0.3,0.8,0.7,1.2,1c0.4,0.3,0.6,0.2,0.9-0.1c0.3-0.3,0.3-0.6-0.1-0.9c-0.4-0.3-0.7-0.7-1.2-1.1c0.6-0.8,1.2-1.5,2.3-2.3
		c0.4,0.5,0.7,1,1.1,1.5c0.3,0.3,0.5,0.2,0.8-0.1c0.2-0.2,0.4-0.5,0.1-0.8c-0.4-0.4-0.8-0.9-1.3-1.3c0.6-0.8,1.4-1.2,2.1-1.8
		c0.5-0.4,0.9-0.3,1.3,0.2c0.3,0.3,0.6,0.6,0.8,0.9c0.3,0.3,0.5,0.2,0.8,0c0.3-0.3,0.5-0.5,0.2-0.9c-0.4-0.4-0.8-0.7-1.1-1.3
		c0.2-0.4,0.6-0.5,0.9-0.7c0.4-0.3,0.7-0.2,1,0.2c0.7,0.8,1.4,1.5,2.1,2.3c-3.7,1.9-6.6,4.7-9.1,7.9
		C189.9,303.4,187.9,306.9,186.1,310.5z"/>
	<path class="st1" d="M213.4,340.7c0-1.8,0-3.6,0-5.3c0-0.3,0-0.6,0-0.9c0-0.6,0.3-1.1,1-1.1c0.7,0,1,0.4,1,1.1c0,0.4,0,0.7,0,1.1
		c0,3.3,0,6.5,0,9.8c0,0.6-0.1,1.3,0.6,1.6c0.7,0.3,1.5,0.3,2.2,0c0.5-0.2,0.3-0.7,0.3-1.1c0-3.4,0-6.8,0-10.2c0-0.4,0-0.8,0.1-1.2
		c0.1-0.5,0.5-0.8,1-0.8c0.5,0,0.9,0.3,1,0.8c0.1,0.3,0,0.7,0,1.1c0,3.5,0,7,0,10.5c0,2.1-0.8,3-2.9,3c-0.9,0-1.8,0.1-2.7-0.2
		c-1.3-0.4-1.6-0.9-1.6-2.2C213.4,344.6,213.4,342.7,213.4,340.7z"/>
	<path class="st1" d="M229.7,342.4c0.3-2.1,0.1-4.2,0.1-6.2c0-1.7,0.8-2.7,2.5-3.1c0.8-0.2,1.5-0.2,2.3,0c1.3,0.3,2,1.2,2,2.5
		c0,3.8,0,7.6,0,11.4c0,1.1,0,1.1-1,1.1c-1,0-1,0-1.1-1.1c0-1.3,0-2.6,0-4c0-0.7-0.2-1.1-1-1c0,0-0.1,0-0.2,0c-1.7,0-1.7,0-1.7,1.6
		c0,1.2,0,2.3,0,3.5c0,0.4,0.1,0.9-0.5,0.9c-0.6,0-1.4,0.5-1.6-0.6C229.8,345.7,229.8,344,229.7,342.4z M234.7,337.8
		c0-0.5,0-0.9,0-1.4c-0.1-1.1-0.4-1.5-1.3-1.5c-0.9,0-1.4,0.5-1.5,1.6c0,0.7,0,1.3,0,2c0,1.5,0,1.5,1.5,1.5c1.3,0,1.3,0,1.3-1.4
		C234.7,338.3,234.7,338.1,234.7,337.8z"/>
	<path class="st1" d="M194.9,363.3c0.8,0,1.8-0.5,2.2,0.8c0.1,0.3,0.6,0.4,0.9,0.3c0.3-0.1,0.4-0.5,0.4-0.8c0-0.2,0-0.4,0-0.6
		c0-1.3,0-1.3-1.3-1.5c-1.6-0.2-2.3-0.8-2.3-2.4c0-1.2,0-2.3,0-3.5c0-1,0.4-1.9,1.5-2.3c1.1-0.4,2.3-0.5,3.3,0.3
		c0.6,0.4,0.8,1.1,0.8,1.9c0,2.7,0.1,5.4,0,8.1c-0.1,2.2-1.5,3.3-3.5,2.8C195.6,366,195,365.1,194.9,363.3z M198.4,357.3
		c0-0.5,0-0.9,0-1.4c0-0.4-0.1-0.8-0.6-0.8c-0.5,0-0.9,0.1-0.9,0.7c0,1,0,2,0,3c0,0.5,0.2,0.7,0.7,0.7c0.6,0,0.8-0.2,0.8-0.8
		C198.4,358.3,198.4,357.8,198.4,357.3z"/>
	<path class="st1" d="M179.2,304c0.4-8.7,7.2-17.6,16.9-19.7c0.1,0.1,0.2,0.1,0.2,0.2c0.4,1.8,0.4,1.7-1.2,2.4
		c-7.4,3-12.6,8.2-15.3,15.8c-0.1,0.4-0.3,0.8-0.4,1.2C179.4,303.8,179.3,303.9,179.2,304z"/>
	<path class="st1" d="M201.8,363.8c0-0.6,0-1.1,0-1.5c0-0.9,0.2-1.6,1-2.1c0.3-0.2,0.4-0.4,0.7-0.6c1.5-0.9,1.4-2.3,1.3-3.8
		c0-0.4-0.2-0.7-0.7-0.7c-0.4,0-0.7,0.2-0.7,0.6c0,0.5,0.1,1-0.7,1c-1.2,0-1.3,0-1.3-1.3c0-1.4,0.9-2.3,2.4-2.4
		c1.4-0.1,2.6,0.6,2.8,1.9c0.2,1.1,0.2,2.2,0,3.3c-0.2,1.2-1.1,2.1-2,2.8c-0.7,0.5-1,1.2-0.9,2.1c0,0.7,0.3,0.9,0.9,0.9
		c1,0,1.3,0.5,1.1,1.5c-0.1,0.3-0.2,0.4-0.5,0.4c-0.4,0-0.7,0-1.1,0c-0.8,0-1.7,0.3-2.2-0.1C201.4,365.4,201.9,364.4,201.8,363.8z"
		/>
	<path class="st1" d="M208.1,341.7c0-1.8,0-3.7,0-5.5c0-0.8-0.2-1.1-1-1.1c-0.3,0-0.8,0.2-0.9-0.2c-0.2-0.5-0.1-1,0-1.5
		c0.1-0.3,0.4-0.3,0.6-0.3c1.4,0,2.7,0,4.1,0c0.5,0,0.8,0.3,0.7,0.7c-0.1,0.5,0.4,1.3-0.5,1.3c-0.9,0-0.9,0.5-0.9,1.1
		c0,3.6,0,7.2,0,10.8c0,1.2,0,1.1-1,1.2c-0.7,0-1-0.2-1-0.9C208.1,345.5,208.1,343.6,208.1,341.7z"/>
	<path class="st1" d="M208,286.2c-2.9,0.5-5.6,1.2-8.1,2.4c-0.3,0.2-0.7,0.3-0.9-0.1c-0.8-1.1-1.6-2.2-1.8-3.6
		c-0.1-0.6,0.1-0.9,0.8-1c2.4-0.4,4.8-0.3,7.2,0.1C206.7,284.2,206.9,284.4,208,286.2z"/>
	<path class="st1" d="M166.9,341.3c0,2.1,0,4.3,0,6.4c0,0.7-0.1,1-0.9,1c-1,0-1.1,0-1.1-0.9c0-4.4,0-8.7,0-13.1
		c0-0.9,0.1-0.9,1.1-0.9c0.8,0,0.9,0.3,0.9,1C166.9,336.9,166.9,339.1,166.9,341.3z"/>
	<path class="st1" d="M208,355.4c-0.2-1.9-0.2-1.9,1.5-1.9c1,0,1.9,0,3,0c0,1.1-0.4,2.1-0.6,3.1c-0.5,2.7-1.1,5.5-1.6,8.2
		c-0.1,0.6-0.1,1.2-1,1.2c-1-0.1-1.1-0.1-1-1.1c0.5-2.6,1-5.2,1.5-7.8c0.3-1.5,0.3-1.5-1.2-1.6C208.4,355.4,208.2,355.4,208,355.4z"
		/>
	<path class="st1" d="M196,341c0,2.1,0,4.2,0,6.3c0,0.7-0.2,1-1,1c-1,0-1.1,0-1.1-1c0-4.2,0-8.4,0-12.7c0-0.8,0.4-0.9,1-0.9
		c0.6,0,1.1,0,1,0.9C195.9,336.7,196,338.9,196,341z"/>
	<path class="st1" d="M186.5,322.1c1.6,0.6,3,1.2,4.7,1.3c0.5,0,1,0.2,1.5,0.1c1.2-0.3,2.1,0.2,3,0.7c1.6,1,3.3,2,5,2.9
		c0.3,0.2,0.6,0.3,0.8,0.6C195.7,328,190.7,326,186.5,322.1z"/>
	<path class="st1" d="M191.9,356.4c-0.4,0.2-0.7,0.3-1,0.4c-0.4-0.4-0.2-0.9-0.2-1.3c0.1-0.5,1.7-1.6,2.2-1.7c0.5,0,0.8,0.1,0.8,0.7
		c0,3.6,0,7.1,0,10.7c0,0.6-0.2,0.8-0.8,0.8c-0.7,0-0.9-0.3-0.9-0.9c0-2.5,0.1-5,0.1-7.5C192.1,357.3,192.2,356.8,191.9,356.4z"/>
	<path class="st1" d="M180.9,314.6c-1.1-2.8-1.8-5.3-1.8-8.2c1.2,0.8,2.1,1.4,3.1,2c0.3,0.2,0.4,0.5,0.3,0.9
		C182,311,181.5,312.7,180.9,314.6z"/>
	<path class="st3" d="M229.7,342.4c0,1.7,0.1,3.3,0.1,5c-0.2-0.1-0.1-0.3-0.1-0.5C229.7,345.4,229.7,343.9,229.7,342.4
		C229.8,342.4,229.7,342.4,229.7,342.4z"/>
	<path class="st1" d="M208.3,285.2c-0.1-0.1-0.2-0.2-0.1-0.3c0.1-0.1,0.3,0,0.4,0.1C208.5,285,208.4,285.1,208.3,285.2z"/>
	<path class="st1" d="M329.6,86.9c-2.5,0-4.9,0-7.2,0c-0.5,0-0.7-0.2-0.8-0.7c-0.9-5.1-2.4-10-3.9-14.9c-0.5-1.6,0-2.2,1.7-2
		c4,0.5,7.4,3.5,8.4,7.4C328.7,80,329.1,83.4,329.6,86.9z"/>
	<path class="st1" d="M284.1,58.4c3.4-0.3,6.2,0.7,8.2,3.4c2,2.7,2.7,5.8,2.1,9.1c-0.7,4.1-3.8,4.9-6.9,4.6
		c-0.5-0.1-0.6-0.4-0.7-0.8c-0.4-3.3-0.9-6.6-1.5-9.8C284.9,62.8,284.5,60.7,284.1,58.4z"/>
	<path class="st1" d="M102.2,79c0.8-4.5,1.5-8.8,2.2-13c0.2-1.4,0.5-2.8,0.8-4.2c0.2-0.8,0.6-1.3,1.5-1.5c1.4-0.4,2.8-1,4.3-0.9
		c1.4,0.1,2,0.6,2.1,2.1c0.1,3.9-0.4,7.7-2.3,11.2C108.9,76,106.1,78.1,102.2,79z"/>
	<path class="st1" d="M199.4,62.8c0-5.2,0-10.1,0-15.1c0-0.8,0.3-1,1-0.9c2,0,4,0,6,0c0.7,0,0.9,0.2,0.9,0.9c0,3.8,0,7.5,0,11.3
		c0,0.5-0.1,0.9-0.6,1.1C204.2,60.9,201.9,61.8,199.4,62.8z"/>
	<path class="st0" d="M224.3,337.6c0-0.5,0-0.9,0-1.4c0-1.1,0-1.1,1.2-1.1c0.3,0,0.5,0,0.8,0c0.7,0,1.1,0.4,1.2,1.1c0,1,0,2,0,3
		c0,0.3,0,0.7-0.4,0.7c-0.8,0.2-1.6,0.1-2.4,0c-0.3,0-0.3-0.4-0.3-0.6C224.3,338.8,224.3,338.2,224.3,337.6
		C224.3,337.6,224.3,337.6,224.3,337.6z"/>
	<path class="st0" d="M224.3,344.2c0-2.1,0-2.1,2.1-2c1.1,0.1,1.2,0.2,1.3,1.2c0,0.8,0,1.5,0,2.3c0,0.7-0.3,0.9-1,1
		C224.3,346.8,224.3,346.8,224.3,344.2z"/>
	<path class="st0" d="M202.6,337.9c0,0.1,0,0.2,0,0.3c0,2-0.3,2.2-2.2,1.9c-0.4-0.1-0.5-0.2-0.5-0.6c0-1.1,0-2.1,0-3.2
		c0-0.9,0.5-1.2,1.6-1.2c0.9,0,1.1,0.2,1.2,1.2C202.6,336.9,202.6,337.4,202.6,337.9z"/>
	<path class="st0" d="M179.1,341.1c0-1.7,0-3.5,0-5.2c0-0.6,0.2-0.9,0.8-0.8c0.2,0,0.4,0,0.6,0c1.3,0,1.3,0,1.4,1.4
		c0,3.1,0,6.1,0,9.2c0,0.5,0.2,1.1-0.4,1.4c-0.7,0.3-1.4,0.2-2.1,0.1c-0.3-0.1-0.2-0.5-0.2-0.8C179.1,344.6,179.1,342.9,179.1,341.1
		z"/>
	<path class="st0" d="M190.5,337.9c0,0.2,0,0.3,0,0.5c0,1.9-0.3,2.1-2.2,1.8c-0.4-0.1-0.5-0.2-0.5-0.6c0-1.1,0-2.1,0-3.2
		c0-0.9,0.5-1.2,1.6-1.2c0.9,0,1.1,0.2,1.1,1.2C190.5,336.8,190.5,337.4,190.5,337.9z"/>
	<path class="st0" d="M234.7,337.8c0,0.3,0,0.5,0,0.8c0,1.4,0,1.4-1.3,1.4c-1.5,0-1.5,0-1.5-1.5c0-0.7,0-1.3,0-2
		c0.1-1,0.6-1.6,1.5-1.6c0.8,0,1.2,0.5,1.3,1.5C234.7,336.9,234.7,337.4,234.7,337.8z"/>
	<path class="st0" d="M198.4,357.3c0,0.5,0,1,0,1.5c0,0.6-0.2,0.8-0.8,0.8c-0.5,0-0.8-0.2-0.7-0.7c0-1,0-2,0-3
		c0-0.6,0.4-0.7,0.9-0.7c0.6,0,0.6,0.4,0.6,0.8C198.4,356.4,198.4,356.8,198.4,357.3z"/>
</g>
</svg>
