<?xml version="1.0" encoding="UTF-8"?>
<svg id="Layer_1" xmlns="http://www.w3.org/2000/svg" viewBox="0 0 784.18 976.27">
  <defs>
    <style>
      .cls-1 {
        fill: #fcfcfc;
      }

      .cls-2 {
        fill: #020202;
      }

      .cls-3 {
        fill: #e2201c;
      }

      .cls-4 {
        fill: #fefefe;
      }

      .cls-5 {
        fill: #fdfdfd;
      }
    </style>
  </defs>
  <path class="cls-2" d="M391.61,976.27c-23.72-10.54-47.53-20.81-69.61-34.72-66.97-42.19-119.21-98.48-159.11-166.45-46.08-78.51-71.49-163.97-84.29-253.64-4.92-34.43-6.61-69.07-9.09-103.69C62.93,326.09,44.93,237.2,1.57,155c-2.84-5.38-1.67-8.16,2.27-12.02C51.38,96.53,98.8,49.94,146.08,3.22c3.63-3.59,6.36-4.17,10.8-1.77,58.52,31.6,122.7,37.88,187.41,41.69,42.51,2.5,85,1.61,127.38-2.11,53.18-4.66,105.71-12.45,153.5-38.62,5.85-3.2,9.56-2.63,14.48,2.25,46.76,46.4,93.78,92.54,140.9,138.57,4.11,4.02,4.68,6.95,1.94,12.12-34.35,64.76-52.33,134.46-62.21,206.66-4.71,34.43-5.76,69.11-8.61,103.67-10.48,126.93-42.77,246.66-118.09,351.74-42.33,59.05-95.18,106.44-159.82,140.11-13.14,6.84-26.89,12.52-40.35,18.74h-1.8Z"/>
  <path class="cls-4" d="M392.83,953.99c-3.05-1.2-6.69-2.51-10.25-4.04-59.77-25.71-109.47-64.95-151.35-114.24-67.52-79.46-104.84-172.86-125.04-274.03-9.94-49.79-13.34-100.25-16.81-150.79-5.4-78.76-20.46-155.53-51.76-228.5-3.66-8.52-7.76-16.88-12.09-25.08-2.04-3.86-1.55-6.1,1.59-9.17,41.56-40.6,82.97-81.35,124.36-122.13,2.79-2.75,4.99-4.24,9.19-2.06,41.99,21.78,87.69,29.96,134,34.45,80.17,7.78,160.28,7.47,239.97-6,30.82-5.21,60.93-12.96,88.84-27.54,5.15-2.69,8.21-1.95,12.28,2.09,40.21,39.85,80.58,79.54,121.11,119.05,4.53,4.42,5.61,7.7,2.59,13.71-36.26,71.97-53.01,149.27-60.8,228.79-5.19,53.03-6.28,106.42-15.98,159.05-16.42,89.09-45.39,173.18-97.2,248.24-46.17,66.9-104.58,119.72-179.44,153.09-3.55,1.58-7.18,3-10.79,4.48-.54.22-1.14.31-2.43.64Z"/>
  <path class="cls-3" d="M338.95,196.47c10.51-18.17,20.94-36.26,31.43-54.31,9.33-16.05,19.29-31.77,27.87-48.21,4.12-7.89,9.21-9.96,17.56-10.07,45.87-.61,91.52-4.05,136.54-13.4,23.48-4.88,46.69-10.81,68.54-20.99,3.95-1.84,6.48-1.28,9.46,1.66,32.82,32.4,65.67,64.77,98.7,96.95,3.89,3.79,3.4,6.5.94,10.73-33.16,56.93-66.15,113.95-99.18,170.95-5.22,9.01-10.46,18.02-15.8,27.2-50.49-124.9-141.5-178.61-276.05-160.5Z"/>
  <path class="cls-3" d="M169.2,489.26c50.54,124.78,141.6,178.86,276.15,160.27-3.51,6.16-7.23,12.76-11.03,19.33-39.61,68.42-79.31,136.78-118.73,205.31-3.87,6.72-6.1,8.19-12.9,2.57-60.94-50.31-104.44-113.23-135.3-185.42-16.66-38.95-28.79-79.33-37.88-120.69-1.58-7.18-1.06-13,2.87-19.44,11.71-19.15,22.74-38.73,34.02-58.15.89-1.54,1.43-3.34,2.79-3.78Z"/>
  <path d="M418.03,533.29c0,28.41-.21,56.83.16,85.24.09,6.74-1.5,9.06-8.63,9.68-25.98,2.26-25.95,2.59-25.95-23.25,0-126.06.09-252.12-.23-378.18-.02-8.28,2.37-9.85,9.97-9.65,19.88.54,39.42,2.82,58.27,9.24,18.05,6.16,26.03,17.37,26.06,36.44.09,68.87.02,137.74.02,206.6,0,17-7.72,30.32-21.38,39.32-7.84,5.17-7.2,9.23-3.72,16.45,11.56,23.99,22.23,48.4,33.68,72.44,2.54,5.33,2.09,8.04-3.43,10.16-8.09,3.11-16.62,10.06-23.91,8.87-7.59-1.23-7.94-13.35-11.31-20.71-9.54-20.85-18.48-41.97-27.66-62.98-.65.1-1.29.21-1.94.31Z"/>
  <path d="M498.5,247.38c18.78,11.15,34.43,24.31,47.81,40.04,40.16,47.2,58.49,101.35,48.46,163.15-5.63,34.71-25.61,60.79-55.92,78.55-4.78,2.8-7.27,5.54-6.58,11.1.37,2.95.23,5.99.05,8.97-.49,8.29,3.33,18.28-1.54,24.53-8.11,10.41-19.56,17.97-32.29,24.59V247.38Z"/>
  <path d="M307.74,542.22c-18.76-13.1-32.47-28.57-42.84-46.94-47.25-83.73-3.08-188.67,89.71-214.03,8.06-2.2,9.3-.37,9.27,7.39-.24,89.86-.22,179.72,0,269.59.02,6.88-.97,8.8-8.36,6.78-26.15-7.16-26.24-6.88-26.25-33.6-.01-27.86-.16-55.72.15-83.57.06-5.73-1.16-7.98-7.3-7.66-9.55.5-19.19.62-28.72-.02-7.06-.47-7.23,2.43-5.83,7.83,3.43,13.21,9.27,25.25,16.71,36.6,1.45,2.21,3.51,4.04,3.5,7.07-.06,16.34-.03,32.67-.03,50.57Z"/>
  <path d="M186.54,439.52c-.52-115.71,73.63-203.66,170.49-219.39,5.09-.83,7.52-.21,6.73,5.41-.08.59-.02,1.2-.02,1.8-.08,9.58,2.81,20.66-1.07,28.31-3.83,7.57-16.46,5.65-24.94,8.9-61.2,23.48-99.75,66.96-110.49,131.65-10.58,63.72,11.61,116.75,61.08,158,19.86,16.56,43.01,27.11,68.38,32.3,5.43,1.11,7.52,3.12,7.16,8.81-.52,8.06-.56,16.2.01,24.25.47,6.53-1.77,7.4-7.65,6.29-48.3-9.13-88.7-32.12-120.56-69.45-32.77-38.4-48.76-83.28-49.13-116.89Z"/>
  <path class="cls-5" d="M417.99,371.3c0-35.34.15-70.68-.15-106.02-.05-6.27,1.54-7.54,7.54-6.43,18.23,3.36,18.27,3.15,18.26,21.65,0,59.6,0,119.2,0,178.8,0,9.07-13.82,24.91-22.73,25.4-5.01.28-2.8-4.2-2.81-6.47-.15-35.64-.1-71.28-.11-106.92Z"/>
  <path class="cls-1" d="M532.57,484.8v-149.52c.48-.23.96-.46,1.44-.7,3.07,5.49,6.5,10.82,9.13,16.51,13.33,28.86,19.47,59.03,14.96,90.79-2.88,20.29-12.01,35.38-25.53,42.91Z"/>
  <path class="cls-5" d="M329.25,336.19c0,23.23-.04,44.3.03,65.38.01,3.68-1.91,4.43-5.07,4.4-11.04-.09-22.08-.16-33.12.03-4.63.08-4.68-2.22-3.87-5.66,5.96-25.63,19.17-46.54,42.03-64.15Z"/>
</svg>