<svg id="Camada_1" data-name="Camada 1" xmlns="http://www.w3.org/2000/svg" viewBox="0 0 500 500"><defs><style>.cls-1{fill:#fff;}.cls-2,.cls-6{fill:#ffd400;}.cls-2,.cls-7{stroke:#1d1d1b;stroke-miterlimit:10;}.cls-2{stroke-width:2.04px;}.cls-3{fill:#19180b;}.cls-4{fill:#242423;}.cls-5{fill:#6f6f6e;}.cls-7{fill:#1d1d1b;stroke-width:0.65px;}</style></defs><path class="cls-1" d="M250.8,12.11c43.73,0,87.46.11,131.19-.11,7.81,0,13.59,1.95,19,8.15,13,14.88,26.81,29,40.35,43.38,7.95,8.45,8.09,12.88,1,22.63-27.34,37.35-29,79.49-23,123.11.65,4.71,2.91,3.38,5.69,2.38,27.15-9.74,41.65-1.27,47.09,27.46,2.08,10.95,4.55,22.3,11.82,30.63,12,13.8,3.83,30.74-7.45,38.54-3.85,2.66-5.78,5.35-6.35,9.48-5.08,36.92-27.68,61.47-56.95,81.62-22.48,15.47-47.62,24.94-73.1,33.75-30.13,10.41-57.66,25.08-80,48.33-5.7,5.92-12.65,7.17-18.24,1.23-27.3-29-62.59-43.4-99.13-56C108.15,414.84,77.2,397,52.94,369.08c-9.43-10.86-16.26-23.28-19.45-37.36-2.48-10.93-5-20.64-14.82-28.71C7.4,293.7,8.1,283.31,16.24,270.68c7.05-10.93,10.76-23,12.7-35.84,3.38-22.42,23.33-33.88,43.79-24.43,7.59,3.5,8.12,1.12,8.93-5.44,4.81-38.93,3.23-76.64-18.4-111.23C50.93,74,51,73.7,66.49,56c11.65-13.27,23.9-26,35.77-39.09,4.23-4.65,9.6-4.86,15.26-4.85Q184.16,12.16,250.8,12.11ZM412.63,238.16c-12.54-55.73-15.16-108.59,18.2-157.25,2.71-4,3.82-6.67,0-10.65C418.07,57,405.56,43.58,393.18,30c-3.57-3.92-7.42-5.3-12.72-5.31q-129.61-.06-259.24-.61c-6.16,0-10.42,1.87-14.42,6.3C95.43,43,84.11,55.7,72.05,67.64c-5.6,5.54-5.42,9.08-1.15,15.51C103,131.41,100.12,183.57,87.78,237.7c-5.6-4.85-9.93-9.36-15-12.83-15.64-10.74-28-5.49-31.62,13.17-2.78,14.37-7,28.14-15.08,40.57-5.07,7.77-.37,19.83,8.79,20.71,6.65.64,6.76,3.45,7,8.5,1.14,20.67,8,39.25,22,54.77,20.61,22.9,46.05,38.85,74.76,49.28,39.12,14.22,78.56,27.59,108.33,58.86,3.47,3.64,5.33,1,7.56-1.17,22.83-22.7,50.35-37.42,80.54-47.76,29.89-10.22,59-22,83.88-42.29,23.41-19.09,38.65-42.32,39.48-73.34.13-4.91,1.76-6.08,6.6-6.69,8.33-1.07,14.65-12.31,10.51-18.7-9.24-14.26-14-29.84-16.86-46.41-2.2-12.66-14.75-18.1-26.33-12.52C425.05,225.38,419.83,231.47,412.63,238.16Z"/><path class="cls-2" d="M412.63,238.16c7.2-6.69,12.42-12.78,19.74-16.31,11.58-5.58,24.13-.14,26.33,12.52,2.87,16.57,7.62,32.15,16.86,46.41,4.14,6.39-2.18,17.63-10.51,18.7-4.84.61-6.47,1.78-6.6,6.69-.83,31-16.07,54.25-39.48,73.34-24.91,20.3-54,32.07-83.88,42.29-30.19,10.34-57.71,25.06-80.54,47.76-2.23,2.22-4.09,4.81-7.56,1.17-29.77-31.27-69.21-44.64-108.33-58.86C110,401.44,84.51,385.49,63.9,362.59c-14-15.52-20.83-34.1-22-54.77-.28-5.05-.39-7.86-7-8.5-9.16-.88-13.86-12.94-8.79-20.71,8.11-12.43,12.3-26.2,15.08-40.57,3.6-18.66,16-23.91,31.62-13.17,5,3.47,9.38,8,15,12.83C100.12,183.57,103,131.41,70.9,83.15c-4.27-6.43-4.45-10,1.15-15.51C84.11,55.7,95.43,43,106.8,30.39c4-4.43,8.26-6.33,14.42-6.3q129.62.6,259.24.61c5.3,0,9.15,1.39,12.72,5.31,12.38,13.57,24.89,27,37.63,40.25,3.84,4,2.73,6.69,0,10.65C397.47,129.57,400.09,182.43,412.63,238.16Zm-161.87-207q-63.54,0-127.09.06c-3.26,0-6.68-1.1-9.63,2.14Q96.88,52.16,79.24,70.56c-3.66,3.83-3.72,6.56-.64,11.24,19.34,29.35,24.84,62.06,24.65,96.77-.15,26.46-8.4,51.53-9.89,77.66-1.69,29.69,8,53.58,32.28,71.23,20.36,14.82,43,25.05,67,32,19,5.5,36.32,13.58,51.19,26.45,5.1,4.41,8.36,3.63,13-.26,14.74-12.46,31.6-20.71,50.29-25.95a227.26,227.26,0,0,0,60.31-27c28.53-18.07,43.1-43.46,39.14-77.81-2-17.17-5.08-34.21-7.27-51.36-5.52-43.29-1.79-85,23-122.53,2.55-3.87,3-6-.47-9.52C411.39,60.8,401,50.07,391.45,38.66c-5.28-6.3-11-7.79-18.81-7.71C332,31.31,291.39,31.12,250.76,31.12Z"/><path class="cls-3" d="M250.76,31.12c40.63,0,81.26.19,121.88-.17,7.8-.08,13.53,1.41,18.81,7.71C401,50.07,411.39,60.8,421.78,71.47c3.43,3.51,3,5.65.47,9.52-24.77,37.58-28.5,79.24-23,122.53,2.19,17.15,5.29,34.19,7.27,51.36,4,34.35-10.61,59.74-39.14,77.81a227.26,227.26,0,0,1-60.31,27c-18.69,5.24-35.55,13.49-50.29,25.95-4.61,3.89-7.87,4.67-13,.26C229,373,211.62,365,192.64,359.46c-24-6.95-46.64-17.18-67-32-24.24-17.65-34-41.54-32.28-71.23,1.49-26.13,9.74-51.2,9.89-77.66.19-34.71-5.31-67.42-24.65-96.77-3.08-4.68-3-7.41.64-11.24Q96.87,52.14,114,33.32c2.95-3.24,6.37-2.14,9.63-2.14Q187.21,31,250.76,31.12Z"/><circle class="cls-4" cx="207.41" cy="201.36" r="98.09"/><circle class="cls-1" cx="207.41" cy="201.36" r="92.96"/><path class="cls-5" d="M136.17,262.64a93.59,93.59,0,0,0,163.46-75.9c-.18-1.08-.38-2.16-.6-3.23-.06-.32-.11-.63-.18-.95a94.31,94.31,0,0,0-13.73-32.67c-.09-.14-.18-.29-.28-.43q-.94-1.4-1.95-2.76l-.9-1.24c-.52-.69-1.07-1.37-1.61-2.05s-1-1.21-1.46-1.8-.92-1.07-1.38-1.59c-.59-.69-1.2-1.35-1.8-2-.45-.48-.9-1-1.36-1.43-.61-.63-1.24-1.26-1.87-1.87s-1-1-1.53-1.47-1.16-1.06-1.75-1.58-1.23-1.09-1.86-1.61l-1.48-1.21c-.77-.62-1.54-1.22-2.33-1.82l-1.07-.8c-.95-.69-1.92-1.37-2.9-2-.2-.15-.4-.28-.6-.41q-1.75-1.16-3.54-2.25a.19.19,0,0,1-.1,0,93.48,93.48,0,0,0-17.13-8,94.7,94.7,0,0,0-18.13-4.42l-.51-.07c-1-.14-2-.24-3.06-.34-.62-.07-1.22-.14-1.83-.19l-1.36-.08a93.57,93.57,0,0,0-77.16,154.25ZM119,228.45c8.7,5.55,17.63,8.55,23.19,17.37a91.62,91.62,0,0,0,17.2,19.93c6.32,5.51,7.6,12.62,10.23,19.92C146.7,276.89,126.21,253.63,119,228.45ZM202.24,271c-11.19-.48-22.41-.73-33.61-1.23a8.26,8.26,0,0,1-4.46-1.7c-9.84-7.89-17.64-17.61-24.29-28.24a5.94,5.94,0,0,1-.67-4.24c2.45-9.22,5.19-18.35,7.67-27.56.67-2.48,1.77-3.71,4.42-4.08q18.54-2.53,37-5.46a5.28,5.28,0,0,1,5.7,2.18q11.88,15,24.1,29.75c1.6,1.94,2.13,3.58,1,6-2.29,5.12-4.27,10.37-6.36,15.57l.08,0c-2.2,5.46-4.52,10.88-6.56,16.4C205.52,270.6,204.39,271.12,202.24,271Zm29.25,19.7c-.24-.35,1-3.24,2.1-3.71,8.38-3.55,16.83-6.95,25.27-10.36.31-.12.74.06,1.78.19A87.35,87.35,0,0,1,231.49,290.74Zm51.65-51.83c-4.69,10-9.11,20.06-13.85,30a8,8,0,0,1-4,3.42c-10.46,4.36-21,8.56-31.54,12.74a4.36,4.36,0,0,1-3.17.22c-7.92-4.43-15.76-9-23.82-13.69,5-12.51,9.8-24.62,14.77-36.68.39-1,1.76-1.73,2.85-2.17,12.23-5,24.51-9.78,36.69-14.8,2.36-1,3.81-.53,5.55,1.14,5,4.75,10.05,9.35,15.13,14C283.63,234.74,284.31,236.4,283.14,238.91Zm6.78-76a11.9,11.9,0,0,1,2.58,4.21,90.58,90.58,0,0,1,6.19,45.3,16.32,16.32,0,0,1-2.72,6.85c-3.23,4.86-6.82,9.5-10.4,14.41a16.54,16.54,0,0,1-2.66-1.63c-5.13-4.73-10.35-9.39-15.27-14.35a12.68,12.68,0,0,1-3.19-6c-2.53-12.5-4.73-25.06-7.16-37.56a6.14,6.14,0,0,1,1.6-6c5.39-5.86,10.53-12,16.07-18.3C280.26,154.38,285.19,158.53,289.92,162.88Zm-31-35.52q6.12,9.31,12.67,18.35c1.57,2.15,1.81,3.62-.15,5.73-4.77,5.13-9.15,10.62-14,15.7a6,6,0,0,1-4.93,1.46c-12.12-2.95-24.18-6.16-36.23-9.37-1.26-.34-2.86-.93-3.48-1.92-5.38-8.5-10.57-17.13-15.95-25.94,5.86-5.37,11.46-10.65,17.27-15.69.94-.8,2.87-.87,4.26-.68,9,1.22,18,2.45,27,4C250.92,119.94,255.64,122.42,258.88,127.36Zm-20.18-10.9c-10.09-1.67-15.54-2.57-25.63-4.26-1.53-.91-3-1.66-4.45-2.49C219.05,109.82,229.17,111.57,238.7,116.46Zm-80.63,20.71c11.48-1.71,23-3.35,34.5-4.72a5.51,5.51,0,0,1,4.21,2.28c4.65,7.18,9.06,14.51,13.43,21.86a13.35,13.35,0,0,1,1.15,3.63c-6.59,12.17-12.59,23.42-18.81,34.55-.59,1.06-2.4,1.81-3.75,2-12.45,2-25,3.61-37.4,5.67-3.06.51-4.14-.41-5.14-3.09-3.29-8.81-7-17.45-10.21-26.27a7.59,7.59,0,0,1,.38-5.78c5.76-9.42,11.8-18.68,17.9-27.89A6,6,0,0,1,158.07,137.17Zm-6.36,3.23c-6.09,8.7-11.51,17.88-17.22,26.84a13,13,0,0,1-2.28,3c-5,4.24-10,8.38-14.78,12.32-1.26-14.52,21.36-48.41,38.69-56.83C155.29,131,154.9,135.84,151.71,140.4Z"/><path class="cls-6" d="M281.7,87.38s-3-2.17-3.79,0a5.65,5.65,0,0,1-2.45,3L272.21,92l-2.71,1.36s-1.09,1.63-2.17,1.9a8.37,8.37,0,0,1-2.72,0,14.09,14.09,0,0,1,0,3.52c-.27,1.36.54,1.9,1.36,2.45s3,1.08,3.53,0,2.38-3,3.63-2.17a12.67,12.67,0,0,0,4.23,1.08s-.54-.37-.81,1.71-.54,3.17,0,4,1.36,1.08,2.17,1.9,3.26,2.17,3,1.63.88-2.72,1.66-2.45a6.59,6.59,0,0,0,2.69-.27l1.08,2.84-1.36,4.76,1.36,3.25-1.63,1.9s-.47.28-2.14,1.09-3.83,1.63-3.83,3.53.28,4.34-.54,5.42-3,1.36-3.15,2.44-2.27,2.72-2.55,3.8a16.63,16.63,0,0,1-1.35,3,5.14,5.14,0,0,0-1.09,2.17c0,.81-.27,3.25-.27,3.25s-.81,4.07-1.36,4.89-2.44,3-2.44,3l-3.8,1.36h-3a1.88,1.88,0,0,1-2.71,0,12.91,12.91,0,0,0-3-2.17l-6-1.09L247,148.69h-3.8s-2.8-1.35-4.34-1.08-1.54,0-1.54,1.63a3.74,3.74,0,0,0,1.54,2.71l1.9,2a2.6,2.6,0,0,0,0,2.11c.54.81,0-1.09.54.81a8.75,8.75,0,0,1,.27,3.53,11.09,11.09,0,0,0,0,3c.27.81.81,3.25.81,3.25l1.9,1.36,1.63,2.71,2.17,2.17a7.84,7.84,0,0,0,1.63,1.63,8.07,8.07,0,0,1,2.17,2.17,14,14,0,0,1,1.09,3l2.17,1.63a2.14,2.14,0,0,1,1.35,1.9c.27,1.63,2.17,1.09,2.72,2.17a4.24,4.24,0,0,1,.54,3.26c-.27,1.62,1.08,2.17.54,3.25l-.54,1.09s-1.9,1.35-2.17,2.71.27,3.35.27,4.12.81,1.31,1.36,2.39.81,1.36.54,2.44-.27-1.9-.27,1.09v4.61L257,212.72c-.82.82-2.72,2.17-3,3a14.68,14.68,0,0,1-1.36,3.52c-.81,1.36-2.17,2.17-1.89,3.53s1.62,1.9,1.35,4.07a17.57,17.57,0,0,0,.27,5.7,37.42,37.42,0,0,0,2.17,3.8,24.84,24.84,0,0,1,2.17,4.61,7.05,7.05,0,0,0,3.53,3.8c1.09.54.9,3.11,1.94,3s2.67,1.56,2.67,1.56,1.09-.27.55,1.63-1.09,3.25-1.09,3.25-1.36,1.9-.27,3.26a4.72,4.72,0,0,1,1.36,3.25c0,1.09,1.08,1.9.27,3.8s-1.36,2.72-.82,4.07-1.35,0,.55,1.36a11.41,11.41,0,0,1,3,3.25,4.13,4.13,0,0,0,0,3.26c.81,1.36.54-.54.81,1.36a16.71,16.71,0,0,1,0,3.79c0,1.09.28,2.72-.27,3.53s-1.35,2.44-1.35,2.44.54,0,.27,2.17.27-.27-.27,2.17-1.63,3.26-.27,4.07.54-.81,1.35.82.27,3.8.27,5.15v3.26s-1.9,1.63-1.08,2.71,1.9,1.63,1.63,2.44-.82,2.17-.55,3a7.09,7.09,0,0,0,1.63,2h10s2.78-1.47,2.74-2.28,1.33-2.17,2.14-2.45.27-1.35,1.63-1.35,3.26.27,4.07,0,1.9-2.44,1.9-2.44-1.9-1.9,0-2.45,2.17-1.35,3.25-1.35h1.09l3.8-2.17s-1.63-1.9,0-2.17a7.64,7.64,0,0,0,3-.82,6.85,6.85,0,0,0,2.72-2.17c.81-1.08.27-1.63,1.35-2.71l1.09-1.09s.81.28,1.35-1.62-.27-.27.55-1.9l.81-1.63,2.44-1.09a2.14,2.14,0,0,0,2.17-.27,8,8,0,0,0,1.86-2.17v-2.44l3.57-.81s2.17-1.36,2.44-2.17a12.71,12.71,0,0,0,0-3.26,4.39,4.39,0,0,1,1.63-1.36c1.35-.81-1.09,0,1.35-.81s.82-.81,2.45-.81,3,.54,5.15,0,3.8-.82,4.89-1.63a16.2,16.2,0,0,0,2.44-2.71v-1.9l1.9-.82s-1.63-1.35,0-2.17a3.89,3.89,0,0,0,1.9-2.71l2.44-.54,2.44-1.36v-2.17l1.9-2.17,3.25-.54,1.36-1.9s.81,0,2.44-1.36,1.09.54,1.63-1.36-1.09-3,0-3.79l1.08-.82,2.72-.81,2.17-.54,1.63-2.72,1.9-1.08a16,16,0,0,1,1.89-3c.82-.81,1.36-1.63,2.45-1.9s4.07-1.35,4.07-1.35l2.44-2.17s1.9-1.09,1.35-2.17a4,4,0,0,0-1.9-1.63s-1.89-.27-1.08-1.36,3.45-2.17,3.08-3.25-.37-2.45-1.18-2.72-.27,1.63-.82-.27-2.44-.54-.54-1.9a39.65,39.65,0,0,1,4.89-3c1.08-.54,4.34-.27,4.34-.27l3.52.27,4.07-1.36v-3s-1.62-2.44-2.44-2.72-1.63-1.35-2.44-1.35a10.56,10.56,0,0,0-2.44.27c-1.63.27-2.72.54-3.53.27s.54,1.36-.81-.27-1.36-4.65-1.63-4.77-2.17-1.15-2.17-1.15-2.71-.86-3-1.68-2.17-3-2.44-3.8-.27-2.71-1.9-3,.27.81-1.62-.27a8.84,8.84,0,0,1-3.26-3,25.11,25.11,0,0,0-2.17-2.44l-4.61-3s-3.26-.82-3.53-1.63a23.26,23.26,0,0,0-1.08-3.26,12.11,12.11,0,0,0-2.18-3,13.77,13.77,0,0,0-2.17-1.63L352,171.76l-3.52-2.45a7.18,7.18,0,0,0-.55-2.71c-.54-1.08-.81-3.8-1.62-4.34a14,14,0,0,1-2.72-1.63c-.81-.81,1.63.54-.81-.81a17.17,17.17,0,0,0-6-1.63l-2.44,1.09-3.53,1.35L326.74,162H324l-.27-2.17a15,15,0,0,1,2.17-2.17l.81-.54.81-3.53,1.09-3.8a19.25,19.25,0,0,0,.54-3.26c0-1.08,1.09-3.79.27-4.88s-.27-2.44-1.08-3A4.49,4.49,0,0,1,327,135.4c0-1.08,1.36-2.44,1.36-2.44s1.63-1.63,1.63-2.44.54-1.9-.82-2.44-1.35-1.63-3-1.36A45.55,45.55,0,0,1,321,127l-2.48-1.36-1-3.25-2.76-4.07-1.62-4.07-2.45-.81s-3,.81-3.79.27-2.72-1.09-2.72-1.9-.54-4.34-.54-4.34l.81-4.34.28-3.8s-1.9-1.09-1.9-1.9,0-2.44-.82-3.26a11.27,11.27,0,0,0-2.71-1.63L298,89.82s-2.44-1.9-3.25-1.63a12.6,12.6,0,0,1-2.72.27s-1.9-1.92-2.71-2a17.91,17.91,0,0,0-2.71,0s-2.65-2-3.23-1.21S281.7,87.38,281.7,87.38Z"/><path class="cls-7" d="M64.49,330.66l3.64,1.06c-2,2.49-1.83,4.93.36,7.32a5.78,5.78,0,0,0,3.58,2,4.11,4.11,0,0,0,3.45-1.13c1.36-1.24,2-3.31,1.78-6.18l-.19-3a21.88,21.88,0,0,1,.14-5.19,5.06,5.06,0,0,1,1.57-2.72,6.4,6.4,0,0,1,5.49-1.66,9.7,9.7,0,0,1,5.78,3.27,12,12,0,0,1,2.82,5.21l-2.62.9-1.16.4c-.68.24-1.14.22-1.4-.06a.85.85,0,0,1-.21-.51,5.46,5.46,0,0,0,1.39-.84,2.4,2.4,0,0,0,.6-2.38,6.35,6.35,0,0,0-1.65-3q-3-3.32-5.79-.8a4.06,4.06,0,0,0-1.21,2.48,32.28,32.28,0,0,0,0,5.65l.13,2.39c.19,3-.49,5.25-2,6.67a7.09,7.09,0,0,1-6.24,1.76,11.45,11.45,0,0,1-6.65-3.82Q62.47,334.57,64.49,330.66Z"/><path class="cls-7" d="M89.35,350.39a24.47,24.47,0,0,1-7.45.87q-3.42-.18-4.79-1.5c-1.25-1.22-.89-2.83,1.07-4.85a14.53,14.53,0,0,1,9.72-4.55,11.75,11.75,0,0,1,9.43,3.24,10.16,10.16,0,0,1,2.07,2.7l-.37.23-.87.56-1,.7L90.39,353l-1,.76c-1,.75-1.58,1.27-1.87,1.56s-.45.7-.23.92c.76.74,2.38.65,4.83-.28.11.38.09.65-.06.79-.31.32-1.32.58-3,.79-2.34.27-4,0-4.88-.92q-1-1,.3-2.31a14.49,14.49,0,0,1,1.2-1l1.2-1,1.35-1Zm6-4.66a7.09,7.09,0,0,0-1.84-3.14c-1.28-1.24-3.11-1.51-5.49-.79a16.34,16.34,0,0,0-6.92,4.53c-1.16,1.19-1.38,2.12-.68,2.8s2.4,1.12,4.75,1A14.92,14.92,0,0,0,93.74,347Zm-.17-8c-.14-.33-.13-.58,0-.75a4.12,4.12,0,0,1,2.48-1,2.93,2.93,0,0,1,2.37.38,1.93,1.93,0,0,1,.46.92l.17.67.34,1.26.15.62a2.15,2.15,0,0,0,.48,1c.46.45,1.44.39,2.94-.17a.61.61,0,0,1-.06.77,4.22,4.22,0,0,1-2.46.88c-1.23.15-2,.06-2.36-.27a2.18,2.18,0,0,1-.59-1.06l-.19-.82-.31-1.16-.11-.48a2.41,2.41,0,0,0-.55-1.09C97.53,337.07,96.6,337.14,95.22,337.77Z"/><path class="cls-7" d="M92.41,364.13q-3.24-2.82.5-7.11a14.06,14.06,0,0,1,8.33-4.44q5.33-1,8,1.38,3.27,2.87-.46,7.14a14,14,0,0,1-8.34,4.45C96.94,366.21,94.25,365.73,92.41,364.13Zm3.14-.1a4.28,4.28,0,0,0,4.37.58A11.56,11.56,0,0,0,105,361q3.92-4.49,1.12-6.92a4.27,4.27,0,0,0-4.36-.56,11.64,11.64,0,0,0-5.11,3.61Q92.78,361.62,95.55,364Z"/><path class="cls-7" d="M110.73,378.15l3.48-.73.4.45a18.28,18.28,0,0,0,1.54,1.6,4.82,4.82,0,0,0,3-.68,23.37,23.37,0,0,0,3.81-3.71l9.54-10.83a11.42,11.42,0,0,0-6.4-1.89,5.69,5.69,0,0,0-4.61,2.45,6.33,6.33,0,0,0-1.13,3.07l-4.07.45a11.49,11.49,0,0,1,1.39-2.67,10.1,10.1,0,0,1,8.44-4.38q5.49-.16,11.1,3.77,7.23,5.07,4.32,9.22-2.49,3.54-9,2.14c2.43,3.48,2.79,6.46,1.07,8.91q-2.11,3-6.41,2.65t-9.4-3.94A70.79,70.79,0,0,1,110.73,378.15Zm16.69-3.48-1.7,1.93-1.06,1.21a9.09,9.09,0,0,1-3.23,2.62,9.57,9.57,0,0,1-4.24.05,45.3,45.3,0,0,0,5.75,4.8q4.88,3.44,7.6-.44a6,6,0,0,0,.92-4.17,8.19,8.19,0,0,0-1.77-4.41l-.42-.27-.78-.49-.66-.52Zm7.72-8.77-6.7,7.6c.58.49,1.09.89,1.54,1.2a21.4,21.4,0,0,0,1.87,1.15c3.12.28,5.3-.47,6.56-2.27Q140.95,370,135.14,365.9Z"/><path class="cls-7" d="M144.88,393.72a.9.9,0,0,1,0,.9,4.28,4.28,0,0,1-2.07,1.12q-4.74,1.59-7.48,0a4,4,0,0,1-2-3,6,6,0,0,1,.93-4,14.78,14.78,0,0,1,7.31-5.91q5.1-2.16,7.87-.52,2,1.19.73,3.34A7.74,7.74,0,0,1,145.1,389a14.76,14.76,0,0,1-7.6-.17q-2,4.13.79,5.78T144.88,393.72Zm-6.13-6.91a3,3,0,0,0,.77.68,6.36,6.36,0,0,0,4.3.86,4.29,4.29,0,0,0,3.26-2,2,2,0,0,0-.82-3.08,3.68,3.68,0,0,0-3.55.18A11.1,11.1,0,0,0,138.75,386.81Z"/><path class="cls-7" d="M153.82,393.69q7.44-5.22,11.08-3.34a5,5,0,0,1,1.68,1.42l-3.74,1.38a3.06,3.06,0,0,0-1.23-1c-1.17-.6-2.91-.28-5.19.95a14.63,14.63,0,0,0-5.35,4.77l-2.59,3.9-3-.44.32-.49.68-1,.7-1,5-7.62.56-.83a15.61,15.61,0,0,0,1-1.57c.36-.69.34-1.13,0-1.33-.91-.47-2.31,0-4.19,1.51a.89.89,0,0,1-.07-.87c.39-.67,1.49-1.26,3.3-1.76s3.08-.58,3.79-.21c1,.49,1.12,1.37.47,2.64a13.45,13.45,0,0,1-.72,1.19l-.73,1.13-.89,1.35Z"/><path class="cls-7" d="M162.66,408.48l-3.09,0,.26-.47.68-1.25.66-1.17,4.3-7.8.5-.89c.37-.7.65-1.27.83-1.72.31-.75.28-1.2-.1-1.36-.88-.36-2.24.24-4.08,1.82a.93.93,0,0,1-.16-.75c.29-.7,1.33-1.4,3.12-2.08s3.06-.87,3.8-.56c1,.42,1.25,1.27.71,2.57a12.08,12.08,0,0,1-.63,1.28l-.73,1.37-.64,1.14-.67,1.19a25.24,25.24,0,0,1,6.68-3.23c2.21-.66,3.89-.75,5.06-.27s1.38,1.5.72,3.08a19.63,19.63,0,0,1-1.08,2.09l-3.68,6.17a23.33,23.33,0,0,0-1.58,3c-.26.61-.22,1,.11,1.13q1.22.5,4.34-2a.82.82,0,0,1,.2.73c-.32.76-1.39,1.49-3.22,2.19s-3.15.87-4,.53-1.1-1.23-.56-2.55a33,33,0,0,1,2-3.84l2.39-4a27.68,27.68,0,0,0,1.67-3.17c.38-.93.25-1.53-.4-1.8q-2.25-.93-5.83,1.17a14.15,14.15,0,0,0-5.42,5.44Z"/><path class="cls-7" d="M191.38,411.46a25,25,0,0,1-6.22,4.18q-3.14,1.41-4.95.85-2.51-.75-1.27-4.79a14.52,14.52,0,0,1,6.56-8.5,11.73,11.73,0,0,1,9.86-1.44,9.92,9.92,0,0,1,3.08,1.46c-.12.2-.2.32-.23.36l-.51.9c-.35.63-.55,1-.59,1.1l-3.62,7.7L193,414.4a21.76,21.76,0,0,0-.94,2.24c-.16.52-.09.83.22.92q1.51.46,4.16-2.46c.27.29.37.54.31.73-.13.43-.91,1.13-2.35,2.1-2,1.32-3.54,1.79-4.76,1.42-.89-.27-1.15-1-.79-2.19a12.71,12.71,0,0,1,.59-1.48l.63-1.4.72-1.54Zm3.24-6.92a7.26,7.26,0,0,0-3.08-2c-1.71-.52-3.45.09-5.24,1.81a16.51,16.51,0,0,0-4.09,7.2c-.47,1.58-.25,2.52.69,2.8s2.64-.1,4.68-1.28a14.92,14.92,0,0,0,6.14-6.7Z"/><path class="cls-7" d="M204.91,412q5.79-7,9.8-6.14a4.93,4.93,0,0,1,2,.92l-3.24,2.32a3.2,3.2,0,0,0-1.45-.65c-1.3-.27-2.88.49-4.76,2.28a14.48,14.48,0,0,0-3.9,6l-1.46,4.45-3,.35.17-.55.39-1.19.4-1.18,2.84-8.68L203,409a17.78,17.78,0,0,0,.51-1.76c.16-.76,0-1.19-.4-1.28-1-.21-2.21.65-3.64,2.57a.9.9,0,0,1-.29-.82c.19-.75,1.1-1.61,2.71-2.58s2.82-1.36,3.6-1.2c1.06.22,1.45,1,1.15,2.42a13.41,13.41,0,0,1-.37,1.35L205.9,409l-.5,1.53Z"/><path class="cls-7" d="M226.58,407.51l.38-1.6a18.18,18.18,0,0,1,5.34-9.59q3.94-3.6,8.45-3.07a8.12,8.12,0,0,1,1.84.41l-3,2.43a6.5,6.5,0,0,0-2.07-.56A4.88,4.88,0,0,0,233,397q-1.64,1.82-2.74,6.55l-3.62,15.57-.27,1.18c-.25,1.06-.39,1.82-.45,2.27q-.1.93.39,1c1,.12,2.23-.93,3.57-3.17.32.25.47.47.44.67a6.49,6.49,0,0,1-1.85,2.49q-2.46,2.48-4.34,2.25c-1-.12-1.38-.84-1.22-2.18q.09-.74.57-2.91l.39-1.65.31-1.38a16.87,16.87,0,0,1-4.82,4.93c-2.13,1.5-3.81,2.17-5.06,2-1.78-.21-2.51-1.71-2.17-4.5a14.9,14.9,0,0,1,4.85-9.39q4.22-3.93,8.85-3.37ZM226,410.2a6.19,6.19,0,0,0-2.82-1.21c-1.87-.23-3.54.65-5,2.62a16.22,16.22,0,0,0-2.78,7.87c-.2,1.64.19,2.51,1.15,2.63q1.74.21,4.39-2.09a14.09,14.09,0,0,0,4.57-7.71Z"/><path class="cls-7" d="M235.67,426.53q-4.29-.11-4.15-5.79a14,14,0,0,1,3.57-8.74q3.47-4.15,7.06-4.07,4.35.1,4.21,5.79a14,14,0,0,1-3.57,8.75C240.49,425.23,238.11,426.59,235.67,426.53Zm2.36-2.08a4.27,4.27,0,0,0,3.73-2.35,11.55,11.55,0,0,0,1.63-6.05c.09-4-1.09-6-3.56-6-1.45,0-2.68.75-3.71,2.36a11.54,11.54,0,0,0-1.62,6Q234.35,424.37,238,424.45Z"/><path class="cls-7" d="M269.48,410.69l4-.56a35.53,35.53,0,0,0,5.74-1.31q-1.87,3-3.84,3.24l-1.62.19-1.84.21-1.47.17-1,.13.06,1.4,0,1.69a8.72,8.72,0,0,1-.62,4,8.2,8.2,0,0,1-2.91,2.78l5.26-.43-2,2.5-9,.82,2.11-2.68,2.07-.06q2.12-1.77,2-6.34l-.05-1.88-.37-13.66-.64.09A9.8,9.8,0,0,0,260,403.3a4.86,4.86,0,0,0-1.52,4.4,6.83,6.83,0,0,0,1.32,3.09l-2.66,3.37a10.09,10.09,0,0,1-.83-2.81,10.28,10.28,0,0,1,3.22-9.17q2.89-2.82,8.8-3.64l6.26-.86q3.51-.48,7.12-1.25l-1,4.09-.21.75c-.21.79-.56,1.22-1.05,1.28a1.37,1.37,0,0,1-.29,0,7.31,7.31,0,0,0,0-1.54,1.52,1.52,0,0,0-1.54-1.38,41.28,41.28,0,0,0-6.61.6l-1.82.25Z"/><path class="cls-7" d="M296.67,411a25.65,25.65,0,0,1-3.33,6.71q-2.05,2.94-3.72,3.37c-1.22.32-2-.34-2.46-2a29.76,29.76,0,0,1-.53-3l-.9-6.22c0-.09-.08-.46-.19-1.1l-.2-1.22a9.35,9.35,0,0,0-.2-1c-.18-.71-.47-1-.88-.91-.94.24-1.67,1.55-2.21,3.92a.81.81,0,0,1-.51-.5q-.3-1.14,1.26-3.57c1-1.62,1.94-2.54,2.74-2.75,1-.26,1.72.31,2.08,1.71a11.8,11.8,0,0,1,.23,1.18l.2,1.47.24,1.59.79,5.44a27.81,27.81,0,0,0,.57,2.77c.22.85.64,1.19,1.27,1q2.07-.54,3.81-4.66a15.26,15.26,0,0,0,1.34-7.6l-.49-4.54,2.72-1.79c0,1.52.1,2.86.22,4l.88,8c.06.48.11.89.16,1.22l.13,1c.09.65.17,1.1.23,1.36.14.53.36.76.65.68q1.57-.4,2.3-4.28c.39.11.61.26.65.46.12.43-.19,1.44-.93,3q-1.47,3.22-3.32,3.7c-.9.23-1.5-.25-1.82-1.46a12.69,12.69,0,0,1-.26-1.57L297,414c-.09-.83-.16-1.39-.19-1.68Z"/><path class="cls-7" d="M306.31,399.44l1.84,8.28A32,32,0,0,0,309,411c.46,1.36,1.15,1.88,2.08,1.57s1.75-1.51,2.26-3.51a1.15,1.15,0,0,1,.48.52c.22.68-.09,1.68-1,3a5.61,5.61,0,0,1-2.58,2.45c-1.71.58-2.94-.22-3.68-2.42a38.88,38.88,0,0,1-1-4l-1.85-8.27-3.79,1.29,1.38-2.81,1.93-.66-.74-3.41,2.36-1.8,1,4.32,7.66-2.6-1.41,2.81Z"/><path class="cls-7" d="M326,402.06a1,1,0,0,1,.72.54,4.25,4.25,0,0,1-.38,2.33q-1.63,4.71-4.59,5.9a4,4,0,0,1-3.55-.25,6,6,0,0,1-2.63-3.2,14.74,14.74,0,0,1-.21-9.39c.93-3.58,2.4-5.76,4.39-6.56,1.45-.57,2.47-.09,3.09,1.46a7.72,7.72,0,0,1-.49,6.09,14.64,14.64,0,0,1-4.78,5.92q2.06,4.1,5.07,2.9T326,402.06Zm-9.22.65a3.23,3.23,0,0,0,1-.2,6.42,6.42,0,0,0,3.31-2.88,4.31,4.31,0,0,0,.39-3.82,2,2,0,0,0-2.94-1.23,3.69,3.69,0,0,0-2,2.92A11.05,11.05,0,0,0,316.77,402.71Z"/><path class="cls-7" d="M330.19,395.64a23.73,23.73,0,0,1,1.65-7.23q1.31-3.11,3-3.91c1.66-.79,3.15.24,4.48,3.06a14.18,14.18,0,0,1,.87,10.4A11.4,11.4,0,0,1,333,405.8l-1.46.52-.67.28a18.1,18.1,0,0,0-.77-3l-5.35-15.67a17.83,17.83,0,0,1-.34-11q1.59-5.37,5.76-7.33a7.68,7.68,0,0,1,1.75-.59l-1.38,3.68a7.07,7.07,0,0,0-2,.57q-5.14,2.43-2.26,10.86Zm2.48,7.18a7.11,7.11,0,0,0,3.61-.63c1.59-.74,2.44-2.26,2.57-4.56a16.64,16.64,0,0,0-1.89-7.86c-.8-1.71-1.67-2.35-2.6-1.91s-1.88,1.83-2.54,4a14.34,14.34,0,0,0,.18,9Z"/><path class="cls-7" d="M350.31,397.54q-3.78,2.06-6.49-2.94a14.09,14.09,0,0,1-1.26-9.36q.93-5.33,4.09-7.05,3.83-2.08,6.54,2.92a14,14,0,0,1,1.26,9.36C353.84,394,352.45,396.38,350.31,397.54Zm1-3a4.29,4.29,0,0,0,2.06-3.9,11.56,11.56,0,0,0-1.61-6.05q-2.83-5.22-6.09-3.46-1.92,1-2,3.9a11.56,11.56,0,0,0,1.6,6Q348.08,396.33,351.32,394.56Z"/><path class="cls-7" d="M363.7,382.84a.79.79,0,0,1,.82.31c.47.79.46,2.11,0,4s-1.13,3-1.93,3.5-1.75.15-2.53-1.16a24,24,0,0,1-1.3-2.53l-.69-1.57-5.53-12.16a18.42,18.42,0,0,1-1.6-10.83,10.36,10.36,0,0,1,4.82-7.6,8.06,8.06,0,0,1,1.7-.79l-.91,3.76a6.43,6.43,0,0,0-1.95.81,4.88,4.88,0,0,0-2.65,3.92c-.13,1.63.47,3.92,1.8,6.85L360.38,384c.51,1.13.91,1.92,1.18,2.38q.87,1.47,1.38,1.17c.41-.24.69-.84.85-1.81A7.43,7.43,0,0,0,363.7,382.84Z"/><path class="cls-7" d="M388.67,364.81a.67.67,0,0,1,.71.25c.47.69.48,2,0,4.05a13,13,0,0,1-5.29,7.95,7.88,7.88,0,0,1-6.92,1.29,11.93,11.93,0,0,1-6.44-5,16.39,16.39,0,0,1-3-12.19,14.7,14.7,0,0,1,6.41-10.25,21,21,0,0,1,6.47-3l.56,3,.17.88c.12.71,0,1.19-.37,1.44a1.42,1.42,0,0,1-.36.19,2.41,2.41,0,0,0-.34-.95,2.67,2.67,0,0,0-2.67-.84,8,8,0,0,0-3.81,1.5,9.24,9.24,0,0,0-4.1,7.35,14.89,14.89,0,0,0,3.09,9.51,11.8,11.8,0,0,0,5.84,4.79,6.49,6.49,0,0,0,6-.91,9.44,9.44,0,0,0,3.19-4A9.57,9.57,0,0,0,388.67,364.81Z"/><path class="cls-7" d="M397.38,359.38a.81.81,0,0,1,.86.21c.55.73.69,2,.42,3.94s-.78,3.14-1.52,3.7-1.72.35-2.64-.87a24.28,24.28,0,0,1-1.59-2.36l-.86-1.48-6.87-11.46a18.3,18.3,0,0,1-2.81-10.58,10.31,10.31,0,0,1,3.92-8.09,7.94,7.94,0,0,1,1.6-1l-.47,3.84a6.65,6.65,0,0,0-1.86,1,4.9,4.9,0,0,0-2.18,4.19c.06,1.64.91,3.85,2.57,6.61l8.26,13.79c.64,1.06,1.12,1.81,1.44,2.23.69.91,1.2,1.25,1.51,1a2.52,2.52,0,0,0,.63-1.9A7.24,7.24,0,0,0,397.38,359.38Z"/><path class="cls-7" d="M407.84,348.52a26.18,26.18,0,0,1-.22,7.49q-.64,3.54-2,4.62t-3.06-.75c-.39-.49-1-1.33-1.75-2.54l-3.42-5.27-.62-.92-.7-1c-.2-.31-.4-.57-.58-.8-.47-.57-.86-.73-1.19-.46q-1.12.92-.37,4.49a.81.81,0,0,1-.67-.24c-.49-.61-.61-1.87-.35-3.78s.71-3.11,1.35-3.64c.82-.66,1.68-.44,2.6.69a9.41,9.41,0,0,1,.7,1l.8,1.24.88,1.35,3,4.6a24.66,24.66,0,0,0,1.67,2.28c.56.68,1.08.82,1.58.41q1.67-1.35,1.52-5.82a15.1,15.1,0,0,0-2-7.46L402.73,340l1.73-2.77c.65,1.37,1.28,2.55,1.87,3.56l4.15,6.9.65,1,.56.89q.53.82.78,1.14c.34.42.63.54.87.35.84-.69.94-2.3.3-4.86.39-.05.66,0,.79.15.28.35.42,1.39.41,3.14,0,2.36-.49,3.94-1.47,4.74-.72.59-1.47.4-2.26-.56a14,14,0,0,1-.9-1.31l-.8-1.32c-.43-.72-.72-1.2-.88-1.45Z"/><path class="cls-7" d="M414.69,339.13a23.6,23.6,0,0,1-.46-7.4q.39-3.35,1.81-4.62c1.38-1.21,3.1-.66,5.17,1.68a14.15,14.15,0,0,1,3.76,9.73,11.37,11.37,0,0,1-3.87,8.86,11,11,0,0,1-.89.71L419,349c-.07.06-.26.22-.57.46a17.57,17.57,0,0,0-1.58-2.68l-9.56-13.53a17.83,17.83,0,0,1-3.42-10.49q0-5.6,3.46-8.65a7.24,7.24,0,0,1,1.51-1.06l-.28,3.92a7,7,0,0,0-1.74,1.11q-4.27,3.76.88,11.05Zm4.39,6.19a7.37,7.37,0,0,0,3.3-1.62q2-1.74,1.17-5.1a16.51,16.51,0,0,0-4-7q-1.89-2.13-3-1.11c-.85.76-1.29,2.29-1.3,4.59a14.46,14.46,0,0,0,2.7,8.56Z"/><path class="cls-7" d="M435.12,325.94a.93.93,0,0,1,.87.23,4.28,4.28,0,0,1,.5,2.31c.14,3.33-.57,5.71-2.12,7.17a4,4,0,0,1-3.39,1.07,6.09,6.09,0,0,1-3.62-2,14.75,14.75,0,0,1-3.63-8.67q-.66-5.49,1.7-7.7c1.12-1.06,2.26-1,3.4.22a7.78,7.78,0,0,1,1.77,5.86,14.74,14.74,0,0,1-2.28,7.25c2.27,2,4.2,2.33,5.77.85S436,328.86,435.12,325.94Zm-8.34,4a3.18,3.18,0,0,0,.87-.56,6.32,6.32,0,0,0,2-3.89,4.29,4.29,0,0,0-1-3.69,2,2,0,0,0-3.18-.07,3.67,3.67,0,0,0-.83,3.46A11.13,11.13,0,0,0,426.78,329.91Z"/></svg>