<?xml version="1.0" encoding="UTF-8"?>
<svg id="Layer_1" xmlns="http://www.w3.org/2000/svg" version="1.1" viewBox="0 0 500 500">
  <!-- Generator: Adobe Illustrator 29.1.0, SVG Export Plug-In . SVG Version: 2.1.0 Build 142)  -->
  <defs>
    <style>
      .st0 {
        fill: #78ddd3;
      }

      .st1 {
        fill: #01359f;
      }

      .st2 {
        fill: #4eb74f;
      }

      .st3 {
        fill: #246f7b;
      }

      .st4 {
        fill: #4eb650;
      }

      .st5 {
        fill: #0134a0;
      }

      .st6 {
        fill: #216a7e;
      }

      .st7 {
        fill: #0033a0;
      }

      .st8 {
        fill: #4fb74f;
      }
    </style>
  </defs>
  <path class="st0" d="M250.6,500h-1c-31-27.1-65.5-50.1-97.4-76.1-63.7-51.8-82-94.6-93.1-175.6-6.6-48.4-9.7-97.4-16.9-145.8l1.7-3.5L249.5,0h1l207.2,101.5c-8.1,59.9-12.6,120.3-22.1,180-13.4,67.8-39.3,103.2-91.9,145.6s-63.6,46.9-93.2,73Z"/>
  <path class="st7" d="M248.2,13.7l5.2.6c63.6,31.9,128.6,60.9,191.8,93.6-6.3,45.2-9.5,91-15.6,136.2-12,88.9-30.4,124.1-100,179.2-26.2,20.7-53.6,40.1-79.6,61.1-36-27.9-72.6-55-107.8-83.9-52.9-47.9-63.9-95-72.8-163.7s-8.6-85.5-14.7-128c0-1.4.8-1.8,1.7-2.5,4-3,15.6-7.8,20.9-10.4,56.7-28,114.4-53.9,170.9-82.2Z"/>
  <path class="st8" d="M342.2,150c-12.2-4.5-25.7-7.9-37.5-13-6.2-2.7-17.9-7-15.4-15.4s6.5-4.4,8.1-7c-13-2.4-26.1-5.3-39.4-5.4l-6.4-78,176.1,85.1-13.7,127.8c-4.4,29.9-9.4,60.4-22.6,87.8-23.9,49.7-71.6,77.7-113.2,110.7-2.1.3-1.4,0-1.5-1.5-.8-5.9-.9-17.4-1.1-23.9-1.6-64.4,15.2-130.6,26-193.7,18.2-2.4,37.1-4.5,53.2-13.6-1-2.4-21.1-5.1-24.6-5.6-41.6-5.4-97.5-5.2-139.4-2.2s-43.6,4.1-45.3,7.8c15.5,8.6,33.6,11.4,51,13l25,171.9c1.1-56.8-2.2-113.2-6.2-169.8l25,1v230.2l-70.3-53.2c-52.2-42.5-71.2-76.1-81.6-143.4-7.3-47.2-9.9-95.3-16.4-142.6L248.5,31.3l-6.3,78.1c-13.4-.2-26.5,2.8-39.6,5.2,7.3,5.2,12.9,9.4,3.6,16.7-9.5,7.4-36,14-48.4,18.8l1,1c58.8-8.7,123.5-8.7,182.3,0,2.9.4,3.2,0,1-1Z"/>
  <path class="st2" d="M260,226c8.7,0,17.4-2.3,26.1-.5l-26.1,114v-113.5Z"/>
  <path class="st3" d="M157.9,150l1,1c-1,.2-3.1,2-5.2,1-.3-1.6,2.6-1.5,4.2-2.1Z"/>
  <path class="st6" d="M342.2,150c1.6.6,4.5.4,4.2,2.1-2.1,1-4.2-.9-5.2-1l1-1Z"/>
  <path class="st7" d="M383.8,179.3c3.4,5.5-10.7,8.2-14.2,8.9-21.3,4.5-30.6-1.4-50.7-3.8-39.3-4.7-88.6-4.4-128.1-1-13.9,1.2-24.9,4.7-37.8,7-5.3.9-32.4-2.8-35.7-6.5-4.2-4.7,3.9-6.9,7.5-8.1,27.3-9.3,76-11.5,105.5-12.3,40.7-1,95.7.4,135.1,9.8,2.8.7,17.5,4.6,18.4,6Z"/>
  <path class="st7" d="M174.2,276.4c4.7,4.7,3.9,11.5,1.6,17s-7.8,14-8.5,14.4c-2.2,1.3-6.8.1-9.4.5l5.2-10.4c-25.4-4.2-4.6-37.2,11.1-21.5Z"/>
  <path class="st7" d="M344.3,302.1l11.6-28,9.3.4-8.3,20.3h5.2s.6-6.3.6-6.3c11.3-1.6,5,4.7,6.7,6.3s3.8-.4,4.2,0,.3,7.1,0,7.3c-.4.4-3.8-.4-4.2,0s.4,5.9,0,6.3-7,.3-7.3,0,.2-5,0-6.3h-17.7Z"/>
  <path class="st5" d="M346.4,272.9l-14.7,33.7c-2.1,2.7-7.3,1.9-10.3,1.2,1.3-3.5,12.7-25.4,11.4-26.6h-13.5c-.1-1.7-.4-8.3,1.6-8.3h25.5Z"/>
  <path class="st1" d="M145.4,308.3h-9.4v-25l-8.3,3.1c.1-2.6-.7-5.6,1-7.9s16.7-8.3,16.7-4.1v33.9Z"/>
  <path class="st4" d="M161.7,281.4c9.8-3.5,10.3,11.9,1.1,9.1-3.8-1.2-4.5-7.9-1.1-9.1Z"/>
</svg>