<svg id="Layer_2" data-name="Layer 2" xmlns="http://www.w3.org/2000/svg" xmlns:xlink="http://www.w3.org/1999/xlink" viewBox="0 0 895 600"><defs><style>.cls-1{fill:none;}.cls-2{clip-path:url(#clip-path);}.cls-3{fill:#1eb53a;}.cls-4{fill:#0099b5;}.cls-5{fill:#ce1126;}.cls-6{fill:#fff;}.cls-7{fill:#939598;}</style><clipPath id="clip-path"><path class="cls-1" d="M35.72,0H860.28A30.82,30.82,0,0,1,891,30.93V569.07A30.82,30.82,0,0,1,860.28,600H35.72A30.82,30.82,0,0,1,5,569.07V30.93A30.82,30.82,0,0,1,35.72,0Z"/></clipPath></defs><title>Uzbequistão</title><g class="cls-2"><path class="cls-3" d="M-4,0H891V599H-4Z"/><path class="cls-4" d="M-4,0H891V299.5H-4Z"/><path class="cls-5" d="M4,191.68H891V407.32H4Z"/><path class="cls-6" d="M4,203.66H891V395.34H4Z"/><circle class="cls-6" cx="151.39" cy="95.84" r="71.88"/><circle class="cls-4" cx="175.35" cy="95.84" r="71.88"/><g id="e"><g id="d"><g id="c"><g id="b"><path id="a" class="cls-6" d="M309.52,139l-4.44,13.67,6.84,2.22"/><path class="cls-6" d="M309.52,139,314,152.64l-6.84,2.22"/></g><path class="cls-6" d="M323.2,148.9H308.82v7.19"/><path class="cls-6" d="M323.2,148.9l-11.64,8.45-4.22-5.81"/></g><path class="cls-6" d="M295.85,148.9l11.63,8.45,4.23-5.81"/><path class="cls-6" d="M295.85,148.9h14.38v7.19"/><path class="cls-6" d="M318,165l-4.44-13.67-6.84,2.22"/><path class="cls-6" d="M318,165l-11.63-8.45,4.23-5.81"/><path class="cls-6" d="M301.07,165l11.63-8.45-4.22-5.81"/><path class="cls-6" d="M301.07,165l4.45-13.67,6.83,2.22"/></g><path class="cls-6" d="M309.52,81.46l-4.44,13.68,6.84,2.22"/><path class="cls-6" d="M309.52,81.46,314,95.14l-6.84,2.22"/><path class="cls-6" d="M323.2,91.4H308.82v7.19"/><path class="cls-6" d="M323.2,91.4l-11.64,8.45L307.34,94"/><path class="cls-6" d="M295.85,91.4l11.63,8.45L311.71,94"/><path class="cls-6" d="M295.85,91.4h14.38v7.19"/><path class="cls-6" d="M318,107.47,313.53,93.8,306.69,96"/><path class="cls-6" d="M318,107.47,306.34,99l4.23-5.81"/><path class="cls-6" d="M301.07,107.47,312.7,99l-4.22-5.81"/><path class="cls-6" d="M301.07,107.47l4.45-13.67L312.35,96"/><path class="cls-6" d="M309.52,24l-4.44,13.67,6.84,2.22"/><path class="cls-6" d="M309.52,24,314,37.63l-6.84,2.22"/><path class="cls-6" d="M323.2,33.89H308.82v7.19"/><path class="cls-6" d="M323.2,33.89l-11.64,8.45-4.22-5.81"/><path class="cls-6" d="M295.85,33.89l11.63,8.45,4.23-5.81"/><path class="cls-6" d="M295.85,33.89h14.38v7.19"/><path class="cls-6" d="M318,50l-4.44-13.68-6.84,2.23"/><path class="cls-6" d="M318,50l-11.63-8.45,4.23-5.82"/><path class="cls-6" d="M301.07,50l11.63-8.45-4.22-5.82"/><path class="cls-6" d="M301.07,50l4.45-13.68,6.83,2.23"/></g><path class="cls-6" d="M367,139l-4.45,13.67,6.84,2.22"/><path class="cls-6" d="M367,139l4.44,13.67-6.84,2.22"/><path class="cls-6" d="M380.7,148.9H366.32v7.19"/><path class="cls-6" d="M380.7,148.9l-11.63,8.45-4.23-5.81"/><path class="cls-6" d="M353.35,148.9,365,157.35l4.23-5.81"/><path class="cls-6" d="M353.35,148.9h14.38v7.19"/><path class="cls-6" d="M375.48,165,371,151.3l-6.83,2.22"/><path class="cls-6" d="M375.48,165l-11.63-8.45,4.22-5.81"/><path class="cls-6" d="M358.58,165l11.63-8.45L366,150.71"/><path class="cls-6" d="M358.58,165,363,151.3l6.84,2.22"/><path class="cls-6" d="M367,81.46l-4.45,13.68,6.84,2.22"/><path class="cls-6" d="M367,81.46l4.44,13.68-6.84,2.22"/><path class="cls-6" d="M380.7,91.4H366.32v7.19"/><path class="cls-6" d="M380.7,91.4l-11.63,8.45L364.84,94"/><path class="cls-6" d="M353.35,91.4,365,99.85,369.21,94"/><path class="cls-6" d="M353.35,91.4h14.38v7.19"/><path class="cls-6" d="M375.48,107.47,371,93.8,364.2,96"/><path class="cls-6" d="M375.48,107.47,363.85,99l4.22-5.81"/><path class="cls-6" d="M358.58,107.47,370.21,99,366,93.21"/><path class="cls-6" d="M358.58,107.47,363,93.8,369.86,96"/><path class="cls-6" d="M367,24l-4.45,13.67,6.84,2.22"/><path class="cls-6" d="M367,24l4.44,13.67-6.84,2.22"/><path class="cls-6" d="M380.7,33.89H366.32v7.19"/><path class="cls-6" d="M380.7,33.89l-11.63,8.45-4.23-5.81"/><path class="cls-6" d="M353.35,33.89,365,42.34l4.23-5.81"/><path class="cls-6" d="M353.35,33.89h14.38v7.19"/><path class="cls-6" d="M375.48,50,371,36.29l-6.83,2.23"/><path class="cls-6" d="M375.48,50l-11.63-8.45,4.22-5.82"/><path class="cls-6" d="M358.58,50l11.63-8.45L366,35.7"/><path class="cls-6" d="M358.58,50,363,36.29l6.84,2.23"/><path class="cls-6" d="M424.53,139l-4.44,13.67,6.83,2.22"/><path class="cls-6" d="M424.53,139,429,152.64l-6.83,2.22"/><path class="cls-6" d="M438.2,148.9H423.83v7.19"/><path class="cls-6" d="M438.2,148.9l-11.63,8.45-4.22-5.81"/><path class="cls-6" d="M410.86,148.9l11.63,8.45,4.22-5.81"/><path class="cls-6" d="M410.86,148.9h14.37v7.19"/><path class="cls-6" d="M433,165l-4.44-13.67-6.84,2.22"/><path class="cls-6" d="M433,165l-11.63-8.45,4.23-5.81"/><path class="cls-6" d="M416.08,165l11.63-8.45-4.22-5.81"/><path class="cls-6" d="M416.08,165l4.44-13.67,6.84,2.22"/><path class="cls-6" d="M424.53,81.46l-4.44,13.68,6.83,2.22"/><path class="cls-6" d="M424.53,81.46,429,95.14l-6.83,2.22"/><path class="cls-6" d="M438.2,91.4H423.83v7.19"/><path class="cls-6" d="M438.2,91.4l-11.63,8.45L422.35,94"/><path class="cls-6" d="M410.86,91.4l11.63,8.45L426.71,94"/><path class="cls-6" d="M410.86,91.4h14.37v7.19"/><path class="cls-6" d="M433,107.47,428.54,93.8,421.7,96"/><path class="cls-6" d="M433,107.47,421.35,99l4.23-5.81"/><path class="cls-6" d="M416.08,107.47,427.71,99l-4.22-5.81"/><path class="cls-6" d="M416.08,107.47l4.44-13.67L427.36,96"/><path class="cls-6" d="M424.53,24l-4.44,13.67,6.83,2.22"/><path class="cls-6" d="M424.53,24,429,37.63l-6.83,2.22"/><path class="cls-6" d="M438.2,33.89H423.83v7.19"/><path class="cls-6" d="M438.2,33.89l-11.63,8.45-4.22-5.81"/><path class="cls-6" d="M410.86,33.89l11.63,8.45,4.22-5.81"/><path class="cls-6" d="M410.86,33.89h14.37v7.19"/><path class="cls-6" d="M433,50l-4.44-13.68-6.84,2.23"/><path class="cls-6" d="M433,50l-11.63-8.45,4.23-5.82"/><path class="cls-6" d="M416.08,50l11.63-8.45-4.22-5.82"/><path class="cls-6" d="M416.08,50l4.44-13.68,6.84,2.23"/><path class="cls-6" d="M194.51,139l-4.44,13.67,6.84,2.22"/><path class="cls-6" d="M194.51,139,199,152.64l-6.84,2.22"/><path class="cls-6" d="M208.19,148.9H193.81v7.19"/><path class="cls-6" d="M208.19,148.9l-11.63,8.45-4.23-5.81"/><path class="cls-6" d="M180.84,148.9l11.63,8.45,4.23-5.81"/><path class="cls-6" d="M180.84,148.9h14.38v7.19"/><path class="cls-6" d="M203,165l-4.44-13.67-6.83,2.22"/><path class="cls-6" d="M203,165l-11.63-8.45,4.23-5.81"/><path class="cls-6" d="M186.06,165l11.64-8.45-4.23-5.81"/><path class="cls-6" d="M186.06,165l4.45-13.67,6.83,2.22"/><path class="cls-6" d="M252,139l-4.44,13.67,6.83,2.22"/><path class="cls-6" d="M252,139l4.44,13.67-6.84,2.22"/><path class="cls-6" d="M265.69,148.9H251.32v7.19"/><path class="cls-6" d="M265.69,148.9l-11.63,8.45-4.22-5.81"/><path class="cls-6" d="M238.35,148.9,250,157.35l4.22-5.81"/><path class="cls-6" d="M238.35,148.9h14.37v7.19"/><path class="cls-6" d="M260.47,165,256,151.3l-6.84,2.22"/><path class="cls-6" d="M260.47,165l-11.63-8.45,4.22-5.81"/><path class="cls-6" d="M243.57,165l11.63-8.45L251,150.71"/><path class="cls-6" d="M243.57,165,248,151.3l6.84,2.22"/><path class="cls-6" d="M252,81.46l-4.44,13.68,6.83,2.22"/><path class="cls-6" d="M252,81.46l4.44,13.68-6.84,2.22"/><path class="cls-6" d="M265.69,91.4H251.32v7.19"/><path class="cls-6" d="M265.69,91.4l-11.63,8.45L249.84,94"/><path class="cls-6" d="M238.35,91.4,250,99.85,254.2,94"/><path class="cls-6" d="M238.35,91.4h14.37v7.19"/><path class="cls-6" d="M260.47,107.47,256,93.8,249.19,96"/><path class="cls-6" d="M260.47,107.47,248.84,99l4.22-5.81"/><path class="cls-6" d="M243.57,107.47,255.2,99,251,93.21"/><path class="cls-6" d="M243.57,107.47,248,93.8,254.85,96"/></g><g id="Layer_1" data-name="Layer 1"><path class="cls-7" d="M863.1,6A25,25,0,0,1,888,30.9V569a24.9,24.9,0,0,1-24.9,24.9H32.9A24.82,24.82,0,0,1,8,569.1V30.9A25,25,0,0,1,32.9,6H863.1m0-6H32.9A30.86,30.86,0,0,0,2,30.9H2V569a30.88,30.88,0,0,0,30.9,31H863a30.86,30.86,0,0,0,30.9-30.9V30.9A30.71,30.71,0,0,0,863.1,0Z"/></g></svg>