<svg id="Layer_2" data-name="Layer 2" xmlns="http://www.w3.org/2000/svg" xmlns:xlink="http://www.w3.org/1999/xlink" viewBox="0 0 895 600"><defs><style>.cls-1{fill:none;}.cls-2{clip-path:url(#clip-path);}.cls-3{fill:#198a00;}.cls-4{fill:#de2010;}.cls-5,.cls-6{fill:#ef7d00;}.cls-6{stroke:#000;stroke-linecap:round;stroke-linejoin:round;stroke-width:0.75px;}.cls-7{fill:#939598;}</style><clipPath id="clip-path"><path class="cls-1" d="M34.72,0H859.28A30.82,30.82,0,0,1,890,30.93V569.07A30.82,30.82,0,0,1,859.28,600H34.72A30.82,30.82,0,0,1,4,569.07V30.93A30.82,30.82,0,0,1,34.72,0Z"/></clipPath></defs><title>Zâmbia</title><metadata><?xpacket begin="﻿" id="W5M0MpCehiHzreSzNTczkc9d"?>
<x:xmpmeta xmlns:x="adobe:ns:meta/" x:xmptk="Adobe XMP Core 5.6-c148 79.163820, 2019/02/20-18:54:02        ">
   <rdf:RDF xmlns:rdf="http://www.w3.org/1999/02/22-rdf-syntax-ns#">
      <rdf:Description rdf:about=""
            xmlns:dc="http://purl.org/dc/elements/1.1/"
            xmlns:xmp="http://ns.adobe.com/xap/1.0/"
            xmlns:xmpMM="http://ns.adobe.com/xap/1.0/mm/"
            xmlns:stEvt="http://ns.adobe.com/xap/1.0/sType/ResourceEvent#">
         <dc:title>
            <rdf:Alt>
               <rdf:li xml:lang="x-default">Zâmbia</rdf:li>
            </rdf:Alt>
         </dc:title>
         <xmp:MetadataDate>2019-09-10T15:08:13-03:00</xmp:MetadataDate>
         <xmpMM:InstanceID>xmp.iid:6745316f-6db9-4348-8835-6848274028f0</xmpMM:InstanceID>
         <xmpMM:DocumentID>xmp.did:0ccf98ae-ce3a-5c40-ad24-c2d753c88941</xmpMM:DocumentID>
         <xmpMM:OriginalDocumentID>xmp.did:0ccf98ae-ce3a-5c40-ad24-c2d753c88941</xmpMM:OriginalDocumentID>
         <xmpMM:History>
            <rdf:Seq>
               <rdf:li>
                  <rdf:Description>
                     <stEvt:action>saved</stEvt:action>
                     <stEvt:instanceID>xmp.iid:0ccf98ae-ce3a-5c40-ad24-c2d753c88941</stEvt:instanceID>
                     <stEvt:when>2019-09-10T15:07:22-03:00</stEvt:when>
                     <stEvt:softwareAgent>Adobe Bridge CC 2019 (Windows)</stEvt:softwareAgent>
                     <stEvt:changed>/metadata</stEvt:changed>
                  </rdf:Description>
               </rdf:li>
               <rdf:li>
                  <rdf:Description>
                     <stEvt:action>saved</stEvt:action>
                     <stEvt:instanceID>xmp.iid:6745316f-6db9-4348-8835-6848274028f0</stEvt:instanceID>
                     <stEvt:when>2019-09-10T15:08:13-03:00</stEvt:when>
                     <stEvt:softwareAgent>Adobe Bridge CC 2019 (Windows)</stEvt:softwareAgent>
                     <stEvt:changed>/metadata</stEvt:changed>
                  </rdf:Description>
               </rdf:li>
            </rdf:Seq>
         </xmpMM:History>
      </rdf:Description>
   </rdf:RDF>
</x:xmpmeta>
                                                                                                    
                                                                                                    
                                                                                                    
                                                                                                    
                                                                                                    
                                                                                                    
                                                                                                    
                                                                                                    
                                                                                                    
                                                                                                    
                                                                                                    
                                                                                                    
                                                                                                    
                                                                                                    
                                                                                                    
                                                          
<?xpacket end="w"?></metadata>
<g class="cls-2"><rect class="cls-3" x="1.94" y="-0.05" width="893.06" height="598.33"/><rect class="cls-4" x="576.05" y="215.54" width="212.63" height="382.74"/><rect class="cls-5" x="682.37" y="215.54" width="212.63" height="382.74"/><rect x="682.37" y="215.54" width="106.32" height="382.74"/><path class="cls-6" d="M816.93,74.5s36.58-14.34,40.12-17.29C858.66,59,842.39,77,810.81,83.66,839.49,77.45,864,57.94,869,58.54c1.45.29,1.13,19.06-64.61,35.31,45.44-10.93,71.86-31,71.54-28.81.32.44-4.51,15.81-44.31,27.78,11.12-2.37,41.25-19.21,40.93-16,1,1.33-29.17,36.8-83.62,25.27,43.5,10.34,71.69-14.63,75.72-14.19.81.15-8,21.87-62.83,23.2,26.26-2.51,18.69-.14,18.69-.14s-15.47,11.08-34.16,3.54c14.66,3.7,16.27,3.84,16.59,5-1,1.47-13,3.69-24.65-2.07,9.35,3.54,17.73,4.14,17.89,5.47-.16.44-6.12,3.54-11.44,1.33s-54.3-29.85-54.3-29.85l83.46-21Z"/><path class="cls-6" d="M718.82,149.25c-7.34,0-7.54,6-7.54,6s-.61.43-.21,3.33a16.67,16.67,0,0,1,1.82-2.59c.81.12,4.18,1.05,9.5-2.78-4.85,4.63-2,6.36-2,6.36s-1.14,3.64,2.56,4.38a2.68,2.68,0,0,1-.47-2.78s5.18-.49,4.85-6.29c.2,5.24,3.3,6.54,3.3,6.54a3.28,3.28,0,0,0,3.36,3.15,4.23,4.23,0,0,1-1.41-3.77s4.38-2.9.67-7.84c2.23-1.17,4-4.45,4-4.45a27.8,27.8,0,0,1-4.44-2.16c-.67-1.29-.07-8.4-.07-8.4l-1.82-9.2-5.18,14.33C726,141,726.16,149.25,718.82,149.25Z"/><path class="cls-6" d="M755.06,128.58c.16.15,5.48,5.62,10.64,5.32,1.93-1.48-4-4.73-4-5.47,2.09,1.78,11,8.72,16.59,6.21,2.26-3-4-2.51-11-10.49,4.83,2.95,16.91,9.46,22.55,6.94,2.42-2.36-12.56-9.75-17.56-15.51l-12.89-6.06-17.56,13.15Z"/><path class="cls-6" d="M735.25,83.66s6-3.25,29.8-1.63c2.58.3,16.27-4.28,20.62-5.61,6.93-1.19,29-5.62,35-9.76,4.19-.44-1.13,7.1-6.45,8.87-5.64,2.36-26.1,8.87-33.35,8,8.7.15,3.87,6.65-10.63,3.55,6.93,3.54,4.35,4.13,4.35,4.13s-12.25.6-15.47-1.92c8.22,2.81,4.83,3.85,4.83,3.85s-8.37.73-12.24-.89c6,1.62,2.9,2.66,2.9,2.66a22.07,22.07,0,0,1-8.86-.59C741.69,93,735.57,83.66,735.25,83.66Z"/><path class="cls-6" d="M744.81,131.64l.87,14.46a10,10,0,0,1-.87,1.17c-.41.43-11.18-1.55-9.7,6,0,3.09.07,3.89,2.36,5.62a8.91,8.91,0,0,1-.41-3.46s3,1.67,6-2.9c-2,4.51-.61,6.11-.14,6.24.47.8-.81,4.44,3.23,4.38a3.15,3.15,0,0,1-.8-3.33s4.24-.62,2.76-7.66c1.55-1.42,2.15-.06,2.15-.06s.47,4.2,4.18,3.33c1.68.87-.27,3.15-.27,3.15s2.69.06,3.5-2,1.75-5.86-2.7-7.41c-.53-1.48,1.76-1.6,1.76-1.6s2.82.86,3.63,2.16.54-3.4-3-3.89c-4.31-.13-4.58-.93-4.58-1.11s-.74-10.5-1.08-13.47Z"/><path class="cls-6" d="M759.79,144c.06-.66-7.35-9.81-5.47-11,1.88.36,5,4.51,7.45,3.16-.75-1.62-3-.7-5.51-4.85-2.53-4.7-2.9-11.74-11.76-19.42,5.73,8.13,18.75,12.89,19.3,10.52S752.34,111.05,753,108.89c2.39,4.44,14.45,14.32,23.34,13.5.61-1.9-7.28-5.74-9.31-9.33-5.67-3.5-20.86-15.5-21.17-18.29-5.52-7.39-9-9.63-10.58-10.48a3.84,3.84,0,0,1-.9-1.72c-3.43-7.42,1.11-9.83,3.77-10.19,2.19-.22,2.83.08,4.4-.62-1.86-.67-3.73-1.29-5.59-2,2.43,1.63,8.64.19,7.3,4.9,2.72-1,8.51-7.27-6.57-8.7-4.91-5.16-25.1-8.13-30.15,14.41a18.59,18.59,0,0,0,1.9,1.46c-6.37-2.83-23.57-5-29.77-5.94-16.74-4.43-34.12-15.1-35.79-13.79-2.24.91,10.11,11.45,9.47,11.68a295.56,295.56,0,0,0-29.59-13.47C617.3,58.15,610.89,53,610.18,54c-2.35,4.48,10.27,15.73,12.62,17.06s20.81,9.12,20.54,9.22c-27.81-11.58-32.48-13.68-33.87-15-2.45-.51-8.43-7.91-10.09-7.43-.91.82.92,12.51,14.19,17.75,2.16,1.45,28.45,10.1,28.19,10.78-.06.16-30.11-11.38-31.27-11.79-5.8-2.08-12.9-9.39-14.23-8.57s3.27,8.65,9.13,11.13c3.07,1.24,14.83,6.59,25.44,10,.67.23-19.06-6.86-28.55-10.5-4.3-2.19-6.33-4.92-7-4.33-1,.59,1.56,12.26,32.05,18.85.81.32,10.74-2.16,10.25-1.83-.13.08-9.86,2-10.81,2s-6.18.58-6.28.84c-.32.78,1.94,5,17.68,4.09,2-.11,12.93-3.64,12-2.88-.46.38-14.88,4.67-16,4.76s-6,.61-6.2,1.1c-.23.67,3.75,3.65,12.2,4.13,7.49.36,21.71-4.2,21.43-3.9s-13.72,4.51-14.07,4.77-5.4.5-5.57.84c-.4.86,7.09,7.29,29.25.43-2.23,2.76-13,4.65-12.95,5.14s2.37,2.51,6.12,3.27a21.25,21.25,0,0,0,6.8,0c4.22-.78,8.66-2.31,14.31-7.1.67,1.51-14.11,8.37-13.42,9,3.21,2.73,13.86-.35,14.55-.71s20.51-10.6,20.44-11.78c.31,1.52-25.53,14.4-25.26,14.92,1.66,2.43,10.49-.12,10.91-.35s11.27-5.59,11.57-5.75-12.75,7-11.59,8.09c-.56,4.65,20.37-3.21,22-4.19.82-.49-10,4.39-10.08,6.7,3.5,5.43,14.71,3.71,16.44,2.52.87-.6-1,4-.41,3.61a18.14,18.14,0,0,0,3.3-4.25c-.27,1.52-1.5,3.91-2.22,6.65s-.93,5.84-1.91,9.12c-.23,1.45,6.91-2.82,5.87-13,.61,5.31-2.25,15.23-1.5,15.74,1.5,1,5.64-4.94,6.06-9,1.23,2,3.81,6.3,6,7.28-.25-3.08,0-2.94-1-6a150.82,150.82,0,0,0,.8-15.89c6,10.61,8.44,15.09,6.76,23.21,1.79.69,4.66-5.67,4.43-8.94C749.68,142.86,759.64,144.22,759.79,144Z"/><path class="cls-6" d="M659.22,76.6A16.94,16.94,0,0,1,650,79.28c1.27,4.69,11.87,1.09,11.87,1.09s-5.12,5.2-8.77,6c2.19,1.68,11.42,1.09,13,.25s4.29-4.1,4.29-4.1-9.5,10-10.87,10c-.18,1.17,10,.75,12.06-1a51.28,51.28,0,0,1,7.4-4.35S665.07,96,664.43,96c5.2,1.25,15.61-1.51,22.28-5.28-9.86,6-10.78,7.12-15.8,9.13,4.48.92,6.76,3.69,21.92-2.35a35.89,35.89,0,0,0,13.61-10.63c-5.39,6.61-13.88,12.23-23.29,17.75-.55,1,10.05,5.11,23.56-7.79"/><path class="cls-6" d="M732.65,104.58a14.05,14.05,0,0,0,4.57,7c3.65,3,3.92,6,3.92,6"/><path class="cls-6" d="M730.82,79a12.48,12.48,0,0,0,5,5.78c3.83,2.26,9.59,9.38,10,10.64.45,1.52,2.65,12.48,2.47,13.65"/><path class="cls-6" d="M707.53,84.39c.28,1.34-5.38,8.13,2.38,16.09-7,7.87-7,8.88-7,8.88s3.92,2,11-3.52c11.6,13.07,7.73,19,7.73,19"/><path class="cls-6" d="M720.65,115.66s-1.07-1.4.83-6.65c1.72,1.9,3.62,2.3,4.46,3.07s9.59,1.93,10.15,7.3"/><path class="cls-6" d="M730.94,66.46c0-.4-1.76-3.87-8.34.47C726.13,67.13,729.61,69,730.94,66.46Z"/><path class="cls-6" d="M793.73,82.33c.32.15,19.66,4,26.1,2.07-8.22,10-24.65,3.25-24.65,3.25,8.06,2.21,8.38,2.07,11,4.14.8,1.92-14.83,1-20-1.63C800.5,94.3,800.82,94,801.3,95.63c.65,2.21-23.52-.59-25.61-3.55,6.44,4.58,10,5.47,13.53,7.54-4.35,1.77-12.41,3.54-27.23-6.06,19.5,16.25,37.06,15.22,39.8,18.17-6.77,9.17-33-5.46-45.12-12.85s26.43,17.88,30,17.44c-1.77,2.51-14.5.29-15.3-.89"/><path class="cls-6" d="M798.73,99.32a76.64,76.64,0,0,1-10,.15"/><path class="cls-6" d="M653.56,73.92s14.7,7.12,20.91,6.62a11.22,11.22,0,0,1-4.11,2,19.79,19.79,0,0,0,12.33,1.34c-1.55,1.42-3.56,3-3.56,3A16.87,16.87,0,0,0,691,85.82a44.71,44.71,0,0,0-3,3.77l4.38.25"/></g><g id="Layer_1" data-name="Layer 1"><path class="cls-7" d="M863.1,6A25,25,0,0,1,888,30.9V569a24.9,24.9,0,0,1-24.9,24.9H32.9A24.82,24.82,0,0,1,8,569.1V30.9A25,25,0,0,1,32.9,6H863.1m0-6H32.9A30.86,30.86,0,0,0,2,30.9H2V569a30.88,30.88,0,0,0,30.9,31H863a30.86,30.86,0,0,0,30.9-30.9V30.9A30.71,30.71,0,0,0,863.1,0Z"/></g></svg>