<svg id="Layer_1" data-name="Layer 1" xmlns="http://www.w3.org/2000/svg" viewBox="0 0 600 600"><defs><style>.cls-1{fill:#f9af1b;}.cls-2{fill:#f9f8f7;}.cls-3{fill:#19151f;}</style></defs><title>Artboard 1</title><path class="cls-1" d="M48,116.6q22.27-24.36,44.4-48.53c16.94-18.46,34-36.86,50.83-55.39,2.09-2.29,3.32-2.66,6.06-.68,27,19.5,55.34,36.81,86.84,48.3A186.76,186.76,0,0,0,296.84,72c32.34.6,62.58-7.83,91.53-21.73,22.53-10.82,43.52-24.13,63.72-38.75,2.13-1.54,3-1.41,4.76.48q32.89,36.08,66,72c9.25,10.08,18.45,20.2,27.79,30.2,1.65,1.77,2.13,2.61.07,4.59-19.89,19.21-27.17,43.33-29.15,70.33-1.85,25.08,6.27,47.35,15.81,69.4,10.56,24.4,23.28,47.85,33,72.66,8.35,21.37,15,43.15,16.46,66.28,2,32.65-9.11,59.67-33.61,81.48-15.84,14.11-34.57,22.61-54.1,29.79-33.37,12.27-67.58,22-101,34-16.38,5.88-32.61,12.16-48.89,18.33-16.79,6.37-31.09,16.79-44.82,28.06-2.62,2.16-4.52,3-7.52.35-19.56-17.51-43-27.78-67.29-36.94-39.09-14.7-79.13-26.49-118.44-40.45-17.35-6.16-34.8-12.21-50.13-22.82-23.35-16.15-40.42-36.72-45.62-65.51-3.54-19.53-1.08-38.68,3.63-57.72C24.61,343.2,34,321.74,43.72,300.4c10.25-22.47,22.2-44.19,29.7-67.87q15.1-47.71-7.08-92.51C61.9,131.07,55.06,123.73,48,116.6ZM35.53,404.19c-.47,26.41,11.34,46.67,31.11,63.18,13.57,11.33,29.65,17.56,46,23.32,41.79,14.78,84.43,27.08,125.8,43.13,21.13,8.2,42.38,15.93,60.07,30.69,2,1.66,3,.58,4.32-.5,12.33-10,26.14-17.33,40.85-23q19.53-7.56,39.18-14.81c34.05-12.55,68.93-22.62,103.14-34.72,15.18-5.37,30.38-10.8,43.55-20.58,25.11-18.66,38.28-42.88,35.32-74.76-1.4-15.14-5-29.79-9.91-44.15-8.85-26.1-20.69-50.92-32.67-75.66-14.69-30.36-25.16-61.39-21.59-96,2.28-22.16,8-42.67,21.74-60.47,1.93-2.5,1.71-3.78-.33-6q-33.88-36.68-67.51-73.58c-2.22-2.44-3.6-2.5-6.26-.71a387.13,387.13,0,0,1-61,34.06C336.43,95.9,284.74,99.44,232,80.87,203.4,70.8,177.17,56.18,152.08,39.39c-1.93-1.29-3.17-2.21-5.32.15q-34.17,37.58-68.65,74.88c-1.78,1.94-1.62,3-.11,5,8.64,11.19,15,23.59,18.2,37.39,8.18,35.56,5,70-10.39,103.3-12,25.86-24.6,51.44-35,78C42.51,359.36,35.89,381.07,35.53,404.19Z"/><path class="cls-2" d="M35.53,404.19c.36-23.12,7-44.83,15.29-66.11,10.39-26.56,23-52.14,35-78,15.4-33.34,18.57-67.74,10.39-103.3C93,143,86.64,130.58,78,119.39c-1.51-2-1.67-3,.11-5q34.44-37.32,68.65-74.88c2.15-2.36,3.39-1.44,5.32-.15C177.17,56.18,203.4,70.8,232,80.87c52.75,18.57,104.44,15,155.28-7.26a387.13,387.13,0,0,0,61-34.06c2.66-1.79,4-1.73,6.26.71q33.6,36.93,67.51,73.58c2,2.21,2.26,3.49.33,6-13.73,17.8-19.46,38.31-21.74,60.47-3.57,34.61,6.9,65.64,21.59,96,12,24.74,23.82,49.56,32.67,75.66,4.87,14.36,8.51,29,9.91,44.15,3,31.88-10.21,56.1-35.32,74.76-13.17,9.78-28.37,15.21-43.55,20.58-34.21,12.1-69.09,22.17-103.14,34.72q-19.65,7.25-39.18,14.81c-14.71,5.7-28.52,13.07-40.85,23-1.33,1.08-2.32,2.16-4.32.5-17.69-14.76-38.94-22.49-60.07-30.69-41.37-16.05-84-28.35-125.8-43.13-16.3-5.76-32.38-12-45.95-23.32C46.87,450.86,35.06,430.6,35.53,404.19ZM66,347.5c1.25-.56,1.65-.69,2-.89L303.72,213.72Q395.82,161.79,488,110c3.76-2.11,3.64-3.26.88-6.2Q469.93,83.6,451.44,63c-1.9-2.11-3.12-2.37-5.61-.78a382.2,382.2,0,0,1-51.7,27.65c-54.67,24-110.28,27.73-167,8C201.58,89,177.74,76.7,154.91,62.35c-1.7-1.07-2.95-2.35-5-.06q-24.51,27.09-49.32,53.91c-1.42,1.54-1.42,2.56-.38,4.37,18.89,33,21.26,68.57,15.3,105.05-3.53,21.6-13.14,41.28-22.35,61C83.83,306.46,74.56,326.34,66,347.5Zm-9.21,57.92c-.46,13.23,4.46,26.49,15,37.67,1.44,1.53,2.44,1.83,4.33.69,5.18-3.12,10.51-6,15.78-8.95L343.29,293.16q66.6-37.55,133.25-75c2.47-1.39,3.27-2.77,3-5.69A217.8,217.8,0,0,1,480.63,168a125.32,125.32,0,0,1,15.59-47.26c.45-.78,1.6-1.63.51-2.62s-1.87,0-2.73.48c-.51.27-1,.58-1.49.87Q347.81,201,203.11,282.54,136.49,320.07,69.87,357.6c-2.18,1.23-4.44,2.16-5.35,5.15C60.5,376,57.12,389.39,56.83,405.42ZM92.7,446.53c11,6,21.35,11.55,31.72,17.09,2.15,1.15,4.14.25,6.15-.72,7.33-3.54,13.71-8.43,19.85-13.68,5.17-4.42,6.8-4.54,12.68-1.33,9.22,5,18.49,10,27.68,15.05a7.24,7.24,0,0,0,7.32.09,93.59,93.59,0,0,0,19.22-13.09c6.45-5.45,7.3-5.47,14.84-1.35,8.58,4.7,17.24,9.26,25.77,14.05a8.13,8.13,0,0,0,8.49.13c7.29-3.65,13.64-8.57,19.81-13.77,4.88-4.1,6.44-4.3,11.95-1.33,9.12,4.92,18.29,9.74,27.32,14.83a8.38,8.38,0,0,0,8.85.17,99.46,99.46,0,0,0,19.11-13.27c5.58-4.75,6.82-4.81,13.4-1.23,8.84,4.83,17.77,9.5,26.55,14.42a8.14,8.14,0,0,0,8.47.18c7.33-3.6,13.62-8.58,19.81-13.77,5-4.17,6.54-4.29,12.34-1.14,9,4.87,18,9.6,26.92,14.65,3.29,1.87,5.94,1.66,9.24,0,7.14-3.63,13.33-8.51,19.41-13.59,4.73-4,6.51-4.15,12-1.17,4.92,2.68,9.86,5.34,14.75,8.1,1.47.84,2.55,1.29,4.2,0,9.09-6.91,16.7-15,21.51-25.51,1-2.12,2.34-4.2,2.2-6.82-8,3.49-14.52,8.65-20.93,14-5.7,4.78-6.69,4.87-13.42,1.23-8.73-4.72-17.54-9.3-26.15-14.23-3.43-2-6.18-1.8-9.61,0-7,3.63-13.05,8.41-19,13.39-5,4.21-6.51,4.36-12.35,1.19-9.1-4.94-18.26-9.8-27.29-14.86-3-1.66-5.45-1.56-8.46,0-7.28,3.67-13.57,8.66-19.78,13.8-5,4.1-6.36,4.27-12,1.24-9.25-5-18.5-10-27.67-15.07a7.75,7.75,0,0,0-8.08-.11c-7.26,3.69-13.63,8.57-19.79,13.78-5.08,4.29-6.53,4.46-12.35,1.32-9-4.84-18-9.59-26.92-14.63a8.61,8.61,0,0,0-9.22-.21c-7.1,3.69-13.31,8.54-19.4,13.6-5.08,4.22-6.52,4.34-12.35,1.18-9.23-5-18.5-9.94-27.68-15a7.41,7.41,0,0,0-7.69,0c-7.41,3.71-13.87,8.7-20.16,14-4.83,4.07-6.37,4.23-12,1.2-9.24-5-18.49-10-27.66-15.08-2.81-1.57-5.19-1.46-8.09-.07-7.78,3.74-14.34,9.13-20.82,14.66-2.17,1.87-4.52,3.49-7.4,2.08-2.73-1.35-4.81-.51-7.07,1S96,444.67,92.7,446.53Zm68.69-38.65,30.76,16.61c2,1.09,3.82.44,5.72-.48,7.46-3.59,14-8.54,20.24-13.86,5.28-4.49,6.83-4.57,13.08-1.18,9,4.88,18.05,9.57,26.94,14.6,3,1.7,5.41,1.48,8.41,0,7.3-3.64,13.58-8.64,19.79-13.78,4.76-3.94,6.45-4.12,12-1.13,9.25,5,18.53,9.9,27.69,15,2.84,1.59,5.15,1.45,8,0,7.29-3.64,13.64-8.53,19.8-13.76,4.88-4.14,6.75-4.29,12.39-1.22,9.22,5,18.5,9.94,27.67,15.06a7.37,7.37,0,0,0,7.67.06c7.4-3.71,13.89-8.67,20.15-14,4.7-4,6.62-4.16,12-1.25,9.36,5.07,18.75,10.08,28.05,15.25a7.16,7.16,0,0,0,7.29.12c7.59-3.69,14.12-8.85,20.53-14.21,4.74-4,6.47-4.06,12-1.07,7.61,4.09,15.6,7.61,22.69,12.45,6.84,4.67,12.51,4,18.75-.52,2-1.45,3.28-2.85,3.65-5.35,1.45-9.68.5-19.24-1-28.8-.36-2.27-1.06-2.36-3.07-1.38-7.47,3.62-13.85,8.74-20.15,14-4.55,3.81-6.3,4-11.65,1.08-9.5-5.11-19-10.18-28.46-15.4a6.61,6.61,0,0,0-6.85-.05c-7.56,3.73-14.18,8.74-20.55,14.17-4.73,4-6.47,4.21-12,1.23-9.25-5-18.53-9.89-27.69-15a7.58,7.58,0,0,0-8-.14c-7.29,3.65-13.65,8.53-19.82,13.73-5.16,4.33-6.64,4.47-12.72,1.19-9.24-5-18.51-9.92-27.69-15-2.55-1.43-4.62-1.31-7.23,0-7.45,3.65-13.91,8.64-20.19,13.94-5,4.21-6.66,4.36-12.37,1.27-9-4.86-18-9.59-26.9-14.68-3.43-2-6.18-1.7-9.56.08a110,110,0,0,0-19,13.39c-4.94,4.14-6.47,4.29-12.35,1.12-9-4.85-18-9.57-26.91-14.64-3.3-1.89-5.93-1.68-9.2,0a94.74,94.74,0,0,0-18.7,13.09c-3.07,2.68-6.07,5-10.37,2.85-.82-.42-1.37,0-2,.34C168.85,403.56,165.41,405.56,161.39,407.88Zm333.16,61.75c-4.33-2.35-8.27-4.39-12.12-6.61-2.37-1.37-4.45-1.22-6.9,0-7.6,3.68-14.14,8.81-20.53,14.2-4.74,4-6.53,4.21-12,1.24-9.23-5-18.47-10-27.63-15.11a7.77,7.77,0,0,0-8.09-.11c-7.4,3.73-13.8,8.8-20.11,14.06-4.78,4-6.43,4.1-12,1.08-9.23-5-18.5-9.92-27.65-15.07-2.85-1.6-5.2-1.43-8.06,0-7.31,3.61-13.57,8.65-19.78,13.79-5,4.12-6.67,4.34-12.38,1.25-9.23-5-18.47-10-27.63-15.1a7.46,7.46,0,0,0-7.71-.09c-7.25,3.67-13.61,8.58-19.8,13.75-5.43,4.53-6.71,4.61-13.1,1.15-8.72-4.73-17.53-9.31-26.13-14.25-3.38-1.94-6.1-2-9.61-.18-7.09,3.7-13.26,8.59-19.34,13.66-4.76,4-6.51,4.13-12,1.13-9.23-5-18.5-9.94-27.65-15.08a7.65,7.65,0,0,0-8.07-.05,109.38,109.38,0,0,0-15.52,10.08c-.44.34-1.14.4-1,1.13a1.74,1.74,0,0,0,1.44,1.35c10.34,2,20,6.31,30,9.25,1.11.32,2.14.88,3.3.27,2.51-1.31,4.89-.45,6.94.86,11.22,7.18,24.27,9.57,36.47,14.18a4.78,4.78,0,0,0,4.39-.37c6.05-3.19,11.11-7.72,16.35-12,4.94-4,6.29-4.21,11.94-1.15,9.36,5.07,18.75,10.08,28.06,15.24a7.12,7.12,0,0,0,7.27.07c7.49-3.6,14-8.59,20.21-13.93,5.07-4.34,6.41-4.52,12.28-1.35,9.11,4.93,18.27,9.78,27.28,14.88,3.13,1.77,5.69,1.57,8.84,0,7.15-3.61,13.37-8.44,19.41-13.6,5.05-4.31,6.41-4.4,12.3-1.21,9,4.86,18,9.63,26.91,14.64,1.87,1.05,3.31.82,5.21.4,9.08-2,16-7.52,22.83-13.37,5.74-4.93,7.07-5.1,13.68-1.12a6.4,6.4,0,0,0,6,.5c12.28-4.09,24.59-8,36.86-12.16C483.19,474,488.85,472.4,494.55,469.63ZM230,369.18c10.25,5.56,19.87,10.74,29.44,16,2.17,1.19,4,.78,6.1-.23,7.71-3.75,14.4-9,20.91-14.43,4.6-3.87,6.28-4,11.63-1.11,9.5,5.11,19,10.17,28.47,15.4a6.65,6.65,0,0,0,6.87.08c7.54-3.74,14.17-8.76,20.53-14.2,4.74-4.05,6.46-4.23,12-1.25,9.13,4.91,18.27,9.78,27.3,14.85a8.27,8.27,0,0,0,8.8.17c7.26-3.71,13.55-8.69,19.76-13.83,4.8-4,6.4-4.14,12-1.12,9.37,5.05,18.77,10.05,28.07,15.23a6.91,6.91,0,0,0,7.25.06A102.25,102.25,0,0,0,489,371.1c5.43-4.59,6.89-4.72,13.08-1.36,9.36,5.07,18.7,10.18,28.08,15.22,2.73,1.48,13.11-2,14.07-4.71a3.94,3.94,0,0,0-.18-2.1c-2.12-8.67-4.68-17.21-7.61-25.65-.71-2-1.46-2.57-3.28-1.06-3.55,2.94-7.41,5.54-10.75,8.69-3.68,3.46-7.18,3.35-11.33,1-9.31-5.17-18.78-10.05-28.07-15.25-2.85-1.59-5.18-1.46-8.06,0-7.31,3.62-13.67,8.51-19.8,13.77-4.84,4.14-6.65,4.31-12.36,1.23-9.24-5-18.53-9.91-27.7-15-2.7-1.51-4.9-1.42-7.65-.08-7.46,3.65-13.92,8.65-20.18,14-4.71,4-6.48,4.18-12,1.23-9.26-5-18.55-9.89-27.71-15a7.68,7.68,0,0,0-8-.13c-7.33,3.6-13.65,8.53-19.84,13.73-5.1,4.28-6.72,4.4-12.71,1.15q-13.67-7.41-27.33-14.8c-2.08-1.13-4.07-2.13-6.48-.85a106.22,106.22,0,0,0-15.65,9.76c-4.62,3.62-8.2,9.84-15.73,7.77-.32-.08-.78.31-1.16.52Zm68.89-39.06a11.73,11.73,0,0,0,1.6,1.41c8.71,4.73,17.47,9.38,26.14,14.19,2.43,1.35,4.43,1.16,6.87,0,7.33-3.55,13.69-8.45,19.86-13.65,5.71-4.81,6.71-4.93,13.41-1.32,9.11,4.91,18.24,9.79,27.28,14.82a7,7,0,0,0,7.25.14c7.46-3.64,13.87-8.69,20.18-13.94,5.32-4.43,6.59-4.53,12.71-1.22,9.23,5,18.48,10,27.64,15.06a7,7,0,0,0,7.26.1,88.34,88.34,0,0,0,20.43-14.31c3.81-3.43,7.37-3.73,11.72-1.29,9.15,5.14,18.41,10.09,27.65,15.07,1.51.81,3,2.2,5.24,1.34-3.31-8.95-7-17.49-11.12-26.43-4.26,5.62-8.73,3.86-13.51,1.17-8.89-5-18-9.71-26.89-14.65a7.18,7.18,0,0,0-7.3,0c-7.45,3.64-14,8.57-20.18,14-4.86,4.22-6.69,4.37-12.34,1.29-9.22-5-18.46-10-27.63-15.09a7.55,7.55,0,0,0-7.71-.13c-7.47,3.63-13.9,8.68-20.17,14-4.95,4.19-6.54,4.3-12.31,1.16q-14-7.62-28.06-15.23c-1.67-.9-3.09-1.59-5.14-.41-8,4.59-16.3,8.62-23,15.13-1.14,1.1-2.37,2.57-3.95,2.43C308.41,323.1,304.48,328,298.89,330.12Zm68-38.49c10,5.43,18.86,10.18,27.65,15,2.45,1.36,4.55.94,6.93-.19,7.49-3.56,13.84-8.73,20.13-14,5.06-4.23,6.52-4.38,12.37-1.22,9,4.84,18,9.61,26.86,14.66a8.64,8.64,0,0,0,9.23.17c7.39-3.77,13.81-8.83,20-14.24,3.45-3,6.79-3.32,10.63-1.19,3.44,1.91,6.92,3.75,10.86,5.88a11.19,11.19,0,0,0-.25-2.26c-3.8-9.83-8.68-18.6-19.69-22.14-3-.95-5.68-2.78-8.37-4.43-2.92-1.79-5.51-1.49-8.5,0-7,3.5-13.15,8.23-19.08,13.28-5.69,4.85-6.89,4.88-13.37,1.34-8.95-4.89-17.95-9.71-26.89-14.62-1.73-.95-3.17-1.46-5.12-.23-8.24,5.21-17.55,8.69-24.78,15.54a5.45,5.45,0,0,1-3,1.6C376.67,285,372.91,289.38,366.88,291.63ZM249,518.76c8.57,3.52,16.84,6.22,24.41,10.26,5.51,2.93,9.26,2.49,13.16-2,3.25-3.77,7.1-3.71,11.26-1.31,4.85,2.81,9.85,5.35,14.7,8.17a3.83,3.83,0,0,0,4.31,0c13.12-7,27.06-12,40.94-17.16,2.89-1.08,5.75-2.21,9.35-3.6-7.57-4.1-14.38-7.77-21.16-11.47-2-1.11-3.79-.57-5.72.33-7.64,3.6-14.14,8.82-20.56,14.18-5.08,4.23-6.63,4.38-12.36,1.28q-13.86-7.49-27.67-15.05c-2.08-1.14-4-1.88-6.48-.73C264.17,505.84,256.68,512,249,518.76Zm186.8-265.61c9.38,5.07,18.1,9.73,26.77,14.51,2.32,1.29,4.29.79,6.51-.25,8.05-3.76,14.72-9.44,21.48-15,1.31-1.09,1.65-1.95,1-3.61a142.26,142.26,0,0,1-6.11-21c-.36-1.79-.91-2.13-2.55-1.19C467.45,235.32,452,244,435.78,253.15ZM222.22,508.92c-5.57-2.68-9.88-8.9-16.91-7.43l-.42,1.17Z"/><path class="cls-3" d="M66,347.5c8.52-21.16,17.79-41,27.09-60.92,9.21-19.68,18.82-39.36,22.35-61,6-36.48,3.59-72.06-15.3-105-1-1.81-1-2.83.38-4.37q24.76-26.86,49.32-53.91c2.08-2.29,3.33-1,5,.06C177.74,76.7,201.58,89,227.11,97.91c56.74,19.71,112.35,15.94,167-8a382.2,382.2,0,0,0,51.7-27.65c2.49-1.59,3.71-1.33,5.61.78Q470,83.54,488.86,103.78c2.76,2.94,2.88,4.09-.88,6.2q-92.21,51.74-184.26,103.74L68,346.61C67.69,346.81,67.29,346.94,66,347.5Zm138.3-214.92A46.41,46.41,0,1,0,251,178.89,46.55,46.55,0,0,0,204.34,132.58Z"/><path class="cls-1" d="M56.83,405.42c.29-16,3.67-29.4,7.69-42.67.91-3,3.17-3.92,5.35-5.15Q136.49,320,203.11,282.54q144.7-81.51,289.4-163c.5-.29,1-.6,1.49-.87.86-.47,1.78-1.34,2.73-.48s-.06,1.84-.51,2.62A125.32,125.32,0,0,0,480.63,168a217.8,217.8,0,0,0-1.06,44.43c.24,2.92-.56,4.3-3,5.69q-66.68,37.43-133.25,75L91.92,434.83c-5.27,3-10.6,5.83-15.78,8.95-1.89,1.14-2.89.84-4.33-.69C61.29,431.91,56.37,418.65,56.83,405.42ZM387.45,223.66l-.43.7-15-7.22c-2.86-1.38-9.36.33-11,2.83-.63,1-.09,1.6.33,2.32,4.68,8.11,9.4,16.19,14,24.34,1,1.79,2,2.25,3.69,1a17.65,17.65,0,0,1,3.37-1.94c2.44-1,2.73-2.21,1.2-4.51-2.41-3.61-4.38-7.52-6.53-11.31a139.34,139.34,0,0,1,16.43,7c1.81.86,9.55-2.07,10.1-3.85a2.27,2.27,0,0,0-.37-1.53c-4.81-8.37-9.68-16.69-14.43-25.09-1-1.78-2-1.65-3.45-.71a20.24,20.24,0,0,1-3.36,2c-2.42,1-2.91,2.13-1.33,4.5C383.14,215.85,385.21,219.81,387.45,223.66ZM194.83,321.17c-.12,11.37,10.56,20.91,20.53,18.2a25.53,25.53,0,0,0,13.23-8.49c4.45-5.43,4.46-6,1-12-.86-1.5-1.8-3-2.53-4.52-.93-2-1.94-2.48-3.94-1.12a55.45,55.45,0,0,1-7.85,4.49c-3.1,1.41-3.18,2.87-1.55,5.78,2,3.65,3.61,1,5.43.25.85-.36,1.63-1.45,2.61-.22a2.29,2.29,0,0,1,.29,2.75c-2.78,5.76-9.82,6.69-13.8,1.74a17.08,17.08,0,0,1-3.61-7.29c-.82-4.08,3.11-9.14,6.78-7.87,4.17,1.45,5.85-1.16,8.43-2.85,3.43-2.24,2-3.55-.6-4.95C210.37,300.25,195,310.41,194.83,321.17Zm68.38-15a15.07,15.07,0,0,0-2.38-7.74c-2.09-3.61-4.15-7.24-6.29-10.82-4.15-6.95-1.93-6.46-9.64-2.41-2.5,1.31-2.37,2.45-1,4.62,2.9,4.63,5.48,9.47,8.19,14.22,1.78,3.12,1.51,5.81-1.75,7.75s-5.81.89-7.65-2.17c-2.22-3.7-4.34-7.46-6.51-11.19-4-6.92-4-6.88-10.61-2.09-1.29.93-1.7,1.61-.8,3.11,3.2,5.3,6.06,10.81,9.41,16,3.54,5.48,8.64,7.4,14,5.87,8.67-2.46,14.59-8.1,15-14.3C263.22,306.7,263.21,306.42,263.21,306.13Zm-158.85,78.4c-.21-2.74-3.38-4.35-6.43-2.57-2.36,1.37-4.73,2.73-7.06,4.15-1.76,1.08-3.14,2.23-4.69-.62-1.69-3.11,1.1-3,2.31-3.81,3.14-2,6.44-3.8,9.69-5.64,3-1.69.32-3.15-.28-4.55s-1-3.18-3.33-1.76c-6.67,4-13.42,7.82-20.16,11.69-1.11.63-1.82,1.09-.92,2.61q7.42,12.64,14.62,25.43c.92,1.64,1.78,1.36,3.08.59,6.67-4,13.34-7.95,20.12-11.73,3-1.66.83-3.13,0-4.46s-.92-4.08-3.86-2.2c-3.39,2.17-7,3.92-10.42,6.1-2,1.28-3,1.24-4.28-.94s-1.1-3.45,1.25-4.63c3-1.47,5.77-3.25,8.61-4.93C103.42,386.79,104.61,386.62,104.36,384.53ZM312.63,266.74c3.7.23,7.05-1.28,10.53-2.12,2.19-.53,4.25-.58,5,1.9s-1.17,3.64-3.07,4.56a4.86,4.86,0,0,1-5.28-.6c-.75-.55-1.38-1.87-2.52-1.09-2.34,1.6-6.46,2.65-6.55,5-.12,3,3.68,4.38,6.61,5.2a8.81,8.81,0,0,0,4.27,0,24.35,24.35,0,0,0,13.19-7.72,10.51,10.51,0,0,0,1.17-12.46c-2.29-3.88-6.09-5.45-11.19-4.37-3.23.68-6.4,1.66-9.59,2.53a2.15,2.15,0,0,1-2.64-.87c-.73-1.21-.17-2.24.8-3,1.37-1.13,3.23-2.39,4.67-1.22,2.9,2.38,4.72.35,6.72-1.07,1.21-.86,3.47-1.17,3.2-3s-2.12-2.66-3.71-3.31a8.43,8.43,0,0,0-3.74-.79c-6.66.67-12.24,3.57-15.76,9.31C300.91,259.81,305.25,266.72,312.63,266.74ZM373.75,250l-21-17.34c-6.7-5.53-7.64-5.54-14.46-.37a2.52,2.52,0,0,0-1.24,2.84c1.74,10.05,3.35,20.13,5.07,30.19.14.84.1,2.62,1.43,2.07a41.94,41.94,0,0,0,7.1-4c1.79-1.2.56-2.9.17-4.31s.21-2.14,1.32-2.76a46.24,46.24,0,0,0,4.47-2.62c2.36-1.7,4.49-2.4,6.52.46.57.81,1.34,1.43,2.54.66C368.21,253.2,370.81,251.74,373.75,250ZM167.38,331c1.55,9.22,3.07,18.45,4.66,27.67.92,5.37.91,5.27,5.83,2.59,2.67-1.45,5.19-2.64,3.3-6.42-.66-1.32.49-2,1.56-2.64a45.67,45.67,0,0,0,4.84-2.83c2-1.47,3.8-1.89,5.45.47,1.14,1.65,2.45,1.58,4,.44a18.78,18.78,0,0,1,3.72-2.18c2.88-1.24,3.39-2.31.56-4.51-6.37-4.94-12.49-10.21-18.74-15.31-6-4.86-8-4.79-14.1.18C167.58,329.18,167.05,329.86,167.38,331Zm133.19-39.62c-7.25-6-14.18-11.74-21.14-17.46-6.62-5.43-6.6-5.36-13.74-.62-1.41.94-2,1.84-1.7,3.49,1.7,10.06,3.36,20.13,5.05,30.19.13.77.13,2.25,1.18,1.78a49.25,49.25,0,0,0,7.49-4.22c1.62-1.1.22-2.7-.08-3.93a2.3,2.3,0,0,1,1.43-3.06,32.07,32.07,0,0,0,4.47-2.59c2.24-1.6,4.27-2.31,6.21.39.93,1.3,2.06,1.23,3.37.42C295.41,294.34,297.78,293,300.57,291.38ZM428,184.23c1.63,10,3.31,20.32,5,30.67.13.84.38,2,1.5,1.48a51.15,51.15,0,0,0,7-4.16c1.71-1.22.34-2.9,0-4.32s.52-2.07,1.57-2.66a43,43,0,0,0,4.84-2.82c2.21-1.65,4.07-1.78,5.78.62,1.1,1.55,2.31,1.19,3.67.28a30.72,30.72,0,0,1,4.47-2.59c2.71-1.2,2.19-2.23.23-3.8-6.28-5-12.45-10.19-18.68-15.28-6.78-5.53-6.78-5.51-14-.46C428.42,181.86,427.35,182.4,428,184.23Zm-274.56,183c-.33-1.49.51-4.14-1.43-4.41-2.27-.31-4.78.66-7.11,1.33-2.15.61-.89,2.43-.87,3.68a5.63,5.63,0,0,1-3.44,5.5c-2.09,1.05-4.23,1.09-6.05-.53a16.74,16.74,0,0,1-5.48-9.1c-.94-4.5,3-9,6.84-7.25,4.53,2,6.09-1.17,8.6-3.13,1.72-1.34,1.13-2.27-.36-3.27-3.85-2.58-8-3.33-12.3-1.6-6.3,2.49-11.79,6.11-12.67,13.42s2.54,13.22,8.06,17.7c5.14,4.18,10.86,4,16.59.94C149.15,377.74,153.37,374.11,153.41,367.28ZM422.59,193.69c-1.18-1.94-2.28-3.95-3.59-5.82-.7-1-1.56-.08-2.24.31-7.72,4.45-15.41,9-23.15,13.38-1.52.87-1.43,1.64-.71,3.08,2.7,5.36,2.63,5.39,7.68,2.51a11,11,0,0,0,1.5-.85c2-1.69,3.29-1.38,4.54,1.07,2.23,4.35,4.79,8.52,7.22,12.77,3.58,6.26,3.5,6.13,9.93,2.36,2.27-1.33,2.21-2.36,1-4.34-2.93-4.78-5.41-9.85-8.55-14.48-2.28-3.36-1.73-5.12,1.83-6.7C419.65,196.28,421.54,195.65,422.59,193.69ZM121,382.32c-1.51,0-8.1,4.37-8.09,5.09,0,1.07,4.4,7.06,5.13,7,1.4-.09,7.71-4.63,7.31-5.3C123.93,386.74,123.07,383.94,121,382.32Zm53.5-67.44c-3.74,2.51-8.26,3-7.12,8.26.23,1-.71,2.66.66,3a3.14,3.14,0,0,0,3.41-2.06C172.52,321.49,173.25,318.73,174.49,314.88Z"/><path class="cls-3" d="M92.7,446.53c3.26-1.86,5.82-3.18,8.22-4.74s4.34-2.3,7.07-1c2.88,1.41,5.23-.21,7.4-2.08,6.48-5.53,13-10.92,20.82-14.66,2.9-1.39,5.28-1.5,8.09.07,9.17,5.12,18.42,10.09,27.66,15.08,5.61,3,7.15,2.87,12-1.2,6.29-5.3,12.75-10.29,20.16-14a7.41,7.41,0,0,1,7.69,0c9.18,5.1,18.45,10,27.68,15,5.83,3.16,7.27,3,12.35-1.18,6.09-5.06,12.3-9.91,19.4-13.6a8.61,8.61,0,0,1,9.22.21c8.88,5,17.93,9.79,26.92,14.63,5.82,3.14,7.27,3,12.35-1.32,6.16-5.21,12.53-10.09,19.79-13.78a7.75,7.75,0,0,1,8.08.11c9.17,5.11,18.42,10.09,27.67,15.07,5.61,3,7,2.86,12-1.24,6.21-5.14,12.5-10.13,19.78-13.8,3-1.51,5.5-1.61,8.46,0,9,5.06,18.19,9.92,27.29,14.86,5.84,3.17,7.31,3,12.35-1.19,6-5,12.06-9.76,19-13.39,3.43-1.8,6.18-2,9.61,0,8.61,4.93,17.42,9.51,26.15,14.23,6.73,3.64,7.72,3.55,13.42-1.23,6.41-5.37,13-10.53,20.93-14,.14,2.62-1.23,4.7-2.2,6.82-4.81,10.48-12.42,18.6-21.51,25.51-1.65,1.26-2.73.81-4.2,0-4.89-2.76-9.83-5.42-14.75-8.1-5.47-3-7.25-2.79-12,1.17-6.08,5.08-12.27,10-19.41,13.59-3.3,1.68-5.95,1.89-9.24,0-8.88-5.05-17.94-9.78-26.92-14.65-5.8-3.15-7.35-3-12.34,1.14-6.19,5.19-12.48,10.17-19.81,13.77a8.14,8.14,0,0,1-8.47-.18c-8.78-4.92-17.71-9.59-26.55-14.42-6.58-3.58-7.82-3.52-13.4,1.23a99.46,99.46,0,0,1-19.11,13.27,8.38,8.38,0,0,1-8.85-.17c-9-5.09-18.2-9.91-27.32-14.83-5.51-3-7.07-2.77-11.95,1.33-6.17,5.2-12.52,10.12-19.81,13.77a8.13,8.13,0,0,1-8.49-.13c-8.53-4.79-17.19-9.35-25.77-14.05-7.54-4.12-8.39-4.1-14.84,1.35A93.59,93.59,0,0,1,198.1,463a7.24,7.24,0,0,1-7.32-.09c-9.19-5.08-18.46-10-27.68-15.05-5.88-3.21-7.51-3.09-12.68,1.33-6.14,5.25-12.52,10.14-19.85,13.68-2,1-4,1.87-6.15.72C114.05,458.08,103.72,452.48,92.7,446.53Z"/><path class="cls-3" d="M161.39,407.88c4-2.32,7.46-4.32,10.92-6.3.59-.33,1.14-.76,2-.34,4.3,2.18,7.3-.17,10.37-2.85a94.74,94.74,0,0,1,18.7-13.09c3.27-1.69,5.9-1.9,9.2,0,8.86,5.07,17.92,9.79,26.91,14.64,5.88,3.17,7.41,3,12.35-1.12a110,110,0,0,1,19-13.39c3.38-1.78,6.13-2.05,9.56-.08,8.86,5.09,17.92,9.82,26.9,14.68,5.71,3.09,7.38,2.94,12.37-1.27,6.28-5.3,12.74-10.29,20.19-13.94,2.61-1.28,4.68-1.4,7.23,0,9.18,5.11,18.45,10,27.69,15,6.08,3.28,7.56,3.14,12.72-1.19,6.17-5.2,12.53-10.08,19.82-13.73a7.58,7.58,0,0,1,8,.14c9.16,5.13,18.44,10.05,27.69,15,5.52,3,7.26,2.8,12-1.23,6.37-5.43,13-10.44,20.55-14.17a6.61,6.61,0,0,1,6.85.05c9.44,5.22,19,10.29,28.46,15.4,5.35,2.88,7.1,2.73,11.65-1.08,6.3-5.28,12.68-10.4,20.15-14,2-1,2.71-.89,3.07,1.38,1.5,9.56,2.45,19.12,1,28.8-.37,2.5-1.64,3.9-3.65,5.35-6.24,4.49-11.91,5.19-18.75.52-7.09-4.84-15.08-8.36-22.69-12.45-5.55-3-7.28-2.88-12,1.07-6.41,5.36-12.94,10.52-20.53,14.21a7.16,7.16,0,0,1-7.29-.12c-9.3-5.17-18.69-10.18-28.05-15.25-5.39-2.91-7.31-2.73-12,1.25-6.26,5.32-12.75,10.28-20.15,14a7.37,7.37,0,0,1-7.67-.06c-9.17-5.12-18.45-10.05-27.67-15.06-5.64-3.07-7.51-2.92-12.39,1.22-6.16,5.23-12.51,10.12-19.8,13.76-2.89,1.44-5.2,1.58-8,0-9.16-5.12-18.44-10-27.69-15-5.55-3-7.24-2.81-12,1.13-6.21,5.14-12.49,10.14-19.79,13.78-3,1.5-5.39,1.72-8.41,0-8.89-5-18-9.72-26.94-14.6-6.25-3.39-7.8-3.31-13.08,1.18-6.27,5.32-12.78,10.27-20.24,13.86-1.9.92-3.71,1.57-5.72.48Z"/><path class="cls-3" d="M494.55,469.63c-5.7,2.77-11.36,4.34-16.9,6.2C465.38,480,453.07,483.9,440.79,488a6.4,6.4,0,0,1-6-.5c-6.61-4-7.94-3.81-13.68,1.12-6.81,5.85-13.75,11.36-22.83,13.37-1.9.42-3.34.65-5.21-.4-8.9-5-17.93-9.78-26.91-14.64-5.89-3.19-7.25-3.1-12.3,1.21-6,5.16-12.26,10-19.41,13.6-3.15,1.59-5.71,1.79-8.84,0-9-5.1-18.17-9.95-27.28-14.88-5.87-3.17-7.21-3-12.28,1.35-6.25,5.34-12.72,10.33-20.21,13.93a7.12,7.12,0,0,1-7.27-.07c-9.31-5.16-18.7-10.17-28.06-15.24-5.65-3.06-7-2.87-11.94,1.15-5.24,4.26-10.3,8.79-16.35,12a4.78,4.78,0,0,1-4.39.37c-12.2-4.61-25.25-7-36.47-14.18-2-1.31-4.43-2.17-6.94-.86-1.16.61-2.19.05-3.3-.27-10.05-2.94-19.67-7.27-30-9.25a1.74,1.74,0,0,1-1.44-1.35c-.18-.73.52-.79,1-1.13a109.38,109.38,0,0,1,15.52-10.08,7.65,7.65,0,0,1,8.07.05c9.15,5.14,18.42,10.08,27.65,15.08,5.52,3,7.27,2.84,12-1.13,6.08-5.07,12.25-10,19.34-13.66,3.51-1.83,6.23-1.76,9.61.18,8.6,4.94,17.41,9.52,26.13,14.25,6.39,3.46,7.67,3.38,13.1-1.15,6.19-5.17,12.55-10.08,19.8-13.75a7.46,7.46,0,0,1,7.71.09c9.16,5.11,18.4,10.1,27.63,15.1,5.71,3.09,7.4,2.87,12.38-1.25,6.21-5.14,12.47-10.18,19.78-13.79,2.86-1.42,5.21-1.59,8.06,0,9.15,5.15,18.42,10.07,27.65,15.07,5.59,3,7.24,2.91,12-1.08,6.31-5.26,12.71-10.33,20.11-14.06a7.77,7.77,0,0,1,8.09.11c9.16,5.12,18.4,10.12,27.63,15.11,5.5,3,7.29,2.75,12-1.24,6.39-5.39,12.93-10.52,20.53-14.2,2.45-1.18,4.53-1.33,6.9,0C486.28,465.24,490.22,467.28,494.55,469.63Z"/><path class="cls-3" d="M230,369.18l10.63-6.05c.38-.21.84-.6,1.16-.52,7.53,2.07,11.11-4.15,15.73-7.77a106.22,106.22,0,0,1,15.65-9.76c2.41-1.28,4.4-.28,6.48.85q13.65,7.43,27.33,14.8c6,3.25,7.61,3.13,12.71-1.15,6.19-5.2,12.51-10.13,19.84-13.73a7.68,7.68,0,0,1,8,.13c9.16,5.13,18.45,10,27.71,15,5.49,2.95,7.26,2.79,12-1.23,6.26-5.34,12.72-10.34,20.18-14,2.75-1.34,4.95-1.43,7.65.08,9.17,5.12,18.46,10,27.7,15,5.71,3.08,7.52,2.91,12.36-1.23,6.13-5.26,12.49-10.15,19.8-13.77,2.88-1.43,5.21-1.56,8.06,0,9.29,5.2,18.76,10.08,28.07,15.25,4.15,2.31,7.65,2.42,11.33-1,3.34-3.15,7.2-5.75,10.75-8.69,1.82-1.51,2.57-.95,3.28,1.06,2.93,8.44,5.49,17,7.61,25.65a3.94,3.94,0,0,1,.18,2.1c-1,2.71-11.34,6.19-14.07,4.71-9.38-5-18.72-10.15-28.08-15.22-6.19-3.36-7.65-3.23-13.08,1.36a102.25,102.25,0,0,1-19.85,13.7,6.91,6.91,0,0,1-7.25-.06c-9.3-5.18-18.7-10.18-28.07-15.23-5.6-3-7.2-2.85-12,1.12-6.21,5.14-12.5,10.12-19.76,13.83a8.27,8.27,0,0,1-8.8-.17c-9-5.07-18.17-9.94-27.3-14.85-5.54-3-7.26-2.8-12,1.25-6.36,5.44-13,10.46-20.53,14.2a6.65,6.65,0,0,1-6.87-.08c-9.43-5.23-19-10.29-28.47-15.4-5.35-2.88-7-2.76-11.63,1.11-6.51,5.47-13.2,10.68-20.91,14.43-2.08,1-3.93,1.42-6.1.23C249.87,379.92,240.25,374.74,230,369.18Z"/><path class="cls-3" d="M298.89,330.12c5.59-2.13,9.52-7,15.92-6.46,1.58.14,2.81-1.33,3.95-2.43,6.71-6.51,15-10.54,23-15.13,2.05-1.18,3.47-.49,5.14.41q14,7.64,28.06,15.23c5.77,3.14,7.36,3,12.31-1.16,6.27-5.31,12.7-10.36,20.17-14a7.55,7.55,0,0,1,7.71.13c9.17,5.1,18.41,10.08,27.63,15.09,5.65,3.08,7.48,2.93,12.34-1.29,6.22-5.39,12.73-10.32,20.18-14a7.18,7.18,0,0,1,7.3,0c8.93,4.94,18,9.64,26.89,14.65,4.78,2.69,9.25,4.45,13.51-1.17,4.15,8.94,7.81,17.48,11.12,26.43-2.28.86-3.73-.53-5.24-1.34-9.24-5-18.5-9.93-27.65-15.07-4.35-2.44-7.91-2.14-11.72,1.29a88.34,88.34,0,0,1-20.43,14.31,7,7,0,0,1-7.26-.1c-9.16-5.11-18.41-10.08-27.64-15.06-6.12-3.31-7.39-3.21-12.71,1.22-6.31,5.25-12.72,10.3-20.18,13.94a7,7,0,0,1-7.25-.14c-9-5-18.17-9.91-27.28-14.82-6.7-3.61-7.7-3.49-13.41,1.32-6.17,5.2-12.53,10.1-19.86,13.65-2.44,1.18-4.44,1.37-6.87,0-8.67-4.81-17.43-9.46-26.14-14.19A11.73,11.73,0,0,1,298.89,330.12Z"/><path class="cls-3" d="M366.88,291.63c6-2.25,9.79-6.64,15.59-7a5.45,5.45,0,0,0,3-1.6c7.23-6.85,16.54-10.33,24.78-15.54,1.95-1.23,3.39-.72,5.12.23,8.94,4.91,17.94,9.73,26.89,14.62,6.48,3.54,7.68,3.51,13.37-1.34,5.93-5.05,12-9.78,19.08-13.28,3-1.49,5.58-1.79,8.5,0,2.69,1.65,5.41,3.48,8.37,4.43,11,3.54,15.89,12.31,19.69,22.14a11.19,11.19,0,0,1,.25,2.26c-3.94-2.13-7.42-4-10.86-5.88-3.84-2.13-7.18-1.85-10.63,1.19-6.15,5.41-12.57,10.47-20,14.24a8.64,8.64,0,0,1-9.23-.17c-8.86-5.05-17.88-9.82-26.86-14.66-5.85-3.16-7.31-3-12.37,1.22-6.29,5.27-12.64,10.44-20.13,14-2.38,1.13-4.48,1.55-6.93.19C385.74,301.81,376.88,297.06,366.88,291.63Z"/><path class="cls-3" d="M249,518.76c7.7-6.72,15.19-12.92,24.18-17.08,2.48-1.15,4.4-.41,6.48.73q13.82,7.56,27.67,15.05c5.73,3.1,7.28,2.95,12.36-1.28,6.42-5.36,12.92-10.58,20.56-14.18,1.93-.9,3.7-1.44,5.72-.33,6.78,3.7,13.59,7.37,21.16,11.47-3.6,1.39-6.46,2.52-9.35,3.6-13.88,5.17-27.82,10.2-40.94,17.16a3.83,3.83,0,0,1-4.31,0c-4.85-2.82-9.85-5.36-14.7-8.17-4.16-2.4-8-2.46-11.26,1.31-3.9,4.52-7.65,5-13.16,2C265.82,525,257.55,522.28,249,518.76Z"/><path class="cls-3" d="M435.78,253.15c16.18-9.12,31.67-17.83,47.13-26.6,1.64-.94,2.19-.6,2.55,1.19a142.26,142.26,0,0,0,6.11,21c.62,1.66.28,2.52-1,3.61-6.76,5.58-13.43,11.26-21.48,15-2.22,1-4.19,1.54-6.51.25C453.88,262.88,445.16,258.22,435.78,253.15Z"/><path class="cls-3" d="M222.22,508.92l-17.33-6.26.42-1.17C212.34,500,216.65,506.24,222.22,508.92Z"/><path class="cls-1" d="M204.34,132.58a46.41,46.41,0,1,1-46.4,46.54A46.48,46.48,0,0,1,204.34,132.58Zm-25.92,20c-1-.38-1.53-1.72-3-1.33-3.8,1-7.51,2.18-9.6,5.93a43.84,43.84,0,0,0-5.46,17.15c-.63,6.46,5.22,11.72,11.14,10.16-1,1.53-3.25,1.6-3.64,3.91-1.16,6.72,2.2,14.77,7.91,18.45,1.78,1.15,3.49,2.42,5.24,3.64-4.52-.24-7-5.17-11.84-5.42,4.38,7.76,16.86,16.08,24,16.25-3.38-4.37-8.59-6.75-12.24-10.9,3.37,2.3,6.72,3.52,10.33.32a45,45,0,0,1,4.6-3.16c1.12-.76,2-1.66,1.7-3.18-1.56-8-1.37-16.45-10.92-21-5-2.43-8.56-4.15-12.91.13a7.87,7.87,0,0,1-2.3,1.08c.67-2.37,3.2-2.5,4.7-3.88,1.32-1.23,3.49-1.65,3.88-3.73,1.12-5.87,3-11.58,3.51-17.56,8.36-1.84,18.5,1.93,24.4-7.73.07-.13.51,0,.77,0-3.79,4.19-4.49,8.11-2.57,14.12,2.72,8.53,8,11.53,15.82,13.55,4.72,1.21,7.49.32,10.54-2.84,5.86-6.07,6.31-8,3.13-16-.46-1.16-1.44-2.21-1.06-3.63a7.29,7.29,0,0,1,2.66,5.18c.68,5.46,3.7,9.29,7.71,12.63.74.61,1.15,1.8,2.4,1.25s1.21-1.47,1.07-2.54a43.63,43.63,0,0,0-14-27,15.47,15.47,0,0,0-2.41,7.08,20.73,20.73,0,0,0-7.65-4.49c-4.38-1.31-8.82-3.68-13.15.16,2.1-2.7.86-4.78-.81-7.26-2.39-3.51-5.16-5.11-9.4-4.12a18.31,18.31,0,0,1-6,.64c-7.41-.79-11.69,3.55-15.66,8.82A5.41,5.41,0,0,0,178.42,152.6Zm49.24,50.16c.13-2.25,2.83-2.85,3-5.4.72-10.53-2.61-15.21-12.61-18.4-5.31-1.7-8.86-.66-13.55,2.65C196.85,187,195.1,193,198,201.3c.6,1.72.29,3.94,1.95,5.07a32.79,32.79,0,0,0,13.7,4.91c3.07.46,4.39-2.38,6.6-3.54.72-.38,1.29-1.19,2.29-.74-6.56,3.05-6.94,10.47-10.32,15.36,12.59-.71,25.93-12,31.11-22,1-1.92.23-2.91-1.78-2.43C236.79,199.08,231.49,198.84,227.66,202.76ZM207,135.2c-5.81-.75-11.42-.27-16.66,2.42C196,137.09,201.66,137.43,207,135.2Z"/><path class="cls-3" d="M387.45,223.66c-2.24-3.85-4.31-7.81-6.78-11.51-1.58-2.37-1.09-3.51,1.33-4.5a20.24,20.24,0,0,0,3.36-2c1.42-.94,2.44-1.07,3.45.71,4.75,8.4,9.62,16.72,14.43,25.09a2.27,2.27,0,0,1,.37,1.53c-.55,1.78-8.29,4.71-10.1,3.85a139.34,139.34,0,0,0-16.43-7c2.15,3.79,4.12,7.7,6.53,11.31,1.53,2.3,1.24,3.48-1.2,4.51a17.65,17.65,0,0,0-3.37,1.94c-1.72,1.23-2.68.77-3.69-1-4.6-8.15-9.32-16.23-14-24.34-.42-.72-1-1.36-.33-2.32,1.63-2.5,8.13-4.21,11-2.83l15,7.22Z"/><path class="cls-3" d="M194.83,321.17c.12-10.76,15.54-20.92,24.44-16.12,2.6,1.4,4,2.71.6,4.95-2.58,1.69-4.26,4.3-8.43,2.85-3.67-1.27-7.6,3.79-6.78,7.87a17.08,17.08,0,0,0,3.61,7.29c4,4.95,11,4,13.8-1.74a2.29,2.29,0,0,0-.29-2.75c-1-1.23-1.76-.14-2.61.22-1.82.77-3.4,3.4-5.43-.25-1.63-2.91-1.55-4.37,1.55-5.78a55.45,55.45,0,0,0,7.85-4.49c2-1.36,3-.87,3.94,1.12.73,1.56,1.67,3,2.53,4.52,3.44,6,3.43,6.59-1,12a25.53,25.53,0,0,1-13.23,8.49C205.39,342.08,194.71,332.54,194.83,321.17Z"/><path class="cls-3" d="M263.21,306.13c0,.29,0,.57,0,.86-.42,6.2-6.34,11.84-15,14.3-5.4,1.53-10.5-.39-14-5.87-3.35-5.2-6.21-10.71-9.41-16-.9-1.5-.49-2.18.8-3.11,6.61-4.79,6.59-4.83,10.61,2.09,2.17,3.73,4.29,7.49,6.51,11.19,1.84,3.06,4.39,4.11,7.65,2.17s3.53-4.63,1.75-7.75c-2.71-4.75-5.29-9.59-8.19-14.22-1.35-2.17-1.48-3.31,1-4.62,7.71-4.05,5.49-4.54,9.64,2.41,2.14,3.58,4.2,7.21,6.29,10.82A15.07,15.07,0,0,1,263.21,306.13Z"/><path class="cls-3" d="M104.36,384.53c.25,2.09-.94,2.26-1.74,2.73-2.84,1.68-5.65,3.46-8.61,4.93-2.35,1.18-2.64,2.32-1.25,4.63s2.3,2.22,4.28.94c3.38-2.18,7-3.93,10.42-6.1,2.94-1.88,3.07.9,3.86,2.2s3,2.8,0,4.46c-6.78,3.78-13.45,7.77-20.12,11.73-1.3.77-2.16,1.05-3.08-.59Q80.9,396.7,73.49,384c-.9-1.52-.19-2,.92-2.61,6.74-3.87,13.49-7.7,20.16-11.69,2.37-1.42,2.78.49,3.33,1.76s3.25,2.86.28,4.55c-3.25,1.84-6.55,3.62-9.69,5.64-1.21.79-4,.7-2.31,3.81,1.55,2.85,2.93,1.7,4.69.62,2.33-1.42,4.7-2.78,7.06-4.15C101,380.18,104.15,381.79,104.36,384.53Z"/><path class="cls-3" d="M312.63,266.75c-7.38,0-11.72-6.94-7.93-13.13,3.52-5.74,9.1-8.64,15.76-9.31a8.43,8.43,0,0,1,3.74.79c1.59.65,3.46,1.6,3.71,3.31s-2,2.14-3.2,3c-2,1.42-3.82,3.45-6.72,1.07-1.44-1.17-3.3.09-4.67,1.22-1,.78-1.53,1.81-.8,3a2.15,2.15,0,0,0,2.64.87c3.19-.87,6.36-1.85,9.59-2.53,5.1-1.08,8.9.49,11.19,4.37a10.51,10.51,0,0,1-1.17,12.46,24.35,24.35,0,0,1-13.19,7.72,8.81,8.81,0,0,1-4.27,0c-2.93-.82-6.73-2.22-6.61-5.2.09-2.34,4.21-3.39,6.55-5,1.14-.78,1.77.54,2.52,1.09a4.86,4.86,0,0,0,5.28.6c1.9-.92,3.75-2.16,3.07-4.56s-2.77-2.43-5-1.9C319.68,265.46,316.33,267,312.63,266.75Z"/><path class="cls-3" d="M373.75,250c-2.94,1.74-5.54,3.2-8.06,4.79-1.2.77-2,.15-2.54-.66-2-2.86-4.16-2.16-6.52-.46a46.24,46.24,0,0,1-4.47,2.62c-1.11.62-1.72,1.31-1.32,2.76s1.62,3.11-.17,4.31a41.94,41.94,0,0,1-7.1,4c-1.33.55-1.29-1.23-1.43-2.07-1.72-10.06-3.33-20.14-5.07-30.19a2.52,2.52,0,0,1,1.24-2.84c6.82-5.17,7.76-5.16,14.46.37Zm-27.6-11.73c.83,3.73,1.45,6.37,2,9,.38,1.8.93,2.31,2.87,1.33,3.06-1.55,4-2.82.72-5.18A63.69,63.69,0,0,1,346.15,238.27Z"/><path class="cls-3" d="M167.38,331c-.33-1.14.2-1.82,1.08-2.54,6.09-5,8.14-5,14.1-.18,6.25,5.1,12.37,10.37,18.74,15.31,2.83,2.2,2.32,3.27-.56,4.51a18.78,18.78,0,0,0-3.72,2.18c-1.55,1.14-2.86,1.21-4-.44-1.65-2.36-3.41-1.94-5.45-.47a45.67,45.67,0,0,1-4.84,2.83c-1.07.59-2.22,1.32-1.56,2.64,1.89,3.78-.63,5-3.3,6.42C173,363.94,173,364,172,358.67,170.45,349.45,168.93,340.22,167.38,331Zm9.07,3.27c.58,2.67.89,4.19,1.23,5.7,1.44,6.4,1.45,6.4,7.24,2.13Z"/><path class="cls-3" d="M300.57,291.38c-2.79,1.63-5.16,3-7.46,4.39-1.31.81-2.44.88-3.37-.42-1.94-2.7-4-2-6.21-.39a32.07,32.07,0,0,1-4.47,2.59,2.3,2.3,0,0,0-1.43,3.06c.3,1.23,1.7,2.83.08,3.93a49.25,49.25,0,0,1-7.49,4.22c-1.05.47-1.05-1-1.18-1.78-1.69-10.06-3.35-20.13-5.05-30.19-.28-1.65.29-2.55,1.7-3.49,7.14-4.74,7.12-4.81,13.74.62C286.39,279.64,293.32,285.39,300.57,291.38Zm-25.06-.48c6.22-3,6.25-3,1.64-7.25-1.19-1.09-2-2.7-4.11-3.11C273.87,284,274.66,287.33,275.51,290.9Z"/><path class="cls-3" d="M428,184.23c-.62-1.83.45-2.37,1.41-3,7.23-5.05,7.23-5.07,14,.46,6.23,5.09,12.4,10.26,18.68,15.28,2,1.57,2.48,2.6-.23,3.8a30.72,30.72,0,0,0-4.47,2.59c-1.36.91-2.57,1.27-3.67-.28-1.71-2.4-3.57-2.27-5.78-.62a43,43,0,0,1-4.84,2.82c-1.05.59-1.93,1.16-1.57,2.66s1.71,3.1,0,4.32a51.15,51.15,0,0,1-7,4.16c-1.12.56-1.37-.64-1.5-1.48C431.28,204.55,429.6,194.21,428,184.23Zm8.89,3c.62,2.85.93,4.39,1.29,5.91,1.47,6.17,1.47,6.17,7.15,2Z"/><path class="cls-3" d="M153.41,367.28c0,6.83-4.26,10.46-9.62,13.28-5.73,3-11.45,3.24-16.59-.94-5.52-4.48-9-10.39-8.06-17.7s6.37-10.93,12.67-13.42c4.35-1.73,8.45-1,12.3,1.6,1.49,1,2.08,1.93.36,3.27-2.51,2-4.07,5.14-8.6,3.13-3.87-1.72-7.78,2.75-6.84,7.25a16.74,16.74,0,0,0,5.48,9.1c1.82,1.62,4,1.58,6.05.53a5.63,5.63,0,0,0,3.44-5.5c0-1.25-1.28-3.07.87-3.68,2.33-.67,4.84-1.64,7.11-1.33C153.92,363.14,153.08,365.79,153.41,367.28Z"/><path class="cls-3" d="M422.59,193.69c-1,2-2.94,2.59-4.54,3.29-3.56,1.58-4.11,3.34-1.83,6.7,3.14,4.63,5.62,9.7,8.55,14.48,1.21,2,1.27,3-1,4.34-6.43,3.77-6.35,3.9-9.93-2.36-2.43-4.25-5-8.42-7.22-12.77-1.25-2.45-2.52-2.76-4.54-1.07a11,11,0,0,1-1.5.85c-5.05,2.88-5,2.85-7.68-2.51-.72-1.44-.81-2.21.71-3.08,7.74-4.42,15.43-8.93,23.15-13.38.68-.39,1.54-1.32,2.24-.31C420.31,189.74,421.41,191.75,422.59,193.69Z"/><path class="cls-3" d="M121,382.32c2.08,1.62,2.94,4.42,4.35,6.8.4.67-5.91,5.21-7.31,5.3-.73.05-5.12-5.94-5.13-7C112.89,386.69,119.48,382.31,121,382.32Z"/><path class="cls-3" d="M174.49,314.88c-1.24,3.85-2,6.61-3.05,9.23a3.14,3.14,0,0,1-3.41,2.06c-1.37-.37-.43-2-.66-3C166.23,317.89,170.75,317.39,174.49,314.88Z"/><path class="cls-2" d="M222.57,207c-1-.45-1.57.36-2.29.74-2.21,1.16-3.53,4-6.6,3.54a32.79,32.79,0,0,1-13.7-4.91c-1.66-1.13-1.35-3.35-1.95-5.07-2.93-8.31-1.18-14.3,6.48-19.69,4.69-3.31,8.24-4.35,13.55-2.65,10,3.19,13.33,7.87,12.61,18.4-.18,2.55-2.88,3.15-3,5.4l.08-.09c-.71-.07-1.16.1-.94,1l.08-.07a4.73,4.73,0,0,0-4.41,3.53Z"/><path class="cls-2" d="M234.57,156.81c-.38,1.42.6,2.47,1.06,3.63,3.18,8,2.73,10-3.13,16-3.05,3.16-5.82,4.05-10.54,2.84-7.87-2-13.1-5-15.82-13.55-1.92-6-1.22-9.93,2.57-14.12l-.08.08,1-.95-.08.08.94-.94-.08.08.95-.95-.07.08c4.33-3.84,8.77-1.47,13.15-.16a20.73,20.73,0,0,1,7.65,4.49l-.07-.08a4.14,4.14,0,0,0,1.8,2.68l-.07-.09c.09.54.16,1.11,1,.93Z"/><path class="cls-2" d="M181,210.51c-1.75-1.22-3.46-2.49-5.24-3.64-5.71-3.68-9.07-11.73-7.91-18.45.39-2.31,2.68-2.38,3.64-3.91l-.07.08a7.87,7.87,0,0,0,2.3-1.08c4.35-4.28,7.86-2.56,12.91-.13,9.55,4.59,9.36,13,10.92,21,.3,1.52-.58,2.42-1.7,3.18a45,45,0,0,0-4.6,3.16c-3.61,3.2-7,2-10.33-.32Z"/><path class="cls-2" d="M183.54,159.42c-.51,6-2.39,11.69-3.51,17.56-.39,2.08-2.56,2.5-3.88,3.73-1.5,1.38-4,1.51-4.7,3.88l.07-.08c-5.92,1.56-11.77-3.7-11.14-10.16a43.84,43.84,0,0,1,5.46-17.15c2.09-3.75,5.8-4.89,9.6-5.93,1.45-.39,2,.95,3,1.33l-.07-.09c.23,1,.38,2,1.82,1.79l-.07-.08c-.3,1.49.16,2.48,1.8,2.68l-.07-.08a2.13,2.13,0,0,0,1.79,2.68Z"/><path class="cls-2" d="M208.71,151.65c-.26,0-.7-.09-.77,0-5.9,9.66-16,5.89-24.4,7.73l.08.08a3.4,3.4,0,0,0-1.79-2.68l.07.08a4.08,4.08,0,0,0-1.8-2.68l.07.08c-.35-.86-.47-2-1.82-1.79l.07.09a5.41,5.41,0,0,1,1-5.39c4-5.27,8.25-9.61,15.66-8.82a18.31,18.31,0,0,0,6-.64c4.24-1,7,.61,9.4,4.12,1.67,2.48,2.91,4.56.81,7.26l.07-.08c-.83-.19-1.16.1-.95.95l.08-.08c-.85-.22-1.16.09-.94.94l.08-.08c-.88-.24-1.07.2-1,.95Z"/><path class="cls-2" d="M227.66,202.76c3.83-3.92,9.13-3.68,13.92-4.83,2-.48,2.78.51,1.78,2.43-5.18,10-18.52,21.29-31.11,22,3.38-4.89,3.76-12.31,10.32-15.36l-.1.08a12.12,12.12,0,0,0,4.41-3.53l-.08.07.94-1Z"/><path class="cls-2" d="M232,153.46a15.47,15.47,0,0,1,2.41-7.08,43.63,43.63,0,0,1,14,27c.14,1.07,0,2.07-1.07,2.54s-1.66-.64-2.4-1.25c-4-3.34-7-7.17-7.71-12.63a7.29,7.29,0,0,0-2.66-5.18l.08.09c-.06-.57-.06-1.2-1-.93l.07.09c.16-1.41-.1-2.53-1.8-2.68Z"/><path class="cls-2" d="M181,210.44c3.65,4.15,8.86,6.53,12.24,10.9-7.14-.17-19.62-8.49-24-16.25,4.84.25,7.32,5.18,11.84,5.42Z"/><path class="cls-2" d="M207,135.2c-5.35,2.23-11.06,1.89-16.66,2.42C195.59,134.93,201.2,134.45,207,135.2Z"/><path class="cls-1" d="M346.15,238.27a63.69,63.69,0,0,0,5.59,5.16c3.31,2.36,2.34,3.63-.72,5.18-1.94,1-2.49.47-2.87-1.33C347.6,244.64,347,242,346.15,238.27Z"/><path class="cls-1" d="M176.45,334.27l8.47,7.83c-5.79,4.27-5.8,4.27-7.24-2.13C177.34,338.46,177,336.94,176.45,334.27Z"/><path class="cls-1" d="M275.51,290.9c-.85-3.57-1.64-6.86-2.47-10.36,2.08.41,2.92,2,4.11,3.11C281.76,287.87,281.73,287.9,275.51,290.9Z"/><path class="cls-1" d="M436.86,187.21l8.44,7.92c-5.68,4.16-5.68,4.16-7.15-2C437.79,191.6,437.48,190.06,436.86,187.21Z"/><path class="cls-1" d="M226.88,203.55a12.12,12.12,0,0,1-4.41,3.53A4.73,4.73,0,0,1,226.88,203.55Z"/><path class="cls-1" d="M227.74,202.67l-.94,1C226.58,202.77,227,202.6,227.74,202.67Z"/><path class="cls-1" d="M232,153.38c1.7.15,2,1.27,1.8,2.68A4.14,4.14,0,0,1,232,153.38Z"/><path class="cls-1" d="M210.36,150c-.21-.85.12-1.14.95-.95Z"/><path class="cls-1" d="M208.63,151.73c-.12-.75.07-1.19,1-.95Z"/><path class="cls-1" d="M209.5,150.86c-.22-.85.09-1.16.94-.94Z"/><path class="cls-1" d="M233.7,156c.89-.27.89.36,1,.93C233.86,157.08,233.79,156.51,233.7,156Z"/><path class="cls-1" d="M180.1,154.22a4.08,4.08,0,0,1,1.8,2.68C180.26,156.7,179.8,155.71,180.1,154.22Z"/><path class="cls-1" d="M181.83,156.82a3.4,3.4,0,0,1,1.79,2.68A2.13,2.13,0,0,1,181.83,156.82Z"/><path class="cls-1" d="M178.35,152.51c1.35-.16,1.47.93,1.82,1.79C178.73,154.55,178.58,153.49,178.35,152.51Z"/></svg>