<svg xmlns="http://www.w3.org/2000/svg" xmlns:xlink="http://www.w3.org/1999/xlink" viewBox="0 0 892 600"><defs><style>.cls-1{fill:none;}.cls-2{clip-path:url(#clip-path);}.cls-3{fill:#006c35;}.cls-4{fill:#fff;}.cls-5{fill:#939598;}</style><clipPath id="clip-path"><rect class="cls-1" width="892" height="600" rx="30.93" ry="30.93"/></clipPath></defs><title>Arábia Saudita</title><g id="Layer_2" data-name="Layer 2"><g class="cls-2"><rect class="cls-3" x="-6" width="904" height="602.67"/><path class="cls-4" d="M383.66,142.34a4.44,4.44,0,0,0-2.15.83c-2.2,1.47-6.57,6-6.7,11.26-.14,2.95-.69,2.94,1.24,4.82,1.4,2,2.79,1.82,5.61.34a6,6,0,0,0,2.72-4c.67-3.35-3.54,1.59-4.07-2.14-.94-3.47,1.74-4.9,4.29-8.25.06-1.58.09-2.87-.94-2.9Zm41.06.22c-.79.11-1.75,1.12-3.09,3.54-1,2.54-5.1,6.39-2.11,14.32,2.44,5,3.44,13.2,2.33,22.3a43.09,43.09,0,0,1-4.29,6.06c-3.12,3.35-6.49,2.49-9.08,1.24-2.42-1.63-4.32-2.46-5.42-7.64.2-8.26.68-21.77-.83-24.64-2.23-4.44-5.89-2.85-7.46-1.5-7.53,6.88-11.25,18.51-13.52,27.76-2.09,6.74-4.31,4.79-5.88,2.07-3.8-3.57-4.07-31.44-8.66-26.86-7.36,21,4.22,44,12.24,41.81,5.79,2.4,9.46-8.62,11.83-20.68,1.62-3.38,2.86-3.77,3.69-2-.21,16,1.15,19.62,5.27,24.48,9.2,7.1,16.81.9,17.41.3l7.15-7.15c1.6-1.68,3.7-1.78,5.95-.3,2.19,2,1.91,5.41,6.6,7.79,3.94,1.58,12.36.39,14.31-3,2.63-4.5,3.26-6,4.48-7.76,1.88-2.5,5.09-1.39,5.09-.6-.3,1.39-2.19,2.76-.91,5.27,2.23,1.67,2.75.6,4.07.23,4.67-2.23,8.17-12.36,8.17-12.36.21-3.77-1.94-3.49-3.31-2.71-1.79,1.09-1.9,1.47-3.69,2.56-2.28.34-6.7,1.85-8.89-1.54-2.24-4.08-2.25-9.76-4-13.86,0-.3-3-6.46-.22-6.86,1.39.26,4.38,1,4.86-1.47,1.46-2.44-3.15-9.35-6.29-12.84-2.73-3-6.49-3.36-10.14-.3-2.55,2.34-2.17,5-2.67,7.45a11.64,11.64,0,0,0,2.37,10.17c2.55,5,7.18,11.47,5.65,20.57,0,0-2.69,4.33-7.42,3.77-2-.43-5.18-1.29-6.89-13.9-1.29-9.55.32-22.93-3.73-29.19-.92-2.37-1.7-4.66-3-4.49Zm-13,1c-1.22.1-2.58,1.53-3.69,4.29-.95,2.1-2.11,13.07-1.92,13.07-.76,3.27,3.41,4.65,5.31.45,2.85-7.69,2.86-11,3.05-14.23-.44-2.49-1.52-3.69-2.75-3.58Zm48,.86c-1.26.12-2.26.85-2.64,2.71a28.77,28.77,0,0,0,.49,10.4c.57,2.43,4.1,6.5,5.84,8.85,8.31,11.18,16.31,22.4,24,34,1.22,8.62,2.11,17.06,2.68,25.46a513.45,513.45,0,0,1,.49,60.75c3.45.14,9-5.57,10.92-13.93,1.26-11.57-.45-35.17-.56-42-.09-2.83-.26-6.22-.46-9.76,9,14.68,17.7,30.24,26.26,47.31,3.12-1.48,2.42-19,.6-21.5C520.51,232,511.05,217.46,508,211.87c-1.09-2-4.8-7.66-9.19-14.17-.81-9.28-1.69-17.14-2.26-19.51-1.42-9.81,4,1.11,3.27-4.59-1.76-9.8-7.17-16.46-13.56-25.43-2.06-2.92-2-3.51-5.2.72a18.67,18.67,0,0,0-1.31,11.26c-.84-1.22-1.87-2.66-3.36-4.45-5.51-4.73-5.85-5-10.43-8.85-1.44-1-4.19-2.6-6.29-2.41Zm142.23,1.47c-.61-.09-1.28.21-2,1.32a8.57,8.57,0,0,0-2.93,6.48c.35,5.17,1.27,10.46,1.62,15.63.12.69.25,1.38.37,2.07a17.71,17.71,0,0,0-1.32-1.54c-10.07-10.59,4.63-1.73-1.92-9.91-5.54-6.08-7.16-8-11.9-11.67-2.38-1.54-3.81-4.48-4.59.52a96.35,96.35,0,0,0-.34,13.19c0,2.05,2.11,5.93,4,8.21,6.72,8.26,13.59,17,20.49,26.21,1.46,18.71,1.84,35.85,3.32,54.58-.21,8-2.68,18.66-5,19.66,0,0-3.57,2-5.95-.22-1.74-.7-8.67-11.57-8.67-11.57-3.54-3.25-5.91-2.32-8.43,0-7,6.73-10.11,19.32-14.84,28-1.22,1.94-4.66,3.58-8.48-.15-9.7-13.25-4-32.12-5.24-27.27-8.64,9.74-4.81,25.87-2.86,29.34,2.85,5.7,5.16,9.35,10.7,12.17,5,3.72,9,1.4,11.15-1.21,5.08-5.26,5.15-18.73,7.53-21.39,1.67-4.9,5.87-4.05,7.91-1.88a19.51,19.51,0,0,0,7.23,6.25c4.74,4.18,10.4,4.94,16,1.13,3.81-2.14,6.29-4.92,8.52-10.4,2.39-6.4,1.21-39.95.68-58.61,3.57,5,7.11,10.2,10.62,15.41a381.44,381.44,0,0,1,1.73,48c-.36,3.08,10.73-9.18,10.66-15,0-5.08,0-9.68,0-14,5.38,8.59,10.59,17.33,15.52,26.18,3.05-1.62,2-18.9.07-21.28-5.15-8.66-11.76-18-16.87-25.24-1-9.13-2.39-19.9-3-23.2-1-5.15-2-12.88-3.43-19-.41-2.38-1.63-10-1.24-10.73.6-1.71,2.87.05,4-1.92,1.67-1.83-5.81-21.22-9.61-26.75-1.36-2.48-3.83-1.62-6.89,2.41-2.84,2.66-1.8,8.71-.72,14.47,2.82,14.67,5.33,29.61,7.31,44.52-3.68-5.47-8.16-12.08-12.58-18.46-.12-.61-.56-2.87-.56-2.9,0-.26-.61-12-1.13-14.8-.1-1.14-.37-1.46.82-1.32a7,7,0,0,0,2.23,1.47c1.27.23,2.38-1.92,1.62-3.92-3.95-7.27-7.89-14.57-11.83-21.84a3.35,3.35,0,0,0-1.62-1.06Zm-367.06.38c-2.19-.06-4.6,1.29-3.65,3.92-.55,1.43,4.27,6.26,5.12,8.92.76,1.9-.76,8,.83,8.55s3.45-4.22,4.22-8.7c.42-2.45.1-10.86-5.62-12.58a4.43,4.43,0,0,0-.9-.11Zm418.14.05c-.5,0-1.1.85-2,2.82-2.24,3.66-3,10.22-2.11,16,5.38,36.4,9.38,71.66,10.21,103.92a33.78,33.78,0,0,1-2,8.55c-3.18,4.08-6.68,9.18-10,11.64s-10.32,4.81-12.62,6.63c-7.28,4.21-7.32,9-1.43,9.23,10.15-1.18,22.16-2,30.43-14.5,2.22-3.5,4.82-13,4.94-18.8.77-34-.44-67.34-5.54-91.94-.33-2.4-1.38-7.91-1-8.63.66-1.68,4,.17,5.16-1.77,1.74-1.77-8.59-15-12.2-20.64-.72-1.42-1.17-2.59-1.81-2.52Zm-106.44.56c-.42.07-1,.71-2.19,2.22-2.83,9.27-3.83,16.85-2.75,22.6,7.28,38,14.75,72.64,13.56,108.82,3.46,0,7.45-7.9,9.15-15.74.94-10.81-.62-17.38-.9-23.73s-7.19-57.87-8.59-62.68c-1.69-9.08,6.72-1.19,5.8-6.48-2.9-6.66-10.16-16.36-12.43-22.15-.85-1.55-1-3-1.65-2.86Zm-259.19.72a2.7,2.7,0,0,0-2.07,2.11c-.2.79.35,2.12-.38,2.52-.41.42-2,.14-1.92-2.07a3.61,3.61,0,0,0-.83-1.88,1.6,1.6,0,0,0-1.09-.27c-.69,0-.67.21-1.05.79a6.48,6.48,0,0,0-.39,1.85c-.08.78-.4,1.05-1,1.16s-.49.07-1-.26c-.32-.34-.68-.47-.68-1a6.15,6.15,0,0,0-.34-2,2.14,2.14,0,0,0-1.21-.68c-2.7,0-2.9,3.12-2.75,4.29-.2.22-.3,5.74,3.39,7.27,5,2.37,14.26,1.37,13.86-6.63,0-.7-.15-3.08-.22-3.73a2.13,2.13,0,0,0-2.34-1.46Zm66.52.07a11.08,11.08,0,0,0-4.52,1.25c-3.28,3.14-4.05,8.19-1.47,11.33,2.52,1.19,5,3.73,3.36,5.13-7.13,7.6-25.66,20.31-26.6,22.63,0,0,0,.06,0,.08a.16.16,0,0,0,0,.07s0,0,0,0a.26.26,0,0,0,0,.08l0,0h0l0,0h0l0,0c.94.63,12.54.62,13.83,0l0,0h0v0c4-1.47,22.9-23.09,22.9-23.09-1-.84-1.88-1.46-2.86-2.3s-.94-1.8,0-2.71c4.68-2.72,3.2-8.72.75-11.45a12.15,12.15,0,0,0-5.65-1.13Zm173.87.08c-.5,0-1.1.81-2,2.79-2.24,3.66-3.76,10-3.58,16,4.84,33.53,6.33,62.87,9.49,96.39.26,3.25-.22,8-2.37,9.83-8,8.33-19.47,18.59-32,23.32-1.35,1.51,3.35,7.95,9.42,7.95,10.15-1.18,19.07-6.88,27.34-21.89,2.22-3.5,6.1-11,6.22-16.8.77-34-1.72-60.52-6.82-85.12-.33-2.4-.1-5.24.3-6,.66-.79,2.89,0,4.07-1.93,1.73-1.77-4.63-16.45-8.25-22.11-.72-1.42-1.17-2.55-1.81-2.48Zm-269.62,1a4.5,4.5,0,0,0-3.36,2.83,98.11,98.11,0,0,0,.34,15.7c2.45,8.7,3.22,16.34,4.41,25.24.33,11.92-6.88,5.16-6.55-.75,1.66-7.68,1.21-19.76-.27-22.83-1.17-3.06-2.53-3.82-5.38-3.31-2.27-.14-8.12,6.24-9.76,16.8a100.54,100.54,0,0,0-2,10.24c-.8,5.46-4.41,9.32-6.93-.75-2.17-7.32-3.51-25.35-7.16-21.13-1,14.08-2.28,38.85,9.68,41.39,14.47,1.4,6.48-24.46,11.72-29.15,1-2.32,2.82-2.36,3,.56v22c-.13,7.14,4.57,9.26,8.22,10.74,3.79-.29,6.31-.19,7.79,3.5q.9,19,1.81,38s8.77,2.52,9.19-21.36c.42-14-2.79-25.79-.9-28.51.06-2.68,3.5-2.82,5.87-1.51,3.79,2.67,5.46,5.95,11.34,4.63,8.95-2.46,14.33-6.8,14.47-13.67-.53-6.53-1.28-13.06-4.11-19.59.39-1.18-1.71-4.27-1.32-5.46,1.61,2.52,4,2.31,4.6,0-1.53-5-3.9-9.82-7.72-11.9-3.17-2.79-7.8-2.2-9.5,3.62-.78,6.7,2.43,14.64,7.31,21.13,1,2.53,2.49,6.75,1.85,10.54-2.6,1.48-5.17.87-7.35-1.43,0,0-7.12-5.33-7.12-6.52,1.89-12.09.41-13.48-.64-16.83-.73-4.64-2.93-6.1-4.71-9.27-1.78-1.89-4.19-1.89-5.35,0-3.14,5.46-1.67,17.17.61,22.41,1.64,4.83,4.16,7.84,3,7.84-1,2.72-3,2.09-4.48-1.06-2.1-6.5-2.52-16.19-2.52-20.56-.63-5.42-1.33-17-4.9-19.93a3.4,3.4,0,0,0-3.16-1.62Zm51.08.08c-.72.09-1.51.5-2.45.71-3.08,1-6,3.64-5.05,8.82,3.64,22.09,6,39,9.65,61,.55,2.59-1.62,6-4.41,5.65-4.76-3.21-5.94-9.73-14.05-9.45-5.88.07-12.57,6.46-13.41,12.62-1,4.89-1.33,10.2,0,14.46,4.13,5,9.07,4.44,13.41,3.32,3.56-1.47,6.5-5,7.76-4.15h0s0,0,0,0c.77,1.36-.08,12.85-16.8,21.74-10.28,4.61-18.47,5.71-22.87-2.68-2.73-5.24.2-25.22-6.51-20.6-19.86,51.18,46.52,58.33,53.93,2.11.48-1.59,1.95-3.18,3-2.79.45.19.87.81,1,2-1.54,50.9-51.36,54.39-59.82,38.38-2.09-3.77-2.73-12.18-2.94-17.21-.38-3.05-1.14-4.81-2-5.5-2-1.52-4.73,2.44-5.31,9.3-.84,5.53-.6,7-.6,12.36,2.65,40.2,66.76,22.93,77.18-10.29,5.15-17.17-.11-30.12,1.62-31.71l.07,0,.08,0,.07,0a.85.85,0,0,1,.23,0c6.36,6.85,15.29.87,17.25-1.51a2.86,2.86,0,0,1,4.4-.41c5,3.57,13.67,1.88,15.49-4.41a139.23,139.23,0,0,0,2.14-19.06c-3.23,1-5.84,1.76-6.89,2.86a1.82,1.82,0,0,0-.49.91c-.28,1.82-.55,3.64-.83,5.46a1.34,1.34,0,0,1-.15.41,1.73,1.73,0,0,1-.6.57c-1.14.62-3.14.27-3.24-1.39-1.54-7-7.87-7.91-11.72,2.93-2.58,2.1-7.3,2.51-7.79-.64.63-7.27-2.3-8.25-8.18-4.82-1.88-14.4-3.76-28.16-5.65-42.56,2.45-.07,4.7,1.7,6.93-1.09-2.42-7.54-7.54-22.86-10.43-24.3l-.07,0a5.3,5.3,0,0,0-.42-.41,1.39,1.39,0,0,0-.19-.15,1.18,1.18,0,0,0-.19-.11A1.44,1.44,0,0,0,310,149a1.94,1.94,0,0,0-.79-.08Zm198.08.11c-2.54-.07-5.35,1.53-4.25,4.71-.64,1.74,5.45,7.62,6.44,10.85,1.77,5-1.35,9.67.49,10.36s4-5.12,4.93-10.55c1-4.39-2.11-13.4-6.55-15.26a5.22,5.22,0,0,0-1.06-.11ZM353,154.4c1.16-.11,2.56.95,3.24,2.45s.37,3.14-.83,3.43-2.73-.77-3.46-2.37-.36-3.18.83-3.47Zm286.27,7.42a3.75,3.75,0,0,0-3.84,5.13c-.58,1.88,4.94,8.26,5.84,11.75.8,2.48-1.23,10.49.45,11.22s3.71-5.52,4.52-11.41c.45-3.22-1.94-14.52-6-16.53a4.56,4.56,0,0,0-1-.16ZM481,165.74c.21.95.42,1.9.56,2.86.48,2.09.89,4.17,1.32,6.22-1.83-2.52-3.34-4.55-4-5.27-4.14-4.92.09-3.23,2.11-3.81Zm36.46,17.93a2.76,2.76,0,0,0-2.07,2.15c-.2.8.38,2.08-.34,2.48-.42.42-2,.18-2-2a3.87,3.87,0,0,0-.83-1.92,1.6,1.6,0,0,0-1.09-.26c-.69,0-.68.21-1.06.79a6.83,6.83,0,0,0-.37,1.84c-.09.79-.37,1.05-.94,1.17s-.54.07-1.06-.26c-.31-.34-.68-.48-.68-1.06a6,6,0,0,0-.34-2,2,2,0,0,0-1.2-.64c-2.71,0-2.87,3.09-2.71,4.26-.21.22-.34,5.77,3.35,7.31,5,2.36,14.29,1.32,13.9-6.67,0-.71-.2-3.08-.27-3.73a2.13,2.13,0,0,0-2.33-1.47ZM351,185.33a4.07,4.07,0,0,0-2.34.71c-4.38,2.38-6.08,9.41-3.35,13.53,2.55,3.62,6.58,2.29,7.12,2.29,4.3.54,6.86-8.06,6.86-8.06s.12-2.41-5,2.15c-2.14.4-2.44-.37-3-1.58a10.65,10.65,0,0,1,.68-6.74c.47-1.34,0-2.2-1-2.3Zm235.34,1.09a5.57,5.57,0,0,0-5.69,4.79c0,2,.89,3,.72,4.82-.26,1-1.3,1.68-3.81.49.39-.36-1.62-3.21-1.62-3.21-1.95-1.18-4.55.07-6.25,1.17a9.53,9.53,0,0,0-.56,7.57c2.8,5.18,12.4,14,17,14.09.09-4.66.54-10.87.8-14.73.1-1.45.45-3.06,1.84-3.42s3.82,1.4,3.84-.12c-.25-3-.84-7.35-2.52-9.41a4.72,4.72,0,0,0-3.73-2ZM392.83,202.49l-.19.12-.12.08a24.61,24.61,0,0,1-2.4,2.17c-2.22,2.53-2.62,4.28-2.48,9.35.12.53,4.21,11.9,7.68,19.89,2.33,8.31,4.49,17.82,2.91,26.8-5.47,11.88-16.46,22.53-27.07,28.31-5.41,1.73-10.08,1.15-11.33,0l0,0a7,7,0,0,1-3-6.44v-1.82l0,0c8.8-6,18.85-11,26.72-27.31,2.32-6.24,3-10,.73-19.66-.9-3.6-2-6.56-4.5-9.11v0c1.47-.77,5.41,2.11,6,.32-.92-4.61-4.08-10.81-7.66-14-3.14-2.81-6.55-3.14-9.42-.56-3.23,1.78-3.91,8.16-2.36,13.75,1.73,4.2,6.4,4.94,9.72,13.41v0c.07.53,1.14,6.32-.53,8.67-1.36,4.18-18.81,17.79-20.05,18.61l-.12.07,0,0,0,0,0,0h-.34c0-.37,0-.39-.55-.4v0c.51,0,.48-.06.47-.07-.05-.34,0-1.21,0-2.6a89.48,89.48,0,0,1,.74-9.31v0a7,7,0,0,1,1.21,0v.44h-1.15S348.07,267.61,347,271c-14.43,10-30.82,17.39-40.26,27.49-4.92,7.68,33.87-8.81,38.38-10.81a1.31,1.31,0,0,1,.11.12c.86.94.93,4.23,3.5,7.19,4,5.46,12.61,8.83,20.95,6.74,14-5.05,22-14.58,30.24-25.16,1.18-1.7,3-3,4.71-1.73,5.64,12.62,21.89,21.6,42.9,22.52,4.87-5.91,2.54-8.82.57-10.05-.61-.41-10.45-4.24-12-8.06-1-3.56,1.38-6.71,6.07-9.08,13.49-1.63,26.75-3.45,39.58-7.57.13-4.31,2.67-10.76,4.37-13.56a6.3,6.3,0,0,1,2.22-2.41l0,0,0,0s0,0-.28,0v-.07c.32-.09.32-.23.28-.38l-2.18-1.33H443.23c-.53-.34-.93-.55-1.17-.74l-.07-.08,0,0,0,0a.69.69,0,0,1,0-.08l-.7,0v0l1.2,0v-.3c-.57,0-.55,0-.54,0a.25.25,0,0,1,0-.07,3.16,3.16,0,0,1,1.35-.79c10.28-1.4,28.55-4.4,29.76-22-.19-9.15-3.92-15.14-15.14-16.8-8.25.63-14.13,8.61-13.19,17.4-.39,2.36.8,7-1.62,7.53C427.22,230,410,239.93,409.37,245.89h0a4.58,4.58,0,0,1,0,1.18l-.07,0h-.08L409,248.3h1.61l-.16,0c-1.06-.29-2.42-2-2.21-4.5a87.41,87.41,0,0,0-11.17-37.93c-2.29-2.3-3.3-3.23-4-3.33h-.32Zm39.89,6.64a2.73,2.73,0,0,0-2.07,2.11c-.2.8.38,2.13-.34,2.53-.41.42-2,.17-2-2a3.78,3.78,0,0,0-.83-1.92,1.54,1.54,0,0,0-1-.26c-.69,0-.71.21-1.09.79a6.83,6.83,0,0,0-.38,1.85c-.09.78-.36,1.05-.94,1.16s-.49.07-1-.26c-.31-.34-.71-.47-.71-1.06a5.91,5.91,0,0,0-.31-1.95,2,2,0,0,0-1.24-.64c-2.71,0-2.87,3.08-2.71,4.25-.2.22-.34,5.78,3.35,7.31,5,2.36,16.78,1,13.9-6.67,0-.7-.19-3.08-.26-3.73a2.15,2.15,0,0,0-2.34-1.47ZM599,216a.85.85,0,0,0-.41,0s-23,16.34-23.54,16.91c-2.28,2-1.14,9.15,0,8.33,1.64.63,24.77-15,24.33-16.88,1,.06,1.49-8.06-.38-8.4Zm-144.59,2.42a5.9,5.9,0,0,1,3.35.91c1.72,1,2.77,2.49,2.64,3.58,0,0,0,.08,0,.11a1,1,0,0,1-.08.11l0,.12,0,.07,0,.08a1.43,1.43,0,0,1-.23.26c-.82.77-2.72.66-4.52-.38s-2.74-2.49-2.63-3.57a.56.56,0,0,1,0-.12,1,1,0,0,1,.15-.37.52.52,0,0,1,.07-.15l0,0,.19-.19a2.14,2.14,0,0,1,1.09-.42Zm-201.18,4.15c-11.91.22-29.34,15.6-29.8,24.14,12.56-6,24.9-11.84,37.67-18.08-2.06-3.07-.12-5.85-7.87-6.06Zm38.57,5.35a3.21,3.21,0,0,1,3.05,2.22,3.84,3.84,0,0,1-.68,3.84s0,0,0,0,0,.06,0,.07c-.5.65-2.25.38-3.5.38a3.39,3.39,0,0,1-3.16-1.54c-.44-1.37.88-2.71,1.47-3.73,0,0,0,0,0,0a2.44,2.44,0,0,1,.27-.3,3.94,3.94,0,0,1,2.56-.94Zm302.73,4.73c-2.12.26-4.13,2.27-3.2,5.47-.58,1.87,2.87,8.45,3.77,11.94.8,2.48-1,9.5.64,10.24s5.6-4.17,5.46-10.43c.44-3.22-1.15-15.09-5.2-17.1a3.83,3.83,0,0,0-1.47-.12ZM337.44,244.21c-1.87.13-3.54,1.13-2.79,3.76-.11,1.91,5.29,4.24,5.62,8.67.77,1.82-1.16,7.66.45,8.21s3.52-4,4.29-8.37c.43-2.36-1.85-10.65-5.72-12.12a6.38,6.38,0,0,0-1.85-.15Zm76.95,10.12c.15,0,.27,0,.42,0h.07c4.8,1.3,11.87,1.43,18,2.07,5,.31,7.47,4.23,2.79,5.87s-9.06,2.82-9.08,9.5c.61,3.3.48,5,0,5.83a1.39,1.39,0,0,1-.15.19l0,0,0,0,0,0,0,0-.08,0a.91.91,0,0,1-.22.11l-.23,0c-1.1.16-2.69-.89-3.88-1.51-2.85-2-10.84-7-12-17.62-.16-2.4,1.64-4.47,4.52-4.67Zm-188,8.56c-.3,0-.9.9-1.69,1.92-7.08,11.28-7.71,28.12-3.81,33.15a8.28,8.28,0,0,0,8,2.67c4.45-1.93,6.4-10.94,5.35-14.24-1.49-2.32-2.66-2.69-4.15-.71-3.13,6.35-4.43,2-4.71-1.55a81.64,81.64,0,0,1,.91-17.85c.39-2.52.37-3.4.07-3.39ZM467.69,277.7A3.27,3.27,0,0,0,466,278c-.12,0-5.07,3.35-6.67,5.69-1,.74-.86,1.38-.57,2.67.76,1.75,2.1,1.2,3.62.38,2-.28,3,1,2.83,3.46-.94,3,.41,4.15.41,4.34a3.35,3.35,0,0,0,4.22.52c4.81-1.83,7.8-3.62,14.54-5.08,1.76,0,1.66-4.77-1.13-4.94-3.65.19-7,.37-10.66,3.24-2.25.52-2.63-.84-3.13-2.07-.57-3,1.28-5.18.91-7.46a5.39,5.39,0,0,0-2.72-1.09Zm154.48,5.76c-.9,0-1.84.16-3.2.27-1.48.31-2,1-2.26,2.75.1,2.71,1.76,2.58,3.46,3.65,1,1.25,1.63,2.39-.07,4.45-1.61,1.47-2.76,2.29-4.37,3.76-.76,1.3-1.24,3.29,1.09,3.92,4.3,1.21,14.24-5.25,14.24-5.39a3.16,3.16,0,0,0,.94-3.5c-.94-1.07-3.06-.43-4.48-.6-.68,0-2.91-.33-1.85-2.3a13.42,13.42,0,0,0,1.81-3.47c.67-1.47.08-2.47-2.34-3.27a13.52,13.52,0,0,0-3-.27Zm-66,131.17,0,0c-6.87,1.76-6.66,8.89-2.25,12-72.51,0-188.22-1.33-214-1.33-14.42,0-60-1.72-60.91-1.72,9.78,14.31,23.95,17.22,42.49,17.51,34.78,0,188.56-.41,233-.41-3.16,5.6.28,14.62,2.76,16.27l.19.12a1.82,1.82,0,0,0,.3.11h.11c2.94.69,4.24-1.43,5.23-3,4.77.42,31.61.81,34.07,0,0,0,0,0,0,0,1.66,2.45,3.31,4.76,6.47,4.36,5.53-1.19,9.89-1.79,10-13,0,0-.57-19.15-13.14-17.95-3,.45-11.31,1.29-11.31,1.29-9.66-1.15-16.74-1.27-27.6-1.67,1-1.27,2.77-6.42.61-8.29a3.5,3.5,0,0,0-2.58-.64h-.12s0,0,0,0l-.12,0a1.11,1.11,0,0,1-.18-.19l-.07-.07c-.54-.78-.83-2.69-1.18-3.17l0,0,0,0-.07,0h-1.61Zm6.64,26.73h0c11,.53,21.34.1,32.35.64,1.75,1.48.87,4.88-.26,5.5l-.19.07h-.3c-3.58-.09-5.65-.17-9.23-.26a2.26,2.26,0,0,0-.08-.53c-.84-2.51-7-2.35-8.43-.38l-.08.12-.07.15a1.08,1.08,0,0,0-.08.19,2,2,0,0,0,0,.26,1.45,1.45,0,0,0,0,.3c-4.84.58-9.18-.16-14-.34-1.41-1.76-1.25-5,.42-5.72Z"/></g></g><g id="Layer_1" data-name="Layer 1"><path class="cls-5" d="M861.07,6A25,25,0,0,1,886,30.93V569.07A25,25,0,0,1,861.07,594H30.93A25,25,0,0,1,6,569.07V30.93A25,25,0,0,1,30.93,6H861.07m0-6H30.93A30.93,30.93,0,0,0,0,30.93V569.07A30.93,30.93,0,0,0,30.93,600H861.07A30.93,30.93,0,0,0,892,569.07V30.93A30.93,30.93,0,0,0,861.07,0Z"/><path class="cls-5" d="M861.07,6A25,25,0,0,1,886,30.93V569.07A25,25,0,0,1,861.07,594H30.93A25,25,0,0,1,6,569.07V30.93A25,25,0,0,1,30.93,6H861.07m0-6H30.93A30.93,30.93,0,0,0,0,30.93V569.07A30.93,30.93,0,0,0,30.93,600H861.07A30.93,30.93,0,0,0,892,569.07V30.93A30.93,30.93,0,0,0,861.07,0Z"/></g></svg>