<?xml version="1.0" encoding="utf-8"?>
<!-- Generator: Adobe Illustrator 23.0.3, SVG Export Plug-In . SVG Version: 6.00 Build 0)  -->
<svg version="1.1" id="Layer_1" xmlns="http://www.w3.org/2000/svg" xmlns:xlink="http://www.w3.org/1999/xlink" x="0px" y="0px"
	 viewBox="0 0 892 600" style="enable-background:new 0 0 892 600;" xml:space="preserve">
<style type="text/css">
	.st0{clip-path:url(#SVGID_2_);}
	.st1{fill:#74ACDF;}
	.st2{fill:#FFFFFF;}
	.st3{fill:#F6B40E;}
	.st4{fill:#85340A;}
	.st5{fill:#843511;}
	.st6{fill:#939598;}
</style>
<title>Argentina</title>
<g>
	<g id="Layer_2-2">
		<g>
			<g>
				<defs>
					<path id="SVGID_1_" d="M30.9,0H861c17.1-0.1,30.9,13.7,31,30.8v0.1V569c0,17-13.8,30.9-30.8,30.9h-0.1H30.9
						C13.9,600,0.1,586.3,0,569.4c0-0.1,0-0.2,0-0.3V30.9C0,13.9,13.8,0,30.9,0C30.8,0,30.9,0,30.9,0z"/>
				</defs>
				<clipPath id="SVGID_2_">
					<use xlink:href="#SVGID_1_"  style="overflow:visible;"/>
				</clipPath>
				<g class="st0">
					<rect class="st1" width="891.9" height="601.3"/>
					<rect y="200.8" class="st2" width="892" height="200.8"/>
					<g id="rays">
						<path id="ray1" class="st3" d="M442.2,302.2l34.2,74.5c0,0,0.6,1.4,1.5,1s0.4-1.8,0.4-1.8L449.8,299 M449,328
							c-0.4,11.3,6.6,17.6,5.6,27.7s4.6,15.9,5.9,19.8s-1.4,6.3-0.2,6.9s3.7-2.5,2.9-8.1s-5.1-7.3-4.1-19.6s-5.1-15.3-3.6-26.5"/>
						<path class="st4" d="M460.6,383.1c-0.2,0-0.4,0-0.6-0.1c-1-0.5-0.7-1.6-0.4-2.5c0.6-1.5,0.7-3.2,0.2-4.8
							c-0.5-1.2-1-2.3-1.7-3.4c-2.1-3.8-5-9-4.2-16.6c0.5-4.9-1-9-2.6-13.2s-3.2-8.7-3-14.5h1.3c-0.2,5.5,1.4,9.8,2.9,13.9
							c1.6,4.4,3.2,8.6,2.7,13.8c-0.7,7.2,2,12.2,4.1,15.9c0.7,1.2,1.3,2.4,1.8,3.7c0.6,1.8,0.5,3.8-0.2,5.6
							c-0.1,0.3-0.2,0.6-0.3,0.9c0.1,0,0.2-0.1,0.3-0.1c0.9-0.7,2.2-3.2,1.6-7.3c-0.3-1.7-0.8-3.3-1.6-4.8c-1.5-3.1-3.1-6.7-2.5-15
							c0.4-4.5-0.3-9.1-1.9-13.3c-1.3-3.3-1.9-6.9-1.9-10.5l-13-28.3l1.2-0.6l12,26.2l0,0l1.3,0.2c-0.1,0.8-0.2,1.5-0.2,2.3l21,45.9
							c0.1,0.3,0.3,0.5,0.5,0.7c0.3-0.1,0.2-0.8,0.1-1L449,299.3l1.3-0.5l28.5,76.9c0.5,0.9,0.2,2.1-0.8,2.6c-0.4,0.2-0.8,0.2-1.1,0
							c-0.6-0.3-1-0.8-1.3-1.4l-19.7-43c0.3,2.4,0.9,4.7,1.7,6.9c1.7,4.4,2.4,9.1,2,13.9c-0.6,7.9,0.9,11.3,2.3,14.3
							c0.9,1.6,1.4,3.4,1.8,5.1c0.6,4.4-0.7,7.5-2.1,8.5C461.4,382.9,461,383.1,460.6,383.1z"/>
						<path id="ray1-2" class="st3" d="M441.9,300.6l3.1,82c0,0,0,1.5,1,1.5s1-1.5,1-1.5l3.1-82 M438.2,327.1
							c-4.7,10.3-0.7,18.7-5.4,27.8s-1.8,16.4-2.1,20.5s-3.7,5.3-2.8,6.2s4.4-0.9,5.8-6.4s-1.9-8.6,3.7-19.7s1.2-16,6.8-25.9"/>
						<path class="st4" d="M446,384.8c-1.1,0-1.7-1.1-1.7-2.2l-1.8-47.4c-0.6,2.3-1,4.6-1.1,7c-0.1,4.7-1.3,9.4-3.5,13.6
							c-3.6,7.1-3.4,10.9-3.3,14.2c0.2,1.8,0,3.6-0.4,5.4c-1.1,4.2-3.4,6.5-5.2,7c-0.6,0.2-1.3,0.1-1.8-0.3
							c-0.8-0.8-0.1-1.7,0.5-2.4c1.2-1.2,1.9-2.7,2-4.3c0-1.3,0-2.6-0.2-3.8c-0.5-4.3-1.1-10.1,2.4-16.9c2.3-4.4,2.5-8.7,2.6-13.2
							s0.4-9.3,2.8-14.6l1.2,0.6c-2.3,5-2.5,9.6-2.6,14.1c-0.2,4.7-0.4,9.1-2.8,13.8c-3.4,6.5-2.7,12.1-2.3,16.2
							c0.2,1.3,0.3,2.7,0.2,4.1c-0.2,1.9-1,3.7-2.4,5.1c-0.2,0.2-0.3,0.4-0.5,0.6c0.2,0,0.3,0,0.5-0.1c1-0.4,3.1-2,4.1-6
							c0.4-1.6,0.5-3.3,0.3-5c-0.1-3.5-0.3-7.4,3.4-14.8c2.1-4.1,3.2-8.5,3.3-13.1c0.1-3.6,0.9-7.1,2.3-10.4l-1.2-31l1.3-0.1
							l1.1,28.7l1.1,0.6c-0.4,0.7-0.7,1.4-1,2l1.9,50.6c0,0.2,0.1,0.9,0.3,0.9s0.3-0.7,0.3-0.8l3.1-82l1.3,0.1l-3.1,82
							C447.7,383.6,447.1,384.8,446,384.8z"/>
						<path id="ray1-3" class="st3" d="M442.2,299l-28.5,77c0,0-0.6,1.4,0.4,1.8s1.5-1,1.5-1l34.2-74.6 M428.7,322.1
							c-8.3,7.7-7.8,17.1-15.6,23.6s-7.9,14.5-9.8,18.2s-5.4,3.5-5,4.7s4.4,0.8,7.8-3.7s1.5-8.7,11-16.8s7.2-14.4,16.2-21.3"/>
						<path class="st4" d="M414.5,378.5c-0.2,0-0.4,0-0.6-0.1c-0.4-0.1-0.7-0.5-0.9-0.8c-0.2-0.6-0.2-1.3,0.1-1.8l16.4-44.3
							c-1.4,1.8-2.5,3.8-3.5,5.9c-1.9,4.3-4.8,8.2-8.4,11.3c-6.1,5.2-7.4,8.7-8.5,11.8c-0.5,1.7-1.3,3.4-2.4,4.9
							c-2.6,3.5-5.8,4.8-7.6,4.5c-0.6,0-1.1-0.4-1.4-1c-0.4-1,0.6-1.5,1.5-2c1.5-0.6,2.8-1.8,3.6-3.3c0.5-1.2,1-2.5,1.3-3.7
							c1.2-4.1,2.8-9.8,8.7-14.7c3.8-3.2,5.6-7,7.5-11.1s3.9-8.5,8.1-12.4l0.9,1c-4,3.8-6,8-7.8,12c-2,4.3-3.8,8.3-7.8,11.6
							c-5.5,4.6-7.1,10-8.2,14c-0.3,1.4-0.8,2.7-1.4,4c-0.9,1.7-2.4,3.1-4.2,3.8c-0.2,0.1-0.5,0.3-0.7,0.4c0.2,0.1,0.4,0.1,0.5,0.1
							c1.1,0,3.6-0.9,6-4c1-1.4,1.7-2.9,2.2-4.5c1.2-3.3,2.5-7,8.9-12.4c3.5-3,6.2-6.7,8.1-10.8c1.4-3.2,3.4-6.2,6-8.6l10.9-29.4
							l1.3,0.5l-10,27.1l0.1-0.1l0.8,1.1c-0.7,0.5-1.3,1-1.9,1.6l-17.5,47.3c-0.1,0.3-0.2,0.6-0.1,0.8c0,0.1,0.1,0.1,0.1,0.1
							c0.1,0,0.1,0,0.2,0c0.2-0.2,0.4-0.4,0.5-0.6l34.2-74.6l1.2,0.6L416.3,377c-0.2,0.6-0.6,1-1.1,1.3
							C414.9,378.5,414.7,378.5,414.5,378.5z"/>
						<path id="ray1-4" class="st3" d="M443.1,297.7l-55.8,60.1c0,0-1.1,1.1-0.4,1.8s1.8-0.4,1.8-0.4l60.1-55.8 M421.8,313.9
							c-10.6,4-13.7,12.8-23.4,15.8s-12.9,10.4-16,13.1s-6.4,1.1-6.4,2.4s3.8,2.4,8.6-0.5s4.8-7.5,16.6-11.3s12.1-10.5,23.1-13.5"/>
						<path class="st4" d="M387.5,360.5c-0.4,0-0.7-0.2-1-0.4c-0.8-0.8-0.4-2,0.4-2.7l32-34.5c-1.9,1.2-3.7,2.5-5.4,4
							c-3.4,3.3-7.5,5.7-12,7.1c-7.7,2.5-10.2,5.3-12.5,7.7c-1.1,1.4-2.5,2.6-4,3.5c-3.7,2.2-7,2.3-8.6,1.4c-0.6-0.3-1-0.8-1-1.5
							c0-1.2,1.2-1.3,2.1-1.3c1.7,0,3.3-0.6,4.5-1.6c0.9-0.9,1.8-1.9,2.5-2.9c2.7-3.4,6.4-8.1,13.7-10.3c4.7-1.5,7.9-4.4,11.2-7.4
							s6.8-6.3,12.2-8.4l0.5,1.3c-5.1,1.9-8.5,5.1-11.8,8.1c-3.4,3.2-6.7,6.2-11.7,7.7c-6.9,2.1-10.5,6.6-13.1,9.9
							c-0.8,1.1-1.7,2.1-2.7,3.1c-1.5,1.2-3.4,1.9-5.3,1.9c-0.3,0-0.6,0-0.8,0.1c0.1,0.1,0.2,0.2,0.3,0.2c0.9,0.5,3.6,0.8,7.2-1.4
							c1.4-0.9,2.6-2,3.7-3.3c2.4-2.6,5-5.5,13-8.1c4.3-1.4,8.3-3.7,11.6-6.9c2.5-2.4,5.5-4.4,8.8-5.7l21.3-22.9l1,0.9L424,319.3
							h0.2l0.4,1.3c-0.8,0.2-1.6,0.5-2.4,0.8l-34.3,36.9c-0.2,0.2-0.5,0.7-0.4,0.9s0.7-0.2,0.9-0.4l60.1-55.8l0.9,1l-60.1,55.8
							C388.7,360.2,388.1,360.5,387.5,360.5z"/>
						<path id="ray2" class="st4" d="M451.2,330c0.5,10.9,6.7,15.7,5.5,25.6c2.7-7.9-3.8-13.9-3.4-25.5 M444.1,301.5l23.4,51.2
							L447.9,300"/>
						<path id="ray2-2" class="st4" d="M439.6,329.7c-3.7,10.3,0.2,17.1-4.7,25.8c5.5-6.2,1.9-14.3,6.6-24.9 M443.9,300.7L446,357
							l2-56.3"/>
						<path id="ray2-3" class="st4" d="M428.9,325c-7.3,8.1-6.4,15.9-14.2,22c7.4-3.7,7.2-12.5,15.6-20.4 M444,299.9l-19.6,52.8
							l23.4-51.2"/>
						<path id="ray2-4" class="st4" d="M420.9,316.6c-9.9,4.7-11.9,12.2-21.6,14.9c8.3-0.5,11.4-8.8,22.3-12.9 M444.4,299.2
							l-38.3,41.3l41.2-38.3"/>
					</g>
					<g id="rays-2">
						<path id="ray1-5" class="st3" d="M444.4,296.8L369.9,331c0,0-1.4,0.6-1,1.5s1.8,0.4,1.8,0.4l76.9-28.5 M418.6,303.6
							c-11.3-0.4-17.6,6.6-27.7,5.6s-15.9,4.6-19.8,5.9s-6.3-1.4-6.9-0.2s2.5,3.7,8.1,2.9s7.3-5.1,19.6-4.1s15.2-5.1,26.5-3.6"/>
						<path class="st4" d="M369.9,333.7c-0.7,0.1-1.3-0.3-1.6-0.9c-0.1-0.4-0.1-0.8,0-1.1c0.3-0.6,0.8-1,1.4-1.3l43-19.7
							c-2.4,0.3-4.7,0.9-7,1.7c-4.4,1.7-9.1,2.4-13.8,2c-7.9-0.6-11.3,0.9-14.3,2.3c-1.6,0.9-3.4,1.4-5.1,1.8
							c-4.4,0.6-7.5-0.7-8.5-2.1c-0.4-0.5-0.5-1.2-0.3-1.7c0.5-1,1.6-0.7,2.5-0.4c1.5,0.6,3.2,0.7,4.8,0.2c1.2-0.5,2.3-1,3.4-1.7
							c3.8-2.1,9-5,16.6-4.2c4.9,0.5,9-1,13.2-2.6s8.7-3.2,14.5-3v1.3c-5.5-0.2-9.8,1.4-13.9,2.9c-4.4,1.6-8.6,3.2-13.8,2.7
							c-7.2-0.7-12.2,2-15.9,4.1c-1.2,0.7-2.4,1.3-3.7,1.8c-1.8,0.6-3.8,0.5-5.6-0.2c-0.3-0.1-0.6-0.2-0.9-0.3
							c0,0.1,0.1,0.2,0.1,0.3c0.7,0.9,3.2,2.2,7.3,1.6c1.7-0.3,3.2-0.9,4.7-1.7c3.1-1.5,6.7-3.1,15-2.5c4.5,0.4,9-0.3,13.3-1.9
							c3.4-1.3,6.9-2,10.5-1.9l28.4-13l0.6,1.2l-26.2,12l0,0l-0.2,1.3c-0.8-0.1-1.5-0.2-2.3-0.2l-45.9,21c-0.3,0.1-0.5,0.3-0.7,0.5
							c0.1,0.3,0.8,0.2,1,0.1l76.9-28.5l0.5,1.3L371,333.5C370.7,333.6,370.3,333.7,369.9,333.7z"/>
						<path id="ray1-6" class="st3" d="M446,296.5l-82,3.1c0,0-1.5,0-1.5,1s1.5,1,1.5,1l82,3.1 M419.5,292.8
							c-10.3-4.7-18.8-0.7-27.8-5.4s-16.4-1.8-20.6-2.1s-5.3-3.7-6.2-2.8s1,4.4,6.4,5.8s8.6-1.9,19.7,3.7s16,1.2,25.9,6.8"/>
						<path class="st4" d="M446,305.4l-82-3.1l0,0c-1,0-2.1-0.5-2.1-1.7s1.1-1.7,2.2-1.7l47.3-1.8c-2.3-0.6-4.6-1-7-1.1
							c-4.7-0.1-9.4-1.3-13.6-3.5c-7.1-3.6-10.9-3.4-14.2-3.3c-1.8,0.2-3.6,0-5.4-0.4c-4.1-1.1-6.5-3.5-7-5.2
							c-0.2-0.6-0.1-1.2,0.3-1.7c0.8-0.8,1.7,0,2.3,0.5c1.2,1.2,2.7,1.9,4.4,2.1c1.3,0,2.6,0,3.9-0.2c4.3-0.5,10.2-1.1,17,2.4
							c4.4,2.3,8.6,2.5,13.2,2.6s9.3,0.4,14.6,2.8l-0.6,1.2c-5-2.3-9.6-2.5-14.1-2.6c-4.7-0.2-9.1-0.4-13.7-2.8
							c-6.4-3.3-12.1-2.7-16.2-2.3c-1.4,0.2-2.8,0.3-4.2,0.2c-2-0.2-3.8-1-5.2-2.4l-0.5-0.4c0,0.2,0,0.3,0.1,0.5
							c0.4,1,2.1,3.1,6,4.1c1.6,0.4,3.3,0.5,5,0.3c3.5-0.1,7.4-0.3,14.9,3.4c4.1,2.1,8.5,3.2,13.1,3.3c3.6,0.1,7.1,0.9,10.3,2.3
							l31.1-1.2l0.1,1.3l-28.8,1.1l-0.6,1.1c-0.7-0.4-1.4-0.7-2-1l-50.6,1.9c-0.2,0-0.9,0.1-0.9,0.3s0.7,0.3,0.8,0.3l82,3.1
							L446,305.4z"/>
						<path id="ray1-7" class="st3" d="M447.6,296.8l-76.9-28.5c0,0-1.4-0.6-1.8,0.4s1,1.5,1,1.5l74.6,34.2 M424.5,283.3
							c-7.7-8.3-17.1-7.8-23.6-15.6s-14.5-7.9-18.2-9.8s-3.5-5.4-4.7-5s-0.8,4.4,3.7,7.8s8.7,1.5,16.8,11s14.4,7.2,21.3,16.2"/>
						<path class="st4" d="M444.2,305l-74.6-34.2c-0.6-0.2-1-0.6-1.3-1.1c-0.3-0.8,0-1.7,0.8-2.1c0.6-0.2,1.3-0.2,1.8,0.1L415,284
							c-1.8-1.4-3.8-2.5-5.9-3.5c-4.3-1.9-8.2-4.8-11.3-8.4c-5.2-6.1-8.7-7.4-11.8-8.5c-1.7-0.5-3.4-1.3-4.9-2.4
							c-3.5-2.6-4.8-5.8-4.5-7.6c0-0.6,0.4-1.1,1-1.4c1-0.4,1.5,0.6,2,1.5c0.6,1.5,1.8,2.8,3.2,3.6c1.2,0.5,2.5,1,3.7,1.3
							c4.1,1.2,9.8,2.8,14.7,8.7c3.2,3.8,7,5.6,11.1,7.5s8.5,3.9,12.4,8.1l-1,0.9c-3.8-4-8-6-12-7.8c-4.3-2-8.3-3.8-11.6-7.8
							c-4.6-5.5-10-7.1-14-8.2c-1.4-0.3-2.7-0.8-4-1.4c-1.7-0.9-3.1-2.4-3.8-4.2c-0.1-0.2-0.3-0.5-0.4-0.7c-0.1,0.2-0.1,0.4-0.1,0.6
							c0,1.1,0.9,3.6,4,6c1.4,1,2.9,1.7,4.5,2.2c3.3,1.2,7,2.5,12.4,8.9c3,3.5,6.7,6.2,10.8,8.1c3.2,1.4,6.1,3.4,8.6,5.9l29.4,10.9
							l-0.5,1.3l-27.1-10.1l0.1,0.1l-1.1,0.8c-0.5-0.7-1.1-1.3-1.6-1.9L370.1,269c-0.3-0.1-0.6-0.2-0.8-0.1c0,0-0.1,0-0.1,0.1
							s0,0.1,0,0.2c0.2,0.2,0.4,0.4,0.6,0.5l74.6,34.2L444.2,305z"/>
						<path id="ray1-8" class="st3" d="M448.9,297.7l-60.1-55.8c0,0-1.1-1.1-1.8-0.4s0.4,1.8,0.4,1.8l55.8,60.1 M432.8,276.4
							c-4-10.6-12.8-13.7-15.8-23.4s-10.4-12.9-13.1-16s-1.1-6.4-2.4-6.4s-2.4,3.8,0.5,8.6s7.5,4.8,11.3,16.6
							c3.8,11.8,10.5,12.1,13.5,23.1"/>
						<path class="st4" d="M442.7,303.9l-55.8-60.1c-0.2-0.2-0.4-0.5-0.6-0.8c-0.5-0.7-0.3-1.7,0.5-2.1c0.5-0.3,1.2-0.3,1.7,0
							c0.3,0.2,0.6,0.4,0.8,0.6l34.7,32.2c-1.2-2-2.6-3.9-4.2-5.6c-3.3-3.4-5.7-7.5-7.1-12c-2.5-7.7-5.3-10.2-7.7-12.5
							c-1.4-1.1-2.6-2.5-3.5-4c-2.2-3.7-2.3-7-1.4-8.6c0.3-0.6,0.8-1,1.5-1c1.2,0,1.3,1.2,1.3,2.1c0,1.7,0.5,3.3,1.6,4.5
							c0.9,0.9,1.9,1.8,2.9,2.5c3.4,2.7,8.1,6.4,10.3,13.7c1.5,4.7,4.4,7.9,7.4,11.2s6.3,6.8,8.4,12.2l-1.3,0.5
							c-1.9-5.1-5.1-8.5-8.1-11.8c-3.2-3.4-6.2-6.7-7.7-11.7c-2.1-6.9-6.6-10.5-9.9-13.1c-1.1-0.8-2.1-1.7-3.1-2.7
							c-1.2-1.5-1.9-3.4-1.9-5.3c0-0.3,0-0.6-0.1-0.8c-0.1,0.1-0.2,0.2-0.2,0.3c-0.5,0.9-0.8,3.6,1.4,7.2c0.9,1.4,2,2.6,3.3,3.7
							c2.6,2.4,5.5,5,8.1,13c1.4,4.3,3.7,8.3,6.9,11.6c2.5,2.6,4.4,5.6,5.8,8.9l22.8,21.1l-0.9,1l-21-19.5l0,0l-1.3,0.4
							c-0.2-0.8-0.5-1.5-0.7-2.3l-37.1-34.4c-0.2-0.2-0.7-0.6-0.9-0.4s-0.1,0.1,0.1,0.4c0.1,0.2,0.2,0.3,0.3,0.5l55.8,60.1
							L442.7,303.9z"/>
						<path id="ray2-5" class="st4" d="M416.6,305.8c-10.9,0.5-15.7,6.7-25.6,5.5c7.8,2.7,13.9-3.8,25.5-3.4 M445.1,298.7
							l-51.2,23.4l52.8-19.6"/>
						<path id="ray2-6" class="st4" d="M416.9,294.2c-10.3-3.7-17.1,0.2-25.8-4.7c6.2,5.5,14.3,1.9,24.9,6.6 M445.9,298.5l-56.3,2
							l56.3,2.1"/>
						<path id="ray2-7" class="st4" d="M421.6,283.5c-8.1-7.3-15.9-6.4-22-14.2c3.7,7.4,12.5,7.2,20.4,15.6 M446.7,298.6L393.9,279
							l51.2,23.4"/>
						<path id="ray2-8" class="st4" d="M430,275.5c-4.7-9.9-12.2-11.9-14.9-21.6c0.5,8.3,8.8,11.4,12.9,22.3 M447.4,299.1
							l-41.2-38.3l38.3,41.3"/>
					</g>
					<g id="rays-3">
						<path id="ray1-9" class="st3" d="M449.8,299l-34.2-74.5c0,0-0.6-1.4-1.5-1s-0.4,1.8-0.4,1.8l28.5,76.9 M443,273.2
							c0.4-11.3-6.6-17.6-5.6-27.7s-4.6-15.9-5.9-19.8s1.4-6.3,0.2-6.9s-3.7,2.6-2.9,8.1s5.1,7.3,4.1,19.6
							c-1,12.3,5.1,15.3,3.6,26.5"/>
						<path class="st4" d="M441.6,302.4l-28.5-76.9c-0.5-0.9-0.2-2.1,0.8-2.6c0.4-0.2,0.8-0.2,1.1,0c0.6,0.3,1,0.8,1.3,1.4l19.7,43
							c-0.3-2.3-0.9-4.6-1.7-6.9c-1.7-4.4-2.4-9.2-2-13.9c0.6-8-1-11.4-2.4-14.4c-0.8-1.6-1.4-3.3-1.7-5.1c-0.6-4.4,0.7-7.5,2.1-8.5
							c0.5-0.4,1.1-0.5,1.7-0.3c1,0.5,0.7,1.6,0.4,2.5c-0.6,1.5-0.7,3.2-0.2,4.8c0.5,1.2,1,2.3,1.7,3.4c2.1,3.8,5,9,4.2,16.6
							c-0.5,4.9,1,9,2.6,13.2s3.2,8.7,3,14.5h-1.3c0.2-5.5-1.4-9.8-2.9-13.9c-1.6-4.4-3.2-8.6-2.7-13.8c0.7-7.2-2-12.2-4.1-15.9
							c-0.7-1.2-1.3-2.4-1.8-3.7c-0.6-1.8-0.5-3.8,0.2-5.6c0.1-0.3,0.2-0.6,0.3-0.9c-0.1,0-0.3,0.1-0.4,0.2
							c-0.9,0.8-2.1,3.3-1.5,7.2c0.3,1.6,0.8,3.2,1.6,4.7c1.5,3.2,3.2,6.8,2.5,15.1c-0.4,4.5,0.3,9.1,1.9,13.4
							c1.3,3.3,1.9,6.9,1.9,10.5l13,28.3l-1.2,0.6l-12-26.2l0,0l-1.3-0.2c0.1-0.8,0.2-1.5,0.2-2.3l-21-46c-0.1-0.3-0.3-0.5-0.5-0.7
							c-0.3,0.1-0.2,0.7-0.1,1l28.5,76.9L441.6,302.4z"/>
						<path id="ray1-10" class="st3" d="M450.1,300.6l-3.1-82c0,0,0-1.5-1-1.5s-1,1.5-1,1.5l-3.1,82 M453.8,274.1
							c4.7-10.3,0.7-18.7,5.4-27.8s1.8-16.4,2.1-20.6s3.7-5.3,2.8-6.2s-4.4,0.9-5.8,6.4s1.9,8.6-3.7,19.7s-1.2,16-6.8,25.9"/>
						<path class="st4" d="M449.4,300.6l-1.1-28.8l-1.1-0.6c0.4-0.7,0.7-1.4,1-2l-1.9-50.6c0-0.2-0.1-0.9-0.3-0.9s-0.3,0.7-0.3,0.8
							l-3.1,82l-1.3-0.1l3.1-82c0-1,0.5-2.1,1.7-2.1s1.7,1.1,1.7,2.2l1.8,47.3c0.6-2.3,1-4.7,1.1-7c0.2-4.7,1.3-9.3,3.5-13.5
							c3.6-7.1,3.4-10.9,3.3-14.2c-0.2-1.8,0-3.6,0.4-5.4c1.1-4.2,3.4-6.5,5.2-7c0.6-0.2,1.3-0.1,1.8,0.3c0.8,0.8,0,1.7-0.5,2.3
							c-1.2,1.2-1.9,2.7-2.1,4.4c0,1.3,0,2.6,0.2,3.9c0.5,4.3,1.1,10.1-2.4,17c-2.3,4.4-2.5,8.7-2.6,13.2s-0.4,9.3-2.8,14.6
							l-1.2-0.6c2.3-5,2.5-9.6,2.6-14.1c0.2-4.7,0.4-9.1,2.8-13.8c3.4-6.5,2.7-12.1,2.3-16.2c-0.2-1.4-0.3-2.8-0.2-4.1
							c0.2-2,1-3.8,2.4-5.2c0.1-0.2,0.3-0.4,0.4-0.5c-0.2,0-0.3,0-0.4,0.1c-1,0.4-3.1,2.1-4.1,6c-0.4,1.6-0.5,3.3-0.3,5
							c0.1,3.4,0.3,7.4-3.4,14.8c-2.1,4.1-3.2,8.5-3.3,13.1c-0.1,3.6-0.9,7.1-2.3,10.5l1.2,31.1L449.4,300.6z"/>
						<path id="ray1-11" class="st3" d="M449.8,302.2l28.5-76.9c0,0,0.6-1.4-0.4-1.8s-1.5,1-1.5,1L442.2,299 M463.3,279.1
							c8.3-7.7,7.8-17.1,15.6-23.6s7.9-14.5,9.8-18.2s5.4-3.5,5-4.7s-4.4-0.8-7.8,3.7s-1.5,8.7-11,16.8s-7.2,14.4-16.2,21.3"/>
						<path class="st4" d="M450.4,302.4l-1.3-0.5l10-27.1l-0.1,0.1l-0.8-1.1c0.7-0.5,1.3-1.1,1.9-1.6l17.5-47.2
							c0.1-0.3,0.2-0.6,0.1-0.8c0,0,0-0.1-0.1-0.1s-0.1,0-0.2,0c-0.2,0.2-0.4,0.4-0.5,0.6l-34.2,74.6l-1.2-0.6l34.2-74.5
							c0.2-0.6,0.6-1,1.1-1.3c0.8-0.3,1.7,0,2.1,0.8c0.2,0.6,0.2,1.3-0.1,1.8l-16.4,44.1c1.3-1.8,2.5-3.8,3.5-5.8
							c1.9-4.4,4.8-8.2,8.4-11.3c6.1-5.2,7.4-8.7,8.5-11.8c0.5-1.7,1.3-3.4,2.4-4.9c2.6-3.5,5.8-4.8,7.6-4.5c0.6,0,1.1,0.4,1.4,1
							c0.4,1.1-0.6,1.5-1.5,2c-1.5,0.6-2.8,1.8-3.6,3.3c-0.5,1.2-1,2.5-1.3,3.7c-1.2,4.1-2.8,9.8-8.7,14.7c-3.8,3.2-5.6,7-7.5,11.1
							s-3.9,8.5-8.1,12.4l-0.9-1c4-3.8,6-8,7.8-12c2-4.3,3.8-8.3,7.8-11.6c5.5-4.6,7.1-10,8.2-14c0.3-1.4,0.8-2.7,1.4-4
							c0.9-1.7,2.4-3.1,4.2-3.8c0.2-0.1,0.5-0.3,0.7-0.4c-0.2-0.1-0.4-0.1-0.5-0.1c-1.1,0-3.6,0.9-6,4c-1,1.4-1.7,2.9-2.2,4.5
							c-1.2,3.3-2.5,6.9-8.9,12.4c-3.5,2.9-6.3,6.6-8.1,10.8c-1.4,3.2-3.4,6.1-5.9,8.6L450.4,302.4z"/>
						<path id="ray1-12" class="st3" d="M448.9,303.5l55.8-60.1c0,0,1.1-1.1,0.4-1.8s-1.8,0.4-1.8,0.4l-60.1,55.8 M470.2,287.4
							c10.6-4,13.7-12.8,23.4-15.8s12.9-10.4,16-13.1c3.1-2.7,6.3-1.1,6.4-2.4s-3.8-2.4-8.6,0.5s-4.8,7.5-16.6,11.3
							s-12.1,10.5-23.1,13.5"/>
						<path class="st4" d="M449.4,304l-1-0.9l19.5-21l0,0l-0.4-1.3c0.8-0.2,1.5-0.5,2.3-0.7l34.4-37.1c0.2-0.2,0.5-0.7,0.4-0.9
							s-0.6,0.2-0.9,0.4l-60.1,55.8l-0.9-1l60.1-55.8c0.7-0.7,1.9-1.2,2.7-0.4s0.4,2-0.4,2.7L473,278.6c2-1.2,3.9-2.6,5.6-4.2
							c3.4-3.3,7.5-5.7,12-7.1c7.7-2.5,10.2-5.3,12.5-7.7c1.1-1.4,2.5-2.6,4-3.5c3.8-2.3,7.2-2.3,8.8-1.3c0.5,0.3,0.9,0.8,0.9,1.5
							c-0.1,1.1-1.2,1.2-2.2,1.3c-1.7,0-3.3,0.5-4.5,1.6c-0.9,0.9-1.8,1.9-2.5,2.9c-2.7,3.4-6.4,8.1-13.7,10.3
							c-4.7,1.5-7.9,4.4-11.2,7.4s-6.8,6.3-12.2,8.4l-0.5-1.3c5.1-1.9,8.5-5.1,11.8-8.1c3.4-3.2,6.7-6.2,11.7-7.7
							c6.9-2.1,10.5-6.6,13.1-9.9c0.8-1.1,1.7-2.1,2.7-3.1c1.5-1.3,3.3-1.9,5.3-1.9c0.3,0,0.6,0,0.8-0.1c-0.1-0.1-0.3-0.2-0.4-0.3
							c-1-0.4-3.7-0.6-7.1,1.5c-1.4,0.9-2.6,2-3.7,3.3c-2.4,2.6-5,5.5-13,8.1c-4.3,1.4-8.3,3.7-11.6,6.9c-2.6,2.5-5.6,4.4-8.9,5.8
							L449.4,304z"/>
						<path id="ray2-9" class="st4" d="M440.8,271.3c-0.5-10.9-6.7-15.7-5.5-25.6c-2.7,7.9,3.8,13.9,3.4,25.5 M447.9,299.7
							l-23.4-51.2l19.6,52.8"/>
						<path id="ray2-10" class="st4" d="M452.4,271.5c3.7-10.3-0.2-17.1,4.7-25.8c-5.5,6.2-1.9,14.3-6.6,24.9 M448.1,300.5
							l-2.1-56.3l-2,56.3"/>
						<path id="ray2-11" class="st4" d="M463.1,276.2c7.3-8.1,6.4-15.9,14.2-22c-7.4,3.7-7.2,12.5-15.6,20.4 M448,301.3l19.6-52.8
							l-23.4,51.2"/>
						<path id="ray2-12" class="st4" d="M471.1,284.6c9.9-4.7,11.9-12.2,21.6-14.9c-8.3,0.5-11.4,8.8-22.3,12.9 M447.6,302
							l38.3-41.3L444.7,299"/>
					</g>
					<g id="rays-4">
						<path id="ray1-13" class="st3" d="M447.6,304.4l74.5-34.2c0,0,1.4-0.6,1-1.5s-1.8-0.4-1.8-0.4l-76.9,28.5 M473.4,297.7
							c11.3,0.4,17.6-6.6,27.7-5.6s15.9-4.6,19.8-5.9s6.3,1.4,6.9,0.2s-2.5-3.7-8.2-2.9s-7.3,5.1-19.6,4.1s-15.2,5.1-26.5,3.6"/>
						<path class="st4" d="M447.9,305l-0.6-1.2l26.1-12l0.2-1.3c0.8,0.1,1.5,0.2,2.2,0.2l46.1-21.1c0.3-0.1,0.5-0.3,0.7-0.5
							c-0.1-0.3-0.8-0.2-1-0.1l-76.9,28.5l-0.5-1.3l76.9-28.5c0.9-0.5,2.1-0.2,2.6,0.8c0.2,0.4,0.2,0.8,0,1.1
							c-0.3,0.6-0.8,1-1.4,1.3l-43.2,19.8c2.4-0.3,4.8-0.9,7.1-1.7c4.4-1.7,9.1-2.4,13.8-2c7.9,0.6,11.3-0.9,14.2-2.3
							c1.6-0.9,3.4-1.5,5.2-1.8c4.4-0.6,7.6,0.7,8.6,2.1c0.4,0.5,0.5,1.1,0.3,1.7c-0.5,1-1.6,0.7-2.5,0.4c-1.5-0.6-3.2-0.7-4.8-0.2
							c-1.2,0.5-2.3,1-3.4,1.7c-3.8,2.1-9,5-16.6,4.2c-4.9-0.5-9,1-13.2,2.6s-8.7,3.2-14.5,3V297c5.5,0.2,9.8-1.4,13.9-2.9
							c4.4-1.6,8.6-3.2,13.8-2.7c7.2,0.7,12.2-2,15.8-4.1c1.2-0.7,2.4-1.3,3.7-1.8c1.8-0.6,3.8-0.5,5.6,0.2c0.3,0.1,0.6,0.2,0.9,0.3
							c0-0.1-0.1-0.2-0.1-0.3c-0.7-0.9-3.3-2.2-7.4-1.6c-1.7,0.3-3.3,0.9-4.8,1.7c-3.1,1.5-6.7,3.1-14.9,2.5
							c-4.5-0.4-9,0.3-13.3,1.9c-3.4,1.3-7,2-10.7,1.9L447.9,305z"/>
						<path id="ray1-14" class="st3" d="M446,304.7l82-3.1c0,0,1.5,0,1.5-1s-1.5-1-1.5-1l-82-3.1 M472.5,308.4
							c10.3,4.7,18.8,0.7,27.8,5.4s16.4,1.8,20.6,2.1s5.3,3.7,6.2,2.8s-1-4.4-6.4-5.8s-8.6,1.9-19.7-3.7s-16-1.2-25.9-6.8"/>
						<path class="st4" d="M526.8,319.5c-0.6-0.1-1.2-0.4-1.6-0.9c-1.2-1.2-2.7-1.9-4.4-2.1c-1.3,0-2.6,0-3.9,0.2
							c-4.3,0.5-10.2,1.1-17-2.4c-4.4-2.3-8.6-2.5-13.2-2.6s-9.3-0.4-14.6-2.8l0.6-1.2c5,2.3,9.6,2.5,14.1,2.6
							c4.7,0.2,9.1,0.4,13.7,2.8c6.4,3.3,12.1,2.7,16.2,2.3c1.4-0.2,2.8-0.3,4.2-0.2c2,0.2,3.8,1,5.2,2.4l0.5,0.4
							c0-0.2,0-0.3-0.1-0.5c-0.4-1-2.1-3.1-6-4.1c-1.6-0.4-3.3-0.5-5-0.3c-3.5,0.1-7.4,0.3-14.9-3.4c-4.1-2.1-8.5-3.2-13.1-3.3
							c-3.6-0.1-7.1-0.9-10.5-2.3l-31.1,1.2V304l28.8-1.1l0.6-1.1c0.7,0.4,1.4,0.7,2,1l50.5-1.9c0.2,0,0.9-0.1,0.9-0.3
							s-0.7-0.3-0.8-0.3l-82-3.1l0.1-1.3l82,3.1l0,0c1,0,2.1,0.5,2.1,1.7s-1.1,1.7-2.2,1.7l-47.3,1.8c2.3,0.6,4.6,1,7,1.1
							c4.7,0.1,9.4,1.3,13.6,3.5c7.1,3.6,10.9,3.4,14.2,3.3c1.8-0.2,3.6,0,5.4,0.4c4.1,1.1,6.5,3.5,7,5.2c0.2,0.6,0.1,1.2-0.3,1.7
							C527.4,319.4,527.1,319.5,526.8,319.5z"/>
						<path id="ray1-15" class="st3" d="M444.4,304.4l76.9,28.5c0,0,1.4,0.6,1.8-0.4s-1-1.5-1-1.5l-74.5-34.2 M467.5,317.9
							c7.7,8.3,17.1,7.8,23.6,15.6s14.5,7.9,18.2,9.8c3.7,1.9,3.5,5.4,4.7,5s0.8-4.4-3.7-7.8s-8.7-1.5-16.8-11s-14.4-7.2-21.3-16.2"
							/>
						<path class="st4" d="M513.8,349c-0.8,0-1.2-0.8-1.5-1.5c-0.6-1.5-1.8-2.8-3.3-3.6c-1.2-0.5-2.5-1-3.7-1.3
							c-4.1-1.2-9.8-2.8-14.7-8.7c-3.2-3.8-7-5.6-11.1-7.5s-8.5-3.9-12.4-8.1l1-0.9c3.8,4,8,6,12,7.8c4.3,2,8.3,3.8,11.6,7.8
							c4.6,5.5,10,7.1,14,8.2c1.4,0.3,2.7,0.8,4,1.4c1.7,0.9,3.1,2.4,3.8,4.2c0.1,0.2,0.3,0.5,0.4,0.7c0.1-0.2,0.1-0.4,0.1-0.5
							c0-1.1-0.9-3.6-4-6c-1.4-1-2.9-1.7-4.5-2.2c-3.3-1.2-7-2.5-12.4-8.9c-3-3.5-6.7-6.2-10.8-8.1c-3.2-1.4-6.1-3.4-8.6-5.9
							L444.2,305l0.5-1.3l27.1,10.1l-0.1-0.1l1.1-0.8c0.5,0.7,1.1,1.3,1.6,1.9l47.2,17.5c0.3,0.1,0.6,0.2,0.8,0.1c0,0,0.1,0,0.1-0.1
							s0-0.1,0-0.2c-0.2-0.2-0.4-0.4-0.6-0.5l-74.5-34.2l0.6-1.2l74.5,34.2c0.6,0.2,1,0.6,1.3,1.1c0.3,0.8,0,1.7-0.8,2.1
							c-0.6,0.2-1.3,0.2-1.8-0.1l-44.1-16.3c1.8,1.4,3.8,2.5,5.9,3.5c4.3,1.9,8.2,4.8,11.3,8.4c5.2,6.1,8.7,7.4,11.8,8.5
							c1.7,0.5,3.4,1.3,4.9,2.4c3.5,2.6,4.8,5.8,4.5,7.6c0,0.6-0.4,1.1-1,1.4C514.1,349,513.9,349,513.8,349z"/>
						<path id="ray1-16" class="st3" d="M443.1,303.5l60.1,55.8c0,0,1.1,1.1,1.8,0.4s-0.4-1.8-0.4-1.8l-55.8-60.1 M459.3,324.8
							c4,10.6,12.8,13.7,15.8,23.4s10.4,12.9,13.1,16s1.1,6.4,2.4,6.4s2.4-3.8-0.5-8.6s-7.5-4.8-11.3-16.6s-10.5-12.1-13.5-23.1"/>
						<path class="st4" d="M490.6,371.3c-1.2,0-1.3-1.2-1.3-2.1c0-1.7-0.5-3.3-1.6-4.5c-0.9-0.9-1.9-1.8-2.9-2.5
							c-3.4-2.7-8.1-6.4-10.3-13.7c-1.5-4.7-4.4-7.9-7.4-11.2s-6.3-6.8-8.4-12.2l1.3-0.5c1.9,5.1,5.1,8.5,8.1,11.8
							c3.2,3.4,6.2,6.7,7.7,11.7c2.1,6.9,6.6,10.5,9.9,13.1c1.1,0.8,2.1,1.7,3.1,2.7c1.2,1.5,1.9,3.4,1.9,5.3c0,0.3,0,0.6,0.1,0.8
							c0.1-0.1,0.2-0.2,0.2-0.3c0.5-0.9,0.8-3.6-1.4-7.2c-0.9-1.4-2-2.6-3.3-3.7c-2.6-2.4-5.5-5-8.1-13c-1.4-4.4-3.7-8.3-6.9-11.7
							c-2.4-2.5-4.4-5.5-5.7-8.7l-23-21.4l0.9-1l21.1,19.6c0-0.1,0-0.1,0-0.2l1.3-0.4c0.2,0.8,0.5,1.6,0.8,2.4l36.9,34.3
							c0.2,0.2,0.7,0.5,0.9,0.4s-0.2-0.6-0.4-0.9l-55.8-60.1l1-0.9l55.8,60.1c0.7,0.7,1.2,1.9,0.4,2.7s-2,0.4-2.7-0.4l-34.5-32
							c1.2,1.9,2.5,3.7,4,5.4c3.3,3.4,5.7,7.5,7.1,12c2.5,7.7,5.3,10.2,7.7,12.5c1.4,1.1,2.6,2.5,3.5,4c2.2,3.7,2.3,7,1.4,8.6
							C491.8,370.8,491.2,371.2,490.6,371.3z"/>
						<path id="ray2-13" class="st4" d="M475.4,295.4c10.9-0.5,15.7-6.7,25.6-5.5c-7.8-2.7-13.9,3.8-25.5,3.4 M446.9,302.5
							l51.2-23.4l-52.8,19.6"/>
						<path id="ray2-14" class="st4" d="M475.1,307.1c10.3,3.7,17.1-0.2,25.8,4.7c-6.2-5.5-14.3-1.9-24.9-6.6 M446.1,302.7l56.3-2
							l-56.3-2.1"/>
						<path id="ray2-15" class="st4" d="M470.4,317.7c8.1,7.3,15.9,6.4,22,14.2c-3.7-7.4-12.5-7.2-20.4-15.6 M445.3,302.6l52.8,19.6
							l-51.2-23.4"/>
						<path id="ray2-16" class="st4" d="M462,325.8c4.7,9.9,12.2,11.9,14.9,21.6c-0.5-8.3-8.8-11.4-12.9-22.3 M444.6,302.2
							l41.2,38.3l-38.3-41.3"/>
					</g>
					<circle class="st3" cx="446" cy="300.6" r="33.4"/>
					<path class="st4" d="M446,334.9c-18.9,0-34.3-15.4-34.3-34.3s15.4-34.3,34.3-34.3s34.3,15.4,34.3,34.3l0,0
						C480.3,319.5,464.9,334.9,446,334.9z M446,268.1c-17.9,0-32.5,14.6-32.5,32.5s14.6,32.5,32.5,32.5s32.5-14.6,32.5-32.5l0,0
						C478.5,282.7,463.9,268.1,446,268.1L446,268.1z"/>
					<path id="loweyecontour" class="st5" d="M457.4,293.5c-2.3-0.1-4.5,1.1-5.8,3c2.6,2.3,8.2,2.6,12.1-0.3
						C462.1,294.5,459.8,293.5,457.4,293.5L457.4,293.5z M457.4,294c2.2,0,4.3,1,4.6,2c-2.4,2.6-6.5,2.8-9.2,0.5
						C453.8,294.9,455.5,293.9,457.4,294z"/>
					<path id="uppalpebra" class="st4" d="M457.8,291.9c-3.3,0-4.1,0.8-5.6,2.1c-0.8,0.6-1.6,1.1-2.6,1.3c-0.3,0.3,0,1,0.5,0.8
						c1.1-0.6,2.2-1.3,3.1-2.1c1.3-1,3-1.5,4.6-1.3c4.6,0,7.2,3.9,7.7,3.6S463,291.9,457.8,291.9z"/>
					<path id="eyebrow_nose" class="st4" d="M467.1,293.4c-5.9-5.1-13.4-5.9-17.5-2c-1,1.3-1.6,2.7-1.9,4.3
						c-0.5,2.9,0.4,6.1,2.7,9.3c-0.4,0.1-0.7,0.2-1,0.5c-2-3.6-2.7-7.7-2.1-11.7c0.2-1,0.4-2,0.8-2.9
						C453.7,286.2,461.4,285.7,467.1,293.4L467.1,293.4z"/>
					<circle id="pupil" class="st4" cx="457.3" cy="296" r="2.3"/>
					<path id="lowpalpebra" class="st4" d="M464,297.5c-4.4,3.3-8.7,3.1-11.3,1.5s-2.6-2.1-2-2.1s1,0.5,3.1,1.5
						S458.9,299.6,464,297.5L464,297.5z"/>
					<path class="st4" d="M440.9,305.2c-1.2,0.2-2,1.4-1.8,2.6s1.4,2,2.6,1.8c0.6-0.1,1.1-0.5,1.5-1c0.8,0.5,1.8,0.8,2.8,0.8h0.3
						c1,0,2-0.2,2.8-0.8c0.4,0.6,1.1,1,1.9,1c1.3,0,2.3-1,2.3-2.3c0-1.1-0.8-2-1.8-2.2c0.8,0.3,1.2,1.2,0.9,2s-1.2,1.2-2,0.9l0,0
						c-0.6-0.2-1-0.8-1-1.4c-0.7,1.8-2.8,2.6-4.5,1.8h-0.1c-0.8-0.4-1.4-1-1.8-1.8c0,0.8-0.7,1.5-1.5,1.5s-1.5-0.7-1.5-1.5v-0.1
						C439.9,306,440.3,305.4,440.9,305.2L440.9,305.2z"/>
					<path class="st4" d="M443.4,312.1c-2.6,0-3.6,2.3-5.9,3.9c1.3-0.5,2.3-1.5,4.1-2.6s3.3,0.2,4.4,0.5l0,0c1-0.2,2.6-1.5,4.4-0.5
						s2.9,2,4.1,2.6c-2.3-1.5-3.4-3.9-5.9-3.9c-0.9,0.1-1.7,0.3-2.5,0.6l0,0C445.2,312.4,444.3,312.2,443.4,312.1z"/>
					<path class="st4" d="M442.5,315.1c-1.5,0.1-2.9,0.4-4.3,0.8c4.6-1,5.6,0.5,7.7,0.3l0,0c2.1,0.2,3.1-1.3,7.7-0.3
						c-5.1-1.5-6.2-0.5-7.7-0.9l0,0C445,315.4,444.2,315.1,442.5,315.1L442.5,315.1z"/>
					<path class="st4" d="M438.5,315.9h-1c5.4,0.5,2.8,3.6,8.5,3.9l0,0c5.6-0.3,3.1-3.4,8.5-3.9c-5.6-0.5-3.9,2.8-8.5,2.7l0,0
						C441.6,318.7,442.9,315.8,438.5,315.9z"/>
					<path class="st4" d="M450.6,324.3c0.1-2.5-1.9-4.7-4.4-4.8l0,0c-2.5-0.1-4.7,1.9-4.8,4.4v0.4c0.6-2.5,3.1-4.1,5.7-3.5l0,0
						C448.9,321.2,450.2,322.5,450.6,324.3z"/>
					<path id="eyebrow_nose-2" class="st4" d="M425.2,293.4c5.9-5.1,13.4-5.9,17.5-2c1,1.3,1.6,2.7,1.9,4.3c0.5,2.9-0.4,6.1-2.7,9.3
						c0.4,0.1,0.7,0.2,1,0.5c2-3.6,2.7-7.7,2.1-11.7c-0.2-1-0.4-2-0.8-2.9C438.6,286.2,430.9,285.7,425.2,293.4L425.2,293.4z"/>
					<path id="uppalpebra-2" class="st4" d="M434.5,291.9c3.3,0,4.1,0.8,5.6,2.1c0.8,0.6,1.7,1,2.6,1.3c0.3,0.3,0,1-0.5,0.8
						c-1.1-0.6-2.2-1.3-3.1-2.1c-1.3-1-3-1.5-4.6-1.3c-4.6,0-7.2,3.9-7.7,3.6S429.3,291.9,434.5,291.9z"/>
					<path id="loweyecontour-2" class="st5" d="M434.3,293.5c-2.3-0.1-4.5,1.1-5.8,3c2.6,2.3,8.3,2.6,12.1-0.3
						C439,294.5,436.7,293.5,434.3,293.5L434.3,293.5z M434.3,294c2.2,0,4.3,1,4.6,2c-2.4,2.6-6.5,2.8-9.2,0.5
						C430.7,294.9,432.4,294,434.3,294z"/>
					<circle id="pupil-2" class="st4" cx="434.6" cy="296" r="2.3"/>
					<path id="lowpalpebra-2" class="st4" d="M428.3,297.5c4.4,3.3,8.7,3.1,11.3,1.5s2.6-2.1,2-2.1s-1,0.5-3.1,1.5
						S433.4,299.6,428.3,297.5L428.3,297.5z"/>
				</g>
			</g>
		</g>
	</g>
</g>
<g>
	<g id="Layer_1-2">
		<path class="st6" d="M861.1,6c13.7,0.1,24.8,11.2,24.9,24.9V569c0,13.8-11.1,24.9-24.9,24.9l0,0H30.9c-13.7,0-24.9-11-24.9-24.7
			c0,0,0,0,0-0.1V30.9C6.1,17.2,17.2,6.1,30.9,6H861.1 M861.1,0H30.9C13.9,0,0,13.8,0,30.8v0.1l0,0V569c-0.1,17.1,13.7,30.9,30.8,31
			h0.1H861c17,0,30.9-13.8,30.9-30.8v-0.1V30.9c0.1-17-13.6-30.8-30.5-30.9C861.3,0,861.2,0,861.1,0z"/>
	</g>
</g>
</svg>
