<svg xmlns="http://www.w3.org/2000/svg" xmlns:xlink="http://www.w3.org/1999/xlink" viewBox="0 0 892 600"><defs><style>.cls-1{fill:none;}.cls-2{clip-path:url(#clip-path);}.cls-3{fill:#ed2939;}.cls-4{fill:#fae042;}.cls-5{fill:#939598;}</style><clipPath id="clip-path"><rect class="cls-1" width="892" height="600" rx="30.93" ry="30.93"/></clipPath></defs><title>Bélgica</title><g id="Layer_2" data-name="Layer 2"><g class="cls-2"><rect class="cls-3" x="4" width="888" height="600"/><rect class="cls-4" x="4" width="592" height="600"/><rect x="4" width="296" height="600"/></g></g><g id="Layer_1" data-name="Layer 1"><path class="cls-5" d="M861.07,6A25,25,0,0,1,886,30.93V569.07A25,25,0,0,1,861.07,594H30.93A25,25,0,0,1,6,569.07V30.93A25,25,0,0,1,30.93,6H861.07m0-6H30.93A30.93,30.93,0,0,0,0,30.93V569.07A30.93,30.93,0,0,0,30.93,600H861.07A30.93,30.93,0,0,0,892,569.07V30.93A30.93,30.93,0,0,0,861.07,0Z"/></g></svg>