<svg id="Layer_2" data-name="Layer 2" xmlns="http://www.w3.org/2000/svg" xmlns:xlink="http://www.w3.org/1999/xlink" viewBox="0 0 892 600"><defs><style>.cls-1{fill:none;}.cls-2{clip-path:url(#clip-path);}.cls-3{fill:#ce1126;}.cls-4{fill:#003893;}.cls-5{fill:#fcd116;}.cls-6{fill:#939598;}</style><clipPath id="clip-path"><rect class="cls-1" width="892" height="600" rx="30.93"/></clipPath></defs><title>Colombia</title><g class="cls-2"><rect class="cls-3" width="892" height="594.67"/><rect class="cls-4" width="892" height="446"/><rect class="cls-5" width="892" height="297.33"/></g><path class="cls-6" d="M861.07,6A25,25,0,0,1,886,30.93V569.07A25,25,0,0,1,861.07,594H30.93A25,25,0,0,1,6,569.07V30.93A25,25,0,0,1,30.93,6H861.07m0-6H30.93A30.93,30.93,0,0,0,0,30.93H0V569.07A30.93,30.93,0,0,0,30.93,600H861.07A30.93,30.93,0,0,0,892,569.07V30.93A30.93,30.93,0,0,0,861.07,0Z"/></svg>