<?xml version="1.0" encoding="utf-8"?>
<!-- Generator: Adobe Illustrator 23.0.3, SVG Export Plug-In . SVG Version: 6.00 Build 0)  -->
<svg version="1.1" id="Layer_1" xmlns="http://www.w3.org/2000/svg" xmlns:xlink="http://www.w3.org/1999/xlink" x="0px" y="0px"
	 viewBox="0 0 892 600" style="enable-background:new 0 0 892 600;" xml:space="preserve">
<style type="text/css">
	.st0{clip-path:url(#SVGID_2_);}
	.st1{fill:#FFFFFF;}
	.st2{fill:#DD0000;}
	.st3{fill:#939598;}
</style>
<title>Inglaterra</title>
<g>
	<g id="Layer_2-2">
		<g>
			<defs>
				<path id="SVGID_1_" d="M30.9,0H861c17.1-0.1,30.9,13.7,31,30.8c0,0,0,0.1,0,0.1V569c0,17-13.8,30.9-30.8,30.9c0,0-0.1,0-0.1,0
					H30.9C13.9,600,0.1,586.3,0,569.4c0-0.1,0-0.2,0-0.3V30.9C0,13.9,13.8,0,30.9,0C30.8,0,30.9,0,30.9,0z"/>
			</defs>
			<clipPath id="SVGID_2_">
				<use xlink:href="#SVGID_1_"  style="overflow:visible;"/>
			</clipPath>
			<g class="st0">
				<rect y="0" class="st1" width="892" height="600"/>
				<rect x="386" y="0" class="st2" width="120" height="600"/>
				<rect y="240" class="st2" width="892" height="120"/>
			</g>
		</g>
	</g>
</g>
<g>
	<g id="Layer_1-2">
		<path class="st3" d="M861.1,6c13.7,0.1,24.8,11.2,24.9,24.9V569c0,13.8-11.1,24.9-24.9,24.9h0H30.9c-13.7,0-24.9-11-24.9-24.7
			c0,0,0,0,0-0.1V30.9C6.1,17.2,17.2,6.1,30.9,6H861.1 M861.1,0H30.9C13.9,0,0,13.8,0,30.8c0,0,0,0.1,0,0.1l0,0V569
			c-0.1,17.1,13.7,30.9,30.8,31c0,0,0.1,0,0.1,0H861c17,0,30.9-13.8,30.9-30.8c0,0,0-0.1,0-0.1V30.9c0.1-17-13.6-30.8-30.5-30.9
			C861.3,0,861.2,0,861.1,0z"/>
	</g>
</g>
</svg>
