<svg id="Layer_2" data-name="Layer 2" xmlns="http://www.w3.org/2000/svg" xmlns:xlink="http://www.w3.org/1999/xlink" viewBox="0 0 895 600"><defs><style>.cls-1,.cls-4{fill:none;}.cls-2{clip-path:url(#clip-path);}.cls-3{fill:#c1272d;}.cls-4{stroke:#006233;stroke-width:14.63px;}.cls-5{fill:#939598;}</style><clipPath id="clip-path"><path class="cls-1" d="M34.72,0H859.28A30.82,30.82,0,0,1,890,30.93V569.07A30.82,30.82,0,0,1,859.28,600H34.72A30.82,30.82,0,0,1,4,569.07V30.93A30.82,30.82,0,0,1,34.72,0Z"/></clipPath></defs><title>Marrocos</title><g class="cls-2"><rect class="cls-3" width="895" height="600"/><path class="cls-4" d="M447,224.31,402.53,361.19l116.4-84.56H375.06l116.41,84.56Z"/></g><g id="Layer_1" data-name="Layer 1"><path class="cls-5" d="M863.1,6A25,25,0,0,1,888,30.9V569a24.9,24.9,0,0,1-24.9,24.9H32.9A24.82,24.82,0,0,1,8,569.1V30.9A25,25,0,0,1,32.9,6H863.1m0-6H32.9A30.86,30.86,0,0,0,2,30.9H2V569a30.88,30.88,0,0,0,30.9,31H863a30.86,30.86,0,0,0,30.9-30.9V30.9A30.71,30.71,0,0,0,863.1,0Z"/></g></svg>