<?xml version="1.0" encoding="utf-8"?>
<!-- Generator: Adobe Illustrator 23.0.3, SVG Export Plug-In . SVG Version: 6.00 Build 0)  -->
<svg version="1.1" id="Layer_1" xmlns="http://www.w3.org/2000/svg" xmlns:xlink="http://www.w3.org/1999/xlink" x="0px" y="0px"
	 viewBox="0 0 892 600" style="enable-background:new 0 0 892 600;" xml:space="preserve">
<style type="text/css">
	.st0{clip-path:url(#SVGID_2_);}
	.st1{fill:#00853F;}
	.st2{fill:#FDEF42;}
	.st3{fill:#E31B23;}
	.st4{fill:#939598;}
</style>
<title>Senegal</title>
<g>
	<g>
		<defs>
			<path id="SVGID_1_" d="M30.9,0h830.1C878.2,0,892,13.8,892,30.9v538.1c0,17.1-13.8,30.9-30.9,30.9H30.9C13.8,600,0,586.2,0,569.1
				V30.9C0,13.8,13.8,0,30.9,0z"/>
		</defs>
		<clipPath id="SVGID_2_">
			<use xlink:href="#SVGID_1_"  style="overflow:visible;"/>
		</clipPath>
		<g class="st0">
			<rect x="1" class="st1" width="296.7" height="600"/>
			<rect x="297.7" class="st2" width="296.7" height="600"/>
			<rect x="594.3" class="st3" width="296.7" height="600"/>
			<g id="c">
				<path id="t" class="st1" d="M445.5,199.9l-30.6,95.1l47.1,15.4L445.5,199.9z"/>
				<path id="t-2" class="st1" d="M445.5,199.9l30.6,95.1L429,310.4L445.5,199.9z"/>
			</g>
			<g id="c-2">
				<path id="t-3" class="st1" d="M539.5,269.2h-99v50L539.5,269.2z"/>
				<path id="t-4" class="st1" d="M539.7,269l-80.1,58.7l-29.1-40.4L539.7,269z"/>
			</g>
			<g id="c-3">
				<path id="t-5" class="st1" d="M503.7,380.7l-30.6-95L426,301.1L503.7,380.7z"/>
				<path id="t-6" class="st1" d="M503.7,380.7l-80.1-58.8l29.1-40.4L503.7,380.7z"/>
			</g>
			<g id="c-4">
				<path id="t-7" class="st1" d="M387.3,380.7l80.1-58.8l-29.1-40.4L387.3,380.7z"/>
				<path id="t-8" class="st1" d="M387.3,380.7l30.6-95l47.1,15.4L387.3,380.7z"/>
			</g>
			<g id="c-5">
				<path id="t-9" class="st1" d="M351.3,269l80.1,58.7l29.1-40.4L351.3,269z"/>
				<path id="t-10" class="st1" d="M351.5,269.2h99.1v50L351.5,269.2z"/>
			</g>
		</g>
	</g>
</g>
<g>
	<path class="st4" d="M861.1,6C874.8,6,886,17.2,886,30.9v538.1c0,13.8-11.2,24.9-24.9,24.9H30.9C17.2,594,6,582.8,6,569.1V30.9
		C6,17.2,17.2,6,30.9,6H861.1 M861.1,0H30.9C13.8,0,0,13.8,0,30.9c0,0,0,0,0,0v538.1C0,586.2,13.8,600,30.9,600h830.1
		c17.1,0,30.9-13.8,30.9-30.9V30.9C892,13.8,878.2,0,861.1,0z"/>
</g>
</svg>
