<svg id="Layer_2" data-name="Layer 2" xmlns="http://www.w3.org/2000/svg" viewBox="0 0 892 600"><defs><style>.cls-1{fill:#fff;}.cls-2{fill:#0038a8;}.cls-3{fill:#fcd116;}.cls-4{fill:#939598;}</style></defs><title>URUGUAI</title><rect class="cls-1" width="892" height="595"/><rect class="cls-2" x="330" y="66" width="562" height="66"/><rect class="cls-2" x="330" y="198" width="562" height="66"/><rect class="cls-2" y="330" width="892" height="66"/><rect class="cls-2" y="463" width="892" height="66"/><g id="t"><g id="s"><path class="cls-3" d="M157.71,197.49l10.93,16.33c-44.94,32.52-17.5,51.75-49.35,62.16,19.81-19.33-3.23-23.12,13.46-63.41"/><path d="M118.16,276.67l.92-.9c9.81-9.58,9-15.17,7.81-23.63-1.17-8.22-2.78-19.49,5.58-39.68l.12-.28.55.23-.11.28c-8.3,20-6.71,31.21-5.55,39.37s2,14-7.06,23.22c13.76-4.83,15.51-11.44,17.9-20.49,2.82-10.65,6.32-23.9,29.91-41l-10.94-16.34.5-.34,11.26,16.82-.23.17C145.19,231.2,141.7,244.39,138.9,255c-2.51,9.5-4.32,16.36-19.51,21.33Z"/><path d="M119.42,276.25l-.26-.54c11.14-5.31,12.37-13.6,14.23-26.15,1.73-11.64,4.09-27.57,16.24-47.6l.51.31c-12.08,19.92-14.34,35.15-16.16,47.38C132.09,262.38,130.85,270.8,119.42,276.25Z"/><path class="cls-3" d="M166,165.5h21.3L165.5,285.42,143.7,165.5h21.8V285"/><path d="M165.5,287.1,143.34,165.2H165.8V282.1L187,165.8H166v-.6h21.66l-.06.35ZM144.05,165.8,165.2,282.1V165.8Z"/></g><g id="s-2"><path class="cls-3" d="M137.05,182.74,133.24,202c-54.77-8.78-49,24.22-78.85,9.06,27.67.34,14.2-17.55,54.49-34.24"/><path d="M68.33,215.44c-3.82,0-8.27-1.15-14.08-4.09l-1.15-.59h1.29c13.77.16,17.21-4.18,22.38-10.76,5-6.39,11.92-15.14,32-23.45l.28-.12.23.55-.28.12C89.07,185.36,82.24,194,77.26,200.37c-5.12,6.51-8.56,10.88-21.57,11,13.15,6.32,19.06,2.88,27.15-1.83,9.52-5.54,21.37-12.43,50.17-7.87l3.82-19.3.59.12-3.93,19.86-.29,0c-28.8-4.61-40.58,2.25-50,7.76C78.1,213,73.89,215.44,68.33,215.44Z"/><path d="M62.41,212.89a24.25,24.25,0,0,1-8.12-1.53l.2-.57c11.63,4.12,18.36-.87,28.55-8.42,9.45-7,22.39-16.61,45.14-22.18l.14.58c-22.63,5.54-35,14.71-44.92,22.08C75.64,208.6,69.85,212.89,62.41,212.89Z"/><path class="cls-3" d="M165.19,165.19,180.6,180.6,80.39,250l69.38-100.21,15.42,15.42L80.39,250"/><path d="M79.2,251.17,149.73,149.3l.25.26,31.09,31.09-.3.2Zm86-85.56L83,247.84l97.19-67.28Zm-15.38-15.38L82.53,247.42l82.23-82.23Z"/></g></g><g id="u"><g id="t-2"><g id="s-3"><path class="cls-3" d="M133.84,157.6l-17.29,11C84,123.7,64.8,151.14,54.39,119.29c19.33,19.81,21.91-3.29,62.2,13.4"/><path d="M116.47,169.05l-.16-.23C99.21,145.19,86,141.7,75.43,138.9c-9.5-2.51-16.36-4.32-21.33-19.52l-.4-1.22.9.92c9.56,9.79,14.9,9,23,7.78s18.9-2.83,39.13,5.55l.28.11-.23.56-.28-.12c-20.07-8.31-30.9-6.69-38.81-5.5s-13.38,2-22.58-7c4.83,13.76,11.44,15.51,20.5,17.9,10.65,2.82,23.89,6.32,41,29.92l17.3-11.05.33.5Z"/><path d="M128.1,150.14C108.18,138.06,93,135.8,80.72,134c-12.73-1.89-21.15-3.13-26.6-14.56l.54-.26c5.32,11.14,13.6,12.37,26.15,14.23,11.64,1.73,27.58,4.09,47.6,16.24Z"/><path class="cls-3" d="M165.5,166v21.3L45.58,165.5,165.5,143.7v21.8H46"/><path d="M165.8,187.66l-.35-.06L43.9,165.5l121.9-22.16V165.8H48.9L165.2,187V166h.6ZM48.9,165.2H165.2V144.05Z"/></g><g id="s-4"><path class="cls-3" d="M149.63,137.05l-21.28-3.81c8.78-54.77-24.22-49-9.06-78.85-.34,27.67,18,14.55,34.64,54.84"/><path d="M149.88,137.4l-.3-.05L128,133.48l.05-.29c4.61-28.8-2.25-40.58-7.76-50-4.94-8.5-8.51-14.63-1.28-28.89l.59-1.15v1.29c-.17,13.79,4.26,17.28,11,22.57,6.4,5,15.29,12,23.6,32.1l.12.28-.56.23-.11-.28c-8.25-19.92-17.05-26.85-23.47-31.91S119.12,68.71,119,55.68c-6.32,13.15-2.88,19.06,1.83,27.15,5.54,9.52,12.43,21.37,7.87,50.17l21.3,3.81Z"/><path d="M149.6,128.32c-5.54-22.63-14.71-35-22.08-44.92-7.67-10.34-12.73-17.18-8.51-29.11l.56.2c-4.11,11.63.88,18.36,8.44,28.55,7,9.45,16.6,22.39,22.17,45.14Z"/><path class="cls-3" d="M165.19,165.19,149.77,180.6,80.39,80.39,180.6,149.77l-15.41,15.42-84.8-84.8"/><path d="M149.73,181.07l-.21-.3L79.2,79.2l1.36.94,100.51,69.59ZM82.53,83l67.28,97.19,14.95-14.95Zm.42-.42,82.24,82.23,14.95-14.95Z"/></g></g></g><g id="t-3"><g id="s-5"><path class="cls-3" d="M174.16,132.88l-12.43-16.33C206.67,84,179.23,64.8,211.08,54.39c-19.81,19.33,3.1,22-13.59,62.34"/><path d="M174.1,133.3l-12.8-16.81.25-.18c23.63-17.1,27.12-30.29,29.92-40.88C194,65.93,195.79,59.07,211,54.1l1.23-.4-.92.9c-9.81,9.58-9,14.95-7.87,23.09s2.71,19-5.65,39.15l-.12.28-.55-.23.11-.28c8.3-20,6.75-30.9,5.61-38.84s-2-13.46,7.16-22.68c-13.76,4.83-15.51,11.44-17.9,20.49-2.82,10.65-6.32,23.89-29.9,41l12.43,16.33Z"/><path d="M180.74,128.41l-.51-.31c12.08-19.92,14.34-35.15,16.16-47.38C198.28,68,199.52,59.57,211,54.12l.26.54C200.07,60,198.84,68.26,197,80.81,195.25,92.45,192.89,108.39,180.74,128.41Z"/><path class="cls-3" d="M166,165.5H143.7L165.5,45.58,187.3,165.5H165.5V46"/><path d="M187.6,165.75H143.4v-.29L165.5,44.18Zm-21.85-.5H187L165.75,48.35Zm-21.76,0h21.26V48.35Z"/></g><g id="s-6"><path class="cls-3" d="M193.32,148.75l3.81-20.4c54.77,8.78,49-24.22,78.85-9.06-27.67-.34-14,17.93-54.3,34.62"/><path d="M221.52,154.3l-.23-.55.28-.12c20-8.28,26.75-17.08,31.69-23.51s8.45-11,21.43-11.13c-13.15-6.32-19.06-2.88-27.15,1.83-9.52,5.54-21.37,12.43-50.17,7.87l-3.81,20.41L193,149l3.92-21,.29.05c28.8,4.61,40.59-2.24,50-7.76,8.5-4.94,14.63-8.51,28.89-1.28l1.15.59h-2c-13.12,0-16.47,4.36-21.49,10.89s-11.81,15.37-31.94,23.71Z"/><path d="M202.19,150.18l-.14-.58c22.63-5.54,35-14.71,44.92-22.08,10.35-7.67,17.18-12.73,29.11-8.51l-.2.57c-11.63-4.12-18.36.87-28.55,8.42C237.88,135,224.94,144.61,202.19,150.18Z"/><path class="cls-3" d="M165.19,165.19l-15.42-15.42L250,80.39,180.6,180.6l-15.41-15.41L250,80.39"/><path d="M180.65,181.07l-.26-.25L149.3,149.73l.3-.21L251.17,79.2Zm-15-15.88,14.95,14.95L247.84,83Zm-15.38-15.38,15,14.95L247.5,82.53Z"/></g></g><g id="u-2"><g id="t-4"><g id="s-7"><path class="cls-3" d="M196.53,174.5l17.29-12.77c32.52,44.94,51.75,17.5,62.16,49.35-19.33-19.81-22.05,3.1-62.34-13.59"/><path d="M276.67,212.21l-.9-.92c-9.58-9.81-14.95-9-23.09-7.87s-19,2.71-39.15-5.65l-.28-.12.23-.55.28.11c20,8.3,30.9,6.75,38.84,5.61s13.46-1.93,22.68,7.13c-4.83-13.76-11.44-15.51-20.49-17.9-10.65-2.82-23.89-6.31-41-29.9L196.5,174.92l-.35-.48,17.77-13.13.18.24c17.1,23.63,30.29,27.12,40.88,29.92,9.5,2.51,16.36,4.32,21.33,19.52Z"/><path d="M275.71,211.21c-5.31-11.14-13.6-12.37-26.15-14.23-11.64-1.73-27.57-4.09-47.6-16.24l.31-.51c19.92,12.08,35.15,14.34,47.38,16.16,12.74,1.89,21.15,3.14,26.6,14.56Z"/><path class="cls-3" d="M165.5,166V143.7l119.92,21.8L165.5,187.3V165.5H285"/><path d="M165.2,187.66V143.34l.35.06L287.1,165.5Zm.6-21.66v21l116.3-21.2H165.8Zm0-.8H282.1L165.8,144.05Z"/></g><g id="s-8"><path class="cls-3" d="M182.74,193.32,202,197.13c-8.78,54.77,24.22,49,9.06,78.85.34-27.67-17-12.61-33.72-52.9"/><path d="M210.76,277.27V276c.16-13.69-4-16.79-10.35-21.48s-15-11.09-23.34-31.31l-.12-.28.56-.23.11.28c8.38,20,16.91,26.42,23.16,31s10.5,7.77,10.6,20.67c6.32-13.15,2.88-19.06-1.83-27.15-5.54-9.52-12.43-21.37-7.87-50.17l-19.29-3.82.11-.59,19.86,3.93-.05.29c-4.61,28.8,2.25,40.58,7.76,50,4.94,8.5,8.51,14.63,1.28,28.89Z"/><path d="M211.36,276.08l-.56-.2c4.11-11.63-.88-18.36-8.44-28.55-7-9.45-16.6-22.39-22.17-45.14l.58-.14c5.54,22.63,14.71,35,22.08,44.92C210.52,257.31,215.58,264.15,211.36,276.08Z"/><path class="cls-3" d="M165.19,165.19l15.41-15.42L250,250,149.77,180.6l15.42-15.41L250,250"/><path d="M251.17,251.17l-1.36-.94L149.3,180.65l31.35-31.35.2.3ZM150.23,180.56l97.19,67.28-82.23-82.23Zm15.38-15.37,82.23,82.23-67.28-97.19Z"/></g></g></g><circle class="cls-3" cx="165.19" cy="165.19" r="39.97"/><path d="M165.19,205.46a40.28,40.28,0,1,1,40.27-40.29v0A40.32,40.32,0,0,1,165.19,205.46Zm0-79.95a39.68,39.68,0,1,0,39.67,39.69h0A39.72,39.72,0,0,0,165.19,125.51Z"/><g id="right"><path d="M194.62,149.2c-2.54,2.9-4-2.19-13.08-2.19s-10.54,5.46-12,4.37,7.63-7.64,10.53-8,11.27,2.54,14.54,5.82m-10.54,3.27c2.55,2.18.37,6.9-2.18,6.9s-7.27-4.36-5.09-7.27"/><path d="M172.09,155.74c.36-4.36,4-5.09,9.81-5.09s8.36,4.36,10.54,5.45c-2.54,0-4.72-3.63-10.54-3.63s-5.81,0-9.81,3.63m1.09.73c1.45-2.18,3.27,2.18,7.27,2.18a13.26,13.26,0,0,0,8.72-2.91c2.54-1.82-3.63,4.36-7.63,4.36s-9.45-2.18-8.36-3.63"/><path d="M185.54,159c4.72-2.55,1.81-6.18,0-6.91.72.73,3.63,4.36,0,6.91m-20.35,22.08c2.18,0,2.9-.72,5.81-.72s9.81,4,13.81,2.54c-8.36,3.27-5.09,1.09-19.62,1.09H163m23.26,1.9c-1.45-2.54-1.09-1.82-4-5.82,2.9,2.19,3.63,3.28,4,5.82m-21.07,4c9.08,0,7.63-1.82,19.62-6.91-8.72,1.09-10.54,4-19.62,4H163m2.19-10.91c2.54,0,3.27-1.82,6.17-1.82s6.91,1.09,8.72,2.54c.37.37-1.09-2.9-4-3.27s-1.82-5.08-5.09-5.81c0,1.45,1.09,1.09,1.45,3.27,0,1.82-3.27,1.82-4,0,.72,2.91-1.46,2.91-3.27,2.91"/></g><g id="right-2"><path d="M135.75,149.2c2.54,2.9,4-2.19,13.08-2.19s10.54,5.46,12,4.37-7.63-7.64-10.53-8-11.27,2.54-14.54,5.82m10.54,3.27c-2.55,2.18-.37,6.9,2.18,6.9s7.27-4.36,5.09-7.27"/><path d="M158.28,155.74c-.36-4.36-4-5.09-9.81-5.09s-8.36,4.36-10.54,5.45c2.54,0,4.72-3.63,10.54-3.63s5.81,0,9.81,3.63m-1.09.73c-1.45-2.18-3.27,2.18-7.27,2.18a13.26,13.26,0,0,1-8.72-2.91c-2.54-1.82,3.63,4.36,7.63,4.36s9.45-2.18,8.36-3.63"/><path d="M144.83,159c-4.72-2.55-1.81-6.18,0-6.91-.72.73-3.63,4.36,0,6.91m20.36,22.08c-2.19,0-2.91-.72-5.82-.72s-9.81,4-13.81,2.54c8.36,3.27,5.09,1.09,19.63,1.09H167m-22.89,1.9c1.45-2.54,1.09-1.82,4-5.82-2.91,2.19-3.64,3.28-4,5.82m21.08,4c-9.09,0-7.64-1.82-19.63-6.91,8.72,1.09,10.54,4,19.63,4H167m-1.81-10.91c-2.55,0-3.28-1.82-6.18-1.82s-6.91,1.09-8.72,2.54c-.37.37,1.09-2.9,4-3.27s1.82-5.08,5.09-5.81c0,1.45-1.09,1.09-1.45,3.27,0,1.82,3.27,1.82,4,0-.72,2.91,1.46,2.91,3.28,2.91"/></g><path d="M165.19,192.8c-1.82,0-6.55,1.09,0,1.09s1.81-1.09,0-1.09"/><path class="cls-4" d="M861.07,6A25,25,0,0,1,886,30.93V569.07A25,25,0,0,1,861.07,594H30.93A25,25,0,0,1,6,569.07V30.93A25,25,0,0,1,30.93,6H861.07m0-6H30.93A30.93,30.93,0,0,0,0,30.93H0V569.07A30.93,30.93,0,0,0,30.93,600H861.07A30.93,30.93,0,0,0,892,569.07V30.93A30.93,30.93,0,0,0,861.07,0Z"/></svg>